<?xml version="1.0" standalone="no"?>
<!DOCTYPE svg PUBLIC "-//W3C//DTD SVG 1.1//EN" "http://www.w3.org/Graphics/SVG/1.1/DTD/svg11.dtd" >
<svg xmlns="http://www.w3.org/2000/svg">
<metadata>Generated by IcoMoon</metadata>
<defs>
<font id="icomoon" horiz-adv-x="1024">
<font-face units-per-em="1024" ascent="960" descent="-64" />
<missing-glyph horiz-adv-x="1024" />
<glyph unicode="&#x20;" horiz-adv-x="512" d="" />
<glyph unicode="&#xe900;" glyph-name="arrowdown-01" horiz-adv-x="1787" d="M1768.843 854.598l-89.432 88.155c-10.36 11.848-25.505 19.29-42.387 19.29-15.657 0-29.819-6.401-40.012-16.729l-0.006-0.006-702.682-693.739-702.682 691.184c-11.338 10.636-26.617 17.188-43.427 17.248h-0.012c-16.32-0.124-31.022-6.954-41.503-17.867l-0.019-0.020-89.432-87.516c-10.982-9.973-17.849-24.308-17.849-40.246 0-14.031 5.322-26.819 14.057-36.456l-0.041 0.046 3.833-3.833 834.915-819.583c10.19-10.278 24.314-16.641 39.925-16.641s29.735 6.363 39.921 16.637l0.004 0.004 837.47 819.583c10.982 9.973 17.849 24.308 17.849 40.246 0 14.031-5.322 26.819-14.057 36.456l0.041-0.046z" />
<glyph unicode="&#xe901;" glyph-name="arrowleft-01" horiz-adv-x="585" d="M525.166-54.126l50.103 51.566c5.905 5.893 9.558 14.040 9.558 23.040s-3.653 17.147-9.557 23.039l-0.001 0.001-394.971 404.48 394.971 402.286c6.089 6.491 9.84 15.238 9.874 24.862v0.007c-0.115 9.335-4.014 17.738-10.231 23.763l-0.009 0.008-49.737 51.2c-5.604 6.609-13.914 10.775-23.196 10.775-7.658 0-14.653-2.836-19.993-7.514l0.035 0.030-2.926-3.291-468.48-478.354c-5.905-5.893-9.558-14.040-9.558-23.040s3.653-17.147 9.557-23.039l0.001-0.001 468.48-479.817c5.71-6.287 13.916-10.219 23.041-10.219 8.033 0 15.354 3.047 20.871 8.048l-0.026-0.023z" />
<glyph unicode="&#xe902;" glyph-name="arrowright-01" horiz-adv-x="585" d="M59.977 950.126l-50.103-51.566c-5.905-5.893-9.558-14.040-9.558-23.040s3.653-17.147 9.557-23.039l0.001-0.001 394.971-402.286-394.971-404.48c-5.909-6.098-9.716-14.262-10.236-23.308l-0.004-0.098c0.115-9.335 4.014-17.738 10.231-23.763l0.009-0.008 50.103-51.2c5.604-6.609 13.914-10.775 23.196-10.775 7.658 0 14.653 2.836 19.993 7.514l-0.035-0.030 3.291 3.291 468.114 476.891c5.905 5.893 9.558 14.040 9.558 23.040s-3.653 17.147-9.557 23.039l-0.001 0.001-468.48 479.817c-5.71 6.287-13.916 10.219-23.041 10.219-8.033 0-15.354-3.047-20.871-8.048l0.026 0.023z" />
<glyph unicode="&#xe903;" glyph-name="arrowup-01" horiz-adv-x="1792" d="M17.92 40.96l89.6-87.68c10.209-10.297 24.36-16.672 40-16.672s29.791 6.375 39.996 16.668l0.004 0.004 708.48 691.2 704-691.2c10.825-10.474 25.365-17.166 41.458-17.915l0.142-0.005c16.351 0.124 31.080 6.967 41.581 17.9l0.019 0.020 89.6 87.68c10.501 10.333 17.222 24.48 17.916 40.193l0.004 0.127c-0.917 16.001-7.579 30.289-17.936 40.977l0.016-0.017-835.84 819.2c-10.209 10.297-24.36 16.672-40 16.672s-29.791-6.375-39.996-16.668l-0.004-0.004-839.68-819.2c-10.341-10.671-17.003-24.959-17.912-40.789l-0.008-0.171c0.879-15.921 7.822-30.068 18.537-40.298l0.023-0.022z" />
<glyph unicode="&#xe904;" glyph-name="calendar-01" horiz-adv-x="940" d="M867.376 813.714h-72.367v54.793c0 0.002 0 0.004 0 0.006 0 50.167-40.376 90.903-90.404 91.487l-0.055 0.001h-36.184c-50.084-0.584-90.459-41.321-90.459-91.487 0-0.002 0-0.004 0-0.006v0-54.793h-216.069v54.793c0 0 0 0.001 0 0.001 0 50.349-40.669 91.198-90.948 91.492h-36.212c-50.084-0.584-90.459-41.321-90.459-91.487 0-0.002 0-0.004 0-0.006v0-54.793h-72.367c-39.866-0.869-71.851-33.392-71.851-73.385 0-0.006 0-0.012 0-0.017v0.001-730.912c0.286-39.956 32.454-72.305 72.313-72.884l0.055-0.001h795.009c39.913 0.579 72.081 32.928 72.367 72.857v730.94c0 0.002 0 0.005 0 0.007 0 40.175-32.276 72.811-72.313 73.393l-0.055 0.001zM234.677 9.401h-162.827v164.378h162.827v-164.378zM234.677 210.48h-162.827v180.919h162.827v-182.986zM234.677 429.65h-162.827v164.378h162.827zM216.586 701.545v166.445c0.279 9.878 8.214 17.813 18.066 18.091l0.026 0.001h36.184c9.878-0.279 17.813-8.214 18.091-18.066l0.001-0.026v-166.445c-0.531-9.771-8.321-17.561-18.043-18.090l-0.049-0.002h-36.184c-9.878 0.279-17.813 8.214-18.091 18.066l-0.001 0.026zM451.78 8.884h-180.919v164.894h180.919v-164.378zM451.78 209.963h-180.919v181.436h180.919v-182.986zM451.78 429.133h-180.919v164.894h180.919zM668.365 8.884h-180.402v164.894h180.402v-164.378zM668.365 209.963h-180.402v181.436h180.402v-182.986zM668.365 429.133h-180.402v164.894h180.402zM650.274 701.545v166.445c0.279 9.878 8.214 17.813 18.066 18.091l0.026 0.001h36.184c9.878-0.279 17.813-8.214 18.091-18.066l0.001-0.026v-166.445c-0.279-9.878-8.214-17.813-18.066-18.091l-0.026-0.001h-36.184c-9.771 0.531-17.561 8.321-18.090 18.043l-0.002 0.049zM867.376 6.817h-162.827v166.962h162.827v-164.378zM867.376 207.895h-162.827v183.503h162.827v-182.469zM867.376 427.065h-162.827v166.962h162.827z" />
<glyph unicode="&#xe905;" glyph-name="check-01" horiz-adv-x="1309" d="M1285.383 818.841l-114.841 117.234c-14.733 14.797-35.121 23.954-57.648 23.954-0.761 0-1.52-0.010-2.276-0.031l0.111 0.002c-0.717 0.023-1.56 0.036-2.407 0.036-22.452 0-42.764-9.163-57.399-23.954l-0.007-0.007-549.682-566.43-248.224 254.206c-14.733 14.797-35.121 23.954-57.648 23.954-0.761 0-1.52-0.010-2.276-0.031l0.111 0.002c-0.862 0.034-1.875 0.053-2.892 0.053-22.303 0-42.462-9.178-56.906-23.963l-0.015-0.015-114.841-119.626c-15.516-15.211-25.134-36.389-25.134-59.813s9.618-44.602 25.12-59.8l0.014-0.013 310.43-307.439 114.841-119.626c14.393-14.38 34.27-23.273 56.224-23.273s41.831 8.893 56.225 23.274l-0.001-0.001 114.841 119.626 614.28 624.449c14.14 15.381 22.807 35.987 22.807 58.617s-8.667 43.236-22.864 58.679l0.057-0.062z" />
<glyph unicode="&#xe906;" glyph-name="click-01" d="M865.865 960h-707.291c-87.721-0.661-158.578-71.926-158.578-159.74 0-0.413 0.002-0.826 0.005-1.238v0.063-251.465c-0.003-0.349-0.004-0.761-0.004-1.174 0-87.866 70.94-159.163 158.669-159.74h167.698c3.955 0.113 7.559 1.528 10.42 3.83l-0.034-0.026 107.666-169.399c-35.547 16.969-98.743 7.753-129.463-11.41-2.977-1.889-5.329-4.522-6.828-7.642l-0.048-0.111c-4.535-9.485-7.184-20.617-7.184-32.367 0-30.126 17.412-56.185 42.722-68.662l0.449-0.2 303.982-145.115c25.649-12.656 55.813-20.14 87.706-20.333h0.065c61.65 0.991 116.744 28.241 154.727 71.024l0.19 0.217c58.514 63.342 94.062 172.032 39.936 272.091l-58.514 108.251c84.746 4.246 151.85 73.991 151.85 159.41 0 0.478-0.002 0.955-0.006 1.431l0.001-0.073v251.465c0.003 0.35 0.004 0.764 0.004 1.178 0 87.66-70.608 158.828-158.053 159.735l-0.086 0.001zM898.779 261.925c45.495-84.114 15.506-175.543-34.523-229.669-43.886-46.519-118.784-82.213-201.289-42.862l-304.128 144.969c-13.377 6.641-22.411 20.208-22.411 35.885 0 4.213 0.652 8.274 1.862 12.087l-0.077-0.283c23.259 11.557 68.901 16.969 90.112 6.729l57.637-27.502c2.237-1.085 4.866-1.719 7.642-1.719 5.42 0 10.276 2.416 13.549 6.23l0.020 0.024c2.788 3.212 4.487 7.434 4.487 12.053 0 3.67-1.073 7.090-2.922 9.963l0.044-0.073-182.565 287.159c-3.695 5.76-5.89 12.789-5.89 20.331 0 3.168 0.387 6.246 1.117 9.188l-0.055-0.262c2.409 10.701 8.82 19.596 17.541 25.212l0.159 0.096c5.816 3.539 12.849 5.634 20.371 5.634 14.298 0 26.829-7.57 33.802-18.92l0.098-0.172 89.381-134.875c3.2-4.912 8.666-8.113 14.879-8.113 1.258 0 2.485 0.131 3.668 0.381l-0.115-0.020c7.477 1.341 13.287 7.151 14.612 14.519l0.016 0.109c4.266 17.209 19.578 29.764 37.821 29.764 11.835 0 22.435-5.283 29.572-13.62l0.044-0.053c3.271-3.989 8.2-6.515 13.718-6.515 2.055 0 4.027 0.35 5.862 0.994l-0.124-0.038c6.943 2.335 11.947 8.57 12.431 16.038l0.003 0.054c0.982 12.993 8.022 24.157 18.274 30.771l0.158 0.095c5.83 3.65 12.914 5.814 20.503 5.814 12.009 0 22.752-5.42 29.917-13.946l0.049-0.060c3.351-4.019 8.359-6.558 13.961-6.558 1.963 0 3.853 0.312 5.624 0.889l-0.128-0.036c6.92 2.369 11.906 8.585 12.431 16.033l0.003 0.058c0.909 13.015 7.973 24.206 18.272 30.771l0.16 0.095c6.103 3.831 13.521 6.104 21.471 6.104 3.598 0 7.088-0.466 10.412-1.34l-0.284 0.064c9.4-2.46 17.067-8.551 21.561-16.647l0.090-0.176zM988.599 547.621c0.001-0.175 0.001-0.381 0.001-0.588 0-67.88-54.779-122.965-122.542-123.462h-0.047c-4.34-0.062-8.283-1.716-11.28-4.403l0.016 0.014-35.547 65.39c-9.245 16.908-24.788 29.395-43.395 34.411l-0.49 0.113c-6.104 1.784-13.116 2.811-20.367 2.811-29.389 0-54.84-16.861-67.207-41.437l-0.197-0.432c-9.911 5.173-21.646 8.208-34.090 8.208-14.444 0-27.934-4.089-39.374-11.172l0.321 0.185c-11.601-7.417-20.856-17.563-27.010-29.561l-0.199-0.428c-9.859 5.081-21.516 8.060-33.869 8.060-23.371 0-44.251-10.662-58.042-27.388l-0.103-0.128-71.973 107.959c-13.591 21.276-37.083 35.18-63.823 35.18-14.537 0-28.114-4.109-39.633-11.229l0.324 0.187c-17.016-10.859-29.31-27.834-33.84-47.761l-0.098-0.514c-1.217-5.051-1.915-10.849-1.915-16.811 0-14.818 4.312-28.629 11.749-40.247l-0.179 0.299 20.187-31.598h-157.403c-67.81 0.497-122.589 55.582-122.589 123.462 0 0.207 0.001 0.414 0.002 0.62v-0.032 251.758c-0.002 0.262-0.003 0.571-0.003 0.881 0 67.88 54.78 122.966 122.543 123.462h707.338c67.811-0.496 122.591-55.582 122.591-123.462 0-0.31-0.001-0.619-0.003-0.928v0.048-251.465z" />
<glyph unicode="&#xe907;" glyph-name="contact-01" d="M393.956 496.64c0.084-0.001 0.184-0.001 0.283-0.001 23.564 0 42.667 19.103 42.667 42.667s-19.103 42.667-42.667 42.667c-23.464 0-42.504-18.94-42.666-42.366v-0.015c-0.002-0.169-0.004-0.369-0.004-0.569 0-23.407 18.975-42.382 42.382-42.382 0.001 0 0.003 0 0.004 0v0zM393.956 540.729l1.422-1.707h-2.844c0 0.007 0 0.015 0 0.024 0 0.842 0.61 1.542 1.412 1.681l0.010 0.001zM630.898 496.64c0.084-0.001 0.184-0.001 0.283-0.001 23.564 0 42.667 19.103 42.667 42.667s-19.103 42.667-42.667 42.667c-23.464 0-42.504-18.94-42.666-42.366v-0.015c0-23.407 18.975-42.382 42.382-42.382v0zM630.898 540.729l1.422-1.707h-2.844c0 0.007 0 0.015 0 0.024 0 0.842 0.61 1.542 1.412 1.681l0.010 0.001zM662.471 347.307c0.506 1.695 0.797 3.642 0.797 5.658 0 9.263-6.15 17.090-14.59 19.62l-0.145 0.037c-1.616 0.451-3.471 0.711-5.387 0.711-9.39 0-17.324-6.232-19.891-14.786l-0.038-0.147c-20.849-41.108-62.801-68.79-111.218-68.79s-90.369 27.682-110.892 68.082l-0.326 0.707c-2.605 8.701-10.539 14.933-19.929 14.933-1.916 0-3.771-0.259-5.533-0.745l0.146 0.034c-8.585-2.567-14.735-10.394-14.735-19.658 0-2.016 0.291-3.963 0.834-5.803l-0.037 0.145c25.952-58.512 83.532-98.586 150.471-98.586s124.519 40.074 150.056 97.541l0.415 1.045zM1024 491.804c0.030 1.225 0.047 2.669 0.047 4.116 0 90.661-67.326 165.598-154.708 177.54l-0.93 0.104c-15.292 71.816-49.816 133.937-97.889 182.654l0.040-0.040c-60.857 61.405-144.178 100.459-236.605 103.804l-0.621 0.018h-41.529c-93.153-3.287-176.587-42.355-237.486-103.796l-0.026-0.026c-48.029-48.579-82.552-110.607-97.418-179.929l-0.431-2.4c-88.637-14.288-155.519-90.24-155.519-181.813 0-92.685 68.517-169.368 157.663-182.16l0.985-0.116h1.707c5.141 0.046 9.821 1.979 13.391 5.139l-0.022-0.019c9.619 1.549 16.902 9.713 17.066 19.61v284.177c0 3.982 0 8.533 0 12.8 88.743 24.549 161.976 79.658 209.345 153.032l0.859 1.421c63.635-57.468 148.375-92.631 241.327-92.631 59.638 0 115.895 14.474 165.45 40.102l-2.013-0.947c16.176-33.277 25.956-72.293 26.734-113.512l0.004-0.266v-284.444c-3.45-84.597-37.809-160.558-92.005-217.452l0.129 0.137c-39.036-34.646-88.269-58.626-142.659-66.934l-1.554-0.195c-11.103 37.411-45.173 64.233-85.508 64.233-49.171 0-89.031-39.861-89.031-89.031s39.861-89.031 89.031-89.031c43.355 0 79.472 30.989 87.409 72.025l0.090 0.56c66.401 9.495 124.829 38.172 170.922 80.158l-0.255-0.229c56.065 58.579 93.43 135.465 102.265 220.822l0.135 1.613c86.431 13.947 151.645 88.014 151.645 177.312 0 1.264-0.013 2.525-0.039 3.782l0.003-0.188zM512-23.040c-0.084-0.001-0.184-0.001-0.284-0.001-26.706 0-48.356 21.65-48.356 48.356s21.65 48.356 48.356 48.356c26.606 0 48.193-21.487 48.355-48.055v-0.015c0-0.001 0-0.002 0-0.003 0-26.663-21.454-48.315-48.041-48.636h-0.030zM40.96 491.804c-0.023 0.943-0.036 2.054-0.036 3.168 0 66.508 46.584 122.137 108.903 136.036l0.928 0.174c0-3.982 0-8.249 0-11.947v-265.956c-63.229 13.959-109.83 69.527-109.83 135.98 0 1.095 0.013 2.186 0.038 3.275l-0.003-0.162zM644.551 734.436c-0.282-0.001-0.616-0.001-0.95-0.001-90.676 0-172.543 37.714-230.77 98.312l-0.102 0.107c-3.725 3.83-8.928 6.206-14.686 6.206-7.749 0-14.492-4.303-17.971-10.651l-0.053-0.107c-38.987-71.594-102.32-125.787-178.645-152.070l-2.262-0.677c14.988 59.566 44.808 110.798 85.333 151.324v0c53.417 54.187 126.641 88.724 207.919 91.858l0.578 0.018h41.529c81.752-3.228 154.863-37.751 208.177-91.839l0.036-0.037c17.083-17.303 32.219-36.601 45.005-57.491l0.79-1.389c-41.438-21.142-90.346-33.623-142.148-33.849h-0.074zM874.382 352.996v265.671c0 3.982 0 8.249 0 12.516 64.777-14.175 112.554-71.055 112.554-139.093s-47.777-124.919-111.612-138.92l-0.942-0.173z" />
<glyph unicode="&#xe908;" glyph-name="customerservice-01" horiz-adv-x="1121" d="M1013.279 837.475c-31.68 34.409-67.979 63.881-108.072 87.624l-2.201 1.206c-61.262 34.001-219.932 70.452-326.528-33.694l-38.902-39.821-30.631 30.631c-126.507 122.525-300.798 78.109-407.701-30.631-100.47-102.308-150.705-270.473-23.586-398.205l61.262-61.262-14.397-15.316c-15.593-15.717-25.23-37.364-25.23-61.262s9.636-45.545 25.235-61.268l-0.006 0.006 7.351-7.045c15.456-15.699 36.939-25.426 60.694-25.426 0.2 0 0.399 0.001 0.599 0.002h10.384c-0.208-2.237-0.327-4.837-0.327-7.464 0-23.653 9.609-45.061 25.135-60.534l7.353-7.353c15.778-15.425 37.388-24.942 61.221-24.942 5.427 0 10.739 0.494 15.894 1.438l-0.537-0.082v-1.838c-0.005-0.333-0.007-0.727-0.007-1.121 0-23.526 9.609-44.807 25.117-60.133l7.359-7.359c3.973 0.65 8.553 1.021 13.219 1.021 47.537 0 86.074-38.536 86.074-86.074 0-1.005-0.017-2.007-0.051-3.004l0.004 0.145 7.045-7.351c15.615-15.816 37.295-25.612 61.262-25.612s45.647 9.796 61.253 25.603l0.009 0.009 63.407 64.019c8.497 8.468 15.258 18.673 19.706 30.038l0.205 0.594c14.933-14.769 35.475-23.892 58.148-23.892 0.018 0 0.036 0 0.055 0h-0.003c26.259 0.299 49.99 10.878 67.408 27.893l-0.019-0.019c15.394 14.737 25.354 35.040 26.639 57.664l0.010 0.229c4.549-0.741 9.793-1.164 15.135-1.164 27.199 0 51.834 10.975 69.719 28.738l-0.006-0.005c16.738 16.033 27.141 38.564 27.141 63.524 0 2.006-0.067 3.997-0.199 5.97l0.014-0.267c1.131-0.057 2.455-0.089 3.787-0.089 22.477 0 42.813 9.171 57.469 23.974l0.007 0.007c18.694 17.292 30.358 41.948 30.358 69.33 0 22.142-7.628 42.503-20.399 58.597l0.149-0.195 59.118 59.118c123.75 125.281 71.064 298.041-36.145 415.052zM219.625 281.826c-7.581-7.276-17.894-11.757-29.253-11.757s-21.672 4.481-29.267 11.771l0.015-0.014-7.964 7.351c-7.328 7.501-11.848 17.773-11.848 29.1s4.521 21.598 11.856 29.108l-0.008-0.008 94.65 94.957c7.307 7.56 17.538 12.253 28.866 12.253 0.082 0 0.165 0 0.247-0.001h-0.013c0.516 0.024 1.122 0.037 1.73 0.037 11.345 0 21.591-4.708 28.889-12.278l7.363-7.363c7.401-7.469 11.974-17.752 11.974-29.102 0-0.538-0.010-1.073-0.031-1.606l0.002 0.077c0.010-0.347 0.016-0.756 0.016-1.166 0-11.463-4.563-21.861-11.972-29.475l0.009 0.010zM322.853 181.662c-7.64-7.141-17.934-11.526-29.253-11.526s-21.613 4.385-29.277 11.549l0.024-0.023-7.351 7.351c-7.399 7.605-11.962 18.002-11.962 29.466 0 0.41 0.006 0.818 0.017 1.226l-0.001-0.060c-0.018 0.456-0.028 0.991-0.028 1.529 0 11.351 4.573 21.633 11.978 29.105l-0.003-0.003 151.012 151.624c7.435 7.473 17.727 12.098 29.1 12.098s21.664-4.625 29.098-12.096l7.353-7.353c7.508-7.534 12.151-17.928 12.151-29.406s-4.642-21.872-12.152-29.407l0.001 0.001zM431.899 87.931c-7.581-7.276-17.894-11.757-29.253-11.757s-21.672 4.481-29.267 11.771l0.015-0.014-5.82 7.351c-7.581 7.31-12.29 17.556-12.29 28.901 0 0.609 0.014 1.214 0.040 1.816l-0.003-0.086c-0.012 0.367-0.018 0.799-0.018 1.233 0 11.498 4.693 21.9 12.267 29.395l0.004 0.004 103.227 103.84c7.56 7.4 17.919 11.966 29.345 11.966 0.452 0 0.903-0.007 1.352-0.021l-0.066 0.002c0.008 0 0.017 0 0.026 0 11.337 0 21.608-4.562 29.078-11.95l7.347-7.347c7.508-7.534 12.151-17.928 12.151-29.406s-4.642-21.872-12.152-29.407l0.001 0.001zM601.902 57.299l-63.407-64.019c-7.55-7.346-17.872-11.876-29.253-11.876s-21.703 4.53-29.262 11.886l0.010-0.009-7.351 7.045c-7.508 7.534-12.151 17.928-12.151 29.406s4.642 21.872 12.152 29.407l-0.001-0.001 63.407 64.019c7.605 7.399 18.002 11.962 29.466 11.962 0.41 0 0.818-0.006 1.226-0.017l-0.060 0.001c5.308-0.125 10.344-1.125 15.023-2.861l-0.32 0.104c0.786-1.518 1.704-2.827 2.77-3.997l-0.013 0.015 28.793-30.631c1.32-3.867 2.082-8.322 2.082-12.954 0-11.305-4.537-21.551-11.889-29.015l0.005 0.005zM958.449 395.468l-238.923 251.788c-3.961 3.827-9.363 6.185-15.316 6.185s-11.354-2.358-15.322-6.191l0.006 0.006c-3.693-4.019-5.957-9.403-5.957-15.316s2.264-11.296 5.972-15.332l-0.015 0.016 266.185-279.969c7.082-8.517 11.38-19.567 11.38-31.621 0-14.84-6.514-28.158-16.839-37.252l-0.055-0.047c-6.953-8.126-17.219-13.244-28.68-13.244-13.839 0-25.936 7.462-32.486 18.581l-0.096 0.176-133.858 139.066c-3.843 3.207-8.834 5.153-14.28 5.153-12.35 0-22.361-10.011-22.361-22.361 0-5.062 1.682-9.732 4.518-13.48l-0.041 0.056 8.577-8.577 126.813-130.489c9.835-7.576 16.109-19.356 16.109-32.602 0-12.413-5.51-23.54-14.219-31.066l-0.052-0.044c-8.787-9.782-21.477-15.907-35.597-15.907-11.801 0-22.604 4.278-30.94 11.368l0.068-0.056-136.921 142.435c-3.929 3.898-9.341 6.307-15.316 6.307s-11.386-2.409-15.317-6.309l0.001 0.001c-3.759-3.991-6.069-9.384-6.069-15.316s2.31-11.324 6.079-15.327l-0.011 0.011 115.173-118.543c0.982-3.806 2.789-7.103 5.227-9.824l-0.019 0.022c10.188-7.433 16.733-19.332 16.733-32.759 0-11.903-5.143-22.605-13.329-30.004l-0.035-0.031c-8.488-9.274-20.647-15.067-34.158-15.067-11.986 0-22.907 4.559-31.123 12.037l0.037-0.033-34.613 32.163c-4.294 8.83-9.619 16.406-15.956 23.003l0.028-0.030-7.351 7.351c-2.989-0.838-6.422-1.32-9.968-1.32-21.146 0-38.289 17.143-38.289 38.289 0 12.012 5.531 22.731 14.185 29.751l0.071 0.056c0.001 0.183 0.002 0.4 0.002 0.617 0 23.684-9.599 45.125-25.12 60.646l-7.351 7.351c-11.804 11.861-27.088 20.248-44.192 23.502l-0.53 0.084c9.697 13.835 15.496 31.019 15.496 49.557 0 23.779-9.541 45.329-25.002 61.032l-7.34 7.34c-15.58 15.892-37.271 25.743-61.262 25.743s-45.683-9.851-61.249-25.729l-7.365-7.365c-3.234 17.213-11.529 32.106-23.259 43.476l-0.021 0.020-7.045 7.351c-15.521 15.52-36.962 25.12-60.646 25.12-0.217 0-0.433-0.001-0.65-0.002h0.033c-0.484 0.010-1.055 0.016-1.627 0.016-23.368 0-44.49-9.621-59.619-25.117l-0.016-0.017-49.010-49.316-61.262 61.262c-105.065 105.678-60.037 247.806 25.424 334.799s234.635 138.453 344.907 30.631l30.631-30.631-136.309-137.228c-11.826-9.846-19.299-24.573-19.299-41.046 0-12.964 4.629-24.847 12.323-34.087l-0.070 0.086 4.595-4.901c24.458-19.199 55.682-30.79 89.614-30.79 38.889 0 74.222 15.225 100.363 40.040l-0.064-0.060 51.46 50.848c24.505 22.361 51.46 15.622 96.794 1.838 53.911-16.541 122.525-36.757 195.733 22.054 5.245 4.132 8.581 10.483 8.581 17.613 0 12.352-10.013 22.365-22.365 22.365-5.222 0-10.026-1.79-13.832-4.789l0.048 0.036c-56.055-44.722-104.452-30.631-155.3-14.397-44.722 13.478-94.957 28.793-140.291-12.559l-52.073-51.46c-18.199-16.733-42.581-26.99-69.359-26.99-21.571 0-41.587 6.656-58.107 18.026l0.346-0.225c-3.982 3.676-7.351 7.351 2.45 16.847l206.148 206.148c97.101 95.263 242.905 44.722 273.843 27.262 37.95-22.261 70.519-48.589 98.68-79.051l0.259-0.284c85.767-91.894 147.030-240.761 36.145-351.952z" />
<glyph unicode="&#xe909;" glyph-name="diamond-01" horiz-adv-x="1048" d="M945.694 497.092l-76.499 164.141c-3.704 7.195-11.074 12.033-19.575 12.047h-638.797c-0.007 0-0.016 0-0.024 0-8.106 0-15.173-4.447-18.894-11.035l-0.056-0.108-90.353-163.84c-1.575-2.758-2.504-6.060-2.504-9.58 0-1.842 0.255-3.625 0.73-5.316l-0.033 0.138c-0.106-0.781-0.166-1.684-0.166-2.601 0-4.445 1.416-8.56 3.822-11.917l-0.042 0.062 404.781-524.348c3.827-5.14 9.887-8.433 16.715-8.433 0.053 0 0.106 0 0.159 0.001h-0.008c0.001 0 0.002 0 0.003 0 6.963 0 13.16 3.282 17.128 8.384l0.037 0.049 401.167 524.348c2.364 3.295 3.78 7.41 3.78 11.855 0 0.917-0.060 1.82-0.177 2.705l0.011-0.104c0.384 1.504 0.604 3.231 0.604 5.010 0 3.093-0.666 6.030-1.862 8.676l0.054-0.133zM896 502.814h-199.68l56.621 128.602h81.92zM524.649 61.289l-107.821 399.36h215.642zM563.802 631.416l57.826-128.602h-193.958l57.826 128.602h78.306zM610.485 631.416h96.979l-48.489-107.821zM391.529 523.595l-48.489 107.821h96.979zM224.979 631.416h70.174l57.826-128.602h-197.873zM372.856 460.649l112.339-416.226-319.247 416.226zM565.609 45.327l110.833 415.322h206.908zM521.939 794.654c11.643 0 21.082 9.439 21.082 21.082v123.482c0.096 0.76 0.151 1.64 0.151 2.533 0 11.81-9.574 21.384-21.384 21.384s-21.384-9.574-21.384-21.384c0-0.893 0.055-1.773 0.161-2.637l-0.010 0.104v-123.482c0-11.643 9.439-21.082 21.082-21.082v0zM278.588 770.861c3.606-7.153 10.869-11.987 19.267-12.047h0.008c0.037 0 0.081 0 0.126 0 3.248 0 6.315 0.779 9.022 2.161l-0.113-0.052c7.383 3.204 12.454 10.431 12.454 18.842 0 2.876-0.593 5.613-1.662 8.096l0.051-0.133-53.308 112.038c-3.614 7.241-10.969 12.126-19.464 12.126-3.204 0-6.245-0.695-8.982-1.942l0.136 0.055c-7.402-3.38-12.454-10.718-12.454-19.236 0-3.182 0.705-6.199 1.967-8.903l-0.054 0.13zM117.158 650.391c0.024 0 0.053 0 0.082 0 11.643 0 21.082 9.439 21.082 21.082 0 6.367-2.822 12.075-7.284 15.94l-0.026 0.022-96.075 79.209c-3.682 3.091-8.474 4.968-13.703 4.968-6.579 0-12.465-2.971-16.387-7.645l-0.027-0.033c-3.32-3.669-5.352-8.558-5.352-13.921 0-6.53 3.012-12.356 7.722-16.166l0.039-0.031 95.774-79.511c3.764-3.003 8.59-4.819 13.841-4.819 0.005 0 0.009 0 0.014 0h-0.001zM737.882 766.042c2.595-1.329 5.661-2.109 8.91-2.109 0.044 0 0.088 0 0.132 0h-0.007c8.488 0.043 15.803 5.026 19.22 12.219l0.055 0.13 53.007 111.736c1.208 2.575 1.912 5.592 1.912 8.774 0 8.518-5.051 15.856-12.322 19.182l-0.132 0.054c-2.601 1.192-5.642 1.886-8.846 1.886-8.496 0-15.851-4.886-19.408-12.001l-0.057-0.125-52.706-111.736c-1.264-2.605-2.003-5.667-2.003-8.901 0-8.267 4.827-15.406 11.816-18.753l0.125-0.054zM1043.275 773.572c-3.994 4.536-9.814 7.382-16.299 7.382-5.268 0-10.097-1.878-13.854-5.002l-96.040-79.482c-4.675-3.895-7.629-9.718-7.629-16.232 0-5.33 1.978-10.198 5.24-13.91l-0.020 0.024c3.964-4.582 9.771-7.479 16.255-7.529h0.009c0.004 0 0.008 0 0.013 0 5.251 0 10.077 1.816 13.886 4.853l-0.045-0.035 95.774 79.511c4.778 3.896 7.805 9.782 7.805 16.376 0 5.263-1.928 10.075-5.117 13.769l0.023-0.027z" />
<glyph unicode="&#xe90a;" glyph-name="envelope-01" horiz-adv-x="1355" d="M130.435 644.923c116.883-78.769 235.461-157.538 352.344-236.308 53.978-46.483 119.472-81.177 191.558-99.254l3.247-0.69c74.773 18.697 139.723 53.401 193.665 100.416l-0.553-0.472 354.038 236.308c71.368 41.292 120.888 113.515 130.327 197.853l0.108 1.187c-1.881 64.488-54.607 116.049-119.377 116.049-0.612 0-1.224-0.005-1.834-0.014l0.092 0.001h-1112.933c-0.518 0.008-1.129 0.013-1.742 0.013-64.769 0-117.496-51.561-119.373-115.876l-0.004-0.173c-0.156-2.28-0.245-4.941-0.245-7.623s0.089-5.343 0.264-7.981l-0.019 0.358c16.909-78.406 64.456-143.408 129.201-183.091l1.234-0.704zM902.882 316.294c-60.975-53.306-138.117-89.554-223.174-100.566l-2.123-0.224c-87.18 11.236-164.322 47.485-225.792 101.215l0.495-0.424c-123.659 84.698-254.094 169.396-376.060 254.094-28.795 17.932-53.769 37.789-76.246 60.153l0.018-0.018v-577.641c0.948-64.761 53.668-116.896 118.565-116.896 0.6 0 1.199 0.004 1.796 0.013l-0.090-0.001h1113.78c0.764-0.018 1.665-0.028 2.568-0.028 64.605 0 117.142 51.666 118.548 115.933l0.002 0.131v578.488c-22.383-23.474-47.066-44.391-73.8-62.512l-1.582-1.011c-126.2-82.157-253.247-165.161-376.907-250.706z" />
<glyph unicode="&#xe90b;" glyph-name="facebook-01" d="M831.587 960h-639.173c-0.179 0.001-0.39 0.001-0.602 0.001-105.935 0-191.812-85.877-191.812-191.812 0-0.212 0-0.423 0.001-0.635v0.033-639.173c0.681-105.417 86.296-190.61 191.808-190.61 0.213 0 0.425 0 0.638 0.001h354.128v395.049h-132.885v154.532h132.885v111.84c-0.536 5.303-0.841 11.46-0.841 17.688 0 96.679 73.602 176.166 167.829 185.487l0.773 0.062c4.683 0.424 10.13 0.665 15.634 0.665s10.95-0.242 16.331-0.715l-0.697 0.049c3.308 0.040 7.215 0.063 11.127 0.063 38.449 0 76.383-2.207 113.681-6.502l-4.55 0.426v-137.095h-84.181c-4.157 0.966-8.931 1.519-13.834 1.519-35.201 0-63.737-28.536-63.737-63.737 0-4.367 0.439-8.632 1.276-12.752l-0.069 0.409v-97.409h152.728l-16.235-154.532h-132.284v-395.049h125.069c103.706 2.346 186.956 86.65 187.603 190.547v639.236c0.001 0.18 0.001 0.392 0.001 0.605 0 105.512-85.194 191.127-190.546 191.808h-0.065z" />
<glyph unicode="&#xe90c;" glyph-name="facebook2-01" horiz-adv-x="539" d="M441.154 789.668h97.978v162.795c-41.099 4.806-88.715 7.548-136.97 7.548-1.837 0-3.672-0.004-5.507-0.012l0.283 0.001c-5.244 0.443-11.35 0.695-17.514 0.695-122.099 0-221.079-98.981-221.079-221.079 0-7.144 0.339-14.209 1.001-21.179l-0.068 0.889v-134.155h-159.278v-181.888h159.278v-466.779h192.44v466.779h158.775l24.118 181.888h-182.893v116.569c0 51.753 12.561 87.929 89.437 87.929z" />
<glyph unicode="&#xe90d;" glyph-name="heart-01" horiz-adv-x="1076" d="M1048.904 764.673c-40.42 112.123-144.265 191.556-267.154 195.316l-0.444 0.011c-92.78 0-188.49-70.806-244.158-150.89-56.645 80.084-153.331 150.89-244.158 150.89-125.672-2.081-231.532-84.584-268.491-198.179l-0.571-2.031c-14.71-39.475-23.222-85.084-23.222-132.681 0-115.266 49.922-218.873 129.323-290.378l0.352-0.312 394.56-390.653c5.125-5.122 12.203-8.289 20.021-8.289s14.896 3.168 20.021 8.29v0l386.258 390.653c75.942 72.679 123.144 174.852 123.144 288.050 0 50.373-9.347 98.563-26.402 142.931l0.921-2.727zM910.711 378.903l-366.237-371.121-374.539 372.097c-68.681 60.532-111.782 148.7-111.782 246.933 0 39.993 7.144 78.318 20.225 113.768l-0.735-2.277c29.71 93.121 114.442 159.803 215.080 162.116l0.267 0.005c83.014 0 180.677-83.502 219.742-162.121 4.389-9.589 13.901-16.131 24.94-16.131 0.331 0 0.66 0.006 0.988 0.018l-0.047-0.001c11.257 0.546 20.874 7.065 25.8 16.434l0.081 0.169c37.6 78.131 133.31 161.633 216.813 161.633 99.5-2.335 183.405-66.583 214.845-155.604l0.503-1.634c13.653-35.25 21.563-76.045 21.563-118.688 0-96.712-40.687-183.92-105.877-245.443l-0.165-0.154z" />
<glyph unicode="&#xe90e;" glyph-name="home-01" horiz-adv-x="1161" d="M1152.683 379.733l-512 552.96c-7.156 8.272-15.911 14.951-25.809 19.597l-0.474 0.2c-10.059 4.464-21.793 7.062-34.133 7.062s-24.074-2.599-34.684-7.279l0.55 0.217c-10.889-4.728-20.106-11.429-27.586-19.727l-0.062-0.070-510.976-552.96c-4.476-4.989-7.213-11.618-7.213-18.886 0-0.561 0.016-1.118 0.048-1.671l-0.004 0.076c0.158-7.858 3.832-14.827 9.509-19.418l0.048-0.038c2.571-2.46 5.637-4.429 9.029-5.739l0.187-0.063c3.226-1.385 6.98-2.19 10.923-2.19s7.697 0.805 11.108 2.26l-0.185-0.070c3.868 1.66 7.159 3.966 9.888 6.816l0.010 0.011 123.221 134.144v-454.315c-0.003-0.247-0.004-0.539-0.004-0.831 0-23.227 9.831-44.159 25.558-58.86l0.046-0.043c15.384-15.404 36.648-24.933 60.138-24.933 0.578 0 1.154 0.006 1.729 0.017l-0.086-0.001h637.611c0.489-0.010 1.065-0.016 1.643-0.016 23.49 0 44.753 9.529 60.137 24.932l0.001 0.001c15.774 14.744 25.604 35.675 25.604 58.903 0 0.292-0.002 0.584-0.005 0.875v-0.044 454.315l123.221-133.461c5.029-5.298 11.971-8.739 19.714-9.212l0.084-0.004c0.676-0.060 1.463-0.093 2.257-0.093 7.342 0 14.007 2.898 18.915 7.612l-0.009-0.009c5.718 4.683 9.462 11.593 9.896 19.386l0.003 0.070c0.019 0.385 0.030 0.836 0.030 1.289 0 7.482-3.009 14.262-7.884 19.194l0.003-0.003zM696.32-7.68h-232.107v255.317c-0.002 0.122-0.003 0.266-0.003 0.41 0 7.666 3.282 14.565 8.517 19.369l0.019 0.017c4.961 5.062 11.868 8.199 19.508 8.199 0.222 0 0.443-0.003 0.663-0.008l-0.033 0.001h174.421c0.246 0.008 0.534 0.012 0.824 0.012 7.688 0 14.642-3.138 19.654-8.202l0.002-0.002c5.255-4.822 8.537-11.721 8.537-19.387 0-0.144-0.001-0.288-0.003-0.432v0.022-255.317zM928.085 20.651c-0.052-7.784-3.312-14.796-8.523-19.788l-0.010-0.009c-5.167-5.067-12.253-8.195-20.069-8.195-0.144 0-0.289 0.001-0.433 0.003h-145.045v254.976c0.002 0.212 0.003 0.462 0.003 0.712 0 23.2-9.684 44.137-25.231 58.991l-0.031 0.030c-15.384 15.401-36.646 24.927-60.132 24.927-0.46 0-0.919-0.004-1.377-0.011l0.069 0.001h-174.421c-0.33 0.005-0.72 0.007-1.111 0.007-23.441 0-44.656-9.528-59.985-24.922l-0.003-0.003c-15.572-14.666-25.269-35.421-25.269-58.441 0-0.455 0.004-0.908 0.011-1.361l-0.001 0.068v-255.317h-145.067c-0.122-0.002-0.266-0.003-0.411-0.003-7.816 0-14.902 3.128-20.074 8.199l0.005-0.005c-5.255 4.822-8.537 11.721-8.537 19.387 0 0.144 0.001 0.288 0.003 0.432v-0.022 517.461l330.069 357.717c2.4 2.377 5.227 4.329 8.354 5.731l0.179 0.072c2.713 1.225 5.881 1.939 9.216 1.939s6.503-0.714 9.361-1.997l-0.145 0.058c3.225-1.378 5.956-3.344 8.175-5.784l0.017-0.019 330.411-357.717v-517.12z" />
<glyph unicode="&#xe90f;" glyph-name="keys-01" horiz-adv-x="1123" d="M1122.136 123.806l-122.905 588.816c-17.671 82.884-66.766 151.963-133.936 195.544l-1.196 0.728c-48.654 32.284-108.408 51.51-172.652 51.51-109.907 0-206.672-56.27-263.056-141.573l-0.73-1.175-9.092-14.423v-2.822c-14.499-25.593-25.879-55.266-32.556-86.678l-0.365-2.052c-23.999 9.399-51.781 14.908-80.833 15.049h-0.059c-0.281 0.001-0.613 0.002-0.946 0.002-123.605 0-223.911-99.757-224.798-223.154v-0.084c0-0.13 0-0.285 0-0.439 0-54.254 19.686-103.91 52.304-142.214l-0.257 0.31c-2.151-2.546-4.033-5.431-5.537-8.534l-0.107-0.245-121.337-306.009c-3.139-7.216-4.965-15.623-4.965-24.456s1.826-17.239 5.122-24.862l-0.156 0.406c6.987-15.741 19.795-27.835 35.623-33.72l0.434-0.141 65.528-24.769c4.756-1.787 10.252-2.822 15.99-2.822v0c36.37 0 74.307 42.327 108.169 80.265 8.389 9.946 16.789 18.942 25.615 27.5l0.094 0.091c9.346 5.915 15.462 16.199 15.462 27.91 0 3.698-0.61 7.255-1.735 10.573l0.068-0.232-13.168 34.175 34.802 12.855c12.649 4.23 21.603 15.969 21.603 29.799 0 4.411-0.911 8.61-2.555 12.418l0.078-0.203-12.541 33.235 33.235 12.228c8.259 3.169 14.788 9.29 18.413 17.040l0.086 0.204c1.654 3.693 2.618 8.005 2.618 12.541s-0.963 8.848-2.697 12.741l0.079-0.199-9.406 24.769c37.727 5.962 71.264 20.476 99.69 41.506l-0.613-0.433 67.723-326.702c5.381-24.038 25.552-42.082 50.27-44.194l0.209-0.014h5.644c1.69-0.147 3.657-0.23 5.644-0.23s3.953 0.084 5.897 0.247l-0.254-0.017 504.475 102.525c11.714 2.148 21.832 7.864 29.446 15.963l0.026 0.028c9.694 9.888 15.676 23.445 15.676 38.399 0 4.622-0.571 9.11-1.648 13.398l0.080-0.378zM266.19 238.873c-5.362-2.204-9.628-6.166-12.166-11.154l-0.062-0.134-3.135-7.211c-1.074-2.5-1.698-5.41-1.698-8.465s0.624-5.965 1.753-8.609l-0.054 0.143 14.423-37.624-38.878-14.423c-5.362-2.204-9.628-6.166-12.166-11.154l-0.062-0.134-3.762-8.152c-1.091-2.497-1.725-5.407-1.725-8.465s0.635-5.968 1.779-8.605l-0.054 0.14 15.677-41.073c-7.525-7.211-16.617-17.244-26.65-28.532-16.617-18.498-60.512-67.096-74.934-65.528l-65.528 24.769c-5.074 1.944-9.070 5.737-11.236 10.534l-0.051 0.126c-0.958 2.222-1.515 4.808-1.515 7.525s0.557 5.303 1.564 7.651l-0.048-0.127 116.948 298.797c35.804-28.531 81.147-46.5 130.599-48.582l0.458-0.015 10.347-27.277zM303.187 323.841c-97.926 1.239-176.833 80.912-176.833 179.014 0 98.874 80.153 179.028 179.028 179.028 98.869 0 179.020-80.146 179.028-179.013v-0.001c0-4.703 0-9.092 0-13.482-3.898-0.325-8.436-0.51-13.018-0.51-45.047 0-85.915 17.89-115.886 46.954l0.042-0.041c1.698 4.56 2.725 9.827 2.821 15.32l0.001 0.043c0.006 0.277 0.009 0.604 0.009 0.931 0 25.974-21.056 47.030-47.030 47.030s-47.030-21.056-47.030-47.030c0-25.64 20.518-46.488 46.031-47.020l0.050-0.001c1.598-0.159 3.453-0.249 5.33-0.249s3.732 0.091 5.563 0.268l-0.233-0.018c38.183-38.541 91.051-62.475 149.511-62.707h3.493c-25.659-70.933-92.427-120.711-170.821-120.711-0.129 0-0.259 0-0.388 0h0.020zM1074.792 104.367c-1.631-1.732-3.779-2.96-6.197-3.437l-0.074-0.012-504.162-103.152h-4.389c-5.243 0.313-9.527 4.064-10.645 9.015l-0.015 0.078-73.053 353.352c21.401 25.269 37.394 55.822 45.766 89.392l0.324 1.533c19.076 4.983 35.761 11.74 51.294 20.325l-1.129-0.572c63.041 34.694 105.455 99.987 107.224 175.336l0.004 0.242c43.807 4.299 77.756 40.945 77.756 85.521 0 47.446-38.462 85.908-85.908 85.908s-85.908-38.462-85.908-85.908c0-34.12 19.891-63.594 48.71-77.459l0.515-0.223c0.076-1.824 0.119-3.964 0.119-6.114 0-68.554-44.004-126.83-105.306-148.125l-1.101-0.333s0 2.195 0 3.449c-0.26 78.99-41.621 148.262-103.805 187.58l-0.915 0.54c0.925 1.534 1.678 3.309 2.164 5.191l0.031 0.139c6.081 31.873 16.979 60.259 32.035 85.91l-0.682-1.256v2.822c48.052 79.682 134.142 132.148 232.487 132.148 51.089 0 98.872-14.159 139.637-38.768l-1.213 0.68 9.72-5.957c58.621-38.056 100.742-97.289 115.693-166.627l0.315-1.741 124.473-590.383c0.15-0.709 0.236-1.524 0.236-2.358 0-3.386-1.412-6.442-3.68-8.611l-0.004-0.004zM676.291 690.361c-4.546 23.601-12.493 44.618-23.418 63.712l0.53-1.005c-2.279 3.853-5.604 6.876-9.586 8.723l-0.134 0.056c7.543 7.529 17.957 12.185 29.457 12.185 23.030 0 41.7-18.67 41.7-41.7 0-22.363-17.604-40.615-39.711-41.653l-0.093-0.003z" />
<glyph unicode="&#xe910;" glyph-name="lamp-01" horiz-adv-x="936" d="M763.319 503.003c0.28 4.349 0.44 9.43 0.44 14.548 0 65.239-25.945 124.417-68.080 167.781l0.056-0.058c-57.708 59.427-138.357 96.304-227.62 96.304-85.917 0-163.854-34.164-220.968-89.649l0.076 0.074-6.144-6.144c-42.583-43.573-68.856-103.245-68.856-169.054 0-4.856 0.143-9.678 0.425-14.464l-0.031 0.66c8.485-129.902 54.126-165.010 94.501-196.023 35.384-22.123 58.573-60.872 58.573-105.036 0-1.336-0.021-2.668-0.063-3.994l0.005 0.194c0.336-4.392 2.049-8.329 4.704-11.438l-0.023 0.028c-0.137-0.571-0.216-1.227-0.216-1.902s0.079-1.33 0.227-1.959l-0.011 0.058c2.414-8.994 10.494-15.506 20.094-15.506 0.033 0 0.066 0 0.099 0h-0.005c0.792-0.138 1.703-0.217 2.633-0.217s1.842 0.079 2.728 0.23l-0.095-0.013 247.515 64.366 4.096 1.755 4.096 3.218c2.039 2.384 3.639 5.213 4.634 8.313l0.048 0.172c10.726 26.595 28.74 48.379 51.57 63.465l0.508 0.315c41.838 32.768 86.016 67.877 95.086 193.975zM643.657 343.552c-26.688-18.466-47.754-43.287-61.271-72.33l-0.462-1.105-216.21-56.466c-2.831 53.008-31.002 98.88-72.529 126.014l-0.614 0.376c-36.571 29.257-71.095 54.711-78.409 165.595-0.15 2.902-0.235 6.301-0.235 9.719 0 55.481 22.447 105.72 58.754 142.13l-0.005-0.005c50.013 50.737 119.494 82.168 196.316 82.168 75.367 0 143.668-30.252 193.423-79.276l-0.034 0.033 3.511-3.511c35.13-35.893 56.807-85.074 56.807-139.318 0-4.098-0.124-8.167-0.368-12.204l0.027 0.555c-7.899-107.959-41.253-134.29-76.654-162.377zM592.457 87.552l-246.053-63.781c-9.050-2.375-15.617-10.482-15.617-20.123 0-1.896 0.254-3.732 0.73-5.477l-0.034 0.146c2.414-8.994 10.494-15.506 20.094-15.506 0.033 0 0.066 0 0.099 0h5.261l16.969 4.389c0.62-3.449 1.955-6.508 3.849-9.135l-0.045 0.066c21.14-25.805 53.007-42.143 88.69-42.143 0.603 0 1.205 0.005 1.805 0.014l-0.091-0.001c1.636-0.092 3.549-0.144 5.475-0.144 55.045 0 100.089 42.821 103.638 96.968l0.016 0.31c0.157 1.055 0.246 2.272 0.246 3.511s-0.089 2.456-0.262 3.647l0.016-0.136 29.257 7.314c8.991 2.469 15.488 10.569 15.488 20.187 0 11.543-9.357 20.9-20.9 20.9-1.925 0-3.789-0.26-5.559-0.747l0.147 0.034zM468.114-22.455c-0.249-0.003-0.544-0.005-0.838-0.005-19.837 0-37.822 7.929-50.96 20.79l0.013-0.013 118.491 31.013c-5.39-29.721-31.070-51.966-61.945-51.966-1.676 0-3.336 0.066-4.979 0.194l0.217-0.014zM593.627 180.297l-247.223-64.366c-9.050-2.375-15.617-10.482-15.617-20.123 0-1.896 0.254-3.732 0.73-5.477l-0.034 0.146c2.196-9.125 10.287-15.8 19.938-15.8 0.088 0 0.175 0.001 0.263 0.002h-0.013c0.792-0.136 1.703-0.213 2.633-0.213s1.842 0.077 2.729 0.226l-0.096-0.013 247.515 66.121c8.991 2.469 15.488 10.569 15.488 20.187 0 11.543-9.357 20.9-20.9 20.9-1.925 0-3.789-0.26-5.559-0.747l0.147 0.034zM476.599 835.95c11.406 0.162 20.61 9.366 20.772 20.757v82.813c0.093 0.744 0.146 1.605 0.146 2.478 0 11.634-9.431 21.065-21.065 21.065s-21.065-9.431-21.065-21.065c0-0.873 0.053-1.734 0.156-2.58l-0.010 0.102v-82.505c0-0.001 0-0.001 0-0.002 0-11.531 9.265-20.898 20.757-21.063h0.016zM763.611 840.046l-58.514-58.514c-3.903-3.781-6.326-9.071-6.326-14.927 0-11.472 9.3-20.773 20.773-20.773 0.167 0 0.333 0.002 0.499 0.006h-0.025c0.001 0 0.002 0 0.003 0 5.727 0 10.906 2.351 14.622 6.141l58.517 58.517c3.795 3.72 6.147 8.9 6.147 14.629s-2.352 10.908-6.144 14.625l-0.003 0.003c-3.753 3.723-8.922 6.025-14.629 6.025s-10.876-2.301-14.63-6.026l0.001 0.001zM915.456 524.946h-83.383c-10.519-1.282-18.587-10.158-18.587-20.919s8.068-19.637 18.485-20.909l0.102-0.010h83.383c15.214 0 27.794 5.559 27.794 21.065s-12.288 27.794-27.794 21.065zM722.359 269.239c-3.837 4.578-9.557 7.469-15.953 7.469-11.472 0-20.773-9.3-20.773-20.773 0-6.396 2.89-12.116 7.436-15.927l0.032-0.026 58.514-58.514c3.839-3.528 8.981-5.69 14.629-5.69s10.79 2.162 14.644 5.704l-0.016-0.014c3.723 3.753 6.025 8.922 6.025 14.629s-2.301 10.876-6.026 14.63l0.001-0.001zM213.87 752.274c3.753-3.723 8.922-6.025 14.629-6.025s10.876 2.301 14.63 6.026l-0.001-0.001c3.723 3.753 6.025 8.922 6.025 14.629s-2.301 10.876-6.026 14.63l-58.513 58.513c-3.753 3.723-8.922 6.025-14.629 6.025s-10.876-2.301-14.63-6.026l0.001 0.001c-3.795-3.72-6.147-8.9-6.147-14.629s2.352-10.908 6.144-14.625l0.003-0.003zM103.863 541.623h-83.090c-11.472 0-20.773-9.3-20.773-20.773s9.3-20.773 20.773-20.773v0h83.090c15.799 0 29.257 4.974 29.257 20.773s-12.873 29.257-29.257 20.773zM201.874 269.239l-58.514-58.514c-3.723-3.753-6.025-8.922-6.025-14.629s2.301-10.876 6.026-14.63l-0.001 0.001c3.839-3.528 8.981-5.69 14.629-5.69s10.79 2.162 14.644 5.704l-0.016-0.014 58.514 58.514c2.998 3.576 4.819 8.227 4.819 13.304 0 11.472-9.3 20.773-20.773 20.773-5.077 0-9.728-1.821-13.336-4.846l0.032 0.026zM605.33 593.993c-3.088 1.877-6.821 2.988-10.814 2.988-7.899 0-14.783-4.348-18.388-10.781l-0.055-0.106-119.077-211.237-71.095 97.134c-3.884 5.14-9.985 8.428-16.853 8.428-4.663 0-8.972-1.515-12.462-4.080l0.059 0.041c-5.314-3.812-8.735-9.971-8.735-16.929 0-4.64 1.522-8.926 4.093-12.383l-0.039 0.055 90.405-123.465c3.882-5.173 10.002-8.485 16.896-8.485 0.026 0 0.051 0 0.077 0h-0.004c7.359 0.415 13.681 4.497 17.208 10.434l0.054 0.098 137.801 239.909c1.877 3.088 2.988 6.821 2.988 10.814 0 7.899-4.348 14.783-10.781 18.388l-0.106 0.055z" />
<glyph unicode="&#xe911;" glyph-name="lifering-01" horiz-adv-x="1023" d="M1022.797 448.602c0 0.085 0 0.186 0 0.287 0 98.952-28.104 191.34-76.765 269.617l1.258-2.173c2.457 7.562 3.873 16.263 3.873 25.295 0 20.105-7.019 38.57-18.739 53.079l0.126-0.161-62.27 62.872c-14.762 12.044-33.811 19.341-54.564 19.341-7.328 0-14.444-0.91-21.24-2.623l0.598 0.128c-79.358 53.706-177.204 85.736-282.531 85.736-0.402 0-0.805 0-1.207-0.001h0.062c-99.084-0.040-191.571-28.253-269.894-77.063l2.162 1.256c-7.702 2.554-16.569 4.027-25.78 4.027-20.022 0-38.418-6.961-52.9-18.595l0.165 0.128-62.571-62.872c-12.107-14.635-19.451-33.594-19.451-54.27 0-7.437 0.95-14.652 2.736-21.53l-0.131 0.594c-53.813-79.718-85.901-177.957-85.901-283.691 0-99.064 28.168-191.549 76.93-269.883l-1.257 2.167c-2.5-7.625-3.941-16.399-3.941-25.511 0-20.143 7.045-38.64 18.806-53.162l-0.124 0.158 62.571-62.571c14.667-12.091 33.649-19.423 54.343-19.423 7.41 0 14.599 0.94 21.457 2.707l-0.595-0.13c79.718-53.813 177.957-85.901 283.691-85.901 99.064 0 191.549 28.168 269.883 76.93l-2.167-1.257c7.469-2.394 16.062-3.774 24.976-3.774 20.385 0 39.085 7.216 53.684 19.232l-0.146-0.116 62.872 62.571c11.999 14.856 19.261 33.972 19.261 54.784 0 7.247-0.881 14.288-2.541 21.023l0.125-0.601c53.337 79.196 85.135 176.745 85.135 281.722 0 0.581-0.001 1.162-0.003 1.743v-0.090zM980.982 448.602c0.001-0.288 0.001-0.629 0.001-0.97 0-89.727-25.295-173.546-69.144-244.715l1.157 2.019-120.329 120.329c-2.717 2.99-6.324 5.127-10.401 5.994l-0.128 0.023c15.392 34.372 24.356 74.494 24.356 116.709 0 34.383-5.947 67.378-16.868 98.011l0.634-2.039 132.061 132.362c37.643-65.802 59.93-144.586 60.164-228.556v-0.069zM511.398 196.212v0c-139.262 0.171-252.089 113.105-252.089 252.39 0 139.391 112.999 252.39 252.39 252.39s252.39-112.999 252.39-252.39v0c0-139.391-112.999-252.39-252.39-252.39-0.106 0-0.212 0-0.317 0h0.016zM842.303 827.638l60.165-62.571c3.778-6.687 6.004-14.685 6.004-23.202 0-6.837-1.434-13.338-4.019-19.221l0.12 0.307c-1.331-2.684-2.11-5.845-2.11-9.188 0-0.154 0.002-0.308 0.005-0.461v0.023c-3.674-0.829-6.843-2.628-9.325-5.114v0l-123.036-122.736c-25.387 47.477-61.995 86.014-106.405 112.984l-1.29 0.727 132.061 132.061h3.008c5.554 2.268 11.999 3.584 18.751 3.584 9.625 0 18.626-2.675 26.298-7.322l-0.227 0.127zM511.398 917.885v0c0.313 0.001 0.683 0.001 1.054 0.001 89.699 0 173.49-25.296 244.629-69.143l-2.016 1.156-120.329-120.329c-2.756-2.995-4.684-6.792-5.397-11.003l-0.018-0.128c-34.372 15.392-74.494 24.356-116.709 24.356-34.383 0-67.378-5.947-98.011-16.868l2.039 0.634-133.565 132.061c65.667 37.286 144.248 59.262 227.962 59.262 0.127 0 0.254 0 0.382 0h-0.020zM132.061 777.401l62.571 62.27c6.687 3.778 14.685 6.004 23.202 6.004 6.837 0 13.338-1.434 19.221-4.019l-0.307 0.12c2.684-1.331 5.845-2.11 9.188-2.11 0.154 0 0.308 0.002 0.461 0.005h-0.023c0.907-3.652 2.692-6.804 5.121-9.332l123.029-123.029c-27.125-14.378-50.406-31.711-70.688-52.037l-0.005-0.005c-16.224-16.493-30.552-34.937-42.576-54.923l-0.742-1.33-122.435 123.638c-2.522 2.422-5.674 4.207-9.185 5.084l-0.141 0.030c0.212 1.131 0.334 2.431 0.334 3.76s-0.121 2.63-0.354 3.892l0.020-0.131c-1.735 4.907-2.738 10.565-2.738 16.458 0 9.456 2.582 18.309 7.078 25.892l-0.129-0.235zM41.814 448.602c0 0.16 0 0.349 0 0.538 0 89.671 25.296 173.433 69.142 244.541l-1.156-2.014 130.858-130.557c-14.271-33.27-22.569-71.989-22.569-112.646 0-34.438 5.953-67.485 16.887-98.168l-0.635 2.043-133.264-132.663c-37.68 65.792-59.974 144.584-60.164 228.569v0.056zM182.298 68.663l-61.969 62.571c-3.778 6.687-6.004 14.685-6.004 23.202 0 6.837 1.434 13.338 4.019 19.221l-0.12-0.307c1.35 2.444 2.144 5.358 2.144 8.457 0 0.411-0.014 0.82-0.042 1.224l0.003-0.055c3.634 0.974 6.772 2.748 9.34 5.127l-0.014-0.013 123.036 123.036c14.378-27.125 31.711-50.406 52.037-70.688l0.005-0.005c16.493-16.224 34.937-30.552 54.923-42.576l1.33-0.742-133.264-132.061c-0.496 0.147-1.065 0.232-1.655 0.232s-1.159-0.085-1.697-0.243l0.043 0.011c-4.907-1.735-10.565-2.738-16.458-2.738-9.456 0-18.309 2.582-25.892 7.078l0.235-0.129zM268.033 46.402l120.329 120.329c2.869 2.928 4.825 6.76 5.404 11.029l0.011 0.101c34.239-15.397 74.219-24.367 116.293-24.367 0.15 0 0.3 0 0.449 0h-0.023c35.982 0.027 70.41 6.645 102.154 18.71l-1.98-0.661c0.544-4.722 2.624-8.879 5.719-12.036l-0.003 0.003 122.435-122.736c-65.838-37.278-144.594-59.246-228.48-59.246-89.997 0-174.088 25.285-245.558 69.138l2.047-1.168zM891.036 117.697l-62.571-60.165c-6.687-3.778-14.685-6.004-23.202-6.004-6.837 0-13.338 1.434-19.221 4.019l0.307-0.12h-4.813l-132.663 132.362c27.125 14.378 50.406 31.711 70.688 52.037l0.005 0.005c16.205 16.334 30.525 34.578 42.582 54.353l0.736 1.299 132.061-132.061c-0.071-0.452-0.111-0.973-0.111-1.504s0.040-1.052 0.118-1.561l-0.007 0.057c1.735-4.907 2.738-10.565 2.738-16.458 0-9.456-2.582-18.309-7.078-25.892l0.129 0.235z" />
<glyph unicode="&#xe912;" glyph-name="list-01" horiz-adv-x="1626" d="M312.883 167.757c-9.67 10.090-23.257 16.361-38.308 16.361-13.44 0-25.713-5-35.059-13.242l0.058 0.050-47.957-42.253-47.957 42.253c-9.288 8.192-21.561 13.192-35.001 13.192-15.051 0-28.638-6.271-38.29-16.342l-0.018-0.019c-8.443-8.822-13.64-20.81-13.64-34.012 0-13.938 5.793-26.523 15.103-35.479l0.016-0.015 1.479-1.479 42.253-36.76-42.253-36.971c-10.276-9.066-16.723-22.265-16.723-36.969 0-12.498 4.658-23.908 12.332-32.589l-0.046 0.053 1.479-1.479c9.687-9.976 23.226-16.166 38.21-16.166 13.475 0 25.78 5.006 35.158 13.259l-0.059-0.051 47.957 42.253 47.957-42.253c9.304-8.25 21.619-13.289 35.111-13.289 14.996 0 28.537 6.224 38.182 16.23l0.016 0.016c8.431 8.789 13.622 20.742 13.622 33.908 0 13.901-5.787 26.451-15.084 35.371l-0.017 0.016-1.69 1.69-42.253 36.971 42.253 36.76c10.404 9.037 16.945 22.288 16.945 37.066 0 12.365-4.579 23.661-12.134 32.285l0.048-0.056zM312.883 553.315c-9.67 10.090-23.257 16.361-38.308 16.361-13.44 0-25.713-5-35.059-13.242l0.058 0.050-47.957-42.253-47.957 42.253c-9.288 8.192-21.561 13.192-35.001 13.192-15.051 0-28.638-6.271-38.29-16.342l-0.018-0.019c-8.506-8.834-13.745-20.866-13.745-34.122 0-13.99 5.836-26.616 15.206-35.578l0.018-0.017 1.479-1.268 42.253-36.76-42.253-36.76c-10.206-9.061-16.604-22.216-16.604-36.864 0-12.547 4.694-23.998 12.423-32.692l-0.044 0.050 1.268-1.479c9.67-10.090 23.257-16.361 38.308-16.361 13.44 0 25.713 5 35.059 13.242l-0.058-0.050 47.957 42.253 47.957-42.253c9.303-8.144 21.565-13.112 34.988-13.112 15.040 0 28.624 6.237 38.306 16.265l0.015 0.016c8.431 8.789 13.622 20.742 13.622 33.908 0 13.901-5.787 26.451-15.084 35.371l-0.017 0.016-1.69 1.69-42.253 36.76 42.253 36.76c10.404 9.037 16.945 22.288 16.945 37.066 0 12.365-4.579 23.661-12.134 32.285l0.048-0.056zM627.879 782.538h946.466c1.312-0.122 2.838-0.191 4.38-0.191 27.769 0 50.281 22.512 50.281 50.281s-22.512 50.281-50.281 50.281c-0.5 0-0.999-0.007-1.495-0.022l0.073 0.002h-949.424c-1.312 0.122-2.838 0.191-4.38 0.191-27.769 0-50.281-22.512-50.281-50.281s22.512-50.281 50.281-50.281c0.5 0 0.999 0.007 1.495 0.022l-0.073-0.002h2.958zM1574.345 110.082h-946.466c-0.441 0.014-0.959 0.022-1.479 0.022-27.84 0-50.408-22.569-50.408-50.408 0-27.32 21.733-49.563 48.854-50.385l0.076-0.002h949.424c6.803-3.010 14.736-4.762 23.079-4.762 21.429 0 40.159 11.56 50.292 28.784l0.149 0.273c4.585 7.436 7.301 16.448 7.301 26.094 0 18.13-9.595 34.018-23.984 42.865l-0.218 0.125c-11.418 5.791-24.895 9.184-39.164 9.184-6.254 0-12.355-0.652-18.241-1.891l0.574 0.101zM267.672 940.564l-96.125-121.266-78.168 98.449c-9.839 12.104-24.727 19.775-41.407 19.775-11.567 0-22.273-3.689-31.005-9.955l0.16 0.109c-12.585-9.034-20.687-23.625-20.687-40.108 0-10.801 3.479-20.789 9.377-28.906l-0.098 0.142 1.268-1.69 119.365-150.632c9.508-12.639 24.366-20.811 41.146-21.126l0.050-0.001c16.854 0.212 31.75 8.415 41.098 20.988l0.099 0.139 137.322 173.448c6.485 8.258 10.4 18.802 10.4 30.26 0 15.487-7.152 29.304-18.334 38.327l-0.094 0.073-1.69 1.268c-8.686 6.465-19.626 10.35-31.473 10.35-16.591 0-31.402-7.619-41.126-19.55l-0.076-0.096zM1574.345 496.908h-946.466c-0.441 0.014-0.959 0.022-1.479 0.022-27.781 0-50.303-22.521-50.303-50.303 0-27.261 21.686-49.458 48.748-50.279l0.076-0.002h949.424c27.769 0 50.281 22.512 50.281 50.281s-22.512 50.281-50.281 50.281v0z" />
<glyph unicode="&#xe913;" glyph-name="mechanicservice-01" horiz-adv-x="1051" d="M786.241 340.128c-4.034 4.003-9.591 6.476-15.725 6.476s-11.691-2.473-15.726-6.477l0.001 0.001-64.786-62.899-70.133 69.189 142.781 141.838c14.513-3.067 31.19-4.822 48.276-4.822 65.502 0 124.977 25.805 168.814 67.805l-0.087-0.083c43.736 42.803 70.851 102.436 70.851 168.402 0 24.406-3.712 47.944-10.601 70.082l0.447-1.669c-2.256 7.45-8.155 13.141-15.572 15.062l-0.153 0.034c-1.618 0.413-3.475 0.65-5.387 0.65-6.092 0-11.621-2.405-15.691-6.318l0.007 0.007-102.211-100.639-91.833 24.216-23.273 92.147 102.211 100.324c4.076 3.901 6.609 9.384 6.609 15.459 0 9.913-6.744 18.25-15.894 20.674l-0.149 0.034c-20.836 6.405-44.786 10.094-69.598 10.094-66.698 0-127.172-26.654-171.35-69.891l0.044 0.043c-44.468-42.661-72.1-102.576-72.1-168.944 0-15.552 1.517-30.75 4.412-45.453l-0.243 1.483-144.039-141.838-209.455 204.737-2.83 2.516 57.553 56.924c3.982 3.888 6.451 9.309 6.451 15.307 0 0.923-0.059 1.833-0.172 2.725l0.011-0.106c-0.536 7.206-4.517 13.379-10.284 16.929l-0.094 0.054-163.853 97.494c-3.271 1.901-7.199 3.024-11.388 3.024-6.058 0-11.569-2.347-15.672-6.181l0.013 0.012-70.762-69.189c-3.982-3.888-6.452-9.309-6.452-15.308 0-4.237 1.232-8.187 3.358-11.51l-0.051 0.086 100.010-161.651c3.614-5.579 9.456-9.452 16.236-10.365l0.118-0.013h2.516c0.056-0.001 0.123-0.001 0.189-0.001 6.041 0 11.522 2.399 15.542 6.296l-0.006-0.006 46.545 45.602 1.572-4.088 209.769-206.31-344.688-337.455c-24.887-24.152-40.331-57.913-40.331-95.282 0-36.436 14.682-69.442 38.454-93.425l-0.009 0.010 1.887-1.887c24.821-24.074 58.717-38.915 96.079-38.915s71.257 14.841 96.114 38.949l-0.035-0.034 345.946 339.342 70.133-69.189-64.786-62.899c-4.006-3.927-6.516-9.367-6.604-15.394v-0.017c0.013-6.057 2.542-11.52 6.597-15.403l0.008-0.007 178.319-175.803c24.821-24.074 58.717-38.915 96.079-38.915s71.257 14.841 96.114 38.949l-0.035-0.034c24.887 24.152 40.331 57.913 40.331 95.282 0 36.436-14.682 69.442-38.454 93.425l0.009-0.010-1.887 1.887zM125.799 717.523l-76.108 122.968 44.658 44.973 125.799-74.85zM211.342 6.133c-16.861-15.952-39.678-25.76-64.786-25.76s-47.926 9.808-64.83 25.801l0.044-0.041c-16.010 16.137-25.904 38.363-25.904 62.899s9.894 46.762 25.91 62.905l-0.006-0.006 528.668 521.749c4.055 3.995 6.568 9.547 6.568 15.685 0 1.799-0.216 3.548-0.623 5.222l0.031-0.151c-3.751 14.165-5.905 30.428-5.905 47.193 0 53.883 22.251 102.57 58.066 137.372l0.046 0.044c36.009 35.39 85.427 57.238 139.948 57.238 0.001 0 0.002 0 0.003 0v0c2.724 0.153 5.912 0.24 9.12 0.24s6.396-0.087 9.561-0.259l-0.441 0.019-82.084-82.084c-3.982-3.888-6.452-9.309-6.452-15.308 0-2.052 0.289-4.036 0.828-5.914l-0.037 0.151 31.45-114.477c2.102-7.614 8.053-13.46 15.575-15.378l0.15-0.032 116.678-31.45c1.773-0.522 3.809-0.822 5.915-0.822 6.055 0 11.531 2.48 15.467 6.48l0.003 0.003 82.084 82.398c0.576-5.595 0.905-12.089 0.905-18.659 0-54.374-22.51-103.49-58.72-138.538l-0.052-0.050c-35.954-35.608-85.441-57.609-140.066-57.609-17.274 0-34.034 2.2-50.015 6.335l1.382-0.304c-1.645 0.434-3.534 0.683-5.481 0.683-6.068 0-11.571-2.42-15.595-6.348l0.004 0.004-166.998-162.909zM931.853 6.133c-16.861-15.952-39.678-25.76-64.786-25.76s-47.926 9.808-64.83 25.801l0.044-0.041-162.909 160.393 60.383 59.44c1.935 0.928 3.595 2.086 5.039 3.466l-0.007-0.007c1.429 1.406 2.595 3.075 3.419 4.93l0.041 0.102 60.383 59.44 162.909-160.079c15.936-16.171 25.776-38.386 25.776-62.899s-9.841-46.728-25.787-62.91l0.011 0.011z" />
<glyph unicode="&#xe914;" glyph-name="minus-01" d="M955.562 587.87h-886.269c-0.256 0.003-0.558 0.005-0.861 0.005-37.971 0-68.808-30.541-69.288-68.398v-0.045s0 0 0 0v-141.153c-0.003-0.256-0.005-0.558-0.005-0.861 0-37.971 30.541-68.808 68.398-69.288h886.314c0.516-0.014 1.123-0.021 1.731-0.021 38.148 0 69.184 30.451 70.127 68.372l0.002 0.087v141.153c0 38.742-31.407 70.149-70.149 70.149v0z" />
<glyph unicode="&#xe915;" glyph-name="motorcycle-01" horiz-adv-x="749" d="M633.132 660.293h116.137v49.951h-116.386l-33.467 74.927 105.147 64.187-24.976 42.708-99.902-60.691-53.947 128.624h-300.956l-56.195-127.625-99.902 60.691-24.976-42.708 106.146-65.186-32.468-74.927h-117.385v-49.951h116.137c5.374-12.593 8.499-27.244 8.499-42.625 0-30.403-12.208-57.954-31.988-78.021l0.013 0.013-17.733-18.981v-10.24c0-207.048 69.682-392.617 174.829-469.541v-4.995c0-55.175 44.728-99.902 99.902-99.902v0h49.951c55.175 0 99.902 44.728 99.902 99.902v0 4.995c104.898 76.925 174.829 262.494 174.829 469.541v10.24l-18.232 18.232c-19.795 20.058-32.021 47.628-32.021 78.053 0 15.649 3.234 30.542 9.071 44.048l-0.277-0.72zM256.5 910.049h236.269l42.708-99.902c-47.291-15.841-101.745-24.982-158.334-24.982-0.882 0-1.764 0.002-2.645 0.007l0.136-0.001c-1.049-0.008-2.289-0.012-3.53-0.012-56.322 0-110.509 9.143-161.157 26.027l3.595-1.039zM449.561 35.902c0-27.587-22.364-49.951-49.951-49.951v0h-49.951c-27.587 0-49.951 22.364-49.951 49.951v0 249.756c0 27.587 22.364 49.951 49.951 49.951v0h49.951c27.587 0 49.951-22.364 49.951-49.951v0zM499.512 107.333v178.326c0 55.175-44.728 99.902-99.902 99.902v0h-49.951c-55.175 0-99.902-44.728-99.902-99.902v0-178.326c-73.428 78.423-122.63 228.277-124.878 392.866l3.497 3.497c28.648 29.028 46.342 68.928 46.342 112.96 0 22.329-4.55 43.594-12.773 62.921l0.398-1.052-2.498 6.743 33.967 79.173c53.973-18.455 116.154-29.109 180.823-29.109s126.851 10.654 184.884 30.303l-4.061-1.194 33.967-79.173-2.997-6.993c-7.668-18.17-12.124-39.295-12.124-61.461 0-44.161 17.687-84.191 46.365-113.392l3.473-3.473c-1.998-164.34-51.2-314.193-124.628-392.617zM399.61 660.293h-49.951c-55.175 0-99.902-44.728-99.902-99.902s44.728-99.902 99.902-99.902v0h49.951c55.175 0 99.902 44.728 99.902 99.902s-44.728 99.902-99.902 99.902v0zM399.61 510.439h-49.951c-27.587 0-49.951 22.364-49.951 49.951s22.364 49.951 49.951 49.951v0h49.951c27.587 0 49.951-22.364 49.951-49.951s-22.364-49.951-49.951-49.951v0z" />
<glyph unicode="&#xe916;" glyph-name="nis-01" horiz-adv-x="1254" d="M663.389 785.364c24.004-33.416 38.387-75.151 38.387-120.245 0-10.387-0.763-20.596-2.236-30.573l0.137 1.13v-331.127h196.182v365.147c1.006 9.418 1.58 20.344 1.58 31.404 0 74.195-25.817 142.36-68.957 196.002l0.472-0.607c-48.675 40.518-111.852 65.112-180.773 65.112-10.621 0-21.106-0.584-31.423-1.722l1.272 0.114h-618.029v-1020.598h195.048v876.58h351.539c4.405 0.378 9.533 0.594 14.71 0.594 38.091 0 73.458-11.665 102.723-31.618l-0.631 0.406zM1056.886 960v-699.677c0.604-6.63 0.949-14.341 0.949-22.132 0-42.826-10.412-83.22-28.843-118.789l0.679 1.44c-26.763-25.372-63.009-40.975-102.898-40.975-6.902 0-13.694 0.467-20.348 1.371l0.774-0.086h-353.807v511.433h-195.048v-653.183h616.895c7.679-0.733 16.602-1.151 25.624-1.151 71.412 0 136.705 26.194 186.797 69.498l-0.363-0.307c41.993 53.196 67.358 121.213 67.358 195.155 0 11.145-0.576 22.155-1.701 33.002l0.114-1.357v725.759h-196.182z" />
<glyph unicode="&#xe917;" glyph-name="openenvelope-01" horiz-adv-x="1025" d="M1024.445-44.996c0.034 0.444 0.053 0.962 0.053 1.485s-0.019 1.040-0.057 1.553l0.004-0.069v612.737c0.009 0.231 0.014 0.502 0.014 0.774 0 7.026-3.297 13.281-8.429 17.304l-0.048 0.036-490.991 367.167c-3.488 2.653-7.905 4.25-12.694 4.25s-9.206-1.597-12.746-4.288l0.052 0.038-490.991-367.167c-5.264-4.085-8.619-10.412-8.619-17.523 0-0.208 0.003-0.414 0.009-0.621l-0.001 0.030v-612.886c-0.033-0.444-0.051-0.962-0.051-1.485s0.019-1.040 0.055-1.554l-0.004 0.069c0.258-1.674 0.672-3.173 1.237-4.596l-0.050 0.141c0.608-1.537 1.306-2.857 2.128-4.087l-0.049 0.078c0.437-0.986 0.883-1.814 1.384-2.605l-0.048 0.081h0.742c1.021-1.090 2.139-2.066 3.347-2.924l0.068-0.046 3.266-2.227 3.712-1.188c1.3-0.436 2.814-0.751 4.38-0.886l0.074-0.005h983.022c3.179 0.003 6.191 0.714 8.888 1.984l-0.128-0.054 1.782 1.336c2.059 1.14 3.822 2.524 5.333 4.145l0.012 0.013h0.742l1.336 2.524c0.775 1.153 1.473 2.473 2.028 3.865l0.050 0.143c0.511 1.279 0.924 2.777 1.172 4.332l0.016 0.123zM43.056 519.192l319.805-247.203-319.954-267.247zM512.371 340.136l430.712-360.041h-861.128zM661.881 271.84l319.954 247.797v-515.489zM512.371 911.005l459.367-344.006-344.154-266.356-101.554 84.925c-3.665 3.096-8.442 4.977-13.659 4.977s-9.994-1.882-13.691-5.003l0.032 0.026-101.702-85.074-344.154 266.504z" />
<glyph unicode="&#xe918;" glyph-name="paperplane-01" horiz-adv-x="1291" d="M3.19 949.089c3.929 6.733 11.119 11.185 19.348 11.185 1.229 0 2.436-0.099 3.611-0.291l-0.129 0.017 1245.419-175.759c9.198-1.228 16.554-7.905 18.768-16.632l0.033-0.154c0.423-1.618 0.665-3.475 0.665-5.389 0-7.455-3.682-14.051-9.326-18.067l-0.068-0.046-351.182-250.628-57.411-34.581c-1.123-4.043-3.224-7.503-6.038-10.235l-0.006-0.005-1.679-67.987-42.639-424.372c-0.78-9.712-7.577-17.644-16.628-20.107l-0.159-0.037c-1.907-0.509-4.102-0.814-6.364-0.839h-0.015c-7.168 0.060-13.552 3.367-17.761 8.52l-776.594 980.396c-3.029 3.758-4.863 8.59-4.863 13.851 0 4.113 1.12 7.963 3.073 11.264l-0.056-0.103zM905.485 530.591l303.171 217.054-1074.361 151.082 710.589-404.564zM782.605 16.073l37.938 367.297 2.014 71.848-709.414 405.235z" />
<glyph unicode="&#xe919;" glyph-name="pen-01" d="M1024 801.21c-0.048 4.915-2.019 9.361-5.194 12.629l0.004-0.004-140.274 140.975c-3.152 3.174-7.519 5.139-12.344 5.139s-9.192-1.965-12.343-5.138l-0.001-0.001-110.396-110.957c-1.999-0.872-3.714-2.003-5.203-3.378l0.012 0.011c-1.383-1.466-2.518-3.185-3.324-5.077l-0.043-0.113-610.052-612.436c-53.304-53.444-76.169-112.219-62.843-162.858 2.717-9.806 6.552-18.385 11.462-26.221l-0.24 0.411-68.033-67.752c-2.628-3.085-4.227-7.116-4.227-11.521 0-9.839 7.976-17.815 17.815-17.815 4.405 0 8.437 1.599 11.546 4.248l-0.025-0.021 67.893 67.612c8.714-6.579 18.891-11.806 29.898-15.114l0.681-0.176c8.473-2.317 18.201-3.649 28.24-3.649 0.231 0 0.462 0.001 0.692 0.002h-0.036c42.924 0 90.056 23.285 133.26 66.63l600.793 604.3 66.911-67.191-260.208-260.348c-3.199-3.22-5.176-7.656-5.176-12.555s1.977-9.335 5.176-12.555l-0.001 0.001c3.159-3.277 7.582-5.317 12.482-5.33h0.003c4.869 0.056 9.268 2.026 12.487 5.193l-0.002-0.002 272.552 273.113c3.199 3.22 5.176 7.656 5.176 12.555s-1.977 9.335-5.176 12.555l0.001-0.001-79.395 79.676 102.4 102.821c3.070 3.208 4.981 7.546 5.050 12.331v0.013zM265.258 81.745c-43.345-43.485-91.178-63.684-127.93-53.725-20.341 5.134-36.035 20.875-41.019 40.854l-0.082 0.386c-9.959 36.892 10.1 84.866 53.585 128.491l601.495 604.16 115.445-116.007zM891.722 711.014l-115.445 116.007 89.775 90.898 115.866-116.708z" />
<glyph unicode="&#xe91a;" glyph-name="phone-01" horiz-adv-x="1023" d="M1022.671 166.583c-14.733 17.124-33.522 30.353-54.897 38.244l-0.921 0.298c-41.199 23.258-83.727 45.851-124.262 69.773-18.335 15.805-40.743 27.404-65.425 33.029l-1.025 0.196c-44.522 0-108.979-132.901-148.184-132.901-23.912 5.037-44.933 15.007-62.817 28.837l0.354-0.263c-127.972 68.788-230.379 170.768-297.794 294.555l-1.898 3.807c-13.189 17.615-22.917 38.617-27.727 61.432l-0.182 1.032c0 39.206 132.901 104.327 132.901 148.184-5.821 25.707-17.421 48.116-33.393 66.649l0.167-0.199c-23.258 39.87-45.851 82.398-71.766 123.598-7.048 22.677-19.464 41.961-35.798 57.069l-0.085 0.078c-2.297 0.514-4.935 0.808-7.642 0.808s-5.345-0.294-7.884-0.853l0.242 0.045c-36.836-2.035-71.266-9.904-103.188-22.701l2.184 0.773c-34.346-20.885-61.018-51.411-76.612-87.81l-0.47-1.234c-22.373-38.157-36.040-83.813-37.206-132.566l-0.006-0.335c5.586-71.192 23.624-136.896 51.953-196.781l-1.451 3.41c17.12-48.879 37.539-91.008 62.058-130.316l-1.588 2.731c92.972-139.857 209.229-256.325 344.401-346.719l4.463-2.81c36.462-22.496 78.56-42.889 122.744-58.934l4.841-1.536c55.667-26.612 120.422-44.62 188.667-50.364l2.045-0.139c49.092 1.017 94.78 14.707 134.191 37.915l-1.29-0.703c37.494 16.304 67.953 42.912 88.565 76.252l0.478 0.83c12.098 29.689 20.177 64.069 22.541 100.010l0.052 0.995c0.779 2.969 1.226 6.379 1.226 9.892 0 2.374-0.204 4.7-0.596 6.962l0.035-0.242z" />
<glyph unicode="&#xe91b;" glyph-name="plus-01" d="M953.851 587.87h-301.982v301.982c0 38.742-31.407 70.149-70.149 70.149v0h-139.442c-38.742 0-70.149-31.407-70.149-70.149v0-301.982h-302.837c-0.256 0.003-0.558 0.005-0.861 0.005-38.27 0-69.293-31.024-69.293-69.293 0-0.303 0.002-0.605 0.006-0.907v0.046-139.442c-0.003-0.254-0.005-0.555-0.005-0.855 0-38.27 31.024-69.293 69.293-69.293 0.002 0 0.004 0 0.005 0h303.692v-301.982c0-0.002 0-0.003 0-0.005 0-38.441 30.921-69.661 69.248-70.143h140.343c0.002 0 0.003 0 0.005 0 38.441 0 69.661 30.921 70.143 69.248v302.883h301.982c0.509-0.013 1.109-0.021 1.711-0.021 38.742 0 70.149 31.407 70.149 70.149 0 0.007 0 0.015 0 0.022v-0.001 139.442c0 0.006 0 0.014 0 0.021 0 38.742-31.407 70.149-70.149 70.149-0.602 0-1.201-0.008-1.799-0.023l0.089 0.002z" />
<glyph unicode="&#xe91c;" glyph-name="question-01" horiz-adv-x="691" d="M424.949 192.573h-178.685c-0.105 0.001-0.23 0.002-0.355 0.002-16.447 0-29.781-13.333-29.781-29.781 0-1.618 0.129-3.206 0.377-4.754l-0.023 0.17v-188.993c-0.014-0.348-0.022-0.756-0.022-1.166 0-16.685 13.213-30.284 29.746-30.904l0.056-0.002h178.685c0.693-0.055 1.501-0.087 2.315-0.087 17.080 0 30.926 13.846 30.926 30.926 0 0.433-0.009 0.865-0.027 1.294l0.002-0.061v188.993c0.015 0.348 0.023 0.756 0.023 1.167 0 16.053-12.701 29.139-28.602 29.758l-0.056 0.002zM351.642 960c-4.263 0.174-9.267 0.274-14.293 0.274-148.056 0-275.987-86.169-336.377-211.092l-0.972-2.229c-2.989-4.888-4.759-10.804-4.759-17.133 0-10.084 4.494-19.119 11.588-25.211l0.044-0.037 122.559-99.651c5.539-3.62 12.154-6.073 19.272-6.855l0.2-0.018c0.116-0.002 0.254-0.002 0.391-0.002 12.518 0 23.299 7.438 28.165 18.135l0.079 0.194c22.969 35.007 49.469 65.147 79.625 91.166l0.554 0.467c22.389 14.373 49.713 22.913 79.032 22.913 0.403 0 0.806-0.002 1.209-0.005h-0.062c3.047 0.31 6.585 0.486 10.164 0.486 51.3 0 94.13-36.263 104.255-84.553l0.122-0.693c-1.909-49.688-35.19-91.116-80.513-105.162l-0.811-0.217c-84.761-39.674-144.587-120.081-154.533-215.327l-0.098-1.157v-35.508c-0.154-1.373-0.241-2.965-0.241-4.577 0-17.921 10.831-33.312 26.303-39.986l0.282-0.108h179.83c17.132 3.299 29.897 18.171 29.897 36.025 0 1.027-0.042 2.045-0.125 3.051l0.009-0.132c8.595 44.145 34.579 81.009 70.378 103.852l0.637 0.38c97.286 43.763 163.799 139.838 163.799 251.449 0 0.593-0.002 1.186-0.006 1.779v-0.091c-12.734 176.696-157.336 315.727-335.231 319.564l-0.375 0.006z" />
<glyph unicode="&#xe91d;" glyph-name="taxi-01" horiz-adv-x="1132" d="M1131.789 528.842h-118.299l-105.634 256.539c-16.525 39.468-54.784 66.715-99.421 66.829h-80.857v107.789h-323.368v-107.789h-80.842c0 0-0.001 0-0.001 0-44.758 0-83.144-27.28-99.439-66.119l-0.264-0.71-105.364-256.539h-118.299v-53.895h96.202l-42.307-102.4v-328.758h53.895v-107.789h242.526v107.789h431.158v-107.789h242.526v107.789h53.895v328.758l-42.307 102.4h96.202zM458.105 906.105h215.579v-53.895h-215.579zM273.785 764.901c8.245 19.693 27.311 33.3 49.569 33.415h485.068c0 0 0 0 0.001 0 22.379 0 41.572-13.64 49.72-33.060l0.132-0.355 97.011-236.059h-778.779zM107.789 340.211h53.895c29.765 0 53.895-24.129 53.895-53.895s-24.129-53.895-53.895-53.895v0h-53.895zM296.421-10.105h-134.737v53.895h134.737zM970.105-10.105h-134.737v53.895h134.737zM1024 97.684h-916.211v80.842h53.895c59.53 0 107.789 48.259 107.789 107.789s-48.259 107.789-107.789 107.789v0h-40.691l33.415 80.842h822.973l33.415-80.842h-40.691c-59.53 0-107.789-48.259-107.789-107.789s48.259-107.789 107.789-107.789v0h53.895zM1024 232.421h-53.895c-29.765 0-53.895 24.129-53.895 53.895s24.129 53.895 53.895 53.895v0h53.895zM431.158 259.368h269.474v53.895h-269.474z" />
<glyph unicode="&#xe91e;" glyph-name="truck-01" horiz-adv-x="1071" d="M1044.48 960h-1044.48v-505.018l116.364-59.578v-366.313h46.545v-93.091h209.455v93.091h325.818v-93.091h209.455v93.091h46.545v364.218l116.364 61.905v504.785zM325.818-17.455h-116.364v46.545h116.364zM628.364 75.636h-186.182v209.455h186.182zM861.091-17.455h-116.364v46.545h116.364zM907.636 192h-46.545c-25.706 0-46.545 20.839-46.545 46.545s20.839 46.545 46.545 46.545v0h46.545zM907.636 331.636h-46.545c-51.413 0-93.091-41.678-93.091-93.091s41.678-93.091 93.091-93.091v0h46.545v-69.818h-232.727v256h-279.273v-256h-232.727v69.818h46.545c51.413 0 93.091 41.678 93.091 93.091s-41.678 93.091-93.091 93.091v0h-46.545v65.164h744.727zM162.909 192v93.091h46.545c25.706 0 46.545-20.839 46.545-46.545s-20.839-46.545-46.545-46.545v0zM907.636 443.578h-744.727v380.276h744.727zM1024 483.375l-69.818-37.236v424.495h-837.818v-422.633l-69.818 35.607v429.847h977.455z" />
<glyph unicode="&#xe91f;" glyph-name="twitter-01" horiz-adv-x="1260" d="M1259.146 837.829c-43.256-19.537-93.429-33.661-146.034-39.837l-2.41-0.23c53.156 32.501 93.227 81.935 113.088 140.68l0.543 1.852c-47.271-28.467-102.3-50.128-160.917-61.85l-3.291-0.549c-47.229 50.393-114.204 81.791-188.511 81.791-142.564 0-258.135-115.571-258.135-258.135 0-0.121 0-0.242 0-0.363v0.019c0.219-21.056 2.6-41.434 6.932-61.079l-0.364 1.964c-215.063 11.185-404.202 113.448-530.992 268.643l-1.041 1.315c-22.291-36.682-35.486-81.029-35.486-128.459 0-1.022 0.006-2.043 0.018-3.063l-0.001 0.155c0-0.106 0-0.231 0-0.356 0-89.093 45.251-167.618 114.023-213.844l0.923-0.584c-42.954 1.917-82.731 13.859-117.571 33.523l1.312-0.681c-0.008-0.745-0.012-1.625-0.012-2.505 0-124.435 88.046-228.305 205.239-252.71l1.675-0.292c-19.659-5.241-42.265-8.344-65.564-8.538l-0.119-0.001c-17.25 0.117-34.073 1.546-50.488 4.191l1.882-0.25c34.12-103.494 129.037-177.255 241.473-179.311l0.241-0.003c-87.142-68.801-198.566-110.359-319.697-110.359-1.218 0-2.435 0.004-3.651 0.013l0.187-0.001c-9.325-0.579-20.224-0.909-31.199-0.909s-21.874 0.33-32.687 0.98l1.487-0.072c112.004-72.729 248.991-115.974 396.078-115.974 405.563 0 734.337 328.774 734.337 734.337 0 1.285-0.003 2.57-0.010 3.853l0.001-0.197c0 11.166 0 22.332 0 33.498 50.413 37.177 93.073 81.3 127.54 131.489l1.199 1.848z" />
<glyph unicode="&#xe920;" glyph-name="whatsapp-01" horiz-adv-x="1022" d="M655.975 396.296c-17.5 0-53.030-64.166-70.529-64.166-5.549 0.286-10.64 2.026-14.965 4.844l0.117-0.071c-38.635 18.067-71.851 40.426-101.065 67.096l0.309-0.278c-26.879 25.781-49.525 55.702-66.969 88.79l-0.908 1.89c-1.705 2.897-2.844 6.323-3.175 9.981l-0.007 0.095c0 15.379 46.136 43.484 46.136 68.938 0 6.364-33.939 96.514-38.712 106.059-1.080 12.866-11.789 22.9-24.842 22.9-0.776 0-1.543-0.035-2.301-0.105l0.097 0.007c-8.485 0-16.439 0-24.394 0-1.4 0.143-3.026 0.224-4.671 0.224-12.234 0-23.416-4.503-31.979-11.942l0.060 0.051c-30.109-25.712-49.129-63.645-49.317-106.026v-5.336c3.79-48.367 21.754-91.925 49.691-127.23l-0.373 0.489c50.621-85.947 122.801-154.383 209.239-199.097l2.879-1.355c36.707-18.882 79.308-33.133 124.228-40.493l2.512-0.34c46.793 0.15 88.121 23.408 113.19 58.955l0.293 0.438c6.309 14.828 10.326 32.027 11.125 50.063l0.011 0.315c0.239 1.514 0.376 3.26 0.376 5.038s-0.137 3.524-0.4 5.228l0.024-0.19c-36.149 24.388-77.541 46.303-121.236 63.669l-4.444 1.558zM520.75 960c-0.316 0.001-0.691 0.001-1.065 0.001-276.020 0-499.92-223.156-501.124-498.894v-0.115c0.006-95.096 26.84-183.923 73.345-259.327l-1.225 2.134-90.68-267.799 277.875 88.559c70.75-40.687 155.567-64.686 245.99-64.686 276.18 0 500.068 223.888 500.068 500.068s-223.888 500.068-500.068 500.068c-1.095 0-2.189-0.004-3.282-0.011l0.168 0.001zM520.75 45.771c-85.468 0.459-164.852 26.121-231.206 69.923l1.588-0.985-159.089-53.030 53.030 154.316c-51.226 67.533-82.232 152.862-82.726 245.411v0.115c-0.005 0.785-0.008 1.714-0.008 2.643 0 231.078 187.325 418.403 418.403 418.403s418.403-187.325 418.403-418.403c0-230.142-185.812-416.886-415.6-418.394l-0.143-0.001h-2.651z" />
<glyph unicode="&#xe921;" glyph-name="world-01" d="M512 960c-282.77 0-512-229.23-512-512s229.23-512 512-512c282.77 0 512 229.23 512 512v0c0 282.77-229.23 512-512 512v0zM859.256 132.668c-34.438 27.416-74.343 49.951-117.537 65.629l-2.934 0.931c29.436 67.005 47.594 144.918 49.975 226.788l0.021 0.901h190.946c-4.795-113.853-49.687-216.379-120.813-294.631l0.342 0.382zM43.369 426.918h197.572c2.512-81.754 20.212-158.718 50.355-229.084l-1.564 4.106c-48.203-17.068-89.923-40.44-126.796-69.661l0.904 0.691c-70.808 77.748-115.71 180.186-120.439 293.009l-0.031 0.94zM163.84 763.031c36.168-28.566 78.074-52.030 123.408-68.303l3.087-0.967c-28.68-66.133-46.573-142.95-49.363-223.604l-0.029-1.073h-197.572c4.76 113.762 49.663 216.2 120.805 294.321l-0.334-0.372zM490.918 699.482c-50.677 1.376-99.063 8.434-145.396 20.565l4.446-0.989c36.066 68.406 83.333 126.058 139.994 172.713l0.956 0.764zM490.918 657.318v-188.235h-207.209c2.875 76.802 20.102 148.854 49.060 214.573l-1.474-3.75c47.587-13.316 102.414-21.491 158.977-22.578l0.647-0.010zM490.918 426.918v-188.235c-57.625-1.554-112.587-10.14-164.944-24.932l4.719 1.139c-27.341 62.004-44.37 134.092-46.957 209.846l-0.026 0.978zM490.918 196.518v-194.861c-58.181 47.789-105.792 106.076-140.403 172.238l-1.451 3.047c42.15 11.477 90.828 18.752 140.975 20.159l0.879 0.020zM533.082 196.518c53.335-1.547 104.155-9.474 152.615-23.047l-4.436 1.061c-37.523-70.747-87.276-130.118-147.024-177.415l-1.155-0.882zM533.082 238.682v188.235h214.438c-2.55-77.916-19.807-151.152-49.068-217.931l1.482 3.794c-49.614 14.955-106.825 24.309-165.975 25.883l-0.877 0.018zM533.082 469.082v188.235c59.718 1.641 116.617 10.881 170.66 26.789l-4.712-1.189c28.219-62.825 45.799-135.941 48.462-212.847l0.027-0.988zM533.082 699.482v198.475c60.296-47.857 109.694-106.581 145.814-173.526l1.461-2.963c-43.802-12.669-94.323-20.606-146.482-21.969l-0.794-0.016zM582.174 912.113c96.355-15.151 180.861-57.553 247.599-118.966l-0.334 0.303c-31.068-24.52-66.942-44.877-105.688-59.34l-2.735-0.895c-36.078 69.449-82.568 128.342-138.161 177.109l-0.681 0.586zM308.706 731.407c-43.745 14.855-81.684 35.295-115.436 60.957l0.989-0.721c68.491 63.409 156.397 106.755 253.849 120.194l2.452 0.277c-57.615-50.055-105.132-109.975-140.273-177.374l-1.581-3.331zM308.706 163.087c36.125-70.64 82.952-130.546 139.099-180.145l0.647-0.561c-98.9 14.281-185.788 57.531-253.888 120.743l0.297-0.273c32.626 24.762 70.339 45.179 110.976 59.363l2.869 0.872zM722.824 161.28c41.118-14.894 76.705-34.76 108.405-59.391l-0.885 0.662c-65.694-60.558-149.229-102.697-241.86-117.701l-2.696-0.36c55.685 49.059 101.601 107.669 135.489 173.486l1.546 3.305zM789.685 469.082c-2.821 82.755-21.16 160.506-52.179 231.446l1.581-4.058c46.12 16.811 86.008 39.433 121.345 67.532l-0.874-0.671c70.784-77.871 115.676-180.397 120.439-293.302l0.032-0.947z" />
</font>
</defs>
</svg>
