<svg id="_26_sogo" data-name="26_sogo" xmlns="http://www.w3.org/2000/svg" viewBox="0 0 444.82 226.45"><defs><style>.cls-1{fill:#525252;}</style></defs><title>26_sogo</title><path class="cls-1" d="M44.33,355.22a7.33,7.33,0,0,0,10-2.83A7.43,7.43,0,1,0,44.33,355.22Z" transform="translate(-27.59 -286.77)"/><path class="cls-1" d="M196.69,473.72a11.11,11.11,0,0,0-1.94,15.63,11.24,11.24,0,0,0,15.63,1.86A11.11,11.11,0,1,0,196.69,473.72Z" transform="translate(-27.59 -286.77)"/><path class="cls-1" d="M80.45,312.94a6.87,6.87,0,1,0-10.85,8.42A6.87,6.87,0,0,0,80.45,312.94Z" transform="translate(-27.59 -286.77)"/><path class="cls-1" d="M187.7,313.26a5.54,5.54,0,0,0,7.53-2.11,5.55,5.55,0,1,0-9.64-5.51A5.53,5.53,0,0,0,187.7,313.26Z" transform="translate(-27.59 -286.77)"/><path class="cls-1" d="M92.76,483A9.35,9.35,0,0,0,80,486.6a9.41,9.41,0,0,0,16.44,9.15A9.33,9.33,0,0,0,92.76,483Z" transform="translate(-27.59 -286.77)"/><path class="cls-1" d="M225.28,339.75a5.69,5.69,0,0,0,1-7.78A5.54,5.54,0,1,0,225.28,339.75Z" transform="translate(-27.59 -286.77)"/><path class="cls-1" d="M51.21,457a9,9,0,0,0-1.54,12.72,8.94,8.94,0,0,0,12.64,1.62A9.06,9.06,0,1,0,51.21,457Z" transform="translate(-27.59 -286.77)"/><path class="cls-1" d="M36.31,420a8.57,8.57,0,1,0,10.53,5.91A8.61,8.61,0,0,0,36.31,420Z" transform="translate(-27.59 -286.77)"/><path class="cls-1" d="M42.95,388.51a7.71,7.71,0,0,0-15.31-1.78,7.61,7.61,0,0,0,6.72,8.51A7.74,7.74,0,0,0,42.95,388.51Z" transform="translate(-27.59 -286.77)"/><path class="cls-1" d="M109.21,292.93a6.36,6.36,0,0,0-4.37,7.86,6.21,6.21,0,0,0,7.78,4.37A6.35,6.35,0,0,0,109.21,292.93Z" transform="translate(-27.59 -286.77)"/><path class="cls-1" d="M165,490.49a10.48,10.48,0,1,0,12.88,7.21A10.37,10.37,0,0,0,165,490.49Z" transform="translate(-27.59 -286.77)"/><path class="cls-1" d="M151.89,289.77a6,6,0,0,0-6.56,5.27,6,6,0,1,0,11.83,1.38A6.21,6.21,0,0,0,151.89,289.77Z" transform="translate(-27.59 -286.77)"/><path class="cls-1" d="M128.49,494.46a9.42,9.42,0,1,0,8.26,10.45A9.41,9.41,0,0,0,128.49,494.46Z" transform="translate(-27.59 -286.77)"/><path class="cls-1" d="M261.08,360.4a13.62,13.62,0,0,0,18.71-3.81A13.5,13.5,0,1,0,261.08,360.4Z" transform="translate(-27.59 -286.77)"/><path class="cls-1" d="M232.81,442.86a13.56,13.56,0,0,0-18.71,3.89,13.5,13.5,0,0,0,22.52,14.9A13.64,13.64,0,0,0,232.81,442.86Z" transform="translate(-27.59 -286.77)"/><path class="cls-1" d="M459,435.73a7.37,7.37,0,0,0-9.72,3.89A7.46,7.46,0,1,0,459,435.73Z" transform="translate(-27.59 -286.77)"/><path class="cls-1" d="M300,329.46a11.14,11.14,0,0,0-15.39-16.12A11.14,11.14,0,0,0,300,329.46Z" transform="translate(-27.59 -286.77)"/><path class="cls-1" d="M427.46,471.78a6.85,6.85,0,1,0,9.72.16A6.75,6.75,0,0,0,427.46,471.78Z" transform="translate(-27.59 -286.77)"/><path class="cls-1" d="M320.54,491.79a5.67,5.67,0,0,0-7.29,2.92,5.44,5.44,0,0,0,2.92,7.21,5.59,5.59,0,0,0,7.29-2.84A5.7,5.7,0,0,0,320.54,491.79Z" transform="translate(-27.59 -286.77)"/><path class="cls-1" d="M398,313.42a9.38,9.38,0,1,0-4.86-12.31A9.42,9.42,0,0,0,398,313.42Z" transform="translate(-27.59 -286.77)"/><path class="cls-1" d="M280.6,469.19a5.6,5.6,0,0,0-.16,7.86,5.5,5.5,0,0,0,7.78.16A5.53,5.53,0,0,0,280.6,469.19Z" transform="translate(-27.59 -286.77)"/><path class="cls-1" d="M429.48,322a9.05,9.05,0,1,0,12.8.32A9,9,0,0,0,429.48,322Z" transform="translate(-27.59 -286.77)"/><path class="cls-1" d="M460.59,370.37a8.42,8.42,0,0,0,4.78-11,8.53,8.53,0,0,0-11-4.86,8.62,8.62,0,0,0-4.86,11.1A8.51,8.51,0,0,0,460.59,370.37Z" transform="translate(-27.59 -286.77)"/><path class="cls-1" d="M464.88,394.91a7.7,7.7,0,1,0,7.53,7.78A7.75,7.75,0,0,0,464.88,394.91Z" transform="translate(-27.59 -286.77)"/><path class="cls-1" d="M396.19,492.35a6.35,6.35,0,1,0,8.18,3.56A6.3,6.3,0,0,0,396.19,492.35Z" transform="translate(-27.59 -286.77)"/><path class="cls-1" d="M325.48,313.18a10.49,10.49,0,1,0-13.61-5.91A10.46,10.46,0,0,0,325.48,313.18Z" transform="translate(-27.59 -286.77)"/><path class="cls-1" d="M358.69,499.56a6,6,0,0,0-6.08,5.83,5.87,5.87,0,0,0,5.83,6.08,5.93,5.93,0,0,0,6.08-5.91A5.84,5.84,0,0,0,358.69,499.56Z" transform="translate(-27.59 -286.77)"/><path class="cls-1" d="M361.52,305.65a9.44,9.44,0,1,0-9.4-9.64A9.46,9.46,0,0,0,361.52,305.65Z" transform="translate(-27.59 -286.77)"/><path class="cls-1" d="M192.56,430.71a21.26,21.26,0,0,0,7.78-17.09,20.55,20.55,0,0,0-1.62-8,22.71,22.71,0,0,0-6.08-7.78c-3-2.67-7.13-4.7-12.39-6.24-3.08-.89-5.35-2-6.56-3.32a8.43,8.43,0,0,1-1.13-9,9.4,9.4,0,0,1,2-2.92,9.19,9.19,0,0,1,2.92-1.94,7.92,7.92,0,0,1,3.32-.73,9.78,9.78,0,0,1,4,.81,6.4,6.4,0,0,1,2.92,2.35c0.41,0.57.73,1.05,1.13,1.54a14.48,14.48,0,0,0,1.05,1.13,4.11,4.11,0,0,0,1.3.73,4.87,4.87,0,0,0,1.62.24,4.75,4.75,0,0,0,1.86-.32,5,5,0,0,0,1.54-1,3.84,3.84,0,0,0,1-1.54,6.9,6.9,0,0,0,.32-1.86,5.85,5.85,0,0,0-.65-2.59,19.77,19.77,0,0,0-3.24-4,18.33,18.33,0,0,0-3.89-2.83,20.42,20.42,0,0,0-4.37-1.7,17.41,17.41,0,0,0-4.54-.57,18.1,18.1,0,0,0-12.15,4.54h0.08a17.5,17.5,0,0,0-4.86,6.4,18.22,18.22,0,0,0-1.7,8,17.26,17.26,0,0,0,1.3,6.8,18.54,18.54,0,0,0,4.62,6.24,27.59,27.59,0,0,0,9.8,4.78,26.07,26.07,0,0,1,8.34,3.81,12,12,0,0,1,3.56,4.29,11.18,11.18,0,0,1,.89,4.62,12.8,12.8,0,0,1-1,4.94,12.6,12.6,0,0,1-2.67,4,13.9,13.9,0,0,1-4,2.75,12.4,12.4,0,0,1-4.86,1,12.94,12.94,0,0,1-6.08-1.46,12.12,12.12,0,0,1-4.7-4.37,4.42,4.42,0,0,0-4-2.19,4.5,4.5,0,0,0-1.86.32,6.16,6.16,0,0,0-1.54,1,3.84,3.84,0,0,0-1,1.54,4.75,4.75,0,0,0-.32,1.86,4.52,4.52,0,0,0,1,2.92,20.88,20.88,0,0,0,3.73,4.29,22.22,22.22,0,0,0,4.62,3.16,24.48,24.48,0,0,0,5.1,1.94,24.12,24.12,0,0,0,5.35.65,21.51,21.51,0,0,0,14.18-5.27h-0.24Z" transform="translate(-27.59 -286.77)"/><path class="cls-1" d="M277.2,386.16a35.26,35.26,0,0,0-7.94-11.58A36,36,0,1,0,279.79,400,33.78,33.78,0,0,0,277.2,386.16Zm-14.66,32.48a25.43,25.43,0,0,1-18.71,7.7,25.75,25.75,0,0,1-18.71-7.7,26.83,26.83,0,0,1-5.75-28.84,28.13,28.13,0,0,1,14.34-14.34,26,26,0,0,1,10.21-1.94,26.41,26.41,0,0,1,26.33,26.41A25.75,25.75,0,0,1,262.54,418.64Z" transform="translate(-27.59 -286.77)"/><path class="cls-1" d="M325.32,373.53a26.07,26.07,0,0,1,16.28,5.59,4.94,4.94,0,0,0,5.18,1.05,5,5,0,0,0,1.54-1,3.84,3.84,0,0,0,1-1.54,4.75,4.75,0,0,0,.32-1.86,4.28,4.28,0,0,0-1.3-3.32A35.76,35.76,0,0,0,325.23,364a36,36,0,1,0,0,71.93,35.08,35.08,0,0,0,22.6-8,4.94,4.94,0,0,0,1.46-3.4V403.41h0.16a4.41,4.41,0,0,0-.41-1.78,4,4,0,0,0-1.05-1.54,5.19,5.19,0,0,0-1.54-1.05,4.41,4.41,0,0,0-1.78-.41H327.42a4.5,4.5,0,0,0-1.86.32,6.16,6.16,0,0,0-1.54,1,3.84,3.84,0,0,0-1,1.54,4.75,4.75,0,0,0-.32,1.86,4.7,4.7,0,0,0,4.78,4.78H339.9V422a25.9,25.9,0,0,1-14.58,4.29A26.41,26.41,0,0,1,325.32,373.53Z" transform="translate(-27.59 -286.77)"/><path class="cls-1" d="M428.43,386.16a35.26,35.26,0,0,0-7.94-11.58A36,36,0,1,0,431,400,33.78,33.78,0,0,0,428.43,386.16Zm-14.58,32.48a25.43,25.43,0,0,1-18.71,7.7,25.75,25.75,0,0,1-18.71-7.7,26.83,26.83,0,0,1-5.75-28.84A28.13,28.13,0,0,1,385,375.47a26,26,0,0,1,10.21-1.94,26.41,26.41,0,0,1,26.33,26.41A25.75,25.75,0,0,1,413.85,418.64Z" transform="translate(-27.59 -286.77)"/></svg>