<svg version="1.1" id="Layer_1" xmlns="http://www.w3.org/2000/svg" xmlns:xlink="http://www.w3.org/1999/xlink" x="0px" y="0px"
	 viewBox="0 0 568 318" width="180px" enable-background="new 0 0 568 318" xml:space="preserve">

	<path
     style="fill:none;stroke-width:1px;stroke-linecap:butt;stroke-linejoin:miter;stroke-opacity:1"
     d="m 252.26591,220.78925 c -6.87302,12.42108 -14.28786,25.12296 -24.90523,34.54597 -12.82026,11.37809 -28.50403,20.21166 -44.9901,24.90523 -15.73035,4.47842 -32.7908,4.5392 -49.00707,2.41019 C 115.66633,280.32721 97.901076,275.10475 82.372439,266.30419 67.897404,258.10074 54.867137,246.66146 44.878777,233.35522 34.961831,220.14412 28.396963,204.36012 23.859603,188.47644 19.45967,173.07384 16.659124,156.70371 18.178745,140.75723 19.89446,122.753 25.922935,104.90056 34.653233,89.061428 42.892637,74.112916 54.116581,60.326949 67.602209,49.863508 80.383108,39.946864 95.700286,32.960167 111.34481,28.844334 c 16.51832,-4.345716 34.17118,-5.461717 51.12773,-3.408514 16.76582,2.030108 33.55263,7.085814 48.28729,15.338316 14.64081,8.199938 28.62594,19.072446 38.06174,32.948975 13.20073,19.41333 15.15586,29.296889 27.83621,64.193699 12.68035,34.8968 25.56546,74.15191 49.58691,104.1917 9.46592,11.83752 20.43215,20.61451 35.75531,28.09149 16.97372,8.28238 36.0931,13.29061 54.97497,13.71485 17.1901,0.38623 34.4878,-4.1145 50.55963,-10.22554 13.72168,-5.21744 27.23968,-12.23623 38.06175,-22.15535 13.3232,-12.21156 23.9447,-27.7777 31.24472,-44.31069 6.73652,-15.25678 10.29613,-32.18497 10.79363,-48.85538 0.50333,-16.8659 -1.9012,-34.24083 -7.9532,-49.99155 C 533.44592,92.147844 523.49593,77.00101 511.27721,64.633739 500.24056,53.46291 486.28503,45.194476 472.07929,38.501793 457.2302,31.506009 441.28556,25.667944 424.92817,24.299648 c -18.06922,-1.511491 -37.16025,0.0144 -53.96815,6.817029 -14.04244,5.683371 -25.88392,18.382029 -36.35749,27.268118 -10.47357,8.886089 -10.60007,5.228256 -26.70003,31.244719 -16.09996,26.016466 -31.79689,88.076106 -55.63659,131.159736 z"
     id="theMotionPath1" />

	<path
     style="fill:none;stroke-width:1px;stroke-linecap:butt;stroke-linejoin:miter;stroke-opacity:1"
     d="m 226.09814,256.07865 c -12.15571,10.41535 -27.24503,17.65333 -42.60643,22.15534 -16.05718,4.70592 -33.38811,6.61947 -49.99155,4.54469 C 116.56303,280.6622 99.986899,274.28443 85.212868,265.73611 69.87062,256.85902 55.961989,244.91579 44.878777,231.08287 34.814494,218.52167 26.404927,204.00109 22.155346,188.47644 17.651348,172.02235 18.060792,154.31052 19.883003,137.34872 21.703192,120.40574 24.925936,102.95883 32.948976,87.925256 40.908356,73.010966 52.812178,59.831453 66.466037,49.863508 79.821107,40.113692 95.945215,34.275833 111.9129,29.980506 c 16.19537,-4.356574 33.29963,-7.308578 49.99155,-5.680858 16.80855,1.639093 33.5618,7.069454 48.28729,15.338316 15.09753,8.477778 28.84409,20.206878 39.19792,34.085147 37.19434,49.855249 37.97246,121.634429 77.25967,169.857649 10.95669,13.44882 26.06451,23.91229 42.03835,30.67663 15.39419,6.51887 32.70784,8.26648 49.42346,8.52129 16.25348,0.24777 33.04632,-1.16461 48.28729,-6.81703 16.44952,-6.10064 31.63128,-16.27841 44.31069,-28.40429 11.3909,-10.89363 20.86465,-24.22777 27.26812,-38.62983 7.33489,-16.49691 11.54863,-34.78195 11.9298,-52.83198 0.35759,-16.93327 -2.8214,-34.257 -9.08937,-49.99155 C 534.79218,90.978155 525.45295,76.889788 514.11764,65.201825 501.90265,52.606811 486.98502,42.199464 470.94312,35.093278 456.20118,28.562943 439.90996,24.725644 423.792,24.299648 c -17.67662,-0.467191 -35.7066,2.881549 -52.2639,9.089373 -12.64999,4.742856 -24.55374,12.046041 -34.65323,21.019174 -11.49691,10.214699 -20.55839,23.130211 -28.40429,36.35749 -23.88581,40.268735 -32.38875,88.335585 -55.6724,128.955475 -7.47749,13.04498 -15.282,26.5742 -26.70004,36.35749 z"
     id="theMotionPath2" />

	<path
     style="fill:none;stroke-width:1px;stroke-linecap:butt;stroke-linejoin:miter;stroke-opacity:1"
     d="m 182.35554,278.80208 c -16.24484,4.26963 -33.29601,5.24801 -49.99155,3.40852 C 115.27645,280.32792 98.404817,275.45317 83.508611,266.87228 68.660673,258.3192 56.042058,246.25406 45.446863,232.78713 35.165126,219.71861 26.597306,205.06855 22.155346,189.04453 17.566102,172.4892 17.510581,154.93186 19.883003,137.91681 c 2.335468,-16.75001 7.02647,-33.25228 14.77023,-48.287296 7.885075,-15.309386 18.93267,-29.009748 32.38089,-39.766006 12.853495,-10.28058 27.859476,-17.839235 43.742607,-22.155345 16.40216,-4.457151 33.68678,-5.458866 50.55963,-3.408515 17.11568,2.07986 33.90491,7.318276 48.85538,15.906402 14.87106,8.542511 27.8073,20.338542 38.06175,34.085147 18.76034,25.149161 28.148,55.847283 37.89148,85.671683 9.74348,29.82441 20.66382,60.28533 41.64053,83.61788 11.32967,12.60207 25.37433,22.75375 40.90218,29.54046 15.69751,6.86086 32.86025,10.27011 49.99155,10.22555 15.86668,-0.0413 31.69872,-3.02486 46.58303,-8.52129 16.27585,-6.0103 31.45697,-15.04633 44.31069,-26.70003 12.55677,-11.38447 22.89508,-25.30995 29.54046,-40.90218 6.62427,-15.5427 9.50898,-32.52866 9.65746,-49.42346 0.14943,-17.00227 -2.45884,-34.10614 -8.52129,-49.99155 C 534.14363,91.808868 524.59668,77.217465 512.98147,64.633739 501.5954,52.298256 488.05857,41.749255 472.64738,35.093278 456.96635,28.32076 439.73432,25.730163 422.65583,25.43582 c -16.56544,-0.285501 -33.33855,1.577942 -48.85538,7.385115 -14.00179,5.240167 -26.69151,13.584461 -38.06175,23.291517 -11.25453,9.608265 -21.34172,20.629734 -29.54046,32.948976 -26.2339,39.418452 -31.60467,89.192202 -53.40006,131.227812 -6.88989,13.28817 -15.50581,25.85285 -26.70004,35.78941 -12.40167,11.00834 -27.70463,18.50817 -43.7426,22.72343 z"
     id="theMotionPath3" />


	<path
     style="fill:none;stroke-width:1px;stroke-linecap:butt;stroke-linejoin:miter;stroke-opacity:1"
     d="M 131.7959,281.64251 C 114.66801,279.61998 97.846849,274.41117 82.940525,265.73611 68.594144,257.38692 56.167289,245.91944 46.014949,232.78713 35.907551,219.71295 27.972292,204.89331 23.291517,189.04453 c -4.98455,-16.87735 -6.229674,-34.8107 -3.9766,-52.2639 2.105959,-16.31358 7.265728,-32.2512 15.338316,-46.583031 8.421518,-14.951312 19.976581,-28.088528 33.517061,-38.629833 13.233997,-10.302707 28.35029,-18.138858 44.310696,-23.291518 15.72118,-5.075428 32.44263,-7.561672 48.85537,-5.680857 17.57734,2.014273 34.31506,8.97244 49.42347,18.178745 14.63511,8.917894 28.01382,20.062863 38.62983,33.517061 19.42513,24.618435 28.67842,55.504923 37.89662,85.478713 9.21819,29.97379 19.31193,60.75159 39.93113,84.37894 11.49923,13.17686 26.00956,23.68094 42.03835,30.67663 15.52968,6.77785 32.4792,10.2728 49.42347,10.22554 17.53628,-0.0489 35.01172,-3.88002 51.12772,-10.79363 14.40863,-6.18116 27.77026,-14.82963 39.19792,-25.56386 12.64153,-11.87444 22.87678,-26.27407 30.10854,-42.03834 7.2606,-15.82713 11.5132,-33.14725 11.36172,-50.55964 C 550.32599,138.95247 545.94363,122.06311 539.6815,106.104 533.59394,90.589791 525.57669,75.598777 514.11764,63.497567 502.1265,50.834446 486.80041,41.783866 470.94312,34.525192 456.7356,28.021704 441.67199,22.768972 426.06434,22.027305 c -19.46778,-0.925099 -38.65635,5.228799 -56.24049,13.634059 -11.69129,5.588461 -22.93391,12.228229 -32.94898,20.451088 -11.8775,9.752003 -21.91526,21.65144 -30.10854,34.653233 -24.8893,39.496445 -32.24355,87.633715 -53.96815,128.955475 -7.08973,13.48518 -15.80949,26.31687 -27.26812,36.35749 -12.27509,10.75604 -27.39196,17.99828 -43.17452,22.15534 -16.43051,4.32773 -33.68597,5.40104 -50.55964,3.40852 z"
     id="theMotionPath4" />

	<path
     style="fill:none;stroke-width:1px;stroke-linecap:butt;stroke-linejoin:miter;stroke-opacity:1"
     d="M 84.076697,266.30419 C 68.976456,258.04461 54.94657,247.45533 44.310691,233.9233 33.722254,220.45163 26.765835,204.41121 22.155346,187.90835 17.621002,171.67804 15.257382,154.67379 17.042574,137.91681 18.902446,120.45884 25.23918,103.65872 34.085147,88.493342 42.526655,74.02136 53.340534,60.844014 66.466037,50.431594 c 13.498981,-10.7087 29.33894,-18.386455 46.014953,-22.723431 15.88816,-4.132078 32.54259,-5.252752 48.85537,-3.408515 16.89321,1.909858 33.46239,7.016656 48.2873,15.338316 14.84959,8.335513 27.87799,19.868538 38.06174,33.517062 18.87694,25.299356 27.39821,56.589944 36.44665,86.831014 9.04844,30.24106 19.62626,61.29093 41.38111,84.16281 12.031,12.64875 27.06595,22.24558 43.17452,28.97237 15.30369,6.39067 31.71112,10.26978 48.28729,10.79363 16.82285,0.53164 33.74009,-2.41204 49.42346,-8.52128 15.81324,-6.15983 30.35541,-15.52444 42.60644,-27.26812 12.44107,-11.92585 22.52017,-26.29918 29.54046,-42.03835 7.08401,-15.88202 11.05359,-33.17209 11.36171,-50.55964 0.30199,-17.04148 -2.91024,-34.1069 -9.08937,-49.99154 C 534.66142,89.710073 525.51596,74.977798 513.54955,62.929482 501.333,50.629309 486.34327,41.274554 470.37503,34.525192 c -15.2885,-6.462056 -31.69009,-10.621955 -48.28729,-10.79363 -16.93501,-0.175169 -33.751,3.806887 -49.42346,10.225544 -13.24028,5.42256 -25.78791,12.606079 -36.92558,21.58726 -12.5964,10.15747 -23.33017,22.577489 -31.8128,36.357491 -24.29353,39.464733 -29.34741,88.049983 -51.12772,128.955473 -7.20969,13.54048 -16.36355,26.28442 -28.40429,35.7894 -12.24661,9.6675 -27.02428,15.6383 -42.03835,19.88301 -16.23305,4.58934 -33.20123,7.31148 -49.99155,5.68086 -16.98295,-1.64933 -33.317522,-7.7182 -48.287293,-15.90641 z"
     id="theMotionPath5" />


	<path
     style="fill:none;stroke-width:1px;stroke-linecap:butt;stroke-linejoin:miter;stroke-opacity:1"
     d="M 44.878777,232.78713 C 34.091417,219.02933 27.314461,202.50512 22.723431,185.63601 18.448718,169.92917 15.954462,153.5424 17.610659,137.34872 19.335852,120.48043 25.538731,104.27446 34.085147,89.629514 42.800527,74.695036 54.042905,61.162006 67.602209,50.431594 80.977799,39.846568 96.555498,32.056873 113.04907,27.708163 c 15.69009,-4.136863 32.15602,-5.162018 48.28729,-3.408515 16.66436,1.811451 33.07508,6.613541 47.71921,14.77023 15.46746,8.615276 28.79719,20.893368 39.19792,35.221319 18.31631,25.232398 27.22599,55.862863 36.6461,85.585293 9.42011,29.72243 20.18545,60.08579 41.18165,83.13619 11.51232,12.63865 25.82203,22.65556 41.47026,29.54046 15.71347,6.9136 32.82468,10.69638 49.99155,10.79363 17.07349,0.0967 34.09076,-3.43827 49.99155,-9.65746 15.46252,-6.04777 30.00347,-14.694 42.03835,-26.13195 12.65729,-12.0295 22.37685,-27.00619 28.97238,-43.17452 6.17642,-15.14091 9.66303,-31.37665 10.22554,-47.7192 0.59222,-17.20568 -2.08301,-34.59296 -8.52129,-50.55964 C 533.92685,90.42389 524.07209,76.309725 512.41338,64.065653 500.55729,51.614293 486.66159,40.923667 470.94312,33.957106 455.28474,27.017176 438.07816,23.89684 420.95157,23.731562 c -17.05015,-0.16454 -34.22622,2.59405 -49.99155,9.089373 -13.12582,5.407844 -25.13548,13.341232 -35.78941,22.723431 -11.22948,9.88905 -21.00979,21.416608 -28.97237,34.085148 -25.05286,39.859326 -31.14544,88.873306 -52.83198,130.659726 -6.89593,13.28732 -15.46015,25.90144 -26.70003,35.78941 -12.70699,11.17862 -28.48393,18.52367 -44.87878,22.72343 -16.27711,4.1696 -33.37602,5.34122 -49.99155,2.84043 -17.21304,-2.59072 -33.688737,-9.06819 -48.855375,-17.61066 -14.39506,-8.10788 -27.867552,-18.24342 -38.061748,-31.24472 z"
     id="theMotionPath6" />

	<path
     style="fill:none;stroke-width:1px;stroke-linecap:butt;stroke-linejoin:miter;stroke-opacity:1"
     d="M 22.155346,189.04453 C 17.113055,172.571 15.854267,154.98722 18.178745,137.91681 20.510336,120.79416 26.40183,104.24483 34.653233,89.061428 42.87101,73.939898 53.552405,59.992889 67.034123,49.295423 79.997036,39.009618 95.338914,31.908898 111.34481,27.708163 c 15.88548,-4.169132 32.50592,-5.533961 48.85538,-3.976601 17.05651,1.62471 33.87132,6.461057 48.85538,14.770231 15.95832,8.849435 29.66856,21.551178 40.33409,36.35749 18.08845,25.111095 27.15205,55.402257 36.64207,84.858987 9.49003,29.45672 20.16515,59.50012 40.6176,82.72632 11.66556,13.24764 26.31054,23.89213 42.60643,30.67663 15.41616,6.41824 32.15927,9.35498 48.85538,9.65746 16.78334,0.30406 33.70947,-2.05034 49.42346,-7.9532 15.50395,-5.82396 29.67926,-15.06976 41.47027,-26.70003 12.4187,-12.24941 22.18561,-27.10554 28.97237,-43.17452 6.52645,-15.45267 10.32912,-32.08744 10.79363,-48.85538 0.466,-16.82162 -2.44076,-33.73235 -8.52129,-49.42346 C 534.30955,91.343562 525.35413,77.201362 514.11764,65.201825 501.97047,52.229772 487.1697,41.772667 470.94312,34.525192 455.40731,27.586244 438.5296,23.578107 421.51965,23.163476 404.83769,22.75684 388.06258,25.822814 372.66428,32.252849 359.1803,37.8835 346.83145,46.03264 335.7387,55.544366 c -11.54727,9.901466 -21.8135,21.334833 -30.10855,34.085148 -25.4509,39.120546 -31.00869,87.973806 -52.26389,129.523556 -6.82104,13.33379 -15.36876,25.99558 -26.70003,35.78941 -12.92075,11.16765 -28.98252,18.1861 -45.44686,22.72343 -16.23778,4.47489 -33.22194,6.68449 -49.99155,5.11277 -17.01416,-1.59464 -33.63738,-7.10842 -48.287295,-15.9064 C 67.565452,257.63881 54.459356,244.89537 43.742606,230.51479 34.384325,217.95711 26.739079,204.01992 22.155346,189.04453 Z"
     id="theMotionPath7" />

	<path
     style="fill:none;stroke-width:1px;stroke-linecap:butt;stroke-linejoin:miter;stroke-opacity:1"
     d="M 18.178745,138.48489 C 19.962438,121.1428 25.409057,104.18277 34.085147,89.061428 42.61907,74.187864 54.219511,61.153261 67.602209,50.431594 80.71678,39.924739 95.695934,31.544165 111.9129,27.140077 c 16.2134,-4.403119 33.37481,-4.751354 49.99155,-2.272343 16.66975,2.486918 32.93753,7.80905 47.71921,15.906402 15.30878,8.386098 29.01166,19.768258 39.766,33.517061 19.16547,24.501938 28.22683,55.172353 37.2787,84.933463 9.05187,29.76112 18.9939,60.32048 39.41288,83.78802 11.48069,13.19476 26.00447,23.68932 42.03835,30.67663 15.70642,6.84461 32.8589,10.33676 49.99155,10.22554 16.69196,-0.10836 33.29555,-3.61386 48.85538,-9.65746 15.37417,-5.97149 29.83762,-14.46585 42.03835,-25.56386 12.96503,-11.79324 23.27152,-26.46866 30.10854,-42.60643 6.60372,-15.58711 9.97521,-32.49702 10.22555,-49.42346 0.25487,-17.23221 -2.72594,-34.54338 -9.08938,-50.55964 C 534.04337,90.48347 524.64713,76.166499 512.98147,64.065653 501.202,51.84675 487.07743,41.857149 471.5112,35.093278 455.60604,28.182136 438.28934,24.673429 420.95157,24.299648 c -16.6448,-0.358842 -33.45922,2.185959 -48.85538,8.521287 -13.37039,5.501748 -25.47945,13.76761 -36.35749,23.291517 -11.0372,9.663255 -20.91333,20.691319 -28.97237,32.948976 -25.9901,39.530482 -31.7178,89.217442 -54.53624,130.659732 -7.06652,12.83404 -15.80531,24.85766 -26.70003,34.65323 -12.45933,11.20234 -27.61454,19.31946 -43.74261,23.8596 -16.36904,4.60798 -33.69051,5.55603 -50.55963,3.40852 -16.91986,-2.15397 -33.485943,-7.43048 -48.287295,-15.9064 C 68.40819,257.41424 55.664548,246.05518 45.446863,232.78713 35.15588,219.4239 27.404727,204.11223 22.723431,187.90835 18.103363,171.9164 16.475638,155.04348 18.178745,138.48489 Z"
     id="theMotionPath8" />

	<path
     style="fill:none;stroke-width:1px;stroke-linecap:butt;stroke-linejoin:miter;stroke-opacity:1"
     d="M 34.545969,89.032532 C 43.083772,74.330422 54.223612,61.108095 67.485148,50.46959 80.278864,40.206374 95.064438,32.361526 110.86846,27.97454 c 16.13766,-4.479601 33.19582,-5.321798 49.81046,-3.213578 16.81303,2.133394 33.25418,7.280653 48.20368,15.264498 17.53352,9.363849 33.00267,22.672164 44.5174,38.87454 16.8868,23.76141 24.73207,52.57345 32.77265,80.59339 8.04059,28.01995 16.99855,56.70212 35.52735,79.20661 10.91929,13.26222 24.88546,23.9165 40.3,31.5 15.15628,7.45644 31.75254,11.98567 48.6,13.2 16.60827,1.19709 33.43974,-0.82851 49.3,-5.9 21.04178,-6.72834 40.39797,-18.91129 55.1,-35.4 9.41189,-10.55568 16.87912,-22.78197 22.471,-35.77185 6.66588,-15.48477 10.7011,-32.15734 11.24753,-49.00707 0.56977,-17.56942 -2.68694,-35.27248 -9.64074,-51.41726 C 532.48735,90.602671 522.64873,76.801198 510.95898,64.930693 499.22434,53.014604 485.59602,42.980334 470.78925,35.205092 455.62832,27.243876 438.90622,21.592907 421.78218,21.547383 c -17.28634,-0.04595 -34.1219,5.595645 -49.81047,12.854314 -12.784,5.914804 -25.09124,12.970515 -36.15276,21.691655 -11.50689,9.072277 -21.61802,19.929975 -29.7256,32.135785 -13.03885,19.629733 -20.67201,42.284223 -27.62911,64.799483 -6.95709,22.51526 -13.45957,45.38325 -24.59154,66.15384 -7.25247,13.53203 -16.49776,26.11955 -28.11881,36.15276 -12.43918,10.73956 -27.4708,18.38857 -43.38331,22.49505 -16.71863,4.31451 -34.30958,4.74577 -51.41726,2.41018 -16.78826,-2.29198 -33.271517,-7.25642 -48.203674,-15.2645 C 67.900813,257.01255 54.651409,246.04598 44.186704,232.84017 33.856146,219.80364 26.275868,204.64273 21.691655,188.65347 16.919991,172.0104 15.38094,154.39719 17.674682,137.23621 19.944618,120.25333 25.941603,103.84926 34.545969,89.032532 Z"
     id="theMotionPath9" />

	<path
     style="fill:none;stroke-width:1px;stroke-linecap:butt;stroke-linejoin:miter;stroke-opacity:1"
     d="M 67.485148,49.666195 C 82.819052,38.141366 100.91803,30.497165 119.7,26.6 c 16.28744,-3.379562 33.20026,-3.983995 49.6,-1.2 16.67217,2.830242 32.71187,9.154518 47,18.2 14.51792,9.19096 27.2629,21.211874 37.1,35.3 16.6866,23.89759 24.50599,52.67809 32.59957,80.67865 8.09358,28.00056 17.16131,56.6305 35.70043,79.12135 10.927,13.25615 24.87814,23.93091 40.3,31.5 15.16077,7.44095 31.76067,11.91407 48.6,13.2 16.61401,1.26873 33.51187,-0.57365 49.3,-5.9 17.87391,-6.03001 34.12165,-16.4533 47.8454,-29.39533 14.95993,-14.1078 27.09672,-31.39105 34.1546,-50.70467 4.87011,-13.32686 7.29271,-27.50069 7.62192,-41.68571 0.39251,-16.91279 -2.1958,-33.93241 -8.03394,-49.81047 C 535.41574,89.389087 525.81527,74.155084 513.36917,61.717115 501.51961,49.875291 487.1501,40.615097 471.59264,34.401697 c -16.04448,-6.407905 -33.33718,-9.589181 -50.61386,-9.640735 -16.36591,-0.04884 -32.73187,2.698328 -48.20367,8.033946 -14.03195,4.83907 -27.43119,11.873497 -38.56295,21.691655 -11.3884,10.044517 -20.15345,22.762678 -27.31541,36.152758 -21.72614,40.619409 -29.38934,87.731089 -52.22065,127.739749 -7.68751,13.47128 -17.12107,26.08765 -28.92221,36.15275 -12.49761,10.65911 -27.50723,18.28113 -43.38331,22.49505 -16.69318,4.4308 -34.25177,5.12148 -51.41726,3.21358 -16.78291,-1.86538 -33.44299,-6.25939 -48.203674,-14.4611 C 67.888396,257.52176 55.274389,245.57479 44.990099,232.03678 34.417821,218.11966 26.148153,202.33956 21.691655,185.43989 17.6996,170.30146 16.80584,154.40938 18.478076,138.843 20.344698,121.46713 25.420084,104.39942 33.742574,89.032532 42.036887,73.717673 53.56245,60.130374 67.485148,49.666195 Z"
     id="theMotionPath10" />

	<path
     style="fill:none;stroke-width:1px;stroke-linecap:butt;stroke-linejoin:miter;stroke-opacity:1"
     d="M 110.86846,27.97454 C 129.78006,22.570282 149.95287,21.858374 169.3,25.4 c 16.62535,3.043384 32.68662,9.211591 47,18.2 14.5539,9.139448 27.28249,21.194613 37.1,35.3 16.65046,23.92269 24.45627,52.70186 32.55495,80.70087 8.09869,27.99901 17.18837,56.62286 35.74505,79.09913 10.93647,13.24649 24.8913,23.90739 40.3,31.5 15.15247,7.46635 31.75022,12.0047 48.6,13.2 16.607,1.17808 33.42284,-0.89039 49.3,-5.9 18.46392,-5.82579 35.75318,-15.71346 49.45219,-29.39533 12.10457,-12.08942 21.23438,-26.91852 28.11881,-42.57992 6.70431,-15.25165 11.39117,-31.55659 12.05092,-48.20367 0.70899,-17.88944 -3.27738,-35.81418 -10.44413,-52.22066 C 532.62431,90.326803 523.59651,76.687816 512.56577,64.930693 500.5355,52.108222 486.07151,41.500653 469.98586,34.401697 c -14.65393,-6.467106 -30.58585,-9.988341 -46.59689,-10.44413 -17.56834,-0.500121 -35.26815,2.705099 -51.41726,9.640736 -12.88228,5.532619 -24.69817,13.378287 -35.34936,22.495049 -11.42821,9.781842 -21.59465,21.086508 -29.7256,33.742575 -12.62672,19.653873 -20.10538,42.099823 -27.21204,64.353013 -7.10665,22.25319 -14.0629,44.80275 -25.81201,64.99352 -7.69126,13.21738 -17.39964,25.29526 -28.92221,35.34936 -12.37867,10.8011 -26.88462,19.24869 -42.57991,24.10184 -16.55934,5.12032 -34.34011,6.18017 -51.41726,3.21358 -16.45061,-2.85775 -32.112174,-9.3691 -46.596884,-17.67468 C 69.249378,255.51013 55.172278,244.74553 44.186704,231.23338 34.223211,218.97838 26.949898,204.60976 22.495049,189.45686 17.609601,172.8393 16.093527,155.19549 18.478076,138.0396 20.835458,121.07916 26.958131,104.76245 35.349363,89.835927 42.305531,77.462129 50.868144,65.934059 61.2,56.2 75.19268,43.016932 92.383712,33.256819 110.86846,27.97454 Z"
     id="theMotionPath11" />

	<path
     style="fill:none;stroke-width:1px;stroke-linecap:butt;stroke-linejoin:miter;stroke-opacity:1"
     d="m 160.20019,23.731562 c 17.54052,2.058023 34.60629,7.802761 49.99155,16.474488 14.84109,8.365009 28.18038,19.493854 38.62983,32.948976 18.61833,23.973704 27.28931,53.968694 35.80012,83.105384 8.51081,29.13669 17.70582,59.07108 37.07831,82.43959 12.3458,14.8924 28.51361,26.53344 46.41959,33.85314 15.99999,6.54056 33.28394,9.65215 50.55964,10.22554 16.39404,0.54412 33.08438,-1.22622 48.28729,-7.38511 15.72696,-6.37119 29.27122,-17.17777 41.47026,-28.97238 12.51718,-12.1022 24.02479,-25.62678 31.24472,-41.47026 7.01548,-15.39483 9.73486,-32.50567 9.65746,-49.42347 -0.0779,-17.03089 -2.95082,-34.10521 -9.08938,-49.99154 -6.02192,-15.584448 -15.1717,-29.94554 -26.70003,-42.038353 -11.71391,-12.287475 -25.8883,-22.234412 -41.47026,-28.972375 -15.91573,-6.882293 -33.22418,-10.395816 -50.55964,-10.79363 -16.64727,-0.382021 -33.48008,2.12771 -48.85537,8.521287 -13.69734,5.695825 -26.02075,14.370646 -36.92558,24.427689 -10.40075,9.592152 -19.59991,20.490409 -27.26812,32.38089 -25.6302,39.742692 -33.13711,88.487862 -54.53623,130.659732 -6.96926,13.73452 -15.56321,26.91545 -27.26812,36.92557 -12.45875,10.65481 -27.92911,17.26536 -43.74261,21.58726 -17.34728,4.74109 -35.57172,6.90188 -53.40006,4.54469 C 112.6678,280.55008 96.482314,274.31753 81.804353,265.73611 67.223471,257.21145 53.934168,246.25576 43.742606,232.78713 33.600202,219.38346 26.677367,203.67713 22.723431,187.34027 18.821063,171.21648 17.763644,154.43343 19.314917,137.91681 20.855551,121.51346 25.022276,105.20905 32.948976,90.765685 41.591703,75.017631 54.461561,61.90245 68.73838,50.99968 81.937929,40.919588 96.583454,32.514897 112.48099,27.708163 c 15.38623,-4.652137 31.75456,-5.849728 47.7192,-3.976601 z"
     id="theMotionPath12" />


	<path
     style="fill:none;stroke-width:1px;stroke-linecap:butt;stroke-linejoin:miter;stroke-opacity:1"
     d="m 209.62366,40.20605 c 14.87036,8.582459 28.50013,19.519768 39.19791,32.948976 19.67678,24.700772 28.35121,56.116404 37.19887,86.431794 8.84766,30.31538 18.96929,61.58019 40.62889,84.56203 11.68446,12.39775 26.32086,21.83226 42.03835,28.40429 15.64579,6.54205 32.47155,10.32243 49.42346,10.79363 16.45876,0.45749 33.07036,-2.23279 48.28729,-8.52129 15.71834,-6.49572 29.70139,-16.69703 42.03835,-28.40429 12.43572,-11.80098 23.43618,-25.36236 30.67663,-40.90218 7.16594,-15.37989 10.49235,-32.45819 10.22555,-49.42346 -0.26513,-16.85862 -4.01645,-33.53439 -9.65746,-49.42346 C 533.98412,90.624224 526.14616,74.9839 514.11764,62.929482 501.5525,50.337286 485.15155,42.356881 468.67077,35.661364 453.39365,29.454849 437.43745,24.087957 420.95157,23.731562 c -17.21096,-0.37207 -34.09795,4.747408 -49.99155,11.361716 -12.73287,5.298935 -25.16255,11.660493 -35.78941,20.451088 -11.68586,9.666603 -20.90008,22.042187 -28.40428,35.221319 -23.14292,40.644415 -30.49576,88.744195 -53.40007,129.523555 -7.03996,12.53411 -15.56514,24.33798 -26.13195,34.08515 -12.83237,11.837 -28.58614,20.46801 -45.44686,24.99578 -15.854,4.25743 -32.56959,4.90155 -48.85538,2.84043 -17.52396,-2.21782 -34.725509,-7.58877 -49.991545,-16.47449 -14.813543,-8.62234 -27.654979,-20.46586 -38.061748,-34.08515 -9.87785,-12.92709 -17.637711,-27.5453 -22.155346,-43.17452 -4.724526,-16.34499 -5.856056,-33.64965 -3.9766,-50.55963 1.870798,-16.83208 6.732958,-33.38021 14.77023,-48.287296 C 41.737357,74.382971 53.258547,60.932253 67.034123,50.431594 80.23875,40.36615 95.438437,33.036774 111.34481,28.276248 c 15.97606,-4.781381 32.85493,-7.004708 49.42347,-5.112772 17.25715,1.970567 33.81184,8.360165 48.85538,17.042574 z"
     id="theMotionPath13" />

	<path
     style="fill:none;stroke-width:1px;stroke-linecap:butt;stroke-linejoin:miter;stroke-opacity:1"
     d="m 248.25349,73.155026 c 18.8234,25.183894 27.83805,56.130114 37.14508,86.162224 9.30704,30.03212 19.77345,60.7826 40.68267,84.26351 11.38351,12.7836 25.64554,23.01488 41.47026,29.54046 15.78052,6.50735 32.92575,9.29835 49.99155,9.65746 17.16646,0.36123 34.55181,-1.74297 50.55964,-7.9532 14.88692,-5.77538 28.30884,-15.0095 39.766,-26.13195 12.66871,-12.2986 23.05013,-26.99025 30.10855,-43.17452 7.01142,-16.0765 10.71646,-33.58896 10.79363,-51.12772 0.0725,-16.47704 -3.05088,-32.95645 -9.08937,-48.28729 -6.27353,-15.927565 -15.67094,-30.582861 -27.26812,-43.174518 -11.5953,-12.589614 -25.56022,-23.230145 -41.47026,-29.540461 -15.97263,-6.335142 -33.3807,-8.142829 -50.55964,-8.521287 -16.13885,-0.355544 -32.61302,0.557526 -47.7192,6.248943 -13.64939,5.142557 -25.61989,13.987642 -36.35749,23.859603 -11.70732,10.7635 -22.19696,22.90352 -30.67664,36.357491 -24.55618,38.961159 -31.08928,86.632539 -51.6958,127.819299 -6.89364,13.77848 -15.51313,26.96621 -27.26812,36.92558 -12.90972,10.9377 -29.0308,17.48763 -45.44686,21.58726 -16.30601,4.07215 -33.29389,5.88876 -49.99155,3.9766 -16.59786,-1.90073 -32.719668,-7.49005 -47.151123,-15.9064 C 69.037796,256.9655 55.847884,245.17024 44.878777,231.65096 34.502901,218.86283 25.99979,204.34227 21.58726,188.47644 17.034823,172.10756 16.952564,154.74192 19.314917,137.91681 21.641425,121.347 26.342162,105.03059 34.085147,90.197599 42.360351,74.345056 54.084378,60.312187 68.170294,49.295423 c 12.622941,-9.872554 27.15543,-17.336096 42.606436,-21.58726 16.38732,-4.508781 33.67824,-5.381409 50.55963,-3.408515 17.48713,2.043686 34.70737,7.1674 49.99155,15.906402 14.42125,8.245607 26.98014,19.642935 36.92558,32.948976 z"
     id="theMotionPath14" />


    <!--<path-->
    <!--style="fill:none;stroke:#000000;stroke-width:1px;stroke-linecap:butt;stroke-linejoin:miter;stroke-opacity:1"-->
    <!--d="m 112.07355,29.179632 c 50.21216,-5.222065 99.62093,9.239038 99.62093,9.239038 l 37.35785,33.340877 19.28147,66.681753 -14.0594,81.14286 -26.51202,36.15276 -44.9901,20.88826 -51.41726,4.01697 L 84.758133,266.18105 45.391796,233.64356 22.49505,186.64498 17.272984,137.23621 32.537482,89.434229 67.886846,48.862801 Z"-->
    <!--id="theMotionPath" />-->


    <!--<path fill="#F7941E" d="M30,98c-4.4-2.4-6-8.1-3.6-12.5c2.5-4.4,8.1-6,12.5-3.6c4.4,2.5,6,8.2,3.5,12.6C40,98.9,34.4,100.5,30,98"/>-->


    <!--<path fill="#EE2A7B" d="M215.7,263.6c-4.7-6-3.6-14.6,2.4-19.3c6-4.7,14.6-3.6,19.3,2.4c4.7,6,3.6,14.6-2.4,19.2-->
    <!--C229,270.6,220.3,269.4,215.7,263.6"/>-->

    <!--<circle cx="50%" cy="50%" r="5" fill="red">-->

    <!--</circle>-->

    <!--<path fill="#FBB040" d="M61.2,56.2c-2.9-3.7-2.2-9.1,1.5-12c3.7-2.7,9-2.1,11.9,1.6c2.9,3.6,2.2,8.9-1.5,11.9-->
    <!--C69.4,60.6,64.1,59.9,61.2,56.2"/>-->


    <!--<path fill="#FFE100" d="M216.3,43.6c-1.8,3.3-6,4.4-9.3,2.6c-3.3-1.8-4.5-5.9-2.6-9.4c1.8-3.2,6-4.4,9.3-2.6-->
    <!--C217,36.2,218.2,40.3,216.3,43.6"/>-->


    <!--<path fill="#6DC8BF" d="M94.3,271.5c-3.1,5.6-10.2,7.6-15.8,4.5c-5.6-3.2-7.6-10.2-4.5-15.8c3.1-5.6,10.3-7.6,15.8-4.4-->

    <!--C95.4,258.9,97.4,265.9,94.3,271.5"/>-->

    <!--<path fill="#FFE100" d="M253.4,78.9c-3,2.3-7.3,1.8-9.6-1.2c-2.3-3-1.8-7.3,1.2-9.6c3-2.3,7.3-1.8,9.6,1.2-->
    <!--C256.8,72.3,256.3,76.6,253.4,78.9"/>-->

    <!--<path fill="#2BB673" d="M52.2,241.4c-4.9,3.8-11.9,2.9-15.6-2c-3.8-4.8-3-11.8,1.9-15.7c4.9-3.8,11.9-2.9,15.7,2-->
    <!--C58,230.6,57.1,237.6,52.2,241.4"/>-->

    <!--<path fill="#009444" d="M25.7,198.4c-5.6,1.6-11.4-1.7-13-7.3c-1.6-5.7,1.7-11.4,7.4-13.1c5.5-1.6,11.4,1.7,13,7.3-->
    <!--C34.6,190.9,31.4,196.8,25.7,198.4"/>-->

    <!--<path fill="#2BB673" d="M17.7,147.4c-5.2-0.5-8.9-5.3-8.3-10.5c0.6-5.2,5.4-8.9,10.6-8.3c5.1,0.7,8.9,5.3,8.3,10.5-->
    <!--C27.7,144.3,22.9,148,17.7,147.4"/>-->

    <!--<path fill="#FFC907" d="M119.7,26.6c1.1,4.1-1.3,8.4-5.4,9.6c-4.2,1.2-8.5-1.2-9.6-5.4c-1.2-4.1,1.2-8.5,5.4-9.7-->
    <!--C114.1,20,118.5,22.4,119.7,26.6"/>-->

    <!--<path fill="#8A5BA6" d="M194.9,273.9c1.9,6.9-2.1,14.1-8.9,16c-6.9,2-14.1-2.1-16-8.9c-1.9-6.9,2.1-14.1,9-16-->
    <!--C185.8,263,193,267,194.9,273.9"/>-->

    <!--<path fill="#FFE100" d="M169.3,25.4c-0.5,4.1-4.1,7-8.1,6.5c-4.1-0.4-7-4.1-6.5-8.2c0.4-4,4.1-6.9,8.1-6.5-->
    <!--C166.8,17.8,169.7,21.5,169.3,25.4"/>-->

    <!--<path fill="#00ADDC" d="M144.1,282.8c-0.8,6.4-6.5,10.9-12.9,10.2c-6.4-0.7-11-6.5-10.2-12.9c0.7-6.3,6.4-10.9,12.9-10.2-->
    <!--C140.3,270.7,144.8,276.4,144.1,282.8"/>-->

    <!--<path fill="#EF4136" d="M316,76.6c7.7,5.1,9.8,15.4,4.7,23.1c-5.1,7.6-15.4,9.7-23.1,4.7c-7.6-5.1-9.8-15.5-4.7-23.1-->
    <!--C298,73.6,308.3,71.6,316,76.6"/>-->

    <!--<path fill="#EF4136" d="M262.7,206.2c7.6,5.1,9.8,15.5,4.7,23.2c-5.1,7.6-15.4,9.7-23.1,4.6c-7.7-5.1-9.8-15.4-4.7-23-->
    <!--C244.7,203.3,255,201.2,262.7,206.2"/>-->
    <!--<path fill="#F7941E" d="M541.9,197.4c4.7,2,6.9,7.5,4.9,12.1c-2,4.7-7.5,6.8-12.1,4.8c-4.7-2.1-6.8-7.4-4.8-12.1-->
    <!--C531.9,197.5,537.3,195.4,541.9,197.4"/>-->

    <!--<path fill="#EE2A7B" d="M346.1,46.7c5.2,5.5,5.1,14.2-0.4,19.5c-5.5,5.1-14.2,4.9-19.4-0.6c-5.2-5.5-5-14.2,0.4-19.3-->
    <!--C332.3,41.1,340.9,41.3,346.1,46.7"/>-->


    <!--<circle class="marker" cx="256" cy="218" r="16.7" fill="#EF4136">-->
	<circle cx="" cy="" r="16.7" fill="#EF4136">
		<animateMotion dur="1.9s" repeatCount="indefinite" >
		<mpath xlink:href="#theMotionPath1"/>
		</animateMotion>
	</circle>

    <!--<circle cx="39.9%" cy="80.2%" r="13.8" fill="#EE2A7B">-->
	<circle cx="" cy="" r="13.8" fill="#EE2A7B">
		<animateMotion dur="1.9s" repeatCount="indefinite" >
		<mpath xlink:href="#theMotionPath2"/>
		</animateMotion>
	</circle>

    <!--<circle cx="31.9%" cy="87.2%" r="13.8" fill="#8A5BA6">-->
	<circle cx="" cy="" r="13.8" fill="#8A5BA6">
		<animateMotion dur="1.9s" repeatCount="indefinite" >
		<mpath xlink:href="#theMotionPath3"/>
		</animateMotion>
	</circle>

    <!--<circle cx="23.3%" cy="88.5%" r="11.8" fill="#00ADDC">-->
	<circle cx="" cy="" r="11.8" fill="#00ADDC">
		<animateMotion dur="1.9s" repeatCount="indefinite" >
		<mpath xlink:href="#theMotionPath4"/>
		</animateMotion>
	</circle>

    <!--<circle cx="14.8%" cy="83.6%" r="11.3" fill="#6DC8BF">-->
	<circle cx="" cy="" r="11.3" fill="#6DC8BF">
		<animateMotion dur="1.9s" repeatCount="indefinite" >
		<mpath xlink:href="#theMotionPath5"/>
		</animateMotion>
	</circle>

    <!--<circle cx="8%" cy="73.2%" r="10.9" fill="#2BB673">-->
	<circle cx="" cy="" r="10.9" fill="#2BB673">
		<animateMotion dur="1.9s" repeatCount="indefinite" >
		<mpath xlink:href="#theMotionPath6"/>
		</animateMotion>
	</circle>

    <!--<circle cx="4%" cy="59.2%" r="10.6" fill="#009444">-->
	<circle cx="" cy="" r="10.6" fill="#009444">
		<animateMotion dur="1.9s" repeatCount="indefinite" >
		<mpath xlink:href="#theMotionPath7"/>
		</animateMotion>
	</circle>

    <!--<circle cx="3.3%" cy="43.4%" r="9.2" fill="#2BB673">-->
	<circle cx="" cy="" r="9.2" fill="#2BB673">
		<animateMotion dur="1.9s" repeatCount="indefinite" >
		<mpath xlink:href="#theMotionPath8"/>
		</animateMotion>
	</circle>

    <!--<circle cx="6.05%" cy="28.34%" r="8.9" fill="#F7941E">-->
	<circle cx="" cy="" r="8.9" fill="#F7941E">
		<animateMotion dur="1.9s" repeatCount="indefinite" >
		<mpath xlink:href="#theMotionPath9"/>
		</animateMotion>
	</circle>

    <!--<circle cx="11.98%" cy="16.1%" r="8.2" fill="#FBB040">-->
	<circle cx="" cy="" r="8.2" fill="#FBB040">
		<animateMotion dur="1.9s" repeatCount="indefinite" >
		<mpath xlink:href="#theMotionPath10"/>
		</animateMotion>
	</circle>

    <!--<circle cx="19.75%" cy="9.1%" r="7.5" fill="#FFC907">-->
	<circle cx="" cy="" r="7.5" fill="#FFC907">
		<animateMotion dur="1.9s" repeatCount="indefinite" >
		<mpath xlink:href="#theMotionPath11"/>
		</animateMotion>
	</circle>


    <!--<circle cx="28.53%" cy="7.8%" r="7" fill="#FFE100">-->
	<circle cx="" cy="" r="7" fill="#FFE100">
		<animateMotion dur="1.9s" repeatCount="indefinite" >
		<mpath xlink:href="#theMotionPath12"/>
		</animateMotion>
	</circle>


    <!--<circle cx="37%" cy="12.6%" r="6.6" fill="#FFE100">-->
	<circle cx="" cy="" r="6.6" fill="#FFE100">
		<animateMotion dur="1.9s" repeatCount="indefinite" >
		<mpath xlink:href="#theMotionPath13"/>
		</animateMotion>
	</circle>


    <!--<circle cx="43.9%" cy="23.2%" r="6.6" fill="#FFE100">-->
	<circle cx="" cy="" r="6.6" fill="#FFE100">
		<animateMotion dur="1.9s" repeatCount="indefinite" >
		<mpath xlink:href="#theMotionPath14"/>
		</animateMotion>
	</circle>


    <!--<path fill="#FBB040" d="M515,242.1c3.2,3.4,3.1,8.7-0.3,12c-3.4,3.3-8.7,3.1-12-0.2c-3.2-3.5-3.1-8.7,0.3-12-->
    <!--C506.5,238.5,511.8,238.7,515,242.1"/>-->
    <!--<path fill="#FFE100" d="M362,270.2c1.5-3.4,5.5-5,9-3.6c3.4,1.6,5,5.5,3.6,9c-1.6,3.4-5.5,5-9,3.5-->
    <!--C362.1,277.7,360.5,273.6,362,270.2"/>-->
    <!--<path fill="#6DC8BF" d="M460.6,31.2c2.5-5.9,9.4-8.6,15.3-6c5.9,2.5,8.6,9.4,6,15.3c-2.6,5.8-9.4,8.5-15.3,5.9-->
    <!--C460.8,43.9,458.1,37,460.6,31.2"/>-->
    <!--<path fill="#FFE100" d="M321.7,238.7c2.7-2.6,7-2.5,9.6,0.3c2.6,2.7,2.6,7-0.2,9.6c-2.7,2.6-7,2.5-9.6-0.2-->
    <!--C318.9,245.6,319,241.3,321.7,238.7"/>-->
    <!--<path fill="#2BB673" d="M505.5,57c4.5-4.3,11.5-4.1,15.8,0.4c4.3,4.4,4.1,11.5-0.4,15.8c-4.5,4.2-11.5,4.1-15.7-0.4-->
    <!--C500.9,68.3,501,61.2,505.5,57"/>-->
    <!--<path fill="#009444" d="M536.2,97.1c5.4-2,11.5,0.5,13.6,6c2.2,5.4-0.5,11.5-5.9,13.6c-5.4,2.2-11.6-0.5-13.7-5.9-->
    <!--C528.1,105.4,530.8,99.2,536.2,97.1"/>-->
    <!--<path fill="#2BB673" d="M549.2,147c5.2,0,9.3,4.4,9.3,9.6c-0.1,5.3-4.4,9.4-9.7,9.4c-5.2-0.1-9.4-4.4-9.3-9.7-->
    <!--C539.6,151.1,543.9,147,549.2,147"/>-->
    <!--<path fill="#FFC907" d="M459.9,277.5c-1.5-4.1,0.4-8.6,4.5-10.2c4-1.6,8.5,0.4,10.1,4.4c1.6,4.1-0.4,8.6-4.4,10.2-->
    <!--C466,283.5,461.5,281.5,459.9,277.5"/>-->
    <!--<path fill="#8A5BA6" d="M360.3,38.8c-2.7-6.6,0.6-14.2,7.3-16.8c6.7-2.7,14.2,0.6,16.8,7.3c2.6,6.7-0.6,14.2-7.3,16.8-->
    <!--C370.5,48.8,362.9,45.5,360.3,38.8"/>-->
    <!--<path fill="#FFE100" d="M410.6,283.4c0.1-4,3.4-7.3,7.5-7.2c4.1,0.1,7.4,3.4,7.2,7.4c0,4.1-3.3,7.3-7.5,7.3-->
    <!--C413.8,290.9,410.5,287.6,410.6,283.4"/>-->
    <!--<path fill="#00ADDC" d="M410,24.9c0-6.3,5.4-11.5,11.8-11.4c6.4,0.1,11.6,5.4,11.5,11.8c-0.1,6.4-5.3,11.5-11.7,11.5-->
    <!--C415,36.7,409.9,31.4,410,24.9"/>-->
<path fill="#ffffff" class="sogo-logo-text"
	  d="M195,154.4c4.7,1.4,8.1,3,10.3,4.7c2.2,1.8,3.6,3.5,4.4,5.3c0.8,1.8,1.1,3.7,1.1,5.7c0,2.1-0.4,4.2-1.2,6.1
	c-0.8,1.9-1.9,3.6-3.3,5c-1.4,1.4-3,2.5-4.9,3.4c-1.9,0.8-3.9,1.2-6,1.2c-2.7,0-5.2-0.6-7.5-1.8c-2.3-1.2-4.3-3-5.8-5.4
	c-1.1-1.8-2.8-2.7-4.9-2.7c-0.9,0-1.6,0.1-2.3,0.4c-0.7,0.3-1.3,0.7-1.9,1.2c-0.5,0.5-1,1.2-1.2,1.9c-0.3,0.7-0.4,1.5-0.4,2.3
	c0,1.4,0.4,2.6,1.2,3.6c1.3,2,2.8,3.7,4.6,5.3c1.8,1.6,3.6,2.8,5.7,3.9s4.1,1.8,6.3,2.4c2.2,0.5,4.4,0.8,6.6,0.8
	c6.5,0,12.4-2.2,17.5-6.5H213c6.4-5.4,9.6-12.4,9.6-21.1c0-3.5-0.7-6.8-2-9.9s-3.8-6.3-7.5-9.6c-3.7-3.3-8.8-5.8-15.3-7.7
	c-3.8-1.1-6.6-2.5-8.1-4.1c-1.6-1.6-2.4-3.9-2.4-6.7c0-1.6,0.3-3.1,1-4.4c0.6-1.4,1.5-2.6,2.5-3.6s2.2-1.8,3.6-2.4
	c1.3-0.6,2.7-0.9,4.1-0.9c1.8,0,3.4,0.3,5,1c1.5,0.6,2.7,1.6,3.6,2.9c0.5,0.7,0.9,1.3,1.4,1.9c0.4,0.5,0.9,1,1.3,1.4
	c0.5,0.4,1,0.7,1.6,0.9c0.6,0.2,1.2,0.3,2,0.3c0.8,0,1.6-0.1,2.3-0.4c0.7-0.3,1.4-0.7,1.9-1.2c0.5-0.5,1-1.2,1.2-1.9
	s0.4-1.5,0.4-2.3c0-1.1-0.3-2.2-0.8-3.2c-1.2-1.9-2.5-3.5-4-4.9c-1.5-1.4-3.1-2.6-4.8-3.5c-1.7-0.9-3.5-1.6-5.4-2.1
	c-1.9-0.5-3.7-0.7-5.6-0.7c-5.7,0-10.7,1.9-15,5.6h0.1c-2.7,2.3-4.7,4.9-6,7.9c-1.4,2.9-2.1,6.2-2.1,9.9c0,3,0.5,5.8,1.6,8.4
	c1.1,2.6,3,5.2,5.7,7.7C185.6,150.8,189.7,152.8,195,154.4"/>
<path fill="#ffffff" class="sogo-logo-text"
	  d="M317.5,136.2c-2.2-5.2-5.4-10-9.8-14.3c-8.7-8.7-19.1-13-31.4-13c-12.2,0-22.7,4.3-31.4,13
	c-8.7,8.7-13,19.1-13,31.4c0,12.3,4.3,22.8,13,31.4c8.7,8.7,19.1,13,31.4,13c12.2,0,22.7-4.3,31.4-13c8.7-8.7,13-19.2,13-31.4
	C320.8,147.1,319.7,141.4,317.5,136.2"/>
<path fill="#ED1C24" d="M299.4,130.2c6.4,6.4,9.5,14,9.5,23c0,9-3.2,16.7-9.5,23.1c-6.4,6.4-14.1,9.5-23.1,9.5
	c-9,0-16.7-3.2-23.1-9.5c-6.4-6.4-9.5-14.1-9.5-23.1c0-4.6,0.8-8.8,2.4-12.5c1.6-3.8,4-7.3,7.2-10.5c3.2-3.2,6.7-5.6,10.5-7.2
	c3.8-1.6,8-2.4,12.6-2.4C285.3,120.6,293,123.8,299.4,130.2"/>
<path fill="#ffffff" class="sogo-logo-text"
	  d="M406.7,157.5c0-0.8-0.2-1.5-0.5-2.2c-0.3-0.7-0.7-1.4-1.3-1.9c-0.5-0.5-1.2-1-1.9-1.3
	c-0.7-0.3-1.4-0.5-2.2-0.5h-21.3c-0.9,0-1.6,0.1-2.3,0.4c-0.7,0.3-1.3,0.7-1.9,1.2c-0.5,0.5-1,1.2-1.2,1.9c-0.3,0.7-0.4,1.5-0.4,2.3
	c0,1.7,0.6,3.1,1.7,4.2c1.1,1.1,2.5,1.7,4.2,1.7h15.3v17.2c-5.3,3.5-11.3,5.3-18,5.3c-9.1,0-16.8-3.2-23.1-9.5
	c-6.3-6.3-9.5-14-9.5-23.1c0-9,3.2-16.7,9.5-23c6.4-6.4,14.1-9.6,23.1-9.6c3.8,0,7.4,0.6,10.8,1.8c3.4,1.2,6.5,2.9,9.3,5.1
	c1.2,1.1,2.5,1.7,4.1,1.7c0.8,0,1.6-0.1,2.3-0.4c0.7-0.3,1.4-0.7,1.9-1.2c0.5-0.5,1-1.2,1.2-1.9c0.3-0.7,0.4-1.5,0.4-2.3
	c0-1.7-0.5-3.1-1.6-4.1c-8.5-6.9-18-10.4-28.5-10.4c-12.2,0-22.7,4.3-31.4,13c-8.7,8.7-13,19.1-13,31.4c0,12.3,4.3,22.8,13,31.4
	c8.7,8.7,19.1,13,31.4,13c10.4,0,19.7-3.3,27.9-9.9c1.2-1.3,1.8-2.7,1.8-4.2V157.5z"/>
<path fill="#ffffff" class="sogo-logo-text"
	  d="M504.2,136.2c-2.2-5.2-5.4-10-9.8-14.3c-8.7-8.7-19.1-13-31.4-13c-12.2,0-22.7,4.3-31.4,13
	c-8.7,8.7-13,19.1-13,31.4c0,12.3,4.3,22.8,13,31.4c8.7,8.7,19.1,13,31.4,13c12.2,0,22.7-4.3,31.4-13c8.7-8.7,13-19.2,13-31.4
	C507.5,147.1,506.4,141.4,504.2,136.2"/>
<path fill="#2BB673" d="M486.2,130.2c6.4,6.4,9.5,14,9.5,23c0,9-3.2,16.7-9.5,23.1c-6.4,6.4-14.1,9.5-23.1,9.5
	c-9,0-16.7-3.2-23.1-9.5c-6.4-6.4-9.5-14.1-9.5-23.1c0-4.6,0.8-8.8,2.4-12.5c1.6-3.8,4-7.3,7.2-10.5c3.2-3.2,6.7-5.6,10.5-7.2
	c3.8-1.6,8-2.4,12.6-2.4C472.1,120.6,479.8,123.8,486.2,130.2"/>




</svg>
