<svg xmlns="http://www.w3.org/2000/svg" overflow="hidden" viewBox="0 0 206 240">
  <defs>
    <clipPath id="a">
      <path d="M3529 472h206v240h-206z"/>
    </clipPath>
  </defs>
  <g fill-rule="evenodd" clip-path="url(#a)" transform="translate(-3529 -472)">
    <path fill="#00B0F0" d="M3644 501c.07-6.524-5.13-11.883-11.66-12h-.34c-6.63 0-12 5.373-12 12s5.37 12 12 12 12-5.373 12-12Zm-6.86-.058a5.14 5.14 0 1 1-10.28.116 5.14 5.14 0 0 1 5.08-5.2l.06-.001h.22c2.76.047 4.97 2.323 4.92 5.085ZM3563 571h72v7h-72Zm0 42h72v6h-72Zm0 41h72v7h-72Z"/>
    <path fill="#0070C0" d="m3669.96 559 11.54 11.194L3693.04 559l4.96 4.806L3686.46 575l11.54 11.194-4.96 4.806-11.54-11.193L3669.96 591l-4.96-4.806L3676.54 575 3665 563.806l4.96-4.806Zm0 41 11.54 11.194L3693.04 600l4.96 4.806L3686.46 616l11.54 11.194-4.96 4.806-11.54-11.193L3669.96 632l-4.96-4.806L3676.54 616 3665 604.806l4.96-4.806Z"/>
    <path fill="#00B0F0" d="M3694 643h-28v28h28Zm-7 21h-14v-14h14Z"/>
    <path fill="#00B0F0" d="M3721.27 492.994h-51.5v-5.998c-.01-8.278-7.69-14.986-17.17-14.996h-41.2c-9.48.01-17.16 6.718-17.17 14.996v5.998h-51.5c-7.58 0-13.73 5.372-13.73 11.997v195.012c0 6.626 6.15 11.997 13.73 11.997h178.54c7.58 0 13.73-5.371 13.73-11.997V504.991c0-6.625-6.15-11.997-13.73-11.997Zm-133.9 5.999h13.73v-11.997c0-4.969 4.61-8.998 10.3-8.998h41.2c5.69 0 10.3 4.029 10.3 8.998v11.997h13.73v24.057h-89.26Zm140.76 201.01c0 3.313-3.07 5.998-6.86 5.998h-178.54c-3.79 0-6.86-2.685-6.86-5.998V504.991c0-3.313 3.07-5.998 6.86-5.998h37.77v30.055h103v-30.055h37.77c3.79 0 6.86 2.685 6.86 5.998Z"/>
  </g>
</svg>
