<svg width="289" height="175" xmlns="http://www.w3.org/2000/svg" xml:space="preserve" overflow="hidden"><defs><clipPath id="a"><path d="M2390 295h289v175h-289z"/></clipPath></defs><g clip-path="url(#a)" transform="translate(-2390 -295)" fill-rule="evenodd"><path d="M2452 357c17.12 0 31-13.879 31-31 0-17.121-13.88-31-31-31-17.12 0-31 13.879-31 31 0 17.121 13.88 31 31 31Zm0-55.129c13.32 0 24.11 10.796 24.11 24.112 0 13.316-10.79 24.111-24.11 24.111s-24.11-10.795-24.11-24.111c.02-13.309 10.8-24.094 24.11-24.112ZM2617 357c17.12 0 31-13.879 31-31 0-17.121-13.88-31-31-31-17.12 0-31 13.879-31 31 0 17.121 13.88 31 31 31Zm0-55.129c13.32 0 24.11 10.796 24.11 24.112 0 13.316-10.79 24.111-24.11 24.111s-24.11-10.795-24.11-24.111c.02-13.309 10.8-24.094 24.11-24.112Z" fill="#0070C0"/><path d="M2671.73 382.391a77.013 77.013 0 0 0-29.91-14.337 97.404 97.404 0 0 0-25.1-4.054 80.015 80.015 0 0 0-25.01 4.036 80.323 80.323 0 0 0-16.58 6.334 40.99 40.99 0 0 1-1.13 8.469 78.87 78.87 0 0 1 19.64-8.143 74.756 74.756 0 0 1 23.08-3.755 91.268 91.268 0 0 1 23.33 3.818 69.973 69.973 0 0 1 27.38 13.067l.29.222a10.556 10.556 0 0 1 4.36 8.923V423h6.92v-26.029a17.51 17.51 0 0 0-7.27-14.58ZM2494 382.3a41.964 41.964 0 0 1-1.03-8.357 88.448 88.448 0 0 0-16.32-5.9 95.97 95.97 0 0 0-24.89-4.043 78.842 78.842 0 0 0-24.82 4.036 91.906 91.906 0 0 0-29.89 14.469c-4.44 3.456-7.04 8.8-7.05 14.466V423h6.86v-26.029a11.402 11.402 0 0 1 4.36-8.948 85.362 85.362 0 0 1 27.65-13.327 73.628 73.628 0 0 1 22.89-3.755 90.05 90.05 0 0 1 23.15 3.818A77.466 77.466 0 0 1 2494 382.3ZM2588.76 430.082a77.066 77.066 0 0 0-29.78-14.093A98.27 98.27 0 0 0 2534 412a80.552 80.552 0 0 0-24.9 3.968 93.004 93.004 0 0 0-29.99 14.223c-4.47 3.39-7.1 8.644-7.11 14.221V470h6.89v-25.588c0-3.444 1.62-6.691 4.37-8.796a86.32 86.32 0 0 1 27.75-13.101 75.234 75.234 0 0 1 22.99-3.691c7.87.25 15.68 1.511 23.23 3.752a69.96 69.96 0 0 1 27.25 12.843l.29.218a10.33 10.33 0 0 1 4.34 8.775V470h6.89v-25.588c.12-5.667-2.59-11.029-7.24-14.33Z" fill="#00B0F0"/><path d="M2534 404c17.12 0 31-13.879 31-31 0-17.121-13.88-31-31-31-17.12 0-31 13.879-31 31 0 17.121 13.88 31 31 31Zm0-55.111c13.32 0 24.11 10.795 24.11 24.111s-10.79 24.111-24.11 24.111-24.11-10.795-24.11-24.111c.01-13.315 10.79-24.109 24.11-24.128Z" fill="#0070C0"/></g></svg>