<svg width="395" height="231" xmlns="http://www.w3.org/2000/svg" xml:space="preserve" overflow="hidden"><defs><clipPath id="a"><path d="M3161 1067h395v231h-395z"/></clipPath></defs><g clip-path="url(#a)" transform="translate(-3161 -1067)" fill-rule="evenodd"><path d="m3324 1259.18-64-8.18c-.04.94-.09 1.88-.22 2.83-.18 1.33-.44 2.65-.78 3.96l64.26 8.21c0-1.35.08-2.69.25-4.03.12-.95.29-1.87.49-2.79Z" fill="#00B0F0"/><path d="M3226.56 1276c14.67-.06 26.5-11.98 26.44-26.61-.06-14.57-11.89-26.35-26.48-26.39-14.67.02-26.54 11.9-26.52 26.54.02 13.31 9.93 24.54 23.16 26.24 1.13.15 2.26.22 3.4.22Zm-19.61-29.01c1.38-10.8 11.28-18.44 22.11-17.07 10.83 1.38 18.48 11.26 17.1 22.06-1.38 10.81-11.27 18.45-22.1 17.07h-.03c-10.82-1.39-18.46-11.26-17.08-22.06Z" fill="#0070C0"/><path d="m3357.77 1285.96-.6.01.6-.01Zm58.02-39.96v27.82c-2.5 2.09-5.77 3.04-9.01 2.62l-16.93-2.17c.34-1.3.6-2.63.78-3.96.12-.95.18-1.89.22-2.83l16.81 2.15c2.72.35 5.21-1.57 5.56-4.29l2.57-19.34Zm-70.82 43.89c3.12 0 9.76 1.04 21.56 1.24h49.26v.59h25.83v-.59H3464v6.87h-303v-6.87h186.79c-.96-.36-5.95-1.24-2.82-1.24Zm-70.82-130.81-5.15 40.05 88.86 11.37-31.12-39.84a16.622 16.622 0 0 0-11.34-6.3l-41.25-5.28Zm-41.91-5.21c-3.7-.04-7.31 1.15-10.27 3.37l-39.58 30.76c-.04.02-.03.05.02.06l79.76 10.2 5.15-40.05-32.81-4.2c-.75-.09-1.51-.14-2.27-.14Zm0-6.87c1.05 0 2.1.07 3.15.2l36.22 4.63 44.67 5.72a23.48 23.48 0 0 1 15.89 8.89l32.33 41.39c1.75 2.49 4.47 4.12 7.49 4.48l.35.04 9.02-3.63 10.33 13.74 10.33-13.74 6.89 13.74 6.88-5.35v8.7l-2.65 2.07-6.63 5.14-3.76-7.49-1.9-3.8-3.65 4.85-5.51 7.32-5.51-7.32-7.15-9.51-4.17 1.67-1.66.67-1.79-.23c-.1-.01-.19-.05-.29-.06l-192.55-24.63-3.66 28.45c-1.18 9.19 5.34 17.61 14.56 18.78l3.95.51c-.2.92-.37 1.85-.5 2.79-.16 1.34-.24 2.69-.25 4.04l-4.08-.53c-12.97-1.69-22.14-13.52-20.51-26.47l3.88-30.21c.38-3.2 2.05-6.1 4.63-8.05l41.17-32c4.17-3.14 9.26-4.83 14.48-4.8Z" fill="#47CFFF"/><path d="M3356.06 1296c14.94-.06 27-12.21 26.94-27.12-.06-14.84-12.12-26.84-26.98-26.88-14.95.02-27.04 12.13-27.02 27.04.02 13.56 10.12 25 23.6 26.74 1.15.14 2.3.22 3.46.22Zm-19.98-29.55c1.41-11.01 11.49-18.8 22.53-17.4 11.03 1.41 18.83 11.47 17.42 22.48-1.4 11.01-11.49 18.8-22.52 17.39h-.03c-11.02-1.42-18.81-11.48-17.4-22.47ZM3555.83 1152.84c-.44-1.06-10.83-26.06-25.17-42.38-11.4-13.58-32.33-19.66-51.81-15.04-7.78 2-14.89 5.44-20.74 10.04-.04.03-.06.02-.05-.02 1.24-4.87 1.06-9.91-.54-14.72-5.14-13.69-20.56-23.17-38.25-23.52-21.93-1.23-50.23 3.51-51.42 3.72-1.84.31-3.03 1.77-2.64 3.26.24.92 1.04 1.68 2.12 2.01 11.35 3.62 22.42 7.79 33.15 12.49.06.03.06.05-.02.05-13.94-.05-27.2 4.89-36.23 13.48-17 14.86-32.21 38.41-32.85 39.41-.86 1.35-.21 3.01 1.46 3.71 1.05.44 2.3.42 3.31-.07 13.91-6.56 28.38-12.3 43.32-17.17.05-.02.07 0 .03.04-3.88 4.42-6.5 9.48-7.66 14.82-3.98 16.55-2.12 38.59-2.04 39.52.14 1.52 1.77 2.66 3.65 2.56 1.19-.07 2.24-.64 2.79-1.49 7.22-11.23 15.72-21.89 25.41-31.84 1.65 6.37 8.59 10.92 16.63 10.93 1.99-.01 3.97-.31 5.84-.89-9.43 42.11-11.74 106.27-12.23 125.84-.08 2.76 1.57 5.38 4.39 6.95 1.88.92 4.02 1.42 6.21 1.47h13.65c5.64.01 10.22-3.68 10.23-8.24 0-.39-.03-.77-.1-1.15-5.93-34.75-8.82-84.83-.06-124.71 6.94 5.02 17.61 4.55 23.82-1.06 1.22-1.11 2.21-2.36 2.93-3.72h.01c10.43 15.09 18.24 41.19 18.31 41.45.36 1.2 1.64 2.06 3.16 2.12h.16c1.46 0 2.76-.75 3.23-1.87.41-.96 10-23.76 11.31-42.07 1-8.7-2.01-17.38-8.46-24.39-.04-.04-.02-.06.04-.04 22.25 7.19 49.56 23.44 49.84 23.61 1.52.9 3.65.64 4.77-.58.66-.73.85-1.66.5-2.51Zm-147.53-2.31c-.67-2.68.36-5.46 2.74-7.41l.13-.1c2.41-1.92 5.84-2.74 9.16-2.19 3.88.85 6.91 3.31 7.94 6.46 1.08 4.47-2.53 8.8-8.05 9.67-1.3.21-2.63.21-3.92 0-3.9-.83-6.95-3.28-8-6.43Zm33.6-9.64c-5.52.88-10.88-2.03-11.97-6.5a6.58 6.58 0 0 1 0-3.18c1.03-3.16 4.08-5.62 7.98-6.46 5.52-.89 10.89 2.01 11.99 6.47.26 1.06.26 2.15 0 3.22-1.04 3.15-4.09 5.61-8 6.45Zm-2.38 146.47c.25 1.5-1.04 2.89-2.9 3.1-.16.01-.32.02-.48.02h-14.02c-.92.01-1.8-.29-2.45-.83-.64-.52-.98-1.23-.96-1.96.52-20.45 3.02-89.82 13.59-131.05 2.7-3.14 3.62-7.06 2.53-10.78 2.19.68 4.56.87 6.86.55-1.4 2.67-1.67 5.64-.77 8.44-10.63 41.42-7.71 95.57-1.4 132.51Zm28.05-135.73c-.01 4.56-4.59 8.25-10.23 8.24-1.08 0-2.15-.14-3.18-.42-2.95-.93-5.28-2.82-6.43-5.2-1.8-4.3 1.05-8.96 6.36-10.41 4.1-1.12 8.62-.02 11.27 2.74.49.62.95 1.26 1.43 1.89.52 1 .78 2.08.78 3.16Zm33.77-25.04c-5.42-1.65-11.23-3.22-17.25-4.67-1.7-.4-3.48.37-4.02 1.72-.57 1.41.27 2.93 1.94 3.53 6.57 2.4 21.7 10.05 20.32 29.26-1.18 10.65-3.69 21.17-7.47 31.41-.02.05-.04.05-.06 0-3.79-11.31-8.96-22.28-15.44-32.77-2.12-3.15-4.44-6.44-6.89-9.65-.41-.66-.88-1.3-1.42-1.9-.08-.09-.14-.19-.22-.29-.15-.15-.32-.3-.51-.42-3.2-3.11-7.93-4.91-12.92-4.92-.59.02-1.19.07-1.77.14 1.42-2.78 1.67-5.87.7-8.78-2.01-4.89-6.95-8.62-13.11-9.93-9.15-1.51-18.09 3.26-19.96 10.66a11.1 11.1 0 0 0 .1 5.86c-5.5-1.51-11.59-.53-15.96 2.57-.15.07-.3.14-.43.22-.24.18-.42.33-.63.49l-.12.1a51.337 51.337 0 0 0-4.73 4.18c-.95.92-2.03 1.97-3.63 3.41-8.2 7.86-15.44 16.34-21.64 25.32-.03.05-.06.05-.06-.01-.31-9.41.48-18.82 2.37-28.11 2.92-12.12 11.27-17.66 17.75-20.17 1.7-.65 2.43-2.3 1.62-3.67-.71-1.19-2.35-1.82-3.93-1.49-1.94.4-3.9.82-5.9 1.27-15.51 4.02-30.47 9.29-44.69 15.71-.06.02-.08.01-.04-.04 7.39-10.56 16.06-20.5 25.9-29.66 18.01-15.75 37.08-11.98 44.44-9.62 2.15.71 4.18 1.64 6.05 2.78 1.52.89 3.66.62 4.76-.62 1.07-1.19.79-2.86-.64-3.78-1.98-1.26-4.02-2.54-6.15-3.8-11.61-6.38-23.98-11.8-36.93-16.19-.05-.02-.05-.04.01-.05 12.56-1.7 25.29-2.36 38.02-1.97 22.92 1.28 30.15 14.14 32.19 19.61 3.29 8.79-2.1 19.91-3.83 23.11-.75 1.4.04 3.03 1.77 3.64 1.44.51 3.13.15 4.08-.87 3.13-3.35 14.37-14.5 27.65-17.46 16.72-4.11 34.79 1.14 44.44 12.91 8.31 10.23 15.18 21.18 20.48 32.64.02.05 0 .06-.05.04-13.83-7.83-28.64-14.44-44.19-19.74Z" fill="#0070C0"/></g></svg>