<svg width="269" height="289" xmlns="http://www.w3.org/2000/svg" xml:space="preserve" overflow="hidden"><defs><clipPath id="a"><path d="M2148 1271h269v289h-269z"/></clipPath></defs><g clip-path="url(#a)" transform="translate(-2148 -1271)"><path d="M2240.4 1340.74c2.18.02 4.67.02 7.33 0 .58 30.54 25.63 54.83 55.96 54.25 29.68-.57 53.53-24.78 53.88-54.66 1-3.41 7.36-26.71-.28-41.45-4.92-10.39-15.52-16.83-26.94-16.37-5.62-4.48-29.17-20.47-62.28-4.73-27.13 12.9-27.92 41.17-27.89 45.42l-3.09 13.3c-.43 1.86.72 3.72 2.56 4.16.25.06.5.09.75.09Zm62.24 47.39c-26.22-.04-47.59-21.21-48.05-47.61 12.84-.54 27.99-2.21 37.53-6.75 12.47-5.93 28.23-19.29 33.19-23.62 4.76 2.21 8.98 5.45 12.35 9.5 2.81 3.46 5.24 7.22 7.26 11.21 1.6 2.89 3.43 6.15 5.76 9.77-.52 26.36-21.87 47.46-48.04 47.5Zm-55.67-63.8c.07-.3.1-.6.09-.91-.03-1.13-.63-27.72 23.95-39.4a59.281 59.281 0 0 1 25.66-6.23 46.074 46.074 0 0 1 30.23 10.79c.78.75 1.86 1.08 2.92.91 9.05-.82 17.62 4.22 21.37 12.56 4.28 8.26 3.05 20.64 1.54 28.68-.64-1.14-1.25-2.22-1.83-3.27-2.24-4.4-4.94-8.55-8.07-12.37a37.68 37.68 0 0 0-17.45-12.25c-1.1-.26-2.25.03-3.09.79-.2.17-19.3 17.33-33.09 23.87-11.19 5.32-32.41 6.23-44.42 6.3ZM2405.08 1440.73a147.42 147.42 0 0 0-53.14-25.94c-4.44-1.33-8.91-2.48-13.29-3.42l-1.74-.37-1.31 1.21c-14.01 12.97-23.51 12.97-28.61 12.97-5.1 0-14.67 0-28.61-12.79l-1.31-1.2-1.72.36c-4.21.89-8.66 1.97-13.26 3.23a175.955 175.955 0 0 0-53.15 25.93c-7.39 5.79-4.05.86-4.22 10.25l-1.72 2.58 6.02 1.72.86-3.44c.15-7.25-2.48-1.16 3.22-5.65a168.89 168.89 0 0 1 50.84-24.75c3.81-1.03 7.56-1.97 11.12-2.75 13.37 11.75 23.63 13.38 31.93 13.38 8.31 0 18.51-1.65 31.94-13.58 3.65.83 7.36 1.8 11.08 2.92a140.825 140.825 0 0 1 50.75 24.69c5.76 4.48 9.2 11.33 9.36 18.63V1518h6.88v-53.29a31.205 31.205 0 0 0-11.92-23.98Z" fill="#0070C0" fill-rule="evenodd"/><path d="M2151.5 1504.5c0-28.72 23.28-52 52-52s52 23.28 52 52-23.28 52-52 52-52-23.28-52-52Z" stroke="#00B0F0" stroke-width="6.875" stroke-miterlimit="8" fill="none"/><path d="M2203.5 1489.67V1504h13.96-13.96v14.33V1504h-13.96 13.96v-14.33Z" stroke="#0070C0" stroke-width="4.583" stroke-miterlimit="8" fill="#5B9BD5" fill-rule="evenodd"/></g></svg>