<svg xmlns="http://www.w3.org/2000/svg" height="96" width="140.16"><defs><clipPath id="a"><path d="M0 72h105.12V0H0" clip-rule="evenodd"/></clipPath><clipPath id="b"><path d="M0 72h105.12V0H0" clip-rule="evenodd"/></clipPath><clipPath id="c"><path d="M0 72h105.12V0H0" clip-rule="evenodd"/></clipPath><clipPath id="d"><path d="M0 72h105.12V0H0" clip-rule="evenodd"/></clipPath><clipPath id="e"><path d="M0 72h105.12V0H0" clip-rule="evenodd"/></clipPath><clipPath id="f"><path d="M0 72h105.12V0H0" clip-rule="evenodd"/></clipPath></defs><g clip-path="url(#a)" transform="matrix(1.33333 0 0 -1.33333 0 96)"><path d="M1.812 45.967c.794 6.227 6.486 10.63 12.712 9.835l74.663-9.528c6.226-.795 10.629-6.486 9.835-12.712-.795-6.227-6.486-10.63-12.713-9.835l-74.663 9.528c-6.226.795-10.63 6.486-9.835 12.712z" fill="#47cfff" fill-rule="evenodd"/></g><g clip-path="url(#b)" transform="matrix(1.33333 0 0 -1.33333 0 96)"><path d="M1.812 45.967c.794 6.227 6.486 10.63 12.712 9.835l74.663-9.528c6.226-.795 10.629-6.486 9.835-12.712-.795-6.227-6.486-10.63-12.713-9.835l-74.663 9.528c-6.226.795-10.63 6.486-9.835 12.712z" fill="none" stroke="#41719c" stroke-width="3" stroke-miterlimit="10"/></g><g clip-path="url(#c)" transform="matrix(1.33333 0 0 -1.33333 0 96)"><path d="M30.391 37.743l20.49-26.105 8.522-.469-5.762 23.596z" fill="#47cfff" fill-rule="evenodd"/></g><g clip-path="url(#d)" transform="matrix(1.33333 0 0 -1.33333 0 96)"><path d="M30.391 37.743l20.49-26.105 8.522-.469-5.762 23.596z" fill="none" stroke="#41719c" stroke-width="3" stroke-linecap="round" stroke-linejoin="round" stroke-miterlimit="10"/></g><g clip-path="url(#e)" transform="matrix(1.33333 0 0 -1.33333 0 96)"><path d="M72.909 48.418l22.653 10.489 7.548-1.677-9.298-12.401z" fill="#f0c113" fill-rule="evenodd"/></g><g clip-path="url(#f)" transform="matrix(1.33333 0 0 -1.33333 0 96)"><path d="M72.909 48.418l22.653 10.489 7.548-1.677-9.298-12.401z" fill="none" stroke="#41719c" stroke-width="3" stroke-linecap="round" stroke-linejoin="round" stroke-miterlimit="10"/></g><path d="M26.32 33.52l85.604 12.045" fill="none" stroke="#41719c" stroke-width="3.9999899999999995" stroke-linecap="round" stroke-linejoin="round" stroke-miterlimit="10" stroke-dasharray="6,6"/></svg>