<svg xmlns="http://www.w3.org/2000/svg" overflow="hidden" viewBox="0 0 206 275">
  <defs>
    <clipPath id="a">
      <path d="M3529 129h206v275h-206z"/>
    </clipPath>
  </defs>
  <g fill-rule="evenodd" clip-path="url(#a)" transform="translate(-3529 -129)">
    <path fill="#00B0F0" d="m3580.33 196.337-11.43-11.252-4.9 4.831L3580.33 206l33.67-33.168-4.91-4.832-28.76 28.337Z"/>
    <path fill="#0070C0" d="M3635 188h65v7h-65Z"/>
    <path fill="#00B0F0" d="m3580.33 248.337-11.43-11.252-4.9 4.831 16.33 16.085 33.67-33.17-4.91-4.831-28.76 28.337Z"/>
    <path fill="#0070C0" d="M3635 239h65v7h-65Z"/>
    <path fill="#00B0F0" d="m3580.33 300.083-11.43-11.549-4.9 4.959L3580.33 310l33.67-34.041-4.91-4.959-28.76 29.083Z"/>
    <path fill="#0070C0" d="M3635 291h65v7h-65Z"/>
    <path fill="#00B0F0" d="m3580.33 351.337-11.43-11.252-4.9 4.831L3580.33 361l33.67-33.168-4.91-4.832-28.76 28.337Z"/>
    <path fill="#0070C0" d="M3635 343h65v6h-65Z"/>
    <path fill="#0070C0" d="M3529 404h206V129h-206Zm6.87-268.125h192.26v261.25h-192.26Z"/>
  </g>
</svg>
