<svg xmlns="http://www.w3.org/2000/svg" overflow="hidden" viewBox="0 0 303 169">
  <defs>
    <clipPath id="a">
      <path d="M3993 184h303v169h-303z"/>
    </clipPath>
  </defs>
  <g fill-rule="evenodd" clip-path="url(#a)" transform="translate(-3993 -184)">
    <path fill="#0070C0" d="M4054.5 298c-15.19 0-27.5 12.312-27.5 27.5s12.31 27.5 27.5 27.5 27.5-12.312 27.5-27.5c-.02-15.18-12.32-27.481-27.5-27.5Zm0 48.125c-11.39 0-20.62-9.234-20.62-20.625s9.23-20.625 20.62-20.625 20.62 9.234 20.62 20.625-9.23 20.625-20.62 20.639Z"/>
    <path fill="#00B0F0" d="M4089.35 329a36.187 36.187 0 0 1-1.35 7h116a35.421 35.421 0 0 1-1.35-7Z"/>
    <path fill="#00B0F0" d="m4295.61 271.103-9.72-60.924c-2.35-15.112-15.35-26.236-30.59-26.179h-245.08c-9.51.012-17.21 7.738-17.22 17.273v117.454c.01 9.535 7.71 17.262 17.22 17.273h11.84a34.573 34.573 0 0 1-1.36-6.909h-10.48c-5.71 0-10.33-4.64-10.33-10.364V260h212.05l20.66 20.728h56.51v37.999c0 5.724-4.62 10.364-10.33 10.364h-7.04a34.573 34.573 0 0 1-1.36 6.909h8.4c9.51-.011 17.21-7.738 17.22-17.273v-42.711c0-1.646-.13-3.289-.39-4.913Zm-85.69-80.194v62.182h-65.42v-62.182Zm-72.31 0v62.182h-65.42v-62.182Zm-137.72 10.364c0-5.724 4.62-10.364 10.33-10.364h55.09v62.182h-65.42Zm216.92 53.842v-64.206h38.49c11.86-.049 21.98 8.603 23.81 20.361l9.71 60.928c.09.532.08 1.081.13 1.62h-53.5Z"/>
    <path fill="#0070C0" d="M4237.5 298c-15.19 0-27.5 12.312-27.5 27.5s12.31 27.5 27.5 27.5 27.5-12.312 27.5-27.5c-.02-15.18-12.32-27.481-27.5-27.5Zm0 48.125c-11.39 0-20.62-9.234-20.62-20.625s9.23-20.625 20.62-20.625 20.62 9.234 20.62 20.625-9.23 20.625-20.62 20.639Z"/>
  </g>
</svg>
