<svg xmlns="http://www.w3.org/2000/svg" overflow="hidden" viewBox="0 0 234 234">
  <defs>
    <clipPath id="a">
      <path d="M3036 1746h234v234h-234z"/>
    </clipPath>
  </defs>
  <g fill-rule="evenodd" clip-path="url(#a)" transform="translate(-3036 -1746)">
    <path fill="#0070C0" d="M3036 1980h234v-234h-234Zm6.88-227.12h220.24v27.53h-220.24Zm0 34.41h220.24v185.83h-220.24Z"/>
    <path fill="#00B0F0" d="M3098.23 1842.52H3064V1953h109.54v-34.52H3242V1808h-143.77Zm0 103.58h-27.38v-27.62h27.38Zm0-34.53h-27.38v-27.62h27.38Zm0-34.52h-27.38v-27.62h27.38Zm109.54-62.15h27.38v27.62h-27.38Zm0 34.53h27.38v27.62h-27.38Zm0 34.52h27.38v27.62h-27.38Zm-34.23-69.05h27.38v27.62h-27.38Zm0 34.53h27.38v27.62h-27.38Zm0 34.52h27.38v27.62h-27.38Zm-34.23-69.05h27.38v27.62h-27.38Zm0 34.53h27.38v27.62h-27.38Zm0 34.52h27.38v27.62h-27.38Zm0 34.53h27.38v27.62h-27.38Zm-34.23-103.58h27.38v27.62h-27.38Zm0 34.53h27.38v27.62h-27.38Zm0 34.52h27.38v27.62h-27.38Zm0 34.53h27.38v27.62h-27.38Z"/>
  </g>
</svg>
