<svg width="261" height="261" xmlns="http://www.w3.org/2000/svg" xml:space="preserve" overflow="hidden"><defs><clipPath id="a"><path d="M3828 1479h261v261h-261z"/></clipPath></defs><g clip-path="url(#a)" transform="translate(-3828 -1479)" fill-rule="evenodd"><path d="M3958.54 1479c-72.08-.02-130.52 58.39-130.54 130.46-.02 72.08 58.39 130.52 130.46 130.54 72.08.02 130.52-58.39 130.54-130.46v-.04c.04-72.04-58.33-130.46-130.36-130.5h-.1Zm0 254.13c-68.28.02-123.65-55.31-123.67-123.6-.02-68.28 55.31-123.65 123.59-123.67 68.28-.02 123.65 55.32 123.67 123.6v.05c-.06 68.23-55.35 123.54-123.59 123.63Z" fill="#00B0F0"/><path d="m4006.15 1556-48.15 48.15-48.15-48.15-4.85 4.85 48.15 48.15-48.15 48.15 4.85 4.85 48.15-48.15 48.15 48.15 4.85-4.85-48.15-48.15 48.15-48.15-4.85-4.85Z" fill="#0070C0"/></g></svg>