<svg xmlns="http://www.w3.org/2000/svg" height="96" width="140.16"><path d="M133.6 36.03l-9.501-14-20.002-8.75-35.253 1.25-18.503 9.75-18.501 13 12.001 8 19.252-15.5 12.751-4.5 30.753 2.25 9.002 5.25 6.5 10.5z" fill="#47cfff" fill-rule="evenodd"/><path d="M133.427 35.2l4.493 27.488-3.253 14.243-9.486 1.5-2.748-12.244-11.489-5.998-14.737 4.498-5.246 10.245.75 4.499-33.22-.5-.999-10.746-11.49-7.746-9.242.249-9.241 9.247-2.499 9.745-20.231-2.999L3.04 62.937l11.49-13.744L31.763 36.95 58.74 49.193l21.73 1.75 29.974-2.999z" fill="#47cfff" fill-rule="evenodd"/><path d="M130.48 37.04c-5.79 3.757-11.583 7.515-16.705 9.555-5.123 2.038-6.822 2.01-14.032 2.681-7.211.67-20.214 2.012-29.234 1.341-9.021-.67-18.46-3.352-24.89-5.364-6.432-2.012-10.066-4.358-13.699-6.705" fill="none" stroke="#41719c" stroke-width="3.9999899999999995" stroke-linecap="round" stroke-linejoin="round" stroke-miterlimit="10"/><path d="M121.84 42.11c-3.78-5.795-7.559-11.591-15.79-14.313-8.231-2.722-23.322-4.574-33.597-2.021C62.18 28.331 53.29 35.726 44.4 43.12" fill="none" stroke="#41719c" stroke-width="3.9999899999999995" stroke-linecap="round" stroke-linejoin="round" stroke-miterlimit="10"/><path d="M16.187 48.32l-8.004 6.256-4.503 8.259.5 5.005 8.755-1.001 8.505-6.006v-7.257z" fill="#ffc000" fill-rule="evenodd"/><path d="M16.712 48.72c2.315 1.441 4.628 2.881 5.207 5.056.578 2.175.158 5.79-1.736 7.993-1.894 2.202-7.022 4.376-9.626 5.219-2.604.843-4.3.34-5.997-.163" fill="none" stroke="#41719c" stroke-width="3.9999899999999995" stroke-linecap="round" stroke-linejoin="round" stroke-miterlimit="10"/><path d="M69.537 14.084c-10.893 2.3-16.578 8.692-25.036 14.132-8.457 5.44-19.212 13.29-25.708 18.507-6.498 5.214-10.81 8.046-13.275 12.785-2.464 4.739-3.5 12.365-1.512 15.645 1.988 3.282 5.04 3.394 13.442 4.038 8.401.645 36.967-.168 36.967-.168l44.528.337c12.658-.14 25.121.364 31.421-1.179 6.303-1.541 5.41-3.056 6.383-8.074.986-5.019.76-15.254-.507-22.039-1.253-6.785-2.653-13.067-7.052-18.675-4.396-5.606-9.493-12.337-19.323-14.972-9.83-2.636-29.433-2.636-40.328-.337z" fill="none" stroke="#41719c" stroke-width="3.9999899999999995" stroke-linecap="round" stroke-linejoin="round" stroke-miterlimit="10"/><path d="M98.784 52.24c.71 7.79 1.419 15.577 1.021 20.937C99.408 78.537 96.4 84.4 96.4 84.4" fill="none" stroke="#41719c" stroke-width="3.9999899999999995" stroke-linecap="round" stroke-linejoin="round" stroke-miterlimit="10"/><path d="M80.88 60.72c0-.972 1.79-1.76 4-1.76s4 .788 4 1.76-1.79 1.76-4 1.76-4-.788-4-1.76z" fill="#00b0f0" fill-rule="evenodd"/><path d="M80.88 60.72c0-.972 1.79-1.76 4-1.76s4 .788 4 1.76-1.79 1.76-4 1.76-4-.788-4-1.76z" fill="none" stroke="#41719c" stroke-width="3.9999899999999995" stroke-linecap="round" stroke-linejoin="round" stroke-miterlimit="10"/><path d="M91.76 77.2c0-9.19 7.485-16.64 16.72-16.64s16.72 7.45 16.72 16.64c0 9.19-7.485 16.64-16.72 16.64S91.76 86.39 91.76 77.2z" fill="#fff" fill-rule="evenodd"/><path d="M91.76 77.2c0-9.19 7.485-16.64 16.72-16.64s16.72 7.45 16.72 16.64c0 9.19-7.485 16.64-16.72 16.64S91.76 86.39 91.76 77.2z" fill="none" stroke="#41719c" stroke-width="3.9999899999999995" stroke-linecap="round" stroke-linejoin="round" stroke-miterlimit="10"/><path d="M104.56 76.72c0-2.21 1.755-4 3.92-4s3.92 1.79 3.92 4-1.755 4-3.92 4-3.92-1.79-3.92-4z" fill="#41719c" fill-rule="evenodd"/><path d="M104.56 76.72c0-2.21 1.755-4 3.92-4s3.92 1.79 3.92 4-1.755 4-3.92 4-3.92-1.79-3.92-4z" fill="none" stroke="#41719c" stroke-width="3.9999899999999995" stroke-linecap="round" stroke-linejoin="round" stroke-miterlimit="10"/><path d="M25.84 77.04c0-9.19 7.45-16.64 16.64-16.64 9.19 0 16.64 7.45 16.64 16.64 0 9.19-7.45 16.64-16.64 16.64-9.19 0-16.64-7.45-16.64-16.64z" fill="#fff" fill-rule="evenodd"/><path d="M25.84 77.04c0-9.19 7.45-16.64 16.64-16.64 9.19 0 16.64 7.45 16.64 16.64 0 9.19-7.45 16.64-16.64 16.64-9.19 0-16.64-7.45-16.64-16.64z" fill="none" stroke="#41719c" stroke-width="3.9999899999999995" stroke-linecap="round" stroke-linejoin="round" stroke-miterlimit="10"/><path d="M38.48 76.72a4 4 0 1 1 8 0 4 4 0 0 1-8 0z" fill="#41719c" fill-rule="evenodd"/><path d="M38.48 76.72a4 4 0 1 1 8 0 4 4 0 0 1-8 0z" fill="none" stroke="#41719c" stroke-width="3.9999899999999995" stroke-linecap="round" stroke-linejoin="round" stroke-miterlimit="10"/></svg>