<svg xmlns="http://www.w3.org/2000/svg" overflow="hidden" viewBox="0 0 302 230">
  <defs>
    <clipPath id="a">
      <path d="M795 459h302v230H795z"/>
    </clipPath>
  </defs>
  <g fill-rule="evenodd" clip-path="url(#a)" transform="translate(-795 -459)">
    <path fill="#0070C0" d="M1059 583c0-17.121-13.66-31-30.5-31S998 565.879 998 583c0 17.121 13.66 31 30.5 31 16.84-.017 30.48-13.886 30.5-31Zm-54.22 0c0-13.316 10.62-24.111 23.72-24.111s23.72 10.795 23.72 24.111-10.62 24.111-23.72 24.111c-13.09-.01-23.71-10.802-23.71-24.111Z"/>
    <path fill="#00B0F0" d="M901 576a39.49 39.49 0 0 1 .645 6.94v.06h88.71v-.06A39.49 39.49 0 0 1 991 576Z"/>
    <path fill="#00B0F0" d="M1062.68 520.96c15.16 0 27.46 12.333 27.46 27.548v20.715c0 3.804-3.08 6.887-6.87 6.887h-17.8c.42 2.253.64 4.54.64 6.832V583h17.16c7.57-.024 13.71-6.176 13.73-13.774v-20.718c-.06-18.994-15.39-34.378-34.32-34.434h-28.48c-3.65.112-7.16-1.39-9.61-4.109l-43.242-43.042a27.15 27.15 0 0 0-19.561-7.92H861.235a27.752 27.752 0 0 0-19.562 7.92l-42.554 43.042a13.82 13.82 0 0 0-4.118 9.986v35.467c.049 15.194 12.312 27.499 27.454 27.548h3.432v-.059c.009-2.291.225-4.576.645-6.828h-4.077c-11.372 0-20.591-9.25-20.591-20.661V520.96Zm-86.157-49.148 42.447 42.262H908.251V465.89h53.536a20.285 20.285 0 0 1 14.736 5.922Zm-129.993-.017a20.814 20.814 0 0 1 14.705-5.905h40.152v48.184h-96.561c-.045 0-.058-.028-.024-.059Z"/>
    <path fill="#0070C0" d="M894 583c0-17.121-13.655-31-30.5-31S833 565.879 833 583c0 17.121 13.655 31 30.5 31 16.838-.017 30.483-13.886 30.5-31Zm-54.222 0c0-13.316 10.62-24.111 23.722-24.111 13.102 0 23.722 10.795 23.722 24.111s-10.62 24.111-23.722 24.111c-13.102 0-23.722-10.795-23.722-24.111Zm119.949 5h-27.454v95.54H795V689h302v-5.46H959.727V588Zm-20.591 0h13.728v95.54h-13.728V588Z"/>
  </g>
</svg>
