<svg xmlns="http://www.w3.org/2000/svg" overflow="hidden" viewBox="0 0 302 155">
  <defs>
    <clipPath id="a">
      <path d="M426 114h302v155H426z"/>
    </clipPath>
  </defs>
  <g fill-rule="evenodd" clip-path="url(#a)" transform="translate(-426 -114)">
    <path fill="#0070C0" d="M463 238c0-17.12 13.88-31 31-31 17.121 0 31 13.88 31 31 0 17.121-13.879 31-31 31-17.114-.017-30.983-13.886-31-31Zm55.111 0c0-13.316-10.795-24.111-24.11-24.111-13.317 0-24.112 10.795-24.112 24.111s10.795 24.111 24.111 24.111c13.31-.01 24.094-10.801 24.094-24.11Z"/>
    <path fill="#00B0F0" d="M622 231a39.381 39.381 0 0 0-.645 6.94v.06h-88.71v-.06A39.406 39.406 0 0 0 532 231Z"/>
    <path fill="#00B0F0" d="M460.318 175.96c-15.163 0-27.455 12.333-27.455 27.547v20.716c0 3.803 3.073 6.887 6.864 6.887h17.801a37.915 37.915 0 0 0-.642 6.832V238h-17.159c-7.571-.024-13.703-6.177-13.727-13.774v-20.719c.056-18.993 15.388-34.377 34.318-34.434h28.484a12.412 12.412 0 0 0 9.609-4.108l43.241-43.042a27.15 27.15 0 0 1 19.561-7.92h100.553a27.748 27.748 0 0 1 19.56 7.92l18.076 21.53 24.48 21.512a13.823 13.823 0 0 1 4.117 9.986v35.467c-.049 15.194-12.312 27.498-27.454 27.547h-3.432v-.058a37.947 37.947 0 0 0-.645-6.828h4.077c11.372 0 20.59-9.25 20.59-20.66V175.96H460.319Zm86.159-49.148-42.445 42.261h110.717V120.89h-53.536a20.286 20.286 0 0 0-14.736 5.922Zm129.994-.017a20.818 20.818 0 0 0-14.706-5.905h-40.152v48.183h96.561c.045 0 .058-.027.024-.058l-41.727-42.22Z"/>
    <path fill="#0070C0" d="M628 238c0-17.12 13.88-31 31-31 17.121 0 31 13.88 31 31 0 17.121-13.879 31-31 31-17.114-.017-30.982-13.886-31-31Zm55.111 0c0-13.316-10.795-24.111-24.11-24.111-13.317 0-24.112 10.795-24.112 24.111s10.795 24.111 24.111 24.111 24.111-10.794 24.111-24.11Z"/>
  </g>
</svg>
