<svg width="275" height="206" xmlns="http://www.w3.org/2000/svg" xml:space="preserve" overflow="hidden"><defs><clipPath id="a"><path d="M375 496h275v206H375z"/></clipPath></defs><g clip-path="url(#a)" transform="translate(-375 -496)" fill-rule="evenodd"><path d="M375 702h275V496H449.202L375 570.112Zm11.794-133.958 60.335-60.262a.034.034 0 0 1 .048 0c.007.007.01.015.01.024V568.1h-60.369a.034.034 0 0 1-.034-.034c0-.009.004-.018.01-.024Zm256.331 127.091h-261.25V574.967h72.187v-72.1h189.063Z" fill="#00B0F0"/><path d="m473.062 564.88-9.138-8.291-3.924 3.56L473.062 572 500 547.56l-3.924-3.56-23.014 20.88Z" fill="#00B0F0"/><path d="M514 553h104v7H514Z" fill="#0070C0"/><path d="m473.062 616.134-9.138-7.995-3.924 3.433L473.062 623 500 599.433 496.076 596l-23.014 20.134Z" fill="#00B0F0"/><path d="M514 605h104v7H514Z" fill="#0070C0"/><path d="m473.062 667.88-9.138-8.291-3.924 3.56L473.062 675 500 650.56l-3.924-3.56-23.014 20.88Z" fill="#00B0F0"/><path d="M514 656h104v7H514Z" fill="#0070C0"/></g></svg>