<svg xmlns="http://www.w3.org/2000/svg" xmlns:xlink="http://www.w3.org/1999/xlink" overflow="hidden" viewBox="0 0 1353 1013">
  <defs>
    <path id="g" fill="#FFB3DB" fill-rule="evenodd" d="M3593 835.429v.415l-.48.663-1.45 1.493a24.228 24.228 0 0 0-4.83-1.742 124.749 124.749 0 0 0-18.44-2.654c-6.12-.664-12.32-1.161-18.52-1.576a39.12 39.12 0 0 1-17.72-2.323 11.557 11.557 0 0 1-4.51-4.977 3.71 3.71 0 0 1 0-1.244 11.35 11.35 0 0 1 1.45-3.484c3.01.921 6.14 1.31 9.26 1.161 8.06 0 16.51.912 24.72 1.742a88.287 88.287 0 0 1 21.74 3.484c4.07 1.543 7.28 4.853 8.78 9.042Z"/>
    <path id="h" fill="#FF0083" fill-rule="evenodd" d="M3313.03 801.377v-1.286c-.04-.667-.04-1.342 0-2.009a23.93 23.93 0 0 0 4.74-1.929 126.31 126.31 0 0 0 15.36-10.448c4.99-3.617 9.97-7.394 14.71-11.332a42.094 42.094 0 0 1 14.72-10.126c2.2-.45 4.48-.281 6.59.482l.64 1.125c.58 1.085.98 2.25 1.21 3.456a28.913 28.913 0 0 0-8.04 5.385 356.903 356.903 0 0 1-19.38 15.27 92.972 92.972 0 0 1-18.41 12.055 15.045 15.045 0 0 1-12.14-.643Z"/>
    <path id="i" fill="#FF0083" fill-rule="evenodd" d="M3279.4 764.817h1.5c1.03.12 2.06.12 3.09 0h1.27a15.03 15.03 0 0 0 3.57-1.754 57.285 57.285 0 0 0 7.45-6.379l15.14-14.113c4.7-4.809 9.67-9.329 14.9-13.556a8.925 8.925 0 0 1 6.26-1.993c.48.303.93.646 1.35 1.036a7.238 7.238 0 0 1 2.06 5.502 75.426 75.426 0 0 0-7.93 7.177l-12.84 11.96c-4.36 4.067-8.64 7.974-13.16 12.2a15.786 15.786 0 0 1-11.09 5.103 30.186 30.186 0 0 1-11.97-4.704Z"/>
  </defs>
  <defs>
    <linearGradient id="b" x1="3172.98" x2="3146.83" y1="675.35" y2="623.044" gradientUnits="userSpaceOnUse" spreadMethod="reflect">
      <stop offset="0" stop-color="#00B0F0"/>
      <stop offset=".88" stop-color="#00B0F0"/>
      <stop offset="1" stop-color="#52DFD2"/>
    </linearGradient>
    <linearGradient id="c" x1="3061" x2="3004" y1="649" y2="649" gradientUnits="userSpaceOnUse" spreadMethod="reflect">
      <stop offset="0" stop-color="#00B0F0"/>
      <stop offset=".32" stop-color="#00B0F0"/>
      <stop offset=".87" stop-color="#0070C0"/>
      <stop offset="1" stop-color="#0070C0"/>
    </linearGradient>
    <linearGradient id="d" x1="3126.96" x2="3153.4" y1="675.279" y2="623.115" gradientUnits="userSpaceOnUse" spreadMethod="reflect">
      <stop offset="0" stop-color="#00B0F0"/>
      <stop offset=".29" stop-color="#00B0F0"/>
      <stop offset="1" stop-color="#52DFD2"/>
    </linearGradient>
    <linearGradient id="e" x1="3072.02" x2="3098.17" y1="623.044" y2="675.35" gradientUnits="userSpaceOnUse" spreadMethod="reflect">
      <stop offset="0" stop-color="#00B0F0"/>
      <stop offset=".88" stop-color="#00B0F0"/>
      <stop offset="1" stop-color="#52DFD2"/>
    </linearGradient>
    <linearGradient id="f" x1="3118.03" x2="3091.6" y1="623.115" y2="675.279" gradientUnits="userSpaceOnUse" spreadMethod="reflect">
      <stop offset="0" stop-color="#00B0F0"/>
      <stop offset=".29" stop-color="#00B0F0"/>
      <stop offset="1" stop-color="#52DFD2"/>
    </linearGradient>
    <clipPath id="a">
      <path d="M2699 529h1353v1013H2699z"/>
    </clipPath>
  </defs>
  <g clip-path="url(#a)" transform="translate(-2699 -529)">
    <path fill="#EBEBEB" fill-rule="evenodd" d="M3939 1442h113v1h-113Zm-324 9h30v1h-30Zm254-41h66v1h-66Zm-1004 6h22v1h-22Zm93 14h322v1h-322Z"/>
    <path fill="#F0F0F0" fill-rule="evenodd" d="M3074 1374h-64v-334h64Zm-13 13h-279v-13h279Z"/>
    <path fill="#F5F5F5" fill-rule="evenodd" d="M2770 1040h240v334h-240Z"/>
    <path fill="#E0E0E0" fill-rule="evenodd" d="M2999.31 1149.55v100.9h-218.62v-100.9h218.76m1.55-1.55h-222v104h221.86v-103.86Z"/>
    <path fill="#E0E0E0" fill-rule="evenodd" d="M2899 1200c0 4.97-4.25 9-9.5 9s-9.5-4.03-9.5-9 4.25-9 9.5-9 9.5 4.03 9.5 9Z"/>
    <path fill="#F0F0F0" fill-rule="evenodd" d="M2779 1051h221v76h-221Zm0 221h221v77h-221Z"/>
    <path fill="#E0E0E0" fill-rule="evenodd" d="M2779 1051h47v76h-47Zm0 221h47v77h-47Z"/>
    <path fill="#E6E6E6" fill-rule="evenodd" d="M3296.2 1379c21.46-.06 38.82-17.43 38.8-38.82v-331.5c-.04-21.345-17.39-38.642-38.8-38.68H3085v409Z"/>
    <path fill="#E0E0E0" fill-rule="evenodd" d="M3085.5 970c-21.24.057-38.44 17.343-38.5 38.68v322.94c0 26.17 21.11 47.38 47.15 47.38H3124v-370.32c-.06-21.337-17.26-38.623-38.5-38.68Zm846.49 146.32 13.76-169.521c2.74-27.942-17.66-52.815-45.57-55.556a50.52 50.52 0 0 0-5.57-.239h-492.5c-31.3.606-57.18 24.595-60.2 55.795l-13.76 169.521c-1.78 18.94 12.1 35.74 31.01 37.53 1.19.11 2.38.16 3.56.15h528.62c21.14-.39 38.63-16.6 40.65-37.68Z"/>
    <path fill="#F0F0F0" fill-rule="evenodd" d="m3863.02 1116.32 13.73-169.521c2.74-27.942-17.63-52.815-45.49-55.556a50.718 50.718 0 0 0-5.54-.24h-491.73c-31.25.606-57.09 24.596-60.1 55.796l-13.74 169.521c-1.78 18.94 12.08 35.74 30.97 37.53 1.12.1 2.25.15 3.38.15h527.96c21.1-.41 38.54-16.61 40.56-37.68Z"/>
    <path fill="#FFF" fill-rule="evenodd" d="M3191.25 994.932s-10.1-7.596-6.46-11.652c3.64-4.055 20.22 3.644 20.22 3.644s93.39-11.755 148.32-9.659c.38-7.389 7.69-10.311 13.74-8.936 6.04 1.375 0 13.405 0 13.405s38.52 98.296 37.28 147.786c6.18 5.3 12.29 9.04 6.01 11.59a12.75 12.75 0 0 1-11.91-2.17s-123.98 18.15-174.42 8.97c-3.43 6.88-10.67 5.43-14.83 3.44-4.15-1.99 2.78-11.82 2.78-11.82s-31.03-85.86-20.73-144.598Z"/>
    <path fill="#E6E6E6" fill-rule="evenodd" d="M3957.26 1379c21.42-.08 38.74-17.43 38.74-38.82v-331.5c-.06-21.337-17.37-38.623-38.74-38.68H3774v409Z"/>
    <path fill="#EBEBEB" fill-rule="evenodd" d="M3783 1191.83V1214h-631v-78h631v22.17Z"/>
    <path fill="#F0F0F0" fill-rule="evenodd" d="M3783 1367.31V1379h-604v-165h604v11.69Z"/>
    <path fill="#E0E0E0" fill-rule="evenodd" d="M3773.5 970c-21.24.057-38.44 17.343-38.5 38.68V1379h77v-370.32c-.06-21.337-17.26-38.623-38.5-38.68Zm169.14 417h-829.49c-3.95 0-7.15-3.58-7.15-8h844c-.02 4.44-3.25 8.02-7.22 8h-.14Z"/>
    <path fill="#F5F5F5" fill-rule="evenodd" d="M4032 1503c0 21.54-298.4 39-666.5 39s-666.5-17.46-666.5-39 298.4-39 666.5-39 666.5 17.46 666.5 39Z"/>
    <path fill="#263238" fill-rule="evenodd" d="M3992.79 529H4014v747H2887V529h21.21Z"/>
    <path fill="#263238" fill-rule="evenodd" d="M3602 1479h-253.26L3305 1036h253.26l43.74 443Z"/>
    <path fill="#00B0F0" fill-rule="evenodd" d="M3595 1479h-253.23L3298 1036h253.23l43.77 443Zm56.7 15H3328l3.43-15h308.49c6.68.01 12.09 5.46 12.08 12.18 0 .95-.11 1.9-.33 2.82Z"/>
    <path fill="#00B0F0" fill-rule="evenodd" d="M3596.43 1494H3273c2.08-8.8 9.89-15.01 18.87-15H3600Z"/>
    <path fill="#00B0F0" fill-rule="evenodd" d="M3623.47 1479h-32.37c-6.67-.01-12.09 5.42-12.1 12.14 0 .96.11 1.92.33 2.86H3627"/>
    <path fill-opacity=".2" fill-rule="evenodd" d="M3551.25 1036H3298l25.75 261H3577l-25.75-261Z"/>
    <path fill="#00B0F0" fill-rule="evenodd" d="M3985.81 529H4007v747H2881V529h21.19Z"/>
    <path fill-opacity=".2" fill-rule="evenodd" d="M3464 1224.5c0 10.77-8.95 19.5-20 19.5s-20-8.73-20-19.5 8.95-19.5 20-19.5 20 8.73 20 19.5Z"/>
    <path fill="#FFF" fill-rule="evenodd" d="M3988.99 573h9.01v596H2890V573h9.01Z"/>
    <path fill="url(#b)" fill-rule="evenodd" d="M3177.15 662.854c2.3 4.601.43 10.196-4.17 12.496-4.6 2.301-10.2.436-12.5-4.165l-17.82-35.644c-2.3-4.601-.43-10.196 4.17-12.497a9.308 9.308 0 0 1 12.49 4.166Z"/>
    <path fill="#0070C0" fill-rule="evenodd" d="M2979 641a8 8 0 0 1 8 8 8 8 0 0 1-8 8h-27a8 8 0 0 1-8-8 8 8 0 0 1 8-8Z"/>
    <path fill="#0070C0" fill-rule="evenodd" d="M2937 631.5c0-5.247 4.25-9.5 9.5-9.5s9.5 4.253 9.5 9.5v36c0 5.247-4.25 9.5-9.5 9.5s-9.5-4.253-9.5-9.5Zm37 0c0-5.247 4.25-9.5 9.5-9.5s9.5 4.253 9.5 9.5v36c0 5.247-4.25 9.5-9.5 9.5s-9.5-4.253-9.5-9.5Z"/>
    <path fill="url(#c)" fill-rule="evenodd" d="M3004 649c0-15.464 12.76-28 28.5-28s28.5 12.536 28.5 28-12.76 28-28.5 28-28.5-12.536-28.5-28Zm17.41 0c0 5.848 4.97 10.589 11.09 10.589s11.09-4.741 11.09-10.589c0-5.848-4.97-10.589-11.09-10.589s-11.09 4.741-11.09 10.589Z"/>
    <path fill="url(#d)" fill-rule="evenodd" d="M3139.48 671.181c-2.32 4.589-7.93 6.423-12.52 4.098-4.58-2.325-6.42-7.93-4.09-12.518l18.01-35.548c2.33-4.588 7.93-6.423 12.52-4.098s6.42 7.93 4.1 12.519Z"/>
    <path fill="url(#e)" fill-rule="evenodd" d="M3067.85 635.541c-2.3-4.601-.43-10.196 4.17-12.497a9.308 9.308 0 0 1 12.49 4.166l17.83 35.644c2.3 4.601.43 10.196-4.17 12.496a9.307 9.307 0 0 1-12.49-4.165Z"/>
    <path fill="url(#f)" fill-rule="evenodd" d="M3105.52 627.213c2.32-4.588 7.93-6.423 12.51-4.098 4.59 2.326 6.43 7.93 4.1 12.519l-18.01 35.547c-2.33 4.589-7.93 6.423-12.52 4.098s-6.42-7.93-4.1-12.518Z"/>
    <path fill="#0BB7D7" fill-rule="evenodd" d="M2947 818.667c0-19.146 15.52-34.667 34.67-34.667h42.66c19.15 0 34.67 15.521 34.67 34.667v282.663c0 19.15-15.52 34.67-34.67 34.67h-42.66c-19.15 0-34.67-15.52-34.67-34.67Z"/>
    <path fill="#0CC8EE" fill-rule="evenodd" d="M3124 898.977c0-19.318 15.66-34.977 34.98-34.977h43.04c19.32 0 34.98 15.659 34.98 34.977v202.043c0 19.32-15.66 34.98-34.98 34.98h-43.04c-19.32 0-34.98-15.66-34.98-34.98Z"/>
    <path fill="#0070C0" fill-rule="evenodd" d="M3302 872.667c0-19.146 15.52-34.667 34.67-34.667h42.66c19.15 0 34.67 15.521 34.67 34.667v228.663c0 19.15-15.52 34.67-34.67 34.67h-42.66c-19.15 0-34.67-15.52-34.67-34.67Z"/>
    <path fill="#FF0083" fill-rule="evenodd" d="M3479 1015.98c0-19.32 15.66-34.98 34.98-34.98h43.04c19.32 0 34.98 15.66 34.98 34.98v85.04c0 19.32-15.66 34.98-34.98 34.98h-43.04c-19.32 0-34.98-15.66-34.98-34.98Z"/>
    <path fill="#0CC8EE" fill-rule="evenodd" d="M3657 716.663c0-19.144 15.52-34.663 34.66-34.663h42.66c19.15 0 34.67 15.519 34.67 34.663v384.677c0 19.14-15.52 34.66-34.67 34.66h-42.66c-19.14 0-34.66-15.52-34.66-34.66Z"/>
    <path fill="#F1C40F" fill-rule="evenodd" d="M3834 924.667c0-19.146 15.52-34.667 34.67-34.667h42.66c19.15 0 34.67 15.521 34.67 34.667v176.663c0 19.15-15.52 34.67-34.67 34.67h-42.66c-19.15 0-34.67-15.52-34.67-34.67Z"/>
    <path fill="none" stroke="#FFF" stroke-linecap="round" stroke-linejoin="round" stroke-miterlimit="10" stroke-width="20.625" d="m3511.5 1070.12 26.73 21.38 22.27-62"/>
    <path fill="#40BBFF" fill-rule="evenodd" d="M3866 858.781 3845.01 867l-4.31-7.977-1.68-3.143-6.39-11.845-1.67-3.142-6.31-11.765-1.68-3.223-11.97-22.159L3848.28 789l1.52 6.124 1.03 3.948 3.76 14.907 1.03 4.029 3.76 14.827 1.03 3.867 5.59 22.079Z"/>
    <path fill="#FFF" fill-rule="evenodd" d="M3824.76 829c8.64-9.749 19.36-21.995 26.24-30.052l-1.04-3.948c-5.92 7.01-16.56 19.095-26.96 30.777Zm6.24 10.863c8.01-9.088 16.83-18.901 24.04-26.863l.96 4.021L3832.92 843Zm30-3.875A2447.63 2447.63 0 0 1 3840.72 859l-1.72-3.24 20.93-23.76Z"/>
    <path fill="#40BBFF" fill-rule="evenodd" d="M3249.23 607.963c3.91 2.168 7.99 4.417 11.51 6.906 3.52 2.489 7.35 4.897 10.95 8.029 3.6 3.131 7.04 5.46 10.48 8.029 3.43 2.569 6.63 5.942 9.83 9.073a240.725 240.725 0 0 0-10.39-4.336l-5.28-1.846a56.052 56.052 0 0 0-5.2-1.687c-3.35-2.649-6.79-5.219-10.31-7.627-3.52-2.409-7.2-4.738-10.87-6.906-3.68-2.167-7.44-4.094-11.28-5.941-3.8-1.75-7.7-3.308-11.67-4.657h16.55Z"/>
    <path fill-rule="evenodd" d="M3249.23 607.963c3.91 2.168 7.99 4.417 11.51 6.906 3.52 2.489 7.35 4.897 10.95 8.029 3.6 3.131 7.04 5.46 10.48 8.029 3.43 2.569 6.63 5.942 9.83 9.073a240.725 240.725 0 0 0-10.39-4.336l-5.28-1.846a56.052 56.052 0 0 0-5.2-1.687c-3.35-2.649-6.79-5.219-10.31-7.627-3.52-2.409-7.2-4.738-10.87-6.906-3.68-2.167-7.44-4.094-11.28-5.941-3.8-1.75-7.7-3.308-11.67-4.657h16.55Z"/>
    <path fill="#40BBFF" fill-rule="evenodd" d="M3390.72 620a24.989 24.989 0 0 0-11.39 9.682 28.955 28.955 0 0 0-7.33 13.538c0 1.641 8.63 11.405 9.52 10.749 3.91-2.544 6.11-8.205 9.04-11.569a54.861 54.861 0 0 0 9.44-11.979 26.476 26.476 0 0 0-9.28-10.421Zm66.05 296c-1.57 1.597-2.55 3.641-2.78 5.82a13.096 13.096 0 0 0-.82 7.079c.49 2.045 3.6 4.562 5 5.977 1.39 1.416 3.77 4.483 4.67 4.09.9-.393 1.64-4.955 1.88-6.843.37-2.611.37-5.253 0-7.865 0-1.022-7.29-8.73-8.19-7.865Z"/>
    <path fill-rule="evenodd" d="M3456.77 916c-1.57 1.597-2.55 3.641-2.78 5.82a13.096 13.096 0 0 0-.82 7.079c.49 2.045 3.6 4.562 5 5.977 1.39 1.416 3.77 4.483 4.67 4.09.9-.393 1.64-4.955 1.88-6.843.37-2.611.37-5.253 0-7.865 0-1.022-7.29-8.73-8.19-7.865Z"/>
    <path fill="#40BBFF" fill-rule="evenodd" d="M3861.83 617.021c-1.56 1.611-2.57 3.638-2.87 5.815a12.247 12.247 0 0 0-.74 7.072c.49 2.043 3.61 4.558 4.92 5.972 1.31 1.414 3.77 4.479 4.67 4.086.9-.393 1.64-4.951 1.88-6.837.41-2.601.41-5.257 0-7.858 0-1.021-7.21-8.722-8.19-8.25Z"/>
    <path fill-rule="evenodd" d="M3861.83 617.021c-1.56 1.611-2.57 3.638-2.87 5.815a12.247 12.247 0 0 0-.74 7.072c.49 2.043 3.61 4.558 4.92 5.972 1.31 1.414 3.77 4.479 4.67 4.086.9-.393 1.64-4.951 1.88-6.837.41-2.601.41-5.257 0-7.858 0-1.021-7.21-8.722-8.19-8.25Z"/>
    <path fill="#40BBFF" fill-rule="evenodd" d="M3608.82 711.241c-5.55 6.824-8.96 15.232-9.82 24.113 0 2.171 8.43 9.244 8.27 9.646 1.78-3.858 2.24-8.52 3.71-12.539a61.135 61.135 0 0 1 5.95-11.976c.93-1.528-8.11-9.405-8.11-9.485Zm247.5-33c-5.81 6.848-9.41 15.248-10.32 24.114 0 2.17 8.93 9.243 8.69 9.645 1.96-3.939 2.37-8.52 4.01-12.619a68.995 68.995 0 0 1 6.23-11.977c.98-1.447-8.61-9.404-8.61-9.404Z"/>
    <path fill="#F1C40F" fill-rule="evenodd" d="M3527 631.945c-6.04-6.828-14.03-11.688-22.94-13.945-2.13 0-10.65 7.255-11.06 7.013 3.69 2.418 8.19 3.627 12.04 5.803a66.94 66.94 0 0 1 11.06 8.061c1.31 1.209 10.82-6.852 10.9-6.852Z"/>
    <path fill="#40BBFF" fill-rule="evenodd" d="M3537.14 998.168v.656c2.29 1.176-.81-4.061 0-.656ZM3850 753.353s-11.2-11.66-13.28-10.232a19.427 19.427 0 0 1-9.92 3.252c-2.3.056-4.58-.206-6.8-.793a63.829 63.829 0 0 0 6.48 7.932l3.04 1.427a20.225 20.225 0 0 0 20.48-1.586Z"/>
    <path fill-opacity=".2" fill-rule="evenodd" d="M3850 753.353s-11.2-11.66-13.28-10.232a19.427 19.427 0 0 1-9.92 3.252c-2.3.056-4.58-.206-6.8-.793a63.829 63.829 0 0 0 6.48 7.932l3.04 1.427a20.225 20.225 0 0 0 20.48-1.586Z"/>
    <path fill="#40BBFF" fill-rule="evenodd" d="m3818.77 744.676 1.71 2.961c-6.67-4.402-8.13-5.842-5.12-4.242.75.401 1.53.721 2.35.961h1.06a37.587 37.587 0 0 1-4.87-9.125 59.182 59.182 0 0 1-2.52-15.048c-1.14-21.131 3.17-42.182 2.03-63.314-.35-15.112-4.9-29.839-13.16-42.582A55.137 55.137 0 0 0 3784 601v.4a58.714 58.714 0 0 1 7.56 12.326 84.398 84.398 0 0 1 6.9 28.016c1.95 23.292-3.82 46.424-1.95 69.636a43.634 43.634 0 0 0 9.34 25.614c5.72 6.451 12.55 11.862 20.15 16.009a64.209 64.209 0 0 1-6.58-8.005Z"/>
    <path fill="#40BBFF" fill-rule="evenodd" d="M3815.67 743.628c-3.39-1.65-1.61 0 5.33 4.372l-1.78-3.052h-1.1c-.86-.347-1.69-.792-2.45-1.32Z"/>
    <path fill="#FFB3DB" fill-rule="evenodd" d="M3570.78 792.003a93.993 93.993 0 0 0-32.24 8.963 50.538 50.538 0 0 0-13.22 7.932c-3.54 3.49-2.42 7.059-.64 11.343a36.708 36.708 0 0 0 2.25 4.759 3.398 3.398 0 0 1 0-1.19c.29-1.19.78-2.316 1.45-3.331h-.4c.53-.786 1.15-1.5 1.85-2.142a71.863 71.863 0 0 1 20.4-11.66c7.63-3.244 15.6-5.64 23.77-7.139 0 0-2.18-7.694-3.22-7.535Zm-43.85 31.728Z"/>
    <use xlink:href="#g" fill-rule="evenodd"/>
    <use xlink:href="#g" fill-rule="evenodd"/>
    <path fill="#FFB3DB" fill-rule="evenodd" d="M3589.62 851.361a206.902 206.902 0 0 1-23.64 7.153c-8.05 2.385-16.09 4.934-24.61 7.4a39.65 39.65 0 0 0-12.15 4.769 7.35 7.35 0 0 0-2.17 5.59c-.04.576-.04 1.152 0 1.727a23.404 23.404 0 0 1-3.06-5.509c-1.6-4.028-3.53-8.221 0-11.181a29.747 29.747 0 0 1 12.87-5.426 2282.89 2282.89 0 0 0 38.53-11.429c4.5-1.315 12.06-2.467 14.79-6.906l1.45-1.48.48-.658V835c.41.822.73 1.644 1.13 2.549a14.065 14.065 0 0 1 1.69 8.222 9.692 9.692 0 0 1-5.31 5.59Zm1.17 42.506A60.486 60.486 0 0 1 3562 904c-1.19 0-4.23-9.329-3.99-9.409a125.719 125.719 0 0 0 18.03-5.468 80.573 80.573 0 0 0 7.97-4.263c1.43-.74 2.75-1.689 3.91-2.815.26-.321.46-.675.64-1.045l1.19.644 1.28 1.045c.8.885 1.2 1.126 1.2.885.41.337.78.707 1.11 1.125a7.421 7.421 0 0 1-2.55 9.168Z"/>
    <path fill="#FFB3DB" fill-rule="evenodd" d="M3593.68 885.416c-.34-.434-.7-.818-1.12-1.169-.73-.784-1.57-1.46-2.48-2.002l-1.2-.668a15.262 15.262 0 0 0-3.84-1.168 55.263 55.263 0 0 0-9.83 0h-20.87c-6.77.417-13.55.417-20.31 0-2.29-.133-4.43-1.176-6-2.921-.04-.584-.04-1.168 0-1.752-.1-2.128.69-4.197 2.16-5.674 3.51.259 7.04.259 10.55 0h35.67c4.26-.384 8.5 1.026 11.75 3.922 2.79 3.496 4.78 7.602 5.84 12.016Z"/>
    <path fill="#FFB3DB" fill-rule="evenodd" d="M3593.68 885.416c-.34-.434-.7-.818-1.12-1.169-.73-.784-1.57-1.46-2.48-2.002l-1.2-.668a15.262 15.262 0 0 0-3.84-1.168 55.263 55.263 0 0 0-9.83 0h-20.87c-6.77.417-13.55.417-20.31 0-2.29-.133-4.43-1.176-6-2.921-.04-.584-.04-1.168 0-1.752-.1-2.128.69-4.197 2.16-5.674 3.51.259 7.04.259 10.55 0h35.67c4.26-.384 8.5 1.026 11.75 3.922 2.79 3.496 4.78 7.602 5.84 12.016ZM3590 883l-1-1Z"/>
    <path fill="#FFB3DB" fill-rule="evenodd" d="M3591.55 883.083 3590 882c1.1.542 2.11 1.217 3 2 0 0-.48 0-1.45-.917Z"/>
    <path fill="#FF0083" fill-rule="evenodd" d="M3359.15 818.914a93.765 93.765 0 0 0 17.68-28.192 51.308 51.308 0 0 0 4.17-14.732c0-4.938-2.91-6.849-7.07-8.84a31.873 31.873 0 0 0-4.72-2.15l.63 1.115c.56 1.075.95 2.23 1.18 3.424h.39c.17.924.17 1.864 0 2.788a70.426 70.426 0 0 1-6.99 22.218 118.914 118.914 0 0 1-12.42 21.104s6.52 3.982 7.15 3.265Zm10.85-52.481Z"/>
    <use xlink:href="#h" fill-rule="evenodd"/>
    <use xlink:href="#h" fill-rule="evenodd"/>
    <path fill="#FF0083" fill-rule="evenodd" d="M3304.26 787.225c3.92-7.291 8.3-14.34 13.08-21.107 4.58-7.25 9.08-14.581 13.58-21.912a37.942 37.942 0 0 0 5.97-11.6 7.191 7.191 0 0 0-2.13-5.559 8.49 8.49 0 0 0-1.39-1.047c2.08.346 4.09.999 5.97 1.933 3.93 1.853 8.18 3.384 7.61 8.056a29.583 29.583 0 0 1-6.14 12.567 3871.056 3871.056 0 0 0-21.42 34.157c-2.46 4.028-7.44 9.909-6.54 14.984-.04.669-.04 1.346 0 2.014V801l-2.54-1.128a13.54 13.54 0 0 1-6.79-4.833c-.9-2.586-.63-5.43.74-7.814Zm-29.09-31.293a62.78 62.78 0 0 1 14.66-26.845c.8-.799 9.33 4.155 9.17 4.314a123.003 123.003 0 0 0-9.64 15.979 60.564 60.564 0 0 0-3.43 8.708 16.754 16.754 0 0 0-1.04 4.794c-.04.368-.04.751 0 1.119H3279a7.273 7.273 0 0 1-3.83-8.069Z"/>
    <use xlink:href="#i" fill-rule="evenodd"/>
    <use xlink:href="#i" fill-rule="evenodd"/>
    <path fill="#FF0083" fill-rule="evenodd" d="M3281.95 765.283h2.05c-1.33.957-2.67.957-4 0 0 0 0-.638 1.95 0Z"/>
    <path fill="#40BBFF" fill-rule="evenodd" d="M3648 914c-1.85 2.269-3.53 4.773-5.22 7.198-2.38 4.655-6.24 8.441-11 10.796-10.04 4.303-21.6 1.173-32.12 0-1.29 0-4.5 6.571-4.66 6.493 9.69 3.998 20.5 4.6 30.6 1.722 4.8-1.956 8.94-5.18 11.96-9.31l1.61-2.426c2.89-5.085 5.86-9.779 8.83-14.473Zm37-334c-.88 4.497-1.45 9.156-1.93 13.734a38.904 38.904 0 0 1-7.32 22.81c-10.77 13.092-28.78 16.706-43.98 22.007-1.93.643-1.45 12.369-1.77 12.449a69.916 69.916 0 0 0 42.78-19.115 42.306 42.306 0 0 0 9.73-21.445v-4.498c1.12-8.674 1.85-17.348 2.49-25.942Z"/>
    <path fill-opacity=".2" fill-rule="evenodd" d="M3685 580c-.88 4.497-1.45 9.156-1.93 13.734a38.904 38.904 0 0 1-7.32 22.81c-10.77 13.092-28.78 16.706-43.98 22.007-1.93.643-1.45 12.369-1.77 12.449a69.916 69.916 0 0 0 42.78-19.115 42.306 42.306 0 0 0 9.73-21.445v-4.498c1.12-8.674 1.85-17.348 2.49-25.942Z"/>
    <path fill="#40BBFF" fill-rule="evenodd" d="M3460.95 760.391c16.98-7.405 35.56-7.003 53.5-9.82 1.12 0 1.84-10.384 1.44-10.464-29.55-4.025-70.79 1.931-82.41 34.531-1 2.89-1.81 5.852-2.4 8.855-.64 8.613-1.36 17.306-2.08 26V814a193.628 193.628 0 0 0 2.32-19.801c1.04-15.858 16.18-28.012 29.63-33.808Z"/>
    <path fill="#D9D9D9" fill-rule="evenodd" d="M2944 1518h-15v-157h126v157h-15Z"/>
    <path fill="#D9D9D9" fill-rule="evenodd" d="M2950 1495c-29.82 0-54-24.85-54-55.5s24.18-55.5 54-55.5 54 24.85 54 55.5c-.04 30.64-24.19 55.46-54 55.5Zm0-103.6c-25.85 0-46.8 21.53-46.8 48.1s20.95 48.1 46.8 48.1c25.85 0 46.8-21.53 46.8-48.1-.04-26.55-20.97-48.06-46.8-48.1Z"/>
  </g>
</svg>
