<svg xmlns="http://www.w3.org/2000/svg" xml:space="preserve" width="2312" height="1465" overflow="hidden"><defs><linearGradient id="b" x1="1793.42" x2="1774.78" y1="734.924" y2="699.262" gradientUnits="userSpaceOnUse" spreadMethod="reflect"><stop offset="0" stop-color="#00B0F0"/><stop offset=".88" stop-color="#00B0F0"/><stop offset="1" stop-color="#52DFD2"/></linearGradient><linearGradient id="c" x1="1727.15" x2="1686.85" y1="716.514" y2="716.824" gradientUnits="userSpaceOnUse" spreadMethod="reflect"><stop offset="0" stop-color="#00B0F0"/><stop offset=".32" stop-color="#00B0F0"/><stop offset=".87" stop-color="#0070C0"/><stop offset="1" stop-color="#0070C0"/></linearGradient><linearGradient id="d" x1="1760.47" x2="1783.86" y1="732.145" y2="701.937" gradientUnits="userSpaceOnUse" spreadMethod="reflect"><stop offset="0" stop-color="#00B0F0"/><stop offset=".29" stop-color="#00B0F0"/><stop offset="1" stop-color="#52DFD2"/></linearGradient><linearGradient id="e" x1="1729.54" x2="1748.18" y1="699.064" y2="734.726" gradientUnits="userSpaceOnUse" spreadMethod="reflect"><stop offset="0" stop-color="#00B0F0"/><stop offset=".88" stop-color="#00B0F0"/><stop offset="1" stop-color="#52DFD2"/></linearGradient><linearGradient id="f" x1="1762.48" x2="1739.09" y1="701.843" y2="732.051" gradientUnits="userSpaceOnUse" spreadMethod="reflect"><stop offset="0" stop-color="#00B0F0"/><stop offset=".29" stop-color="#00B0F0"/><stop offset="1" stop-color="#52DFD2"/></linearGradient><clipPath id="a"><path d="M989 610h2312v1465H989z"/></clipPath></defs><g fill-rule="evenodd" clip-path="url(#a)" transform="translate(-989 -610)"><path fill="#EBEBEB" d="M2758 1913h149v1h-149ZM2333 1925h39v1h-39ZM2667 1871h87v1h-87ZM1115 1879h194v1h-194ZM1350 1879h28v1h-28ZM1471 1898h423v1h-423ZM1077 1825h2060v16.01H1077Z"/><path fill="#F5F5F5" d="M1360.31 1842h-115.62c-8.85 0-16.18-6.84-16.77-15.63l-15.87-241.35c-.72-9.2 6.18-17.25 15.41-17.97.45-.04.91-.05 1.36-.05h147.41c9.26 0 16.77 7.48 16.77 16.71 0 .43-.01.87-.05 1.31l-15.87 241.35c-.59 8.79-7.92 15.63-16.77 15.63Z"/><path fill="#EBEBEB" d="M1392.46 1579.58c-1.87-7.38-8.55-12.56-16.22-12.58h-147.58c-7.66.02-14.34 5.2-16.21 12.58l-.45 6.92.45 6.92c1.88 7.37 8.55 12.54 16.21 12.58h147.68c7.66-.04 14.33-5.21 16.21-12.58l.45-6.92Z"/><path fill="#F0F0F0" d="M1223.13 1346.16c-18.86-23.17-55.32-38.6-95.35-46.02 3.12 11.38.77 21.91-6.02 24.47-7.55 2.88-17.68-5.17-22.61-17.99-1.32-3.41-2.16-6.98-2.49-10.62-40.35-3.24-80.75 1.35-107.66 14.22 0 0 26.37 23.66 56.23 85.83h2.8c19.32 0 34.92 9.49 34.79 20.74 0 8.23-8.55 15.2-20.63 18.31 1.58 4 3.17 8.05 4.52 12.23 28.5 76.48 104.4 21.24 103.73-31.22.18-.04 94.99-18.13 52.69-69.95Z"/><path fill="#E0E0E0" d="m1021 1321-2-1ZM1138.43 1385.47c-.63-9.58 0-35.06 23.51-49.7 0 0-25.9 3.89-29.64 44.87-33.75-25.85-71.3-46.3-111.3-60.64 12 4.52 73.09 29.46 135.93 88.79-21.02 1.33-39.49 14.43-47.73 33.84 0 0 20.12-29.01 54.5-27.38 49.83 49.04 88.04 108.66 111.79 174.46 1.22 3.38 4.95 5.12 8.32 3.9.01-.01.02-.01.03-.01 3.31-1.24 4.99-4.94 3.75-8.26-.02-.05-.03-.1-.05-.15-10.06-25.21-53.65-124.3-149.11-199.72ZM1332.24 1346.62c12.7-27.1 44.23-50.86 81.07-67.75-.27 11.88 4.5 21.54 11.67 22.58 8.01 1 15.85-9.3 17.52-22.99.5-3.62.5-7.3 0-10.93 38.23-12.87 78.36-18.07 107.5-12.01 0 0-19.82 29.36-33.69 97.16l-2.7.58c-18.65 4.84-31.53 17.66-28.64 28.59 2.07 8 11.93 12.79 24.32 12.88-.54 4.29-1.08 8.58-1.58 13.05-9.01 81.53-95.75 45.8-107.73-5.46-.09-.14-96.11 5.01-67.74-55.7Z"/><path fill="#F5F5F5" d="m1521 1273 2-1ZM1326.05 1594.69c-.45 3.56 2.07 6.82 5.63 7.27h.01c3.56.39 6.78-2.18 7.17-5.75v-.03c7.27-69.62 30.07-136.71 66.71-196.31 32.93-9.85 59.45 13.55 59.45 13.55-12.64-16.98-33.82-25.3-54.62-21.46 46.73-72.74 100.05-111.69 110.6-118.96-35.38 23.61-66.89 52.57-93.41 85.84-13.54-38.85-39.56-36.14-39.56-36.14 26.2 8.49 33.06 33.07 34.73 42.51-74.34 95.79-93.01 202.55-96.71 229.48ZM1358.66 1338.14c-5.96-29.16-31.14-59.53-63.18-84.46-2.48 11.54-9.43 19.77-16.6 18.96-8.04-.95-13.27-12.72-11.69-26.33.41-3.63 1.32-7.18 2.71-10.56-34.21-21.38-72.21-35.94-101.9-36.75 0 0 12.41 33.07 10.06 101.85.85.36 1.68.77 2.49 1.22 17.01 8.98 26.53 24.39 21.21 34.32-3.89 7.23-14.58 9.57-26.72 6.78-.45 4.23-.95 8.54-1.49 12.99-10.29 80.87 82.54 66.67 106.23 19.9.04 0 92.33 27.36 78.88-37.92Z"/><path fill="#E0E0E0" d="m1192 1223-1-2ZM1266.16 1334.95c3.84-8.74 16.27-30.98 43.84-33.1 0 0-24.86-8.51-47.09 26.03-18.06-38.4-41.98-73.78-70.91-104.88 8.59 9.5 51.38 59.71 79.86 141.13-19.3-8.55-41.8-5.49-58.08 7.93 0 0 31.28-16.26 61.01.85 21.7 66.33 28.16 136.66 18.9 205.8-.5 3.5 1.94 6.73 5.45 7.23.05.01.1.02.15.02 3.55.39 6.74-2.15 7.14-5.69v-.03c2.8-26.97 9.63-134.78-40.27-245.29Z"/><path fill="#F5F5F5" d="M1228.81 1143H1213l114.19-508H1343l-114.19 508ZM1201.16 1143H1155l113.84-508H1315l-113.84 508Z"/><path fill="#FAFAFA" d="M1336.17 1143H1272l113.83-508H1450l-113.83 508Z"/><path fill="#EBEBEB" d="M1478 1161h-357V618h357Zm-334.42-22.57h311.84V640.567h-311.84Z"/><path fill="#E0E0E0" d="M1092 1138h415v23h-415Z"/><path fill="#EBEBEB" d="M1292 629h14v520h-14Z"/><path fill="#E0E0E0" d="M1132 883h334v13.001h-334Z"/><path fill="#F5F5F5" d="M2859 1976c0 28.17-391.75 51-875 51s-875-22.83-875-51 391.75-51 875-51 875 22.83 875 51Z"/><path fill="#407BFF" d="m2139.88 1951.64 84.64-83.98 84.65 83.98c2.18 2.16 5.15 3.37 8.23 3.36 6.42-.01 11.61-5.18 11.6-11.55 0-3.06-1.23-5.99-3.41-8.14L2224.52 1835l-101.1 100.31c-4.55 4.49-4.56 11.79-.03 16.3 2.19 2.18 5.16 3.39 8.26 3.39 3.08 0 6.04-1.21 8.23-3.36Z"/><path fill-opacity=".2" d="M2227.32 1837h-5.68l-25.64 26.09V1895h1.21l27.29-27.77 27.29 27.77h1.21v-31.91l-25.68-26.09Z"/><path fill="#407BFF" d="M2207 1657h35v284.49c0 7.46-6.14 13.51-13.71 13.51h-7.58c-7.57 0-13.71-6.05-13.71-13.51V1657Z"/><path fill-opacity=".2" d="M2207 1657h35v21h-35Z"/><path fill="#407BFF" d="M2839.32 1665H1609.77c-25.28-.05-45.75-20.55-45.77-45.85V621h1321v998.15c-.02 25.26-20.44 45.75-45.68 45.85ZM1579.42 636.478v982.672c.03 16.77 13.6 30.35 30.35 30.37h1229.55c16.75-.02 30.32-13.6 30.35-30.37V636.478Z"/><path fill="#FFF" d="M2839.32 1665H1609.77c-25.28-.05-45.75-20.55-45.77-45.85V621h1321v998.15c-.02 25.26-20.44 45.75-45.68 45.85ZM1579.42 636.478v982.672c.03 16.77 13.6 30.35 30.35 30.37h1229.55c16.75-.02 30.32-13.6 30.35-30.37V636.478Z"/><path fill="#FFF" d="M1579 636v982.63c.03 16.77 13.6 30.34 30.37 30.37h1230.26c16.77-.02 30.34-13.6 30.37-30.37V636Z"/><path fill="#F2F2F2" d="M1534 611h1381v35H1534Z"/><path fill="#407BFF" d="M2444 1444.55v-6.58h-50.51V1387h-6.54v50.97h-48.75V1387h-6.58v50.97h-47.76V1387h-6.58v50.97h-47.35V1387h-6.54v50.97h-48.61V1387h-6.77v50.97H2118v6.58h50.01v47.69H2118v6.57h50.01v47.69H2118v6.57h50.01V1604h6.59v-50.93h48.61V1604h6.54v-50.93h47.35V1604h6.58v-50.93h47.76V1604h6.58v-50.93h48.62V1604h6.85v-50.93H2444v-6.57h-50.51v-47.69H2444v-6.57h-50.51v-47.69Zm-112.38 0v47.69h-47.76v-47.69Zm-54.12 0v47.69h-47.35v-47.69Zm-102.5 0h48.61v47.69h-48.83Zm0 101.95v-47.69h48.61v47.69Zm55.15 0v-47.69h47.35v47.69Zm54.12 0v-47.69h47.76v47.69Zm102.95 0h-49.02v-47.69h48.62Zm0-54.26h-49.02v-47.69h48.62Z"/><path fill="#FFF" fill-opacity=".701961" d="M2444 1444.55v-6.58h-50.51V1387h-6.54v50.97h-48.75V1387h-6.58v50.97h-47.76V1387h-6.58v50.97h-47.35V1387h-6.54v50.97h-48.61V1387h-6.77v50.97H2118v6.58h50.01v47.69H2118v6.57h50.01v47.69H2118v6.57h50.01V1604h6.59v-50.93h48.61V1604h6.54v-50.93h47.35V1604h6.58v-50.93h47.76V1604h6.58v-50.93h48.62V1604h6.85v-50.93H2444v-6.57h-50.51v-47.69H2444v-6.57h-50.51v-47.69Zm-112.38 0v47.69h-47.76v-47.69Zm-54.12 0v47.69h-47.35v-47.69Zm-102.5 0h48.61v47.69h-48.83Zm0 101.95v-47.69h48.61v47.69Zm55.15 0v-47.69h47.35v47.69Zm54.12 0v-47.69h47.76v47.69Zm102.95 0h-49.02v-47.69h48.62Zm0-54.26h-49.02v-47.69h48.62Z"/><path fill="#407BFF" d="M2428 1611h-293.18c-12.71-.02-23.03-10.31-23.1-23.05l-.72-184.67c-.08-12.79 10.2-23.2 22.96-23.28h293.9c12.78 0 23.14 10.38 23.14 23.19v184.67c-.02 12.74-10.29 23.07-23 23.14Zm-293.77-217.8c-5.51.02-9.97 4.51-9.97 10.03l.72 184.68c.05 5.48 4.5 9.92 9.97 9.94h293.18c5.51 0 9.99-4.47 10.02-9.99v-184.67c-.03-5.53-4.51-9.99-10.02-9.99Z"/><path fill="#FFF" d="M2428 1611h-293.18c-12.71-.02-23.03-10.31-23.1-23.05l-.72-184.67c-.08-12.79 10.2-23.2 22.96-23.28h293.9c12.78 0 23.14 10.38 23.14 23.19v184.67c-.02 12.74-10.29 23.07-23 23.14Zm-293.77-217.8c-5.51.02-9.97 4.51-9.97 10.03l.72 184.68c.05 5.48 4.5 9.92 9.97 9.94h293.18c5.51 0 9.99-4.47 10.02-9.99v-184.67c-.03-5.53-4.51-9.99-10.02-9.99Z"/><path fill="#407BFF" d="M2390 1480v-27h-266l.09 27H2390Z"/><path fill="#FFF" fill-opacity=".6" d="M2390 1480v-27h-266l.09 27H2390Z"/><path fill="#407BFF" d="M2335 1400h-210.5c-.31.97-.47 1.98-.5 3v24h211Z"/><path fill="#FFF" fill-opacity=".301961" d="M2335 1400h-210.5c-.31.97-.47 1.98-.5 3v24h211Z"/><path fill="#407BFF" d="M2418 1563h-293v24.13c.03.98.19 1.94.5 2.87h292.41Z"/><path fill-opacity=".2" d="M2418 1563h-293v24.13c.03.98.19 1.94.5 2.87h292.41Z"/><path fill="#407BFF" d="M2281 1536v-27h-157l.14 27H2281Z"/><path fill="#F2F2F2" d="M2821 789.905v-6.537h-105.44V678h-6.54v105.368h-102.2V678h-6.54v105.368h-102.15V678h-6.58v105.368h-101.97V678h-6.77v105.368h-102.15V678h-6.59v105.368h-102.14V678h-6.59v105.368h-102.15V678h-6.59v105.368h-102.14V678h-6.55v105.368h-102.15V678h-6.63v105.368h-102.1V678h-6.59v105.368H1625v6.537h105.44v102.077H1625v6.582h105.44v102.076H1625v6.58h105.44v102.08H1625v6.58h105.44v102.08H1625v6.67h105.44V1330h6.59v-105.37h102.1V1330h6.59v-105.37h102.15V1330h6.54v-105.37h102.19V1330h6.59v-105.37h102.15V1330h6.59v-105.37h102.14V1330h6.59v-105.37h102.15V1330h6.77v-105.37h101.97V1330h6.58v-105.37h102.15V1330h6.54v-105.37h102.2V1330h6.54v-105.37H2821v-6.58h-105.44v-102.17H2821v-6.58h-105.44v-102.08H2821v-6.58h-105.44V898.564H2821v-6.582h-105.44V789.905Zm-220.72 0v102.077h-102.15V789.905Zm-217.47 210.735h-102.15V898.564h102.15Zm6.77-102.076h101.97v102.076h-101.97Zm-115.51 102.076h-102.14V898.564h102.14Zm-108.73 0h-102.15V898.564h102.15Zm-108.74 0h-102.14V898.564h102.14Zm-108.69 0h-102.15V898.564h102.15Zm0 6.58v102.08h-102.15v-102.08Zm6.55 0h102.14v102.08h-102.14Zm108.73 0h102.15v102.08h-102.15Zm108.74 0h102.14v102.08h-102.14Zm108.73 0h102.15v102.08h-102.15Zm108.74 0h102.15v102.08h-101.97Zm108.73 0h102.15v102.08h-102.15Zm0-6.58V898.564h102.15v102.076Zm-6.58-210.735v102.077h-101.97V789.905Zm-108.74 0v102.077h-102.15V789.905Zm-108.74 0v102.077h-102.14V789.905Zm-108.73 0v102.077h-102.15V789.905Zm-108.74 0v102.077h-102.14V789.905Zm-108.69 0v102.077h-102.15V789.905Zm-210.88 0h102.1v102.077h-102.1Zm0 108.659h102.1v102.076h-102.1Zm0 108.656h102.1v102.08h-102.1Zm0 210.74v-102.08h102.1v102.08Zm108.73 0v-102.08h102.15v102.08Zm108.7 0v-102.08h102.14v102.08Zm108.73 0v-102.08h102.15v102.08Zm108.74 0v-102.08h102.14v102.08Zm108.73 0v-102.08h102.15v102.08Zm108.74 0v-102.08h102.15v102.08Zm108.73 0v-102.08h102.15v102.08Zm210.89 0h-102.2v-102.08h102.2Zm0-108.66h-102.2v-102.08h102.2Zm0-108.66h-102.2V898.564h102.2Zm0-108.658h-102.2V789.905h102.2Z"/><path fill="#407BFF" d="M2803.27 1337H1641.73c-13.09 0-23.7-10.61-23.73-23.7V694.749c.03-13.107 10.63-23.722 23.73-23.749h1161.54c13.1.027 23.7 10.642 23.73 23.749V1313.3c-.03 13.09-10.64 23.7-23.73 23.7ZM1641.73 684.184c-5.84.027-10.56 4.767-10.56 10.61v618.546c-.01 2.8 1.09 5.48 3.07 7.45 1.99 1.99 4.68 3.11 7.49 3.12h1161.54c5.83 0 10.56-4.74 10.56-10.57V694.794c0-5.843-4.72-10.583-10.56-10.61Z"/><path fill="#FFF" d="M2803.27 1337H1641.73c-13.09 0-23.7-10.61-23.73-23.7V694.749c.03-13.107 10.63-23.722 23.73-23.749h1161.54c13.1.027 23.7 10.642 23.73 23.749V1313.3c-.03 13.09-10.64 23.7-23.73 23.7ZM1641.73 684.184c-5.84.027-10.56 4.767-10.56 10.61v618.546c-.01 2.8 1.09 5.48 3.07 7.45 1.99 1.99 4.68 3.11 7.49 3.12h1161.54c5.83 0 10.56-4.74 10.56-10.57V694.794c0-5.843-4.72-10.583-10.56-10.61Z"/><path fill="#00B0F0" d="M1864 1037h65v287h-65Z"/><path fill="#407BFF" d="M1973 939h65v385h-65Z"/><path fill="#FFF" fill-opacity=".6" d="M1973 939h65v385h-65Z"/><path fill="#407BFF" d="M2081 1037h66v287h-66Z"/><path fill="#00AEEE" d="M2081 1037h66v287h-66Z"/><path fill="#407BFF" d="M1646 1135h66v189h-66Z"/><path fill="#FFF" fill-opacity=".6" d="M1646 1135h66v189h-66Z"/><path fill="#407BFF" d="M1755 1087h65v237h-65Z"/><path fill="#FFF" fill-opacity=".301961" d="M1755 1087h65v237h-65Z"/><path fill="#FF0083" d="M2190 1135h65v189h-65Z"/><path fill="#407BFF" d="M2734 841h65v483h-65Z"/><path fill="#FFF" fill-opacity=".301961" d="M2734 841h65v483h-65Z"/><path fill="#407BFF" d="M2299 1037h65v287h-65Z"/><path fill="#FFF" fill-opacity=".6" d="M2299 1037h65v287h-65Z"/><path fill="#407BFF" d="M2625 939h65v385h-65Z"/><path fill="#FFF" fill-opacity=".6" d="M2625 939h65v385h-65Z"/><path fill="#F1C40F" d="M2516 990h65v334h-65Z"/><path fill="#407BFF" d="M2407 1087h66v237h-66Z"/><path fill="#0070C0" fill-opacity=".301961" d="M2407 1087h66v237h-66Z"/><path fill="#FF0083" d="M2668 1387v26.85c16.94 1.38 33 8.08 45.9 19.15l19.1-19.11c-18.03-16.01-40.93-25.48-65-26.89Z"/><path fill="#00B0F0" d="M2654.82 1576.74c-39.85-3.25-71.49-34.89-74.74-74.74H2553c3.34 54.89 47.11 98.66 102 102Z"/><path fill="#407BFF" d="M2580.26 1488.82c3.24-39.87 34.88-71.52 74.74-74.73V1387c-54.89 3.3-98.67 47.09-102 102Z"/><path fill="#0070C0" d="m2742.79 1423.05-19.26 19.32c29.17 34.39 25.02 86-9.27 115.26-13.03 11.12-29.21 17.84-46.26 19.22V1604c59.93-3.72 105.5-55.47 101.79-115.59-1.5-24.21-11-47.22-27-65.41Z"/><path fill="#407BFF" d="M2009 1444.55v-6.58h-50.64V1387h-6.71v50.97h-48.48V1387h-6.53v50.97h-47.75V1387h-6.59v50.97h-47.34V1387h-6.58v50.97h-48.66V1387h-6.58v50.97H1683v6.58h50.23v47.69H1683v6.57h50.23v47.69H1683v6.57h50.23V1604h6.49v-50.93h48.57V1604h6.58v-50.93h47.34V1604h6.59v-50.93h47.84V1604h6.53v-50.93h48.48V1604h6.58v-50.93h50.63v-6.57h-50.5v-47.69H2009v-6.57h-50.64v-47.69Zm-112.36 0v47.69h-47.75v-47.69Zm-54.34 0v47.69h-47.34v-47.69Zm-102.49 0h48.57v47.69h-48.66Zm0 101.95v-47.69h48.57v47.69Zm55.15 0v-47.69h47.34v47.69Zm54.11 0v-47.69h47.57v47.69Zm102.89 0h-48.79v-47.69h48.48Zm0-54.26h-48.79v-47.69h48.48Z"/><path fill="#FFF" fill-opacity=".701961" d="M2009 1444.55v-6.58h-50.64V1387h-6.71v50.97h-48.48V1387h-6.53v50.97h-47.75V1387h-6.59v50.97h-47.34V1387h-6.58v50.97h-48.66V1387h-6.58v50.97H1683v6.58h50.23v47.69H1683v6.57h50.23v47.69H1683v6.57h50.23V1604h6.49v-50.93h48.57V1604h6.58v-50.93h47.34V1604h6.59v-50.93h47.84V1604h6.53v-50.93h48.48V1604h6.58v-50.93h50.63v-6.57h-50.5v-47.69H2009v-6.57h-50.64v-47.69Zm-112.36 0v47.69h-47.75v-47.69Zm-54.34 0v47.69h-47.34v-47.69Zm-102.49 0h48.57v47.69h-48.66Zm0 101.95v-47.69h48.57v47.69Zm55.15 0v-47.69h47.34v47.69Zm54.11 0v-47.69h47.57v47.69Zm102.89 0h-48.79v-47.69h48.48Zm0-54.26h-48.79v-47.69h48.48Z"/><path fill="#407BFF" d="M1991.85 1611h-293.7c-12.79 0-23.15-10.38-23.15-23.19v-184.62c0-12.81 10.36-23.19 23.15-23.19h293.7c12.79 0 23.15 10.38 23.15 23.19v184.62c0 12.81-10.36 23.19-23.15 23.19Zm-293.88-217.8c-5.52 0-9.99 4.46-10.02 9.99v184.62c.02 5.54 4.49 10.02 10.02 10.04h293.88c5.53-.02 10-4.5 10.02-10.04v-184.62c-.03-5.53-4.5-9.99-10.02-9.99Z"/><path fill="#FFF" d="M1991.85 1611h-293.7c-12.79 0-23.15-10.38-23.15-23.19v-184.62c0-12.81 10.36-23.19 23.15-23.19h293.7c12.79 0 23.15 10.38 23.15 23.19v184.62c0 12.81-10.36 23.19-23.15 23.19Zm-293.88-217.8c-5.52 0-9.99 4.46-10.02 9.99v184.62c.02 5.54 4.49 10.02 10.02 10.04h293.88c5.53-.02 10-4.5 10.02-10.04v-184.62c-.03-5.53-4.5-9.99-10.02-9.99Z"/><path fill="#407BFF" d="M1958.58 1429.78h-29.33l-29.33 29.46-55.16 27.75h-57.82l-56.91 57.16H1689v9.85h45.13l56.91-57.16h56.06l58.67-29.46 27.57-27.7h27.58l41.08-20.61V1408l-43.42 21.78Z"/><path fill="#FFF" d="M1958.58 1429.78h-29.33l-29.33 29.46-55.16 27.75h-57.82l-56.91 57.16H1689v9.85h45.13l56.91-57.16h56.06l58.67-29.46 27.57-27.7h27.58l41.08-20.61V1408l-43.42 21.78Z"/><path fill="#407BFF" d="m1956.83 1488.3-112.07 56.27h-56.92l-56.91 28.54H1689v9.89h44.23l56.95-28.59h56.92l115.58-57.98 39.32-39.47V1443l-45.17 45.3Z"/><path fill="#407BFF" d="m1958.58 1458-56.91 28.58h-56.91l-56.92 28.53H1689v9.89h101.18l56.92-28.58h56.91l56.91-28.53H2002V1458h-43.42Z"/><path fill="#FFF" d="m1958.58 1458-56.91 28.58h-56.91l-56.92 28.53H1689v9.89h101.18l56.92-28.58h56.91l56.91-28.53H2002V1458h-43.42Z"/><path fill="#407BFF" d="M2095.22 1654H2108v38h-560v-38h12.78Z"/><path fill="#FFF" fill-opacity=".6" d="M2095.22 1654H2108v38h-560v-38h12.78Z"/><path fill="#407BFF" d="M1633 1692h391v64h-391Z"/><path fill="#FFF" fill-opacity=".301961" d="M1633 1692h391v64h-391Z"/><path fill="#407BFF" d="M1633 1950h391v31h-391Z"/><path fill="#FFF" fill-opacity=".301961" d="M1633 1950h391v31h-391Z"/><path fill="#263238" d="M1808 1692h40v371.98c0 6.09-4.9 11.02-10.95 11.02h-13.47c-8.5 0-15.4-6.94-15.4-15.49V1692h-.18ZM1613 1692h40v371.98c0 6.09-4.9 11.02-10.95 11.02h-13.47c-8.51 0-15.4-6.94-15.4-15.49V1692h-.18ZM2004 1692h40v371.98c0 6.09-4.9 11.02-10.95 11.02h-13.47c-8.5.1-15.48-6.76-15.58-15.31V1692ZM1675 1636h21v9.82c0 4.52-3.6 8.18-8.04 8.18h-4.92c-4.44 0-8.04-3.66-8.04-8.18V1636ZM1821 1636h22v9.82c0 4.52-3.77 8.18-8.43 8.18h-5.14c-4.66 0-8.43-3.66-8.43-8.18V1636ZM1923 1614h21v31.93c0 4.46-3.6 8.07-8.04 8.07h-4.92c-4.44 0-8.04-3.61-8.04-8.07V1614ZM1748 1614h21v31.93c0 4.46-3.6 8.07-8.04 8.07h-4.92c-4.44 0-8.04-3.61-8.04-8.07V1614Z"/><path fill="#407BFF" d="M1917 1574c0 21.54-17.46 39-39 39s-39-17.46-39-39 17.46-39 39-39 39 17.46 39 39Z"/><path fill="#FFF" fill-opacity=".501961" d="M1917 1574c0 21.54-17.46 39-39 39s-39-17.46-39-39 17.46-39 39-39 39 17.46 39 39Z"/><path fill="#407BFF" d="M1893.64 1557.82c13.45 13.44 13.45 35.23 0 48.68-13.44 13.44-35.23 13.44-48.67 0-13.44-13.45-13.44-35.24 0-48.68 13.44-13.44 35.23-13.44 48.67 0Z"/><path fill="#FFF" fill-opacity=".2" d="M1893.64 1557.82c13.45 13.44 13.45 35.23 0 48.68-13.44 13.44-35.23 13.44-48.67 0-13.44-13.45-13.44-35.24 0-48.68 13.44-13.44 35.23-13.44 48.67 0Z"/><path fill="#407BFF" d="M1943.01 1566h-183.96c-1.13 0-2.25.14-3.34.41l-87.88 23.01c-5.77 1.52-9.8 6.73-9.83 12.7v28.73c0 7.26 5.9 13.15 13.17 13.15H1855c1.13 0 2.25-.15 3.34-.45l87.83-22.97c5.8-1.52 9.84-6.75 9.83-12.74v-28.73c0-7.19-5.8-13.04-12.99-13.11Z"/><path fill="#FFF" fill-opacity=".701961" d="M1943.01 1566h-183.96c-1.13 0-2.25.14-3.34.41l-87.88 23.01c-5.77 1.52-9.8 6.73-9.83 12.7v28.73c0 7.26 5.9 13.15 13.17 13.15H1855c1.13 0 2.25-.15 3.34-.45l87.83-22.97c5.8-1.52 9.84-6.75 9.83-12.74v-28.73c0-7.19-5.8-13.04-12.99-13.11Z"/><path fill="#263238" d="M1850.73 1643.98c6.89.42 12.82-4.84 13.24-11.77.03-.34.04-.68.03-1.02v-28.94c0-7.32-5.9-13.24-13.18-13.24h-180.55c-4.63-.14-8.99 2.18-11.46 6.12-1.19 2.02-1.82 4.32-1.81 6.67v28.93c0 7.32 5.9 13.25 13.18 13.25Z"/><path fill="#FFF" fill-opacity=".501961" d="M1850.73 1643.98c6.89.42 12.82-4.84 13.24-11.77.03-.34.04-.68.03-1.02v-28.94c0-7.32-5.9-13.24-13.18-13.24h-180.55c-4.63-.14-8.99 2.18-11.46 6.12-1.19 2.02-1.82 4.32-1.81 6.67v28.93c0 7.32 5.9 13.25 13.18 13.25Z"/><path fill="#FFF" d="M1701.29 1607h-29.67c-1.98 0-3.6-1.55-3.62-3.48 0-1.94 1.62-3.52 3.62-3.52h29.76c2 0 3.62 1.58 3.62 3.52 0 1.92-1.6 3.48-3.57 3.48h-.14ZM1701.29 1620h-29.67c-1.98 0-3.6-1.55-3.62-3.48 0-1.94 1.62-3.52 3.62-3.52h29.76c2 0 3.62 1.58 3.62 3.52 0 1.92-1.6 3.48-3.57 3.48h-.14ZM1701.29 1633h-29.67c-1.98 0-3.6-1.55-3.62-3.48 0-1.94 1.62-3.52 3.62-3.52h29.76c2 0 3.62 1.58 3.62 3.52 0 1.92-1.6 3.48-3.57 3.48h-.14Z"/><path fill="#407BFF" d="M1830.76 1626c-2.35-2.11-6.17-2.11-8.52 0l-4.24-3.84c4.69-4.21 12.29-4.21 16.98-.02l.02.02Z"/><path fill="#407BFF" d="m1815.16 1619-4.16-4.21c8.69-8.95 22.91-9.07 31.74-.26.09.08.17.17.26.26l-4.16 4.21c-6.6-6.48-17.08-6.48-23.68 0Z"/><path fill="#407BFF" d="m1809.09 1613-4.09-4.34c12.16-12.88 31.84-12.88 44 0l-4.09 4.34c-9.9-10.49-25.92-10.49-35.82 0Z"/><path d="M1830.76 1626c-2.35-2.11-6.17-2.11-8.52 0l-4.24-3.84c4.69-4.21 12.29-4.21 16.98-.02l.02.02Z"/><path d="m1815.16 1619-4.16-4.21c8.69-8.95 22.91-9.07 31.74-.26.09.08.17.17.26.26l-4.16 4.21c-6.6-6.48-17.08-6.48-23.68 0Z"/><path d="m1809.09 1613-4.09-4.34c12.16-12.88 31.84-12.88 44 0l-4.09 4.34c-9.9-10.49-25.92-10.49-35.82 0Z"/><path fill="#FF8B7B" d="m1279.6 1957-3.6 64.12 35.86 2.88 9.14-60.83-41.4-6.17Z"/><path fill="#407BFF" d="M1320.75 2021.94c-.36-.09-.64-.36-.73-.71-.09-.36.08-.75.41-.93.6-.31 13.66-7.7 20.13-6.06 1.18.28 2.2 1.01 2.82 2.03.83 1.14.83 2.67 0 3.81-3.22 2.23-7.17 3.24-11.11 2.83-3.86 0-7.71-.32-11.52-.97Zm2.92-1.2c7.05.84 16.57.71 18.21-1.68 0-.31.46-.84 0-1.9-.36-.66-1.02-1.1-1.78-1.2-.57-.09-1.15-.09-1.73 0-5.17.67-10.16 2.29-14.7 4.78Z"/><path fill="#407BFF" d="M1320.37 2021.93c-.27-.17-.41-.49-.36-.81 0-.49.99-10.59 5.69-14.56 1.38-1.14 3.15-1.69 4.93-1.53 2.42.22 3.19 1.49 3.32 2.48.81 4.23-8.16 12.39-12.59 14.42h-.36c-.2.09-.43.09-.63 0Zm9.68-15.19c-1.12-.02-2.21.38-3.05 1.13-2.77 3.23-4.47 7.25-4.88 11.49 4.48-2.75 10.44-9.01 10.22-11.67 0 0 0-.86-1.8-.99Z"/><path fill="#263238" d="M1316.42 2017.03h-40.85c-1.53.04-2.84 1.11-3.19 2.61l-7.24 33.26c-.67 2.96 1.18 5.9 4.13 6.57h.01c.39.05.78.05 1.17 0 14.71-.31 27.8-1.22 46.15-1.26 21.64 0 16.15 2.52 41.57 2.79 15.34 0 17.99-17.28 11.56-18-29.74-3.6-32.89-12.61-44.4-23.18-2.53-2-5.7-2.99-8.91-2.79Z"/><path fill="#263238" fill-opacity=".2" d="m1278 1995.44 37.58 4.56 5.42-36.81-40.87-6.19-2.13 38.44Z"/><path fill="#263238" d="M1347.01 1243s-37.34 24.62-39.65 107.48c-1.68 59.87 2.21 188.36 4.52 255.22.83 23.9-1.82 47.79-7.87 70.92-10.6 40.58-27.17 130.21-32.01 308.38h49.26s53.28-229.66 68.35-334.66c15.08-105 39.39-407.34 39.39-407.34Z"/><path fill-opacity=".4" d="m1417 1382.66-39-10.66s3.7 135.24 18.74 222c6.77-60.94 14.25-142.35 20.26-211.34Z"/><path fill="#FF8B7B" d="m1428 1970 1.5 65h36.2l4.3-62.17-42-2.83Z"/><path fill="#407BFF" d="M1471.72 2033.94c-.34-.09-.61-.36-.7-.71-.08-.36.08-.74.4-.93.56-.31 13.09-7.7 19.28-6.06 1.14.28 2.11 1.01 2.71 2.03.79 1.14.79 2.67 0 3.81-3.09 2.23-6.88 3.24-10.65 2.83-3.7 0-7.4-.32-11.04-.97Zm2.79-1.2c6.77.8 15.89.71 17.46-1.68.22-.31.43-.84 0-1.9-.36-.65-.98-1.11-1.7-1.24-.55-.09-1.11-.09-1.66 0-4.96.68-9.75 2.32-14.1 4.82Z"/><path fill="#407BFF" d="M1470.39 2033.93c-.28-.17-.43-.49-.38-.81 0-.49 1.06-10.59 6.1-14.55 1.46-1.17 3.37-1.72 5.28-1.53 2.59 0 3.41 1.48 3.56 2.47.86 4.24-8.74 12.39-13.5 14.42h-.38c-.21.09-.46.09-.68 0Zm10.38-15.18c-1.2-.03-2.37.38-3.27 1.12-2.97 3.23-4.8 7.25-5.23 11.49 4.8-2.74 11.19-9.01 10.95-11.67 0-.22 0-.9-1.92-.99Z"/><path fill="#263238" d="M1467.42 2029.03h-40.85c-1.53.04-2.84 1.11-3.19 2.61l-7.24 33.26c-.67 2.96 1.18 5.9 4.14 6.57h1.17c14.71-.31 27.8-1.22 46.15-1.26 21.64 0 16.15 2.52 41.57 2.79 15.34 0 17.99-17.28 11.56-18-29.74-3.6-32.89-12.61-44.4-23.18-2.53-2-5.7-2.99-8.91-2.79Z"/><path fill="#263238" fill-opacity=".2" d="m1428.91 2008.51 38.51 1.49 2.58-37.2-42-2.8.91 38.51Z"/><path fill="#263238" d="M1382.23 1264.2s-23.53 60.59 4.55 166.18c11.76 44.23 32.3 180.07 32.3 180.07 4.19 23.84 4.51 48.19.96 72.13-4.23 30.38-6.03 61.04-5.41 91.7 1.18 79.62 7 222.72 7 222.72h52.29s29.08-266.31 29.08-355.45c0-96.93-31.4-386.55-31.4-386.55Z"/><path fill="#FF8B7B" d="M1381 1028.05s21.78-3.49 19.04-43.64c0 0 19.67-10.384 33.46.716 13.79 11.101-9.48 40.284 7.5 50.934 0 0-13.74 10.43-60-8.01Z"/><path fill="#263238" d="M1472 922.954c0-2.751 1.43-4.999 3.06-4.953 1.64.046 2.98 2.293 2.94 5.045-.04 2.752-1.43 5-3.06 4.954-1.64-.046-2.98-2.156-2.94-5.046Z"/><path fill="#FF5652" d="m1470.19 928 15.81 17.823c-4.43 3.578-10.35 4.964-16 3.743Z"/><path fill="#263238" d="M1460.26 914.974c.53.088 1.09-.05 1.49-.379 2.91-2.739 7.1-4.045 11.26-3.497.89.156 1.76-.346 1.97-1.138.15-.796-.4-1.563-1.27-1.769-5.22-.767-10.54.805-14.25 4.213-.61.56-.61 1.462 0 2.022.2.253.47.443.8.548Z"/><path fill="#FF8B7B" d="M1475.09 968.286c-2.37 14.187-13.03 25.591-27.08 28.993-3.28.857-6.63 1.4-10.02 1.616-13.37.754-26.65-2.55-38.09-9.47-18.05-16.741-18.95-31.417-22.57-65.213-.87-7.186-.02-14.479 2.49-21.274 8.74-24.268 35.62-36.888 60.02-28.186 34.21 12.208 41.21 62.521 35.25 93.534Z"/><path fill-opacity=".2" d="M1449 997.441c-3.27.827-6.62 1.351-10 1.559l1.49-10s3.46 7.143 8.51 8.441Z"/><path fill="#263238" d="m1474 918.589 8-1.589s-4.54 5.515-8 1.589Z"/><path fill="#263238" d="M1432.25 864.358s38.01-5.387 48.44 25.63c10.43 31.016-17.42-8.978-24.22-9.965-6.81-.987 17.73 28.278-14.83 64.276l-26.4 46.816s-10.21-3.097-14.79 1.885c0 0-21.22-6.239-26.26-48.701-5.03-42.462 4.36-81.692 58.06-79.941Z"/><path fill="#263238" d="M1441 938.38s14.69-5.02 16.66 4.089c1.96 9.109-4.64-2.045-16.66-4.089ZM1404 991s-19.06 1.231-15.57 9.45c3.48 8.22 3.71-5.757 15.57-9.45ZM1380.45 889.032s-63.99-33.303-73 15.815c-9.01 49.118 27.54 65.476 10.06 98.193-17.48 32.71 25.94 10.03 33.87-22.189 7.92-32.218 15.76-56.347 29.07-56.709 9.72-9.214 10.11-24.545.87-34.242-.28-.294-.57-.588-.87-.868Z"/><path fill="#407BFF" d="M1380.4 889.289s-2.86-1.467-7.4-3.289c5.51 12.72 5.91 27 1.14 40 1.84-1.275 4.01-2.013 6.26-2.133 9.76-9.054 10.17-24.129.93-33.676-.3-.311-.61-.609-.93-.902Z"/><path fill="#FF8B7B" d="M1439.16 932.163c5.5 4.393 9.02 10.763 9.77 17.714.91 9.261-7.86 12.363-15.81 8.497-7.23-3.462-16.32-12.454-13.64-21.13 2.08-6.276 8.9-9.702 15.25-7.648 1.65.531 3.16 1.408 4.43 2.567Z"/><path fill="#407BFF" d="M1454 962.5c0 3.59-2.91 6.5-6.5 6.5s-6.5-2.91-6.5-6.5 2.91-6.5 6.5-6.5 6.5 2.91 6.5 6.5Z"/><path fill="#FFF" fill-opacity=".701961" d="M1454 962.5c0 3.59-2.91 6.5-6.5 6.5s-6.5-2.91-6.5-6.5 2.91-6.5 6.5-6.5 6.5 2.91 6.5 6.5Z"/><path fill="#407BFF" d="M1354.88 1033s-40.51 2.97-62.56 48.99c-22.06 46.02-37.16 132.44 15.1 134.73 52.27 2.3 47.46-10.35 47.46-10.35v-23.03l-33.48-9.98c-6.8-2.01-10.67-9.1-8.65-15.84l.21-.63 17.6-49.48Z"/><path fill="#00B0F0" d="M1354.88 1033s-40.51 2.97-62.56 48.99c-22.06 46.02-37.16 132.44 15.1 134.73 52.27 2.3 47.46-10.35 47.46-10.35v-23.03l-33.48-9.98c-6.8-2.01-10.67-9.1-8.65-15.84l.21-.63 17.6-49.48Z"/><path fill="#407BFF" d="M1380.68 1043.03s-12.78-32.62 0-32.02c12.77.6 63.65 8.86 75.65 6.46 12-2.4-20.37 29.53-20.37 29.53Z"/><path fill="#00B0F0" d="M1380.68 1043.03s-12.78-32.62 0-32.02c12.77.6 63.65 8.86 75.65 6.46 12-2.4-20.37 29.53-20.37 29.53Z"/><path fill="#00B0F0" d="M1323.02 1275c5.47-15.2 8.1-31.29 7.78-47.46-1.75-48.67-9.62-125.42-13.49-156.06-4.77-37.61 46.04-45.2 98.92-41.72 52.88 3.48 82.82 2.3 77.07 64.77-5.76 62.46-17.18 180.47-17.18 180.47Z"/><path fill-opacity=".101961" d="M1493 1103.35c-3.16-4.35-6.61-8.47-10.35-12.35l-20.65 4.52s6.44 76.34 22.58 94.48c2.9-29.35 6.03-61.28 8.42-86.65Z"/><path fill="#00B0F0" d="M1459.93 1034.07c19.41-1.06 37.19 10.87 43.67 29.28 8.99 23.46 27.43 75.53 36.74 102.38 1.43 4.05 5.85 6.16 9.88 4.72 1.82-.65 3.33-1.96 4.24-3.68l12.45-23.59s18.39 3.48 25.32 19.66-34.54 60.25-56.44 60.16c-24.23 0-55.85-59.71-64.44-87.15-10.44-32.84-14.32-67.43-11.42-101.78Z"/><path fill="#FF8B7B" d="m1567 1150.38 14.46-24.24s-8.19-15.09-2.79-24.82c5.39-9.73 10.66-1.89 15.83-4.86 5.17-2.97 16.83-24.1 22.46-13.51 5.63 10.58 12.58 28.87-16.29 50.49l-15.6 38.56Z"/><path fill="#407BFF" d="M1569.33 1140.09c12.67 2.66 22.79 12.36 26.16 25.07v.55c.41 2.23 3.18 19.01 0 19.29-3.18.27-7.7-15.73-33.73-29.68-1.54-.75-2.19-2.63-1.46-4.2.06-.13.13-.25.2-.36l5.56-9.35c.7-1.1 2.02-1.63 3.27-1.32Z"/><path fill="#00B0F0" d="M1569.33 1140.09c12.67 2.66 22.79 12.36 26.16 25.07v.55c.41 2.23 3.18 19.01 0 19.29-3.18.27-7.7-15.73-33.73-29.68-1.54-.75-2.19-2.63-1.46-4.2.06-.13.13-.25.2-.36l5.56-9.35c.7-1.1 2.02-1.63 3.27-1.32Z"/><path fill-opacity=".101961" d="M1415.99 1029.86c-19.01-1.6-38.13-.97-56.99 1.89 3.9 4.99 13.6 9.93 36.27 11.03 33.37 1.62 37.9-6.18 50.73-10.7-8.7-1.02-18.95-1.48-30.01-2.22Z"/><path fill="#F2F2F2" d="M3301 767.517C3301 854.53 3218.91 925 3131.83 925c-2.96 0-5.89-.069-8.78-.206-87-4.808-153.62-79.12-148.8-165.981 4.44-80.145 68.53-144.136 148.8-148.572 2.89 0 5.82-.241 8.78-.241 87.08 0 169.17 70.539 169.17 157.517Z"/><path fill="#FFF" fill-opacity=".8" d="M3259 767.5c0 69.876-67.97 126.5-137.72 126.5-69.74 0-126.28-56.637-126.28-126.5 0-69.864 56.54-126.5 126.28-126.5 69.75 0 137.72 56.624 137.72 126.5Z"/><path fill="#FFF" d="m3242.35 744.405-6.16.172c-.37-.724.27-1.929 1.16-3.134l.24-.241c.96-1.143 2.01-2.213 3.12-3.202h.21l-72.92 1.756 2.07 3.443c1.12 1.964 1.74 4.176 1.81 6.439l.47 20.418c.31 12.465 14.01 22.312 30.6 21.934h4.35c12.1-.31 22.3-5.991 26.85-13.773 1.37-.293 2.66-.896 3.78-1.756l11.49-9.125c1.58-1.163 2.54-3.009 2.58-4.992l-.27-11.019c-.1-4.166-4.35-7.161-9.38-6.92Zm6.59 16.492c0 3.444 0 3.203-3.13 5.647l-5.78 4.029c-1.06.647-2.44.303-3.08-.771-.19-.321-.29-.682-.32-1.054 0-5.337 0-14.255-.23-18.938.33-1.938 2.08-3.289 4.01-3.099h2.55c3.19 0 5.81 1.825 5.88 4.201Z"/><path fill="#FFF" fill-opacity=".8" d="m3242.35 744.405-6.16.172c-.37-.724.27-1.929 1.16-3.134l.24-.241c.96-1.143 2.01-2.213 3.12-3.202h.21l-72.92 1.756 2.07 3.443c1.12 1.964 1.74 4.176 1.81 6.439l.47 20.418c.31 12.465 14.01 22.312 30.6 21.934h4.35c12.1-.31 22.3-5.991 26.85-13.773 1.37-.293 2.66-.896 3.78-1.756l11.49-9.125c1.58-1.163 2.54-3.009 2.58-4.992l-.27-11.019c-.1-4.166-4.35-7.161-9.38-6.92Zm6.59 16.492c0 3.444 0 3.203-3.13 5.647l-5.78 4.029c-1.06.647-2.44.303-3.08-.771-.19-.321-.29-.682-.32-1.054 0-5.337 0-14.255-.23-18.938.33-1.938 2.08-3.289 4.01-3.099h2.55c3.19 0 5.81 1.825 5.88 4.201ZM3218 714.018c0 6.613-7.65 11.982-17 11.982s-17-5.369-17-11.982c0-6.614 7.65-12.018 17-12.018s17 5.369 17 12.018ZM3184 688.5c0 3.59-2.91 6.5-6.5 6.5s-6.5-2.91-6.5-6.5 2.91-6.5 6.5-6.5 6.5 2.91 6.5 6.5Z"/><path fill="#D9D9D9" d="M3135.01 784.205c-5.27 5.069-13.81 5.059-19.07-.023-5.26-5.083-5.25-13.316.02-18.385 5.27-5.063 13.78-5.063 19.05 0 5.27 5.018 5.33 13.205.12 18.29-.04.037-.08.078-.12.118Z"/><path fill="#D9D9D9" d="m3121.33 777.287-2.33-77.365 4.36-7.922 3.63 7.682 2.13 70.095 87.98 20.301 5.9 3.567-7.44 4.355-94.23-20.713Z"/><path fill="#FF8B7B" d="M3160.15 946c-3.01 18.625-5.65 45.884 7.85 57.77 0 0 0 18.94-52.18 41.23-20.03-26.45-6.12-39.15-6.12-39.15 20.71-5.65 19.85-14.057 15.74-28.342Z"/><path fill-opacity=".2" d="m3145.7 959-19.7 18.85c.98 3.317 1.67 6.711 2.07 10.15 7.71-1.404 19.56-8.564 20.93-17.264-.14-4.133-1.27-8.165-3.3-11.736Z"/><path fill="#FF8B7B" d="M3182.69 913.358c-7.21 30.643-9.59 43.686-27.93 56.864-27.57 19.813-63.52 4.197-65.59-27.936-1.8-28.928 10.36-74.285 42.71-81.235 23.03-5.185 45.9 9.32 51.08 32.395 1.47 6.566 1.38 13.39-.27 19.912Z"/><path fill="#263238" d="M3131.94 913.003c-.44 2.448-2.07 4.372-3.65 3.935-1.59-.437-2.6-2.492-2.2-4.941.39-2.448 2.11-4.372 3.69-3.935 1.59.437 2.47 2.58 2.16 4.941ZM3103.91 908.536c-.44 2.782-2.1 4.882-3.68 4.393-1.57-.488-2.54-2.782-2.14-5.467.39-2.685 2.1-4.882 3.68-4.394 1.57.489 2.54 2.783 2.14 5.468Z"/><path fill="#F84A35" d="M3112 914c-3.31 5.427-7.35 10.378-12 14.721 2.34 2.313 5.58 3.497 8.87 3.246Z"/><path fill="#263238" d="M3120.47 943.986c-1.28-.009-2.56-.129-3.82-.358-.42-.067-.7-.443-.64-.851.09-.408.49-.668.91-.583 6.39 1.21 12.99-.636 17.78-4.972.3-.296.79-.296 1.09 0 .28.305.28.77 0 1.075-4.12 3.839-9.64 5.891-15.32 5.689ZM3144.34 905.693c-.51.41-1.22.41-1.74 0-3.99-3.045-8.97-4.145-13.74-3.041-.82.208-1.63-.342-1.82-1.225 0-.01-.01-.02-.01-.029-.16-.85.33-1.689 1.12-1.882 5.72-1.37 11.72.019 16.42 3.812.56.594.58 1.568.03 2.181-.01.015-.02.029-.03.039-.08.058-.15.106-.23.145ZM3095.13 896.752c-.52-.167-.92-.594-1.08-1.141-.2-.837.25-1.697 1.03-1.949 4.67-1.478 9.72-.447 13.52 2.757.53.604.53 1.535 0 2.139-.58.589-1.49.589-2.07 0-3.03-2.438-6.99-3.18-10.63-1.997-.24.134-.5.2-.77.191Z"/><path fill="#FF8B7B" d="m2963 1109.9-38.04-36.84-2.35-18.05c-.45-3.62-2.79-6.71-6.14-8.13l-7.59-3.21c-2.11-.91-3.86-2.5-4.97-4.51l-2.66-4.87c-2.75-4.96-8.99-6.75-13.94-4-.54.29-1.04.63-1.52 1.02-2.4 1.93-3.79 4.85-3.79 7.94v25.78c-.01 3.5 1.8 6.77 4.79 8.62l23.26 14.71 38 45.64Z"/><path fill="#0070C0" d="M3083.79 1007.93s-25.44 4.51-73.35 96.25l-8 14.98c-3.76 6.87-12.38 9.41-19.26 5.65-.87-.47-1.69-1.03-2.44-1.67l-28.02-23.98-17.72 26.19s45.92 59 72.32 54.39c26.39-4.6 58.39-81.97 58.39-81.97s39.1-101.486 18.08-89.84Z"/><path fill-opacity=".101961" d="M3028 1164c19.57-23.58 37.11-66.33 37.11-66.33s6.65-17.46 12.89-37.04l-22.54-15.63s-24.32 78.58-27.46 119Z"/><path fill="#FF8B7B" d="m3115 1886-5.03 60-33.48-2.07-.49-57.7 39-.23Z"/><path fill="#407BFF" d="M3060.79 1945.9c-3.61.43-7.26-.58-10.21-2.84-.77-1.12-.77-2.66 0-3.78.59-1 1.52-1.73 2.59-2.04 5.8-1.65 17.84 5.73 18.42 6.06.29.18.45.54.4.9-.07.36-.33.64-.67.71-3.47.65-7 .98-10.53.99Zm-5.53-7.19c-.52.01-1.05.09-1.56.24-.69.1-1.29.56-1.6 1.23-.63 1.04-.41 1.61 0 1.89 1.6 2.41 10.35 2.51 16.81 1.66-4.2-2.59-8.84-4.29-13.65-5.02Z"/><path fill="#407BFF" d="M3072.14 1944.95c-.11.07-.24.07-.35 0-4.17-1.85-12.5-9.54-11.74-13.57 0-1 .81-2.13 3.09-2.35 1.63-.15 3.24.37 4.48 1.44 4.48 3.71 5.33 13.22 5.38 13.58.04.4-.24.75-.64.8-.1.01-.21 0-.31-.03Zm-8.46-14.3h-.5c-1.47 0-1.56.73-1.61.95-.22 2.4 5.24 8.38 9.54 11-.38-3.99-1.94-7.77-4.48-10.86-.8-.67-1.81-1.04-2.86-1.04Z"/><path fill="#263238" d="M3075.44 1940.04h38.59c1.45.01 2.69 1.01 2.99 2.42l6.85 31.01c.63 2.75-1.12 5.47-3.9 6.1-.36.04-.72.04-1.09 0-13.89-.32-26.28-1.12-43.57-1.17-20.43 0-15.25 2.38-39.27 2.6-14.48 0-17.06-16.13-10.93-16.9 28.09-3.36 31.04-11.74 41.94-21.6 2.39-1.81 5.38-2.69 8.39-2.46Z"/><path fill="#263238" fill-opacity=".2" d="m3111.99 1922-35.72-.77-.27-35 39-.23-3.01 36Z"/><path fill="#263238" d="M3062.92 1288s-8.05 213.68-7.92 284.92c.23 83.82 14.88 335.08 14.88 335.08h47.56c10.53-70.4 15.86-141.47 15.93-212.64-.32-37.9-8.69-75.88-5.01-110.62 7.83-74.54 37.64-102.19 38.64-296.74Z"/><path fill-opacity=".2" d="m3143.84 1388.77-14.35-17.77c-6.69 72.83-7.27 146.08-1.73 219 0-1.75.28-3.51.46-5.22 5.19-49.49 20.08-78.05 29.78-148.46Z"/><path fill="#FF8B7B" d="m3218 1885-1.39 60h-33.65l-3.96-57.35 39-2.65Z"/><path fill="#407BFF" d="M3166.75 1945.91c-3.6.42-7.23-.59-10.17-2.84-.77-1.13-.77-2.67 0-3.79.59-1 1.52-1.73 2.59-2.04 5.8-1.66 17.84 5.73 18.42 6.06.29.19.45.54.4.9-.07.36-.33.64-.67.71-3.49.66-7.02.99-10.57 1Zm-5.49-7.2c-.52 0-1.05.08-1.56.24-.69.11-1.29.56-1.6 1.23-.63 1.04-.41 1.61 0 1.89 1.6 2.42 10.34 2.51 16.81 1.66-4.2-2.59-8.84-4.29-13.65-5.02Z"/><path fill="#407BFF" d="M3178.08 1944.95c-.12.07-.26.07-.38 0-4.49-1.85-13.47-9.54-12.65-13.57 0-1 .87-2.13 3.33-2.35 1.75-.15 3.5.37 4.83 1.44 4.82 3.71 5.74 13.22 5.79 13.58.01.3-.16.57-.43.72-.14.11-.31.18-.49.18Zm-9.21-14.25h-.54c-1.59 0-1.68.72-1.78.95-.24 2.4 5.69 8.37 10.33 11-.39-4-2.08-7.79-4.83-10.86-.85-.67-1.93-1.04-3.04-1.05Z"/><path fill="#263238" d="M3181.44 1940.04h38.54c1.46 0 2.72 1.01 3.04 2.42l6.85 31.01c.63 2.75-1.12 5.47-3.9 6.1-.36.04-.73.04-1.09 0-13.89-.32-26.28-1.12-43.57-1.17-20.43 0-15.25 2.38-39.27 2.6-14.48 0-17.06-16.13-10.93-16.9 28.09-3.36 31.04-11.74 41.94-21.6 2.39-1.81 5.38-2.69 8.39-2.46Z"/><path fill="#263238" fill-opacity=".2" d="m3217.15 1921.58-35.77 1.42-2.38-35.29 39-2.71-.85 36.58Z"/><path fill="#263238" d="M3124 1288.1s13.78 218.56 18.28 291.41c5.09 82.14 31.52 328.49 31.52 328.49h48.08s8.29-110.25 6.98-211.3c-.54-42.85-14.05-83.22-14.86-114.53-1.03-40.6 22.51-186.76 8.11-305.17Z"/><path fill="#0070C0" d="M3098.2 1004.92c-27.97 3.52-48.45 9.84-47.14 104.27 1.31 94.43 5.37 188.81 5.37 188.81h171.4s-7.89-144.24 0-203.22c7.9-58.97 2.62-87.87-34.05-89.86-36.67-1.99-70.91-3.07-95.58 0Z"/><path fill="#0070C0" d="M3109 995.179v11.751s3.73 11.67 35.97 11.05c32.24-.62 35.03-14.72 35.03-14.72v-8.523c.01-5.367-4.41-9.728-9.87-9.737-.67-.004-1.34.062-2 .195-15.99 2.566-32.28 2.672-48.29.309-5.44-.513-10.27 3.402-10.8 8.748-.03.309-.04.618-.04.927Z"/><path fill-opacity=".101961" d="m2945.57 1138 16.43-30.81-8.06-7.19-15.94 28.8c1.76 2.24 4.36 5.45 7.57 9.2Z"/><path fill="#407BFF" d="m2948.79 1091-20.79 33.07 6.94 13.93 25.06-39.86-11.21-7.14Z"/><path fill-opacity=".101961" d="M3144.61 1018.16c-32.49.63-36.05-11.31-36.05-11.31V1004s-9.56 18.59 18.65 21.58c28.21 2.99 46.87-10.63 50.79-18.73-3.29 4.25-11.63 10.86-33.39 11.31ZM3225.87 1058H3201s13.74 54.76 23.12 87c.22-16.69 1.29-33.37 3.19-49.95 1.3-10.03 2.2-19.11 2.69-27.24Z"/><path fill="#FF8B7B" d="m3249.55 1212-22.28 61.63-17.5 12.54c-2.45 1.74-3.91 4.55-3.93 7.54v10.43c0 .94-.13 1.88-.4 2.78-1.55 4.87 1.16 10.07 6.05 11.62.17.06.35.11.53.15l12.5 3.01c3.6.95 7.41-.41 9.6-3.41l9.02-12.22c1.22-1.59 1.87-3.53 1.85-5.53v-17.97l28.01-62.26Z"/><path fill="#0070C0" d="M3193.49 1005c23.65 3.56 44.36 17.82 56.17 38.68 21.55 36.12 41.17 115.33 35.28 146.8-2.67 16.63-7.2 32.91-13.5 48.52l-31.5-12.46c6.36-16.16 9.09-33.53 7.96-50.87-2.61-25.82-52.92-126.07-54.23-137.9-1.3-11.83-11.97-30.11-.18-32.77Z"/><path fill-opacity=".101961" d="M3244.5 1213c-1.21 4.6-2.72 9.13-4.5 13.54l31.51 12.46c2.11-4.89 3.94-9.89 5.49-14.99Z"/><path fill="#407BFF" d="m3235 1232.5 36.96 12.5 12.04-9.93-44.52-15.07-4.48 12.5Z"/><path fill="#263238" d="M3128.96 880.885c-10.93-2.898-38.61-12.817-25.51-37.455 13.09-24.638 16.52 6.567 27.94 8.514 11.43 1.948 51.39.363 54.19 34.874 0 0 13.14 21.06-5.87 50.182 0 0-14.63-2.536-12.42-14.674 2.21-12.138-3.25-14.493-7.72-18.433-4.47-3.94-1.17-17.075-1.17-17.075s-22.13-3.985-29.44-5.933Z"/><path fill="#FF8B7B" d="M3187.35 938.877c-2.91 5.236-7.75 9.099-13.47 10.734-7.64 2.084-11.41-4.529-9.3-12.048 1.98-6.476 8.26-15.444 15.9-14.493 5.51.906 9.26 6.123 8.4 11.685-.23 1.463-.74 2.867-1.53 4.122Z"/><path fill="#263238" d="m3167.87 914.358-20.97-3.308c-1.81-5.346-9.35-6.524-12.57-7.068-3.23-.543-11.35-1.767-14.53 3.398l-7.31-1.178c-1.41-5.89-9.44-7.158-12.76-7.702-3.31-.544-14.3-2.265-15.7 6.615-.48 7.993 5.63 14.857 13.64 15.332 6.91.408 13.15-4.114 14.91-10.801v-1.405l6.27.997c-.15.462-.27.929-.37 1.405-.47 7.992 5.64 14.856 13.64 15.332 6.92.408 13.16-4.114 14.92-10.802.09-.693.09-1.391 0-2.084l20.29 3.262c2.77.422 5.31 1.799 7.17 3.897l1.5-1.269c-2.12-2.401-4.98-4.028-8.13-4.621Zm-71.31 3.851c-6.44-.643-11.16-6.343-10.58-12.777.77-4.848 4.81-6.343 13.62-4.984 8.8 1.36 11.98 4.033 11.21 9.062-1.54 6.343-7.94 10.235-14.3 8.699Zm34.63 5.528c-6.46-.644-11.2-6.366-10.62-12.822.77-4.849 4.81-6.344 13.62-4.985 8.81 1.36 11.98 4.033 11.21 9.062-1.47 6.311-7.79 10.235-14.12 8.767-.03-.009-.05-.013-.09-.022Z"/><path d="M3186 924c5.33-11.441 5.33-24.559 0-36ZM3188.87 934.844c.53-2.826-.52-5.694-2.87-7.844v13.001c.27-.347.65-.65.92-1.041 1.01-1.243 1.67-2.647 1.95-4.116Z"/><path fill="#505456" d="M2530.85 970.419c.08-.263.14-.536.17-.809l.14-6.311.02-.641 4.9-.074c0 .047 0 .094-.01.144l-.11 5.079c-.03 2.161-1.32 4.1-3.19 4.798-.21.1-.4.173-.64.299 1.36 2.458 2.73 4.917 4.15 7.475l-.78.01-4.24.062c-.28.029-.55-.149-.65-.44-1.21-2.632-2.41-5.211-3.62-7.806-.09-.166-.16-.365-.27-.55-.44.129-.47.484-.48.858l-.18 8.016-4.9.073v-.067c.05-2.078.1-4.141.23-6.199.08-2.086 1.27-3.967 3.03-4.794.21-.126.43-.239.69-.409-1.42-2.081-2.81-4.165-4.28-6.324l1.73-.023 3.8-.057c.25-.014.49.144.6.4 1.14 2.294 2.32 4.58 3.48 6.863.09.145.15.264.22.407.06.017.13.023.19.02Z"/><path fill="#319E3B" d="M2576.81 961.124c.65.909 1.57 1.538 2.6 1.788 1.46.378 3.01-.173 4.04-1.434 1.64-1.746 2.69-4.056 2.96-6.519.45-3.107-.17-6.243-1.75-8.772-.18-.328-.36-.692-.58-1.02l.01-.132c1.36.139 2.66.665 3.76 1.524 1.77 1.474 3.1 3.497 3.81 5.831 1.15 3.032 1.18 6.479.08 9.63-.91 2.629-2.67 4.821-4.94 6.13-2.11 1.236-4.62 1.129-6.56-.271-2.04-1.112-3.36-3.372-3.44-5.923-.02-.209.01-.488.01-.832Z"/><path fill="#F7B309" d="M2578.57 956.405c-.43.477-.82.981-1.19 1.511-1.15 1.806-1.35 4.113-.55 6.051 1.24 3.455 3.89 6.001 7.18 6.879 1.47.387 2.99.49 4.51.309l.6-.011c-.39.463-.66.887-1.03 1.245-1.79 1.847-4.15 2.856-6.54 2.812-3.05.181-6.01-.844-8.35-2.888-2.8-2.338-4.17-6.211-3.6-10.129.41-3.151 2.76-5.641 5.61-5.939 1.13-.213 2.27-.155 3.36.16Z"/><path fill="#0188C9" d="M2583.27 961.047c-.05-.24-.08-.479-.11-.727-.47-2.374-2.22-4.127-4.4-4.415-3.05-.573-6.22.393-8.66 2.641-1.52 1.325-2.73 3.026-3.54 4.957-.12.221-.21.431-.36.722-.43-1.059-.64-2.212-.63-3.39.05-2.788 1-5.502 2.68-7.652 1.71-2.63 4.2-4.522 7.01-5.318 3.07-.897 6.3-.123 8.66 2.084 2.04 1.911 2.61 5.16 1.38 7.904-.49 1.192-1.18 2.275-2.03 3.194Z"/><path fill="#505456" d="M2509.75 980.427c1.53-4.704 3.06-9.284 4.54-13.955l-7 .103.2-8.78 4.93-.076-.12 5.219 7.01-.103c.07 1.688-.12 3.389-.55 5.029-1.42 3.895-2.68 7.886-4.02 11.903-.07.394-.41.661-.77.6-1.26-.039-2.51.037-3.74.056-.16.016-.32.017-.48.004Zm41.51-14.276.09-3.797.5-.005 8.23-.124c.62-.003 1.23.065 1.83.207 1.67.321 2.84 1.941 2.78 3.831.05.709.05 1.416.03 2.124l-.26 11.571-5.15.078.27-11.673c.04-1.817-.38-2.307-2.09-2.28l-6.23.094Zm-3.37 14.286-5.1.076.29-12.576c-.09-1.109-.51-1.619-1.56-1.604l-3.77.056.08-3.587.06-.005c2.27-.03 4.55-.066 6.84.03 1.92-.013 3.44 1.676 3.41 3.805.06.583.06 1.181.07 1.77l-.26 11.514c-.05.173-.06.35-.06.521Z"/><path fill="#515557" d="m2556.12 969.6-.25 10.719-4.93.072.22-9.555c1.62-.409 3.25-.833 4.96-1.236Z"/><path fill="#152B76" d="M1859.48 1017.3c-1.65.03-3.31.05-4.97.08-.49.01-.63-.09-.51-.67.29-1.43.54-2.87.76-4.3.01-.55.37-.5.68-.5l6.9-.1c.54 0 1.07-.06 1.6-.19 1.17-.23 2.13-1.22 2.41-2.51.27-1.05.47-2.13.59-3.21.33-1.2-.26-2.43-1.33-2.76-.2-.06-.41-.09-.62-.08-1.56-.2-3.15.05-4.73-.08-1.03-.04-2.05-.26-3.01-.67-2.11-.96-2.94-2.995-2.45-5.866.16-.877.38-1.739.49-2.61.01-.446.17-.618.58-.613 1.76-.023 3.54-.048 5.29-.077.51-.008.52.22.43.626-.08.401-.18.972-.28 1.433-.27.86.13 1.775.9 2.047.05.015.1.029.15.039.49.162.99.24 1.5.237 1.73-.075 3.46-.047 5.18.082 3.19.337 4.8 2.119 4.68 5.652-.05 2.86-.61 5.7-1.64 8.36-1.47 3.71-4.24 5.3-7.7 5.54-1.62.11-3.25.05-4.88.07Zm19.9-.29c-2.04.03-3.74.05-5.43.08-.49.01-.57-.18-.48-.67.26-1.34.5-2.67.72-4.02.09-.53.25-.77.82-.77 2.29-.03 4.6-.06 6.9-.1 2.59-.04 3.85-1.26 4.14-3.74.08-.67.24-1.34.37-2 .4-1.19-.14-2.48-1.21-2.87-.22-.09-.46-.13-.7-.12-1.56-.2-3.15.05-4.72-.08-.99-.03-1.96-.22-2.88-.59-2.08-.76-3.22-3.183-2.64-5.573.16-.992.37-1.966.52-2.974.01-.457.24-.632.69-.624 1.74-.023 3.47-.05 5.18-.078.4-.003.59-.008.44.566-.16.574-.18 1.162-.31 1.74-.22.759.15 1.544.83 1.762.53.254 1.1.377 1.69.363 1.3-.022 2.59-.111 3.89-.061 1.14-.015 2.27.18 3.34.58 1.31.558 2.25 1.821 2.51 3.359.24 1.51.2 3.07-.11 4.59-.23 1.97-.71 3.91-1.42 5.75-1.17 2.77-3.55 4.71-6.27 5.09-1.95.28-3.91.41-5.87.39Zm19.61-.3c-1.87.04-3.75.06-5.62.09-.75.01-.81-.25-.66-.92.26-1.28.54-2.56.71-3.85.01-.6.3-.69.78-.68 2.83-.05 5.67-.09 8.5-.13.53.02 1.06-.05 1.59-.2 1.29-.3 2.29-1.46 2.51-2.89.22-1.05.39-2.1.57-3.16.2-1.3-.54-2.24-1.93-2.41-.66-.07-1.33-.1-1.99-.08-2.46.04-4.93.07-7.39.11-.67.01-.75-.21-.62-.84.28-1.36.52-2.725.76-4.103 0-.329.16-.516.51-.507 4.21.035 8.41-.342 12.59-.002 3.45.276 4.8 2.161 4.64 6.022-.1 2.36-.5 4.7-1.21 6.95-1.11 3.87-4.41 6.52-8.04 6.45-1.9.03-3.81.06-5.7.08Z"/><path fill="#0371BB" d="m1934.25 1008.99-.44.74c-2.02-.43-3.58-2.12-4.01-4.34-.07-.75-.02-1.52.13-2.26.11-2.66-1.52-4.958-3.87-5.441-1.42-.593-2.96-.746-4.48-.447-.66.078-1.3.263-2.04.429.37-2.063.73-4.09 1.1-6.113.13-.748.7-.468 1.08-.591l4.47-.066c1.75.068 3.44.589 4.95 1.519.26.119.53.201.81.243 1.78 1.089 3.2 2.775 4.05 4.82 1.28 3.837.61 8.207-1.75 11.507Z"/><path fill="#152B76" d="M1926.03 997.689c2.36.484 3.99 2.781 3.88 5.441-.16.74-.21 1.51-.13 2.26.43 2.22 1.99 3.91 4 4.34 1.71.6 3.55.65 5.32.15.1-.01.21-.01.31-.01.56-.09.84-.01.68.78-.35 1.61-.58 3.24-.88 4.85 0 .37-.16.75-.64.8-3.72.45-7.36.39-10.67-1.66-1.14-.79-2.16-1.77-3.03-2.9-.3-.66-.66-1.28-1.1-1.84-1.29-3.8-.66-8.16 1.68-11.469.17-.261.38-.495.58-.742Z"/><path fill="#0371BB" d="M1923.77 1009.86c.44.56.8 1.17 1.1 1.83.87 1.13 1.89 2.11 3.03 2.91-3.54 1.78-7.41 2.47-11.19 1.98-.34.01-.66.01-.54-.56.35-1.85.7-3.72 1.05-5.57 0-.36.11-.56.48-.44 1.98.56 4.08.51 6.07-.15Z"/><path fill="#152B76" d="M1935.99 997.47c-.86-2.05-2.27-3.73-4.06-4.82 1.21-.519 2.46-.894 3.67-1.328 2.19-.572 4.42-.811 6.64-.702 1.45-.018 1.52-.022 1.26 1.6s-.6 3.001-.83 4.52c-.09.504-.14.632-.63.485-1.98-.563-4.07-.475-6.05.245Z"/><path fill="#0E2D6D" d="m2802.26 801.358-.05 2.042c-.01.145-.12.261-.25.276l-9.36.139.06-2.314 1.84-.028-.01.545c-.01.545-.01.545.48.537l.13-.138.02-.953 1.97-.029-.03 1.089.74-.011.03-1.089 1.97-.03-.03 1.09.62-.009.02-1.09Zm-7.33 16.171-.01.816 1.23-.019.02-.815 1.96-.031-.01.816 1.23-.018.01-.816 1.98-.03-.02.816 1.23-.019.01-.816 2.35-.033-.01.133c-.26.688-.64 1.374-.9 2.057-.01.138-.13.136-.26.139l-5.78.088.01-.271c-.12-.408-.36-.813-.72-.809-.4-.007-.74.338-.76.776v.051c-.01.273-.13.275-.25.278l-5.3.077c-.13-.009-.23-.12-.24-.266-.25-.708-.57-1.389-.93-2.03l1.96-.03-.01.821 1.22-.019.03-.82Zm7.01 8.332-4.18.062c-.24-.538-.35-.812-.85-.801-.42.024-.78.369-.88.825l-4.18.067.05-2.181 10.28-.154-.05 2.181Zm-9.75-14.825 10.1-.153-.01.139c-.26.683-.64 1.369-.91 2.052 0 .139-.12.142-.25.144l-7.75.114c-.12.003-.12.003-.24-.133Zm.99 5.429.04-2.042c0-.078.06-.139.13-.136l7.88-.117-.05 2.176Zm.69-6.27.05-2.181 7.02-.104-.05 2.178Zm7.09-5.688-.06 2.316-6.95.102.05-2.314Zm-9.31 24.64.05-2.181 4.25-.06-.05 2.176Zm6.08-2.27 4.19-.061-.05 2.175-4.19.067Zm-8.51 6.388 14.9-.223c.35.679.82 1.35 1.42 2.296l-17.72.263c.57-.965 1.01-1.65 1.4-2.336Zm.76-.966c.51-.822 1.02-1.511 1.41-2.197l10.83-.159c.48.681.91 1.401 1.3 2.159Zm13.19-11.897c-.38.819-.77 1.505-1.16 2.33l-4.06.058.05-2.314Zm-6.89.099-.05 2.18-4.06.059c-.36-.674-.59-1.351-1.06-2.16Zm-23.64-4.328-1.6-.25c-.3-.041-.51-.337-.48-.671l.05-1.775c0-.267.26-.683.5-.684.62-.009 1.11-.154 1.61-.16 2.22-.17 4.56-.476 6.78-.512 1.35.021 2.68.324 3.91.894 1.54.584 2.5 2.233 2.37 4.047.06 2.768-.01 5.539-.19 8.308-.08 1.769-1.43 3.187-3.03 3.178l-4.3.059c-.33.034-.59-.233-.61-.586v-.082l-.07-2.178c-.01-.353.24-.662.56-.69.02 0 .05-.001.07-.001l3.08-.18.19-7.896c0-.273-.12-.542-.24-.543-1.21-.799-2.45-.37-3.8-.353-.31-.026-.59.221-.63.558l-1.36 10.77c-.15.957-.4 1.23-.64 1.236l-2.83.04c-.32.028-.59-.233-.6-.586v-.082c.01-1.878.22-3.751.62-5.595.17-2.178.46-4.087.64-6.266Zm-37.45 12.4c1.56-3.698 4.29-10.003 4.94-11.644.13-.141.01-.41-.23-.405l-7.27.107c-.18.028-.34-.115-.36-.315v-.087l.15-6.399c-.01-.203.12-.39.3-.412.03-.006.05-.006.08-.006l3.26-.048c.18-.023.35.116.36.32.01.027.01.057 0 .087l-.06 2.858c0 .146.11.258.23.266l7.02-.101c2.47-.036 2.44.917 1.27 3.652-1.56 3.698-3.25 7.538-4.81 11.236-.31.752-1.02 1.207-1.75 1.112l-2.71.043c-.17-.001-.43.048-.42-.264Zm21.16.226-3.45.054c-.26-.018-.47-.247-.48-.537.15-6.399-.02-9.528.88-11.586.13-.136.01-.405-.23-.404l-6.03.089c-.26.013-.5-.144-.61-.397-.17-.795-.24-1.621-.19-2.447.03-.294.24-.527.5-.555 2.23-.303 9.85-.28 11.95-.314.27.052.5.254.6.54.1.808.08 1.634-.06 2.448-.02.294-.24.527-.5.555l-1.11.149c-.3-.025-.59.216-.63.553l-.42 2.457-.22 9.395Zm7.3-12.632-1.84-.106c-.32.028-.59-.234-.6-.587v-.087l.04-2.042c-.01-.353.24-.657.56-.685.03-.005.05-.006.08-.001 1.72-.164 3.45-.187 5.16-.08.32-.028.6.234.61.586v.088c.26 4.938 1.01 9.814 2.25 14.528.06.367-.17.732-.5.809-.05.012-.09.019-.14.016l-2.71.042c-.25.009-.49-.148-.6-.401l-.7-1.62c-.67.715-1.44 1.326-2.26 1.801-.84.498-1.8.654-2.72.448-.23-.125-.36-.387-.35-.674l.06-2.313s.86-.15 1.35-.294c2.11-.438 3.12-1.816 2.81-4.126-.02-1.849-.29-3.533-.5-5.302Z"/><path fill="url(#b)" d="M1795.47 726.082c1.43 2.478.37 5.416-2.37 6.564v.002c-2.75 1.146-6.14.063-7.58-2.417l-12.8-22.127c-1.43-2.482-.36-5.42 2.38-6.565 2.75-1.146 6.13-.066 7.57 2.414v.001Z"/><path fill="#0070C0" d="M1674.34 711.908c2.89.078 5.27 2.202 5.32 4.745v.003c.05 2.543-2.25 4.542-5.14 4.462l-15.42-.419c-2.89-.078-5.27-2.203-5.32-4.746v-.002c-.05-2.544 2.24-4.542 5.13-4.463Z"/><path fill="#0070C0" d="M1649.33 705.066c-.06-2.729 2.41-4.874 5.5-4.793.01.002.01.001.01.001 3.1.085 5.65 2.366 5.71 5.097l.44 22.129c.06 2.729-2.41 4.874-5.5 4.793-.01-.002-.01-.001-.01-.001-3.09-.082-5.64-2.359-5.7-5.086v-.01Zm22.17.603c-.06-2.729 2.41-4.874 5.5-4.793.01.002.01.001.01.001 3.1.085 5.65 2.367 5.71 5.098l.44 22.128c.06 2.73-2.41 4.875-5.51 4.792v.001-.001c-3.1-.085-5.65-2.366-5.71-5.097Z"/><path fill="url(#c)" d="M1689.73 716.199c-.18-9.005 7.4-16.095 16.94-15.835 9.53.259 17.41 7.769 17.59 16.775.19 9.005-7.4 16.095-16.93 15.836-9.54-.261-17.41-7.77-17.6-16.776Zm10.74.293c.08 3.778 3.06 6.922 6.67 7.019 3.61.099 6.47-2.885 6.39-6.664-.08-3.78-3.06-6.923-6.67-7.021-3.6-.098-6.47 2.885-6.39 6.666Z"/><path fill="url(#d)" d="M1771.19 730.108c-1.35 2.397-4.7 3.279-7.49 1.972s-3.96-4.312-2.61-6.711v-.003l12.06-21.393c1.35-2.398 4.71-3.279 7.5-1.97 2.78 1.31 3.94 4.315 2.6 6.712Z"/><path fill="url(#e)" d="M1727.49 707.905c-1.44-2.48-.37-5.418 2.37-6.564 2.75-1.146 6.13-.066 7.57 2.414v.001l12.8 22.128c1.44 2.478.38 5.416-2.37 6.564v.002c-2.75 1.146-6.14.063-7.58-2.417Z"/><path fill="url(#f)" d="M1751.76 703.88c1.35-2.398 4.71-3.282 7.5-1.971s3.95 4.315 2.6 6.713l-12.05 21.393c-1.35 2.396-4.71 3.279-7.49 1.972v-.001c-2.79-1.306-3.96-4.311-2.61-6.71v-.004Z"/><path fill="#FC6200" d="M2201.73 1105.67c-.84-.81-1.56-1.75-2.15-2.69-2.37-3.92-3.38-8.4-3.02-13.31.16-1.5.31-3 .59-4.37.29-1.64.32-3.27-.01-4.9-.67-2.85-1.35-5.56-2.64-8.13-.71-1.49-1.67-2.7-3-3.64-.12-.13-.36-.13-.36-.4.13-.28.37-.14.5-.14 1.47.11 2.82.64 4.03 1.57 1.21.94 2.54 1.74 3.89 2.12h.12c.61.26.6.68.1 1.09-.38.42-1 .42-1.49.56l-.99.02c1.07 1.76 2.01 3.51 2.71 5.41 3.7-5.37 8.32-8.43 14.24-8.93 3.83-.33 7.26.57 10.53 2.84-.61-.13-1.1-.12-1.72-.25-8.48-.83-15.21 2.82-19.95 10.93-2.57 4.26-3.53 9.04-3.28 14.07.06 2.73.62 5.17 1.67 7.61.12.27.24.4.23.54Z"/><path fill="#00538A" d="M2195.67 1096.5c-.38 0-.62-.27-.86-.4-1.09-.8-1.8-1.88-2.39-3.1-.83-1.62-1.27-3.52-1.47-5.43-.23-1.22-.19-2.58-.29-3.81-.18-2.85-1.36-5.29-3.03-7.31-2.16-2.69-4.95-4.28-8.14-4.78-.99-.12-1.84-.24-2.71-.09.01-.27.13-.28.25-.28 1-.42 1.99-.71 3.1-.73 5.8-.63 11.63 2.69 14.34 8.37 1.18 2.3 1.36 4.89 1.06 7.48-.16 1.23-.42 2.32-.45 3.55-.18 2.04.03 3.94.48 5.85-.01.13.11.4.11.68Zm8.3-2.44.08-3.41c.01-.54.01-.54.5-.55l5.43-.08c.86-.02 1.59.11 2.32.51 1.59.65 2.54 1.87 3 3.63.21 1.22.31 2.44.03 3.68-.41 2.18-1.68 3.7-3.67 4.41-1.49.57-2.96.59-4.43-.07-2.07-.92-3.14-2.68-3.21-5.13-.1-.95-.07-2.04-.05-2.99Zm3.43.9-.05 2.04c-.02.96.21 1.77.56 2.58.71 1.22 2.68 1.19 3.33-.18.25-.42.39-.83.39-1.24.28-1.09.3-2.18.2-3.27.01-.41-.1-.81-.22-1.08-.35-.95-.95-1.49-1.81-1.48l-1.97.03c-.37.01-.37.01-.39.56l-.04 2.04Zm35.63 3.28c.61.4.97.81 1.45 1.07.98.53 1.96.79 3.07.63 1.48-.29 2.62-1.39 3.03-3.03.14-.96.16-1.92.06-2.87-.34-1.49-1.3-2.3-2.66-2.14-1.48.16-2.26 1.81-1.67 3.16.35.67.21 1.22-.04 1.77-.13.28-.26.42-.39.69-.13.27-.25.27-.62.28-1.47-.52-2.41-2.28-2.12-4.06.42-2.32 1.81-3.7 4.03-4 .82-.15 1.65-.16 2.46-.04 1.02.12 2.05.1 3.08-.04l.74-.02c.5-.01.73.54.35.95-.13.27-.38.41-.51.56-.5.41-.5.55-.27 1.09.82 1.89.9 3.8.36 5.85-.54 1.91-1.67 3.16-3.29 3.72-1.98.72-3.96.75-5.78-.32-1.21-.66-1.09-.66-1.06-2.03-.24-.4-.23-.81-.22-1.22Zm-15.23-1.68-.04 1.91c-.05 1.91-.94 3.15-2.55 3.71-.75.29-1.48.3-2.35.31-.24.01-.37.01-.36-.4l.05-2.18c.01-.28.14-.41.38-.42h.49c.62-.15 1.13-.56 1.14-1.38.15-1.04.18-2.1.08-3.13-.1-1.37-1.18-2.58-2.53-2.69-1.22-.12-2.46-.1-3.71.73-.38.28-.38.28-.49-.26-.11-.41-.23-.68-.34-1.09-.11-.54-.11-.54.27-.82.75-.55 1.49-.84 2.36-.99 1.24-.29 2.47-.44 3.69-.05.98.26 1.84.65 2.68 1.46.84.94 1.31 2.02 1.28 3.39l-.05 1.9Zm38.27.93-.08 3.54c-.01.55-.01.68-.5.69l-2.22.04c-.49 0-.49 0-.48-.54.05-1.91-.03-3.82.13-5.72.17-1.91-1.02-3.8-3.36-3.77-.99.02-1.97.17-2.85.86-.38.28-.38.14-.49-.27l-.34-1.21c-.12-.28.01-.55.26-.69.38-.28.63-.42 1-.56 1.74-.71 3.35-.87 5.19-.49.85.13 1.58.52 2.19 1.06 1.2.94 1.79 2.15 1.76 3.79-.15 1.09-.18 2.18-.21 3.27Zm-25.45 3.92c-.01.55-.02.68-.51.69l-5.29.08c-.5.01-.5.01-.49-.54l.04-1.5c.02-.68.02-.68.63-.69l1.97-.03c.5-.01.5-.01.51-.55l.1-4.63.02-.41c-.1-1.09-.59-1.63-1.57-1.61h-.25c-.37 0-.37 0-.36-.4l.04-1.64c.01-.27.13-.41.38-.41.99-.15 1.84-.03 2.82.23 1.47.52 2.31 1.6 2.27 3.37-.12-.27-.28 6.68-.31 8.04Z"/><path fill="#00538A" d="m2220.42 1101.58-.11 4.9-.01.41c-.01.27-.13.41-.38.42l-1.85.02-.73.01c-.25.01-.25-.13-.25-.27l.25-10.49c.01-.4.01-.4.5-.42l2.34-.03c.49-.01.49-.01.48.54-.16 1.5-.2 3.27-.24 4.91Zm9.41-7.36.09-3.82c0-.55 0-.55.5-.55l2.34-.04c.37 0 .49 0 .48.54l-.12 5.45c-.01.27-.14.55-.27.69-.75.69-1.51 1.24-2.26 1.94l-.13.13c-.12.15-.37.29-.49.15-.12-.14-.12-.27-.11-.41-.1-1.49-.06-2.86-.03-4.08Zm28.96 4.33-.07 2.73c0 .41-.01.55-.38.55l-2.34.03c-.37.01-.37.01-.36-.4l.13-5.59c.01-.27.13-.41.38-.41l2.46-.04c.25 0 .37.13.36.4-.14.96-.16 1.92-.18 2.73Z"/></g></svg>