<svg xmlns="http://www.w3.org/2000/svg" xmlns:xlink="http://www.w3.org/1999/xlink" overflow="hidden" viewBox="0 0 1784 1847">
  <defs>
    <path id="a" fill-rule="evenodd" d="m3029.75 1804.39 257.51-46.57 17.13 94.71-257.51 46.58Z" clip-rule="evenodd"/>
    <path id="b" fill-rule="evenodd" d="m3019.53 1548.7 187.74-33.96 12.49 69.06-187.74 33.95Z" clip-rule="evenodd"/>
    <path id="c" fill-rule="evenodd" d="m2950.02 1280.23 228.32-41.3 15.19 83.99-228.32 41.29Z" clip-rule="evenodd"/>
    <path id="d" fill-rule="evenodd" d="m2966.44 1412.29 242.78-43.91 16.15 89.3-242.78 43.92Z" clip-rule="evenodd"/>
    <path id="e" fill-rule="evenodd" d="m2919.9 1144.6 239.15-43.25 15.91 87.96-239.15 43.26Z" clip-rule="evenodd"/>
    <path id="f" fill-rule="evenodd" d="m3028 1688.2 220.2-39.83 14.65 81-220.21 39.83Z" clip-rule="evenodd"/>
    <path id="g" fill-rule="evenodd" d="m3088.2 2076.12 231.03-41.78 15.37 84.97-231.03 41.79Z" clip-rule="evenodd"/>
    <path id="h" fill-rule="evenodd" d="m2897.72 1021.03 238.82-43.192 11.99 66.342-238.81 43.19Z" clip-rule="evenodd"/>
    <path id="i" fill-rule="evenodd" d="m2870.09 852.802 233.4-42.214 22.69 125.463-233.4 42.213Z" clip-rule="evenodd"/>
    <path id="j" d="m2875.42 856.768 223.11-40.352 20.77 114.877-223.11 40.352Z"/>
  </defs>
  <defs>
    <clipPath id="k">
      <path d="M2145 453h1784v1847H2145z"/>
    </clipPath>
    <clipPath id="l">
      <path fill-rule="evenodd" d="M3519.8 460.037c-10.27-.235-20.73.556-31.24 2.457L2879.5 572.648c-84.09 15.21-139.94 95.713-124.73 179.809L3005.33 2137.8c15.21 84.1 95.71 139.94 179.81 124.73l609.05-110.15c84.1-15.21 139.94-95.72 124.73-179.81L3668.37 587.223c-13.31-73.584-76.61-125.537-148.57-127.186ZM2145 453h1784v1847H2145Z" clip-rule="evenodd"/>
    </clipPath>
    <clipPath id="m">
      <path d="M-2.5-2.5h870v243h-870z"/>
    </clipPath>
    <clipPath id="o">
      <path d="M0 0h863v238H0z"/>
    </clipPath>
    <clipPath id="u">
      <use xlink:href="#a" fill-rule="evenodd" clip-rule="evenodd"/>
    </clipPath>
    <clipPath id="v">
      <use xlink:href="#a" fill-rule="evenodd" clip-rule="evenodd"/>
    </clipPath>
    <clipPath id="w">
      <use xlink:href="#a" fill-rule="evenodd" clip-rule="evenodd"/>
    </clipPath>
    <clipPath id="x">
      <use xlink:href="#b" fill-rule="evenodd" clip-rule="evenodd"/>
    </clipPath>
    <clipPath id="y">
      <use xlink:href="#b" fill-rule="evenodd" clip-rule="evenodd"/>
    </clipPath>
    <clipPath id="z">
      <use xlink:href="#b" fill-rule="evenodd" clip-rule="evenodd"/>
    </clipPath>
    <clipPath id="A">
      <use xlink:href="#c" fill-rule="evenodd" clip-rule="evenodd"/>
    </clipPath>
    <clipPath id="B">
      <use xlink:href="#c" fill-rule="evenodd" clip-rule="evenodd"/>
    </clipPath>
    <clipPath id="C">
      <use xlink:href="#c" fill-rule="evenodd" clip-rule="evenodd"/>
    </clipPath>
    <clipPath id="D">
      <use xlink:href="#d" fill-rule="evenodd" clip-rule="evenodd"/>
    </clipPath>
    <clipPath id="E">
      <use xlink:href="#d" fill-rule="evenodd" clip-rule="evenodd"/>
    </clipPath>
    <clipPath id="F">
      <use xlink:href="#d" fill-rule="evenodd" clip-rule="evenodd"/>
    </clipPath>
    <clipPath id="G">
      <use xlink:href="#e" fill-rule="evenodd" clip-rule="evenodd"/>
    </clipPath>
    <clipPath id="H">
      <use xlink:href="#e" fill-rule="evenodd" clip-rule="evenodd"/>
    </clipPath>
    <clipPath id="I">
      <use xlink:href="#e" fill-rule="evenodd" clip-rule="evenodd"/>
    </clipPath>
    <clipPath id="J">
      <path d="M3123.69 1159.98c-10.31-12.93-10.56-28.89 9.6-36.12 10.93-3.76 21.06-2.02 22.54 11.14.39 2.22.35 4.5-.13 6.7-.46 2.32-.87 5.07-1.25 7.8-2.8 11.69-7.9 18.01-14.01 19.12-6.04 1.09-11.52-2.04-16.75-8.67m6.93-40.15c-28.63 9.64-28.44 32.83-13.46 51.15 16.6 20.19 35.03 15.98 42.73-14.88.93-3.64 1.6-7.34 2.03-11.07.46-3.11.49-6.27.09-9.38-1.09-15.93-11.69-20.23-24.67-17.88-2.33.46-4.61 1.15-6.8 2.08"/>
    </clipPath>
    <clipPath id="K">
      <path d="M3123.69 1159.98c-10.31-12.93-10.56-28.89 9.24-35.6 10.93-3.76 21.06-2.02 22.04 10.78.38 2.22.34 4.49-.12 6.69-.49 2.33-.87 5.07-1.42 7.84-2.77 11.68-7.9 18.01-13.98 19.1-4.75.86-10.67-2.18-15.79-8.84m7.48-37.12c-24.22 8.44-23.87 27.63-11.3 43.18 13.82 17.2 29.66 13.43 36.18-12.22.81-3.19 1.42-6.43 1.82-9.7.31-2.68.42-5.39.32-8.09-.94-13.37-10.13-17.07-21.12-15.09-2.04.83-3.77 1.14-5.81 1.94"/>
    </clipPath>
    <clipPath id="L">
      <use xlink:href="#f" fill-rule="evenodd" clip-rule="evenodd"/>
    </clipPath>
    <clipPath id="M">
      <use xlink:href="#f" fill-rule="evenodd" clip-rule="evenodd"/>
    </clipPath>
    <clipPath id="N">
      <use xlink:href="#f" fill-rule="evenodd" clip-rule="evenodd"/>
    </clipPath>
    <clipPath id="O">
      <use xlink:href="#g" fill-rule="evenodd" clip-rule="evenodd"/>
    </clipPath>
    <clipPath id="P">
      <use xlink:href="#g" fill-rule="evenodd" clip-rule="evenodd"/>
    </clipPath>
    <clipPath id="Q">
      <use xlink:href="#g" fill-rule="evenodd" clip-rule="evenodd"/>
    </clipPath>
    <clipPath id="R">
      <use xlink:href="#h" fill-rule="evenodd" clip-rule="evenodd"/>
    </clipPath>
    <clipPath id="S">
      <use xlink:href="#h" fill-rule="evenodd" clip-rule="evenodd"/>
    </clipPath>
    <clipPath id="T">
      <use xlink:href="#h" fill-rule="evenodd" clip-rule="evenodd"/>
    </clipPath>
    <clipPath id="U">
      <use xlink:href="#i" fill-rule="evenodd" clip-rule="evenodd"/>
    </clipPath>
    <clipPath id="V">
      <use xlink:href="#i" fill-rule="evenodd" clip-rule="evenodd"/>
    </clipPath>
    <clipPath id="W">
      <use xlink:href="#i" fill-rule="evenodd" clip-rule="evenodd"/>
    </clipPath>
    <clipPath id="X">
      <use xlink:href="#j"/>
    </clipPath>
    <clipPath id="Y">
      <use xlink:href="#j"/>
    </clipPath>
    <clipPath id="Z">
      <use xlink:href="#j"/>
    </clipPath>
    <clipPath id="aa">
      <use xlink:href="#j"/>
    </clipPath>
    <clipPath id="ab">
      <use xlink:href="#j"/>
    </clipPath>
    <clipPath id="ac">
      <use xlink:href="#j"/>
    </clipPath>
    <clipPath id="ad">
      <use xlink:href="#j"/>
    </clipPath>
    <clipPath id="ae">
      <use xlink:href="#j"/>
    </clipPath>
    <clipPath id="af">
      <use xlink:href="#j"/>
    </clipPath>
    <clipPath id="ag">
      <use xlink:href="#j"/>
    </clipPath>
    <clipPath id="ah">
      <use xlink:href="#j"/>
    </clipPath>
    <clipPath id="ai">
      <use xlink:href="#j"/>
    </clipPath>
    <linearGradient id="p" x1="3024.18" x2="2996" y1="723.13" y2="685.485" gradientUnits="userSpaceOnUse" spreadMethod="reflect">
      <stop offset="0" stop-color="#00B0F0"/>
      <stop offset=".88" stop-color="#00B0F0"/>
      <stop offset="1" stop-color="#52DFD2"/>
    </linearGradient>
    <linearGradient id="q" x1="2939.19" x2="2898.07" y1="717.009" y2="724.445" gradientUnits="userSpaceOnUse" spreadMethod="reflect">
      <stop offset="0" stop-color="#00B0F0"/>
      <stop offset=".32" stop-color="#00B0F0"/>
      <stop offset=".87" stop-color="#0070C0"/>
      <stop offset="1" stop-color="#0070C0"/>
    </linearGradient>
    <linearGradient id="r" x1="2989.22" x2="3002.67" y1="729.395" y2="684.336" gradientUnits="userSpaceOnUse" spreadMethod="reflect">
      <stop offset="0" stop-color="#00B0F0"/>
      <stop offset=".29" stop-color="#00B0F0"/>
      <stop offset="1" stop-color="#52DFD2"/>
    </linearGradient>
    <linearGradient id="s" x1="2942.35" x2="2970.53" y1="695.188" y2="732.833" gradientUnits="userSpaceOnUse" spreadMethod="reflect">
      <stop offset="0" stop-color="#00B0F0"/>
      <stop offset=".88" stop-color="#00B0F0"/>
      <stop offset="1" stop-color="#52DFD2"/>
    </linearGradient>
    <linearGradient id="t" x1="2977.31" x2="2963.86" y1="688.923" y2="733.982" gradientUnits="userSpaceOnUse" spreadMethod="reflect">
      <stop offset="0" stop-color="#00B0F0"/>
      <stop offset=".29" stop-color="#00B0F0"/>
      <stop offset="1" stop-color="#52DFD2"/>
    </linearGradient>
    <filter id="n" width="120%" height="120%" x="-10%" y="-10%" filterUnits="userSpaceOnUse" primitiveUnits="userSpaceOnUse">
      <feComponentTransfer color-interpolation-filters="sRGB">
        <feFuncR tableValues="0 0" type="discrete"/>
        <feFuncG tableValues="0 0" type="discrete"/>
        <feFuncB tableValues="0 0" type="discrete"/>
        <feFuncA slope=".2" type="linear"/>
      </feComponentTransfer>
      <feGaussianBlur stdDeviation="4.58333 4.58333"/>
    </filter>
  </defs>
  <g clip-path="url(#k)" transform="translate(-2145 -453)">
    <g clip-path="url(#l)">
      <g clip-path="url(#m)" filter="url(#n)" transform="matrix(2 0 0 2 2143 1825)">
        <g clip-path="url(#o)">
          <path fill="#FFF" fill-rule="evenodd" stroke="#455A64" stroke-miterlimit="8" stroke-width="1.581" d="M0 19.339C0 8.659 8.658 0 19.339 0h77.353c10.68 0 19.338 8.658 19.338 19.339v175.945c0 10.681-8.658 19.339-19.338 19.339H19.339C8.659 214.623 0 205.965 0 195.284Z" transform="matrix(3.67771 -.16377 2.14493 .90548 -12.11 31.204)"/>
        </g>
      </g>
    </g>
    <path fill="#FFF" fill-rule="evenodd" stroke="#455A64" stroke-miterlimit="8" stroke-width="13.75" d="M2754.77 752.457c-15.21-84.096 40.64-164.599 124.73-179.809l609.06-110.154c84.09-15.21 164.6 40.633 179.81 124.729l250.55 1385.347c15.21 84.09-40.63 164.6-124.73 179.81l-609.05 110.15c-84.1 15.21-164.6-40.63-179.81-124.73Z"/>
    <path fill="#455A64" fill-rule="evenodd" d="m3329.05 556.731-268.7 48.597c-17.14 3.1-33.55-8.282-36.65-25.423l-5.61-31.035 330.77-59.824 5.61 31.035c3.1 17.141-8.28 33.55-25.42 36.65Z"/>
    <path fill="url(#p)" fill-rule="evenodd" d="M3025.54 713.628a6.785 6.785 0 0 1-1.36 9.502 6.798 6.798 0 0 1-9.51-1.367l-20.04-26.776c-2.25-3.002-1.63-7.256 1.37-9.502a6.786 6.786 0 0 1 9.5 1.366Z"/>
    <path fill="#0070C0" fill-rule="evenodd" d="M2878.87 721.228a6.322 6.322 0 0 1 7.35 5.096 6.324 6.324 0 0 1-5.1 7.347l-18.37 3.323a6.323 6.323 0 0 1-7.35-5.096 6.324 6.324 0 0 1 5.1-7.347Z"/>
    <path fill="#0070C0" fill-rule="evenodd" d="M2847.74 718.245a6.784 6.784 0 0 1 5.47-7.888 6.791 6.791 0 0 1 7.89 5.471l5.4 29.895a6.784 6.784 0 0 1-5.47 7.888 6.776 6.776 0 0 1-7.88-5.471Zm26.4-4.775a6.784 6.784 0 0 1 5.47-7.888 6.792 6.792 0 0 1 7.89 5.472l5.4 29.895a6.785 6.785 0 0 1-5.47 7.888v-.001a6.79 6.79 0 0 1-7.89-5.471Z"/>
    <path fill="url(#q)" fill-rule="evenodd" d="M2898.07 724.445c-2.2-12.165 5.22-23.692 16.58-25.745 11.35-2.054 22.34 6.143 24.54 18.309 2.2 12.165-5.22 23.691-16.57 25.745-11.36 2.053-22.34-6.144-24.55-18.309Zm12.79-2.312c.92 5.105 5.15 8.614 9.44 7.838 4.3-.777 7.03-5.545 6.11-10.65-.93-5.106-5.16-8.615-9.45-7.838-4.29.776-7.03 5.544-6.1 10.65Z"/>
    <path fill="url(#r)" fill-rule="evenodd" d="M2997.66 724.832a6.782 6.782 0 0 1-8.44 4.563 6.788 6.788 0 0 1-4.57-8.446l9.57-32.05c1.07-3.592 4.86-5.635 8.45-4.563a6.79 6.79 0 0 1 4.56 8.446Z"/>
    <path fill="url(#s)" fill-rule="evenodd" d="M2940.98 704.69c-2.25-3.001-1.63-7.255 1.37-9.502a6.786 6.786 0 0 1 9.5 1.366l20.04 26.777a6.785 6.785 0 0 1-1.36 9.502 6.798 6.798 0 0 1-9.51-1.367Z"/>
    <path fill="url(#t)" fill-rule="evenodd" d="M2968.86 693.486a6.788 6.788 0 0 1 8.45-4.563 6.79 6.79 0 0 1 4.56 8.446l-9.57 32.05a6.782 6.782 0 0 1-8.44 4.563 6.788 6.788 0 0 1-4.57-8.446Z"/>
    <path fill="#F7DD6D" fill-rule="evenodd" d="M3125.06 684.503c-3.73-20.587 9.94-40.294 30.53-44.017l161.64-29.235c20.59-3.723 40.3 9.947 44.02 30.533 3.72 20.587-9.95 40.294-30.53 44.017l-161.65 29.235c-20.58 3.723-40.29-9.947-44.01-30.533Z"/>
    <path fill="none" stroke="#AFABAB" stroke-linecap="round" stroke-miterlimit="8" stroke-width="10.313" d="m3495.31 599.034 53.562-9.688m-49.382 38.445 53.562-9.688"/>
    <path fill="#FBFBFB" fill-rule="evenodd" d="M3252.08 1269.44c-5.79-32.03 15.48-62.69 47.5-68.48l344.8-62.36c32.02-5.8 62.68 15.47 68.47 47.5 5.8 32.03-15.47 62.69-47.5 68.48l-344.79 62.36c-32.03 5.79-62.68-15.48-68.48-47.51Z"/>
    <g clip-path="url(#u)">
      <g clip-path="url(#v)">
        <g clip-path="url(#w)">
          <path fill="#540000" d="m3072.784 1884.82-23.293 4.213-.16-.888-2.565-14.177a12.994 12.994 0 0 0-2.462-5.668 22.016 22.016 0 0 1 6.4-2.808 42.363 42.363 0 0 1 5.178-1.12 17.356 17.356 0 0 1 9.915 1.08 7.61 7.61 0 0 1 4.59 5.772 2116.79 2116.79 0 0 0 2.397 13.597Zm-6.916-3.089-.958-5.298-.391-2.16a5.444 5.444 0 0 0-2.1-4.175 9.535 9.535 0 0 0-8.673-.632c-.713.281-.713.618-.601 1.24l2.195 12.134.139.77Zm106.038-18.903 1.779-.139a6.016 6.016 0 0 0 5.652-5.087 9.028 9.028 0 0 0-1.387-7.666 4.934 4.934 0 0 0-6.07-1.959 5.446 5.446 0 0 0-3.838 4.638 9.012 9.012 0 0 0 .054 2.833l2.14 11.839-6.422 1.161c-1.565-7.297-2.321-14.863-4.365-22.104l5.772-1.044a.754.754 0 0 1 .549.329c.118.65.448 1.294.714 1.918.111.195.247.376.402.539.185-.14.35-.304.493-.487a8.18 8.18 0 0 1 5.87-4.393c5.52-1.472 11.19 1.81 12.662 7.332l.01.035a13.69 13.69 0 0 1 .027 8.095 9.894 9.894 0 0 1-6.807 6.978 33.73 33.73 0 0 1-4.854.878.6.6 0 0 1-.428-.168c-.644-1.197-1.227-2.223-1.953-3.528Zm-17.876-47.293 5.92-1.07c.273 0 .528.138.678.366.346.732.59 1.574.933 2.46.207-.038.533-.097.569-.409 1.952-4.754 8.476-5.69 12.037-4.255a10.135 10.135 0 0 1 6.15 6.285 12.664 12.664 0 0 1-1.548 12.23 9.027 9.027 0 0 1-4.843 3.475c-1.42.257-2.96.535-4.295.93a.993.993 0 0 1-1.31-.65c-.488-1.012-1.06-1.979-1.619-3.039l1.747-.316a6.015 6.015 0 0 0 5.514-5.001 8.842 8.842 0 0 0-1.376-7.607 5.082 5.082 0 0 0-6.01-1.97 6.016 6.016 0 0 0-3.809 4.632c-.1.934-.094 1.876.02 2.809l2.14 11.84-6.452 1.166-.15-.829c-1.033-5.712-2.06-11.395-3.1-17.137-.235-1.302-.718-2.62-1.196-3.91Zm-45.83 39.986 6.274-1.135.182 1.007 1.868 10.33a7.52 7.52 0 0 0 2.116 4.263 5.083 5.083 0 0 0 4.123 1.333 5.534 5.534 0 0 0 4.752-6.178 10.947 10.947 0 0 0-1.316-5.417 4.782 4.782 0 0 0-4.838-2.58l-2.782.504c.25-1.196.612-2.367 1.08-3.496a3.008 3.008 0 0 1 1.946-1.239 9.806 9.806 0 0 1 8.524 1.668 8.512 8.512 0 0 1 3.329 4.717 14.678 14.678 0 0 1 .662 7.552 10.768 10.768 0 0 1-7.04 8.395 14.558 14.558 0 0 1-9.082.481 9.925 9.925 0 0 1-6.804-6.014 15.184 15.184 0 0 1-.86-2.9l-1.885-10.419Zm-15.666 25.605-.35-.242-6.067 1.097a.661.661 0 0 1-.07-.385l-3.527-19.505c-.102-.562-.166-.917.4-1.172l6.945-2.663a14.287 14.287 0 0 1 7.133-.617c3.264.19 6.244 1.92 8.026 4.661.52.888.9 1.85 1.127 2.853l2.388 13.2-6.364 1.152-.155-.859-2.066-11.424a6.377 6.377 0 0 0-2.235-3.906 5.594 5.594 0 0 0-3.73-1.19c-1.394.069-2.753.498-4.182.542-.71.129-.54.557-.46 1l3.158 17.464Zm42.673-25.507c-.14-.77-.268-1.48-.194-2.257l-.038-.208c-.102-.562-.24-1.332.007-1.651a4.721 4.721 0 0 1 1.92-1.05 51.805 51.805 0 0 1 5.502-1.515 13.022 13.022 0 0 1 8.4.987 7.037 7.037 0 0 1 3.908 4.703c.893 3.415 1.498 6.76 2.114 10.163l.085.474 2.96-.536.76 4.203-22.909 4.144-.76-4.203 13.704-2.479c-.536-2.96-.863-5.957-1.606-8.88a6.014 6.014 0 0 0-6.26-4.186 13.114 13.114 0 0 0-7.593 2.29Zm-55.867-21.593c-.204-1.125-.181-2.351-.194-3.602a.903.903 0 0 1 .39-.713 30.528 30.528 0 0 1 6.29-2.574 17.235 17.235 0 0 1 8.214-.385 9.023 9.023 0 0 1 7.353 6.006l2.612 14.444-6.186 1.119-.129-.71c-.695-3.849-1.38-7.637-2.077-11.485a5.685 5.685 0 0 0-4.883-4.863 12.031 12.031 0 0 0-6.692.69c-1.604.596-3.2 1.405-4.699 2.073Zm58.448-11.794c.08-1.084.118-2.222.245-3.376.042-.284.193-.542.42-.718a9.417 9.417 0 0 1 4.552-1.373c1.52-.165 3.057.016 4.497.532a5.416 5.416 0 0 1 3.427 3.904l3.067 16.96-13.94 2.52-.75-4.143 7.518-1.36-.15-.829-1.794-9.915a3.338 3.338 0 0 0-4.272-2.834Zm-11.644 20.966-6.156 1.113-.14-.77-1.943-10.744a6.707 6.707 0 0 0-2.395-4.457 6.526 6.526 0 0 0-3.747-1.278 13.325 13.325 0 0 0-8.953 2.72c-.058-1.335-.164-2.6-.217-3.905 0-.196.09-.382.246-.503a14.438 14.438 0 0 1 5.068-2.23 20.833 20.833 0 0 1 2.693-.488 14.497 14.497 0 0 1 8.554.99 7.88 7.88 0 0 1 4.523 5.57 303.49 303.49 0 0 0 2.04 10.269c.169 1.1.272 2.518.427 3.713Zm4.706-.852-3.929-21.724 6.423-1.162 3.929 21.725Z"/>
          <path fill="#540000" d="m3089.058 1849.905-6.275 1.135-2.19-12.106 6.275-1.134Zm-14.342 25.825-2.478-13.705 6.275-1.135 1.734 9.59c.06.238.016.49-.119.694l-5.027 4.486a1.682 1.682 0 0 1-.385.07Z"/>
          <path fill="#F6BF29" d="M3237.731 1832.155c1.955-2.371 3.531-4.643 5.452-7.374 3.96-6.83 7.58-13.353 11.084-20.345l13.968-28.904c.315-.455.63-.91 1.015-.979 5.641-2.61 10.725-4.752 16.248-7.34l.384-.07c-.245.84-.806 2.133-1.046 3.002-5.518 13.774-10.55 27.859-16.492 41.312-1.077 3.007-2.514 6.049-3.63 8.665a129.04 129.04 0 0 1-6.495 12.76c-.63.908-.875 1.747-1.506 2.656-.385.07-.839-.246-1.224-.176-4.926-.698-9.856-1.427-14.85-2.51-.845-.275-2-.067-2.908-.697Z"/>
          <path fill="#540000" d="M3237.731 1832.155c.909.63 1.678.491 2.517.737 4.925.698 9.925 1.812 14.851 2.51.385-.07.84.246 1.224.176a75.818 75.818 0 0 1-4.346 6.9 84.74 84.74 0 0 1-6.046 6.289 41.837 41.837 0 0 1-14.19 7.732c-14.524 4.533-30.228-1.83-37.502-15.194a38.63 38.63 0 0 1-3.532-17.334 1.447 1.447 0 0 1 .176-1.224c1.154-.209 2.063.421 2.832.282a25.406 25.406 0 0 0 3.144 10.619 16.445 16.445 0 0 0 5.49 6.19 20.664 20.664 0 0 0 15.584 4.365 30.078 30.078 0 0 0 16.28-7.836 45.654 45.654 0 0 0 3.518-4.212Z"/>
          <path fill="#F6BF29" d="M3220.346 1827.291a39.784 39.784 0 0 0 5.432-3.764 71.358 71.358 0 0 0 10.797-13.14c3.737-5.872 6.92-12.439 10.233-18.632 1.437-3.04 2.937-5.727 4.522-8.795.213-.344.213-.344.657-.425 3.638-1.85 7.372-3.35 11.067-5.058l.236-.043c-.315.455-.56 1.294-.876 1.748-4.083 8.35-7.77 16.689-11.491 24.85-3.192 6.69-6.495 12.76-10.133 19.011a86.194 86.194 0 0 1-5.145 7.044 1.353 1.353 0 0 1-.7.524l-.385.07a532.59 532.59 0 0 1-13.206-2.38c-.43-.687-.933-.596-1.008-1.01Zm-13.575-24.351a12.034 12.034 0 0 0-1.398 5.449 11.46 11.46 0 0 0 1.118 6.186 6.016 6.016 0 0 0 6.691 3.191 18.858 18.858 0 0 0 9.047-5.243 46.76 46.76 0 0 0 7.899-11.424c2.096-3.955 4.227-7.55 6.318-11.535l.63-.909c2.822-1.304 5.91-2.658 8.463-3.914l.385-.07a48.554 48.554 0 0 1-2.968 5.733c-2.652 5.279-5.59 11.006-8.701 15.94-1.915 2.761-3.422 5.418-5.693 8.243a37.113 37.113 0 0 1-9.644 8.53 9.867 9.867 0 0 1-6.502 1.573 8.422 8.422 0 0 1-7.911-6.057 19.22 19.22 0 0 1-.46-11.502 16.544 16.544 0 0 0 1.436-3.041c.224-.958.61-1.027 1.29-1.15Z"/>
          <path fill="#540101" d="M3220.346 1827.291c.075.414.46.345.914.66 4.54.768 8.596 1.227 13.206 2.38l.385-.07a17.439 17.439 0 0 1-5.287 4.563 26.652 26.652 0 0 1-9.956 4.613 17.596 17.596 0 0 1-18.524-7.44 23.488 23.488 0 0 1-3.53-8.531c.385-.07 1.224.176 1.609.106a6 6 0 0 0 2.862.277 11.49 11.49 0 0 0 11.221 5.429c2.516.097 5-.598 7.1-1.987Z"/>
          <path fill="#F6BF29" d="M3224.933 1794.52c-.492 1.678-1.082 2.977-1.568 4.685-1.682 3.88-2.974 7.72-4.68 11.636-.316.455-.246.84-.561 1.294a1.744 1.744 0 0 1-1.924.348.962.962 0 0 1-.668-1.5c.619-3.168.805-6.533 1.284-9.799a5.131 5.131 0 0 1-.038-2.408.841.841 0 0 1 .764-.841c2.2-1.192 4.438-1.995 7.022-3.257Zm-22.676 29.257c-.963.04-1.926-.053-2.862-.277-.385.07-1.224-.176-1.609-.106a36.871 36.871 0 0 1-.067-9.158 63.168 63.168 0 0 1 1.85-7.518 2.798 2.798 0 0 1 2.1-1.572c-.561 1.294-.662 2.932-1.223 4.226a25.024 25.024 0 0 0 .257 10.712 11.557 11.557 0 0 0 1.554 3.693Zm-8.557-.837c-.77.14-1.68-.49-2.833-.282a44.245 44.245 0 0 1 3.18-13.352c.17-1.253 1.009-1.007 1.709-1.531a45.297 45.297 0 0 0-1.585 6.613 63.503 63.503 0 0 0-.472 8.553Z"/>
        </g>
      </g>
    </g>
    <g clip-path="url(#x)">
      <g clip-path="url(#y)">
        <g clip-path="url(#z)">
          <path fill="#505456" d="M3081.47 1587.571c.066-.542.08-1.09.038-1.634l-2.224-12.3-.226-1.251 10.552-1.909a.84.84 0 0 1 .05.281l1.792 9.905a9.758 9.758 0 0 1-4.95 10.455c-.419.276-.805.48-1.259.807 3.917 4.283 7.856 8.563 11.959 13.013l-1.684.305-9.127 1.65a1.447 1.447 0 0 1-1.585-.627c-3.673-4.661-7.309-9.24-10.97-13.838-.253-.288-.496-.645-.8-.97-.906.41-.825 1.108-.692 1.842l2.826 15.623-10.552 1.908-.024-.13c-.734-4.056-1.46-8.07-2.013-12.114a10.416 10.416 0 0 1 4.627-10.397c.41-.32.846-.621 1.327-1.043-3.892-3.53-7.741-7.068-11.79-10.726l3.733-.675 8.179-1.479c.555-.12 1.129.1 1.46.56 3.384 4.046 6.85 8.054 10.294 12.067.245.245.418.459.641.708.14.008.28-.002.418-.03Z"/>
          <path fill="#319E3B" d="M3177.092 1552.94a10.435 10.435 0 0 0 6.34 2.53 8.882 8.882 0 0 0 8.148-4.237 20.752 20.752 0 0 0 3.781-13.72 24.52 24.52 0 0 0-7.311-16.395c-.527-.573-1.066-1.21-1.657-1.772l-.047-.26a17.741 17.741 0 0 1 8.758 1.603 25.506 25.506 0 0 1 10.578 9.943 25.748 25.748 0 0 1 4.043 18.656 21.758 21.758 0 0 1-8.223 13.677 14.211 14.211 0 0 1-14.285 1.848 14.255 14.255 0 0 1-9.832-10.255c-.118-.402-.172-.95-.293-1.619Z"/>
          <path fill="#F7B309" d="M3178.976 1543.15a30.237 30.237 0 0 0-1.955 3.362 11.996 11.996 0 0 0 1.246 11.942 23.77 23.77 0 0 0 18.28 10.755 29.54 29.54 0 0 0 9.887-1.03l1.295-.234c-.661 1.033-1.074 1.954-1.725 2.785a19.868 19.868 0 0 1-13.027 7.816 28 28 0 0 1-19.21-2.587 21.621 21.621 0 0 1-11.833-18.362 13.156 13.156 0 0 1 9.739-13.55 17.542 17.542 0 0 1 7.303-.897Z"/>
          <path fill="#0188C9" d="M3191.018 1550.465a18.344 18.344 0 0 1-.538-1.373 11.732 11.732 0 0 0-11.291-6.983 22.916 22.916 0 0 0-17.65 8.25 25.698 25.698 0 0 0-5.673 10.899c-.16.474-.258.915-.48 1.535a16.747 16.747 0 0 1-2.73-6.348 23.135 23.135 0 0 1 2.73-15.826 25.962 25.962 0 0 1 13.009-12.848 21.49 21.49 0 0 1 19.554.92 13.158 13.158 0 0 1 6.16 14.842 19.861 19.861 0 0 1-3.091 6.932Z"/>
          <path fill="#505456" d="M3039.875 1614.615c1.413-9.682 2.87-19.126 4.208-28.728l-15.105 2.732-3.095-17.112 10.639-1.924 1.838 10.164 15.105-2.732a29.804 29.804 0 0 1 .823 9.968c-1.483 8.068-2.607 16.271-3.895 24.55a1.425 1.425 0 0 1-1.412 1.436c-2.738.383-5.416.98-8.07 1.46-.34.086-.687.149-1.036.186Zm84.003-42.692-1.34-7.401 1.08-.195 17.737-3.208a18.517 18.517 0 0 1 4.031-.261 7.72 7.72 0 0 1 7.56 6.432c.38 1.358.671 2.731.921 4.112l4.078 22.55-11.09 2.006-4.114-22.744c-.64-3.54-1.744-4.342-5.434-3.675l-13.422 2.427Zm-1.541 28.937-11.006 1.99-4.433-24.513c-.628-2.115-1.74-2.961-4.005-2.551l-8.135 1.47-1.265-6.99.13-.024c4.898-.886 9.797-1.772 14.785-2.407a7.719 7.719 0 0 1 8.91 6.144c.359 1.116.612 2.274.863 3.41l4.058 22.441c-.024.347.009.695.098 1.03Z"/>
          <path fill="#515557" d="m3135.757 1576.861 3.777 20.889-10.637 1.924-3.369-18.623c3.338-1.383 6.694-2.793 10.229-4.19Z"/>
        </g>
      </g>
    </g>
    <g clip-path="url(#A)">
      <g clip-path="url(#B)">
        <g clip-path="url(#C)">
          <path fill="#0950A3" d="m3061.31 1285.2 12.465-2.255c.6-.135 1.227.049 1.66.485 3.611 3.033 7.253 6.088 11.137 8.827.34.237.77.81 1.19.436.42-.374.132-.919.056-1.339a74.057 74.057 0 0 0-2.984-9.298c-.142-.788-.194-1.076.678-1.207l9.29-1.68c.603-.11.789.02.925.619.966 4.595 2.05 9.088 3.1 13.695.398 2.204 1.079 4.467 1.509 6.692.126.465.421.865.826 1.125l9.061 6.492c.205.071.347.26.358.477l-12.099 2.188a3.017 3.017 0 0 1-1.422-.366c-4.06-3.276-7.956-6.827-12.113-10.032a10.57 10.57 0 0 0-1.464-.9c-.772-.376-1.18-.086-1.091.711a30.12 30.12 0 0 0 .55 3.045 300.304 300.304 0 0 0 2.447 9.179c.114.63-.592 1.218-.592 1.218l-8.766 1.586c-.604.109-.787.142-1.008-.631-.71-2.718-1.011-5.59-1.72-8.308a265.87 265.87 0 0 1-2.836-13.58 2.242 2.242 0 0 0-1.198-1.681c-2.332-1.503-4.599-3.098-6.918-4.684Zm-77.042-.08 11.443-2.069c.525-.095.744.218 1.016.521a34.403 34.403 0 0 1 3.331 5.984l1.646 3.253c1.262 2.482 2.05 2.8 5.071 2.416 3.02-.384 6.325-1.144 9.527-1.723a7.2 7.2 0 0 1 6.794 2.349 13.175 13.175 0 0 1 3.35 6.684l3.517 19.448c.143.787-.07.96-.778 1.09l-10.498 1.898c-.761.137-.935-.075-1.054-.731l-3.218-17.794a4.987 4.987 0 0 0-2.675-3.853 4.16 4.16 0 0 0-2.748-.207l-7.873 1.424a8.001 8.001 0 0 1-9.557-4.587c-1.612-3.069-3.09-6.298-4.612-9.465a18.005 18.005 0 0 0-2.682-4.637Zm8.192 64.921-11.338 2.05c-.656.12-.675-.284-.825-.663-1.48-3.093-2.95-6.27-4.414-9.42-4.49-9.839-9.204-19.719-13.746-29.549a29.337 29.337 0 0 0-5.069-8.244c.237-.194.532-.305.838-.314l10.13-1.832c.483-.132.997.044 1.3.442a31.793 31.793 0 0 1 4.947 8.022c2.4 5.177 4.802 10.515 7.197 15.665 3.669 7.847 7.32 15.751 10.99 23.598l.042.236Zm-17.469-49.23 11.101-2.008c.463-.12.952.033 1.264.395a32.512 32.512 0 0 1 4.39 7.039l9.707 20.55c.077.215.17.425.276.627.207.397.114.63-.332.711l-10.76 1.946c-.762.138-.792-.48-.954-.776l-5.769-12.264c-1.721-3.673-3.547-7.327-5.283-11.078a18.908 18.908 0 0 0-3.64-5.142Zm69.81-12.626 11.338-2.05c.498-.09.734.165 1.064.485a27.832 27.832 0 0 1 4.517 7.15l3.734 8.053c.478.997.478.997-.597 1.192l-9.816 1.775a1.174 1.174 0 0 1-1.469-.629c-1.371-3.085-2.776-6.057-4.352-9.078a22.697 22.697 0 0 0-4.419-6.898Zm-18.397 3.327 11.364-2.055c.498-.09.677.149 1.001.442a28.752 28.752 0 0 1 4.866 7.874c1.324 2.824 2.34 4.998 3.605 7.642.266.575.3.759-.387.856l-10.472 1.894c-.866.157-.887-.409-1.108-.884a236.744 236.744 0 0 1-4.471-9.734 22.427 22.427 0 0 0-4.398-6.035Zm156.355-10.201c3.242 17.93-8.663 35.093-26.593 38.336-17.93 3.243-35.093-8.663-38.336-26.593-3.243-17.93 8.663-35.093 26.593-38.335 17.93-3.243 35.093 8.663 38.336 26.592Z"/>
          <path fill="#0950A3" d="m3172.545 1262.154.1.551a32.75 32.75 0 0 1-4.413 27.9c-.33.575-.365.826.228 1.26l11.958 8.272c.589.409.743.218.959-.39a33.039 33.039 0 0 0 .268-24.44 31.991 31.991 0 0 0-9.1-13.153Zm-23.67-8.294a28.974 28.974 0 0 1 10.707 1.207.825.825 0 0 1 .622.592 33.496 33.496 0 0 1-2.513 27.313c-.57 1.052-.574 1.025-1.628.295l-28.523-19.695-.36-.342a20.959 20.959 0 0 1 5.4-4.31 34.675 34.675 0 0 1 14.752-5.053 6.507 6.507 0 0 1 1.543-.008Zm-7.52 65.268a42.679 42.679 0 0 1-1.576-8.713 33.715 33.715 0 0 1 4.164-18.94c.355-.579.618-.328.944-.17a378.386 378.386 0 0 0 11.934 8.439c5.322 3.645 10.6 7.352 15.932 10.914.722.546.765.783.232 1.285a42.917 42.917 0 0 1-3.967 3.239 32.012 32.012 0 0 1-6.477 3.15l-3.154 1.14-.5.09a42.486 42.486 0 0 1-9.874 1 33.62 33.62 0 0 1-6.437-.977 1.094 1.094 0 0 1-1.221-.457Zm-21.723-45.182 12.396 8.6c1.385.914 1.36.919.418 2.309a32.673 32.673 0 0 0-3.592 27.048c.15.356.22.741.204 1.128a31.343 31.343 0 0 1-10.25-14.272 33.974 33.974 0 0 1 .506-24.322Z"/>
          <path fill="#0950A3" d="M3172.545 1262.154a32.374 32.374 0 0 1 9.086 13.073c3 7.889 2.904 16.62-.269 24.442-.193.577-.379.746-.959.39l-11.958-8.272c-.592-.435-.556-.685-.227-1.26a32.587 32.587 0 0 0 4.412-27.9Z"/>
          <path fill="#FBD635" d="M3182.759 1281.311c3.242 17.93-8.663 35.093-26.593 38.336-17.93 3.243-35.093-8.663-38.336-26.593-3.243-17.93 8.663-35.093 26.593-38.335 17.93-3.243 35.093 8.663 38.336 26.592Z"/>
          <path fill="#FBD635" d="m3172.545 1262.154.1.551a32.75 32.75 0 0 1-4.413 27.9c-.33.575-.365.826.228 1.26l11.958 8.272c.589.409.743.218.959-.39a33.039 33.039 0 0 0 .268-24.44 31.991 31.991 0 0 0-9.1-13.153Z"/>
          <path fill="#0950A3" d="M3148.875 1253.86a28.974 28.974 0 0 1 10.707 1.207.825.825 0 0 1 .622.592 33.496 33.496 0 0 1-2.513 27.313c-.57 1.052-.574 1.025-1.628.295l-28.523-19.695-.36-.342a20.959 20.959 0 0 1 5.4-4.31 34.675 34.675 0 0 1 14.752-5.053 6.507 6.507 0 0 1 1.543-.008Zm-7.52 65.268a42.679 42.679 0 0 1-1.576-8.713 33.715 33.715 0 0 1 4.164-18.94c.355-.579.618-.328.944-.17a378.386 378.386 0 0 0 11.934 8.439c5.322 3.645 10.6 7.352 15.932 10.914.722.546.765.783.232 1.285a42.917 42.917 0 0 1-3.967 3.239 32.012 32.012 0 0 1-6.477 3.15l-3.154 1.14-.5.09a42.486 42.486 0 0 1-9.874 1 33.62 33.62 0 0 1-6.437-.977 1.094 1.094 0 0 1-1.221-.457Zm-21.723-45.182 12.396 8.6c1.385.914 1.36.919.418 2.309a32.673 32.673 0 0 0-3.592 27.048c.15.356.22.741.204 1.128a31.343 31.343 0 0 1-10.25-14.272 33.974 33.974 0 0 1 .506-24.322Zm52.913-11.792a32.374 32.374 0 0 1 9.086 13.073c3 7.889 2.904 16.62-.269 24.442-.193.577-.379.746-.959.39l-11.958-8.272c-.592-.435-.556-.685-.227-1.26a32.587 32.587 0 0 0 4.412-27.9Z"/>
        </g>
      </g>
    </g>
    <g clip-path="url(#D)">
      <g clip-path="url(#E)">
        <g clip-path="url(#F)">
          <path fill="#152B76" d="M3016.25 1474.7c-3.57.64-7.14 1.29-10.71 1.94-1.06.19-1.41.05-1.38-1.11.05-2.89.02-5.77-.09-8.63-.2-1.06.61-1.09 1.27-1.21l14.88-2.69c1.16-.18 2.29-.5 3.38-.93a6.336 6.336 0 0 0 4.2-5.74c.16-2.15.15-4.31-.01-6.46a4.466 4.466 0 0 0-3.99-4.87c-.46-.04-.92-.02-1.38.08-3.45.16-6.78 1.23-10.24 1.54-2.25.3-4.55.23-6.78-.22-4.95-1.09-7.57-4.74-7.66-10.49 0-1.76.11-3.51 0-5.24-.15-.87.12-1.26 1.02-1.4 3.79-.68 7.62-1.37 11.41-2.06 1.09-.2 1.2.24 1.17 1.06-.02.81.01 1.95-.02 2.88-.25 1.77.99 3.4 2.76 3.65.12.01.23.02.35.02 1.11.14 2.23.11 3.33-.08 3.71-.77 7.45-1.34 11.22-1.71 7.05-.5 11.23 2.38 12.4 9.28 1.05 5.56.98 11.28-.19 16.81-1.68 7.74-7.03 11.82-14.41 13.53-3.46.8-7.01 1.27-10.52 1.9Zm42.9-7.76c-4.41.8-8.07 1.46-11.7 2.12-1.06.19-1.32-.14-1.32-1.12.03-2.69.01-5.36-.05-8.06-.02-1.06.23-1.6 1.46-1.79 4.94-.9 9.91-1.79 14.88-2.69 5.58-1.01 7.81-3.84 7.44-8.75-.1-1.34-.03-2.68-.01-4.01.39-2.46-1.3-4.77-3.76-5.15a4.6 4.6 0 0 0-1.57.03c-3.46.17-6.78 1.23-10.24 1.54-2.14.31-4.32.28-6.45-.1-4.81-.72-8.26-5.01-7.95-9.86-.07-1.98.01-3.95-.07-5.96-.16-.89.25-1.31 1.24-1.46 3.74-.67 7.48-1.35 11.16-2.02.86-.15 1.28-.23 1.18.94-.11 1.17.07 2.32.02 3.49-.16 1.55.95 2.94 2.5 3.12 1.25.3 2.55.33 3.82.09 2.79-.51 5.55-1.15 8.37-1.52 2.46-.44 4.98-.47 7.45-.08a9.29 9.29 0 0 1 6.78 5.61c1.13 2.84 1.68 5.89 1.62 8.95.28 3.91.02 7.84-.77 11.67a16.818 16.818 0 0 1-11.5 12.14 94.32 94.32 0 0 1-12.53 2.87Zm42.27-7.65c-4.04.74-8.09 1.47-12.11 2.19-1.62.3-1.85-.18-1.8-1.54.05-2.58.13-5.16-.02-7.72-.21-1.18.37-1.45 1.41-1.61 6.11-1.11 12.23-2.21 18.34-3.32 1.15-.16 2.27-.48 3.34-.95a6.73 6.73 0 0 0 4.27-6.53c.05-2.12.01-4.21-.05-6.34-.07-2.58-2.05-4.15-5.13-3.97-1.46.1-2.91.29-4.34.56-5.3.96-10.63 1.92-15.93 2.88-1.43.26-1.7-.13-1.67-1.4.05-2.75.02-5.48-.02-8.24-.12-.64.15-1.06.91-1.17 9.11-1.45 18.04-3.7 27.22-4.55 7.57-.71 11.25 2.46 12.45 10.02.74 4.61.8 9.3.18 13.92a17.43 17.43 0 0 1-14.79 15.41c-4.1.75-8.21 1.49-12.28 2.22Z"/>
          <path fill="#0371BB" d="m3174.54 1431.57-.66 1.59c-4.53-.1-8.59-2.82-10.4-6.96-.46-1.44-.67-2.94-.63-4.44a10.89 10.89 0 0 0-10.56-9.16c-3.3-.64-6.7-.38-9.87.75-1.39.39-2.7.98-4.24 1.57-.02-4.14-.07-8.2-.08-12.26-.01-1.5 1.32-1.16 2.11-1.54l9.63-1.74c3.81-.5 7.68-.1 11.31 1.16.6.14 1.22.2 1.85.18 4.29 1.47 8.03 4.23 10.7 7.89 4.3 6.98 4.62 15.7.84 22.96Z"/>
          <path fill="#152B76" d="M3152.23 1412.61c5.28.09 9.73 3.95 10.57 9.16-.05 1.5.16 3 .63 4.44 1.81 4.14 5.87 6.86 10.39 6.96 3.93.55 7.93-.01 11.55-1.62.22-.06.45-.1.67-.13 1.17-.38 1.82-.32 1.79 1.27-.11 3.24.05 6.5.06 9.73.13.72-.05 1.5-1.07 1.77-7.86 2.23-15.75 3.43-23.74.64a30.675 30.675 0 0 1-7.71-4.54c-.91-1.17-1.95-2.23-3.11-3.16a23.215 23.215 0 0 1-1-22.87c.28-.57.64-1.1.97-1.65Z"/>
          <path fill="#0371BB" d="M3152.24 1437.05c1.16.92 2.2 1.98 3.11 3.15 2.34 1.88 4.93 3.41 7.71 4.55a45.397 45.397 0 0 1-23.39 7.89c-.72.13-1.42.25-1.4-.9.02-3.72.03-7.47.03-11.19-.13-.7.02-1.13.88-1.02 4.5.37 9.01-.49 13.06-2.48Z"/>
          <path fill="#152B76" d="M3173.67 1408.59a22.102 22.102 0 0 0-10.71-7.89c2.39-1.44 4.95-2.62 7.39-3.9 4.5-1.9 9.24-3.17 14.08-3.76 3.13-.56 3.27-.59 3.36 2.65.1 3.24-.09 6.04.03 9.07.01 1.01-.06 1.28-1.17 1.17-4.5-.38-9 .55-12.98 2.66Z"/>
        </g>
      </g>
    </g>
    <g clip-path="url(#G)">
      <g clip-path="url(#H)">
        <g clip-path="url(#I)">
          <g clip-path="url(#J)">
            <path fill="#BB2025" d="m3097.16 1125.01 62.67-11.34 12.66 70.01-62.67 11.34Z"/>
          </g>
          <g clip-path="url(#K)">
            <path fill="#ED1C24" d="m3102.98 1127.53 52.72-9.54 10.71 59.21-52.72 9.54Z"/>
          </g>
          <path fill="#ED1C24" d="M3144 1137.11a7.033 7.033 0 0 0-6.75 4.77l-2.98 8.15-1.25-16.81c.07-2-1.49-3.69-3.49-3.76-.41-.01-.81.04-1.19.15-2.48.44-4.21 2.7-3.97 5.21l1.5 18.52c.15 2.74 2.49 4.85 5.23 4.7.31-.02.63-.06.93-.14 2.2-.28 4.03-1.84 4.65-3.96l2.83-9.03.07.44.33 6.64.18 1.05a4.225 4.225 0 0 0 4.51 2.76c2.47-.42 4.2-2.68 3.97-5.18l-.1-3.1-.27-3.98c.5-4.61-2.05-6.33-4.27-6.36m-115.06 28.42c-2.76.42-4.65 3-4.23 5.76.03.22.08.44.14.66l.44 10.45c.61 5.91-3.68 11.19-9.59 11.8-.07.01-.14.02-.22.02-4.62.84-8.67-.84-8.85-6.54l-.77-12.3-.09-.46c.26-2.4-1.47-4.54-3.86-4.8-.44-.05-.88-.03-1.31.05-3.68.67-4.75 2.79-4.5 6.5l.35 7.12.37 4.73c.4 7.56 7.69 13.45 18.85 11.43 12.04-2.17 19.84-9.26 19-19.24l-.47-10.45c-.06-5.67-4.27-4.91-5.2-4.74m-83.98 46.27-9.73 1.76-.86-12.76c.24-3.87 1.66-6.51 5.03-6.58a4.66 4.66 0 0 1 5.12 4.16c.02.19.03.39.02.58Zm18.97-3.43-10.12 1.83s-.8-12.26-.88-18.03c-.08-5.78-3.03-6.13-6.66-5.47l-10.72 1.94a2.64 2.64 0 0 1-2.81-2.33 3.136 3.136 0 0 1 2.75-3.34l14.4-2.6c9.73-1.76 12.8 2 12.76 7.74.3 7.16 1.24 20.38 1.24 20.38m27.88-5.15-9.81 1.77-.88-18.04c-.36-4.7-2.07-6.29-6.25-5.54l-7.31 1.33c-1.27.27-2.52-.54-2.79-1.81-.03-.17-.05-.35-.05-.52-.1-1.66 1.1-3.12 2.75-3.34l9.73-1.76c9.73-1.76 13.23 1.9 13.8 7.53Zm60.15-10.88-8.71 1.58c-1.28.25-2.51-.57-2.77-1.85-.03-.16-.04-.32-.04-.49a3.146 3.146 0 0 1 2.75-3.33l7.89-1.43c3.68-.66 6.17-5.43 6.18-10.68-.45-5.17-3.6-9.4-7.26-8.74l-9.2 1.66a2.35 2.35 0 0 1-2.77-1.84c-.03-.16-.04-.32-.04-.49a3.146 3.146 0 0 1 2.75-3.33l8.79-1.59c9.27-1.68 17.04 4.1 17.54 12.18.37 9-5.99 16.89-14.87 18.42m29.97-5.53-9.73 1.76-.89-12.76c-.2-3.8 1.25-6.44 4.5-6.49a4.659 4.659 0 0 1 5.15 4.13c.02.2.03.4.03.61Z"/>
          <path fill="#ED1C24" d="m3101 1183.64-9.64 1.75s-.77-12.27-.88-18.04c-.11-5.77-3.01-6.13-6.67-5.47l-10.69 1.94c-1.41.1-2.65-.93-2.81-2.34a3.132 3.132 0 0 1 2.75-3.33l14.4-2.61c9.71-1.75 12.8 2 12.76 7.75-.17 7.24.86 20.45.86 20.45m-87.05-15.94c-2.84.03-4.4 2.25-4.19 6.04l.61 11.25c.34 1.84.92 5.08 4.63 4.41 2.75-.5 4.37-2.21 4.17-6.01l-.61-11.24a3.982 3.982 0 0 0-4.61-4.45"/>
        </g>
      </g>
    </g>
    <g clip-path="url(#L)">
      <g clip-path="url(#M)">
        <g clip-path="url(#N)">
          <path fill="#2A2C7E" d="m3248.963 1703.704 2.11 11.669-156.044 28.222-2.11-11.669Zm-87.22 21.865a4.45 4.45 0 0 0 5.132 3.803 5.144 5.144 0 0 0 3.715-5.325 5.144 5.144 0 0 0-5.324-3.716c-1.97.383-4.409 3.229-3.522 5.238Zm19.845-3.589a4.553 4.553 0 0 0-5.245-3.704 4.912 4.912 0 0 0-3.57 5.403 5.144 5.144 0 0 0 5.386 3.626 4.76 4.76 0 0 0 3.443-5.25Zm25.696-13.143-3.401-18.806c-.348-1.924-.422-3.923-.646-6.026l-2.936.531-1.91-10.555 10.38-1.877a3.55 3.55 0 0 1 3.709 3.172l3.745 20.704 3.873-.7-2.49-13.77-2.079.22-1.9-10.505c3.595-.65 7.139-1.29 10.682-1.932 1.493-.27 3.086 1.455 3.43 3.353l3.721 20.578 4.202-.76-2.49-13.769-2.407.279-1.9-10.505 7.998-1.446c4.101-.742 5.625.316 6.376 4.467l3.69 20.4a14.466 14.466 0 0 1-.272 5.722 7.717 7.717 0 0 1-6.519 5.44l-32.196 5.823c-.22.02-.443.008-.66-.038Zm-41.184 7.58-11.111 2.01-4.482-24.78-2.331.264-1.872-10.352a4.73 4.73 0 0 1 1.035-.344c3.82-.273 7.424-2.31 11.44-1.207.357.092.911-.165 1.292-.52a16.924 16.924 0 0 1 13.48-1.629 11.728 11.728 0 0 1 8.697 9.354l4.239 23.438-18.223 3.296-1.941-10.732 6.96-1.259-2.102-11.618c-.334-1.848-2.153-2.224-3.826-2.366a4.604 4.604 0 0 0-5.103 5.314c1.4 7.014 2.558 13.993 3.849 21.13Zm-43.03 7.782-11.516 2.083-4.486-24.805-19.009 3.438-1.923-10.631 25.11-4.541a5.299 5.299 0 0 1 6.28 4.087v.004c1.915 10.005 3.686 20.088 5.545 30.365Zm28.147-5.091-11.492 2.079-4.481-24.78-15.465 2.797-1.928-10.656 5.645-1.021 14.554-2.632a6.585 6.585 0 0 1 7.875 4.953c1.905 9.667 3.507 19.389 5.292 29.26Zm36.125-32.228-3.873.7-1.91-10.555 12.656-2.288c1.57-.284 3.096 1.505 3.49 3.681l5.64 31.184-11.517 2.083Z"/>
          <path fill="#2A2C7E" d="m3103.12 1727.781-10.63 1.923-3.932-21.743 10.63-1.922Zm-32.716-20.901c1.522 8.415-4.066 16.47-12.481 17.992-8.416 1.522-16.471-4.066-17.994-12.481-1.522-8.416 4.067-16.471 12.482-17.993 8.415-1.522 16.471 4.066 17.993 12.481Z"/>
          <path fill="#E8B11F" d="M3068.178 1751.222a4.784 4.784 0 1 1-9.416 1.703 4.784 4.784 0 0 1 9.416-1.703Zm-12.023 2.175a4.784 4.784 0 1 1-9.416 1.703 4.784 4.784 0 0 1 9.416-1.703Zm23.793-4.304a4.784 4.784 0 1 1-9.416 1.703 4.784 4.784 0 0 1 9.416-1.703Zm-26.768-56.952c-10.199 1.804-17.003 11.533-15.2 21.731 1.662 9.39 10.106 16.039 19.624 15.45l.946 6.965a4.604 4.604 0 0 0-2.11 4.956c.005.319.063.635.17.936a4.733 4.733 0 0 0 5.814 3.315l.012-.004a4.784 4.784 0 0 0 3.286-5.822 5.144 5.144 0 0 0-3.712-3.903l-.838-6.514-.064-.354c9.494-2.453 15.509-11.791 13.817-21.45-1.729-10.196-11.396-17.06-21.593-15.332l-.153.026Zm17.072 14.766a15.433 15.433 0 0 1-9.963 17.172l-.898-4.961 3.33-4.863c.476.3 1.045.42 1.603.337a2.572 2.572 0 0 0 1.87-2.952 2.366 2.366 0 0 0-4.657.842l.055.304-2.891 4.392-1.522-6.678 3.81-5.525c.478.3 1.046.42 1.604.337a2.572 2.572 0 0 0 1.974-2.814 2.366 2.366 0 0 0-4.657.842l.05.279-3.202 4.552-2.217-10.525-1.696.306 1.858 10.277-4.159-2.907-.05-.279a2.572 2.572 0 0 0-2.396-1.684 2.572 2.572 0 0 0-2.312 2.536 2.572 2.572 0 0 0 2.708 1.967 2.366 2.366 0 0 0 1.384-.878l5.141 3.279.902 6.868-4.138-2.937a2.16 2.16 0 0 0-2.502-1.403 2.366 2.366 0 1 0 .843 4.657 1.852 1.852 0 0 0 1.33-.737l5.09 3.575.498 4.484c-8.451 1.11-16.202-4.841-17.312-13.292-1.11-8.451 4.842-16.201 13.293-17.311 8.156-1.071 15.72 4.444 17.193 12.537Z"/>
        </g>
      </g>
    </g>
    <g clip-path="url(#O)">
      <g clip-path="url(#P)">
        <g clip-path="url(#Q)">
          <path fill="#FC6200" d="M3176.266 2139.997c-2.147-1.257-4.076-2.828-5.74-4.447-6.704-6.74-10.68-15.072-11.877-24.728-.263-2.969-.526-5.938-.475-8.69-.045-3.282-.621-6.469-1.994-9.511-2.602-5.289-5.156-10.312-8.99-14.83-2.122-2.632-4.678-4.638-7.936-5.968-.313-.218-.844-.122-.94-.653.17-.58.748-.41 1.014-.458 3.235-.31 6.348.223 9.34 1.602 2.991 1.379 6.2 2.444 9.266 2.712l.265-.048c1.424.291 1.568 1.088.65 2.076-.652.941-1.98 1.181-2.994 1.639l-2.125.384c3.015 3.02 5.763 6.088 8.03 9.518 5.827-11.75 14.596-19.369 27.199-22.471 8.136-2.02 15.907-1.506 23.894 1.712-1.376-.026-2.438.166-3.814.141-18.659 1.455-31.75 10.953-38.742 28.398-3.823 9.193-4 18.823-1.427 28.505 1.226 5.263 3.419 9.803 6.673 14.15.362.484.675.701.723.967Z"/>
          <path fill="#00538A" d="M3159.457 2124.388c-.797.144-1.424-.29-2.003-.46-2.678-1.161-4.656-2.997-6.416-5.147-2.435-2.85-4.17-6.376-5.373-9.998-.963-2.294-1.444-4.95-2.142-7.292-1.54-5.48-5.06-9.78-9.498-13.09-5.74-4.447-12.424-6.53-19.52-6.343-2.173.119-4.08.19-5.891.791-.096-.531.17-.579.435-.627 1.98-1.181 4.009-2.096 6.399-2.529 12.289-3.32 26.236 1.014 34.361 11.063 3.472 4.034 4.916 8.984 5.297 14.125.167 2.438.02 4.659.452 7.049.455 4.031 1.659 7.653 3.393 11.179.048.265.41.748.506 1.28Zm16.976-7.732-1.2-6.639c-.193-1.062-.193-1.062.87-1.254l11.684-2.113c1.859-.337 3.5-.36 5.237.15 3.693.703 6.25 2.708 7.936 5.968.963 2.294 1.661 4.636 1.562 7.122-.027 4.393-2.155 7.795-6.164 9.891-2.994 1.639-6.181 2.215-9.608 1.463-4.85-1.042-7.865-4.062-8.995-8.794-.602-1.81-.986-3.935-1.322-5.794Zm7.772.514.72 3.983c.336 1.86 1.155 3.357 2.24 4.806 2.026 2.102 6.275 1.333 7.122-1.562.387-.893.509-1.738.365-2.535.147-2.22-.238-4.345-.887-6.42-.145-.798-.554-1.546-.916-2.03-1.133-1.714-2.653-2.536-4.511-2.2l-4.25.768c-.796.145-.796.145-.604 1.207l.72 3.983Zm78.355-6.493c1.472.557 2.413 1.21 3.571 1.548 2.317.678 4.538.825 6.879.128 3.091-1.108 5.097-3.665 5.317-6.995a19.927 19.927 0 0 0-1.009-5.577c-1.324-2.777-3.737-3.986-6.61-3.192-3.139.841-4.155 4.316-2.348 6.732 1.036 1.184.964 2.294.625 3.452-.17.58-.388.893-.557 1.472-.17.58-.435.627-1.232.771-3.378-.486-6.127-3.554-6.221-7.102-.02-4.659 2.422-7.843 7.105-9.238a18.062 18.062 0 0 1 5.311-.96 28.212 28.212 0 0 0 6.64-1.201l1.593-.289c1.062-.192 1.785.775 1.133 1.715-.17.58-.653.941-.87 1.255-.918.988-.87 1.254-.147 2.22 2.531 3.382 3.468 7.052 3.127 11.227-.39 3.91-2.347 6.732-5.607 8.419-4.01 2.096-8.258 2.864-12.626 1.46-2.896-.847-2.63-.895-3.11-3.55-.676-.701-.82-1.498-.964-2.295Zm-33.601 2.238.672 3.718c.673 3.718-.754 6.444-4.014 8.13-1.497.82-3.09 1.108-4.949 1.444-.531.096-.797.144-.941-.652l-.769-4.25c-.096-.53.122-.844.653-.94l1.062-.192c1.28-.506 2.198-1.495 1.91-3.088a23.883 23.883 0 0 0-1.105-6.108c-.746-2.607-3.568-4.565-6.537-4.302-2.704.214-5.36.695-7.726 2.768-.701.676-.701.676-1.16-.339-.408-.748-.77-1.231-1.18-1.98-.457-1.014-.457-1.014.244-1.69 1.4-1.35 2.898-2.17 4.709-2.77 2.56-1.012 5.167-1.758 7.967-1.442 2.22.147 4.223.608 6.37 1.865 2.195 1.522 3.641 3.455 4.121 6.11l.673 3.718Zm83.116-12.015 1.249 6.904c.192 1.062.24 1.327-.822 1.52l-4.78.864c-1.062.192-1.062.192-1.254-.87-.672-3.718-1.61-7.388-2.017-11.153-.408-3.766-3.735-7.004-8.781-6.091-2.125.384-4.2 1.034-5.82 2.698-.7.675-.748.41-1.158-.34l-1.23-2.245c-.36-.483-.191-1.062.292-1.424.701-.675 1.183-1.037 1.932-1.446 3.478-2 6.882-2.89 11.01-2.814 1.906-.07 3.644.438 5.164 1.26 2.992 1.378 4.752 3.528 5.328 6.715.119 2.172.503 4.297.887 6.421Zm-53.455 16.798c.192 1.062.24 1.327-.822 1.52l-11.42 2.065c-1.062.192-1.062.192-1.254-.87l-.528-2.921c-.24-1.328-.24-1.328 1.087-1.568l4.25-.769c1.062-.192 1.062-.192.87-1.254l-1.633-9.03-.144-.796c-.65-2.076-1.905-2.946-4.03-2.562l-.53.096c-.797.144-.797.144-.941-.653l-.576-3.186c-.096-.531.121-.845.653-.941 2.076-.65 3.983-.72 6.203-.573 3.379.485 5.622 2.274 6.246 5.726-.361-.483 2.088 13.06 2.568 15.716Z"/>
          <path fill="#00538A" d="m3215.02 2125.309 1.73 9.56.143.796c.096.532-.12.845-.652.941l-3.983.72-1.593.289c-.532.096-.58-.17-.628-.435a596049496511.728 596049496511.728 0 0 1-3.602-19.917l-.096-.531c-.144-.797-.144-.797.918-.989l5.046-.912c1.062-.192 1.062-.192 1.254.87.262 2.969.887 6.421 1.463 9.608Zm17.371-17.677-1.344-7.435c-.193-1.063-.193-1.063.87-1.255l5.045-.912c.797-.144 1.062-.192 1.254.87l1.921 10.622c.096.531-.072 1.11-.29 1.424-1.353 1.616-2.755 2.966-4.108 4.582l-.218.314c-.217.313-.7.675-1.013.457-.314-.217-.362-.483-.41-.748-.794-2.873-1.274-5.529-1.707-7.919Zm64.353-2.04.96 5.311c.144.797.192 1.062-.605 1.206l-5.045.913c-.797.144-.797.144-.941-.653l-1.97-10.888c-.095-.53.122-.844.654-.94l5.31-.96c.532-.097.846.12.942.652.07 1.907.406 3.765.695 5.359Z"/>
        </g>
      </g>
    </g>
    <g clip-path="url(#R)">
      <g clip-path="url(#S)">
        <g fill="#0E2D6D" clip-path="url(#T)">
          <path d="m3087.841 986.644.72 3.98a.593.593 0 0 1-.434.627l-20.167 3.648-.816-4.511 3.98-.72.193 1.061c.192 1.062.192 1.062 1.253.87l.217-.314-.336-1.857 4.246-.768.384 2.123 1.592-.288-.384-2.123 4.246-.768.383 2.123 1.327-.24-.384-2.123Zm-9.328 34.023.288 1.592 2.653-.48-.288-1.592 4.246-.768.288 1.592 2.653-.48-.288-1.592 4.246-.768.288 1.592 2.653-.48-.288-1.592 5.042-.911.048.265c-.291 1.423-.848 2.893-1.138 4.316.048.265-.218.314-.482.361l-12.472 2.256-.096-.53c-.409-.749-1.084-1.449-1.88-1.305a1.565 1.565 0 0 0-1.304 1.88c.096.531-.17.579-.435.627l-11.41 2.063a.593.593 0 0 1-.626-.434 25.19 25.19 0 0 0-2.844-3.596l4.247-.768.288 1.592 2.653-.48-.288-1.592Zm18.498 13.643-9.022 1.633c-.723-.966-1.084-1.448-2.145-1.256a2.022 2.022 0 0 0-1.57 1.928l-9.022 1.631-.768-4.245 22.157-4.008.768 4.246Zm-27.038-25.252 21.76-3.935.047.265c-.291 1.423-.847 2.894-1.138 4.316.048.266-.217.314-.482.361l-16.717 3.024c-.266.048-.266.048-.58-.17Zm4.308 10.182-.72-3.98a.27.27 0 0 1 .218-.314l16.982-3.07.767 4.245Zm-1.014-12.422-.768-4.246 15.126-2.735.768 4.245Zm13.025-13.591.816 4.511-14.993 2.712-.815-4.511Zm-10.202 51.17-.767-4.245 9.154-1.656.768 4.246Zm12.235-6.597 9.022-1.632.768 4.246-9.023 1.632Zm-15.836 15.47 32.107-5.807c1.036 1.182 2.337 2.317 4 3.935l-38.21 6.91c.858-2.073 1.547-3.568 2.103-5.038Zm1.256-2.146c.773-1.784 1.595-3.303 2.151-4.773l23.35-4.223a38.118 38.118 0 0 1 3.688 3.717Zm23.734-27.859c-.508 1.736-1.064 3.207-1.571 4.943l-8.757 1.584-.816-4.511Zm-14.859 2.688.768 4.245-8.757 1.584c-1.036-1.183-1.806-2.414-3.156-3.814Zm-52.863.134-3.546.093a1.24 1.24 0 0 1-1.3-1.135l-.625-3.45c-.096-.53.29-1.422.821-1.518 1.328-.24 2.34-.697 3.402-.89 4.729-1.128 9.674-2.57 14.45-3.435a23.622 23.622 0 0 1 8.828.322 8.09 8.09 0 0 1 6.746 7 167.736 167.736 0 0 1 2.928 16.187 6.337 6.337 0 0 1-5.262 7.254h-.003l-9.287 1.68a1.267 1.267 0 0 1-1.567-1.086l-1.033-4.198a1.268 1.268 0 0 1 1.087-1.567l6.585-1.465-2.783-15.39c-.096-.53-.458-1.013-.722-.965-2.942-1.113-5.452.163-8.37.691a1.24 1.24 0 0 0-1.135 1.302l1.403 21.394c.07 1.905-.365 2.532-.895 2.628l-6.103 1.104a1.267 1.267 0 0 1-1.566-1.087 49.595 49.595 0 0 1-.907-11.071c-.502-4.294-.644-8.104-1.146-12.398Zm-75.96 37.579c1.888-7.74 5.253-20.955 6.004-24.379.217-.313-.144-.796-.675-.7l-15.655 2.832a.728.728 0 0 1-.94-.652l-2.256-12.472a.728.728 0 0 1 .652-.94l7.032-1.271a.728.728 0 0 1 .94.652l1.008 5.572c.075.278.34.461.627.435l15.124-2.736c5.307-.96 5.643.898 4.215 6.637-1.889 7.74-3.994 15.794-5.883 23.534a3.613 3.613 0 0 1-3.33 2.794l-5.838 1.056c-.372.067-.915.248-1.025-.362Zm45.832-7.194-7.43 1.344a1.16 1.16 0 0 1-1.253-.87c-2.256-12.47-3.89-18.478-2.753-22.794.218-.313-.144-.796-.674-.7l-13.002 2.352a1.483 1.483 0 0 1-1.471-.556 16.637 16.637 0 0 1-1.395-4.68 1.16 1.16 0 0 1 .87-1.254c4.68-1.394 21.18-4.105 25.69-4.92a1.78 1.78 0 0 1 1.52.821 14.6 14.6 0 0 1 .863 4.776 1.16 1.16 0 0 1-.87 1.254l-2.34.697a1.24 1.24 0 0 0-1.134 1.301l.067 4.92 3.312 18.31Zm10.709-27.147-4.028.455a1.267 1.267 0 0 1-1.567-1.087l-.72-3.98a1.268 1.268 0 0 1 1.087-1.567 79.403 79.403 0 0 1 11.145-2.016 1.267 1.267 0 0 1 1.567 1.087 133.296 133.296 0 0 0 10.707 27.384 1.349 1.349 0 0 1-1.038 1.832l-5.838 1.056a1.483 1.483 0 0 1-1.47-.556l-2.169-2.896a20.201 20.201 0 0 1-4.153 4.313 8.735 8.735 0 0 1-5.693 1.852 1.484 1.484 0 0 1-1.036-1.183l-.816-4.51s1.809-.602 2.823-1.06c4.367-1.611 6.01-4.648 4.397-9.015-.784-3.585-2.042-6.756-3.198-10.109Z"/>
        </g>
      </g>
    </g>
    <g clip-path="url(#U)">
      <g clip-path="url(#V)">
        <g clip-path="url(#W)">
          <g clip-path="url(#X)">
            <path fill="#00AB4E" d="M2994.47 896.764c-6.92-31.485 13-62.617 44.49-69.53 31.49-6.916 62.62 13.005 69.53 44.494 6.91 31.486-13 62.617-44.49 69.53-31.49 6.913-62.62-13.009-69.53-44.494"/>
          </g>
          <g clip-path="url(#Y)">
            <path fill="#F47920" d="M3044.43 861.551a5.948 5.948 0 0 1-4.8 6.917 5.944 5.944 0 0 1-6.91-4.798 5.948 5.948 0 0 1 4.8-6.918c3.23-.581 6.33 1.565 6.91 4.799"/>
          </g>
          <g clip-path="url(#Z)">
            <path fill="#FFF" d="m3053.41 865.364-4.84.876c-.56.1-.92.631-.82 1.18l1.61 8.924c.1.554.63.919 1.18.819l12.53-2.265 1.9 10.513c.09.53-.04 1.073-.4 1.611-.36.533-.81.858-1.34.954l-4.8.867c-.55.1-.92.631-.82 1.185l.88 4.838c.1.554.63.922 1.18.822l4.8-.867c2.43-.441 4.4-1.726 5.84-3.82 1.44-2.095 1.94-4.391 1.5-6.828l-2.95-16.359c-.1-.554-.64-.918-1.18-.819l-12.53 2.265-.56-3.082c-.1-.545-.63-.914-1.18-.814"/>
          </g>
          <g clip-path="url(#aa)">
            <path fill="#FFF" d="m3003.69 907.163 4.84-.876c.55-.1.92-.631.82-1.18l-2.4-13.249c-.1-.554-.63-.919-1.18-.819l-4.84.876c-.56.1-.92.63-.82 1.18l2.4 13.249c.1.55.62.919 1.18.819"/>
          </g>
          <g clip-path="url(#ab)">
            <path fill="#FFF" d="m3023.74 903.494-4.67.846c-.56.1-1.08-.269-1.18-.819l-2.47-13.639a5.055 5.055 0 0 0-5.87-4.074l-10.48 1.894c-.55.1-1.08-.269-1.18-.823l-.84-4.675c-.1-.554.26-1.085.81-1.184l10.48-1.895c6.43-1.164 12.59 3.11 13.76 9.545l2.46 13.639c.1.555-.26 1.085-.82 1.185"/>
          </g>
          <g clip-path="url(#ac)">
            <path fill="#FFF" d="m3037.89 873.739-15.86 2.869c-.55.1-.92.631-.82 1.18l.87 4.831c.1.553.63.919 1.18.819l1.6-.29 3.35 18.486c.1.553.63.919 1.18.818l4.83-.873c.55-.1.91-.626.81-1.18l-3.34-18.485 7.44-1.347c.54-.097 1.06.043 1.61.421.55.382.86.823.96 1.36l1.51 8.315c.09.53-.05 1.07-.43 1.61-.37.546-.82.861-1.36.958l-2.31.419c-.55.1-.92.631-.82 1.181l.87 4.83c.1.554.63.918 1.18.819l2.32-.419c2.43-.44 4.4-1.721 5.85-3.814 1.45-2.092 1.96-4.385 1.52-6.814l-1.5-8.315c-.44-2.429-1.73-4.397-3.82-5.849-2.09-1.459-4.38-1.971-6.82-1.53"/>
          </g>
          <g clip-path="url(#ad)">
            <path fill="#FFF" d="M3095.88 863.251c-.55.1-.92.631-.82 1.18l2.95 16.316c.1.529-.04 1.069-.42 1.61-.38.545-.82.86-1.36.957l-2.49.451-3.35-18.485c-.09-.55-.62-.919-1.17-.82l-4.83.874c-.56.1-.92.63-.82 1.18l3.34 18.486-2.58.467c-.54.097-1.06-.038-1.61-.42-.55-.379-.86-.823-.96-1.361l-2.95-16.315a1.02 1.02 0 0 0-1.18-.82l-4.68.848c-.55.099-.92.631-.82 1.18l2.95 16.316c.44 2.429 1.72 4.397 3.81 5.849s4.38 1.963 6.82 1.523l11.62-2.102c2.43-.439 4.39-1.721 5.85-3.813 1.45-2.093 1.96-4.385 1.52-6.815l-2.95-16.315c-.1-.549-.63-.919-1.18-.819l-4.69.848Z"/>
          </g>
          <g clip-path="url(#ae)">
            <path fill="#00AB4E" d="m2897.65 898.869-13.45 2.433a.715.715 0 0 0-.58.828l4.59 25.379c.07.386.45.644.83.574l4-.723c.39-.07.64-.442.57-.828l-3.83-21.206 7.65-1.384c1.5-.271 2.68-.109 3.5.478.82.591 1.4 1.75 1.7 3.443l2.99 16.494a.71.71 0 0 0 .82.574l4.01-.724a.714.714 0 0 0 .57-.827l-3.07-16.977c-.58-3.221-1.77-5.432-3.54-6.569-1.73-1.134-4-1.463-6.76-.965"/>
          </g>
          <g clip-path="url(#af)">
            <path fill="#00AB4E" d="m2916.33 895.49-4 .724a.715.715 0 0 0-.58.828l4.59 25.379c.07.386.45.644.83.574l4-.723c.39-.07.64-.442.57-.828l-4.59-25.379a.702.702 0 0 0-.82-.575"/>
          </g>
          <g clip-path="url(#ag)">
            <path fill="#00AB4E" d="m2945.84 890.153-11.59 2.096a.708.708 0 0 0-.57.828l.62 3.472a.72.72 0 0 0 .83.575l6.9-1.249 1.64 11.549c.17 1.305.15 2.398-.05 3.254-.21.834-.58 1.535-1.11 2.08-.54.554-1.26.997-2.14 1.32-.91.333-1.98.613-3.18.83a18.599 18.599 0 0 1-2.52.288c-.47.019-.89.028-1.25.028-.25-.003-.49-.01-.71-.024l-4.75-21.117a.72.72 0 0 0-.83-.547l-4.18.757a.728.728 0 0 0-.47.312.727.727 0 0 0-.1.556l5.95 24.512c.07.291.32.51.62.542.52.057 1.11.092 1.72.113.71.019 1.5-.004 2.33-.073.84-.069 1.67-.153 2.46-.246.79-.095 1.6-.216 2.39-.358 2-.363 3.8-.841 5.34-1.415a8.894 8.894 0 0 0 3.92-2.863c.95-1.214 1.55-2.634 1.79-4.223.22-1.563.2-3.425-.08-5.541l-1.62-11.947-.53-2.934a.717.717 0 0 0-.83-.575"/>
          </g>
          <g clip-path="url(#ah)">
            <path fill="#00AB4E" d="m2955.6 888.387-3.99.723a.715.715 0 0 0-.58.828l2.15 11.855c.07.387.44.644.82.574l4-.723c.39-.07.65-.441.58-.827l-2.15-11.856a.718.718 0 0 0-.83-.574"/>
          </g>
          <g clip-path="url(#ai)">
            <path fill="#00AB4E" d="m2986.01 905.536-2 .362-2.34-12.922c-.59-3.226-1.79-5.417-3.59-6.519-1.8-1.093-4.05-1.402-6.69-.925l-10.18 1.841a.714.714 0 0 0-.57.827l.63 3.473c.07.386.44.644.83.574l9.38-1.698c1.46-.263 2.57-.082 3.31.542.75.641 1.26 1.635 1.5 2.957l2.31 12.823-13.9 2.514a.716.716 0 0 0-.57.828l.62 3.449c.07.386.44.644.83.574l21.31-3.854c.38-.07.64-.442.57-.828l-.62-3.449a.72.72 0 0 0-.83-.569"/>
          </g>
        </g>
      </g>
    </g>
    <path fill="#FBFBFB" fill-rule="evenodd" d="M3276.37 1403.72c-5.79-32.02 15.48-62.68 47.5-68.48l344.79-62.36c32.03-5.79 62.69 15.48 68.48 47.51 5.79 32.02-15.47 62.68-47.5 68.48l-344.79 62.35c-32.03 5.8-62.69-15.47-68.48-47.5Zm24.29 134.29c-5.79-32.03 15.47-62.69 47.5-68.48l344.79-62.36c32.03-5.79 62.69 15.48 68.48 47.5 5.79 32.03-15.48 62.69-47.5 68.48l-344.79 62.36c-32.03 5.79-62.69-15.47-68.48-47.5Zm24.29 134.29c-5.8-32.03 15.47-62.69 47.5-68.48l344.79-62.36c32.02-5.79 62.68 15.48 68.48 47.5 5.79 32.03-15.48 62.69-47.51 68.48l-344.79 62.36c-32.02 5.79-62.68-15.48-68.47-47.5Zm24.28 134.29c-5.79-32.03 15.48-62.69 47.5-68.48l344.79-62.36c32.03-5.79 62.69 15.47 68.48 47.5 5.8 32.03-15.47 62.69-47.5 68.48l-344.79 62.36c-32.03 5.79-62.68-15.48-68.48-47.5Zm24.29 134.28c-5.79-32.02 15.48-62.68 47.5-68.48l344.79-62.35c32.03-5.8 62.69 15.47 68.48 47.5 5.79 32.02-15.47 62.68-47.5 68.48L3442 1988.38c-32.03 5.79-62.69-15.48-68.48-47.51Zm24.29 134.29c-5.79-32.03 15.47-62.69 47.5-68.48l344.79-62.36c32.03-5.79 62.69 15.48 68.48 47.51 5.79 32.02-15.48 62.68-47.5 68.47l-344.79 62.36c-32.03 5.8-62.69-15.47-68.48-47.5Zm-170.01-940.01c-5.8-32.03 15.47-62.69 47.5-68.48l344.79-62.36c32.02-5.793 62.68 15.47 68.48 47.5 5.79 32.03-15.48 62.69-47.51 68.48l-344.79 62.36c-32.02 5.79-62.68-15.48-68.47-47.5Zm-24.29-134.29c-5.79-32.028 15.47-62.687 47.5-68.479l344.79-62.359c32.03-5.793 62.69 15.475 68.48 47.502 5.79 32.027-15.48 62.686-47.5 68.479l-344.79 62.357c-32.03 5.79-62.69-15.47-68.48-47.5Zm-24.29-134.288c-5.79-32.027 15.48-62.686 47.5-68.479l344.79-62.359c32.03-5.793 62.69 15.475 68.48 47.502 5.79 32.027-15.47 62.686-47.5 68.479l-344.79 62.359c-32.03 5.792-62.69-15.475-68.48-47.503Z"/>
    <path fill="#231F20" fill-rule="evenodd" d="m3279.93 1936.91-9.5 1.72 2.17 12c.33 1.55.39 3.15.17 4.73a6.389 6.389 0 0 1-1.66 3.02c-.56.56-1.18 1.06-1.85 1.49-.67.49-1.51.98-2.44 1.54-.93.56-1.65.89-2.55 1.35l-2.27 1.02-1.02-2.78 2.77-1.76c.91-.58 1.78-1.21 2.61-1.89a7.17 7.17 0 0 0 2.26-3.11c.35-1.65.33-3.37-.05-5.02l-1.8-9.93-8.81 1.6 1.88 9.08c.16.51.15 1.06-.03 1.57-.43.58-.98 1.06-1.61 1.4l-3.93-11.56-9.32 1.91.05.31 11.46 32.44 3.79-1.2c3.56-1.12 7.01-2.56 10.3-4.31 2.71-1.34 5.19-3.1 7.36-5.21 1.96-1.98 3.35-4.46 4.05-7.16.57-3.01.56-6.09-.03-9.1Zm-32.69 26.11-2.88-15.94c-.43-2.38-1.63-3.44-3.63-3.08l-11.09 2.01 1.88 10.38 4.75-.86 2.04 11.29Zm-13.09 16.2-4.37-24.16c-.16-.9-.29-1.61-.39-2.14-.14-.78-.26-1.47-.53-2.01-.21-.62-.47-1.22-.79-1.8a3.73 3.73 0 0 0-4.28-2.04l-18.64 3.37 1.87 10.38 13.21-2.39c.09.08.16.17.2.28.05.17.08.33.09.5.07.41.22 1.22.43 2.38l3.51 19.38Zm-23.24-6.39-3.56.64-3.08-19.07c-.43-2.38-1.65-3.53-3.76-3.15l-19.86 3.59 1.88 10.39 12.99-2.35 2.49 12.25-12.97 2.35.67 10.48 25.77-4.66Zm-28.6 1.93-2.88-15.94c-.43-2.38-1.63-3.44-3.62-3.07l-11.12 2.01 1.88 10.38 4.63-.84 2.04 11.28Zm-17.96-13.44c-.4-2.25-1.47-3.24-3.34-2.9l-8.63 1.56-3.8.69.64 10.56 6.45-1.47 1.12 6.18c.45 1.59.01 3.3-1.15 4.48-.47.44-.98.84-1.53 1.18-.86.57-1.76 1.07-2.7 1.5l-6.93-21.93-9.97 1.97.05.31 11.1 32.46 2.32-.74c1.4-.4 2.76-.86 4.09-1.37 1.33-.51 2.91-1.27 4.21-1.94 1.41-.69 2.75-1.5 4.01-2.42 1.19-.84 2.28-1.81 3.25-2.9 1.47-1.62 2.49-3.6 2.96-5.73.44-2.38.44-4.81 0-7.19Z"/>
    <path fill="#D20000" fill-rule="evenodd" d="M3091.98 1987.74c-1.92-10.59 5.05-20.72 15.55-22.62 10.51-1.9 20.58 5.14 22.5 15.74 1.92 10.59-5.05 20.71-15.56 22.61-10.51 1.9-20.58-5.14-22.49-15.73Z"/>
    <path fill="#FFF" fill-rule="evenodd" d="M3097.44 1991.53c2.67 6.44 10.85 8.83 17.41 7.53 6.56-1.31 11.61-8.8 10.78-12.04-.83-3.23-5.87-5.29-7.88-5.32-6.69-.24-7.98-.71-8.54-2.87-.57-2.15 1.32-2.99 2.99-3.63 6.11-2.33 13.16 1.64 13.16 1.64a16.191 16.191 0 0 0-18.45-7.04c-5.38 1.61-11.41 6.8-10.37 11.84.87 4.13 5.87 4.68 8.27 4.36 3.91-.51 7.78-.25 8.54 2.75.77 3-2.02 4.25-3.92 4.74-2.91.74-11.99-1.96-11.99-1.96"/>
  </g>
</svg>
