<svg width="344" height="354" xmlns="http://www.w3.org/2000/svg" xml:space="preserve" overflow="hidden"><defs><clipPath id="a"><path d="M2629 1403h344v354h-344z"/></clipPath></defs><g clip-path="url(#a)" transform="translate(-2629 -1403)"><path d="M2683 1520c0-64.62 53.95-117 120.5-117s120.5 52.38 120.5 117-53.95 117-120.5 117-120.5-52.38-120.5-117Z" fill="#002060" fill-rule="evenodd"/><path d="M2864.12 1545.09h-120.24v-73.18h120.24v73.18Zm12.88-77.48c0-4.74-3.86-8.61-8.59-8.61h-128.82c-4.73 0-8.59 3.87-8.59 8.61V1558h146v-90.39ZM2814 1564v2.83c0 1.7-.7 2.84-1.75 2.84h-17.5c-1.05 0-1.75-1.14-1.75-2.84V1564h-70v5.67c0 6.23 3.15 11.33 7 11.33h147c3.85 0 7-5.1 7-11.33V1564h-70Z" fill="#FFF" fill-rule="evenodd"/><text font-family="Rubik,Rubik_MSFontService,sans-serif" font-weight="400" font-size="60" direction="rtl" writing-mode="rl-tb" transform="translate(2680.81 1705)" x="255.521">יצירת קשר</text><text font-family="Rubik,Rubik_MSFontService,sans-serif" font-weight="400" font-size="60" transform="translate(2665.92 1705)"> </text></g></svg>