<svg width="268" height="185" xmlns="http://www.w3.org/2000/svg" xml:space="preserve" overflow="hidden"><defs><clipPath id="a"><path d="M1572 1889h268v185h-268z"/></clipPath></defs><g clip-path="url(#a)" transform="translate(-1572 -1889)" fill-rule="evenodd"><path d="M1826.26 1889h-240.52c-7.59 0-13.74 6.14-13.74 13.7v157.6c0 7.56 6.15 13.7 13.74 13.7h240.52c7.59 0 13.74-6.14 13.74-13.7v-157.6c0-7.56-6.15-13.7-13.74-13.7Zm-240.52 6.85h240.52c3.79 0 6.87 3.07 6.87 6.85v58.24h-254.26v-58.24c0-3.78 3.08-6.85 6.87-6.85Zm247.39 71.95v27.4h-254.26v-27.4Zm-6.87 99.35h-240.52c-3.79 0-6.87-3.07-6.87-6.85v-58.24h254.26v58.24c0 3.78-3.08 6.85-6.87 6.85Z" fill="#0070C0"/><path d="M1610 2030h55v6h-55ZM1679 2030h27v6h-27Z" fill="#00B0F0"/></g></svg>