<svg xmlns="http://www.w3.org/2000/svg" overflow="hidden" viewBox="0 0 1245 1079">
  <defs>
    <linearGradient id="b" x1="476.616" x2="459.904" y1="2048.98" y2="2015.56" gradientUnits="userSpaceOnUse" spreadMethod="reflect">
      <stop offset="0" stop-color="#00B0F0"/>
      <stop offset=".88" stop-color="#00B0F0"/>
      <stop offset="1" stop-color="#52DFD2"/>
    </linearGradient>
    <linearGradient id="c" x1="405" x2="368" y1="2032" y2="2032" gradientUnits="userSpaceOnUse" spreadMethod="reflect">
      <stop offset="0" stop-color="#00B0F0"/>
      <stop offset=".32" stop-color="#00B0F0"/>
      <stop offset=".87" stop-color="#0070C0"/>
      <stop offset="1" stop-color="#0070C0"/>
    </linearGradient>
    <linearGradient id="d" x1="447.123" x2="464.014" y1="2048.94" y2="2015.6" gradientUnits="userSpaceOnUse" spreadMethod="reflect">
      <stop offset="0" stop-color="#00B0F0"/>
      <stop offset=".29" stop-color="#00B0F0"/>
      <stop offset="1" stop-color="#52DFD2"/>
    </linearGradient>
    <linearGradient id="e" x1="411.765" x2="428.477" y1="2015.56" y2="2048.98" gradientUnits="userSpaceOnUse" spreadMethod="reflect">
      <stop offset="0" stop-color="#00B0F0"/>
      <stop offset=".88" stop-color="#00B0F0"/>
      <stop offset="1" stop-color="#52DFD2"/>
    </linearGradient>
    <linearGradient id="f" x1="441.258" x2="424.367" y1="2015.6" y2="2048.94" gradientUnits="userSpaceOnUse" spreadMethod="reflect">
      <stop offset="0" stop-color="#00B0F0"/>
      <stop offset=".29" stop-color="#00B0F0"/>
      <stop offset="1" stop-color="#52DFD2"/>
    </linearGradient>
    <clipPath id="a">
      <path d="M66 1340h1245v1079H66z"/>
    </clipPath>
  </defs>
  <g clip-path="url(#a)" transform="translate(-66 -1340)">
    <path fill="#F9D7AB" fill-rule="evenodd" d="M814.601 1934.662c-32.319-41.218-79.004-71.293-130.287-83.933-23.57-5.809-48.011-8.051-71.191-15.212a135.375 135.375 0 0 1-19.27-7.626c-9.081-34.926-13.581-71.004-13.288-107.056H444.707c.299 36.052-4.207 72.13-13.287 107.052a134.876 134.876 0 0 1-19.266 7.63c-23.18 7.161-47.621 9.403-71.191 15.212-51.287 12.64-97.972 42.715-130.287 83.933-32.32 41.223-50.067 93.323-49.525 145.408v330.765l606.054-8.738c53.756-.773 96.922-43.926 96.922-96.898V2080.07c.537-52.085-17.206-104.185-49.526-145.408"/>
    <path fill="#00B0F0" fill-rule="evenodd" d="M324.997 2166.566c-.013-1.246-.045-2.496-.06-3.74-.32 27.339-1.172 54.683-.787 82 .31-26.086 1.12-52.175.847-78.26"/>
    <path fill="#C59F7D" fill-rule="evenodd" d="M441.11 1812.879c48.875-.46 97.558-13.72 139.999-38.002-.262-6.662-.422-13.332-.367-19.999h-136.08c.156 19.386-1.062 38.776-3.553 58"/>
    <path fill="#F9D7AB" fill-rule="evenodd" d="M384.274 1579.132c-5.462-10.22-12.08-20.414-22.07-26.208-9.993-5.793-24.149-5.771-31.829 2.89-6.234 7.027-6.66 17.414-6.092 26.82 1.153 19.024 5.31 38.563 16.708 53.79 11.394 15.224 31.331 25.085 49.645 20.217 2.625-25.904 5.9-54.583-6.362-77.51"/>
    <path fill="#F8D09A" fill-rule="evenodd" d="m383.126 1599.605 1.975.317c-2.554-6.25-5.126-12.545-8.74-18.25-3.618-5.703-8.372-10.852-14.388-13.938-6.016-3.086-13.39-3.907-19.59-1.201-6.2 2.7-10.793 9.262-10.237 15.988 3.65-4.287 10.273-5.58 15.793-4.443 5.53 1.137 10.278 5.447 11.931 10.83-4.822.56-8.344 5.42-9.34 10.16-.997 4.746.256 9.694 2.153 14.16 1.098 2.595 2.448 5.14 4.44 7.135 1.99 1.999 4.708 3.41 7.532 3.347-2.534 3.388-6.856 6.066-11.086 6.267 9.112 4.439 20.969 3.825 29.332-1.902 1.24-9.469 1.06-18.956.225-28.47"/>
    <path fill="#F9D7AB" fill-rule="evenodd" d="M632.085 1589.13c5.54-10.216 12.255-20.413 22.389-26.206 10.138-5.794 24.5-5.771 32.29 2.889 6.324 7.027 6.756 17.413 6.18 26.82-1.169 19.023-5.387 38.562-16.95 53.79-11.558 15.222-31.784 25.088-50.363 20.215-2.664-25.903-5.99-54.582 6.454-77.507"/>
    <path fill="#F8D09A" fill-rule="evenodd" d="m634.103 1609.603-1.975.317c2.554-6.25 5.125-12.546 8.74-18.25 3.618-5.704 8.371-10.853 14.383-13.94 6.02-3.085 13.396-3.9 19.596-1.2 6.2 2.7 10.791 9.262 10.236 15.989-3.651-4.288-10.273-5.58-15.798-4.443-5.525 1.137-10.273 5.451-11.931 10.83 4.827.564 8.349 5.42 9.345 10.166.997 4.74-.257 9.688-2.153 14.154-1.098 2.596-2.448 5.14-4.441 7.14-1.989 1.999-4.707 3.406-7.532 3.342 2.535 3.389 6.857 6.071 11.086 6.268-9.115 4.439-20.973 3.824-29.331-1.902-1.24-9.469-1.06-18.956-.225-28.47"/>
    <path fill="#F9D7AB" fill-rule="evenodd" d="M668.141 1599.395c0 103.002-69.841 186.5-155.998 186.5-86.156 0-156.002-83.498-156.002-186.5 0-103.001 0-186.5 156.002-186.5 155.998 0 155.998 83.499 155.998 186.5"/>
    <path fill="#F8D09A" fill-rule="evenodd" d="M470.109 1652.394c0 5.246-17.012 9.5-38 9.5-20.989 0-38-4.254-38-9.5 0-5.247 17.011-9.5 38-9.5 20.988 0 38 4.253 38 9.5m153.017 0c0 5.246-17.235 9.5-38.498 9.5-21.263 0-38.502-4.254-38.502-9.5 0-5.247 17.24-9.5 38.502-9.5 21.263 0 38.498 4.253 38.498 9.5"/>
    <path fill="#F8D09A" fill-rule="evenodd" stroke="#FFB573" stroke-linecap="round" stroke-linejoin="round" stroke-miterlimit="10" stroke-width="3.438" d="M506.01 1567.39c3.61 25.287-2.595 51.883-16.996 72.845-3.035 4.412-6.576 9.072-6.395 14.45.208 6.084 5.425 11.075 11.186 12.776 5.76 1.7 11.938.781 17.808-.474"/>
    <path fill="#FFF" fill-rule="evenodd" d="M588.12 1522.987c-28.619 0-51.909 23.285-51.909 51.91 0 28.62 23.29 51.905 51.91 51.905 28.624 0 51.914-23.286 51.914-51.905 0-28.624-23.29-51.91-51.914-51.91m0 113.907c-34.184 0-61.998-27.813-61.998-61.997 0-34.19 27.814-62.003 61.998-62.003 34.189 0 62.002 27.814 62.002 62.003 0 34.184-27.813 61.997-62.002 61.997"/>
    <path fill="#FFF" fill-rule="evenodd" d="m492.886 1578.898-5.774-8.398c8.155-5.956 28.459-13.62 47 .01l-5.792 8.383c-17.466-12.85-35.256-.132-35.434.005"/>
    <path fill="none" stroke="#FFA34F" stroke-linecap="round" stroke-linejoin="round" stroke-miterlimit="10" stroke-width="6.875" d="M470.61 1695.45c25.857 24.26 60.342 22.18 85-5.132"/>
    <path fill="none" stroke="#FFB573" stroke-linecap="round" stroke-linejoin="round" stroke-miterlimit="10" stroke-width="6.875" d="M497.614 1723.374c8.32 3.003 17.338 3.773 26 2.214"/>
    <path fill="#F2F2F2" fill-rule="evenodd" d="m404.627 1832 3.165 15.741 1.269.339c28.377 12.061 63.703 49.516 96.972 49.577 33.269.059 78.059-45.519 107.506-53.949l9.655-.533 1.987-10.067c19.5 4.881 39.605 7.349 59.123 12.295l.597.207 25.918 8.315.238.777 10.67 3.709c36.256 16.167 68.552 41.509 92.771 73.296 32.296 42.392 50.031 95.958 49.49 149.515v231.487c0 54.468-43.135 98.845-96.852 99.64l-184.001 2.729-.007.02-44.763.665.003-.021h-.007l.093-.917-46.813.788.101.822-41.127.502-.225-.63-41.238.693-9.984-9.195-27.471 5.242a428.82 428.82 0 0 1-51.175 3.502l-41.833-2.13-.309 2.14c-38.944-7.233-79.232-.687-118.585-5.246-39.352-4.555-81.754-25.353-91.556-63.412-4.787-18.57-.977-38.122 2.847-56.911 13.282-65.312 26.643-130.887 49.196-193.654 11.277-31.379 24.976-62.145 41.715-91.034l25.877-39.352 1.665-3.857a233.033 233.033 0 0 1 21.433-33.124c24.223-31.232 56.517-56.132 92.774-72.017l16.211-5.536.17-.542 14.263-4.387 6.781-2.316c20.962-5.225 42.613-7.608 63.456-13.171Z"/>
    <path fill="#006387" fill-rule="evenodd" d="M463.985 1733.894c-.082 0-.164 0-.242-.005-14.235-.837-28.95-1.707-43.268-5.061-16.412-3.847-29.852-10.515-39.944-19.805-15.758-14.504-22.44-34.604-25.265-48.915-3.549-17.96-3.284-36.343-3.018-54.119.032-2.296 2.099-4.118 4.184-4.095a4.145 4.145 0 0 1 4.07 4.215c-.261 17.348-.521 35.28 2.858 52.38 2.588 13.091 8.633 31.423 22.74 44.41 9.036 8.319 21.232 14.32 36.25 17.844 13.626 3.193 27.985 4.04 41.873 4.855 2.273.133 4.011 2.098 3.878 4.385-.128 2.209-1.948 3.911-4.116 3.911"/>
    <path fill="#006387" fill-rule="evenodd" d="M476.11 1728.887c0 6.077-6.94 10.998-15.5 10.998-8.56 0-15.5-4.92-15.5-10.998 0-6.077 6.94-11.002 15.5-11.002 8.56 0 15.5 4.925 15.5 11.002"/>
    <path fill="#F9D7AB" fill-rule="evenodd" d="M355.719 2339.862c28.915-8.423 58.03-16.883 88.005-19.915 29.969-3.038 61.178-.361 88.326 12.643 27.154 13.005 49.729 37.343 55.903 66.71 1.967 9.355-16.113 11.858-25.346 14.494-9.224 2.631-19.026 2.12-28.608 1.59-31.937-1.773-63.874-3.55-95.811-5.322-22.81-1.265-47.683 4.317-66.805-8.126-9.568-6.23-15.233-17.171-17.508-28.326-2.275-11.16 1.12-22.387 1.844-33.748"/>
    <path fill="#DEE9FF" fill-rule="evenodd" d="M1188.173 2391.808h-952v7.861c0 10.568 8.59 19.139 19.183 19.139h913.635c10.592 0 19.182-8.57 19.182-19.139Z"/>
    <path fill="#CED9EE" fill-rule="evenodd" d="M1188.173 2391.808h-952v7.861c0 10.568 8.59 19.139 19.183 19.139h913.635c10.592 0 19.182-8.57 19.182-19.139Z"/>
    <path fill="#CED9EE" fill-rule="evenodd" d="M568.116 2399.67v-7.862h-332v7.862c0 10.573 8.6 19.139 19.203 19.139h293.594c10.604 0 19.203-8.566 19.203-19.139"/>
    <path fill="#CED9EE" fill-rule="evenodd" d="M501.25 2410.806h-21.276c-2.685 0-4.862-2.236-4.862-5.003 0-2.762 2.177-4.998 4.862-4.998h21.275c2.685 0 4.863 2.236 4.863 4.998 0 2.767-2.178 5.003-4.863 5.003m-44.004 0H435.97c-2.685 0-4.863-2.236-4.863-5.003 0-2.762 2.178-4.998 4.863-4.998h21.275c2.685 0 4.862 2.236 4.862 4.998 0 2.767-2.177 5.003-4.862 5.003"/>
    <path fill="#006387" fill-rule="evenodd" d="M420 1575c0-5.52 5.82-10 13-10s13 4.48 13 10-5.82 10-13 10-13-4.48-13-10Zm155 0c0-5.52 5.82-10 13-10s13 4.48 13 10-5.82 10-13 10-13-4.48-13-10Z"/>
    <path fill="url(#b)" fill-rule="evenodd" d="M479.296 2040.94a5.991 5.991 0 0 1-2.68 8.04 5.995 5.995 0 0 1-8.042-2.68l-11.35-22.7a5.992 5.992 0 0 1 2.68-8.04 5.995 5.995 0 0 1 8.042 2.68Z"/>
    <path fill="#0070C0" fill-rule="evenodd" d="M352 2027a5 5 0 0 1 0 10h-17a5.001 5.001 0 0 1 0-10Z"/>
    <path fill="#0070C0" fill-rule="evenodd" d="M325 2021c0-3.31 2.686-6 6-6s6 2.69 6 6v23c0 3.31-2.686 6-6 6s-6-2.69-6-6Zm24 0c0-3.31 2.686-6 6-6s6 2.69 6 6v23c0 3.31-2.686 6-6 6s-6-2.69-6-6Z"/>
    <path fill="url(#c)" fill-rule="evenodd" d="M368 2032c0-9.94 8.283-18 18.5-18s18.5 8.06 18.5 18-8.283 18-18.5 18-18.5-8.06-18.5-18Zm11.193 0c0 3.76 3.271 6.81 7.307 6.81 4.036 0 7.307-3.05 7.307-6.81s-3.271-6.81-7.307-6.81c-4.036 0-7.307 3.05-7.307 6.81Z"/>
    <path fill="url(#d)" fill-rule="evenodd" d="M455.179 2046.3a6.003 6.003 0 0 1-8.056 2.64 6.001 6.001 0 0 1-2.637-8.06l11.473-22.64a6.002 6.002 0 0 1 8.055-2.64 6 6 0 0 1 2.638 8.06Z"/>
    <path fill="url(#e)" fill-rule="evenodd" d="M409.085 2023.6a5.992 5.992 0 0 1 2.68-8.04 5.995 5.995 0 0 1 8.042 2.68l11.35 22.7a5.992 5.992 0 0 1-2.68 8.04 5.995 5.995 0 0 1-8.042-2.68Z"/>
    <path fill="url(#f)" fill-rule="evenodd" d="M433.202 2018.24a6.003 6.003 0 0 1 8.056-2.64 6.001 6.001 0 0 1 2.637 8.06l-11.473 22.64a6.002 6.002 0 0 1-8.055 2.64 6 6 0 0 1-2.638-8.06Z"/>
    <path fill="#F2F2F2" fill-opacity=".51" d="M298 1976h250v134H298z"/>
    <path fill="#CED9EE" fill-rule="evenodd" d="M1245.17 2353.7H612.922c-14.914.13-27.097-12.79-27.219-28.87-.004-.66.013-1.33.051-1.99l20.376-422.06c1.069-17.18 14.175-30.6 30.144-30.87h632.246c14.93-.1 27.12 12.86 27.21 28.96.01.64-.01 1.27-.04 1.91l-20.42 422.06c-1.01 17.18-14.13 30.63-30.1 30.86Z"/>
    <path fill="#CED9EE" fill-rule="evenodd" d="m636.429 1871.65-5.588.65-5.112 1.76-4.714 2.66-4.124 3.53-3.493 4.32-2.73 4.93-1.898 5.45-.9 6.01-20.37 421.96-.058 1.86.596 5.61 1.473 5.12 2.409 4.65 3.109 3.99 3.814 3.28 4.259 2.51 4.768 1.51 5.172.54H1245.1l5.6-.66 5.1-1.7 4.72-2.71 4.12-3.48 3.49-4.32 2.73-4.91 1.84-5.52.9-6.01 20.37-421.96.06-1.75-.6-5.6-1.47-5.13-2.41-4.64-3.12-4.06-3.74-3.34-4.32-2.45-4.72-1.57-5.16-.53Zm-.202-3.47h632.443l5.71.59 5.41 1.8 4.93 2.8 4.26 3.79 3.51 4.57 2.71 5.22 1.65 5.75.65 6.15-.06 2.01-20.38 422.16-.98 6.48-2.03 6.11-3.03 5.46-3.88 4.81-4.62 3.9-5.29 3.04-5.77 1.92-6.16.72H612.863l-5.703-.59-5.482-1.74-4.865-2.86-4.311-3.72-3.517-4.51-2.715-5.23-1.653-5.75-.653-6.15.067-2.13 20.38-422.17.974-6.49 2.102-6.05 3.021-5.45 3.882-4.8 4.625-3.96 5.286-2.98 5.763-1.98Z"/>
    <path fill="#CED9EE" fill-rule="evenodd" d="M1027.4 2206.75H912.438l37.026 187.86h143.766l-65.83-187.86Z"/>
    <path fill="#FFF" fill-rule="evenodd" stroke="#D9D9D9" stroke-miterlimit="8" stroke-width="3.438" d="M1259.43 2351.5H633.449c-14.765.13-26.828-12.67-26.949-28.58-.004-.66.013-1.32.05-1.98l20.174-417.88c1.059-17.01 14.035-30.3 29.847-30.56h625.979c14.79-.1 26.85 12.74 26.95 28.68 0 .62-.01 1.25-.05 1.88l-20.21 417.88c-1 17.02-13.99 30.34-29.81 30.56Z"/>
    <path fill="#FFF" fill-rule="evenodd" d="M1043.82 2206H930l36.66 186H1109l-65.18-186Z"/>
    <path fill="#006387" fill-rule="evenodd" d="M377.052 1588.943c0 11.6-8.73 21.001-19.502 21.001-10.769 0-19.499-9.401-19.499-21.001 0-11.598 8.73-20.999 19.5-20.999s19.5 9.401 19.5 20.999"/>
    <path fill="#FFF" fill-rule="evenodd" d="M433.107 1522.987c-28.621 0-51.912 23.285-51.912 51.91 0 28.62 23.291 51.905 51.912 51.905 28.62 0 51.912-23.286 51.912-51.905 0-28.624-23.291-51.91-51.912-51.91m0 113.907c-34.19 0-62-27.813-62-61.997 0-34.19 27.81-62.003 62-62.003 34.186 0 62 27.814 62 62.003 0 34.184-27.814 61.997-62 61.997"/>
    <path fill="#F6BB00" fill-rule="evenodd" d="M533.477 1340.039c14.272-.23 28.601.51 40.69 3.254 19.126 4.341 32.098 5.286 48.655 17.457 16.557 12.17 38.569 33.795 50.689 55.563 12.119 21.768 19.082 52.732 22.025 70.743 2.943 18.01 1.434 32.793-4.369 37.32l-5.368 11.31 7.09 45.157c-16.867 1.485-31.346-9.871-44.734-17.924-13.389-8.053-19.307-18.684-35.595-30.391l-62.135-39.849c-13.793-4.988-19.494-3.108-12.025 4.758 7.468 7.866 30.04 10.893 20.726 14.047-9.315 3.155-51.485 8.348-76.612 4.881-25.128-3.467-62.229-22.039-75.872-14.499-13.644 7.54-14.508 33.139-5.989 59.737l-54.804-5.992c-4.27 3.071-10.323 16.833-9.5 32.161.825 15.329 16.265 56.562 12.724 57.228-9.032-5.497-23.149-44.88-23.648-54.091-5.021-13.422-9.13-26.037-10.776-40.203-1.646-14.165.285-31.961.9-44.793.614-12.832.88-23.667 2.785-32.2 1.904-8.532 4.636-10.485 8.642-18.996 4.006-8.51 9.053-22.139 15.397-32.068 6.345-9.929 14.543-19.16 22.67-27.507 8.128-8.348 14.974-16.206 26.095-22.58 8.592-4.935 30.343-18.687 40.63-15.665 19.497-7.799 37.62-12.027 61.353-14.295 11.867-1.134 26.084-2.333 40.356-2.563Z"/>
    <path fill="#F7F7F7" fill-rule="evenodd" d="M690 2007.5c0-19.61 15.894-35.5 35.5-35.5h496c19.61 0 35.5 15.89 35.5 35.5s-15.89 35.5-35.5 35.5h-496c-19.606 0-35.5-15.89-35.5-35.5Zm-11 121c0-19.61 15.894-35.5 35.5-35.5h496c19.61 0 35.5 15.89 35.5 35.5s-15.89 35.5-35.5 35.5h-496c-19.606 0-35.5-15.89-35.5-35.5Zm-9 118c0-19.61 15.894-35.5 35.5-35.5h35c19.606 0 35.5 15.89 35.5 35.5s-15.894 35.5-35.5 35.5h-35c-19.606 0-35.5-15.89-35.5-35.5Zm463 0c0-19.61 15.89-35.5 35.5-35.5h35c19.61 0 35.5 15.89 35.5 35.5s-15.89 35.5-35.5 35.5h-35c-19.61 0-35.5-15.89-35.5-35.5Z"/>
  </g>
</svg>
