<svg xmlns="http://www.w3.org/2000/svg" overflow="hidden" viewBox="0 0 1245 1079">
  <defs>
    <linearGradient id="b" x1="120.055" x2="677.945" y1="673.01" y2="-88.01" gradientUnits="userSpaceOnUse" spreadMethod="reflect">
      <stop offset="0" stop-color="#00B0F0"/>
      <stop offset=".45" stop-color="#00B0F0"/>
      <stop offset="1" stop-color="#52DFD2"/>
    </linearGradient>
    <linearGradient id="c" x1="2876.59" x2="2850.43" y1="2026.54" y2="1974.23" gradientUnits="userSpaceOnUse" spreadMethod="reflect">
      <stop offset="0" stop-color="#00B0F0"/>
      <stop offset=".88" stop-color="#00B0F0"/>
      <stop offset="1" stop-color="#52DFD2"/>
    </linearGradient>
    <linearGradient id="d" x1="2765" x2="2707" y1="2000" y2="2000" gradientUnits="userSpaceOnUse" spreadMethod="reflect">
      <stop offset="0" stop-color="#00B0F0"/>
      <stop offset=".32" stop-color="#00B0F0"/>
      <stop offset=".87" stop-color="#0070C0"/>
      <stop offset="1" stop-color="#0070C0"/>
    </linearGradient>
    <linearGradient id="e" x1="2830.57" x2="2857" y1="2026.47" y2="1974.3" gradientUnits="userSpaceOnUse" spreadMethod="reflect">
      <stop offset="0" stop-color="#00B0F0"/>
      <stop offset=".29" stop-color="#00B0F0"/>
      <stop offset="1" stop-color="#52DFD2"/>
    </linearGradient>
    <linearGradient id="f" x1="2775.62" x2="2801.78" y1="1974.23" y2="2026.54" gradientUnits="userSpaceOnUse" spreadMethod="reflect">
      <stop offset="0" stop-color="#00B0F0"/>
      <stop offset=".88" stop-color="#00B0F0"/>
      <stop offset="1" stop-color="#52DFD2"/>
    </linearGradient>
    <linearGradient id="g" x1="2821.64" x2="2795.21" y1="1974.3" y2="2026.47" gradientUnits="userSpaceOnUse" spreadMethod="reflect">
      <stop offset="0" stop-color="#00B0F0"/>
      <stop offset=".29" stop-color="#00B0F0"/>
      <stop offset="1" stop-color="#52DFD2"/>
    </linearGradient>
    <clipPath id="a">
      <path d="M1711 1348h1245v1079H1711z"/>
    </clipPath>
  </defs>
  <g clip-path="url(#a)" transform="translate(-1711 -1348)">
    <path fill="#F9D7AB" fill-rule="evenodd" d="M2459.672 1942.662c-32.274-41.218-78.893-71.293-130.102-83.933-23.537-5.809-47.943-8.051-71.09-15.212a135.099 135.099 0 0 1-19.243-7.626c-9.067-34.926-13.562-71.004-13.269-107.056h-135.664c.298 36.052-4.202 72.13-13.269 107.052a134.588 134.588 0 0 1-19.238 7.63c-23.147 7.161-47.554 9.403-71.09 15.212-51.214 12.64-97.833 42.715-130.102 83.933-32.274 41.223-49.995 93.323-49.455 145.408v330.765l605.193-8.738c53.679-.773 96.784-43.926 96.784-96.898V2088.07c.536-52.085-17.182-104.185-49.455-145.408"/>
    <path fill="#00B0F0" fill-rule="evenodd" d="M1970.995 2174.523c-.025-1.23-.091-2.465-.122-3.695-.64 27.006-2.343 54.017-1.572 81 .62-25.767 2.238-51.539 1.694-77.305"/>
    <path fill="#C59F7D" fill-rule="evenodd" d="M2086.11 1819.88c48.875-.452 97.558-13.482 140-37.346-.262-6.546-.423-13.102-.368-19.654h-136.08c.156 19.052-1.062 38.108-3.553 57"/>
    <path fill="#F9D7AB" fill-rule="evenodd" d="M2029.274 1587.131c-5.461-10.22-12.08-20.413-22.07-26.207-9.993-5.794-24.149-5.771-31.829 2.89-6.234 7.027-6.66 17.413-6.092 26.82 1.153 19.024 5.31 38.563 16.708 53.79 11.394 15.224 31.332 25.085 49.645 20.217 2.626-25.904 5.9-54.583-6.362-77.51"/>
    <path fill="#F8D09A" fill-rule="evenodd" d="m2028.126 1607.605 1.975.317c-2.554-6.25-5.126-12.545-8.74-18.25-3.618-5.703-8.372-10.852-14.388-13.938-6.016-3.086-13.39-3.907-19.59-1.201-6.2 2.7-10.793 9.262-10.237 15.988 3.65-4.287 10.273-5.58 15.793-4.443 5.53 1.137 10.278 5.447 11.931 10.83-4.822.56-8.344 5.42-9.34 10.16-.997 4.746.256 9.694 2.153 14.16 1.098 2.595 2.448 5.14 4.44 7.135 1.99 1.999 4.708 3.41 7.532 3.347-2.534 3.388-6.856 6.066-11.086 6.267 9.112 4.439 20.969 3.825 29.332-1.902 1.24-9.469 1.06-18.956.225-28.47"/>
    <path fill="#F9D7AB" fill-rule="evenodd" d="M2277.956 1597.13c5.46-10.216 12.079-20.413 22.068-26.206 9.993-5.794 24.15-5.771 31.829 2.889 6.233 7.027 6.659 17.413 6.092 26.82-1.153 19.023-5.31 38.562-16.708 53.79-11.393 15.222-31.33 25.088-49.644 20.215-2.625-25.903-5.904-54.582 6.363-77.507"/>
    <path fill="#F8D09A" fill-rule="evenodd" d="m2279.103 1617.603-1.975.317c2.554-6.25 5.125-12.546 8.74-18.25 3.618-5.704 8.372-10.853 14.383-13.94 6.02-3.085 13.396-3.9 19.595-1.2 6.2 2.7 10.792 9.262 10.237 15.989-3.651-4.288-10.273-5.58-15.798-4.443-5.525 1.137-10.273 5.451-11.931 10.83 4.827.564 8.349 5.42 9.346 10.166.996 4.74-.258 9.688-2.154 14.154-1.098 2.596-2.448 5.14-4.441 7.14-1.988 1.999-4.707 3.406-7.532 3.342 2.535 3.389 6.857 6.071 11.086 6.268-9.115 4.439-20.973 3.824-29.331-1.902-1.24-9.469-1.06-18.956-.225-28.47"/>
    <path fill="#F9D7AB" fill-rule="evenodd" d="M2313.141 1606.896c0 102.725-69.841 186-155.997 186-86.157 0-156.003-83.275-156.003-186s0-186 156.003-186c155.997 0 155.997 83.275 155.997 186"/>
    <path fill="#F8D09A" fill-rule="evenodd" d="M2116.11 1660.394c0 5.246-17.236 9.5-38.5 9.5s-38.5-4.254-38.5-9.5c0-5.247 17.236-9.5 38.5-9.5s38.5 4.253 38.5 9.5m152.014 0c0 5.246-17.01 9.5-37.997 9.5s-38.003-4.254-38.003-9.5c0-5.247 17.016-9.5 38.003-9.5 20.987 0 37.997 4.253 37.997 9.5"/>
    <path fill="#F8D09A" fill-rule="evenodd" stroke="#FFB573" stroke-linecap="round" stroke-linejoin="round" stroke-miterlimit="10" stroke-width="3.438" d="M2151.821 1575.39c3.734 25.287-2.684 51.883-17.583 72.845-3.139 4.412-6.802 9.072-6.615 14.45.216 6.084 5.613 11.075 11.572 12.776 5.96 1.7 12.35.781 18.421-.474"/>
    <path fill="#FFF" fill-rule="evenodd" d="M2233.12 1530.906c-28.619 0-51.909 23.098-51.909 51.491 0 28.39 23.29 51.487 51.91 51.487 28.624 0 51.914-23.098 51.914-51.487 0-28.393-23.29-51.491-51.914-51.491m0 112.99c-34.184 0-61.998-27.59-61.998-61.499 0-33.913 27.814-61.502 61.998-61.502 34.188 0 62.002 27.59 62.002 61.502 0 33.91-27.814 61.498-62.002 61.498"/>
    <path fill="#FFF" fill-rule="evenodd" d="m2137.886 1586.898-5.774-8.398c8.155-5.956 28.459-13.621 47 .009l-5.792 8.384c-17.466-12.85-35.256-.132-35.434.005"/>
    <path fill="none" stroke="#FFA34F" stroke-linecap="round" stroke-linejoin="round" stroke-miterlimit="10" stroke-width="6.875" d="M2115.611 1702.675c26.162 25.362 61.052 23.188 86-5.365"/>
    <path fill="none" stroke="#FFB573" stroke-linecap="round" stroke-linejoin="round" stroke-miterlimit="10" stroke-width="6.875" d="M2142.614 1731.374c8.32 3.003 17.338 3.773 26 2.214"/>
    <path fill="url(#b)" fill-rule="evenodd" d="m338.627 585 13.481-26.059c.423-.113 31.795-23.44 32.218-23.553 28.376-12.061 34.236-19.066 55.707-16.045 21.471 3.022 43.672 25.744 73.119 34.173l26.849 20.309 19.18 10.067c19.5-4.881 39.605-7.349 59.123-12.295l.597-.207 25.918-8.315.239-.777 10.669-3.709c36.256-16.167 68.553-41.509 92.771-73.296 32.297-42.392 50.031-95.958 49.49-149.515V104.291c0-54.468-43.135-98.845-96.852-99.64L517.135 1.922a.162.162 0 0 0-.007-.02l-44.763-.665.003.021h-.007l.093.917-46.813-.788.101-.822-41.127-.502-.225.63L343.152 0l-9.984 9.195-27.471-5.242A428.82 428.82 0 0 0 254.522.45l-41.833 2.13-.309-2.14c-38.944 7.233-79.232.687-118.585 5.246C54.443 10.242 12.041 31.04 2.24 69.099c-4.787 18.57-.977 38.122 2.847 56.911 13.282 65.312 26.643 130.887 49.196 193.654 11.277 31.379 24.976 62.145 41.715 91.034l25.877 39.352 1.665 3.857a233.04 233.04 0 0 0 21.434 33.124c24.222 31.232 56.517 56.132 92.773 72.017l16.211 5.536.17.542 14.263 4.387 6.781 2.316c20.963 5.225 42.613 7.608 63.456 13.171Z" transform="matrix(1 0 0 -1 1711 2425)"/>
    <path fill="#006387" fill-rule="evenodd" d="M2109.951 1741.894c-.083 0-.166 0-.244-.005-14.358-.837-29.2-1.707-43.642-5.061-16.553-3.847-30.109-10.515-40.288-19.805-15.894-14.504-22.633-34.604-25.483-48.915-3.58-17.96-3.312-36.343-3.044-54.119.032-2.296 2.117-4.118 4.22-4.095a4.161 4.161 0 0 1 4.105 4.215c-.263 17.348-.526 35.28 2.883 52.38 2.61 13.091 8.708 31.423 22.937 44.41 9.113 8.319 21.414 14.32 36.561 17.844 13.745 3.193 28.227 4.04 42.235 4.855a4.156 4.156 0 0 1 3.911 4.385 4.158 4.158 0 0 1-4.151 3.911"/>
    <path fill="#006387" fill-rule="evenodd" d="M2121.11 1736.887c0 6.077-6.94 10.998-15.5 10.998-8.56 0-15.5-4.92-15.5-10.998 0-6.077 6.94-11.002 15.5-11.002 8.56 0 15.5 4.925 15.5 11.002"/>
    <path fill="#F9D7AB" fill-rule="evenodd" d="M2000.719 2347.862c28.914-8.423 58.03-16.883 88.005-19.916 29.969-3.037 61.178-.36 88.326 12.644 27.154 13.005 49.729 37.343 55.903 66.71 1.967 9.355-16.113 11.858-25.346 14.494-9.224 2.631-19.026 2.12-28.608 1.59-31.937-1.773-63.874-3.55-95.811-5.322-22.81-1.265-47.684 4.317-66.805-8.126-9.568-6.23-15.233-17.171-17.508-28.326-2.275-11.16 1.12-22.387 1.844-33.748"/>
    <path fill="#DEE9FF" fill-rule="evenodd" d="M2834.173 2399.808h-953v7.861c0 10.568 8.6 19.139 19.203 19.139h914.595c10.603 0 19.202-8.57 19.202-19.139Z"/>
    <path fill="#CED9EE" fill-rule="evenodd" d="M2834.173 2399.808h-953v7.861c0 10.568 8.6 19.139 19.203 19.139h914.595c10.603 0 19.202-8.57 19.202-19.139Z"/>
    <path fill="#CED9EE" fill-rule="evenodd" d="M2213.116 2407.67v-7.862h-332v7.862c0 10.573 8.6 19.139 19.203 19.139h293.595c10.603 0 19.202-8.566 19.202-19.139"/>
    <path fill="#CED9EE" fill-rule="evenodd" d="M2146.25 2418.806h-21.276c-2.685 0-4.862-2.236-4.862-5.003 0-2.762 2.177-4.998 4.862-4.998h21.275c2.685 0 4.863 2.236 4.863 4.998 0 2.767-2.178 5.003-4.863 5.003m-43.157 0h-21.962c-2.771 0-5.02-2.236-5.02-5.003 0-2.762 2.249-4.998 5.02-4.998h21.962c2.771 0 5.019 2.236 5.019 4.998 0 2.767-2.248 5.003-5.02 5.003"/>
    <path fill="#000000" fill-rule="evenodd" d="M2065 1582.5c0-5.25 5.82-9.5 13-9.5s13 4.25 13 9.5-5.82 9.5-13 9.5-13-4.25-13-9.5Zm155 0c0-5.25 5.82-9.5 13-9.5s13 4.25 13 9.5-5.82 9.5-13 9.5-13-4.25-13-9.5Z"/>
    <path fill="#FFF" fill-rule="evenodd" d="M2124.58 2048.8a5.993 5.993 0 0 1-10.72 5.36l-11.35-22.7a5.993 5.993 0 0 1 10.72-5.36ZM1997 2035c2.76 0 5 2.24 5 5s-2.24 5-5 5h-17c-2.76 0-5-2.24-5-5s2.24-5 5-5Z"/>
    <path fill="#FFF" fill-rule="evenodd" d="M1970 2029c0-3.31 2.69-6 6-6s6 2.69 6 6v23c0 3.31-2.69 6-6 6s-6-2.69-6-6Zm24 0c0-3.31 2.69-6 6-6s6 2.69 6 6v23c0 3.31-2.69 6-6 6s-6-2.69-6-6Zm19 11c0-9.94 8.28-18 18.5-18s18.5 8.06 18.5 18-8.28 18-18.5 18-18.5-8.06-18.5-18Zm11.19 0c0 3.76 3.27 6.81 7.31 6.81 4.04 0 7.31-3.05 7.31-6.81s-3.27-6.81-7.31-6.81c-4.04 0-7.31 3.05-7.31 6.81Zm76.27 14.16a5.983 5.983 0 0 1-8.05 2.63c-2.95-1.49-4.13-5.1-2.64-8.05l11.47-22.64a6.01 6.01 0 0 1 8.06-2.64c2.95 1.5 4.13 5.1 2.64 8.06Zm-46.09-22.7a5.993 5.993 0 0 1 10.72-5.36l11.35 22.7a5.993 5.993 0 0 1-10.72 5.36Z"/>
    <path fill="#FFF" fill-rule="evenodd" d="M2078.49 2026.1c1.49-2.95 5.1-4.13 8.05-2.64a5.99 5.99 0 0 1 2.64 8.06l-11.47 22.64a5.997 5.997 0 0 1-8.06 2.63 5.983 5.983 0 0 1-2.63-8.05Z"/>
    <path fill="#CED9EE" fill-rule="evenodd" d="M2890.24 2361.7h-631.35c-14.89.13-27.05-12.79-27.18-28.87 0-.66.02-1.33.05-1.99l20.35-422.06c1.07-17.18 14.16-30.6 30.1-30.87h631.35c14.91-.1 27.08 12.86 27.17 28.96.01.64-.01 1.27-.04 1.91l-20.39 422.06c-1.01 17.18-14.11 30.63-30.06 30.86Z"/>
    <path fill="#CED9EE" fill-rule="evenodd" d="m2282.32 1879.65-5.53.65-5.11 1.76-4.72 2.66-4.12 3.53-3.49 4.32-2.73 4.92-1.84 5.46-.9 6.01-20.37 421.96-.06 1.86.6 5.61 1.47 5.13 2.41 4.64 3.11 3.99 3.75 3.28 4.32 2.51 4.71 1.51 5.17.54h631.18l5.54-.66 5.1-1.7 4.72-2.71 4.12-3.48 3.49-4.32 2.73-4.91 1.84-5.52.9-6.01 20.37-421.96.06-1.75-.54-5.6-1.53-5.13-2.35-4.64-3.18-4.06-3.75-3.34-4.25-2.45-4.78-1.57-5.16-.53Zm-.21-3.47h631.57l5.71.59 5.47 1.8 4.87 2.8 4.25 3.79 3.58 4.57 2.65 5.22 1.71 5.75.59 6.16-.06 2-20.38 422.16-.98 6.48-2.03 6.11-3.03 5.46-3.88 4.81-4.62 3.9-5.29 3.04-5.77 1.92-6.09.72h-631.57l-5.71-.59-5.41-1.74-4.93-2.86-4.25-3.72-3.51-4.51-2.72-5.23-1.65-5.75-.66-6.15.07-2.13 20.38-422.16.97-6.49 2.04-6.05 3.03-5.46 3.88-4.8 4.62-3.96 5.29-2.98 5.76-1.98Z"/>
    <path fill="#CED9EE" fill-rule="evenodd" d="M2673.04 2214.75h-115.6l37.23 187.86h144.57l-66.2-187.86Z"/>
    <path fill="#FFF" fill-rule="evenodd" stroke="#D9D9D9" stroke-miterlimit="8" stroke-width="3.438" d="M2904.5 2359.5h-625.09c-14.74.13-26.79-12.67-26.91-28.58 0-.66.01-1.32.05-1.98l20.15-417.88c1.05-17.01 14.01-30.29 29.8-30.56h625.09c14.77-.1 26.81 12.74 26.91 28.68 0 .62-.01 1.25-.05 1.88l-20.18 417.88c-1 17.02-13.97 30.34-29.77 30.56Z"/>
    <path fill="#FFF" fill-rule="evenodd" d="M2689.46 2214H2575l36.86 186H2755l-65.54-186Z"/>
    <path fill="#006387" fill-rule="evenodd" d="M2022.051 1596.943c0 11.6-8.73 21.001-19.5 21.001s-19.5-9.401-19.5-21c0-11.598 8.73-21 19.5-21s19.5 9.402 19.5 21"/>
    <path fill="#FFF" fill-rule="evenodd" d="M2078.606 1530.906c-28.39 0-51.493 23.098-51.493 51.491 0 28.39 23.103 51.487 51.493 51.487s51.493-23.098 51.493-51.487c0-28.393-23.103-51.491-51.493-51.491m0 112.99c-33.915 0-61.5-27.59-61.5-61.499 0-33.913 27.585-61.502 61.5-61.502 33.91 0 61.5 27.59 61.5 61.502 0 33.91-27.59 61.498-61.5 61.498"/>
    <path fill="#F6BB00" fill-rule="evenodd" d="M2178.477 1348.039c14.272-.23 28.6.51 40.69 3.253 19.126 4.342 32.097 5.287 48.655 17.457 16.557 12.17 38.569 33.796 50.688 55.564s19.083 52.732 22.025 70.743c2.943 18.01 1.435 32.793-4.369 37.32l-5.367 11.31 7.09 45.157c-16.867 1.485-31.347-9.871-44.735-17.924-13.388-8.053-19.306-18.684-35.595-30.391l-62.134-39.849c-13.793-4.988-19.494-3.108-12.025 4.758 7.468 7.866 30.04 10.892 20.725 14.047-9.314 3.154-51.484 8.348-76.612 4.881-25.127-3.467-62.228-22.039-75.871-14.499-13.644 7.54-14.509 33.139-5.989 59.737l-54.804-5.992c-4.27 3.071-10.323 16.833-9.5 32.161.825 15.329 16.265 56.562 12.724 57.228-9.032-5.497-23.149-44.88-23.648-54.091-5.021-13.422-9.13-26.037-10.776-40.203-1.646-14.166.285-31.961.9-44.793.614-12.832.88-23.667 2.785-32.2 1.904-8.533 4.636-10.485 8.642-18.996 4.006-8.511 9.052-22.139 15.397-32.069 6.345-9.929 14.543-19.159 22.67-27.507 8.128-8.347 14.974-16.205 26.095-22.579 8.591-4.935 30.343-18.687 40.63-15.666 19.497-7.799 37.62-12.027 61.353-14.294 11.867-1.134 26.083-2.333 40.356-2.563Z"/>
    <path fill="#F7F7F7" fill-rule="evenodd" d="M2324 2136c0-19.88 16.12-36 36-36h495c19.88 0 36 16.12 36 36s-16.12 36-36 36h-495c-19.88 0-36-16.12-36-36Zm-8 118.5c0-19.61 15.89-35.5 35.5-35.5h293c19.61 0 35.5 15.89 35.5 35.5s-15.89 35.5-35.5 35.5h-293c-19.61 0-35.5-15.89-35.5-35.5Zm463 0c0-19.61 15.89-35.5 35.5-35.5h34c19.61 0 35.5 15.89 35.5 35.5s-15.89 35.5-35.5 35.5h-34c-19.61 0-35.5-15.89-35.5-35.5Z"/>
    <path fill="url(#c)" fill-rule="evenodd" d="M2880.75 2014.04c2.3 4.6.44 10.2-4.16 12.5-4.6 2.3-10.2.43-12.5-4.17l-17.82-35.64c-2.3-4.6-.44-10.2 4.16-12.5 4.6-2.3 10.2-.43 12.5 4.17Z"/>
    <path fill="#0070C0" fill-rule="evenodd" d="M2683 1992c4.42 0 8 3.58 8 8s-3.58 8-8 8h-27c-4.42 0-8-3.58-8-8s3.58-8 8-8Z"/>
    <path fill="#0070C0" fill-rule="evenodd" d="M2641 1982.5c0-5.25 4.25-9.5 9.5-9.5s9.5 4.25 9.5 9.5v36c0 5.25-4.25 9.5-9.5 9.5s-9.5-4.25-9.5-9.5Zm37-.5a9 9 0 0 1 18 0v37a9 9 0 0 1-18 0Z"/>
    <path fill="url(#d)" fill-rule="evenodd" d="M2707 2000c0-15.46 12.98-28 29-28s29 12.54 29 28-12.98 28-29 28-29-12.54-29-28Zm17.41 0c0 5.85 5.19 10.59 11.59 10.59 6.4 0 11.59-4.74 11.59-10.59s-5.19-10.59-11.59-10.59c-6.4 0-11.59 4.74-11.59 10.59Z"/>
    <path fill="url(#e)" fill-rule="evenodd" d="M2843.09 2022.37a9.32 9.32 0 0 1-12.52 4.1 9.32 9.32 0 0 1-4.1-12.52l18.02-35.55c2.32-4.59 7.93-6.42 12.51-4.1 4.59 2.33 6.43 7.93 4.1 12.52Z"/>
    <path fill="url(#f)" fill-rule="evenodd" d="M2771.46 1986.73c-2.3-4.6-.44-10.2 4.16-12.5 4.61-2.3 10.2-.43 12.5 4.17l17.82 35.64c2.3 4.6.44 10.2-4.16 12.5-4.6 2.3-10.2.43-12.5-4.17Z"/>
    <path fill="url(#g)" fill-rule="evenodd" d="M2809.12 1978.4a9.32 9.32 0 0 1 12.52-4.1 9.32 9.32 0 0 1 4.1 12.52l-18.01 35.55a9.32 9.32 0 0 1-12.52 4.1c-4.59-2.33-6.43-7.93-4.1-12.52Z"/>
    <path fill="#F7F7F7" fill-rule="evenodd" d="M2337 2000.5c0-19.61 15.89-35.5 35.5-35.5h196c19.61 0 35.5 15.89 35.5 35.5s-15.89 35.5-35.5 35.5h-196c-19.61 0-35.5-15.89-35.5-35.5Z"/>
  </g>
</svg>