<svg xmlns="http://www.w3.org/2000/svg" overflow="hidden" viewBox="0 0 296 171">
  <defs>
    <clipPath id="a">
      <path d="M2246 1569h296v171h-296z"/>
    </clipPath>
  </defs>
  <g fill-rule="evenodd" clip-path="url(#a)" transform="translate(-2246 -1569)">
    <path fill="#0070C0" d="M2484.29 1686.53c-14.62-2.92-28.84 6.56-31.76 21.18-2.92 14.62 6.56 28.84 21.18 31.76 14.62 2.92 28.84-6.56 31.77-21.18.69-3.49.69-7.09 0-10.58a27.038 27.038 0 0 0-21.19-21.18Zm-.69 46.03c-10.82 2.51-21.63-4.22-24.15-15.04-.69-3-.69-6.11 0-9.11a19.917 19.917 0 0 1 14.96-14.96c10.82-2.52 21.64 4.21 24.15 15.03.7 3 .7 6.12 0 9.12a19.917 19.917 0 0 1-14.96 14.96Z"/>
    <path fill="#00B0F0" d="M2445.88 1710h-64.76c.08.96.15 1.91.15 2.89-.01 1.37-.1 2.75-.27 4.11h65c-.17-1.36-.26-2.74-.27-4.11 0-.98.07-1.93.15-2.89Z"/>
    <path fill="#00B0F0" d="M2512.33 1657.69h-23.62c-.05 0-.09-.03-.14-.03h-1.1c-3.04.03-5.95-1.24-7.99-3.49l-37.34-37.05a23.495 23.495 0 0 0-16.89-6.82h-81.52a23.982 23.982 0 0 0-16.89 6.82l-36.75 37.05c-2.3 2.26-3.58 5.36-3.55 8.59v23.26h-9.56c-5.71 0-10.33-4.62-10.33-10.32v-58.86c8.01-1.65 13.76-8.69 13.77-16.86v-13.77h-5.16v-13.77c0-1.9-1.55-3.44-3.45-3.44a3.44 3.44 0 0 0-3.44 3.44v13.77h-10.32v-13.77c0-1.9-1.54-3.44-3.45-3.44a3.44 3.44 0 0 0-3.44 3.44v13.77H2246v13.77c.01 8.17 5.76 15.21 13.77 16.86v58.86c0 9.5 7.7 17.21 17.21 17.21h9.56v.38c.04 13.08 10.63 23.67 23.71 23.71h4.12a34.12 34.12 0 0 1-.27-4.04c0-.96.06-1.9.14-2.84h-4c-9.29 0-16.82-7.54-16.82-16.83v-28.74h194.07c.1 0 .19.02.28.02h24.6c12.56 0 22.75 10.19 22.75 22.75v17.83c0 2.74-2.23 4.97-4.97 4.97h-16.94c.07.94.14 1.88.14 2.84-.01 1.35-.1 2.7-.27 4.04h17.07c6.54-.02 11.83-5.31 11.85-11.85v-17.79c-.05-16.37-13.3-29.62-29.67-29.67Zm-259.45-58.12v-6.48h20.65v6.89c0 5.71-4.64 10.33-10.35 10.33-.68-.01-1.36-.07-2.03-.21-4.9-1.1-8.36-5.5-8.27-10.53Zm184.41 22.43 35.94 35.66h-89.56v-40.47h41.58c4.5-.1 8.85 1.64 12.04 4.81Zm-105.58-.01c3.22-3.12 7.53-4.85 12.02-4.8h33.06v40.47h-80.38c-.05 0-.06-.02-.03-.06Z"/>
    <path fill="#0070C0" d="M2353.29 1686.53c-14.62-2.92-28.84 6.56-31.76 21.18-2.92 14.62 6.56 28.84 21.18 31.76 14.62 2.92 28.84-6.56 31.77-21.18.69-3.49.69-7.09 0-10.58a27.038 27.038 0 0 0-21.19-21.18Zm-.69 46.03c-10.82 2.51-21.63-4.22-24.15-15.04-.69-3-.69-6.11 0-9.11a19.902 19.902 0 0 1 14.96-14.96c10.82-2.52 21.64 4.21 24.15 15.03.7 3 .7 6.12 0 9.12a19.931 19.931 0 0 1-14.96 14.96Z"/>
  </g>
</svg>
