<svg xmlns="http://www.w3.org/2000/svg" overflow="hidden" viewBox="0 0 1120 900">
  <defs>
    <clipPath id="a">
      <path d="M1183 829h1120v900H1183z"/>
    </clipPath>
  </defs>
  <g fill-rule="evenodd" clip-path="url(#a)" transform="translate(-1183 -829)">
    <path fill="#263238" d="M1366.28 1259.08c-16.29-50.15-12.95-90.17-10.13-125.53 3.02-36.91 5.59-68.75-14.04-102.89l1.68-.98c19.95 34.74 17.29 66.86 14.3 104.05-2.86 35.18-6.12 75.04 10.04 124.9Z"/>
    <path fill="#FFC000" d="M1270.21 915.193c2-54.402 38.24-87.681 81.32-86.118 43.09 1.563 76.77 37.405 74.78 91.696-1.89 52.11-36.05 107.059-76.8 110.219 2.84 3.38 4.31 7.71 4.12 12.14l-20.05-.69c.15-4.43 1.96-8.65 5.07-11.81-40.36-6.12-70.38-63.389-68.44-115.437Z"/>
    <path fill="#263238" d="M1338.5 1032.3c-.44-.05-.83-.28-1.1-.64-.55-.72-.42-1.75.28-2.32 4.1-3.39 11.72-.22 12.52.1.85.38 1.26 1.38.9 2.25-.37.85-1.35 1.24-2.19.87-.02 0-.03-.01-.04-.02-1.65-.7-6.93-2.35-9.04-.58-.38.29-.86.42-1.33.34Zm24.67 242.04c-3.58-36.03 12.07-72.64 27.27-108.13 13.62-31.74 27.68-64.56 26.97-95.84l1.67-.04c.76 31.54-13.37 64.52-27.04 96.44-15.08 35.28-30.6 71.6-27.16 107.3Z"/>
    <path fill="#00B0F0" d="M1502.07 981.09c.67-7.197.62-14.443-.17-21.629l3.42-.36c.78 7.434.82 14.929.12 22.371Zm-3.52-38.511a74.44 74.44 0 0 0-35.3-44.561l1.65-3.057a77.745 77.745 0 0 1 37.11 46.687Z"/>
    <path fill="#00B0F0" d="M1493.52 980.29c4.35-46.697-23.06-79.17-60.28-82.635-37.21-3.464-70.13 23.395-74.57 70.03-4.15 44.705 19.06 95.475 53.69 102.715a15.458 15.458 0 0 0-4.95 9.91l17.33 1.59c.35-3.8-.74-7.6-3.05-10.64 35.5-.66 67.68-46.27 71.83-90.97Z"/>
    <path fill="#263238" d="M1411.58 1071.62c-.25-.19-.43-.46-.51-.77-.21-.76.23-1.56 1-1.78.76-.21 7.64-2.09 10.76 1.25.55.58.53 1.5-.05 2.07-.58.54-1.5.51-2.04-.07 0-.01 0-.01-.01-.01-1.65-1.76-6.34-.9-7.87-.46-.44.13-.92.05-1.28-.23Z"/>
    <path fill="#F5F5F5" d="M2303 1671.5c0 21.26-249.38 38.5-557 38.5s-557-17.24-557-38.5 249.38-38.5 557-38.5 557 17.24 557 38.5Z"/>
    <path fill="#49B0FF" d="M2277 1565h-598v-186h527.11l49.2 39.9a58.482 58.482 0 0 1 21.69 45.62Z"/>
    <path fill-opacity=".502" d="M2277 1565h-598v-186h527.11l49.2 39.9a58.482 58.482 0 0 1 21.69 45.62Z"/>
    <path fill="#263238" d="M1675.03 1547.98c0-67.92 30.98-122.98 68.83-122.98h-73.03c-38.1 0-68.83 54.92-68.83 122.98 0 68.07 30.97 123.02 68.83 123.02H1744c-38.17 0-68.97-55.09-68.97-123.02Z"/>
    <path fill="#263238" d="M1813 1548c0 67.93-30.89 123-69 123s-69-55.07-69-123 30.89-123 69-123 69 55.07 69 123Z"/>
    <path fill="#FFF" d="M1799 1548c0 53.02-21.94 96-49 96s-49-42.98-49-96 21.94-96 49-96 49 42.98 49 96Z"/>
    <path fill="#263238" d="M1278.03 1547.98c0-67.92 30.98-122.98 68.83-122.98h-73.03c-38.1 0-68.83 54.92-68.83 122.98 0 68.07 30.97 123.02 68.83 123.02H1347c-38.1 0-68.97-55.09-68.97-123.02Z"/>
    <path fill="#263238" d="M1416 1548c0 67.93-30.89 123-69 123s-69-55.07-69-123 30.89-123 69-123 69 55.07 69 123Zm731.52-.02c0-67.92 30.75-122.98 68.34-122.98h-72.51c-37.8 0-68.35 54.92-68.35 122.98 0 68.07 30.76 123.02 68.35 123.02H2216c-37.8 0-68.48-55.09-68.48-123.02Z"/>
    <path fill="#263238" d="M2285 1548c0 67.93-30.89 123-69 123s-69-55.07-69-123 30.89-123 69-123 69 55.07 69 123Z"/>
    <path fill="#FFF" d="M2271 1548c0 53.02-21.94 96-49 96s-49-42.98-49-96 21.94-96 49-96 49 42.98 49 96Z"/>
    <path fill="#49B0FF" d="M1593.88 1583h-88.33l-4.95-4.84a27.04 27.04 0 0 0-19.17-8.03h-220.78c-7.2.01-14.09 2.9-19.17 8.03l-3.03 3.01h-8.04c-26.18 0-47.41-21.38-47.41-47.75V1460h501l-39.85 87.26c-7.54 21.44-27.68 35.77-50.27 35.74Z"/>
    <path fill-opacity=".2" d="M1593.88 1583h-88.33l-4.95-4.84a27.04 27.04 0 0 0-19.17-8.03h-220.78c-7.2.01-14.09 2.9-19.17 8.03l-3.03 3.01h-8.04c-26.18 0-47.41-21.38-47.41-47.75V1460h501l-39.85 87.26c-7.54 21.44-27.68 35.77-50.27 35.74Z"/>
    <path fill="#263238" d="M2115.75 1150c-.31.01-.62-.08-.88-.24a1.624 1.624 0 0 1-.65-2.25c.01-.01.02-.03.03-.04l24.42-40.48c.39-.85 1.43-1.22 2.3-.84.88.38 1.27 1.38.87 2.23-.04.11-.1.21-.17.3l-24.42 40.48c-.31.52-.89.84-1.5.84Z"/>
    <path fill="#49B0FF" d="M2243 1355.61v-46.81c0-24.61-35.83-140.71-85.1-162.47-49.27-21.76-168.47-31.44-243.55-27.45-75.09 3.98-175.35 160.75-175.35 160.75l10.9 134.8c15.26 0 63.88-4.6 71 128.77.99 19.53 17.16 34.84 36.75 34.8h262.88c18.26-.01 33.72-13.45 36.24-31.5 6.88-47.54 24.82-132.17 68.11-132.17 30.36 0 52.12 25.95 52.12 55.7.01-32.69-7.94-64.89-23.17-93.83Z"/>
    <path fill="#49B0FF" d="M1638.74 1119c-136.78 0-291.74 161-291.74 161h391.61s100.18-156.98 175.39-161Z"/>
    <path fill="#FFF" fill-opacity=".871" d="M1647.13 1134c-115.21 0-236.06 103.61-271.31 136.24-2.45 2.26-2.42 5.89.07 8.11 1.19 1.07 2.8 1.66 4.47 1.65h315.91c25.79.07 50.07-11.03 65.34-29.86 33.98-41.96 99.43-113.55 152.39-116.14Z"/>
    <path fill="#49B0FF" d="m1739.1 1280-144.6 113.56-389.15-1.24S1183 1424.66 1183 1460h501.33c8.22-21.66 37.03-45.61 65.67-45.61 0-40.3-10.9-134.39-10.9-134.39Z"/>
    <path fill-opacity=".2" d="M1644.69 1360c-.84-.01-1.56-.64-1.67-1.48a1.71 1.71 0 0 1 1.43-1.93c34.52-5.65 66.82-20.8 93.34-43.79 10.86-9.21 13.01-25.23 4.96-37.02a1.73 1.73 0 0 1 .3-2.42c.75-.58 1.82-.44 2.4.31.03.04.07.09.1.14 9.03 13.26 6.62 31.25-5.57 41.61-26.98 23.42-59.87 38.84-95.02 44.55Z"/>
    <path fill="#49B0FF" d="M1205 1392.76s68.38-79.58 142.33-112.76H1739l-144.67 114Z"/>
    <path fill="#263238" d="M1251 1392h257v8h-257Z"/>
    <path fill="#FFF" d="m1502.64 1377.1 13.77-13.77c3.1-3.09 7.02-5.23 11.3-6.16l104-22.65c3.65-.8 7.45-.68 11.05.35l5.57 1.55c12.16 3.42 19.23 16.04 15.81 28.19-.92 3.27-2.56 6.29-4.79 8.84l-22.38 25.58c-3.85 4.4-9.25 7.16-15.08 7.71l-100.97 9.16c-6.75.64-13.44-1.76-18.24-6.54-8.89-8.91-8.91-23.33-.04-32.26Zm-243.94 7.71-11.42-21.04a18.84 18.84 0 0 0-6.9-7.14 19.03 19.03 0 0 0-18.39-.51l-8.66 4.49c-4.25 2.22-7.49 5.95-9.04 10.44l-5.28 15.4c-3.35 9.68 1.9 20.21 11.73 23.51.93.32 1.89.56 2.87.72l23.84 4.05c7.97 1.36 15.93-2.46 19.76-9.49l1.59-2.89a18.217 18.217 0 0 0-.1-17.54Z"/>
    <path fill="#FFF" fill-opacity=".812" d="M1819.14 1284h361.22c10.84.01 19.63-8.76 19.64-19.58 0-1.92-.28-3.83-.83-5.66-8.24-27.4-24.02-70.25-47.73-92.1a19.913 19.913 0 0 0-9.37-4.79c-42.58-9.01-111.03-15-161.81-18.5-46.58-3.18-92.22 14.14-124.92 47.4a439.176 439.176 0 0 0-52.12 63.47c-5.87 8.8-3.49 20.68 5.33 26.55 3.13 2.08 6.82 3.2 10.59 3.21Z"/>
    <path fill="#263238" d="M1585 1500.48c0 11.31-11.65 20.52-26 20.52s-26-9.21-26-20.52c0-11.31 11.61-20.48 26-20.48s26 9.17 26 20.48ZM1377.61 1377c8.46 0 12.59 8.51 9.22 18.98-3.38 10.47-12.94 19.02-21.43 19.02-8.5 0-12.59-8.51-9.22-19.02 3.37-10.5 12.97-18.98 21.43-18.98ZM1204 1500.48c0 11.31-3.55 20.52-7.48 20.52-3.94 0-7.52-9.21-7.52-20.52 0-11.31 3.55-20.48 7.52-20.48 3.97 0 7.48 9.17 7.48 20.48Zm604-219.73v-11.51c-.01-12.27 10-22.23 22.37-22.24 1.55 0 3.09.16 4.61.47l44.17 9.12c10.4 2.16 17.85 11.24 17.85 21.77v2.39c0 12.28-10.02 22.23-22.4 22.25h-44.17c-12.39 0-22.43-9.96-22.43-22.25Zm231.28-133.27s-5.94-.59-16.28-1.48c45.74 92.94 34.08 138 34.08 138H2092c.35-56.59-52.72-136.52-52.72-136.52Z"/>
    <path fill="#FFF" fill-opacity=".2" d="M1657.29 1242.49c-1.44 15.02-14.11 26.49-29.26 26.51h-177.82c-12.97 0-17.67-14.42-8.27-25.14a499.638 499.638 0 0 1 55.1-53.57c33.49-28.08 75.07-42.67 113.94-39.97l14.68 1.06c13.02 1.01 23.82 10.42 26.56 23.13 5.18 22.26 6.9 45.19 5.07 67.98Z"/>
    <path fill-opacity=".2" d="M2061.71 1554c-.94 0-1.71-.77-1.71-1.72 0-34.79 17.64-178.26 22.26-199.75 4.48-20.87 4.48-44.18 0-59.34-.27-.91.25-1.86 1.16-2.13.9-.24 1.84.27 2.12 1.17 4.61 15.68 4.61 39.64 0 61.03-4.62 21.38-22.19 164.37-22.19 199.02 0 .92-.72 1.68-1.64 1.72Zm-5.05-200h-41.37c-2.83.09-5.2-2.09-5.29-4.86-.01-.43.03-.87.13-1.3l.85-4.68c.71-3.48 3.75-6.03 7.36-6.16h41.37c2.83-.09 5.2 2.09 5.29 4.86.01.43-.03.87-.13 1.3l-.85 4.68c-.71 3.48-3.75 6.03-7.36 6.16Z"/>
    <path fill="#263238" d="M2019.114 943.81c.15-12.41 19.107-74.03 75.441-38.395 41.863 26.487 8.527 79.747 50.648 101.424 0 0-75.829 8.639-82.5-41.312-5.223-39.428-33.048-14.766-33.048-14.766Z"/>
    <path fill="#FF0083" d="M2028.013 958.763c3.589-1.536 6.88-7.317 5.097-9.044-1.783-1.726-11.96-8.685-15.31-9.204-3.81-.61-6.126 8.298-6.126 8.298Z"/>
    <path fill="#FF8B7B" d="m1953.67 1703.983-22.442-5.294-4.985-59.238 22.443 5.293 4.984 59.239Zm241.472-67.955-16.653 16.837-44.46-33.16 16.652-16.838 44.46 33.16Z"/>
    <path fill="#263238" d="m2173.456 1649.68 6.872-25.733a1.898 1.898 0 0 1 2.06-1.4l21.15 2.517a3.804 3.804 0 0 1 3.093 4.738c-2.543 8.995-4.216 13.126-7.218 24.43-1.85 6.964-4.95 22.608-7.497 32.194-2.547 9.586-12.215 7.6-12.02 3.36.933-18.948-2.553-28.522-6.024-35.92a6.208 6.208 0 0 1-.416-4.187Zm-242.831 41.351 26.558 9.066a2.342 2.342 0 0 1 1.542 2.334l-1.274 23.04a3.484 3.484 0 0 1-3.654 3.31 3.463 3.463 0 0 1-1.03-.207l-25.555-8.723-35.824-12.228c-9.708-3.314-8.446-13.865-4.072-13.358 19.426 2.16 31.712.238 39.079-3.1a5.808 5.808 0 0 1 4.23-.134Z"/>
    <path fill="#CE6F64" d="m1926.266 1639.496 2.56 30.53 22.634 7.725-2.78-32.972-22.414-5.283Zm224.413-36.619-16.653 16.837 22.927 17.097 16.663-16.866-22.937-17.068Z"/>
    <path fill="#8640FF" d="M2170.241 1662.866a3.114 3.114 0 0 0 2.782-.234c2.534-1.634 3.073-7.17 3.153-10.3a.558.558 0 0 0-.312-.534.652.652 0 0 0-.622.084c-.714.644-7.061 6.401-6.509 9.417.114.68.59 1.247 1.242 1.476Zm4.763-9.224c-.284 4.21-1.23 7.175-2.724 7.98a2.087 2.087 0 0 1-2.09.043.78.78 0 0 1-.548-.615c-.138-1.526 2.872-5.036 5.362-7.408Z"/>
    <path fill="#8640FF" d="M2165.963 1656.305c2.597.887 8.303-1.834 10.06-3.602a.595.595 0 0 0 .18-.53.718.718 0 0 0-.391-.397c-.296-.1-6.9-1.796-9.859-.077a3.106 3.106 0 0 0-1.344 2.106 1.962 1.962 0 0 0 1.05 2.232Zm8.443-3.693c-2.338 1.733-6.755 3.382-8.229 2.583-.236-.08-.51-.339-.397-1.056.05-.552.366-1.046.846-1.323a13.12 13.12 0 0 1 7.79-.234Zm-257.09 38.714a38.67 38.67 0 0 0 7.6 1.575.56.56 0 0 0 .574-.33.529.529 0 0 0-.114-.63c-1.509-1.469-9.171-8.654-12.144-7.86a1.674 1.674 0 0 0-1.171 1.21 3.573 3.573 0 0 0 .483 3.026 9.373 9.373 0 0 0 4.772 3.01Zm6.012.244c-5.072-.778-8.681-2.174-9.843-3.886a2.46 2.46 0 0 1-.342-2.089c.111-.324.151-.442.378-.43 1.58-.381 6.396 3.367 9.787 6.464Z"/>
    <path fill="#8640FF" d="M1924.78 1692.918c.096.085.226.13.354.12a.585.585 0 0 0 .358-.469c.14-.412 1.076-10.778-4.447-11.973-1.407-.316-2.022.23-2.272.77-1.209 2.382 3.212 9.315 5.918 11.62Zm-3.595-11.09c3.187 1.087 3.346 6.895 3.349 9.493-2.378-2.685-5.37-8.014-4.7-9.396.09-.265.495-.292 1.086-.188Z"/>
    <path fill="#0058B9" d="M1951.964 1211.99s-63.652 176.824-62.302 249.026c1.4 69.258 32.152 197.985 32.152 197.985l39.106 12.264s-15.82-155.095-7.8-211.604c13.263-93.68 69.35-245.93 69.35-245.93Z"/>
    <path fill="#8640FF" fill-opacity=".22" d="m1981.708 1239.09 20.468-25.892 20.453.406s-25.534 69.304-46.228 143.154c-5.806-37.72-.192-101.56 5.307-117.668Z"/>
    <path fill="#0058B9" d="M1973.023 1212.69s13.362 158.727 25.635 250.668c9.903 74.265 148.566 172.854 148.566 172.854l21.847-24.237s-97.67-91.27-104.782-141.767c-22.768-161.575 13.815-212.477-16.095-256.124Z"/>
    <path fill="#263238" d="M1969.434 957.809c-4.001 7.281-13.346 32.729 2.705 44.487 16.051 11.759-2.705-44.487-2.705-44.487Z"/>
    <path fill="#FF8B7B" d="m1937.247 1076.306-1.664 1.108-1.98 1.265c-1.375.845-2.751 1.69-4.147 2.496-2.84 1.661-5.846 3.134-8.833 4.547a131.95 131.95 0 0 1-18.621 7.354 138.887 138.887 0 0 1-19.502 4.72c-3.316.643-6.65.853-9.984 1.26l-.553.074-.236-.08a4.77 4.77 0 0 1-.797-.272 11.256 11.256 0 0 1-2.803-.957 55.503 55.503 0 0 1-13.734-11.888 199.22 199.22 0 0 1-12.896-16.271c-4.114-5.712-8.037-11.687-11.833-17.75a803.494 803.494 0 0 1-11.167-18.343l-10.936 5.012a292.315 292.315 0 0 0 19.095 40.58 175.185 175.185 0 0 0 12.562 19.28 73.13 73.13 0 0 0 18.19 17.75 34.246 34.246 0 0 0 7.214 3.383 29.51 29.51 0 0 0 4.46 1.029c.827.085 1.615.19 2.463.216l2.179-.013c3.954-.195 7.898-.263 11.825-.764 7.86-.73 15.643-2.143 23.254-4.227a153.463 153.463 0 0 0 22.283-8.044c3.57-1.674 7.111-3.458 10.594-5.458 1.752-.98 3.484-2.099 5.187-3.128l2.564-1.722a57.187 57.187 0 0 0 2.804-2.035Z"/>
    <path fill="#FF0083" d="M1967.794 1069.222c-27.844-6.94-53.166 13.383-53.166 13.383l21.635 42.794s29.701-14.717 35.88-26.253c6.388-12.056 9.952-26.358-4.35-29.924Z"/>
    <path fill="#FF8B7B" d="m1818.265 1039.875 5.733-20.368-24.546 4.346s2.112 13.116 9.593 19.384Z"/>
    <path fill="#FF8B7B" d="m1815.859 1000.328-17.493 6.654 1.24 16.928 24.398-4.396-8.145-19.186Z"/>
    <path fill="#FF0083" d="M1943.301 1069.17s-10.738 3.37 8.862 142.856l96.342 2.21c-.759-39.186-.265-63.315 20.222-143.22a284.099 284.099 0 0 0-40.684-6.291 306.695 306.695 0 0 0-43.775-1.002 404.359 404.359 0 0 0-40.967 5.447Z"/>
    <path fill="#FF8B7B" d="M2024.738 1015.425c-3.07 14.01-6.392 39.672 3.275 49.285 0 0-4.174 14.16-30.324 13.551-28.773-.648-13.48-14.464-13.48-14.464 15.785-3.39 15.635-15.015 13.153-25.989Z"/>
    <path fill="#CE6F64" d="m2013.605 1024.512-16.196 13.18a43.896 43.896 0 0 1 1.162 7.794c6.018-.74 15.19-5.895 15.971-12.138a25.391 25.391 0 0 0-.937-8.836Z"/>
    <path fill="#FF8B7B" d="M2028.873 983.343c.27 23.535.865 33.47-10.084 46.336-16.481 19.329-45.463 14.467-52.755-8.473-6.578-20.69-5.915-55.643 16.388-66.738 15.895-7.87 35.187-1.377 43.088 14.5a32.078 32.078 0 0 1 3.363 14.375Z"/>
    <path fill="#263238" d="M2027.155 1002.148c-10.438-4.943-24.477-22.886-22.61-32.31 0 0-26.855 7.535-35.882-3.47-7.883-9.628 24.514-31.086 49.802-17.72 27.509 14.486 22.422 41.551 8.69 53.5Z"/>
    <path fill="#FF8B7B" d="M2034.047 1004.188a17.208 17.208 0 0 1-5.431 11.955c-4.453 4.069-9.38.743-10.428-4.875-.943-5.056.205-13.246 5.778-15.19 4.062-1.31 8.422.915 9.74 4.968a7.707 7.707 0 0 1 .341 3.142Z"/>
    <path fill="#0070C0" d="m1915.529 1659.104 48.305 15.14 2.242-15.64-53.134-15.376 2.587 15.876Zm230.139-19.541 27.448-30.413-10.604-12.563-29.775 35.011 12.93 7.965Z"/>
    <path fill="#263238" d="M1993.806 992.452c.116 1.88-.772 3.517-2.014 3.586-1.243.07-2.367-1.367-2.513-3.257-.145-1.891.753-3.557 1.996-3.626 1.242-.07 2.396 1.377 2.531 3.297Zm-21.583 1.558c.146 1.89-.772 3.517-2.015 3.586-1.242.069-2.366-1.367-2.502-3.287-.135-1.92.743-3.528 1.986-3.597 1.242-.069 2.396 1.377 2.531 3.298Z"/>
    <path fill="#263238" d="m1970.27 990.778-4.667-1.001s2.502 3.386 4.667 1.001Zm15.939 26.497.207.07a16.036 16.036 0 0 0 12.795-7.37.592.592 0 0 0-.202-.759.56.56 0 0 0-.763.217c-.002.005-.006.007-.008.013a15.322 15.322 0 0 1-11.904 6.787.56.56 0 0 0-.526.576c.03.221.185.402.4.466Z"/>
    <path fill="#FF8B7B" d="M2055.898 1104.909c1.539 4.372 3.091 8.124 4.82 12.035 1.73 3.91 3.479 7.763 5.367 11.498 3.815 7.549 8.074 14.954 12.454 22.104a198.87 198.87 0 0 0 14.857 20.853c1.301 1.693 2.76 3.309 4.149 4.934 1.388 1.624 2.797 3.289 4.364 4.777 1.569 1.49 2.899 3.094 4.573 4.849l2.813 2.571 2.961 2.326a81.824 81.824 0 0 0 25.052 11.839 147.357 147.357 0 0 0 25.412 4.992 249.67 249.67 0 0 0 25.189 1.397c8.36-.003 16.713-.443 25.029-1.32l-.65-11.992c-7.718-.366-15.788-.95-23.6-1.907a230.058 230.058 0 0 1-23.182-3.705 148.803 148.803 0 0 1-21.913-6.263 85.893 85.893 0 0 1-9.86-4.418 59.591 59.591 0 0 1-8.352-5.547l-1.755-1.52-1.587-1.626c-1.135-1.21-2.337-2.803-3.61-4.191-1.273-1.388-2.317-2.863-3.54-4.496-1.221-1.634-2.297-2.921-3.45-4.466-4.484-6.166-8.523-12.772-12.53-19.368-4.01-6.596-7.513-13.513-10.888-20.517-1.742-3.488-3.375-7.005-4.969-10.54-1.593-3.536-3.097-7.239-4.377-10.438Z"/>
    <path fill="#FF8B7B" d="m2204.162 1196.695 17.01-12.573 4.542 24.335s-12.942 2.782-21.537-2.058Zm37.893-11.769-.024 18.7-16.308 4.822-4.543-24.335 20.875.813Z"/>
    <path fill="#FF0083" d="M2068.765 1070.984c11.473 3.357 24.235 38.652 24.235 38.652l-35.253 25.48s-17.823-30.216-14.925-45.27c2.46-12.806 11.322-23.13 25.943-18.862Z"/>
    <path fill="#263238" d="m1991.85 989.22-4.667-1.001s2.59 3.416 4.667 1.001Z"/>
    <path fill="#0070C0" d="m2050.041 1208.617 4.143 8.713c.33.671-.463 1.354-1.606 1.325l-101.053-2.305c-.858.003-1.535-.524-1.61-.977l-.673-8.647c-.056-.61.696-1.077 1.643-1.05l97.583 2.24a1.784 1.784 0 0 1 1.573.7Z"/>
    <path fill="#00B0F0" d="m2036.714 1219.093 2.622.04c.522.014.938-.238.88-.554l-.95-11.207a.97.97 0 0 0-1.002-.638l-2.622-.04c-.472-.161-.938.238-.881.554l.981 11.217c.146.346.42.702.972.628Zm-77.851-1.663 2.612.07c.523.014.909-.25.891-.584l-.981-11.218c.1-.294-.48-.623-1.011-.608l-2.613-.07c-.442-.15-.908.25-.89.584l.99 11.188c.018.335.48.624 1.002.638Zm38.917.861 2.612.07c.472.16.908-.249.89-.584l-.98-11.217c.09-.265-.46-.585-.982-.599l-2.612-.07c-.523-.013-.939.24-.921.574l.952 11.208c.076.355.518.604 1.04.618Z"/>
    <path fill="#0070C0" d="M2209.435 1118.208c8.293.366 14.474-7.289 12.347-15.29-1.326-4.986-5.928-8.681-11.096-8.909-8.292-.365-14.474 7.29-12.346 15.29 1.325 4.986 5.927 8.682 11.095 8.91Z"/>
    <path fill="#FF0083" d="M1821.09 949.113c9.216-.086 16.421-5.892 14.396-11.6-1.263-3.557-6.228-6.042-11.972-5.99-9.22.086-16.428 5.896-14.398 11.605 1.265 3.556 6.232 6.038 11.975 5.985Z"/>
    <path fill="#3CF" d="M1886.705 942.17c8.293.365 14.474-7.29 12.347-15.29-1.326-4.987-5.928-8.682-11.096-8.91-8.292-.365-14.474 7.29-12.346 15.29 1.325 4.986 5.927 8.681 11.095 8.91Z"/>
    <path fill="#0070C0" d="M1758.254 968.678c4.543.384 7.804-4.817 6.514-10.389-.804-3.472-3.38-6.103-6.212-6.343-4.543-.384-7.804 4.817-6.513 10.39.804 3.472 3.38 6.102 6.211 6.342Z"/>
    <path fill="#FFC000" d="M2185.538 1040.688c6.668-.718 11.493-6.691 10.776-13.34-.716-6.65-6.703-11.458-13.37-10.739-6.669.719-11.493 6.691-10.777 13.34.717 6.65 6.703 11.458 13.371 10.74Zm-22.882 91.592c-2.605 1.062-.82 7.008 3.566 11.882 2.734 3.037 5.822 4.721 7.446 4.06 2.607-1.06.82-7.011-3.568-11.884-2.733-3.037-5.82-4.72-7.444-4.058Z"/>
    <path fill="#3CF" d="M2179.96 1261.453c-5.209 2.122-1.64 14.016 7.133 23.762 5.467 6.074 11.645 9.442 14.894 8.12 5.213-2.121 1.64-14.023-7.136-23.77-5.468-6.07-11.644-9.436-14.89-8.112Z"/>
    <path fill="#FF0083" d="M2122.937 1045.038c-1.384-1.609-5.942.045-10.18 3.692-4.237 3.648-6.549 7.91-5.164 9.518 1.385 1.608 5.942-.045 10.18-3.693 4.236-3.648 6.549-7.909 5.164-9.517Zm-330.95-66.954c-1.385-1.609-5.942.045-10.18 3.692-4.237 3.648-6.549 7.91-5.164 9.518 1.385 1.608 5.942-.045 10.18-3.693 4.236-3.648 6.549-7.909 5.164-9.517Z"/>
    <path fill="#FFC000" d="M1854.99 1021.805c1.787-2.917-3.186-9.219-11.109-14.075-7.923-4.857-15.795-6.429-17.583-3.512-1.788 2.917 3.185 9.219 11.108 14.076 7.923 4.856 15.795 6.428 17.583 3.511Z"/>
    <path fill="#D1D1D1" d="M2226.505 1221.19c-2.605 1.062-.817 7.012 3.569 11.885 2.734 3.036 5.822 4.719 7.445 4.057 2.606-1.062.818-7.012-3.569-11.885-2.733-3.037-5.822-4.719-7.445-4.057Z"/>
    <path fill="#0070C0" d="M1910.905 905.858c-2.605 1.062-.817 7.012 3.57 11.885 2.733 3.036 5.82 4.719 7.444 4.057 2.606-1.062.818-7.012-3.569-11.885-2.733-3.037-5.821-4.72-7.445-4.057Z"/>
    <path fill="#3CF" d="M1882.002 1046.117c2.114-.188 3.426-4.855 2.93-10.424-.495-5.57-2.61-9.932-4.724-9.743-2.114.188-3.426 4.855-2.931 10.424.495 5.569 2.61 9.931 4.725 9.743Z"/>
    <path fill="#FF0083" d="M2188.507 1172.178c-1.385-1.609-5.942.044-10.18 3.692-4.237 3.648-6.549 7.91-5.164 9.518 1.385 1.608 5.942-.045 10.18-3.693 4.236-3.648 6.549-7.909 5.164-9.517Zm-37.63 123.27c-1.385-1.609-5.942.044-10.18 3.692-4.237 3.648-6.549 7.91-5.164 9.518 1.385 1.608 5.942-.045 10.18-3.693 4.236-3.648 6.549-7.909 5.164-9.517Z"/>
    <path fill="#00B0F0" d="M1889.707 969.48c-1.385-1.609-5.942.044-10.18 3.692-4.237 3.648-6.549 7.91-5.164 9.518 1.385 1.608 5.942-.045 10.18-3.693 4.236-3.648 6.549-7.909 5.164-9.517Z"/>
    <path fill="#263238" d="M1353.29 1267.62c-9.74-14.05-10.62-44.35-11.25-76.53-.85-35.51-1.81-75.82-15.35-99.77l1.33-.72c13.74 24.47 14.7 64.92 15.56 100.64.77 31.89 1.49 62.02 11 75.68Z"/>
    <path fill="#FF0083" d="M1266.91 1004.08c-.29-42.187 26.82-69.194 60.47-69.418 33.65-.224 61.13 26.585 61.31 68.628.27 40.42-24.47 84.14-56.14 87.95 2.35 2.51 3.66 5.81 3.69 9.25l-15.66.12c-.03-3.45 1.25-6.79 3.57-9.34-31.71-3.4-56.94-46.82-57.24-87.19Z"/>
    <path fill="#263238" d="M1332.95 1092.48c-.28.09-.58.07-.84-.05-1.36-.5-5.51-1.63-7.1-.18-.49.54-1.31.57-1.85.09a1.311 1.311 0 0 1 .11-2.02c3.05-2.75 9.09-.57 9.75-.31.68.24 1.03.99.78 1.67-.14.39-.45.69-.85.8Z"/>
  </g>
</svg>
