<svg width="320" height="198" xmlns="http://www.w3.org/2000/svg" xml:space="preserve" overflow="hidden"><defs><clipPath id="a"><path d="M2753 655h320v198h-320z"/></clipPath></defs><g clip-path="url(#a)" transform="translate(-2753 -655)"><path d="M2976.5 692.505c12.64-2.851 25.29-5.702 36.21 1.711 10.91 7.412 20.11 31.646 29.3 42.765 9.2 11.118 21.55 11.974 25.86 23.948 4.31 11.974 2.59 39.059 0 47.897-2.58 8.838-9.05 6.984-15.51 5.131" stroke="#00B0F0" stroke-width="4.583" stroke-miterlimit="8" fill="none"/><path d="M2977.77 693.5c.58 41 1.15 82 1.73 123l-107-1.709" stroke="#00B0F0" stroke-width="4.583" stroke-miterlimit="8" fill="none"/><path d="M2800.34 813.5h-22.39l-3.45-48.276 205-1.724M2998.5 691.5l1.7 52h49.3" stroke="#00B0F0" stroke-width="4.583" stroke-miterlimit="8" fill="none"/><path d="M2811.5 824.5c0-14.359 11.64-26 26-26s26 11.641 26 26-11.64 26-26 26-26-11.641-26-26ZM2992.5 815.5c0-14.359 11.64-26 26-26s26 11.641 26 26-11.64 26-26 26-26-11.641-26-26Z" stroke="#0070C0" stroke-width="4.583" stroke-miterlimit="8" fill="none"/><path d="M2905 718c-11.05 0-20 9.402-20 21s8.95 21 20 21 20-9.402 20-21c-.01-11.593-8.96-20.988-20-21Zm0 37.333c-8.59 0-15.56-7.312-15.56-16.333 0-9.021 6.97-16.333 15.56-16.333s15.56 7.312 15.56 16.333c0 9.021-6.97 16.333-15.56 16.333Z" fill="#0070C0" fill-rule="evenodd"/><path d="M2822 734c.27 1.635.42 3.294.42 4.958V739h58.16v-.042c0-1.664.15-3.323.42-4.958Z" fill="#00B0F0" fill-rule="evenodd"/><path d="M2926.73 696.976c9.84 0 17.82 8.354 17.82 18.66v14.032c0 2.577-2 4.665-4.46 4.665h-11.55c.27 1.526.41 3.075.41 4.628V739h11.14c4.91-.016 8.89-4.184 8.91-9.33v-13.995c-.03-12.883-9.99-23.32-22.29-23.364h-18.47c-2.37.079-4.65-.935-6.24-2.774l-28.06-29.156c-3.37-3.504-7.95-5.438-12.69-5.365h-36.89c-.03 0-.06-.016-.09-.016s-.05.016-.08.016h-28.2c-4.74-.028-9.3 1.899-12.7 5.365l-27.62 29.156c-1.73 1.781-2.69 4.223-2.67 6.764v24.025c.03 10.292 7.99 18.627 17.82 18.66h2.23v-.025c0-1.552.14-3.101.41-4.626h-2.64c-7.38 0-13.36-6.266-13.36-13.995v-23.364Zm-55.92-33.29 27.55 28.625h-71.86v-32.639h34.75c3.57-.076 7.02 1.372 9.56 4.014Zm-84.36-.014c2.55-2.596 5.98-4.034 9.54-4h26.06v32.639h-62.67c-.03 0-.04-.019-.02-.04Z" fill="#00B0F0" fill-rule="evenodd"/><path d="M2797.5 718c-11.32 0-20.5 9.402-20.5 21s9.18 21 20.5 21 20.5-9.402 20.5-21c-.01-11.593-9.18-20.988-20.5-21Zm0 37.333c-8.81 0-15.94-7.312-15.94-16.333 0-9.021 7.13-16.333 15.94-16.333 8.81 0 15.94 7.312 15.94 16.333 0 9.021-7.13 16.333-15.94 16.333Z" fill="#0070C0" fill-rule="evenodd"/></g></svg>