<svg xmlns="http://www.w3.org/2000/svg" xml:space="preserve" width="3115" height="2158" overflow="hidden"><defs><clipPath id="a"><path d="M642 317h3115v2158H642z"/></clipPath></defs><g fill-rule="evenodd" clip-path="url(#a)" transform="translate(-642 -317)"><path fill="#FAFAFA" d="M3757 1576c0 496-698 899-1557 899-860 0-1557-403-1557-899 0-497 697-899 1557-899 859 0 1557 402 1557 899Z"/><path fill="#E0E0E0" d="M2414 624c-466-37-957 48-1316 255-304 176-455 405-455 635v65c0 41 5 81 14 121L2415 685Z"/><path fill-opacity=".2" d="M2414 624c-466-37-957 48-1316 255-304 176-455 405-455 635v65c0 41 5 81 14 121L2415 685Z"/><path fill="#E0E0E0" d="M1098 879c-359 207-506 491-440 760L2415 624c-467-37-958 48-1317 255Zm2441 661-141 80 20 12 142-81-21-11Zm-303 173-140 82 20 12 140-82-20-12Zm-302 173-142 82 20 12 142-82-20-12Zm-302 175-142 80 20 12 142-81-20-11Zm-303 173-141 82 20 12 141-82-20-12Zm516-1447 439 252c62 35 54 97-17 138l-701 404c-355 205-947-221-664-380l735-425c71-41 147-25 208 11Z"/><path fill="#E0E0E0" d="M834 2121c64 75 313 216 447 257 133 41 165 36 227 0l842-487c315-181-431-534-674-388l-842 486c-63 37-64 56 0 132Zm2636-666 123-70c5-3 5-7 0-10l-123-70c-5-3-11-3-16 0l-123 70c-4 3-4 7 0 10l123 70c5 3 11 3 16 0Z"/><path fill-opacity=".1" d="m1739 923-14-7-426 247-38-21-133 5-101 59-9 77 37 22-8 4 13 8 8-5 37 22 133-6 101-58 10-78-37-21 427-248Z"/><path fill="#455A64" d="M866 1322a79 79 0 0 0-71 0c-10 6-14 13-14 20 0 9 6 17 14 20 22 12 49 12 71 0 8-3 14-11 15-20 0-7-5-14-15-20Z"/><path fill="#263238" d="M881 1343c0-8-5-15-15-21a78 78 0 0 0-71 0c-10 6-14 13-14 21v12c0 9 6 17 14 20 22 12 49 12 71 0 8-3 14-11 15-20Z"/><path fill="#455A64" d="M866 1322a79 79 0 0 0-71 0c-10 6-14 13-14 20 0 9 6 17 14 20 22 12 49 12 71 0 8-3 14-11 15-20 0-7-5-14-15-20Z"/><path fill="#37474F" d="M794 890c0-6 4-12 10-15 17-8 36-8 53 0 6 3 10 9 11 15v448c-1 7-5 13-11 15-17 9-36 9-53 0-6-2-10-8-10-15Z"/><path fill="#455A64" d="M857 875c-17-8-36-8-53 0a16 16 0 0 0 0 30c17 8 36 8 53 0a16 16 0 0 0 0-30Z"/><path fill="#263238" d="M836 321v569l-2 1h-8l-1-1V321c0-2 3-4 6-3 2 0 4 1 5 3Z"/><path fill="#263238" d="M836 559h-11c0-49 27-94 69-118 47-28 103-27 154 2l-6 9c-47-26-99-27-142-1-39 22-63 63-64 108Z"/><path fill="#263238" d="m1040 487 28 19c22 15 57 17 79 5 10-6 15-13 15-21v-15c0-8-7-17-20-23l-43-19c-25-11-56-14-71-5-5 3-9 8-8 14v15c-1 9 7 20 20 30Z"/><path fill="#37474F" d="M1028 428c-15 8-9 27 13 42l27 19c23 15 58 17 80 5s20-31-4-42l-44-20c-25-10-57-12-72-4Z"/><path fill="#455A64" d="M1028 441c0-3 2-6 5-8 7-3 14-5 22-4 15 0 29 3 43 9l43 20c10 5 16 11 16 16 0 6-4 11-12 15-10 5-20 8-31 8-14 0-29-4-41-12l-28-19c-11-8-18-18-17-25Z"/><path fill="#263238" d="M1686 675v271l33-2V673l-33 2Z"/><path fill="#E60078" d="m1746 447-94-54-12 7-65 50v125l65 127 94 54 12-7 66-50V574l-66-127Z"/><path fill="#FAFAFA" d="m1730 741-87-50-61-116V460l61-46 87 50 62 116v115Zm-85-54 83 48 60-44V580l-60-112-83-48-60 44v111Z"/><path fill="#FAFAFA" d="m1648 524 13 7v89l12 7v-89l13 7v-16l-38-21Zm-11 41a101 101 0 0 0-13-25l-5-10c-3-5-4-11-5-17l2-7a3 3 0 0 1 5-1l4 5 3 12 12 3-3-13-6-12c-3-4-6-7-11-10-3-2-7-3-11-2-5 2-7 8-7 18 0 5 1 11 3 16l8 19 11 19c2 5 4 11 4 16l-1 6a4 4 0 0 1-6 2c-3-2-4-4-5-6-3-5-4-10-4-15l-11-6 2 17 7 13a33 33 0 0 0 17 14c3 1 7 0 9-3 3-5 4-10 4-16l-2-11-1-6Zm76-22c-4-2-10-2-14 0-4 4-6 10-5 15v57c0 8 2 15 5 21 3 7 8 12 14 15 4 3 9 4 13 1 4-4 6-9 6-15v-58c0-7-2-14-6-21-3-6-7-11-13-15Zm6 87c0 2 0 3-2 5h-5c-2-2-4-3-5-6l-2-7v-58l2-5h5l5 5 2 8Zm56-42c-3-7-8-12-14-15l-19-11v105l12 7v-40l7 4c4 3 9 3 13 0 4-4 6-9 5-15v-15c1-7-1-14-4-20Zm-7 29c1 2 0 4-2 6h-4l-8-5v-33l8 4 5 5 1 8Z"/><path d="M2185 816c-29 31-72 86 8 41 80-44 480-233 480-233v205l-401 224s-74-55-111-95c-22-24-32-57-26-88Z"/><path fill="#263238" d="m2155 842-4 15c-8 16-27 35-34 34-7-2-10-10-12-21l-1-15c-1-17 7-56 31-66 5-2 10-1 14 3l7 11c4 11 0 38-1 39Z"/><path fill="#455A64" d="M2150 857c-9 16-27 35-34 34-6-2-9-10-11-21l-1-15c-1-17 6-56 29-66 5-2 11-1 14 3l-3 7c-16 7-21 32-19 51s15 17 25 7Z"/><path fill="#37474F" d="M2156 803c-7-6-22-6-34 10-13 17-17 46-17 57l-1-15c-1-17 7-56 30-66 10-5 19 5 22 14Z"/><path fill="#FFF" d="M2127 933c52 43 107 82 166 116 61 36 136 71 191 96 47 21 101 18 146-8l41-24 64-232-19 1c-47-1-138-53-212-96s-180-104-145-135l-10 9c-104 94-224 226-229 230l-3 3c-6 14-2 30 10 40Z"/><path fill="#BFBFBF" fill-opacity=".2" d="m2537 1147 9 1-6-3h11l12 3c17-1 33-4 48-10h-1a1189 1189 0 0 0-66-5c-11-3-11-7-1-9 9-3 41-7 53-10 8-3 15-7 21-12l24-6 1 4 1 6 2 12v3l4-2v-1a209 209 0 0 0-5-23l24-7h2l-1 7-1 7-1 7 4-3v-4a258 258 0 0 0 1-15l10-3 1-3-9 2-1-4-1-6-2-14-3-14-1-7-2-7 7-4 10 22 6 11 1 4 2-5-6-12-9-22 6-4 23-14 1-5-31 20-10-9-10-10a479 479 0 0 0-21-18l41-34 1-1 1 1 12 11a294 294 0 0 1 21 21l1 2 2-5-10-10-11-11-12-10h-3l21-17 7-6-3-2-11 9-26 21-23 18-15-19-8-10-8-9 15-33 8-23-4-2v2a1863 1863 0 0 1-25 59 315 315 0 0 0-46-6h-12c5-14 9-27 12-41 1-8 2-16 1-24 0-9-2-17-5-25h-1c5 18 5 37-1 55l-3 12-32 8-29 7a239 239 0 0 0-31-76 345 345 0 0 0-44-57l5 6 20 29a358 358 0 0 1 38 74l-13-2-15-2-16-2-8-1-5-1a226 226 0 0 0-23-29l14 20 6 10 1 1a148 148 0 0 1 14 28l1 2 9 22 17 42 17 42 9 22a199 199 0 0 0 10 19c-3-9-5-17-9-25l-9-24-20-50h1l20-7 10-3-2 21a192 192 0 0 0 7 69c2 10 5 19 9 28-4 3-9 0-15-10l-2-4a3998 3998 0 0 0-128-196l-16-27 7 17 9 14 20 31 42 65-3 4-2 4-4 7-4 8-2 4-33-39-24-29-21-27a136 136 0 0 1-20-44l-2 2 1 4 5 14c4 10 9 20 16 29l21 27 23 29 32 39-5 6-10 17-10 19c-1 2 3 3 4 1l10-17 10-18 4-4 11 14 39 45c3 5 4 11 3 16-4 10-14 3-14 3-19-13-38-24-58-34l-30-14-5-23-6-44-4-23c-2-7-4-15-8-22v1l5 24c5 28 5 57 13 85a397 397 0 0 1-120-81l-10-10-2 2 9 10a480 480 0 0 0 127 85l34 16a577 577 0 0 1 82 54c1 3-2 5-4 6l-24-3 12 5 23 4c1 1-1 3-4 5l17 7a161 161 0 0 0 47 14Zm-113-249-2-3 4 1 7 1 16 2 5 1-4 4-6 6-10 9-10-21Zm19 40-7-16 12-10 5-6 5-6 6 1 9 1h4l3 10a1172 1172 0 0 0-34 35l-3-9Zm41 20-5 1-8 3-16 5-7-16h1a1100 1100 0 0 1 32-35 140 140 0 0 1 2 10c2 7 3 14 3 22l1 10Zm-75 36 4-8 4-8 2-4 1-2 9 14-8 5-10 4-3 2Zm67 76c-7 3-26-19-30-23l-39-45 9-5 9-5 6-4 17 28 29 46c2 4 2 7-1 9Zm72 32s-8-1-1-14l27-42 8-10 18 9 10 5 9 6-1 1-3 2a195 195 0 0 1-22 15l-27 16-18 12Zm75-5-3 1-3 1c-26 7-40 10-49 4-4-3-3-7 0-11l8-5 27-15 13-9 11 14 7 8 6 8Zm43-38 2 13a108 108 0 0 1 2 12l-14 4-12 4-2-3-4-5-6-8-13-16 9-7 26-16 8-4v5l2 7 2 14Zm-15-54 10 9c3 3 6 7 10 9l-1 1-27 15-21 15-9-6-10-5-19-10 3-3c10-12 20-22 31-32l18 12 19 13h2a301 301 0 0 0-37-27l8-7 2-2 21 18Zm-159-51h4l7-2 12-2 22-7-2 6c-2 8-5 17-6 26v1l-11 2-10 3-11 2-5 1h-1l1-11v-19Zm103 10a414 414 0 0 1-7 16l7-15 30 21-16 15-19-11-21-10-21-7-14-1 1-2 4-19 14 2 15 2 14 3 15 2-1 3c-1 1-3 0-2 1Zm-62 12h15l19 7a403 403 0 0 1 40 19l-14 15a283 283 0 0 0-45-20l-8-2-4-2h-2l-1-1h-2l2-16Zm76-39 3 3 4 6 7 9 16 19-12 10-29-21-2-1 2-3c0-1 1 0 0 0l4-8Zm-58-3h8l15 2 30 4 1-1-8 19-15-3-14-2-15-2-13-2 2-6 3-10h6Zm-31-16 16-4 13-4-11 31c-9 1-17 4-26 6l-13 3-6 1h-1l-3-24Zm-29 69h3l6-1 10-3 10-2 8-2-2 18-8 2-10 2-10 3-6 1h-2v-18Zm25 92c-3 3-7 4-12-5a434 434 0 0 1-14-65v-1l5-1 5-1 11-2 11-3 3-1v4l-7 59-2 16Zm7-12 1-10 7-59v-4l6 2 8 3a432 432 0 0 1 46 20l-11 13-1 1h-1c-12 14-22 29-32 44-4 5-9 10-15 13-8 3-8-22-8-23Z"/><path fill="#FFF" fill-opacity=".2" d="M2670 859c-27 143-72 205-114 220s-140 2-261-62c-23-13-29-9-23 6l26 15c61 36 136 71 191 96 47 21 102 18 146-8l42-23 64-232-19 1c-18-2-35-6-52-13Z"/><path fill="#263238" d="M2349 671c16 33 77 71 154 115 78 45 168 96 218 98h2l-57 210-37 21a149 149 0 0 1-134 7c-53-24-129-59-191-95-58-34-113-72-165-115-6-5-9-15-6-23l1-1 19-20c36-39 118-126 196-197m15-31Zm0 0-10 9c-105 94-225 226-230 230l-3 4c-6 13-2 30 10 39 52 44 108 82 166 116 62 35 137 71 192 96 47 21 102 18 146-8l42-24 64-232-16 1h-3c-48-1-138-54-212-97-75-42-180-103-146-134Z"/><path fill="#263238" d="m2124 887-5 2c-2 8 0 17 5 24-5-8-5-18 0-26Z"/><path fill="#FFF" d="m3062 857-385 247 63-233c39-5 33-4 95-39l110-64c14-8 32-8 46 0l70 40a28 28 0 0 1 1 49Z"/><path fill="#263238" d="m3216 1051-144-80 80-45 63 36 1 89Zm-580 333v-89l-64-36-79 45 54 51 89 51v-22Z"/><path fill="#37474F" d="m2576 1367 21-41-49-28c-16-9-37-8-59 5-48 28-87 99-87 160 0 32 10 54 27 65h1l50 29 22-43c41-31 72-93 74-147Z"/><path fill="#263238" d="m2576 1367 21-41-49-28c-16-9-37-8-59 5-48 28-87 99-87 160 0 32 10 54 27 65h1l50 29 22-43c41-31 72-93 74-147Z"/><path fill="#37474F" d="M2627 1391c0 52-29 113-68 146l-19 14c-48 28-87 1-86-60 0-45 22-97 53-132 10-11 21-20 33-27 48-28 87-1 87 59Z"/><path fill="#455A64" d="M2627 1391c0 52-30 112-68 146 27-31 46-67 55-107 7-35 4-85-25-97-30-13-70 14-82 26 9-11 20-20 32-27 48-28 88-1 88 59Z"/><path fill="#37474F" d="m3156 1032 21-41-49-28c-16-9-36-8-59 5-48 28-87 99-87 160 0 32 10 54 27 64l51 30 22-43c41-32 72-93 74-147Z"/><path fill="#263238" d="m3156 1032 21-41-49-28c-16-9-36-8-59 5-48 28-87 99-87 160 0 32 10 54 27 64l51 30 22-43c41-32 72-93 74-147Z"/><path fill="#37474F" d="M3207 1056c0 52-29 113-68 146l-19 14c-48 28-86 1-86-60 0-45 22-97 53-132 10-11 21-20 33-27 48-28 87-1 87 59Z"/><path fill="#FFF" d="M3120 1034c30-18 55 0 55 41 0 40-25 87-55 105-31 18-55-1-55-41 0-41 24-88 55-105Z"/><path fill="#455A64" d="M3207 1056c0 53-29 113-68 147 27-31 46-68 55-107 7-35 5-86-25-98-30-13-70 14-82 26 9-11 20-20 32-27 48-28 88-1 88 59Z"/><path d="M2636 1127v25l-68 40c-190 110-292 168-516 40-39-22-74-49-103-82s-14-90 6-125c23-41 63-72 101-98 6-4 50-33 68-47l-3 3c-6 14-2 31 10 40 52 44 108 82 166 116 62 36 137 71 192 96 47 21 102 18 147-8Z"/><path fill="#455A64" d="m2677 1103 21-78a32 32 0 0 0 47 36l230-145c-15 10-176 134-339 236v-24Z"/><path fill="#00B0F0" d="M3155 590v4c-11 24-56 48-149 102-108 63-179 100-220 123-21 13-36 19-45 51l-43 155 43-155-19 1c-47-2-138-54-212-96-75-43-181-105-145-136 35-30 259-147 325-183 52-28 98-47 152-47s112 20 180 60c119 72 131 95 132 114l1 7Z"/><path fill="#00B0F0" d="M1886 1282c16 63 93 126 150 158 86 48 179 87 278 79 36-4 73-12 104-33 15-10 15-17 20-34 5-19 13-37 23-55a216 216 0 0 1 72-79c53-31 97-6 102 55l1 12 374-216 1-18a252 252 0 0 1 29-88 218 218 0 0 1 73-79c53-31 97-7 102 54l1 12 21-12c50-29 51-79 50-115v-25l-2-60-2-21v-10l-3-23c-4-28-10-40-16-47l-12-9a83 83 0 0 0-15-8l5 10-34 32c-21 20-55 23-82 10l-7-3-67-39a15 15 0 0 1 0-25l10-6 4-4 5-3 47-32c32-23 37-34 38-52v-25c-1 28-41 51-149 114-108 62-179 99-220 123-21 12-36 19-45 51 39-5 33-4 95-39l110-64c14-8 32-8 46 0l70 41a28 28 0 0 1 1 48l-383 244 294-184c-17 12-222 169-407 275-190 110-291 168-515 40-22-13-43-26-60-45s-30-34-37-69c-6-26-4-53 5-79 7-26 21-50 40-69a500 500 0 0 0-69 65c-25 31-42 67-48 105-10 51-13 86 2 142Z"/><path fill="#37474F" d="m2645 1135-3 22-19 9-32 15-38 18c-8 4-17 13-26 14-12 1-19-11-31-11-11 1-18 11-22 19-5 8-10 16-17 22-6 6-16 8-25 5-10-4-17-17-28-16-8 1-13 10-17 17-9 15-24 26-42 28a289 289 0 0 1-29 4h-2c-35 4-79 5-113-8-26-11-45-36-72-46-15-5-31-4-45-10-18-9-28-30-45-41l-31-14c-25-11-35-40-37-66-4-37 2-74 16-108 2-6 5-11 9-15 5-4 11-6 17-4 2 1 5 3 8 2l5-4c6-10 12-20 16-30 2-6 5-11 9-16 11-13 21 1 33-5 12-7 24-18 35-27l4-2c-4 8-4 17 0 24 2 6 6 11 10 15a1198 1198 0 0 0 164 113c62 35 137 71 192 96 13 5 27 10 41 12 39 9 79 5 115-12Z"/><path fill="#00B0F0" d="m2645 1128-3 22-19 9-32 16-38 17c-8 4-17 13-26 14-12 2-19-11-31-10-11 0-18 10-22 19-5 8-10 15-17 21-6 6-16 8-25 5-10-4-17-17-28-16-8 1-13 10-17 17-9 15-24 26-42 28l-11 2h-2l-16 2h-2c-35 4-79 5-113-8-26-11-45-36-72-46-15-5-31-3-45-10-18-9-28-30-45-41-10-5-20-10-31-13-25-12-35-41-37-67-4-37 2-74 16-108 2-5 5-10 9-14 5-4 11-6 17-4 2 1 5 3 8 2l5-4c6-10 12-20 16-30 2-6 5-12 9-16 11-13 21 1 33-6 13-7 26-20 39-28l-1 2c-6 13-2 30 9 39 52 44 108 83 166 117 62 35 137 71 192 95 34 16 73 18 109 8 16-2 32-7 47-14Z"/><path fill="#37474F" d="M2412 1218c-44-38-95-68-145-97-49-29-99-57-147-87l-82-55c-2-2-3 1-1 3 44 35 90 66 139 95 51 30 102 58 152 90a4309 4309 0 0 1 84 51Zm81-35-40-25-40-23a36233 36233 0 0 1-228-131l-85-53c-2-1-3 2-1 3 49 34 99 65 150 96l151 86 44 24 49 25v-2Z"/><path fill="#37474F" d="M2299 1146c-10-1-21 6-30 11l-29 18c-21 13-41 25-60 39v2c22-11 42-23 62-35l31-19 14-7 14-6c1-1 0-3-2-3Zm86-24a374 374 0 0 0-71 30c-1 1 1 3 2 3l17-7a471 471 0 0 1 55-20c4-2 0-7-3-6Zm15-21-2-1h-1l-2 1-3 1-8 3-6 3c-3 0-6 2-8 3s0 4 1 4l8-2 7-3 7-2 7-3v-4Zm-265-54c-13 14-25 28-35 44-13 15-24 32-34 49-1 1 0 3 1 2 14-15 26-30 37-47 11-16 23-31 36-44 3-2-3-6-5-4Zm19-53a609 609 0 0 0-26 46c0 1 2 4 3 2l14-22 14-23c2-2-3-5-5-3Zm29-17-7 10-7 9c-1 1 1 4 2 3l8-10 8-9c1-2-3-5-4-3Z"/><path fill="#263238" d="m2731 508 39-23 38-23-40 21-39 22a2078 2078 0 0 0-143 84 4137 4137 0 0 0 145-81Zm261 103-40 22a2296 2296 0 0 0-143 84 3861 3861 0 0 0 145-81l39-23 38-23-39 21Zm-194-64 39-23 38-24-40 21-39 22a2122 2122 0 0 0-144 85 4192 4192 0 0 0 146-81Zm89 51 39-23 38-24-39 22-40 21-66 38-77 47 79-43 66-38Zm165 132 66 38c28 17 66 16 90-6l34-32c-10-16-55-92-87-121 0 13-6 25-21 37-23 18-57 42-83 60a15 15 0 0 0 1 24Z"/><path fill="#FFF" d="m2604 1192-31 21c-2 1-3 2-3 4v16c-1 2 1 4 2 4l2-1 31-20 3-4 1-17c0-2-2-3-3-3h-2Z"/><path fill="#37474F" d="M2636 1384v22l374-215v-21Z"/><path d="m2895 1225-2-2c0-2 6-140 3-237l2-2 1 2c4 98-2 236-2 237l-2 2Zm-248 153c-2 0-3-1-2-2 0-2 7-140 3-237l2-2a2882 2882 0 0 1-4 241Z"/><path fill-opacity=".2" d="M3103 942c-28 12-53 30-73 54a256 256 0 0 0-57 134c0 1 2 3 3 1l6-24a344 344 0 0 1 26-67 238 238 0 0 1 96-96c1 0 0-3-1-2Z"/><path d="m2722 872-16-2c3 11 0 25-7 50-11 43-42 147-51 175s-35 43-54 50c14-4 28-10 41-17l42-24 63-233-18 1Zm147 109 39-24-21-155-27 15Z"/><path fill="#FFF" d="M3269 807h13l-3-22c-4-28-10-40-16-47l-1 1c-12 10-22 22-30 36l-2 8c-3 19 26 23 39 24Z"/><path fill="#263238" d="M1981 1194c62 45 128 83 198 114a18 18 0 0 1 9 26c-10 14-23 25-38 33-10 6-28 4-38 0-55-19-105-48-149-85-9-7-19-22-19-33-1-18 1-36 7-52 4-11 20-10 30-3Z"/><path d="M2133 1358c-6 0-12-1-17-3-53-19-102-47-145-83-7-6-12-15-14-24-1-16 1-32 6-47 2-4 8 1 11 3 62 45 129 83 199 115 2 1 4 2 4 5v2c-9 12-20 22-33 30l-11 2Z"/><path fill="#263238" d="m2038 1325-11-3c6-25 15-49 28-71l11 6c-12 21-21 44-28 68Z"/><path fill="#263238" d="m1956 1228-1 2s38 28 85 57c40 23 81 43 124 60v-2a892 892 0 0 1-208-117Zm-1 9-1 2c1 0 35 26 82 55 39 22 80 42 121 58l1-1a862 862 0 0 1-203-114Zm-1 18-1 1a779 779 0 0 0 192 108l1-2c-69-26-134-63-192-107Zm1-9-2 2a902 902 0 0 0 198 110l1-2a828 828 0 0 1-197-110Zm2-26-1 1s41 30 89 59c40 23 82 44 125 61v-2c-43-17-84-37-124-61-48-29-88-58-89-58Zm97 45c-48-29-95-63-95-63l-2 1a1034 1034 0 0 0 224 126l2-1c-45-18-88-40-129-63Zm-96-54-1 1a993 993 0 0 0 219 123l1-2a998 998 0 0 1-219-122Z"/><path fill="#263238" d="M2037 1347c64 33 146 74 237 72 91-1 174-61 174-61-49 43-109 69-174 74-106 8-174-36-239-71-68-37-125-91-135-150 15 48 74 103 137 136Z"/><path fill="#263238" d="M2158 1469a513 513 0 0 1-222-141c-14-19-21-44-13-40 22 21 44 40 68 58 62 42 127 93 231 99l20 3c25 9-45 32-84 21Zm214-37c-6-2-20 2-45 9-24 6-30 6-39 13-8 5-29 21-39 26-16 8 0 14 44 16 43 1 58-12 69-25 10-14 23-37 10-39Zm-469-153c8-1 2-14-3-33-5-17-18-36-24-50-1 22 0 45 5 66 6 8 13 14 22 17Z"/><path fill="#FAFAFA" d="M2256 1319c-13 0-26 3-37 10-12 9-33 29-19 44 6 6 14 10 23 11a152 152 0 0 0 129-37c4-4 7-8 9-13s0-11-4-15c-5-3-12-4-18-3l-43 2-40 1Z"/><path fill="#E0E0E0" d="M2325 1344c-1-2-2-3-5-4l-6 1-13 3-4 1h-2l-5-3 7-7 14-12c2-2-1-2-3-2l-4 3-8 7h-16c-3 0-5-1-6-4l-6-8 4 15-8-13-1-2h-5l2 3 7 10 2 10v1h-2l-6-4-5-6-5-5 9 12c2 2 4 4 4 7l-3-1-4-2 4 5v1h-1c-3 1-6 0-8-2l-16-12c-4-4-8-6-13-8h-1l7 6 7 7 8 6 6 5a183 183 0 0 1-30 2v2l30 2c2 0 8 0 9 3 2 3-1 8-2 11l-6 8c-1 1-2 2-1 4a262 262 0 0 1 20-22l1 2v7l3-10c2 0 2 2 3 4l2 11 2 5a2472 2472 0 0 0-1-22l3 2 8 9 8 9 4-2-18-24 40-9Zm-33 2v1h-1l-6 1 3-3c1-1 3 0 4 1Zm-12-3-2-2v-8l9-1h7l-4 4-3 3-7 4Z"/><path fill-opacity=".1" d="M2325 1344c-1-2-2-3-5-4l-6 1-13 3-4 1h-2l-5-3 7-7 14-12c2-2-1-2-3-2l-4 3-8 7h-16c-3 0-5-1-6-4l-6-8 4 15-8-13-1-2h-5l2 3 7 10 2 10v1h-2l-6-4-5-6-5-5 9 12c2 2 4 4 4 7l-3-1-4-2 4 5v1h-1c-3 1-6 0-8-2l-16-12c-4-4-8-6-13-8h-1l7 6 7 7 8 6 6 5a183 183 0 0 1-30 2v2l30 2c2 0 8 0 9 3 2 3-1 8-2 11l-6 8c-1 1-2 2-1 4a262 262 0 0 1 20-22l1 2v7l3-10c2 0 2 2 3 4l2 11 2 5a2472 2472 0 0 0-1-22l3 2 8 9 8 9 4-2-18-24 40-9Zm-33 2v1h-1l-6 1 3-3c1-1 3 0 4 1Zm-12-3-2-2v-8l9-1h7l-4 4-3 3-7 4Z"/><path fill="#FAFAFA" d="M1949 1125c2 24-1 49-11 72l-2 4c-12 9-28-44-29-50-3-22 4-54 16-77 4-10 10-14 15-2a218 218 0 0 1 11 53Z"/><path fill="#263238" d="M3293 944c-1 7-4 13-8 19-12 16-6 10-49 35v60l30-18c24-14 27-43 27-96Z"/><path fill="#455A64" d="m3286 924-1 10c-2 9-8 20-34 35l-32 18 16 10c44-25 38-19 50-35 4-5 7-12 8-18 0-10-2-16-7-20Z"/><path fill="#37474F" d="M3219 988v60l17 10v-60l-17-10Z"/><path d="m2653 1141 16-10-16 9Zm255-153v-1l-1-21v-10l-21-154-4 3-2 1h-1l-4 2a15 15 0 0 0-3 2l-3 2h-1l-7 4-1 1-25 14-28 17-7 4-6 3-4 2h1l-5 2-5 2-2 1-1 1h-1l-4 1h2l-15 3-2 1h-5l-12 2-43 155-21 78-7 27 4-3h1l-5 3-1 1-16 10-2 236v22l254-148 1-22a5320 5320 0 0 0 2-241Z"/><path fill="#00B0F0" d="M2769 912c-11 2-20 10-24 21l-38 109-25 71 4-1 68-19 155-43 44-12-24-160h-2l-4 1h-3l-4 1h-4l-1 1h-4l-3 1h-1l-3 1h-2l-30 7-33 7-8 2c-13 4-39 9-58 13Zm-114 230 18-5-18 6Z"/><path fill="#00B0F0" d="M2952 1047a3081 3081 0 0 1-70 25l-16 5-17 6-36 11-37 12-19 6v1l-34 10-18 5-19 6-5 1h-1l-5 2 8-25 25-71-1 2c-6 23 22 50 48 49h3l5-1 190-52-1 8Zm-49-165-4 1 7-2v1Zm7 0-4 1 6-2Zm3-1h-1l4-1Zm16-3-6 2 6-2Z"/><path fill="#00B0F0" d="m2908 1050 43-12 1 2-195 52-72 19 69-19 154-42Zm42 260-51 11-18 5-28 6-19 4-17 4-166 38 3-236 18-5h1l6-2h1l5-2 19-5 18-6 33-10h1l19-6a2695 2695 0 0 0 73-23l17-6 16-6 16-5 54-19c5 88 1 208-1 263Z"/><path fill="#00B0F0" d="m2899 1322-18 4-28 6-19 4-17 4-166 37v22l298-67 1-22Zm48-14-3-2c0-2 10-138 5-237l2-2 3 3c5 100-4 236-4 237 0 2-2 2-3 1Zm5-269-44 12v-1l-11-166 1-1 4-1 4-1h3l2-1h4l3-1h4l3-1h3l24 161Z"/><path fill="#263238" d="M2737 1122c-7 36-46 44-75 43-11 0-22-2-33-6-11-6-6-20 0-28 11-14 57-41 86-42 16-1 27 8 22 33Z"/><path fill="#455A64" d="M2737 1122c-7 36-46 44-75 43-11 0-22-2-33-6-11-6-6-20 0-28-5 11 25 17 52 7 27-9 47-31 34-49 16-1 27 8 22 33Z"/><path fill="#37474F" d="M2737 1122c-7 36-46 44-75 43 29-1 52-18 61-37 8-19 2-37-8-39 16-1 27 8 22 33Z"/><path fill="#455A64" d="M1525 1358c14-6 23-19 24-34 2-16 1-34-25-52-26-17-45-11-55-6Z"/><path fill="#263238" d="M1515 1362c-4-1-8-2-12-5l-27-18c-12-8-19-23-18-37l2-21a18 18 0 0 1 20-17c4 0 8 2 12 4l27 18c12 9 19 23 18 38l-2 21a18 18 0 0 1-20 17Z"/><path fill="#455A64" d="m1487 1273 26 18c9 7 15 19 15 31l-3 21c-1 11-9 14-19 7l-26-17c-9-8-15-19-14-32l2-20c1-11 9-14 19-8Z"/><path fill="#FFF" d="m1495 1279-29 22 2-25 8-6c4 0 8 1 11 3Zm22 16-43 32-3-5 41-30 5 3Zm12 28v3l-29 21-13-8 41-29c1 4 2 8 1 13Z"/><path fill="#20C4FF" d="m1608 2129-197-115 131-76 198 114-132 77Z"/><path fill-opacity=".3" d="m1608 2129-197-115 131-76 198 114-132 77Z"/><path fill="#37474F" d="m1538 2138 23-46-54-31c-17-10-39-9-64 6-53 31-95 110-95 177 0 36 11 60 30 72h1l54 32 24-48c45-34 79-102 81-162Z"/><path d="m1538 2138 23-46-54-31c-17-10-39-9-64 6-53 31-95 110-95 177 0 36 11 60 30 72h1l54 32 24-48c45-34 79-102 81-162Z"/><path fill="#263238" d="M1596 2166c0 58-33 125-76 162l-21 15c-53 30-96 1-96-66 0-50 24-108 59-146h1c10-12 23-22 36-30 53-31 97-1 97 65Z"/><path fill="#FFF" d="M1499 2142c34-19 62 1 62 45s-28 95-62 114c-34 20-61 0-61-44s27-96 61-115Z"/><path fill="#455A64" d="M1596 2166c0 58-32 125-75 162 30-34 50-74 61-118 8-39 5-94-28-108s-77 15-90 29c10-12 22-22 36-30 53-31 96-1 96 65Z"/><path fill="#20C4FF" d="m2265 1750-197-115 32-40 198 115-33 40Z"/><path fill-opacity=".3" d="m2265 1750-197-115 32-40 198 115-33 40Z"/><path fill="#37474F" d="m2197 1758 23-45-54-31c-17-10-40-9-65 6-53 31-96 110-96 177 0 36 11 60 30 72h1l55 32 24-48c45-34 80-103 82-163Z"/><path d="m2197 1758 23-45-54-31c-17-10-40-9-65 6-53 31-96 110-96 177 0 36 11 60 30 72h1l55 32 24-48c45-34 80-103 82-163Z"/><path fill="#263238" d="M2253 1787c0 57-32 124-75 161-6 6-13 11-21 16-53 30-95 1-95-66 0-51 24-108 59-147 10-12 22-22 36-30 53-31 96-1 96 66Z"/><path fill="#FFF" d="M2157 1761c33-19 61 1 61 46 0 44-28 96-61 115-33 20-60 0-60-45 0-44 27-96 60-116Z"/><path fill="#455A64" d="M2253 1787c0 58-32 125-75 162 30-34 50-75 61-119 8-38 5-94-28-108s-77 16-90 29c10-12 22-22 36-30 53-31 96-1 96 66Z"/><path fill="#00F" d="M2355 1569v64c0 36-32 83-71 105l-19 12c-12-56-56-77-108-46-16 9-30 20-42 34h-1c-34 39-57 86-65 137l-442 254c-12-55-56-76-108-46-16 9-30 21-42 35-34 38-57 85-66 136l-43 25c-39 23-75 24-141 0s-244-122-321-185c-50-41-70-75-70-117v-98a316 316 0 0 1 10-66c10-43 27-84 50-122 47-75 65-92 114-120l155 63 616-355c85-49 311-34 442 49s152 154 152 241Z"/><path fill-opacity=".1" d="m1416 1782-429-209c-46 26-64 44-111 118a413 413 0 0 0-60 198v87c0 42 20 76 70 116 77 63 256 162 321 186 44 15 74 20 101 15-11-28-1-86 13-200 19-144 43-254 95-311Z"/><path fill="#263238" d="M2068 1581c26-15 37-37 27-61l-267-52v77Z"/><path fill="#263238" d="M1497 1303h263c43 0 116 24 208 85 92 60 190 139 110 187Z"/><path fill="#FFF" d="M1506 1310h264c41 0 123 44 189 82 66 39 167 133 132 153-13 7-43 4-132-7l-113-15Z"/><path fill="#FFF" fill-opacity=".2" d="M2077 1492c-34-39-74-73-118-100-66-38-148-82-189-82h-264l122 77 32-15c-40-23 72-35 136-27 64 9 234 87 281 147Z"/><path fill="#263238" d="M1437 1818c-3 26-3 53-2 79s21 38 45 24l590-340c23-14 20-27-7-31l-153-19c-31-2-63 4-91 19l-340 195c-23 14-38 36-42 73Z"/><path fill="#FFF" d="M1450 1815c-4 26-5 53-2 79 2 15 15 20 30 11l547-315c16-9 14-18-4-20l-133-17c-21-2-42 3-61 12l-348 201c-16 9-24 19-29 49Z"/><path fill="#263238" d="M1694 1626v168l11-7v-168l-11 7Zm199-85v137l13-6v-137l-13 6Z"/><path fill="#00F" d="M2355 1569v65-2c-2-27-22-123-102-94-119 44-598 297-635 317 34-19 436-241 487-267 38-20 162-80 184-145 6-10 10-22 12-33l4 4 4 5 1 1 4 6a218 218 0 0 1 18 31l3 6 5 11 1 4a267 267 0 0 1 6 20l1 5 1 5 3 15 1 11 2 35Zm-908 521c12-16 26-29 42-40 16-12 35-20 54-24 10-1 20-1 29 1 10 2 19 6 27 12 16 13 27 30 32 49-6-18-18-35-34-46-7-6-16-9-25-11-10-2-19-2-28 0-19 3-37 11-53 21-16 11-31 24-44 38Z"/><path fill="#0070C0" d="M2102 1711c12-15 26-28 42-39s35-19 54-22a73 73 0 0 1 56 12c16 12 27 29 32 47-7-18-18-33-34-45-7-5-16-8-25-10-10-2-19-2-29 0-18 3-36 10-52 21-16 10-31 22-44 36Z"/><path fill-opacity=".2" d="M1648 2078a4685 4685 0 0 1 277-167l95-53-2 4c2-21 8-41 16-61 8-19 20-37 35-51-13 16-23 34-30 53s-11 39-13 59v3l-2 1-92 55a5154 5154 0 0 1-284 157Z"/><path fill="#FAFAFA" d="M2317 1430c11 27-16 68-12 107 4 40 35 42 49 0 6-44-27-101-37-107Z"/><path fill="#455A64" d="M2065 1671c14-6 23-19 24-35 2-17 1-35-25-53s-45-12-55-7Z"/><path fill="#263238" d="M2054 1673c-4-1-8-2-11-5l-27-18c-12-8-19-23-18-37l2-21a18 18 0 0 1 20-17c4 0 8 2 11 4l27 18c12 9 19 23 18 38l-2 21a18 18 0 0 1-20 17Z"/><path fill="#455A64" d="m2026 1586 26 17c10 7 16 19 15 31l-2 20c-1 11-10 14-19 8l-26-18c-10-7-16-18-15-30l2-21c1-10 10-13 19-7Z"/><path fill="#FFF" d="m2034 1591-29 21 2-23 8-6c4 0 8 1 11 3Zm22 15-43 32-3-5 42-30 4 3Zm11 28v3l-28 21-12-8 39-29c1 4 2 9 1 13Z"/><path d="M1422 1866c1 34 1 68 4 102 1 17 3 34 10 49 2 8 9 13 17 14 9 0 17-2 24-6 16-6 32-11 49-15s34-5 51-2c17 4 33 14 43 28 9 14 16 30 20 47-4-17-12-32-22-46a68 68 0 0 0-41-26c-17-3-34-2-50 2a381 381 0 0 0-67 22h-7c-9-1-17-7-20-16-7-16-8-34-10-51-2-34-1-68-1-102Zm284-72c2 42 2 83 2 125v63l-2 62-1-62v-63l1-125Zm282-160 2 124-1 62-1 62-2-62v-62c0-41 0-83 2-124Z"/><path fill="#37474F" d="m1509 1929 38-22c7-4 14-4 14 1 0 6-7 14-14 18l-38 23c-8 4-14 4-14-2 0-5 6-13 14-18Zm231-133 39-21c7-5 14-4 14 1s-7 13-14 17l-39 22c-7 4-14 4-14-2 0-5 7-12 14-17Z"/><path fill="#00F" d="M1301 1799c27 13 58 13 85 0l436-252c39-22 39-58 0-81l-254-146c-39-23-102-23-141 0l-437 251c-23 13-23 35 0 48Z"/><path fill-opacity=".1" d="M1327 1759c-71-33-121-59-179-114-59-54-25-126 117-234l-275 159c-23 13-23 35 0 49l312 180c26 13 57 13 84 0l146-84c-2 0-135 77-205 44Z"/><path fill="#FFF" fill-opacity=".3" d="m1822 1467-254-148c-26-15-62-19-95-14 20-1 40 3 58 12 33 14 128 71 235 130 108 59 65 81 36 98-30 17-369 228-415 255l435-252c39-23 39-59 0-81Z"/><path fill="#37474F" d="M956 2066v-58c0-7 5-10 11-7l98 58c5 3 8 9 9 15v58c0 7-6 10-12 6l-98-56c-5-4-8-10-8-16Z"/><path fill="#FFF" d="M974 1939v-8c0-9 6-13 14-8l90 52c8 6 13 15 14 25v7c0 9-7 12-15 8l-89-52c-9-5-14-15-14-24ZM1236 2045c-20 5-44 17-50 44-8 33 4 61 32 68 11 3 40-2 63-34 16-22 18-58 9-69-8-11-32-15-54-9Zm-394-115c-5 6-15 6-26-8v-44a306 306 0 0 1 10-65c12 10 20 25 22 41 2 26 0 68-6 76Z"/><path fill="#263238" d="M863 1751c21-40 47-77 77-110 14-13 35-15 50-4 102 72 211 135 325 187 15 7 22 26 15 41l-1 2c-19 41-34 85-44 130a27 27 0 0 1-38 20c-141-57-268-128-375-216a42 42 0 0 1-9-50Z"/><path fill="#FFF" d="m1257 2008-6-2c-145-58-270-130-372-214-9-9-12-24-7-36 21-39 47-75 76-108 5-5 12-7 18-7s12 1 17 5c102 72 211 135 325 188 5 3 9 6 10 11 2 6 2 12-1 17-19 42-34 87-44 132-2 8-8 14-16 14Z"/><path fill="#FFF" d="M1318 1845c-1-5-5-9-10-11-98-46-192-98-282-158l-156 90c-1 9 2 19 9 25a1392 1392 0 0 0 378 215c8 0 14-6 16-14 10-45 25-89 44-131 3-5 3-11 1-16Z"/><path fill="#00F" d="M807 1976c5 22 76 92 195 158 118 66 217 119 277 116s137-53 137-53-15 44-16 64c0 0-62 40-114 44-34 2-78 9-286-111-137-79-179-123-195-158-8-17-8-44-7-55 0-39 17-43 17-43-8 7-13 16-8 38Z"/><path fill="#0070C0" d="M816 1938c-7 7-12 16-8 38 5 22 76 92 194 158 119 66 218 120 278 117s136-54 136-54l-7-4s-77 49-129 49c-52-1-123-27-270-113s-187-138-194-156Z"/><path d="m2234 1349-31-21h-1l-11-7-1-1-7-3-15-8c-133-66-328-75-406-30l-24 14c34-3 68 2 100 15 56 20 203 109 247 156 44 48 47 80 47 93 57-26 120-51 161-104 25-32-20-75-59-104Z"/><path fill="#20C4FF" d="m2238 1466-1 5-3 5c-3 2-6 3-10 3-19 5-22 28-37 38l-32 23-23 15c0-12-3-45-48-92a982 982 0 0 0-248-157 254 254 0 0 0-100-14c10-8 21-16 33-23 10-6 16-15 28-18 5 0 9-2 13-3 7-3 10-10 16-16 7-6 16-10 26-11 14-2 28 1 42-1l42-4c18-1 36 1 53 4 8 1 15 3 22 7l22 11 21 2c19 1 38 9 53 21 8 8 17 15 26 21 13 7 27 10 40 16 16 8 31 18 46 28 27 17 43 35 51 52 6 13 8 29 5 44-3 14-18 12-27 21-5 7-9 15-10 23Z"/><path fill-opacity=".3" d="m2238 1466-1 5-3 5c-3 2-6 3-10 3-19 5-22 28-37 38l-32 23-23 15c0-12-3-45-48-92a982 982 0 0 0-248-157 254 254 0 0 0-100-14c10-8 21-16 33-23 10-6 16-15 28-18 5 0 9-2 13-3 7-3 10-10 16-16 7-6 16-10 26-11 14-2 28 1 42-1l42-4c18-1 36 1 53 4 8 1 15 3 22 7l22 11 21 2c19 1 38 9 53 21 8 8 17 15 26 21 13 7 27 10 40 16 16 8 31 18 46 28 27 17 43 35 51 52 6 13 8 29 5 44-3 14-18 12-27 21-5 7-9 15-10 23Z"/><path fill="#00F" d="m2238 1459-1 5-3 5c-3 2-6 3-10 3-20 5-22 28-37 39-11 7-21 16-31 25l-24 21c0-13-3-45-48-93a965 965 0 0 0-248-156 258 258 0 0 0-100-15c10-8 21-24 33-31 10-6 16-15 28-18 5 0 9-1 13-3 7-3 10-10 16-15 7-7 16-11 26-12 14-1 28 1 42-1l42-4c18-1 36 1 53 4 8 1 15 3 22 7l22 11 21 2c19 2 38 9 53 21 8 8 17 15 26 21 13 7 27 10 40 16 16 8 31 18 46 28 27 17 43 35 51 52 6 14 8 29 5 44-3 14-18 12-27 22-5 6-9 14-10 22Z"/><path fill="#002060" d="m2212 1453-16-14a1170 1170 0 0 0-122-76 2417 2417 0 0 0-187-94l-46-21c-3-1-3 2-1 3l36 19a4395 4395 0 0 0 112 55 1937 1937 0 0 1 182 105l19 12 22 14c2 0 2-2 1-3Zm2-59c-10-8-20-14-31-20l-30-18a2391 2391 0 0 0-260-128c84 43 169 85 251 131l34 19 35 19c2 1 2-2 1-3Z"/><path fill="#00F" d="m1427 1319-276 53 6 9 241-46 29-16Zm-271 63v93l-5 4v-107l5 10ZM1400 1336l-243 46v92l14-8v-40c0-18 13-35 32-38l167-35Z"/><path fill="#37474F" d="m1370 1353-199 114v-40c0-19 13-35 31-39Z"/><path fill="#FFC000" d="m3347 1362 109-63c4-3 10-3 14 0l109 63 3 5v8l-3 4-109 64c-4 2-10 2-14 0l-109-64-2-5v-8l2-4Z"/><path fill="#FFC000" d="m3470 1433 109-63a5 5 0 0 0 0-8l-109-64c-4-2-10-2-14 0l-108 64c-3 0-4 3-3 5 0 2 1 3 3 3l108 63c4 2 10 2 14 0Z"/><path fill="#FFC000" d="m3395 1352 48-162c1-3 3-5 6-7 8-4 19-4 27 0 3 2 5 4 6 7l48 162c5 14-2 30-19 41a98 98 0 0 1-98 0c-16-11-23-27-18-41Z"/><path fill="#FAFAFA" d="m3523 1326-23-75c-15 20-59 19-75 0l-22 75c8 10 19 18 31 23 18 7 38 7 56 0 13-5 24-13 33-23Z"/><path fill-opacity=".1" d="M3462 1178c5 0 10 1 14 3l5 7 49 164c5 14-2 29-19 41-15 8-32 13-49 13 22-4 37-28 34-52l-20-164Z"/><path fill="#FFC000" d="M3477 1199a10 10 0 0 0 0-18c-9-4-19-4-28 0a10 10 0 0 0 0 18c9 5 19 5 28 0Z"/><path fill="#FFF" d="M2550 1361c31-18 57 0 57 41 0 40-26 87-57 105s-56-1-56-41c0-41 25-88 56-105Z"/><path fill="#FFC000" d="m2558 1912 109-63c5-3 10-3 15 0l109 63 3 5v8l-3 4-109 64c-5 2-10 2-15 0l-109-64-2-5v-8l2-4Z"/><path fill="#FFC000" d="m2682 1983 109-63a4 4 0 0 0 0-8l-109-64c-5-2-10-2-15 0l-108 64c-3 0-4 3-3 5 0 2 1 3 3 3l108 63c5 2 10 2 15 0Z"/><path fill="#FFC000" d="m2607 1902 48-162c1-3 3-5 6-7 8-4 19-4 27 0 3 2 5 4 6 7l48 162c5 14-2 30-19 41a98 98 0 0 1-98 0c-16-11-23-27-18-41Z"/><path fill="#FAFAFA" d="m2735 1876-23-75c-15 20-59 19-75 0l-22 75c8 10 19 18 31 23 18 7 38 7 56 0 13-5 24-13 33-23Z"/><path fill-opacity=".1" d="M2674 1728c5 0 10 1 14 3l5 7 49 164c5 14-2 29-19 41-15 8-32 13-49 13 22-4 37-28 34-52l-20-164Z"/><path fill="#FFC000" d="M2688 1749a10 10 0 0 0 0-18c-8-4-19-4-27 0a10 10 0 0 0 0 18c8 5 19 5 27 0Z"/><path fill="#E0E0E0" d="M3119 2072c0 45-63 81-140 81-78 0-141-36-141-81 0-46 63-82 141-82 77 0 140 36 140 82ZM3360 1941c0 40-56 72-124 72-69 0-125-32-125-72s56-72 125-72c68 0 124 32 124 72Z"/><path fill="#FFA397" d="M2939 1575c-12-3-26 5-34 25s-25 70-28 83c-1 6 43 58 41 57l15-25-22-34 14-36Z"/><path fill="#263238" d="M2911 2038c-2 1-3 4-3 10 0 5-1 14 5 15 5 2 14 1 17-4l14-17c6-6 12-12 14-20s0-11-5-13c-7-3-18 6-24 8-4 1-17 20-18 21Z"/><path fill="#B16668" d="M2910 2033v7c6 4 14 4 20 1l2-11Z"/><path fill="#263238" d="m2969 2080-4 13c-1 5-2 13 0 16 1 4 8 6 18 6 6 0 17 4 24 8 6 4 14 5 22 3 9-1 18-6 20-10 1-3-1-5-22-14 0 0-22-10-32-21Z"/><path fill="#B16668" d="M2969 2072v9c0 3 4 8 14 8 7 0 12-2 12-8v-8Z"/><path fill="#BA68C8" d="M2903 1924c1-14 5-28 9-41l-7-68c-4-60 0-79 11-106 0 0 101-10 104 32 3 52-2 152-3 170s-3 27-10 65c-5 29-12 96-12 96-8 4-18 4-26-1 0 0-8-83-7-104 0-16 3-31 7-46l-8-98-4 45c-1 18-7 36-12 70-5 29-13 95-13 95-14 8-22-1-22-1s-11-83-7-108Z"/><path fill="#00F" d="M2903 1924c1-14 5-28 9-41l-7-68c-4-60 0-79 11-106 0 0 101-10 104 32 3 52-2 152-3 170s-3 27-10 65c-5 29-12 96-12 96-8 4-18 4-26-1 0 0-8-83-7-104 0-16 3-31 7-46l-8-98-4 45c-1 18-7 36-12 70-5 29-13 95-13 95-14 8-22-1-22-1s-11-83-7-108Z"/><path fill="#FFA397" d="m2990 1561-5 39-33-3 4-43 34 7Z"/><path fill="#EBEBEB" d="M2914 1594c4-10 17-21 30-19l9 2c1 9 18 14 34 8l14 5c12 4 17 24 17 57l4 116-14 4-7-24-2 29c-16 4-33 4-49 0-36-8-47-27-47-27 4-23 13-44 26-63-18-48-20-72-15-88Z"/><path fill="#263238" d="M3015 1512c5-9 4-20-2-29-11-17-33-21-59-14-19 6-32 23-33 43-1 19 52 33 51 46Z"/><path fill="#FFA397" d="M3017 1520s7 12 6 13l-6 2Z"/><path fill="#FFA397" d="M2995 1482c7 4 20 12 22 39 3 28-3 37-7 41-3 2-16 3-23 1-8-3-27-13-35-28-10-17-11-39 1-48s28-10 42-5Z"/><path fill="#263238" d="M2997 1484s6 25-2 41c0 0-5-10-13-7-9 2-8 14-2 20 4 3 9 5 13 3-2 7-7 14-12 19 0 0-26 12-48-13-20-23-16-62 15-71 30-10 49 8 49 8Z"/><path fill="#263238" d="M2925 1486c2 3 3 6 1 9l-10-8a6 6 0 0 1 9-1Z"/><path fill="#FFA397" d="M3087 1651c5-6 7-18 14-27 6-8 9-15 12-11 3 5-5 15-3 16s8 14 9 21c1 8-19 26-19 26Z"/><path fill="#FFA397" d="M3109 1628s23-2 27 0c3 2 2 12 0 18-3 6-15 11-26 18l-1-36ZM2999 1589c10 3 18 7 28 25l34 66 27-29s4-5 11 7c8 12 4 15 4 15s-31 42-37 48c-6 5-16 1-22-8l-45-57s-22-28 0-67Z"/><path fill-opacity=".2" d="m2961 1823-2-20c-11-2-21-6-30-12 0 0 6 10 24 15l2 26 1 42Z"/><path fill="#263238" d="M2890 1583c19 0 35-16 35-35v-54a27 27 0 0 0-35 26Z"/><path fill="#E0E0E0" d="M3019 1682s-20-25-26-35l27 56Z"/><path fill="#FFA8A7" d="M3191 1485c-7 20-23 82-23 82s-30 37-39 45l-15 11 9 6s14-4 15 3c16-11 30-24 43-37 4-3 6-7 7-12l13-52s0-42 7-47c7-6 4-18 4-18-4 0-15 3-21 19Z"/><path fill="#00B0F0" d="m3217 1460 9 16c3 5-22 95-24 102-1 6-50 45-50 45-8-3-15-9-19-17l35-41 16-61c6-20 12-42 33-44Z"/><path fill="#FFA8A7" d="M3284 1891h22v39h-22ZM3215 1900l-22 1-1-40 23-1v40Z"/><path d="m3304 1618 1 145c1 6 6 17 7 39 1 32-4 108-4 108-8 4-17 4-25 0 0 0-18-106-22-138-3-28-15-102-15-102l-18 94c3 11 4 23 3 35-1 15-15 89-15 89-7 4-17 5-25 2l-2-129 6-148Z"/><path fill="#263238" d="M3284 1918v-3c-1 0-2 1-2 4l-2 6-4 12c-3 8-6 10-13 20l-7 8c-1 2-2 9 1 10 8 6 21 6 30 3 7-2 13-7 14-14v-7c1-4 3-9 6-13l4-7c2-4 0-10-1-14l-3-8v2c-3 3-7 4-12 4-3 0-11 0-11-3ZM3192 1894l-4 5c-4 4-9 7-13 9-9 5-25 11-33 14-4 2-4 8 1 11s16 6 30 3c7-2 17-9 24-9 6 1 17 1 22-3 5-3 3-9 2-15-2-7-4-16-6-16v2c-2 4-16 6-22 3ZM3245 1671c-11-4-22-10-31-18 0 0 6 11 24 22l-9 83Z"/><path fill="#00B0F0" d="M3265 1454c7 2 23 4 26 20 4 18 6 58 6 58l1 88c-15 11-72 17-105-6l4-123c0-17 9-36 35-38Z"/><path fill="#FFA8A7" d="M3346 1571c-21-86-36-114-62-114-7 9-5 36 7 52 0 0 26 56 30 75 4 18 8 39 8 54 0 3-1 6-3 7-5 6-5 10-8 16-2 4-5 6-4 7 2 2 5 2 8 0l5-5c0 5-2 11-4 16-6 12-4 18 12 14 10-3 17-12 18-36l1-28c-3-23-4-44-8-58Z"/><path fill="#00B0F0" d="M3281 1457s17-1 26 9c9 9 22 28 34 71 12 42 15 73 16 97 0 0-15 7-29-1 0 0-6-37-12-56-5-20-26-62-26-62s-19-28-9-58Z"/><path fill-opacity=".1" d="m3274 1478-10 12 5 14-13 32 16-32-6-13 8-13ZM3205 1474l3 12-9 11 12 37-9-36 8-10-5-14Z"/><path fill="#263238" d="M3233 1350a31 31 0 1 1-10 61 31 31 0 0 1 10-61ZM3281 1403l-7 27c-1 2-3 4-6 5v-16ZM3275 1369c4 0 7 1 10 4 4 4 2 17-4 30l-9 1Z"/><path fill="#FFA8A7" d="M3269 1404c2 1 5-2 7-5a8 8 0 0 1 14 2c4 8-4 19-9 21-11 3-12-4-12-4l-1 39c-7 9-23 19-32 18-7-1-8-13-2-20v-12l-14 1c-7-1-12-7-14-15-4-13-5-24-2-50 3-28 36-28 54-17s11 42 11 42Z"/><path fill="#263238" d="m3269 1407 7-8c3-3-1-30-1-30 2-4 1-10-2-14-5-5-11-11-31-8-15 1-30 6-43 0-3 8 0 17 7 22 6 3 11 4 17 5 11 1 22 0 33-1 4 0 5 3 7 12 1 8 3 22 6 22Z"/><path fill="#263238" d="m3276 1371 11-6a6 6 0 0 0-9-3c-3 2-4 6-2 9Z"/><path fill="#F28F8F" d="m3235 1443 22-7 8-8c-1 3-2 7-4 9-5 6-26 10-26 10Z"/><path fill="#263238" d="M3239 1400c0 1 1 3 3 3s3-2 3-3c0-2-1-4-3-4s-3 2-3 4ZM3242 1387l8 4c1-2 0-5-2-6-2-2-5-1-6 1v1Z"/><path fill="#F28F8F" d="m3236 1423-8 3 5 2c2-1 4-3 3-5Z"/><path fill="#263238" d="m3209 1389 6-4a4 4 0 0 0-5-1c-2 1-3 3-1 5ZM3210 1399a4 4 0 1 0 7-1 4 4 0 0 0-7 1Z"/><path fill="#F28F8F" d="m3228 1395-1 21-11-4 12-17Z"/><path fill="#BA68C8" d="M3224 1472c2 5 6 7 13 8 7 0 14-2 19-7l-9-8-11 8v-9Z"/><path fill="#00B0F0" d="M3224 1472c2 5 6 7 13 8 7 0 14-2 19-7l-9-8-11 8v-9Z"/><path fill-opacity=".1" d="M3239 1488c-3 1-6 1-8-1v1c2 2 5 2 8 2Z"/><path fill="#00B0F0" d="m3236 1473 32-24v-7s7 3 9 16c-5 11-14 20-25 26l-7-12ZM3234 1445c-4 1-7 3-10 6-3 6-2 26-2 26l7-7 7 4-2-20Z"/><path fill="#FFA8A7" d="M3111 1664c3-4 5-9 5-14 1-6 19-13 19-8 1 4 3 8-3 14s-13 12-21 8ZM3112 1622c-4 6-7 16-9 20-2 3-5 6 0 7 5 0 12-9 15-15l4-5 3-2c-2-1-1-10-3-11 0 0-8 3-10 6Z"/></g></svg>