<svg xmlns="http://www.w3.org/2000/svg" overflow="hidden" viewBox="0 0 901 1157">
  <defs>
    <clipPath id="a">
      <path d="M1423 673h901v1157h-901z"/>
    </clipPath>
  </defs>
  <g fill-rule="evenodd" clip-path="url(#a)" transform="translate(-1423 -673)">
    <path fill="#FFB573" d="M1645 1797h26.57l5.43-62h-26.56l-5.44 62Z"/>
    <path fill="#7F7F7F" d="M1675.73 1794h-33.01c-1.12.02-2.1.76-2.39 1.82l-6.19 23.46c-.56 1.97.63 4.01 2.66 4.56.36.09.73.14 1.11.13 10.62-.17 18.41-.78 31.77-.78 8.23 0 32.98.81 44.36.81 11.39 0 13.22-10.93 8.62-11.95-20.77-4.42-36.17-10.56-42.64-16.43a6.362 6.362 0 0 0-4.29-1.62Z"/>
    <path fill-opacity=".2" d="M1649.88 1735H1677l-2.88 32H1647l2.88-32Z"/>
    <path fill="#002060" d="M1700.78 1178s17.18 208.76 12.37 287.56c-5.43 86.27-26.06 295.44-26.06 295.44h-49.22s4.3-194.79 1.79-278.62c-2.82-95.66-31.66-303.07-31.66-303.07Z"/>
    <path fill="#40B2FF" d="M1690.88 1762H1633l.62-17.83L1695 1743l-4.12 19Zm-6.48 36.98c1.83.13 3.65-.36 5.18-1.4a3.893 3.893 0 0 0 1.39-3.48 1.9 1.9 0 0 0-.98-1.82c-2.93-1.56-11.69 3.84-12.68 4.47-.22.13-.34.4-.3.66.03.25.2.45.44.52 2.27.62 4.6.97 6.95 1.05Zm4.15-5.65c.29 0 .56.06.82.17 0 0 .34.25.34.77.08.89-.26 1.76-.92 2.34a12.582 12.582 0 0 1-9.47.49c2.82-1.84 5.95-3.12 9.23-3.77Z"/>
    <path fill="#40B2FF" d="M1677.6 1797.96c.1.03.21.03.31 0 2.89-1.51 8.52-7.36 8.06-10.26-.15-.96-.99-1.67-1.98-1.68-1-.1-2 .19-2.78.82-3.23 2.53-4.17 10.26-4.2 10.57-.04.22.05.45.24.58.12.02.24.01.35-.03Zm5.91-10.85h.28c.83 0 .9.48.9.65.28 1.75-3.48 6.2-6.22 8.28.3-3.06 1.51-5.98 3.47-8.38.42-.4.98-.65 1.57-.68Z"/>
    <path fill="#FFB573" d="m1443 1749.43 24.88 8.57 28.12-56.43-24.88-8.57-28.12 56.43Z"/>
    <path fill="#7F7F7F" d="m1471.86 1759.19-26.02-18.77c-.9-.63-2.11-.54-2.91.2l-18.56 16.47a3.955 3.955 0 0 0-.42 5.57c.2.22.42.43.66.61 8.48 5.87 14.97 9.78 25.5 17.39 6.5 4.67 25.54 19.49 34.5 25.94 8.95 6.45 16.85-1.78 13.67-5.28-13.67-15.54-22.36-29.61-23.93-38.26a6.117 6.117 0 0 0-2.49-3.87Z"/>
    <path fill="#FFB573" d="m1663 951.992 6.57-1.446 6.91-1.618c4.59-1.136 9.19-2.376 13.82-3.684 9.13-2.651 18.11-5.578 26.78-8.918a203.795 203.795 0 0 0 24.82-11.327c7.41-3.964 14.3-8.821 20.52-14.461l2.08-1.997c.55-.654 1.1-1.205 1.69-1.893 1.18-1.447 2.42-3.031 3.63-4.821 2.49-3.443 4.98-7.368 7.33-11.431 4.66-8.16 9.29-16.767 13.82-25.581 8.78-17.56 17.28-35.808 25.71-53.815l19.32 6.197a499.463 499.463 0 0 1-16.62 59.427c-3.46 9.778-6.91 19.591-11.54 29.404-2.25 4.889-4.67 9.812-7.57 14.873a104.62 104.62 0 0 1-4.91 7.679c-.9 1.308-2.04 2.685-3.04 3.993l-3.08 3.443a123.936 123.936 0 0 1-13.16 12.395 166.918 166.918 0 0 1-14.17 9.985 206.541 206.541 0 0 1-29.62 15.253 269.773 269.773 0 0 1-30.52 10.845 295.146 295.146 0 0 1-15.55 4.132c-2.59.654-5.21 1.274-7.88 1.825-2.66.551-5.15.998-8.29 1.549Z"/>
    <path fill="#00B0F0" d="M1650.29 998.315c20.64 14.485 95.71-9.248 95.71-9.248L1735.68 923s-30.71 7.227-62.93 16.645c-21.91 6.302-45.12 42.915-22.46 58.67Z"/>
    <path fill="#FFB573" d="m1813 821.751 5.1-28.751 25.9 16.763c-2.06 8.177-7.35 15.135-14.64 19.237Z"/>
    <path fill="#FFB573" d="M1825.21 777.185 1845 770l-1.39 40-25.61-16.615 7.21-16.2Z"/>
    <path fill-opacity=".2" d="m1470.75 1693 25.25 8.68-14.71 29.32-25.29-8.65 14.75-29.35Z"/>
    <path fill="#00B0F0" d="M1554 945.878a597.515 597.515 0 0 1 8.81 89.532c.59 21 .28 40.94-.48 59.05-1.69 42.36-5.61 74.52-5.37 85.54l143.97-1.79c33.73-151.79 3.89-232.711 3.89-232.711a273.567 273.567 0 0 0-33.87-6.232c-2.41-.276-4.85-.517-7.36-.724a532.494 532.494 0 0 0-61.23.758c-3.86.241-7.78.585-11.6.964-19.55 1.894-36.76 5.613-36.76 5.613Z"/>
    <path fill="#00B0F0" d="M1601.62 939.293a537.2 537.2 0 0 1 61.33-.753c2.48.205 4.96.445 7.37.719h.86c3.45 9.171 3.9 28.95-16.34 30.558-27.57 2.19-53.22-15.707-64.84-29.635 3.93-.308 7.89-.65 11.62-.889Z"/>
    <path fill-opacity=".2" d="M1586 987.034c-1.88 22.136-10.08 43.286-23.64 60.966 0-4.09 0-8.24-.21-12.43-.45-15.73-1.42-32.05-3.15-48.57Z"/>
    <path fill="#FFB573" d="M1609.72 871c3.45 19.62 6.41 55.596-7.72 68.722 12.13 12.684 29.3 19.331 46.84 18.142 16.99-.55 18.09-12.404 14.48-18.898-21.89-4.948-20.93-21.235-16.72-36.56Z"/>
    <path fill-opacity=".2" d="m1624.88 883 21.12 18.964a68.72 68.72 0 0 0-2.07 11.036c-8.1-1.117-19.08-10.302-19.75-19.208-.39-3.612-.15-7.269.7-10.792Z"/>
    <path fill="#263238" d="M1684.01 815.71c16.47-8.244 8.92-33.528 8.92-33.528s-8.71-.207-18.21 10.348c4.3-13.038-2.93-34.286-5.34-42.53-33.03 14.349-35.24 28.216-35.24 28.216s-6.88-10.348-13.36-10.935c-10.51 6.476-15.53 19.104-12.33 31.044a42.202 42.202 0 0 0-17.8-5.588 34.352 34.352 0 0 0 1.13 23.904 20.2 20.2 0 0 0-8.78 8.934c3.01 1.916 6.22 3.5 9.57 4.725-.51 10.348 1.69 24.629 9.13 32.7l75.77-35.459c12.81 5.553 18.53 1.552 18.53 1.552s-2.96-10.9-11.99-13.383Z"/>
    <path fill="#FFB573" d="M1608.03 841.443c.99 26.5.24 42.113 13.35 55.569 19.74 20.201 52.82 7.67 59.79-18.9 6.28-23.967 3.43-63.204-22.21-73.442-25.63-10.237-51.96 10.443-50.93 36.773Z"/>
    <path fill="#263238" d="M1632.89 810.905c1.75 14.032-17.53 24.4-13.05 45.135a59.951 59.951 0 0 1-12.02 12.96l-7.82-21.116 3.89-38.707 26.09-2.177Z"/>
    <path fill="#263238" d="M1615 809.73c20.04 13.377 53.65 11.006 63 7.68-4.67-17.305-23.47-22.224-23.47-22.224s-31.52-2.937-39.53 14.544Zm41.3 68.253c-6.37.27-12.46-2.69-16.22-7.886a.772.772 0 0 1 .25-.982.66.66 0 0 1 .92.177c0 .011.01.022.02.033a18.075 18.075 0 0 0 15.07 7.256c.36 0 .66.298.66.665v.036c0 .387-.31.701-.7.701Z"/>
    <path fill="#FFB573" d="M1595.01 870.871c3.53 5.579 9.28 9.51 15.9 10.869 8.83 1.8 12.98-6.046 10.27-13.858-2.46-7.03-9.99-16.405-18.74-14.673-6.44 1.328-10.55 7.446-9.17 13.665.31 1.427.9 2.784 1.74 3.997Z"/>
    <path fill-opacity=".2" d="m1630.97 1243-11.97 23.15c5.5 43.75 11.8 97.42 16 144.85 9.55-47.71 15.75-139.31-4.03-168Z"/>
    <path fill="#002060" d="M1655 1179s-33.51 190.5-48.47 268.27c-16.4 85.15-111.37 281.73-111.37 281.73l-46.16-15.8s76.28-195.79 84.56-279.81c9.41-95.52 22.99-253.22 22.99-253.22Z"/>
    <path fill="#40B2FF" d="m1499.21 1732-54.21-19.13 6.15-16.87 57.85 19.2-9.79 16.8Z"/>
    <path fill="#263238" d="M1648 848.035c0 2.211 1.04 4 2.42 3.965 1.37-.035 2.55-1.825 2.58-4.035.03-2.21-1.01-4-2.42-3.965-1.41.036-2.55 1.825-2.58 4.035Zm25 0c0 2.21 1.03 4 2.4 3.965 1.36-.035 2.53-1.825 2.6-4.035.06-2.211-1.04-3.965-2.43-3.965-1.4 0-2.5 1.859-2.57 4.035Z"/>
    <path fill="#FFA553" d="M1664.78 849a76.184 76.184 0 0 0 10.22 18.808c-4.04 3.72-11 1.579-11 1.579Z"/>
    <path fill="#40B2FF" d="M1476.34 1768.35c1.42 1.05 3.21 1.63 5.07 1.65 1.33-.1 2.51-.78 3.17-1.8.47-.55.55-1.29.21-1.9-1.48-2.68-11.87-3.11-13.03-3.3a.71.71 0 0 0-.64.34.46.46 0 0 0 0 .62 28.72 28.72 0 0 0 5.22 4.39Zm6.69-2.05c.25.12.45.31.6.53.15.24.15.53 0 .77-.44.71-1.25 1.17-2.15 1.25-1.94.15-4.93-1.53-8.1-4.57 3.33.1 6.61.78 9.65 2.02Z"/>
    <path fill="#40B2FF" d="M1471.19 1763.95c.09.03.19.03.28 0 3.12.39 10.99-1.45 12.33-4.37.42-.91.16-2.02-.62-2.63a3.308 3.308 0 0 0-2.64-.93c-4.02.32-9.21 6.59-9.45 6.84-.12.22-.12.48 0 .69-.02.14.02.28.1.4Zm10.89-6.1h.21c.62.62.44.98.38 1.12-.79 1.73-6.22 3.61-9.69 3.61 1.98-2.51 4.62-4.37 7.59-5.34.56-.01 1.1.21 1.51.61Z"/>
    <path fill="#FFB573" d="m1579 987.182-8.44 10.323c-2.84 3.445-5.65 7.055-8.43 10.665a740.05 740.05 0 0 0-16.25 21.75c-5.18 7.36-10.29 14.79-14.89 22.29-4.59 7.5-9.01 15.14-12.61 22.78l-.72 1.45-.28.65c-.26.52-.46 1.06-.62 1.62-.46 1.56-.83 3.14-1.09 4.75-.67 3.95-1.08 7.93-1.24 11.94-.34 8.49-.24 17.54.24 26.63.89 18.16 2.54 36.95 4.36 55.39l-19.62 4.58a393.95 393.95 0 0 1-15.26-56.29c-1.9-9.88-3.2-19.87-3.91-29.9-.32-5.46-.32-10.93 0-16.38.25-3.1.67-6.17 1.27-9.22.42-1.69.72-3.27 1.38-5.2l.89-2.68.72-1.79a286.13 286.13 0 0 1 28.05-53.5c5.41-8.262 11.11-16.245 17.14-24.09 2.98-3.888 6.04-7.707 9.16-11.526 3.12-3.82 6.2-7.433 9.77-11.424Z"/>
    <path fill="#00B0F0" d="M1553.3 946.551c-25.57 3.637-53.3 63.749-53.3 63.749l48.39 45.7s20.07-30.23 36.6-59.562c17.97-31.943-.76-54.279-31.69-49.887Z"/>
    <path fill="#FFB573" d="m1516.62 1172 16.38 21.01-34.06 7.99s-9.74-21.01 1.4-27.65Z"/>
    <path fill="#FFB573" d="m1532.44 1215.55-28.37 5.45-5.07-19.82 34-8.18-.56 22.55Z"/>
    <path fill="#FFC997" d="m2305 1738.19-25.56 10.81-35.44-54.16 25.53-10.84 35.47 54.19Z"/>
    <path fill-opacity=".2" d="m2269.65 1684-25.65 10.91 18.35 28.09 25.65-10.88-18.35-28.12Z"/>
    <path d="M2072 1189.88s44.77 225.08 67.18 302.67c24.55 85.27 109.3 229.45 109.3 229.45l46.52-19.95s-51.65-116.25-72.31-200.18c-23.38-95.55-55.72-319.87-55.72-319.87Z"/>
    <path fill-opacity=".2" d="M2108.63 1255c5.67 62.54 7.03 106.59 9.37 155-11.61-51.37-24-110.92-33-155Z"/>
    <path fill="#FFC997" d="m2120 1801-27.66-.41L2086 1737l27.63.41L2120 1801Z"/>
    <path fill-opacity=".2" d="m2086 1737 3.28 32.56 27.72.44-3.28-32.56-27.72-.44Z"/>
    <path d="m2078.42 1763.28 46.58.72s-18.37-181.33-24.41-267c-1.85-26.07-.99-62.91 1.2-102.57 2.75-49.99 4.56-70.01 8.33-133.19 2.68-45.05 5.93-74.24 5.93-74.24l-96.42 7.93s-3.77 218.76 7.16 302.17c11.45 86.6 51.63 266.18 51.63 266.18Z"/>
    <path fill="#FFC000" d="m2092.21 1798 30.27.48c1.13 0 2.1.8 2.32 1.9l5.1 24.74a4.01 4.01 0 0 1-3.04 4.79c-.34.07-.68.1-1.03.09-10.91-.35-26.68-1.25-40.39-1.45-16.05-.25-17.88.41-36.7 0-11.35-.18-14.32-11.72-9.56-12.69 21.75-4.42 27.41-4.66 46.33-15.92 2.02-1.25 4.33-1.92 6.7-1.94Z"/>
    <path fill="#40B2FF" d="m2072.64 1764.14 56.05.86.31-18.07-60-1.93 3.64 19.14Z"/>
    <path fill-opacity=".302" d="m2072.64 1764.14 56.05.86.31-18.07-60-1.93 3.64 19.14Z"/>
    <path fill="#40B2FF" d="M2089.55 1801.15c.22-.11.39-.31.45-.55a.64.64 0 0 0-.35-.64c-1.22-.68-12.15-6.39-15.53-4.62-.64.35-1.05 1-1.09 1.73-.15 1.18.29 2.35 1.16 3.16 2.97 2.68 10.86 1.73 15.26.92Zm-14.58-4.76c2.09-.68 8.03 1.67 12.33 3.81-6.04.91-10.55.57-12.22-.92a2.46 2.46 0 0 1-.76-2.11c0-.28.16-.55.41-.68Z"/>
    <path fill="#40B2FF" d="M2089.56 1801.92h.17c.18-.15.28-.37.27-.61 0-.32-.64-8.05-4.03-11.07a4.458 4.458 0 0 0-3.52-1.22c-1.75 0-2.28 1.07-2.42 1.86-.54 3.2 5.84 9.5 9.06 11.11.16.03.33 0 .47-.07Zm-7.65-11.54h.64c.95-.1 1.88.24 2.58.92 1.97 2.51 3.14 5.62 3.36 8.87-3.36-2.17-7.59-7.12-7.25-9.04.07-.11.13-.57.67-.75Zm.61-.79Z"/>
    <path fill="#FFC000" d="m2273.54 1747.5 29.07-17.16c.98-.58 2.23-.41 3.01.42l17.29 18.25a4.04 4.04 0 0 1-.97 6.28c-9.44 5.36-16.6 8.86-28.35 15.83-7.26 4.29-24 14.99-33.99 20.9-9.99 5.9-17.01-2.92-13.83-6.42 15.08-15.79 21.85-25.6 24.59-34.32a6.636 6.636 0 0 1 3.18-3.78Z"/>
    <path fill="#FFC997" d="m1866.59 826.994 5.41-23.8-28.74-8.194s-8.74 23.018 8.15 34Zm1.7-47.214L1845.76 768l-2.76 26.795 29 8.205-3.71-23.22Z"/>
    <path fill="#FFC997" d="M1991.28 995.001c-9.65-2.845-18.39-5.987-27.45-9.427-9.05-3.439-17.82-7.176-26.63-11.277-8.8-4.102-17.51-8.401-26.16-13.23-4.32-2.315-8.61-4.961-12.91-7.541l-6.26-4.134-1.6-1.025-2.38-1.653a70.432 70.432 0 0 1-4.42-3.572 70.27 70.27 0 0 1-12.69-15.479 115.865 115.865 0 0 1-8.02-15.61 188.284 188.284 0 0 1-9.65-30.758 292.694 292.694 0 0 1-7.11-60.988l23.09-3.307a545.748 545.748 0 0 0 17.26 52.917 177.39 177.39 0 0 0 11.03 23.35 73.933 73.933 0 0 0 6.27 9.36 31.662 31.662 0 0 0 6.04 5.854c.38.264.76.507 1.16.727.2.052.4.142.57.265l1.44.694 5.7 2.911c3.95 1.852 7.83 3.737 11.84 5.523 7.99 3.605 16.2 6.946 24.47 10.253 8.27 3.307 16.64 6.615 25.07 9.525l25.06 9.029ZM2096 870c-1.99 20.437-2.34 57.601 13 69.623-9.85 11.918-22.85 25.829-46.6 28.989-23.74 3.16-21.17-13.739-15.71-22.91 21.85-7.522 19.66-24.043 14.24-39.293Z"/>
    <path fill="#263238" d="M2033.97 850.239c-.22 2.218-1.48 3.89-2.84 3.753-1.36-.136-2.3-2.047-2.1-4.265.19-2.218 1.48-3.856 2.84-3.719 1.36.136 2.3 2.047 2.1 4.231Z"/>
    <path fill="#ED847E" d="M2037 850a78.72 78.72 0 0 1-12 17.844c2.72 2.469 6.36 3.572 9.94 3.014Z"/>
    <path fill="#FFC997" d="M2109.2 851.836c-5.27 26.723-7.01 42.614-22.39 54.677-23.17 18.043-54.62 1.23-57.41-26.518-2.51-24.981 6.5-64.451 34.2-71.764 19.76-5.218 39.99 6.636 45.18 26.476a37.277 37.277 0 0 1 .42 17.129Z"/>
    <path fill="#263238" d="M2055.1 859.237c-7.69-8.94-4.82-28.2 0-37.416-5.68 3.659-25 2.347-25.1-12.943-.17-22.402 37.14-27.613 57.58-23.679 23.56 4.694 44.7 26.992 52.84 19.295 8.37 14.911-6.3 20.123-6.3 20.123s14.57 37.105-38.74 73.451a60.2 60.2 0 0 0-21.95.932 6.279 6.279 0 0 1-4.41-1.829c-5.41-5.454-20.18-22.298-13.92-37.934Z"/>
    <path fill="#263238" d="M2132 823.557s10.45 2.225 14-4.557c-1.03 9.689-6.89 9.761-14 4.557Z"/>
    <path fill="#FFC997" d="M2073.24 867.61c-3.43 5.871-9.12 10.181-15.82 11.983-8.89 2.288-13.26-5.454-10.69-13.464 2.29-7.305 9.71-17.268 18.6-16.022 8.88 1.245 11.97 10.299 7.91 17.503ZM2177.63 963c3.98 3.786 7.22 7.194 10.64 10.843 3.42 3.649 6.66 7.263 9.81 11.016 6.38 7.401 12.46 15.077 18.4 22.861 5.94 7.78 11.6 15.76 16.95 24.09l4.53 6.58c1.69 2.48 3.07 5.02 4.52 7.54a121.59 121.59 0 0 1 7.08 15.49c3.83 10.02 6.64 20.4 8.39 30.98 1.74 10.15 2.72 20.41 2.93 30.7.31 10.04.01 20.09-.89 30.09-.83 10.02-2.31 19.98-4.42 29.81l-25.52-2.79c-.45-8.57-1.11-17.93-2.11-26.81-1-8.89-2.31-17.84-3.93-26.51a181.642 181.642 0 0 0-15.23-47.99 97.823 97.823 0 0 0-5.77-9.77c-1.07-1.48-2.07-3.03-3.17-4.37-.63-.73-1-1.28-1.76-2.14l-2.25-2.62c-6.08-6.88-12.08-13.76-18.26-20.65-6.18-6.88-12.3-13.77-18.44-20.34L2141 999.213Z"/>
    <path fill="#0070C0" d="M2110.23 984.952c-4.39 19.868 56.55 56.048 56.55 56.048l48.22-41.186a360.01 360.01 0 0 0-41.15-49.047c-25.01-24.918-56.49 1.991-63.62 34.185Z"/>
    <path fill-opacity=".2" d="M2152.32 1005.16c-8.87-4.85-10.23 6.22-8.87 20.3 12.37 9.04 23.3 15.54 23.3 15.54l6.25-5.34c-4.92-12.89-11.77-25.64-20.68-30.5Z"/>
    <path fill="#FFC997" d="m2229.69 1175.17-12.69 17.12 30.49 12.71s7.96-13.86 6.28-24.25c-.79-4.05-3.87-7.24-7.86-8.14l-5.55-1.32c-4.01-.98-8.2.55-10.67 3.88Z"/>
    <path fill="#FFC997" d="m2211 1219.54 28.25 6.46 7.75-21.25-29.97-12.75-6.03 27.54Z"/>
    <path fill="#0070C0" d="M2163.07 954.757c-12.48 105.743 21.11 236.263 21.93 258.003-21.52 1.79-127.89 11.63-172.06 15.24-25.63-188.27-2.02-277.577-2.02-277.577s9.15-2.959 21.73-5.814c3.94-.894 8.22-1.755 12.67-2.545 2.44-.448 4.97-.826 7.51-1.205a549.617 549.617 0 0 1 62.47-2.821c3.94 0 7.98 0 11.89.31s7.16.413 10.52.654c5.17.412 9.97.894 14.05 1.341 7.05.801 12.12 7.188 11.33 14.268-.01.049-.02.097-.02.146Z"/>
    <path fill-opacity=".2" d="M2003.28 1001c-.52 5.52-.93 11.53-1.28 18 9.82-.98 21.75-3.52 26.8-9.28 6.15-7.31-12.66-8.61-25.52-8.72Z"/>
    <path fill="#0070C0" d="M2039.81 1011.29c-23.43 11.8-67.81-8.32-67.81-8.32l.72-69.97s47.92 7.839 81.86 7.493c34.79-.347 10.92 57.827-14.77 70.797Z"/>
    <path fill="#40B2FF" d="m2243.36 1725 54.64-23.56-7.01-16.44-61.99 20.52 14.36 19.48Z"/>
    <path fill-opacity=".302" d="m2243.36 1725 54.64-23.56-7.01-16.44-61.99 20.52 14.36 19.48Z"/>
    <path fill="#40B2FF" d="M2268.37 1756.5c2-1.26 3.86-2.75 5.53-4.43.13-.2.13-.46 0-.67a.582.582 0 0 0-.57-.4c-1.16 0-11.27-.17-13.03 2.65-.4.65-.4 1.47 0 2.11.52 1.17 1.58 2 2.83 2.22 1.87.14 3.72-.38 5.24-1.48Zm3.5-4.26c-3.34 3.15-6.67 4.8-8.41 4.49-.86-.15-1.58-.73-1.93-1.54a.755.755 0 0 1 0-.84c.87-1.44 6.27-2.01 10.34-2.07Z"/>
    <path fill="#40B2FF" d="M2273.63 1751.9c.11-.07.21-.16.28-.26.12-.19.12-.42 0-.61-.21-.26-4.9-6.48-9.03-6.97-1.01-.18-2.05.05-2.85.65-.87.5-1.25 1.5-.9 2.4 1.08 2.78 9 4.98 12.26 4.89Zm-10.63-6.48c.5-.25 1.08-.34 1.64-.26 2.64.39 5.8 3.7 7.29 5.44-3.47-.38-9-2.39-9.66-4.01 0-.16-.17-.52.49-1.01Z"/>
    <path fill="#40B2FF" fill-opacity=".902" d="M1843 673h4v20h-4Zm0 29h4v50h-4Zm24.67 69.088 21.08-21.063 2.85 2.845-21.09 21.063ZM1894 795h31v4h-31Zm-104.83-50.814 2.84-2.844 29.83 29.825-2.85 2.843ZM1782 795h14v4h-14Z"/>
    <path fill="#FFF" d="M1681.08 1021.72c.64 1.29.12 2.86-1.17 3.5a2.61 2.61 0 0 1-3.5-1.16l-5.04-10.1a2.604 2.604 0 0 1 1.16-3.5c1.29-.64 2.86-.12 3.5 1.17Zm-55.58-6.72a2.5 2.5 0 0 1 0 5h-7a2.5 2.5 0 0 1 0-5Z"/>
    <path fill="#FFF" d="M1614 1012.5a2.5 2.5 0 0 1 5 0v11a2.5 2.5 0 0 1-5 0Zm10 0a2.5 2.5 0 0 1 5 0v11a2.5 2.5 0 0 1-5 0Zm9 5.5c0-4.42 3.58-8 8-8s8 3.58 8 8-3.58 8-8 8-8-3.58-8-8Zm4.97 0c0 1.67 1.36 3.03 3.03 3.03 1.67 0 3.03-1.36 3.03-3.03 0-1.67-1.36-3.03-3.03-3.03-1.67 0-3.03 1.36-3.03 3.03Zm32.51 6.06a2.614 2.614 0 0 1-3.51 1.14 2.61 2.61 0 0 1-1.15-3.5l5.11-10.07a2.61 2.61 0 0 1 3.5-1.15 2.62 2.62 0 0 1 1.15 3.51Zm-20.06-10.1a2.617 2.617 0 0 1 1.17-3.5c1.29-.64 2.86-.12 3.5 1.17l5.05 10.09c.64 1.29.12 2.86-1.17 3.5a2.61 2.61 0 0 1-3.5-1.16Z"/>
    <path fill="#FFF" d="M1661.03 1011.63a2.61 2.61 0 0 1 3.5-1.15 2.62 2.62 0 0 1 1.15 3.51l-5.1 10.07a2.614 2.614 0 0 1-3.51 1.14 2.597 2.597 0 0 1-1.14-3.5Z"/>
  </g>
</svg>
