<svg xmlns="http://www.w3.org/2000/svg" overflow="hidden" viewBox="0 0 2254 1409">
  <defs>
    <clipPath id="a">
      <path d="M5 27h2254v1409H5z"/>
    </clipPath>
  </defs>
  <g stroke="#00B0F0" stroke-width="51.563" clip-path="url(#a)" transform="translate(-5 -27)">
    <path fill="none" stroke-linecap="round" stroke-linejoin="round" stroke-miterlimit="10" d="M2148 413c-94.78 61.715-189.55 123.429-273.39 156.925-83.84 33.496-111.63 33.037-229.65 44.049-118.01 11.012-330.8 33.037-478.43 22.025-147.63-11.013-302.095-55.062-407.35-88.099C653.924 514.864 594.462 476.321 535 437.777"/>
    <path fill="none" stroke-linecap="round" stroke-linejoin="round" stroke-miterlimit="10" d="M1987 511.506c-61.89-94.611-123.77-189.222-258.55-233.664-134.78-44.442-381.87-74.681-550.11-32.988S864.55 407.274 719 528"/>
    <path fill="#00B0F0" fill-rule="evenodd" stroke-linecap="round" stroke-linejoin="round" stroke-miterlimit="10" d="M1314 856c0-16.016 29.55-29 66-29s66 12.984 66 29-29.55 29-66 29-66-12.984-66-29Z"/>
    <path fill="none" stroke-linecap="round" stroke-linejoin="round" stroke-miterlimit="10" d="M2079.85 1150c50.14-25.13 118.53-68.54 140.59-154.255 22.05-85.717 12.37-249.191-8.25-360.044-20.63-110.853-43.54-213.461-115.49-305.075-71.96-91.614-155.37-201.551-316.23-244.61-160.86-43.059-481.66-43.059-659.94-5.497-178.278 37.562-271.312 142.002-409.717 230.868-138.405 88.866-314.391 217.125-420.715 302.327-106.325 85.201-176.902 131.466-217.232 208.88C32.536 900.008 15.58 1024.6 48.118 1078.2c32.54 53.59 164.937 54.4 219.982 65.96 55.045 11.56 38.055-.66 110.286 3.39"/>
    <path fill="none" stroke-linecap="round" stroke-linejoin="round" stroke-miterlimit="10" d="M249.151 655c37.743 23.551 75.487 47.103 84.922 82.652 9.436 35.55 2.574 94.651-28.307 130.645-30.881 35.993-114.516 71.543-156.977 85.318-42.461 13.776-70.125 5.555-97.79-2.666M1512 1137c0-150.774 122.23-273 273-273 150.77 0 273 122.226 273 273 0 150.77-122.23 273-273 273-150.77 0-273-122.23-273-273Zm-1123-3c0-150.774 122.226-273 273-273s273 122.226 273 273c0 150.77-122.226 273-273 273s-273-122.23-273-273Z"/>
    <path fill="#00B0F0" fill-rule="evenodd" stroke-linecap="round" stroke-linejoin="round" stroke-miterlimit="10" d="M1724 1147c0-35.9 29.1-65 65-65s65 29.1 65 65-29.1 65-65 65-65-29.1-65-65Zm-1131 0c0-35.9 29.101-65 65-65 35.898 0 65 29.1 65 65s-29.102 65-65 65c-35.899 0-65-29.1-65-65Z"/>
    <path fill="none" stroke-linecap="round" stroke-linejoin="round" stroke-miterlimit="10" d="M1574 622c11.24 128 22.48 231.914 16.19 320"/>
    <path fill="none" stroke-miterlimit="8" d="m935 1146 577.13 2.66"/>
  </g>
</svg>
