<svg xmlns="http://www.w3.org/2000/svg" overflow="hidden" viewBox="0 0 96 96">
  <defs>
    <clipPath id="a">
      <path d="M881 138h96v96h-96z"/>
    </clipPath>
  </defs>
  <g fill="#0070C0" clip-path="url(#a)" transform="translate(-881 -138)">
    <path d="M950.025 182.015v-11.984c0-11.612-9.414-21.026-21.026-21.026s-21.026 9.414-21.026 21.026v11.983l-6.976.5v38.009l28 2 28-2v-38.011Zm-40.052-11.984c0-10.508 8.518-19.026 19.026-19.026s19.026 8.518 19.026 19.026v11.85l-3.025-.202v-11.673c0-8.837-7.163-16-16-16s-16 7.163-16 16v11.673l-3.025.2ZM943 181.539l-14-1.027-14 1.027v-11.533c0-7.732 6.268-14 14-14s14 6.268 14 14Zm12 37.122-26 1.858-26-1.858v-34.286l5.134-.367 6.013-.4L929 182.517l14.867 1.091 5.991.4 5.142.367Z"/>
    <path d="M929 193.516a7.03 7.03 0 0 0-3 13.374v5.631h6v-5.655a7.2 7.2 0 0 0 4-6.348 7.009 7.009 0 0 0-7-7.002Zm1.635 11.772-.635.249v4.984h-2v-5.013l-.672-.233a5.02 5.02 0 1 1 6.672-4.757 5.216 5.216 0 0 1-3.366 4.77Z"/>
  </g>
</svg>
