<svg xmlns="http://www.w3.org/2000/svg" overflow="hidden" viewBox="0 0 317 117">
  <defs>
    <clipPath id="a">
      <path d="M3942 1911h317v117h-317z"/>
    </clipPath>
  </defs>
  <g fill-rule="evenodd" clip-path="url(#a)" transform="translate(-3942 -1911)">
    <path fill="#0070C0" d="M4009.5 1977c-14.08 0-25.5 11.42-25.5 25.5s11.42 25.5 25.5 25.5 25.5-11.42 25.5-25.5c-.01-14.08-11.42-25.49-25.5-25.5Zm0 44.2c-10.33 0-18.7-8.37-18.7-18.7s8.37-18.7 18.7-18.7 18.7 8.37 18.7 18.7c-.01 10.32-8.38 18.69-18.7 18.7Z"/>
    <path fill="#00B0F0" d="M4042.39 2005c-.21 2.38-.68 4.73-1.39 7h123c-.71-2.28-1.17-4.62-1.39-7Z"/>
    <path fill="#00B0F0" d="M4254.56 1980.47a42.226 42.226 0 0 1-4.35-3.78c-5.07-5.77-13.26-14.87-22.21-19.13-23.98-11.44-62-14.36-62-14.36l-17.64-2.21a452.548 452.548 0 0 0-56.76-29.74c-1.77-.71-3.77.15-4.48 1.91-.68 1.68.08 3.6 1.72 4.38 14.52 6.35 28.7 13.46 42.46 21.3l-3.19-.4h-7.04c-3.72 0-6.74 3.01-6.74 6.73h-39.83c-.8 0-1.61-.08-2.39-.23l-2.56-.5-13.78-2.66v-10.21a3.44 3.44 0 0 0-3.45-3.43c-1.9 0-3.44 1.54-3.44 3.43v8.87l-26.71-4.72c-4.12-.69-8.33-.59-12.4.31-3.54.79-7.16 1.82-9.13 2.4-12.37 3.75-43.5 14.55-52.41 20.62-6.73 4.57-2.81 31.44-2.81 31.44l-3.32 4.17-.1 2.77c-.13 3.89 2.5 7.35 6.3 8.28l3.65.9c5.63 1.1 11.35 1.75 17.09 1.93l8.26.46c-.5-2.27-.76-4.6-.77-6.93l-7.28-.41c-5.31-.16-10.59-.75-15.8-1.76l-3.5-.87c-.63-.16-1.06-.73-1.04-1.37l.02-.5 1.9-2.41 1.85-2.32-.42-2.94c-1.52-10.43-1.4-22.13.23-25.01 8.2-5.3 36.83-15.46 50.14-19.47 2.21-.65 5.51-1.58 8.64-2.28a25.8 25.8 0 0 1 9.79-.24l47.19 8.69 2.56.5c1.23.23 2.48.34 3.73.34h46.68v-6.7h6.45l37.47 4.7.16.02h.17c.36.03 37 2.94 59.56 13.71 8 3.81 16.11 13.03 20 17.46l.15.17.16.16c1.56 1.56 3.23 3.01 4.99 4.34 1.12.86 1.78 2.19 1.78 3.59v11.4h-24.17c0 .37.06.74.06 1.12-.01 1.93-.19 3.85-.54 5.75H4259v-18.25c-.01-3.53-1.65-6.85-4.44-9.02Z"/>
    <path fill="#0070C0" d="M4195 1977c-14.36 0-26 11.42-26 25.5s11.64 25.5 26 25.5 26-11.42 26-25.5c-.02-14.08-11.65-25.49-26-25.5Zm0 44.2c-10.53 0-19.07-8.37-19.07-18.7s8.54-18.7 19.07-18.7c10.53 0 19.07 8.37 19.07 18.7-.01 10.32-8.54 18.69-19.07 18.7Z"/>
  </g>
</svg>
