<svg xmlns="http://www.w3.org/2000/svg" height="96" width="96"><defs><clipPath id="a"><path d="M0 72h72V0H0" clip-rule="evenodd"/></clipPath><clipPath id="b"><path d="M0 72h72V0H0" clip-rule="evenodd"/></clipPath><clipPath id="c"><path d="M0 72h72V0H0" clip-rule="evenodd"/></clipPath><clipPath id="d"><path d="M0 72h72V0H0" clip-rule="evenodd"/></clipPath><clipPath id="e"><path d="M0 72h72V0H0" clip-rule="evenodd"/></clipPath><clipPath id="f"><path d="M0 72h72V0H0" clip-rule="evenodd"/></clipPath><clipPath id="g"><path d="M0 72h72V0H0" clip-rule="evenodd"/></clipPath><clipPath id="h"><path d="M0 72h72V0H0" clip-rule="evenodd"/></clipPath></defs><g clip-path="url(#a)" transform="matrix(1.33333 0 0 -1.33333 0 96)"><path d="M26.085 4.61a7.43 7.43 0 0 0-9.134 5.193l-4.426 16.092a7.43 7.43 0 0 0 14.326 3.941l4.427-16.092a7.43 7.43 0 0 0-5.193-9.134z" fill="#47cfff" fill-rule="evenodd"/></g><g clip-path="url(#b)" transform="matrix(1.33333 0 0 -1.33333 0 96)"><path d="M26.085 4.61a7.43 7.43 0 0 0-9.134 5.193l-4.426 16.092a7.43 7.43 0 0 0 14.326 3.941l4.427-16.092a7.43 7.43 0 0 0-5.193-9.134z" fill="none" stroke="#41719c" stroke-width="3" stroke-miterlimit="10"/></g><g clip-path="url(#c)" transform="matrix(1.33333 0 0 -1.33333 0 96)"><path d="M38.659 28.132a7.43 7.43 0 0 0-2.6 10.18l6.818 11.497a7.43 7.43 0 0 0 12.78-7.579l-6.818-11.497a7.43 7.43 0 0 0-10.18-2.601z" fill="#f0c113" fill-rule="evenodd"/></g><g clip-path="url(#d)" transform="matrix(1.33333 0 0 -1.33333 0 96)"><path d="M38.659 28.132a7.43 7.43 0 0 0-2.6 10.18l6.818 11.497a7.43 7.43 0 0 0 12.78-7.579l-6.818-11.497a7.43 7.43 0 0 0-10.18-2.601z" fill="none" stroke="#41719c" stroke-width="3" stroke-miterlimit="10"/></g><path d="M11.12 37.223c0-8.85 7.173-16.023 16.023-16.023h40.914c8.85 0 16.023 7.173 16.023 16.023v38.354c0 8.85-7.173 16.023-16.023 16.023H27.143c-8.85 0-16.023-7.174-16.023-16.023z" fill="none" stroke="#41719c" stroke-width="3.9999899999999995" stroke-miterlimit="10"/><path d="M22.8 7.235a4.115 4.115 0 0 1 4.115-4.115h41.53a4.115 4.115 0 0 1 4.115 4.115v9.85a4.115 4.115 0 0 1-4.115 4.115h-41.53a4.115 4.115 0 0 1-4.115-4.115z" fill="#47cfff" fill-rule="evenodd"/><path d="M22.8 7.235a4.115 4.115 0 0 1 4.115-4.115h41.53a4.115 4.115 0 0 1 4.115 4.115v9.85a4.115 4.115 0 0 1-4.115 4.115h-41.53a4.115 4.115 0 0 1-4.115-4.115z" fill="none" stroke="#41719c" stroke-width="3.9999899999999995" stroke-miterlimit="10"/><g clip-path="url(#e)" transform="matrix(1.33333 0 0 -1.33333 0 96)"><path d="M37.809 6.396a7.429 7.429 0 0 0-1.073 10.451l10.535 12.945a7.43 7.43 0 1 0 11.524-9.379L48.26 7.468a7.428 7.428 0 0 0-10.451-1.072z" fill="#47cfff" fill-rule="evenodd"/></g><g clip-path="url(#f)" transform="matrix(1.33333 0 0 -1.33333 0 96)"><path d="M37.809 6.396a7.429 7.429 0 0 0-1.073 10.451l10.535 12.945a7.43 7.43 0 1 0 11.524-9.379L48.26 7.468a7.428 7.428 0 0 0-10.451-1.072z" fill="none" stroke="#41719c" stroke-width="3" stroke-miterlimit="10"/></g><g clip-path="url(#g)" transform="matrix(1.33333 0 0 -1.33333 0 96)"><path d="M47.615 28.813a7.43 7.43 0 0 0-9.301-4.887l-15.936 4.958a7.43 7.43 0 1 0 4.414 14.188l15.936-4.958a7.43 7.43 0 0 0 4.887-9.301z" fill="#47cfff" fill-rule="evenodd"/></g><g clip-path="url(#h)" transform="matrix(1.33333 0 0 -1.33333 0 96)"><path d="M47.615 28.813a7.43 7.43 0 0 0-9.301-4.887l-15.936 4.958a7.43 7.43 0 1 0 4.414 14.188l15.936-4.958a7.43 7.43 0 0 0 4.887-9.301z" fill="none" stroke="#41719c" stroke-width="3" stroke-miterlimit="10"/></g><path d="M46.86 41.6l-6.54 21.019M55.2 64.16l17.073 13.895M18.72 72.559l21.224-5.839M51.68 36.64l18.933 11.228" fill="none" stroke="#41719c" stroke-width="1.2799968" stroke-miterlimit="10"/></svg>