<svg xmlns="http://www.w3.org/2000/svg" height="96" width="140.16"><defs><clipPath id="a"><path d="M0 72h105.12V0H0" clip-rule="evenodd"/></clipPath><clipPath id="b"><path d="M0 72h105.12V0H0" clip-rule="evenodd"/></clipPath></defs><path d="M17.36 93.52H121.2v-72.8H17.36z" fill="#fff" fill-rule="evenodd"/><path d="M17.36 93.52H121.2v-72.8H17.36z" fill="none" stroke="#41719c" stroke-width="3.9999899999999995" stroke-miterlimit="10"/><path d="M37.36 93.36h22.88V58.32H37.36z" fill="#47cfff" fill-rule="evenodd"/><path d="M37.36 93.36h22.88V58.32H37.36z" fill="none" stroke="#41719c" stroke-width="3.0399923999999996" stroke-miterlimit="10"/><path d="M83.76 58.32h22.88V40.24H83.76z" fill="#f0c113" fill-rule="evenodd"/><path d="M83.76 58.32h22.88V40.24H83.76zM95.12 40.24v17.564M83.76 49.36h22.15" fill="none" stroke="#41719c" stroke-width="2.0799947999999997" stroke-miterlimit="10"/><path d="M55.04 27.84h28.64v-9.28H55.04z" fill="#fff" fill-rule="evenodd"/><g clip-path="url(#a)" transform="matrix(1.33333 0 0 -1.33333 0 96)"><path d="M9.54 44.94v10.988L51.96 69.66l42.42-13.732V44.94L51.96 58.672z" fill="#47cfff" fill-rule="evenodd"/></g><g clip-path="url(#b)" transform="matrix(1.33333 0 0 -1.33333 0 96)"><path d="M9.54 44.94v10.988L51.96 69.66l42.42-13.732V44.94L51.96 58.672z" fill="none" stroke="#41719c" stroke-width="3" stroke-miterlimit="10"/></g></svg>