<svg xmlns="http://www.w3.org/2000/svg" overflow="hidden" viewBox="0 0 238 207">
  <defs>
    <clipPath id="a">
      <path d="M4027 1599h238v207h-238z"/>
    </clipPath>
  </defs>
  <g fill-rule="evenodd" clip-path="url(#a)" transform="translate(-4027 -1599)">
    <path fill="#00B0F0" d="M4165 1645c12.7 0 23-10.3 23-23s-10.3-23-23-23-23 10.3-23 23 10.3 23 23 23Zm0-39c8.85 0 16.03 7.17 16.03 16.03 0 8.85-7.18 16.03-16.03 16.03-8.85 0-16.03-7.18-16.03-16.03 0-8.86 7.18-16.03 16.03-16.03Zm-50.18 172.02c-.93 0-1.81 0-2.64-.02-.54 2.36-1.27 4.67-2.18 6.92 1.5.05 3.09.08 4.82.08H4186c-.92-2.26-1.66-4.59-2.21-6.98Zm21.43-23.36c-1.88 6.89 2.17 13.99 9.05 15.88 6.55 1.79 13.37-1.8 15.61-8.22l16.44-52.91 20.54-11.55c6.27 2.26 13.2-.99 15.46-7.27 2.07-5.71-.43-12.07-5.83-14.85l-5.76-3.1c-.3-2.34-.82-4.65-1.57-6.88 2.97-.8 6.03-1.21 9.1-1.24 20.88.03 37.81 16.96 37.83 37.87a40.048 40.048 0 0 1-5.24 19.04l-2.44 3.54c2.25.7 4.43 1.57 6.54 2.61l1.72-2.53c3.98-6.9 6.15-14.7 6.3-22.66-.03-24.71-20.03-44.72-44.71-44.75-5.03.11-10 .97-14.77 2.56l-3.88 1.2 1.81 3.63c.53 1.05.98 2.14 1.35 3.25l-42.42-22.8c-9.5-3.79-20.34-.09-25.55 8.72l-24.18 41.49-.13.26-74.52-7.7v20.12l53.31 16.36a44.733 44.733 0 0 1 18.72 10.64 21.153 21.153 0 0 0-15.99-17l-49.16-15.09v-7.41l64.86 6.71c-2.45 8.64 2.56 17.63 11.19 20.08.82.23 1.64.4 2.48.5l32.23 3.94Zm33.81-49.03c-2.38-2-5.36-3.16-8.47-3.3l-14.79-1.72 13.52-23.32 30.32 16.75Zm-64.11-2.84 1.75-3.85 24.08-41.28a13.694 13.694 0 0 1 17.08-5.79l55.5 29.95c2.64 1.2 3.8 4.31 2.6 6.95-1.2 2.63-4.3 3.8-6.94 2.6l-42.28-23.37-22.16 38.23 25.43 2.96c2.05 0 4 .91 5.32 2.48.92 1.27 1.41 2.8 1.42 4.36l-.2 2.09-12.97 41.49c-.87 3.23-4.19 5.15-7.42 4.27a6.033 6.033 0 0 1-3.67-2.83 5.952 5.952 0 0 1-.62-4.52l10.74-35.27-40.37-4.93a9.45 9.45 0 0 1-8.2-10.54c.13-1.04.44-2.05.9-3Z"/>
    <path fill="#0070C0" d="M4068.5 1730c-20.71 0-37.5 17.01-37.5 38s16.79 38 37.5 38 37.5-17.01 37.5-38-16.79-38-37.5-38Zm0 69.09c-16.95 0-30.68-13.92-30.68-31.09s13.73-31.09 30.68-31.09 30.68 13.92 30.68 31.09c-.02 17.16-13.74 31.07-30.68 31.09ZM4227 1730c-20.99 0-38 17.01-38 38s17.01 38 38 38 38-17.01 38-38-17.01-38-38-38Zm0 69.09c-17.17 0-31.09-13.92-31.09-31.09s13.92-31.09 31.09-31.09 31.09 13.92 31.09 31.09c-.02 17.16-13.93 31.07-31.09 31.09Z"/>
  </g>
</svg>
