<svg xmlns="http://www.w3.org/2000/svg" height="96" width="96"><defs><clipPath id="a"><path d="M0 72h72V0H0" clip-rule="evenodd"/></clipPath><clipPath id="b"><path d="M0 72h72V0H0" clip-rule="evenodd"/></clipPath><clipPath id="c"><path d="M0 72h72V0H0" clip-rule="evenodd"/></clipPath><clipPath id="d"><path d="M0 72h72V0H0" clip-rule="evenodd"/></clipPath><clipPath id="e"><path d="M0 72h72V0H0" clip-rule="evenodd"/></clipPath><clipPath id="f"><path d="M0 72h72V0H0" clip-rule="evenodd"/></clipPath></defs><g clip-path="url(#a)" transform="matrix(1.33333 0 0 -1.33333 0 96)"><path d="M39.921 53.22c5.953 0 10.779-4.826 10.779-10.778V24.159c0-5.953-4.826-10.779-10.779-10.779h-7.122c-5.953 0-10.779 4.826-10.779 10.779v18.283c0 5.952 4.826 10.778 10.779 10.778z" fill="#47cfff" fill-rule="evenodd"/></g><g clip-path="url(#b)" transform="matrix(1.33333 0 0 -1.33333 0 96)"><path d="M39.921 53.22c5.953 0 10.779-4.826 10.779-10.778V24.159c0-5.953-4.826-10.779-10.779-10.779h-7.122c-5.953 0-10.779 4.826-10.779 10.779v18.283c0 5.952 4.826 10.778 10.779 10.778z" fill="none" stroke="#41719c" stroke-width="3" stroke-miterlimit="10"/></g><g clip-path="url(#c)" transform="matrix(1.33333 0 0 -1.33333 0 96)"><path d="M36.78 28.98a5.28 5.28 0 0 0 5.28-5.28V6.78a5.28 5.28 0 0 0-10.56 0V23.7a5.28 5.28 0 0 0 5.28 5.28z" fill="#fff" fill-rule="evenodd"/></g><g clip-path="url(#d)" transform="matrix(1.33333 0 0 -1.33333 0 96)"><path d="M36.78 28.98a5.28 5.28 0 0 0 5.28-5.28V6.78a5.28 5.28 0 0 0-10.56 0V23.7a5.28 5.28 0 0 0 5.28 5.28z" fill="none" stroke="#41719c" stroke-width="3" stroke-miterlimit="10"/></g><g clip-path="url(#e)" transform="matrix(1.33333 0 0 -1.33333 0 96)"><path d="M54.009 66.3a2.57 2.57 0 0 0 2.571-2.571v-1.698a2.57 2.57 0 0 0-2.571-2.571H18.591a2.57 2.57 0 0 0-2.571 2.571v1.698a2.57 2.57 0 0 0 2.571 2.571z" fill="#47cfff" fill-rule="evenodd"/></g><g clip-path="url(#f)" transform="matrix(1.33333 0 0 -1.33333 0 96)"><path d="M54.009 66.3a2.57 2.57 0 0 0 2.571-2.571v-1.698a2.57 2.57 0 0 0-2.571-2.571H18.591a2.57 2.57 0 0 0-2.571 2.571v1.698a2.57 2.57 0 0 0 2.571 2.571z" fill="none" stroke="#41719c" stroke-width="3" stroke-miterlimit="10"/></g><path d="M38.8 12.24c0-5.301 4.299-9.6 9.6-9.6 5.301 0 9.6 4.299 9.6 9.6 0 5.301-4.299 9.6-9.6 9.6-5.301 0-9.6-4.299-9.6-9.6z" fill="#ffc000" fill-rule="evenodd"/><path d="M38.8 12.24c0-5.301 4.299-9.6 9.6-9.6 5.301 0 9.6 4.299 9.6 9.6 0 5.301-4.299 9.6-9.6 9.6-5.301 0-9.6-4.299-9.6-9.6z" fill="none" stroke="#41719c" stroke-width="3.9999899999999995" stroke-miterlimit="10"/></svg>