<svg xmlns="http://www.w3.org/2000/svg" overflow="hidden" viewBox="0 0 206 228">
  <defs>
    <clipPath id="a">
      <path d="M3529 1148h206v228h-206z"/>
    </clipPath>
  </defs>
  <g fill-rule="evenodd" clip-path="url(#a)" transform="translate(-3529 -1148)">
    <path fill="#00B0F0" d="M3632 1190c6.63 0 12-5.37 12-12s-5.37-12-12-12h-.34c-6.53.12-11.73 5.48-11.66 12 .01 6.62 5.38 11.99 12 12Zm-3.74-15.63c.92-.95 2.19-1.5 3.51-1.51h.23c2.84 0 5.14 2.3 5.14 5.14s-2.3 5.14-5.14 5.14-5.14-2.3-5.14-5.14v-.05c-.03-1.33.47-2.62 1.39-3.57ZM3628 1242h72v7h-72Zm0 41h72v7h-72Zm0 42h72v7h-72Z"/>
    <path fill="#0070C0" d="M3570 1301h27v-28h-27Zm6.75-21h13.5v14h-13.5Zm-6.75 62h27v-28h-27Zm6.75-21h13.5v14h-13.5Z"/>
    <path fill="#00B0F0" d="M3735 1179.34c0-6.29-6.15-11.4-13.73-11.4h-51.5v-5.69c-.01-7.87-7.69-14.24-17.17-14.25h-41.2c-9.48.01-17.16 6.38-17.17 14.25v5.69h-51.5c-7.58 0-13.73 5.11-13.73 11.4v185.26c0 6.3 6.15 11.4 13.73 11.4h178.54c7.58 0 13.73-5.1 13.73-11.4Zm-147.63-5.7h13.73v-11.39c0-4.72 4.61-8.55 10.3-8.55h41.2c5.69 0 10.3 3.83 10.3 8.55v11.39h13.73v22.86h-89.26Zm133.9 196.66h-178.54c-3.79 0-6.86-2.55-6.86-5.7v-185.26c0-3.15 3.07-5.7 6.86-5.7h37.77v28.56h103v-28.56h37.77c3.79 0 6.86 2.55 6.86 5.7v185.26c0 3.15-3.07 5.7-6.86 5.7Z"/>
    <path fill="#0070C0" d="M3570 1258h27v-27h-27Zm6.75-20.25h13.5v13.5h-13.5Z"/>
  </g>
</svg>
