<svg width="261" height="262" xmlns="http://www.w3.org/2000/svg" xml:space="preserve" overflow="hidden"><defs><clipPath id="a"><path d="M3005 1615h261v262h-261z"/></clipPath></defs><g clip-path="url(#a)" transform="translate(-3005 -1615)" fill-rule="evenodd"><path d="M3135.54 1615c-72.08-.02-130.52 58.61-130.54 130.96-.02 72.35 58.39 131.02 130.46 131.04 72.08.02 130.52-58.61 130.54-130.96v-.04c.04-72.31-58.33-130.96-130.36-131h-.1Zm0 255.1c-68.28.02-123.65-55.52-123.67-124.07-.02-68.54 55.31-124.12 123.59-124.14 68.28-.02 123.65 55.53 123.67 124.07v.05c-.06 68.5-55.35 124.01-123.59 124.1Z" fill="#00B0F0"/><path d="m3112.85 1787.28-42.99-42.98-4.86 4.86 47.85 47.84L3214 1695.86l-4.86-4.86-96.29 96.28Z" fill="#0070C0"/></g></svg>