<svg width="289" height="220" xmlns="http://www.w3.org/2000/svg" xml:space="preserve" overflow="hidden"><defs><clipPath id="a"><path d="M2358 1040h289v220h-289z"/></clipPath></defs><g clip-path="url(#a)" transform="translate(-2358 -1040)" fill-rule="evenodd"><path d="M2643.56 1091.57h-273.73c-.05 0-.06-.03-.03-.06l45.68-45.6c1.37-1.32 1.4-3.5.08-4.86a3.44 3.44 0 0 0-4.86-.09l-.09.09-51.6 51.52a3.422 3.422 0 0 0 0 4.86l51.6 51.52c1.32 1.37 3.5 1.4 4.87.09 1.37-1.32 1.4-3.5.08-4.86a.647.647 0 0 0-.08-.09l-45.68-45.6c-.03-.03-.02-.06.03-.06h273.73c1.9 0 3.44-1.53 3.44-3.43 0-1.9-1.54-3.43-3.44-3.43Z" fill="#0070C0"/><path d="m2645.99 1202.57-51.6-51.52a3.453 3.453 0 0 0-4.87-.09 3.432 3.432 0 0 0-.08 4.86c.02.03.05.06.08.09l45.68 45.6c.03.03.02.06-.03.06h-273.73c-1.9 0-3.44 1.53-3.44 3.43 0 1.9 1.54 3.43 3.44 3.43h273.73c.05 0 .06.03.03.06l-45.68 45.6a3.432 3.432 0 0 0-.08 4.86 3.44 3.44 0 0 0 4.86.09l.09-.09 51.6-51.52a3.422 3.422 0 0 0 0-4.86Z" fill="#00B0F0"/></g></svg>