<svg xmlns="http://www.w3.org/2000/svg" overflow="hidden" viewBox="0 0 1718 1279">
  <defs>
    <linearGradient id="b" x1="1989.4" x2="1972.69" y1="727.783" y2="694.36" gradientUnits="userSpaceOnUse" spreadMethod="reflect">
      <stop offset="0" stop-color="#00B0F0"/>
      <stop offset=".88" stop-color="#00B0F0"/>
      <stop offset="1" stop-color="#52DFD2"/>
    </linearGradient>
    <linearGradient id="c" x1="1917" x2="1881" y1="711" y2="711" gradientUnits="userSpaceOnUse" spreadMethod="reflect">
      <stop offset="0" stop-color="#00B0F0"/>
      <stop offset=".32" stop-color="#00B0F0"/>
      <stop offset=".87" stop-color="#0070C0"/>
      <stop offset="1" stop-color="#0070C0"/>
    </linearGradient>
    <linearGradient id="d" x1="1959.91" x2="1976.8" y1="727.738" y2="694.406" gradientUnits="userSpaceOnUse" spreadMethod="reflect">
      <stop offset="0" stop-color="#00B0F0"/>
      <stop offset=".29" stop-color="#00B0F0"/>
      <stop offset="1" stop-color="#52DFD2"/>
    </linearGradient>
    <linearGradient id="e" x1="1924.55" x2="1941.26" y1="694.36" y2="727.783" gradientUnits="userSpaceOnUse" spreadMethod="reflect">
      <stop offset="0" stop-color="#00B0F0"/>
      <stop offset=".88" stop-color="#00B0F0"/>
      <stop offset="1" stop-color="#52DFD2"/>
    </linearGradient>
    <linearGradient id="f" x1="1954.04" x2="1937.15" y1="694.406" y2="727.738" gradientUnits="userSpaceOnUse" spreadMethod="reflect">
      <stop offset="0" stop-color="#00B0F0"/>
      <stop offset=".29" stop-color="#00B0F0"/>
      <stop offset="1" stop-color="#52DFD2"/>
    </linearGradient>
    <clipPath id="a">
      <path d="M1341 567h1718v1279H1341z"/>
    </clipPath>
  </defs>
  <g fill-rule="evenodd" clip-path="url(#a)" transform="translate(-1341 -567)">
    <path fill="#EBEBEB" d="M2773 1748h114v1h-114Zm-324 9h30v1h-30Zm255-41h66v1h-66Zm-1183 6h148v1h-148Zm179 0h22v1h-22Zm93 14h322v1h-322Zm-452-43h1718v1H1341Zm814.37-154h-663.78c-10.82-.02-19.59-8.8-19.59-19.63V586.454c.09-10.759 8.83-19.436 19.59-19.454h663.78c10.84 0 19.63 8.787 19.63 19.625v932.745c0 10.85-8.79 19.63-19.63 19.63Zm-663.78-971.313c-10.35.019-18.73 8.416-18.73 18.767v932.916c0 10.36 8.38 18.75 18.73 18.77h674.09c10.32 0 8.43-8.42 8.43-18.77V586.454c-.02-10.344-8.39-18.729-18.74-18.767ZM2898.44 1539h-663.81c-10.83-.02-19.61-8.79-19.63-19.63V586.454c.11-10.764 8.86-19.436 19.63-19.454h663.81c10.75.037 19.47 8.708 19.56 19.454v932.916c0 10.82-8.75 19.59-19.56 19.63Zm-663.81-971.313c-10.36.019-18.75 8.41-18.77 18.767v932.916c.02 10.36 8.41 18.75 18.77 18.77h663.81c10.36-.02 18.75-8.41 18.77-18.77V586.454c-.02-10.357-8.41-18.748-18.77-18.767Z"/>
    <path fill-opacity=".2" d="M1538 1539h665.23L2247 634h-641.7l-67.3 905Z"/>
    <path fill="#E6E6E6" d="M1518 1539h678.28L2240 634h-634.42L1518 1539Z"/>
    <path fill-opacity=".102" d="M1547 1522h621.19L2210 664.034 1623.27 664 1547 1522Z"/>
    <path fill="#FAFAFA" d="M2210 664c-7.18 282.941-32 565.16-74.3 845h-448c-49.49-1.48-141.7-3.61-141.7-3.61s70.63-591.499 77.02-841.39Z"/>
    <path fill="#E0E0E0" d="M2037.82 731a6968.005 6968.005 0 0 1-4.82 111h111.18c1.93-37.011 3.54-74.013 4.82-111Zm97.16 101.335h-91.79c1.57-30.59 2.9-61.148 4-91.669h91.79c-1.13 30.545-2.46 61.1-4 91.669ZM2019.82 910c-1.28 37-2.89 74-4.82 111h111.14a6665.96 6665.96 0 0 0 4.86-111Zm97.16 101.34h-91.79c1.52-30.562 2.85-61.118 4-91.678h91.79c-1.15 30.581-2.48 61.14-4 91.678ZM2003.82 1084a6344.94 6344.94 0 0 1-4.82 111h111.18c1.9-37.01 3.51-74.01 4.82-111Zm97.13 101.33h-91.76c1.52-30.58 2.85-61.14 4-91.66h91.76c-1.13 30.52-2.46 61.08-4 91.66ZM1978.82 1269c-1.28 37-2.89 74-4.82 111h111.18c1.9-37.02 3.51-74.02 4.82-111Zm97.16 101.34h-91.79c1.52-30.56 2.85-61.12 4-91.68h91.79c-1.15 30.54-2.48 61.1-4 91.68Z"/>
    <path fill="#E6E6E6" d="M1665.83 796H1980c-.25 7-.52 14-.79 21H1665Zm72.16-33H1983c-.27 7-.62 14-.93 21H1737c.34-7 .65-14 .99-21Zm-100.17 219H1951c-.24 6.667-.51 13.333-.79 20H1637c.27-6.6.58-13.333.82-20Zm71.14-33H1954c-.31 6.667-.65 13.333-.96 20H1708c.31-6.633.55-13.333.96-20Zm-93.1 379H1929c-.27 6.67-.51 13.33-.82 20H1615c.32-6.62.61-13.29.86-20Zm71.13-33H1932c-.27 6.67-.62 13.33-.93 20H1686c.34-6.63.65-13.3.99-20Zm-51.13-149H1950c-.27 6.67-.52 13.33-.83 20H1635c.32-6.62.61-13.29.86-20Zm71.1-33H1953c-.28 6.67-.62 13.33-.96 20H1706c.31-6.63.65-13.3.96-20Z"/>
    <path fill="#E0E0E0" d="M1758 680h329l-2.89-10.306c-7.43-25.835-10.87-42.944-34.94-42.944 0 0-80.69-4.569-82.92-11.543-5.55-16.956-21.46-28.369-39.31-28.205-18.38.22-34.88 11.294-42.03 28.205-2.89 6.871-90.76 11.543-90.76 11.543-24.25 0-22.53 17.178-32.3 42.944Z"/>
    <path fill="#00B0F0" d="M2051.11 794.589c-.26 3.672.98 7.289 3.44 10.024a12.955 12.955 0 0 0 9.66 2.205c13.75-1.137 26.03-8.991 37.06-17.223A310.867 310.867 0 0 0 2158 734a998.079 998.079 0 0 1-64.36 40.026 97.886 97.886 0 0 1-21.31 9.816c-3.03.861-7.16.93-8.36-1.963-1.48-3.444 2.96-8.646 0-10.988-2.96-2.342-9.21 2.962-10.62 5.339-2.75 4.478-2.41 13.227-2.24 18.359Z"/>
    <path fill="#E0E0E0" d="M2026.11 972.589c-.26 3.672.98 7.289 3.44 10.024a12.95 12.95 0 0 0 9.66 2.204c13.75-1.171 26.03-8.99 37.06-17.222A311.96 311.96 0 0 0 2133 912a997.537 997.537 0 0 1-64.36 39.991 96.684 96.684 0 0 1-21.31 9.851c-3.03.861-7.16.93-8.36-1.998-1.48-3.444 2.96-8.611 0-10.953-2.96-2.342-9.21 2.962-10.62 5.304-2.75 4.34-2.41 13.055-2.24 18.394Zm-11 177.961c-.24 3.68 1 7.31 3.44 10.06a12.89 12.89 0 0 0 9.63 2.21c13.76-1.18 26.04-8.99 37.08-17.23A311.728 311.728 0 0 0 2122 1090a954.125 954.125 0 0 1-64.38 39.99 97.053 97.053 0 0 1-21.29 9.85c-3.02.86-7.18.93-8.39-2-1.48-3.44 2.96-8.64 0-10.95-2.96-2.31-9.21 2.93-10.62 5.3-2.72 4.48-2.38 13.23-2.21 18.36Z"/>
    <path fill="#EBEBEB" d="M2596.01 1469.29c3.44 4.22 6.88 9.22 5.78 14.53-1.62 6.03-7.61 9.8-13.77 8.68-5.96-1.33-10.83-5.62-12.87-11.35-1.38-3.43-1.86-7.2-3.2-10.66-3.89-10.01-13.77-16.14-23.13-21.56-.59 10.29 5.33 20.12 12.32 27.87 6.99 7.74 15.35 14.36 21.41 22.89 6.06 8.54 9.57 19.85 5.4 29.44-.29.82-.8 1.55-1.48 2.09-1.04.59-2.27.76-3.44.48-10.94-1.47-18.41-11.68-23.23-21.62-4.82-9.94-8.81-20.94-17.66-27.42 3.89 13.09 14.46 23.17 20.03 35.64a51.6 51.6 0 0 1-5.06 50.08 5.365 5.365 0 0 1-3.44 2.6c-2.13.24-3.68-1.92-4.58-3.87-8.95-19.43-2.37-45.72-17.86-60.53-2.41 5.21-4.79 10.28-7.2 15.56a24.818 24.818 0 0 1-5.61 8.74 8.556 8.556 0 0 1-9.7 1.41c-4.62-2.95-3.44-9.87-1.38-14.95a230.101 230.101 0 0 1 18.86-37.87c-5.19-2.43-10.32 2.88-14.21 7.2-3.89 4.32-11.05 8.12-14.56 3.43a8.429 8.429 0 0 1-1.41-5.25c0-9.05 6.23-16.86 12.83-23.1 6.61-6.24 14.12-11.79 18.52-19.67a28.914 28.914 0 0 1-15.25.38c-4.85-1.68-8.74-7.2-6.88-11.93a139.39 139.39 0 0 1 19.35-18.03c7.88-2.47 15.59 4.76 21.54 9.12a253.563 253.563 0 0 1 49.88 47.67Z"/>
    <path fill="#E0E0E0" d="M2552.42 1546v-7.82c-.86-74.22-13.66-101.92-17.08-102.72l-.34-3.44c1.14-.12 2.27.3 3.07 1.14 6.83 5.92 17.08 38.76 17.93 104.95v7.79Z"/>
    <path fill="#E0E0E0" d="M2552 1584v-50.26c0-70.93 10.69-106.16 17.87-112.52.81-.85 1.96-1.3 3.13-1.21l-.44 3.44c-3.58.83-17.02 30.55-17.02 110.29v50.23Z"/>
    <path fill="#F0F0F0" d="M2600.93 1699h-92.86l-9.07-112h111l-9.07 112Z"/>
    <path fill="#FAFAFA" d="M2616.7 1593h-126.43l-2.27-15h131l-2.3 15Z"/>
    <path fill="#F5F5F5" d="M2430.07 1407c-6.41 0-13.78.21-17.99 4.91-4.53 5.81-3.89 14.11 1.48 19.16 5.54 4.67 13.09 6.2 20.02 4.05 4.27-1.2 8.2-3.43 12.44-4.6 12.33-3.43 25.28 1.51 37.1 6.45-9.51 8-23.01 9.34-35.42 8.28-12.4-1.07-24.63-4.26-37.06-3.92-12.44.35-25.77 5.19-31.94 15.97-.56.86-.88 1.86-.93 2.88.18 1.42.88 2.72 1.96 3.64 9.27 9.31 24.36 9.03 37.24 6.53 12.89-2.51 26.26-6.87 38.86-3.03-15.26 5.67-32.41 2.89-48.23 6.56-20.75 5.01-37.42 20.36-44.06 40.59a6.244 6.244 0 0 0 0 5.08c1.31 2.16 4.48 2.09 6.89 1.54 24.91-5.42 45.24-30.42 70.42-26.37l-9.72 17.93a29.303 29.303 0 0 0-4.27 11.57c-.56 4.27 1.69 8.42 5.58 10.3 6.07 2.26 11.82-3.88 15.23-9.38a274.017 274.017 0 0 0 22.6-44.91c6.03 3.16 4.72 11.95 3.44 18.61-1.27 6.66 0 16.24 6.89 16.31 2.22-.12 4.33-.98 6-2.44 8.54-6.52 11.61-17.92 12.81-28.6 1.21-10.67 1.17-21.76 5.58-31.58a33.94 33.94 0 0 0 10.34 14.66c5.1 3.43 13.12 3.16 16.23-2.1 2.16-10.25 3.31-20.69 3.44-31.17-3.27-9.24-15.67-11.33-24.11-13.91a304.324 304.324 0 0 0-80.82-13.01Z"/>
    <path fill="#F0F0F0" d="M2592.23 1526.4c2.9 5.73 6.59 11.95 12.84 13.61 7.29 1.27 14.35-3.22 16.29-10.36 1.57-7.1-.62-14.51-5.8-19.62-3.07-3.21-6.9-5.66-9.94-8.87-8.9-9.29-10.53-23.1-11.7-35.88 11.6 4.66 19.12 15.96 23.99 27.45 4.87 11.5 7.8 23.83 13.98 34.53 6.18 10.71 16.67 20.38 29.13 20.72 1.03.08 2.07-.11 3-.55 1.17-.83 2-2.06 2.31-3.45 3.9-12.57-3.45-25.8-11.7-36.02-8.25-10.22-18.26-20.09-20.91-33.01 12.21 10.84 17.77 27.35 28.51 39.71a61.88 61.88 0 0 0 56.74 19.89c1.76-.13 3.4-.98 4.52-2.35 1.34-2.21-.21-4.97-1.87-6.9-16.53-19.48-48.32-25.69-56.53-49.9h20.5c4.16.32 8.33-.24 12.25-1.66 4-1.54 6.58-5.45 6.42-9.73-.86-6.46-8.97-8.64-15.49-9.09-16.83-1.14-33.71-.75-50.46 1.18 0-6.91 8.38-9.81 14.94-11.67 6.56-1.87 14.33-7.81 11.22-13.81a9.963 9.963 0 0 0-4.97-4.15c-9.84-4.49-21.4-1.83-31.44 2.14-10.05 3.97-19.88 9.26-30.65 9.98 4.1-4.58 6.89-10.19 8.07-16.23.62-6.07-3.45-13.08-9.49-13.36a164.92 164.92 0 0 0-29.27 11.74c-6.66 7.22-2.69 19.2-1 27.87 5.29 27 14.21 53.17 26.51 77.79Z"/>
    <path fill-opacity=".2" d="M2619 722.146V815h-122.49l-6.51-6.19 6.51-86.664c0-33.77 27.42-61.146 61.25-61.146 33.82 0 61.24 27.376 61.24 61.146Z"/>
    <path fill="#F5F5F5" d="M2612 715.912V808h-122v-92.088c0-33.641 27.31-60.912 61-60.912s61 27.271 61 60.912Z"/>
    <path fill="#E0E0E0" d="M2560.4 674.973c23.35 3.79 39.21 25.791 35.42 49.14-3.79 23.35-25.79 39.206-49.14 35.416-23.35-3.79-39.21-25.792-35.42-49.141 3.79-23.35 25.79-39.205 49.14-35.415Z"/>
    <path fill="#FFF" d="M2591 716.5c0 23.472-19.03 42.5-42.5 42.5s-42.5-19.028-42.5-42.5 19.03-42.5 42.5-42.5 42.5 19.028 42.5 42.5Z"/>
    <path fill="#E0E0E0" d="M2551 719.5c0 1.933-1.34 3.5-3 3.5s-3-1.567-3-3.5 1.34-3.5 3-3.5 3 1.567 3 3.5Z"/>
    <path fill="#E0E0E0" d="M2547.69 721 2533 707.114l1.43-1.542 13.33 12.582L2571.63 697l1.37 1.577L2547.69 721Z"/>
    <path fill="#F5F5F5" d="M2866 1807c0 21.54-298.18 39-666 39s-666-17.46-666-39 298.18-39 666-39 666 17.46 666 39Z"/>
    <path fill="#407BFF" d="M2188 1292v421h10.63l13.37-421h-24Zm129 14v389h10.63l13.37-389h-24Z"/>
    <path fill-opacity=".502" d="M2317 1306v389h10.63l13.37-389h-24Z"/>
    <path fill="#407BFF" d="M2843 1292v403h-10.63L2819 1292h24Z"/>
    <path fill-opacity=".502" d="M2843 1292v403h-10.63L2819 1292h24Z"/>
    <path fill="#407BFF" d="M2714 1306v404h-11.07L2689 1306h25Zm-610-27h815v18h-815Z"/>
    <path fill="#407BFF" d="M2865.44 1316h-703.88l-28.56-19h761l-28.56 19Z"/>
    <path fill-opacity=".502" d="M2865.44 1316h-703.88l-28.56-19h761l-28.56 19Z"/>
    <path fill="#407BFF" d="M2415 1236h-171v-43h171Z"/>
    <path fill="#FFF" fill-opacity=".6" d="M2416 1236h-172v-43h172Z"/>
    <path fill="#FFF" fill-opacity=".6" d="M2375 1236h-131v-43h131Z"/>
    <path fill="#407BFF" d="M2244.1 1230.32 2415 1236l-.17-4.62L2244 1229l.1 1.32Zm170.9-19.6-170-9.72v1.43l170 11.57v-3.28Z"/>
    <path fill="#407BFF" d="m2415 1198-170 3.67v1.33l170-1.95V1198Zm1 20.81-171 8.19v-1.25l171-9.75v2.81Zm11 61.19h-171v-43h171Z"/>
    <path fill="#FFF" fill-opacity=".6" d="M2428 1280h-172v-42h172Z"/>
    <path fill="#FFF" fill-opacity=".6" d="M2256 1238h132v42h-132Z"/>
    <path fill="#407BFF" d="m2427 1274-170.79 2.02-.21 3.98 170.9-4.86.1-1.14Zm-170-36 170 .18v1.82h-170v-2Zm-1 20 170-11.54V1245l-170 9.7v3.3Z"/>
    <path fill="#407BFF" d="m2427 1242-170 3.68v1.32l170-1.94V1242Zm1 21.82-171 8.18v-1.22l171-9.78v2.82ZM2401 1028l-171.73.85-.27 41.15h172v-42Z"/>
    <path fill="#FFF" fill-opacity=".6" d="M2401 1070h-172v-42h172Z"/>
    <path fill="#FFF" fill-opacity=".6" d="M2229 1028h132v42h-132Z"/>
    <path fill="#407BFF" d="M2366 1028h-137v5h134.07l2.93-5Zm34 18-171 1.66v1.34h171v-3Zm-171 19.96 171-8.96v1.33L2229 1069v-3.04Zm0-15.96 171 2.96v1.04l-171-1.55V1050Zm1 134h170v10h-170Z"/>
    <path fill="#FFF" fill-opacity=".6" d="M2230 1184h170v10h-170Z"/>
    <path fill="#FFF" fill-opacity=".6" d="M2230 1183h136v11h-136Z"/>
    <path fill="#407BFF" d="m2230.03 1188 169.97 2.29-.03.71-169.97-1.39.03-1.61Zm-.03-2 170 2.19v.81l-170-1.16V1186Zm172.26-113.54v27.29c1.46 0 2.64 1.17 2.64 2.62 0 1.46-1.18 2.63-2.64 2.63H2371v-38h31.26c1.51 0 2.74 1.22 2.74 2.73s-1.23 2.73-2.74 2.73Z"/>
    <path fill="#FFF" fill-opacity=".302" d="M2402.26 1072.46v27.29c1.46 0 2.64 1.17 2.64 2.62 0 1.46-1.18 2.63-2.64 2.63H2371v-38h31.26c1.51 0 2.74 1.22 2.74 2.73s-1.23 2.73-2.74 2.73Z"/>
    <path fill="#407BFF" d="M2378 1073h24v27h-24Z"/>
    <path fill="#FFF" fill-opacity=".6" d="M2378 1073h24v27h-24Z"/>
    <path fill="#407BFF" d="M2383 1070h-133.66c-5.79 0-10.34 7.17-10.34 16s4.65 16 10.34 16H2383Z"/>
    <path fill="#FFF" fill-opacity=".902" d="M2383 1070h-133.66c-5.79 0-10.34 7.17-10.34 16s4.65 16 10.34 16H2383Z"/>
    <path fill="#407BFF" d="M2382.35 1104.79c-27.47 0-104.35.48-131.72 0-18.76-.34-19.76-36.16-1.38-37.39 12.85-.89 26.04 0 38.88 0h94.22a2.6 2.6 0 0 1 2.3 2.88 2.604 2.604 0 0 1-2.3 2.28h-127.4c-6.01 0-10.3 0-12.6 7.12-2.03 6.12-1.38 18.57 6.87 19.91.93.08 1.88.08 2.81 0h130.36c1.44 0 2.61 1.16 2.61 2.6 0 1.43-1.17 2.6-2.61 2.6Z"/>
    <path fill="#FFF" d="M2382.35 1104.79c-27.47 0-104.35.48-131.72 0-18.76-.34-19.76-36.16-1.38-37.39 12.85-.89 26.04 0 38.88 0h94.22a2.6 2.6 0 0 1 2.3 2.88 2.604 2.604 0 0 1-2.3 2.28h-127.4c-6.01 0-10.3 0-12.6 7.12-2.03 6.12-1.38 18.57 6.87 19.91.93.08 1.88.08 2.81 0h130.36c1.44 0 2.61 1.16 2.61 2.6 0 1.43-1.17 2.6-2.61 2.6Z"/>
    <path fill="#407BFF" d="M2373.53 1108.85v25.3c1.37 0 2.47 1.09 2.47 2.43s-1.1 2.42-2.47 2.42H2344v-35h29.53c1.37 0 2.47 1.08 2.47 2.42 0 1.34-1.1 2.43-2.47 2.43Z"/>
    <path fill="#FFF" fill-opacity=".302" d="M2373.53 1108.85v25.3c1.37 0 2.47 1.09 2.47 2.43s-1.1 2.42-2.47 2.42H2344v-35h29.53c1.37 0 2.47 1.08 2.47 2.42 0 1.34-1.1 2.43-2.47 2.43Z"/>
    <path fill="#407BFF" d="M2351 1109h22v25h-22Z"/>
    <path fill="#FFF" fill-opacity=".6" d="M2351 1109h22v25h-22Z"/>
    <path fill="#407BFF" d="M2356 1107h-124.27c-5.37 0-9.73 6.71-9.73 15s4.36 15 9.73 15H2356Z"/>
    <path fill="#FFF" fill-opacity=".902" d="M2356 1107h-124.27c-5.37 0-9.73 6.71-9.73 15s4.36 15 9.73 15H2356Z"/>
    <path fill="#407BFF" d="M2355.59 1138.8c-25.36 0-96.67.45-122.03 0-17.39-.3-18.31-33.28-1.27-34.44 11.89-.81 24.06 0 36.02 0h87.28a2.4 2.4 0 0 1 2.41 2.39c0 1.31-1.08 2.38-2.41 2.38h-118.04c-5.57 0-9.52 0-11.69 6.57-1.85 5.61-1.27 17.01 6.36 18.34.86.07 1.72.07 2.58 0h120.79c1.33 0 2.41 1.06 2.41 2.38 0 1.32-1.08 2.38-2.41 2.38Zm56.4 6.03v29.51c1.61.17 2.78 1.58 2.6 3.14-.15 1.33-1.23 2.37-2.6 2.52H2377v-41h34.99c1.66 0 3.01 1.3 3.01 2.91s-1.35 2.92-3.01 2.92Z"/>
    <path fill="#FFF" fill-opacity=".302" d="M2411.99 1144.83v29.51c1.61.17 2.78 1.58 2.6 3.14-.15 1.33-1.23 2.37-2.6 2.52H2377v-41h34.99c1.66 0 3.01 1.3 3.01 2.91s-1.35 2.92-3.01 2.92Z"/>
    <path fill="#407BFF" d="M2385 1145h27v29h-27Z"/>
    <path fill="#FFF" fill-opacity=".6" d="M2385 1145h27v29h-27Z"/>
    <path fill="#407BFF" d="M2391 1142h-147.47c-6.39 0-11.53 7.82-11.53 17.5s5.14 17.5 11.53 17.5H2391Z"/>
    <path fill="#FFF" fill-opacity=".902" d="M2391 1142h-147.47c-6.39 0-11.53 7.82-11.53 17.5s5.14 17.5 11.53 17.5H2391Z"/>
    <path fill="#407BFF" d="M2390.43 1179.76c-30.22 0-115.1.55-145.32 0-20.62-.38-21.79-39.93-1.51-41.33 14.16-.96 28.71 0 42.87 0h103.96a2.88 2.88 0 0 1 2.55 3.18 2.872 2.872 0 0 1-2.55 2.54h-140.54c-6.63 0-11.34 0-13.92 7.89-2.2 6.86-1.51 20.58 7.56 21.99 1.03.08 2.07.08 3.1 0h143.8a2.88 2.88 0 0 1 2.55 3.18 2.891 2.891 0 0 1-2.55 2.55Z"/>
    <path d="M2390.43 1179.76c-30.22 0-115.1.55-145.32 0-20.62-.38-21.79-39.93-1.51-41.33 14.16-.96 28.71 0 42.87 0h103.96a2.88 2.88 0 0 1 2.55 3.18 2.872 2.872 0 0 1-2.55 2.54h-140.54c-6.63 0-11.34 0-13.92 7.89-2.2 6.86-1.51 20.58 7.56 21.99 1.03.08 2.07.08 3.1 0h143.8a2.88 2.88 0 0 1 2.55 3.18 2.891 2.891 0 0 1-2.55 2.55Z"/>
    <path fill="#263238" d="m2641.23 1270.1-199.78.9c-5.11.11-9.34-3.94-9.45-9.03-.01-.43.01-.85.06-1.27l10.6-127.51c.55-5.74 5.32-10.16 11.11-10.3l199.78-.89c5.11-.11 9.34 3.94 9.45 9.03.01.43-.01.85-.06 1.27l-10.6 127.51c-.55 5.74-5.32 10.16-11.11 10.29Z"/>
    <path fill="#407BFF" d="M2640.36 1260.07 2438 1261l10.64-129.1 202.36-.9-10.64 129.07Z"/>
    <path fill="#407BFF" d="m2637.23 1270.1-199.77.9c-5.09.13-9.33-3.88-9.46-8.96-.01-.45.01-.9.07-1.34l10.59-127.51c.56-5.74 5.33-10.16 11.11-10.3l199.78-.89c5.11-.11 9.34 3.94 9.45 9.03.01.43-.01.85-.06 1.27l-10.6 127.5c-.55 5.75-5.32 10.17-11.11 10.3Z"/>
    <path fill="#407BFF" d="M2638.32 1258.11 2436 1259l10.64-128.11L2649 1130l-10.68 128.11Z"/>
    <path fill="#FFF" fill-opacity=".902" d="m2630.05 1258.18-183.02.82c-5.52.02-10.01-4.42-10.03-9.91 0-.29.01-.58.03-.86l9.03-108.28c.43-5.15 4.74-9.11 9.92-9.13l182.99-.82c5.5-.04 9.99 4.37 10.03 9.84 0 .31-.01.62-.04.93l-9.02 108.32c-.43 5.12-4.73 9.07-9.89 9.09Z"/>
    <path fill="#FFF" fill-opacity=".102" d="M2606.31 1122.07 2568 1270l13.1-.07L2619 1122l-12.69.07Zm20.68.07L2588 1270l26.45-.1L2653 1122l-26.01.14Z"/>
    <path fill="#407BFF" d="m2574.34 1269 67.52.63c.89 8.39-2.59 11.41-6.89 11.37l-247.15-.4c-5.43-.03-9.82-4.73-9.82-10.53Z"/>
    <path fill="#FFF" fill-opacity=".2" d="m2574.34 1269 67.52.63c.89 8.39-2.59 11.41-6.89 11.37l-247.15-.4c-5.43-.03-9.82-4.73-9.82-10.53Z"/>
    <path fill="#FFF" fill-opacity=".2" d="M2641.86 1269.48c.9 8.5-2.6 11.56-6.93 11.52H2566c5.65 0 12.85-5.89 12.85-12Z"/>
    <path fill="#407BFF" d="M2655 1149c5.08-4.1 11.47-6.22 17.99-5.97 6.48.25 12.81 1.99 18.51 5.1.53-8.39 1.03-16.78 1.5-25.16.38-6.12-28.26-6.75-31.77-5.35-9.26 3.6-4.7 22.71-6.23 31.38Z"/>
    <path fill="#FFF" fill-opacity=".902" d="M2655 1149c5.08-4.1 11.47-6.22 17.99-5.97 6.48.25 12.81 1.99 18.51 5.1.53-8.39 1.03-16.78 1.5-25.16.38-6.12-28.26-6.75-31.77-5.35-9.26 3.6-4.7 22.71-6.23 31.38Z"/>
    <path fill="#407BFF" d="M2652 1167a45.354 45.354 0 0 1 17.52-2.99c6.09.1 12.14.96 18.02 2.55.51-4.17.98-8.37 1.46-12.57.37-3.06-27.51-3.37-30.94-2.69-9.01 1.81-4.57 11.36-6.06 15.7Z"/>
    <path fill="#FFF" fill-opacity=".902" d="M2652 1167a45.354 45.354 0 0 1 17.52-2.99c6.09.1 12.14.96 18.02 2.55.51-4.17.98-8.37 1.46-12.57.37-3.06-27.51-3.37-30.94-2.69-9.01 1.81-4.57 11.36-6.06 15.7Z"/>
    <path fill="#407BFF" d="M2650 1190a44.626 44.626 0 0 1 18.01-3.18c6.25.11 12.46 1.03 18.49 2.72.49-4.47.98-8.9 1.5-13.37.34-3.25-28.23-3.57-31.78-2.86-9.21 1.93-4.66 12.08-6.22 16.69Z"/>
    <path fill="#FFF" fill-opacity=".902" d="M2650 1190a44.626 44.626 0 0 1 18.01-3.18c6.25.11 12.46 1.03 18.49 2.72.49-4.47.98-8.9 1.5-13.37.34-3.25-28.23-3.57-31.78-2.86-9.21 1.93-4.66 12.08-6.22 16.69Z"/>
    <path fill="#407BFF" d="M2618.18 1097.67c.13-.33.33-.64.58-.9.5-.35 1.11-.51 1.72-.44l22.52-.33c-4.75 10.04-7.25 20.95-7.32 32-5.54-.23-24.76 0-24.76 0-3.71-5.75 4.85-24.71 7.26-30.33Z"/>
    <path fill="#FFF" fill-opacity=".902" d="M2618.18 1097.67c.13-.33.33-.64.58-.9.5-.35 1.11-.51 1.72-.44l22.52-.33c-4.75 10.04-7.25 20.95-7.32 32-5.54-.23-24.76 0-24.76 0-3.71-5.75 4.85-24.71 7.26-30.33Z"/>
    <path fill="#407BFF" d="M2580.18 1094.76c.12-.36.32-.69.58-.97.5-.33 1.09-.49 1.68-.44l22.56-.35a80.342 80.342 0 0 0-7.32 33c-5.54-.24-24.76 0-24.76 0-3.71-5.9 4.85-25.45 7.26-31.24Z"/>
    <path fill="#FFF" fill-opacity=".902" d="M2580.18 1094.76c.12-.36.32-.69.58-.97.5-.33 1.09-.49 1.68-.44l22.56-.35a80.342 80.342 0 0 0-7.32 33c-5.54-.24-24.76 0-24.76 0-3.71-5.9 4.85-25.45 7.26-31.24Z"/>
    <path fill="#407BFF" d="M2548.55 1094.39c.08-.33.2-.65.37-.94.27-.31.68-.48 1.09-.45H2564a124.19 124.19 0 0 0-5.12 33c-3.38-.31-15.38 0-15.38 0-2.2-6.33 3.46-25.97 5.05-31.61Z"/>
    <path fill="#FFF" fill-opacity=".902" d="M2548.55 1094.39c.08-.33.2-.65.37-.94.27-.31.68-.48 1.09-.45H2564a124.19 124.19 0 0 0-5.12 33c-3.38-.31-15.38 0-15.38 0-2.2-6.33 3.46-25.97 5.05-31.61Z"/>
    <path d="M2448.89 1123.6a34.18 34.18 0 0 1-3.99 13.14 93.959 93.959 0 0 1-8.9 14.63c17.24.34 30.27 1.12 36.75.2 6.75-9.13 9.52-20.47 7.71-31.57-10.2 2.92-22.6.61-33.14 3.09Z"/>
    <path fill="#407BFF" d="M2449.44 1120c-1.1 4.63-3.05 9.02-5.73 12.95A101.58 101.58 0 0 1 2433 1147c11.95 1.16 23.97 1.31 35.94.45 7.98-8.66 11.5-17.18 11.02-27.24-11.9 0-30.52-.21-30.52-.21Z"/>
    <path fill="#FFF" d="M2449.44 1120c-1.1 4.63-3.05 9.02-5.73 12.95A101.58 101.58 0 0 1 2433 1147c11.95 1.16 23.97 1.31 35.94.45 7.98-8.66 11.5-17.18 11.02-27.24-11.9 0-30.52-.21-30.52-.21Z"/>
    <path d="M2495.6 1120.17a45.286 45.286 0 0 1-3.9 15.19c-2.43 5.89-5.34 11.55-8.7 16.94 16.88.35 29.59 1.26 35.92.21 6.66-10.87 9.33-23.81 7.53-36.51-9.96 3.51-22.08.7-32.36 3.51Z"/>
    <path fill="#407BFF" d="M2495.42 1116a44.602 44.602 0 0 1-5.74 14.31c-3.12 5.49-6.7 10.7-10.68 15.61 11.94 1.26 23.97 1.42 35.94.47a42.056 42.056 0 0 0 11.02-30.19c-11.84 0-30.54-.2-30.54-.2Z"/>
    <path fill="#FFF" d="M2495.42 1116a44.602 44.602 0 0 1-5.74 14.31c-3.12 5.49-6.7 10.7-10.68 15.61 11.94 1.26 23.97 1.42 35.94.47a42.056 42.056 0 0 0 11.02-30.19c-11.84 0-30.54-.2-30.54-.2Z"/>
    <path fill="#407BFF" d="M2821 1280h-56l17.57-56.69 2.54-8.31h12.69l23.2 65Z"/>
    <path fill-opacity=".2" d="M2821 1280h-56l17.57-56.69 2.54-8.31h12.69l23.2 65Z"/>
    <path fill="#E0E0E0" d="m2786 1215-2.57 8.31-17.74 56.69-52.28-.76-16.81-55.93-2.6-8.31h92Z"/>
    <path fill="#407BFF" d="m2786 1215-2.55 8.31-17.65 56.69-106.8-1.55 22.76-63.45H2786Z"/>
    <path fill="#FFF" fill-opacity=".8" d="m2786 1215-2.55 8.31-17.65 56.69-106.8-1.55 22.76-63.45H2786Z"/>
    <path fill="#407BFF" d="m2786 1215-2.55 9H2679l2.93-9H2786Zm-91.03 35H2672l8.02-23 21.98.24Zm-20.3-1.89h18.94l5.85-18.98-18.13-.2Zm46.3 1.89H2698l8.02-23 21.98.24Zm-20.3-1.89h18.94l5.82-18.98-18.1-.2Zm46.32 1.89H2724l8.02-23 21.98.24Zm-20.32-1.89h18.97l5.85-18.98-18.11-.2Zm46.19 1.89H2750l8.02-23 21.98.24Zm-20.32-1.89h18.96l5.86-18.98-18.12-.2Zm-65.77 26.89H2663l8.28-23 22.72.24Zm-20.97-1.89h19.57l6.04-18.98-18.73-.2Zm46.93 1.89H2689l8.28-23 22.72.24Zm-20.97-1.89h19.57l6.01-18.98-18.69-.2Zm47.2 1.89H2716l8.02-23 21.98.24Zm-20.32-1.89h18.96l5.86-18.98-18.11-.2Zm46.35 1.89H2742l8.02-23 21.98.24Zm-20.31-1.89h19.02l5.86-18.98-18.11-.2Z"/>
    <path fill="#407BFF" d="M2693 1249c-.61-3.85-1.59-7.64-2.94-11.32-.76-1.89-8.51-13.51-10.03-6.4-.45 2.09 4.15 7.17 5.4 8.86 2.29 3.13 4.82 6.09 7.57 8.86Z"/>
    <path fill="#407BFF" d="M2676.12 1244.11c-.24.74-.17 1.86.59 1.89.27-.01.54-.1.75-.28 4.71-3.14 8.24-7.96 13.26-10.48 2.43-.78 4.6-2.23 6.28-4.19-1.38-.16-2.79.07-4.05.67-6.46 2.44-14.32 5.13-16.83 12.39ZM2745 1250a62.91 62.91 0 0 0-2.94-11.88c-.76-1.99-8.47-14.19-10.03-6.73-.45 2.2 4.15 7.53 5.4 9.31 2.29 3.28 4.82 6.39 7.57 9.3Z"/>
    <path fill="#407BFF" d="M2728.09 1245.12c-.24.73 0 1.85.59 1.88.27-.01.54-.1.75-.28 4.71-3.14 8.26-7.96 13.28-10.47 2.42-.8 4.6-2.25 6.29-4.19-1.39-.18-2.8.05-4.06.66-6.46 2.31-14.34 5-16.85 12.4Zm-19.06-6.98c4.65 2.43 8.48 6.22 10.97 10.86a49.133 49.133 0 0 0-6.81-17.18c-5.12-7.76-10.84 2.55-4.16 6.32Zm50 0c4.65 2.43 8.48 6.22 10.97 10.86a48.961 48.961 0 0 0-6.82-17.18c-5.11-7.76-10.83 2.55-4.15 6.32Z"/>
    <path fill="#407BFF" d="M2712.72 1235.04c-3.4 1.41-6.24 3.9-8.11 7.1-.63 1.1-.98 2.7 0 3.55.98.85 2.77-.21 3.83-1.28 2.38-2.41 12.63-8.38 12.56-11.4-2.89-.11-5.76.59-8.28 2.03Zm53.01-.01a16.91 16.91 0 0 0-8.13 7.11c-.6 1.1-.98 2.7 0 3.55.99.85 2.75-.21 3.8-1.28 2.4-2.41 12.67-8.38 12.6-11.4-2.89-.1-5.75.6-8.27 2.02Z"/>
    <path fill="#263238" d="M2689.86 1261.2c-1.83-11.35-15.62-11.96-21.37-3.13a16.583 16.583 0 0 0-2.39 7.34c-.22 1.66-.08 3.34.42 4.93 1.64 3.76 5.59 6.03 9.73 5.61 4.05-.5 7.76-2.48 10.39-5.54 1.59-1.52 2.69-3.47 3.15-5.61.25-1.18.28-2.4.07-3.6Zm-4.19 7.88a10.12 10.12 0 0 1-3.46 3.17 11.188 11.188 0 0 1-8.28 1.86c-3.25-.7-5.81-3.15-6.61-6.32-.73-5.1 3.88-13.12 10.7-13.12 9.63 0 11.32 8.43 7.65 14.41Zm-459.84-83.03L2312 1448h-188.43L2091 1172h115.39c8.85 0 16.7 5.67 19.44 14.05Z"/>
    <path fill="#263238" d="M2254.89 1415h186.54c8.61 0 15.57 8.98 15.57 20.07v13.86c0 11.09-6.89 20.07-15.57 20.07h-286.44l-14.99-52.34Z"/>
    <path fill="#FFF" d="M2254.89 1415h186.54c8.61 0 15.57 8.98 15.57 20.07v13.86c0 11.09-6.89 20.07-15.57 20.07h-286.44l-14.99-52.34Z"/>
    <path fill="#263238" d="m2106.47 1187.33 24.11 210.44c1.94 16.67 16.1 29.25 32.92 29.24h129.9c8.62 0 15.6 6.97 15.6 15.57v10.85c0 8.6-6.98 15.57-15.6 15.57h-157.14c-17.03-.01-31.28-12.89-32.96-29.79l-25.24-254.87c-.63-6.16 3.86-11.66 10.03-12.28.39-.04.77-.06 1.16-.06 8.83-.05 16.27 6.57 17.22 15.33Z"/>
    <path fill="#FFF" fill-opacity=".302" d="m2106.47 1187.33 24.11 210.44c1.94 16.67 16.1 29.25 32.92 29.24h129.9c8.62 0 15.6 6.97 15.6 15.57v10.85c0 8.6-6.98 15.57-15.6 15.57h-157.14c-17.03-.01-31.28-12.89-32.96-29.79l-25.24-254.87c-.63-6.16 3.86-11.66 10.03-12.28.39-.04.77-.06 1.16-.06 8.83-.05 16.27 6.57 17.22 15.33Z"/>
    <path fill="#407BFF" d="M2155 1719c0 8.28-6.72 15-15 15-8.28 0-15-6.72-15-15 0-8.28 6.72-15 15-15 8.28 0 15 6.72 15 15Zm223 0c0 8.28 6.72 15 15 15 8.28 0 15-6.72 15-15 0-8.28-6.72-15-15-15-8.28 0-15 6.72-15 15Zm-126-5c0 8.28 6.72 15 15 15 8.28 0 15-6.72 15-15 0-8.28-6.72-15-15-15-8.28 0-15 6.72-15 15Z"/>
    <path fill="#263238" d="M2410.84 1693.78a6.867 6.867 0 0 1-6.67 5.99l-141.68-2.19-132.64 3.42c-3.41-.08-6.25-2.62-6.67-5.98-.85-3.82 1.42-7.63 5.19-8.72l72.46-15.91c7.48-1.58 15.11-2.38 22.76-2.39h77.86c7.65.01 15.28.81 22.76 2.39l81.4 14.71a7.443 7.443 0 0 1 5.23 8.68Z"/>
    <path fill="#FFF" d="M2410.84 1693.78a6.867 6.867 0 0 1-6.67 5.99l-141.68-2.19-132.64 3.42c-3.41-.08-6.25-2.62-6.67-5.98-.85-3.82 1.42-7.63 5.19-8.72l72.46-15.91c7.48-1.58 15.11-2.38 22.76-2.39h77.86c7.65.01 15.28.81 22.76 2.39l81.4 14.71a7.443 7.443 0 0 1 5.23 8.68Z"/>
    <path fill="#263238" d="M2239 1531h48v137h-48Zm7-63h34v63h-34Z"/>
    <path fill-opacity=".302" d="m2246 1486.35 34 9.65v-28h-34v18.35Z"/>
    <path fill="#263238" d="M2155 1719c0 8.28-6.72 15-15 15-8.28 0-15-6.72-15-15 0-8.28 6.72-15 15-15 8.28 0 15 6.72 15 15Zm223 0c0 8.28 6.72 15 15 15 8.28 0 15-6.72 15-15 0-8.28-6.72-15-15-15-8.28 0-15 6.72-15 15Zm-126-5c0 8.28 6.72 15 15 15 8.28 0 15-6.72 15-15 0-8.28-6.72-15-15-15-8.28 0-15 6.72-15 15Z"/>
    <path fill="#0070C0" d="M1664.14 1221.64s-27.02 34.21-22.66 92.67c4.35 58.46 120.61 25.35 120.61 25.35s50.54-73.17 81.91-81.24l-27.87-28.88c-19.44 1.17-33.88-19.73-151.99-7.9Z"/>
    <path fill="#FFB573" d="M1774 1001.57c7.8 18.4 15.94 36.18 24.63 54.07 8.69 17.88 17.56 35.52 27.48 53.27l3.99 6.86c2.51 4.32 5.84 8.1 9.82 11.12 6.36 4.7 13.76 7.77 21.58 8.96 11.62 1.73 23.45 1.51 35-.65 20.56-3.67 40.55-9.97 59.5-18.74l-6.87-20.59-14.05 2.23c-4.74.72-9.48 1.13-14.15 1.82-9.18 1.14-18.41 1.8-27.66 1.99-8.03.35-16.07-.46-23.87-2.41-1.94-.41-3.73-1.33-5.19-2.67 0-.24.31 0 .31 0l-2.89-6.08c-7.9-17.37-15.8-35.46-23.63-53.2-7.83-17.75-15.91-35.84-24.05-53.55Z"/>
    <path fill="#FFB573" d="M1981.13 1113.93a19.2 19.2 0 0 0 6.97-3.1c7.5-6.97 3.07-18.74-3.97-26.19-.28-.32-8.17-7.56-8.48-7.87-7.57-6.97-11.76.52-18.7 8.08l-13.95 15.08 8.55 18.07c7.82-.03 15.62-.88 23.26-2.54 1.78-.35 3.98-.87 6.32-1.53Z"/>
    <path fill="#FF0083" d="M1831.71 994.012c15.85 24.418 13.11 56.738 13.11 56.738l-38.15 8.25s-42.48-44.24-34.72-65.775c8.61-23.763 42.99-25.098 59.76.787Z"/>
    <path fill-opacity=".2" d="m1806.48 1059 24.52-5.21a218.85 218.85 0 0 0-23.27-47.37c-14.53-21.134-24.94-27.225-36.49-21.236-3.64 29.336 35.24 73.816 35.24 73.816Z"/>
    <path fill="#FF0083" d="M1700.28 971.577c-3.9.377-43.19 9.944-33.3 47.183 41.07 146.01 14.75 133.74-2.98 202.32l151.73 7.92s-10.26-104.83-3.62-123.45c11.36-31.31 10.09-54.14-1.48-85.55-12.76-34.673-17.69-44.068-17.69-44.068-14.45-3.19-63.02-15.5-92.66-4.355Z"/>
    <path fill-opacity=".2" d="M1706.72 1084c-2.14-18.31-33.03-87.707-26.92-96.181 4.76-2.485 26.36.306 38.41 13.611 27.43 63.37-11.49 82.57-11.49 82.57Z"/>
    <path fill="#E29471" d="m1632 1682.54-78.57 58.46c-3.21-1.5-26.43-26.77-26.43-26.77l68.11-57.23Z"/>
    <path fill="#407BFF" d="M1558.16 1748.49c-.21-.34-.21-.78 0-1.12.28-.33.72-.45 1.13-.32.67.21 16.8 5.55 20.06 12.04.68 1.19.83 2.61.42 3.93a3.755 3.755 0 0 1-3.22 2.94c-2.9.43-7.07-2.94-10.61-7.01a72.03 72.03 0 0 1-7.78-10.46Zm18.54 9.97a44.664 44.664 0 0 0-15.08-8.64c4.39 6.49 11.61 14.39 14.97 14.04.46 0 1.06-.28 1.52-1.65.24-.79.15-1.63-.25-2.35-.32-.56-.7-1.09-1.13-1.58Z"/>
    <path fill="#407BFF" d="M1559 1747.69c.03-.35.23-.66.54-.82.41-.23 9.2-6.81 15.82-5.76 1.89.38 3.54 1.49 4.6 3.11 1.24 1.2 1.39 3.15.34 4.53-2.87 3.64-15.82 2.28-20.73 0l-.33-.24Zm15.96-4.53c-4.63.07-9.12 1.6-12.85 4.36 5.61 1.71 15.32 2.15 16.91 0 0-.2.57-.71-.41-2.11l-.51-.34a4.853 4.853 0 0 0-3.14-1.91Z"/>
    <path fill="#263238" d="m1560.36 1738.25-6.9-3.23c-7.6-3.59-13.28-10.26-15.56-18.31l-2.7-9.4a3.457 3.457 0 0 0-4.41-.86l-30.71 14.58c-2.96 1.64-1.96 9.02-1.72 9.29 13.49 20.38 45.61 61.75 56.79 74.96 11.17 13.2 25.73 3.97 22.35-2.44-15.11-28.68-15.45-43.98-14.97-57.53.18-2.54-.59-5.06-2.17-7.06Z"/>
    <path fill="#0070C0" d="M1641.05 1314.88a90.929 90.929 0 0 0-.48 21.62c2.95 38.08 27.03 163.21 33.54 211.53a28.647 28.647 0 0 1-10.97 25.57c-22.02 19.01-60.99 44.68-105.14 107.54.55 27.49 3.22 30.93 28.13 40.86 0 0 125.17-94.61 144.62-122.35 28.64-40.9 29.29-214.14 30.87-259.3.93-25.64 1.72-56.19-17.63-72.69-10.77-9.28-95.67-23.03-102.94 47.22Z"/>
    <path fill="#E29471" d="m2113.2 1595.8 34.8 91.99c-2.32 2.59-29.5 26.02-33.19 17.26C2103.46 1678.58 2053 1592 2053 1592Z"/>
    <path fill="#407BFF" d="M2153.44 1683.85c-.35.2-.78.2-1.13 0-.27-.31-.37-.74-.27-1.14.27-.65 5.91-16.19 12.34-19.16a4.78 4.78 0 0 1 3.83-.27 3.61 3.61 0 0 1 2.77 3.2c.34 2.83-3.08 6.69-7.15 10.06-3.23 2.76-6.7 5.21-10.39 7.31Zm10.26-17.71a42.853 42.853 0 0 0-8.72 14.4c6.43-4.1 14.36-10.89 14.12-14.16 0-.42-.28-1.04-1.58-1.52a2.99 2.99 0 0 0-2.29.17c-.56.31-1.1.67-1.6 1.07Z"/>
    <path fill="#407BFF" d="M2152.3 1684a.977.977 0 0 1-.82-.6c-.25-.42-6.56-9.82-5.32-16.7a7.498 7.498 0 0 1 3.28-4.7 3.4 3.4 0 0 1 4.59-.21c3.45 3.11 1.79 16.6-.59 21.65l-.24.35Zm-3.96-16.88a23.35 23.35 0 0 0 4 13.53c1.9-5.76 2.66-15.89.41-17.66-.2 0-.72-.6-2.17.36l-.35.53c-1.02.78-1.7 1.95-1.89 3.24Z"/>
    <path fill="#263238" d="m2147.92 1680.78-36.75 14.96c-1.57.63-2.46 2.33-2.09 4l4.99 33.84c.72 3.47 8.04 4.55 8.38 4.41 23.35-6.94 72.06-25.65 87.89-32.46 15.83-6.8 11.21-23.6 4.14-22.25-31.73 6.04-46.39 1.88-59.18-2.6-2.38-.94-5.03-.9-7.38.1Z"/>
    <path fill="#0070C0" d="M1907.5 1444.17c8.94 6.22 17.39 12.2 25.05 17.81 69.18 50.75 108.59 142.5 136.65 192.57 25.53 12.48 61.01-12.31 71.8-19.95 0 0-75.58-160.48-100.89-195.39-61.36-84.11-122.33-139.26-216.43-192.05a78.944 78.944 0 0 0-80 1.48 138.81 138.81 0 0 0-26.63 20.05c-3.43 3.71-9.69 25 19.24 53.95 25.94 26 110.31 79.37 171.08 121.63"/>
    <path fill-opacity=".102" d="M1762.12 1339.96c-6.06-10.72 2.8-46.96 2.8-46.96s118.36 113.78 124.08 137l-101.68-68.5Z"/>
    <path fill="#0070C0" d="M1999.28 1559a1.79 1.79 0 0 1-1.44-.75c-3.41-5.4-7.04-10.63-10.53-15.54-.54-.78-.36-1.85.41-2.4.78-.54 1.85-.36 2.4.41 3.42 4.99 7.07 10.25 10.6 15.65.51.77.31 1.81-.46 2.32-.02.01-.04.03-.06.04-.26.19-.59.28-.92.27Zm-21.97-31c-.53.01-1.04-.24-1.38-.66a279.758 279.758 0 0 0-55.16-55.35c-7.21-5.3-15.41-11.15-25.1-17.89-.75-.59-.89-1.67-.31-2.43.54-.7 1.52-.88 2.27-.41 9.73 6.92 17.93 12.63 25.17 17.96a282.989 282.989 0 0 1 55.79 55.84c.61.71.53 1.78-.17 2.39-.33.28-.75.43-1.18.41Zm-221.67 63h-.49c-.86-.31-1.34-1.3-1.08-2.24.95-3.17 1.83-6.69 2.71-10.42.22-.96 1.11-1.53 1.99-1.28.86.22 1.39 1.16 1.19 2.1 0 .01-.01.02-.01.03-.88 3.81-1.8 7.4-2.74 10.67-.26.7-.88 1.15-1.57 1.14Zm-62.93 70.99c-.51 0-1-.22-1.33-.62-.59-.74-.48-1.81.24-2.42 28.85-24.06 46.57-40.74 52.76-49.55 1.26-1.75 2.4-3.58 3.4-5.49.45-.83 1.48-1.15 2.32-.72.82.44 1.14 1.46.71 2.29-.99 2.04-2.13 4.01-3.4 5.9-6.33 9.04-24.29 25.93-53.34 50.2-.37.32-.87.47-1.36.41Z"/>
    <path fill="#FFB573" d="M1736.03 917c.68 18.376 0 44.904-14.02 55.06 0 0-2.14 18.375 44.65 45.94 21.94-23.316 10.21-37.236 10.21-37.236-18.98-7.876-17.01-15.924-11.67-29.292Z"/>
    <path fill-opacity=".2" d="m1747.79 931 17.21 20.501a55.016 55.016 0 0 0-3.24 9.499c-7.47-2.255-18.42-10.524-18.76-18.963a23.763 23.763 0 0 1 4.79-11.037Z"/>
    <path fill="#FFB573" d="M1672 996.285c3.02 22.735 28.12 120.095 33.23 131.205.73 1.51 1.45 3.06 2.3 4.6.86 1.55 1.68 3.13 2.75 4.78l1.57 2.55c.76 1.07 1.51 2.2 2.3 3.13a58.72 58.72 0 0 0 4.8 5.29 69.53 69.53 0 0 0 19.49 12.59c11.56 5 23.71 8.52 36.15 10.49 22.86 3.79 46.08 4.95 69.21 3.44l1.2-24.07-15.67-3.44c-5.25-1.17-10.46-2.51-15.64-3.72-10.29-2.58-20.58-5.29-30.26-8.56-9.19-2.79-23.83-6.88-32.24-11.42a29.79 29.79 0 0 1-7.68-6.19c-.23-.3-.44-.62-.62-.96a1.31 1.31 0 0 1 0-.28l-.51-.99c-.41-.83-.79-1.69-1.13-2.55-.34-.86-25.69-104.17-29.16-125.18Z"/>
    <path fill="#FFB573" d="M1841 1152.05c4.95-6.22 10.62-11.83 16.89-16.72a20.41 20.41 0 0 1 9.81-4.36c11.26-1.74 23.15-3.47 23.56 17.16 0 .52 2.65 9.26 2.68 9.75.97 11.33-9.94 13.07-21.31 14.04l-30.34 2.08Z"/>
    <path fill="#FF0083" d="M1729.73 995.894c10.67 34.746-2.18 34.336-.9 55.526l-42.6 10.58s-23.39-19.64-26.92-44.5c-2.71-21.713 12.75-41.503 34.52-44.197 4.04-.501 8.13-.38 12.12.36 11.64 2.057 20.97 10.777 23.78 22.231Z"/>
    <path fill="#407BFF" d="m1835.43 1048.49 11.61-2.56.75 3.35-11.62 2.57Zm141.57 53.48c-9.25 10.79-9.61 26.68-.86 37.89l.86 1.11v6.03h-192v-52h192Z"/>
    <path fill-opacity=".102" d="M1977 1101.97c-9.23 10.79-9.59 26.68-.86 37.89l.86 1.11v6.03h-84v-52h84Z"/>
    <path fill="#263238" d="m1976.07 1139.89.86 1.11H1902v-39h75c-9.24 10.79-9.6 26.68-.86 37.89Z"/>
    <path fill="#FFF" fill-opacity=".902" d="m1976.07 1139.89.86 1.11H1902v-39h75c-9.24 10.79-9.6 26.68-.86 37.89Z"/>
    <path fill="#FFF" d="M1887 1122.5c0 5.8-4.7 10.5-10.5 10.5s-10.5-4.7-10.5-10.5 4.7-10.5 10.5-10.5 10.5 4.7 10.5 10.5Z"/>
    <path fill="#263238" d="M1884 1122.5c0 4.69-3.58 8.5-8 8.5s-8-3.81-8-8.5c0-4.69 3.58-8.5 8-8.5s8 3.81 8 8.5Z"/>
    <path fill="#FFF" d="M1791 1107h44v28h-44Zm47 0h19v28h-19Z"/>
    <path fill="#263238" d="M1902 1135.9v-3.38c5.84.79 11.26-3.06 12.09-8.59.84-5.54-3.23-10.66-9.07-11.45-1-.14-2.02-.14-3.02 0v-3.38c7.82-.91 14.93 4.35 15.89 11.75.96 7.4-4.59 14.14-12.4 15.05-1.16.13-2.33.13-3.49 0Z"/>
    <path fill="#FFF" d="M1902 1114h69v1h-69Zm0 2h69v1h-69Zm0 2h69v1h-69Zm0 2h69v1h-69Zm0 2h69v1h-69Zm0 2h69v1h-69Zm0 2h69v1h-69Zm0 2h69v1h-69Zm0 2h69v1h-69Z"/>
    <path fill="#407BFF" d="M1998 1049.98a28.79 28.79 0 0 0-.86 37.04l.86 1.08v5.9h-192v-51h192Z"/>
    <path fill-opacity=".102" d="M1998 1049.98a28.839 28.839 0 0 0-.86 37.04l.86 1.08v5.9h-84v-51h84Z"/>
    <path fill="#263238" d="m1997.14 1086.92.86 1.08h-75v-38h75c-9.24 10.52-9.6 26-.86 36.92Z"/>
    <path fill="#FFF" fill-opacity=".902" d="m1997.14 1086.92.86 1.08h-75v-38h75c-9.24 10.52-9.6 26-.86 36.92Z"/>
    <path fill="#FFF" d="M1907 1070c0 5.52-4.48 10-10 10s-10-4.48-10-10 4.48-10 10-10 10 4.48 10 10Z"/>
    <path fill="#263238" d="M1905 1070c0 4.42-3.58 8-8 8s-8-3.58-8-8 3.58-8 8-8 8 3.58 8 8Z"/>
    <path fill="#FFF" d="M1812 1054h44v29h-44Zm46 0h20v29h-20Z"/>
    <path fill="#263238" d="M1923 1084v-3.53c5.6-.82 9.5-6.18 8.7-11.96-.64-4.66-4.19-8.32-8.7-8.98V1056c7.49.95 12.82 7.99 11.9 15.72-.77 6.43-5.67 11.49-11.9 12.28Z"/>
    <path fill="#FFF" d="M1923 1061h69v2h-69Zm0 2h69v2h-69Zm0 2h69v2h-69Zm0 2h69v2h-69Zm0 2h69v2h-69Zm0 2h69v2h-69Zm0 2h69v2h-69Zm0 2h69v2h-69Zm0 2h69v2h-69Z"/>
    <path fill="#263238" d="M1730.28 814.894c-.22-18.692-28.78-111.509-113.63-57.832-63.06 39.897-12.85 120.122-76.3 152.773 0 0 114.22 13.012 124.27-62.228 7.87-59.39 49.78-22.241 49.78-22.241Z"/>
    <path fill="#FF0083" d="M1716.88 837.42c-5.41-2.315-10.36-11.023-7.68-13.623 2.69-2.601 18.02-13.083 23.06-13.864 5.74-.92 9.23 12.499 9.23 12.499Z"/>
    <path fill="#263238" d="M1805.11 835.983c6.02 10.967 20.1 49.298-4.08 67.01-24.18 17.712 4.08-67.01 4.08-67.01Z"/>
    <path fill="#CE6F64" d="m1738.57 936.461 24.39 19.853a66.522 66.522 0 0 0-1.75 11.74c-9.06-1.116-22.88-8.879-24.05-18.284-.32-4.483.16-8.989 1.41-13.309Z"/>
    <path fill="#FFB573" d="M1715.57 874.444c-.4 35.449-1.3 50.415 15.19 69.795 24.83 29.115 68.48 21.791 79.47-12.763 9.9-31.165 8.91-83.815-24.69-100.526-23.94-11.856-53-2.075-64.9 21.841a48.3 48.3 0 0 0-5.07 21.653Z"/>
    <path fill="#263238" d="M1718.16 902.77c15.72-7.446 36.87-34.474 34.06-48.669 0 0 40.45 11.35 54.05-5.226 11.87-14.503-36.93-46.825-75.02-26.691-41.43 21.82-33.77 62.587-13.09 80.586Z"/>
    <path fill="#FFB573" d="M1707.79 905.842a25.923 25.923 0 0 0 8.18 18.007c6.71 6.13 14.13 1.12 15.71-7.342 1.42-7.616-.31-19.952-8.71-22.881-6.11-1.972-12.68 1.379-14.67 7.484a11.676 11.676 0 0 0-.51 4.732Z"/>
    <path fill="#263238" d="M1768.39 888.164c-.17 2.833 1.16 5.299 3.03 5.403 1.88.103 3.57-2.059 3.79-4.907.22-2.849-1.14-5.358-3.01-5.462-1.87-.104-3.61 2.074-3.81 4.966Zm32.52 2.346c-.22 2.848 1.16 5.299 3.03 5.403 1.87.103 3.57-2.059 3.77-4.952.2-2.892-1.12-5.313-2.99-5.417-1.87-.104-3.61 2.074-3.81 4.966Z"/>
    <path fill="#263238" d="m1803.85 885.643 7.03-1.508s-3.76 5.099-7.03 1.508Z"/>
    <path fill="#FFA757" d="M1791.96 894.795a76.3 76.3 0 0 0 8.93 19.039 12.53 12.53 0 0 1-10.4 1.223Z"/>
    <path fill="#263238" d="m1779.84 925.56-.31.106a24.16 24.16 0 0 1-19.28-11.102.893.893 0 0 1 .31-1.144.845.845 0 0 1 1.15.326c0 .009 0 .012.01.021a23.072 23.072 0 0 0 17.93 10.223c.45.027.8.413.79.868a.845.845 0 0 1-.6.702Zm-19.82-48.656a1.69 1.69 0 0 1-2.14-1.069c-.18-.56-.06-1.181.32-1.63a16.898 16.898 0 0 1 14.28-6.012c.92.12 1.58.966 1.46 1.889 0 .015-.01.027-.01.041a1.834 1.834 0 0 1-1.93 1.454 13.365 13.365 0 0 0-11.26 4.832c-.17.247-.43.42-.72.495Zm57.61-.466a1.646 1.646 0 0 1-2-.755 13.647 13.647 0 0 0-9.99-7.038 1.638 1.638 0 0 1-1.61-1.675v-.107c.08-.921.86-1.63 1.79-1.6a16.799 16.799 0 0 1 12.89 8.676c.45.81.16 1.84-.65 2.3v.003Zm-46.29 6.859 7.03-1.508s-3.9 5.145-7.03 1.508Z"/>
    <path fill="url(#b)" d="M1992.08 719.742a5.994 5.994 0 0 1-2.68 8.041 5.991 5.991 0 0 1-8.04-2.68l-11.35-22.701a5.993 5.993 0 1 1 10.72-5.361Z"/>
    <path fill="#0070C0" d="M1865 706a5.001 5.001 0 0 1 0 10h-18a5.001 5.001 0 0 1 0-10Z"/>
    <path fill="#0070C0" d="M1838 700c0-3.314 2.69-6 6-6s6 2.686 6 6v23c0 3.314-2.69 6-6 6s-6-2.686-6-6Zm23 0c0-3.314 2.69-6 6-6s6 2.686 6 6v23c0 3.314-2.69 6-6 6s-6-2.686-6-6Z"/>
    <path fill="url(#c)" d="M1881 711c0-9.941 8.06-18 18-18s18 8.059 18 18-8.06 18-18 18-18-8.059-18-18Zm11.19 0a6.81 6.81 0 0 0 6.81 6.807 6.81 6.81 0 0 0 6.81-6.807c0-3.76-3.05-6.807-6.81-6.807a6.809 6.809 0 0 0-6.81 6.807Z"/>
    <path fill="url(#d)" d="M1967.96 725.101a5.986 5.986 0 0 1-8.05 2.637 6.003 6.003 0 0 1-2.64-8.056l11.47-22.639a6 6 0 0 1 8.06-2.637 6.002 6.002 0 0 1 2.64 8.055Z"/>
    <path fill="url(#e)" d="M1921.87 702.402a5.993 5.993 0 1 1 10.72-5.361l11.35 22.701a5.994 5.994 0 0 1-2.68 8.041 5.991 5.991 0 0 1-8.04-2.68Z"/>
    <path fill="url(#f)" d="M1945.99 697.043a5.985 5.985 0 0 1 8.05-2.637 5.985 5.985 0 0 1 2.64 8.055l-11.47 22.64a5.998 5.998 0 0 1-8.06 2.637 5.99 5.99 0 0 1-2.63-8.056Z"/>
  </g>
</svg>
