<svg xmlns="http://www.w3.org/2000/svg" overflow="hidden" viewBox="0 0 270 282">
  <defs>
    <clipPath id="a">
      <path d="M2459 899h270v282h-270z"/>
    </clipPath>
  </defs>
  <g clip-path="url(#a)" transform="translate(-2459 -899)">
    <path fill="#0070C0" fill-rule="evenodd" d="m2706.1 1053.59-97.13-97.572a13.66 13.66 0 0 0-9.71-4.182h-63.82c-.87 0-1.72.052-2.58.131-3.07-7.359-9.57-12.706-17.36-14.271l-23.19-4.657c-7.34-1.452-12.9-7.535-13.71-15.015l-1.76-15.96a3.437 3.437 0 0 0-3.79-3.043 3.443 3.443 0 0 0-3.03 3.805l1.77 15.959c1.13 10.463 8.89 18.974 19.17 21.012l23.18 4.657a17.1 17.1 0 0 1 11.9 9.066c-10.99 3.991-18.33 14.455-18.37 26.197v63.763c-.1 3.71 1.42 7.28 4.16 9.76l97.12 97.58c5.33 5.48 14.08 5.59 19.54.23l.23-.23 77.38-77.71c5.2-5.46 5.2-14.07 0-19.52Zm-4.85 14.64-77.36 77.71a6.94 6.94 0 0 1-9.85.23 2.39 2.39 0 0 1-.22-.23l-97.12-97.56-.17-.17-.17-.15a5.959 5.959 0 0 1-1.82-4.58v-63.767c.03-8.712 5.4-16.505 13.5-19.606l1.69 8.463a13.393 13.393 0 0 0-3.02 2.222c-5.35 5.387-5.34 14.111.02 19.485 5.36 5.375 14.05 5.364 19.4-.023 5.34-5.388 5.33-14.112-.03-19.486a13.683 13.683 0 0 0-9.69-4.024h-.05l-1.59-8.005c.22 0 .44-.031.66-.031h63.83a6.83 6.83 0 0 1 4.86 2.163l97.11 97.579c2.52 2.76 2.52 7 0 9.77Zm-163.48-94.452c3.75.716 6.21 4.352 5.5 8.122-.71 3.77-4.33 6.246-8.08 5.53-3.76-.716-6.22-4.352-5.51-8.122.23-1.195.76-2.31 1.55-3.232l.56 2.828a3.44 3.44 0 0 0 4.05 2.69 3.438 3.438 0 0 0 2.68-4.054Z"/>
    <text fill="#00B0F0" font-family="Rubik,Rubik_MSFontService,sans-serif" font-size="69" font-weight="400" transform="rotate(44.773 41.472 3592.67)">50<tspan x="84.701" y=".486">%</tspan><tspan x="-17.125" y=".086"> </tspan></text>
  </g>
</svg>
