<svg xmlns="http://www.w3.org/2000/svg" xmlns:xlink="http://www.w3.org/1999/xlink" overflow="hidden" viewBox="0 0 1176 1071">
  <defs>
    <path id="b" fill="#E0E0E0" d="M2760.26 1379.33c-6.19-10.34-16.36-1.35-16.36-1.35 1.44-19.56-16.5-32.92-16.5-32.92s20.86 0 23.75-19.95c2.89-19.94-7.25-10.67-16.81-10.81-9.55-.14-19.55 27.83-6.87 43.57 12.68 15.74 9.21 42.61-19.9 68.44a57.393 57.393 0 0 0-15.19 23.76c2.2-23.73 3.44-57.17-3.44-79.49-11.82-37.89 10.73-48.22 17.19-67.1 6.46-18.87-17.19-34.99-17.19-34.99s22.38-10.33 11.45-21.87c-10.93-11.54-33.48-10.09-33.48 5.16 0 15.26 15.3 21.08 15.3 21.08s17.46 18.22 17.46 27.56c0 9.33-17.46 29.89-17.46 29.89s8-17.46-8.01-18.18c-16.02-.72-21.11 20.39-14.54 29.86 6.56 9.47 17.46 1.48 17.46 1.48.68 11.06 2.35 22.03 4.98 32.79 1.65 5.48.9 26.87-.48 49.12a55.503 55.503 0 0 0-14.19-21.08c-29.12-25.83-32.48-52.7-19.87-68.44 12.61-15.74 2.61-43.71-6.87-43.57-9.49.14-19.77-9.16-16.85 10.78 2.93 19.94 23.79 19.98 23.79 19.98s-17.98 13.36-16.53 32.92c0 0-10.31-8.88-16.36 1.35-11.04 18.22 14.57 29.52 18.87 20.66 0 0 54.27 38.51 41.24 93.93l3.02 4.51c-.37 4.48-.61 7.17-.61 7.17l4.22-1.83 4.85 7.13c-.17 8.06.24 16.11 1.24 24.11l12.95-19.22c-13.09-55.42 41.25-93.93 41.25-93.93 3.95 9.03 29.52-2.3 18.49-20.52Z"/>
  </defs>
  <defs>
    <clipPath id="a">
      <path d="M2605 694h1176v1071H2605z"/>
    </clipPath>
  </defs>
  <g fill-rule="evenodd" clip-path="url(#a)" transform="translate(-2605 -694)">
    <path fill="#EBEBEB" d="M3667 1665h114v1h-114Zm-324 10h30v1h-30Zm255-41h66v1h-66Zm-991 11h149v1h-149Zm179 0h22v1h-22Zm-100 9h322v1h-322Z"/>
    <path fill="#E0E0E0" d="M2933 698h833v803h-833Z"/>
    <path fill="#F5F5F5" d="M2946 713h820v774h-820Z"/>
    <path fill="#E6E6E6" d="M2952.05 1299.47v-232.94h24.19v-30.78l54.48-25.44v-31.495h9.08v87.715h9.08v232.94h12.11v-121.03h27.24v-63.5h9.08v184.53h21.16v-69.59h15.13v-18.15h33.3v-63.51h18.16v-42.36h21.19v-63.54h9.08v63.54h21.19v42.36h18.13v63.51h33.29v18.15h15.14v69.59h18.16v-87.74h33.3v-193.58h9.08v-21.181h72.61v21.181h15.14v139.15h60.54v15.09h21.15v9.08h-21.15v54.46h63.53v-181.51h12.11v-36.27h30.27V879h9.08v139.15h21.19v36.27H3766V1487h-820v-187.53h6.05Z"/>
    <path fill="#F0F0F0" d="M3694 1064h9v9h-9Zm0 15h9v8h-9Zm0 57h9v9h-9Zm0 14h9v9h-9Zm0 15h9v8h-9Zm0 43h9v8h-9Zm0 14h9v9h-9Zm-14-100h9v8h-9Zm0 14h9v9h-9Zm0 14h9v9h-9Zm0 15h9v8h-9Zm0 14h9v9h-9Zm0 29h9v8h-9Zm0 14h9v9h-9Zm-13-158h8v9h-8Zm0 15h8v8h-8Zm0 14h8v9h-8Zm0 14h8v9h-8Zm0 15h8v8h-8Zm0 14h8v9h-8Zm0 14h8v9h-8Zm0 15h8v8h-8Zm0 14h8v9h-8Zm0 15h8v8h-8Zm0 28h8v9h-8Zm-14-158h9v9h-9Zm0 15h9v8h-9Zm0 14h9v9h-9Zm0 14h9v9h-9Zm0 15h9v8h-9Zm0 14h9v9h-9Zm0 14h9v9h-9Zm0 130h9v8h-9Zm-13-216h8v9h-8Zm0 15h8v8h-8Zm0 14h8v9h-8Zm0 14h8v9h-8Zm0 15h8v8h-8Zm0 14h8v9h-8Zm0 14h8v9h-8Zm0 15h8v8h-8Zm0 86h8v9h-8Zm0 14h8v9h-8Zm0 15h8v8h-8Zm0 14h8v9h-8Zm0 58h8v8h-8Zm-14-288h8v9h-8Zm0 15h8v8h-8Zm0 14h8v9h-8Zm0 14h8v9h-8Zm0 15h8v8h-8Zm0 14h8v9h-8Zm0 14h8v9h-8Zm0 15h8v8h-8Zm0 14h8v9h-8Zm0 15h8v8h-8Zm0 43h8v8h-8Zm0 14h8v9h-8Zm0 14h8v9h-8Zm0 15h8v8h-8Zm0 14h8v9h-8Zm0 58h8v8h-8Zm-14-288h9v9h-9Zm0 15h9v8h-9Zm0 14h9v9h-9Zm0 14h9v9h-9Zm0 15h9v8h-9Zm0 14h9v9h-9Zm0 14h9v9h-9Zm0 15h9v8h-9Zm0 14h9v9h-9Zm0 15h9v8h-9Zm0 14h9v8h-9Zm0 14h9v9h-9Zm0 15h9v8h-9Zm0 14h9v9h-9Zm0 14h9v9h-9Zm0 15h9v8h-9Zm0 14h9v9h-9Zm0 14h9v9h-9Zm-13-244h8v9h-8Zm0 15h8v8h-8Zm0 14h8v9h-8Zm0 14h8v9h-8Zm0 15h8v8h-8Zm0 14h8v9h-8Zm0 14h8v9h-8Zm0 15h8v8h-8Zm0 14h8v9h-8Zm0 15h8v8h-8Zm0 43h8v8h-8Zm0 14h8v9h-8Zm0 14h8v9h-8Zm0 15h8v8h-8Zm-14-216h9v9h-9Zm0 15h9v8h-9Zm0 14h9v9h-9Zm0 14h9v9h-9Zm0 15h9v8h-9Zm0 14h9v9h-9Zm0 14h9v9h-9Zm0 15h9v8h-9Zm0 14h9v9h-9Zm0 15h9v8h-9Zm0 43h9v8h-9Zm0 14h9v9h-9Zm0 14h9v9h-9Zm-153-238h8v8h-8Zm0 14h8v9h-8Zm0 15h8v8h-8Zm0 14h8v9h-8Zm0 14h8v9h-8Zm0 15h8v8h-8Zm0 14h8v9h-8Zm0 14h8v9h-8Zm0 44h8v8h-8Zm0 14h8v8h-8Zm-14-158h9v8h-9Zm0 14h9v9h-9Zm0 15h9v8h-9Zm0 14h9v9h-9Zm0 14h9v9h-9Zm0 15h9v8h-9Zm0 14h9v9h-9Zm0 14h9v9h-9Zm0 58h9v8h-9Zm-13-158h8v8h-8Zm0 14h8v9h-8Zm0 15h8v8h-8Zm0 14h8v9h-8Zm0 14h8v9h-8Zm0 15h8v8h-8Zm0 14h8v9h-8Zm0 14h8v9h-8Zm-14-100h9v8h-9Zm0 14h9v9h-9Zm0 15h9v8h-9Zm0 14h9v9h-9Zm0 14h9v9h-9Zm0 15h9v8h-9Zm0 28h9v9h-9Zm0 15h9v8h-9Zm0 43h9v8h-9Zm0 14h9v9h-9Zm0 15h9v8h-9Zm0 14h9v9h-9Zm0 14h9v9h-9Zm0 15h9v8h-9Zm0 14h9v9h-9Zm-14-244h9v8h-9Zm0 14h9v9h-9Zm0 15h9v8h-9Zm0 14h9v9h-9Zm0 14h9v9h-9Zm0 15h9v8h-9Zm0 43h9v8h-9Zm0 14h9v9h-9Zm0 15h9v8h-9Zm0 14h9v8h-9Zm0 14h9v9h-9Zm0 15h9v8h-9Zm0 14h9v9h-9Zm0 14h9v9h-9Zm0 15h9v8h-9Zm0 14h9v9h-9Zm0 14h9v9h-9Zm0 29h9v9h-9Zm-13-287h8v8h-8Zm0 14h8v9h-8Zm0 15h8v8h-8Zm0 14h8v9h-8Zm0 14h8v9h-8Zm0 15h8v8h-8Zm0 43h8v8h-8Zm0 14h8v9h-8Zm0 15h8v8h-8Zm0 14h8v8h-8Zm0 43h8v9h-8Zm0 14h8v9h-8Zm0 15h8v8h-8Zm0 14h8v9h-8Zm0 14h8v9h-8Zm0 29h8v9h-8Zm0 15h8v8h-8Zm-124-168h9v8h-9Zm0 14h9v8h-9Zm0 14h9v9h-9Zm0 15h9v8h-9Zm0 14h9v8h-9Zm0 14h9v9h-9Zm0 15h9v8h-9Zm0 43h9v8h-9Zm0 14h9v9h-9Zm0 15h9v8h-9Zm-13-158h8v8h-8Zm0 14h8v8h-8Zm0 14h8v9h-8Zm0 15h8v8h-8Zm0 14h8v8h-8Zm0 14h8v9h-8Zm0 15h8v8h-8Zm-14-86h9v8h-9Zm0 14h9v8h-9Zm0 14h9v9h-9Zm0 15h9v8h-9Zm0 14h9v8h-9Zm0 14h9v9h-9Zm0 15h9v8h-9Zm-14-86h9v8h-9Zm0 14h9v8h-9Zm0 14h9v9h-9Zm0 15h9v8h-9Zm0 14h9v8h-9Zm0 14h9v9h-9Zm0 15h9v8h-9Zm0 14h9v9h-9Zm0 14h9v9h-9Zm0 15h9v8h-9Zm0 14h9v9h-9Zm-13-143h8v8h-8Zm0 14h8v8h-8Zm0 14h8v9h-8Zm0 15h8v8h-8Zm0 14h8v8h-8Zm0 14h8v9h-8Zm0 15h8v8h-8Zm0 14h8v9h-8Zm0 14h8v9h-8Zm0 15h8v8h-8Zm0 14h8v9h-8Zm0 15h8v8h-8Zm0 43h8v8h-8Zm0 14h8v9h-8Zm-14-215h9v8h-9Zm0 14h9v8h-9Zm0 14h9v9h-9Zm0 43h9v9h-9Zm0 15h9v8h-9Zm0 14h9v9h-9Zm0 14h9v9h-9Zm0 15h9v8h-9Zm0 14h9v9h-9Zm0 15h9v8h-9Zm0 43h9v8h-9Zm0 14h9v9h-9Zm0 14h9v9h-9Zm-142-316h8v9h-8Zm0 15h8v8h-8Zm0 14h8v9h-8Zm0 14h8v9h-8Zm0 15h8v8h-8Zm0 14h8v9h-8Zm0 15h8v8h-8Zm0 14h8v8h-8Zm0 14h8v9h-8Zm0 15h8v8h-8Zm0 14h8v8h-8Zm0 14h8v9h-8Zm0 15h8v8h-8Zm0 14h8v9h-8Zm0 14h8v9h-8Zm0 15h8v8h-8Zm0 14h8v9h-8Zm0 15h8v8h-8Zm0 14h8v8h-8Zm0 14h8v9h-8Zm0 15h8v8h-8Zm0 14h8v9h-8Zm0 14h8v9h-8Zm-14-316h9v9h-9Zm0 15h9v8h-9Zm0 14h9v9h-9Zm0 14h9v9h-9Zm0 15h9v8h-9Zm0 14h9v9h-9Zm0 15h9v8h-9Zm0 14h9v8h-9Zm0 14h9v9h-9Zm0 15h9v8h-9Zm0 14h9v8h-9Zm0 14h9v9h-9Zm0 15h9v8h-9Zm0 14h9v9h-9Zm0 14h9v9h-9Zm0 15h9v8h-9Zm0 14h9v9h-9Zm0 15h9v8h-9Zm0 14h9v8h-9Zm-14-259h9v9h-9Zm0 15h9v8h-9Zm0 14h9v9h-9Zm0 14h9v9h-9Zm0 15h9v8h-9Zm0 14h9v9h-9Zm0 15h9v8h-9Zm0 14h9v8h-9Zm0 14h9v9h-9Zm0 15h9v8h-9Zm0 14h9v8h-9Zm0 14h9v9h-9Zm0 15h9v8h-9Zm0 14h9v9h-9Zm0 14h9v9h-9Zm0 15h9v8h-9Zm0 14h9v9h-9Zm0 15h9v8h-9Zm0 14h9v8h-9Zm-13-259h8v9h-8Zm0 15h8v8h-8Zm0 14h8v9h-8Zm0 14h8v9h-8Zm0 15h8v8h-8Zm0 14h8v9h-8Zm0 15h8v8h-8Zm0 14h8v8h-8Zm0 14h8v9h-8Zm0 15h8v8h-8Zm0 14h8v8h-8Zm0 14h8v9h-8Zm0 15h8v8h-8Zm0 14h8v9h-8Zm0 14h8v9h-8Zm-14-201h9v9h-9Zm0 15h9v8h-9Zm0 14h9v9h-9Zm0 14h9v9h-9Zm0 15h9v8h-9Zm0 14h9v9h-9Zm0 15h9v8h-9Zm0 14h9v8h-9Zm0 14h9v9h-9Zm0 15h9v8h-9Zm0 14h9v8h-9Zm0 14h9v9h-9Zm0 15h9v8h-9Zm-13-173h8v9h-8Zm0 15h8v8h-8Zm0 14h8v9h-8Zm0 14h8v9h-8Zm0 15h8v8h-8Zm0 14h8v9h-8Zm0 15h8v8h-8Zm0 14h8v8h-8Zm0 14h8v9h-8Zm0 15h8v8h-8Zm0 14h8v8h-8Zm0 14h8v9h-8Zm794-162h9v9h-9Zm0 14h9v9h-9Zm0 15h9v8h-9Zm0 14h9v9h-9Zm0 14h9v9h-9Zm0 15h9v8h-9Zm0 14h9v9h-9Zm0 15h9v8h-9Zm0 14h9v8h-9Zm0 14h9v9h-9Zm0 15h9v8h-9Zm0 14h9v9h-9Zm0 14h9v9h-9Zm0 15h9v8h-9Zm0 14h9v9h-9Zm0 14h9v9h-9Zm0 15h9v8h-9Zm0 29h9v8h-9Zm0 14h9v9h-9Zm0 14h9v9h-9Zm0 15h9v8h-9Zm0 14h9v9h-9Zm-14-316h9v9h-9Zm0 14h9v9h-9Zm0 15h9v8h-9Zm0 14h9v9h-9Zm0 14h9v9h-9Zm0 15h9v8h-9Zm0 14h9v9h-9Zm0 15h9v8h-9Zm0 14h9v8h-9Zm0 14h9v9h-9Zm0 15h9v8h-9Zm0 14h9v9h-9Zm0 14h9v9h-9Zm0 15h9v8h-9Zm0 14h9v9h-9Zm0 14h9v9h-9Zm0 87h9v8h-9Zm0 14h9v9h-9Zm-13-316h8v9h-8Zm0 14h8v9h-8Zm0 15h8v8h-8Zm0 14h8v9h-8Zm0 14h8v9h-8Zm0 15h8v8h-8Zm0 14h8v9h-8Zm0 15h8v8h-8Zm0 14h8v8h-8Zm0 14h8v9h-8Zm0 15h8v8h-8Zm0 14h8v9h-8Zm0 14h8v9h-8Zm0 15h8v8h-8Zm0 14h8v9h-8Zm0 14h8v9h-8Zm0 29h8v9h-8Zm0 15h8v8h-8Zm0 14h8v9h-8Zm0 14h8v9h-8Zm0 29h8v9h-8Zm-238-215h9v8h-9Zm0 14h9v8h-9Zm0 14h9v9h-9Zm0 15h9v8h-9Zm0 14h9v9h-9Zm0 14h9v9h-9Zm0 15h9v8h-9Zm0 14h9v9h-9Zm0 14h9v9h-9Zm0 15h9v8h-9Zm0 14h9v9h-9Zm0 15h9v8h-9Zm0 14h9v9h-9Zm0 29h9v8h-9Zm0 14h9v9h-9Zm0 14h9v9h-9Zm0 15h9v8h-9Zm0 29h9v8h-9Zm0 14h9v8h-9Zm0 14h9v9h-9Zm-13-301h8v8h-8Zm0 14h8v8h-8Zm0 14h8v9h-8Zm0 15h8v8h-8Zm0 14h8v9h-8Zm0 14h8v9h-8Zm0 15h8v8h-8Zm0 14h8v9h-8Zm0 14h8v9h-8Zm0 15h8v8h-8Zm0 14h8v9h-8Zm0 15h8v8h-8Zm0 14h8v9h-8Zm0 43h8v9h-8Zm0 14h8v9h-8Zm0 29h8v9h-8Zm0 15h8v8h-8Zm0 14h8v8h-8Zm0 14h8v9h-8Zm-14-301h9v8h-9Zm0 14h9v8h-9Zm0 14h9v9h-9Zm0 15h9v8h-9Zm0 14h9v9h-9Zm0 14h9v9h-9Zm0 15h9v8h-9Zm0 14h9v9h-9Zm0 14h9v9h-9Zm0 15h9v8h-9Zm0 14h9v9h-9Zm0 15h9v8h-9Zm0 14h9v9h-9Zm0 14h9v9h-9Zm0 29h9v9h-9Zm0 29h9v8h-9Zm0 14h9v9h-9Zm0 15h9v8h-9Zm0 14h9v8h-9Zm0 14h9v9h-9Zm83-220h8v9h-8Zm0 15h8v8h-8Zm0 14h8v9h-8Zm0 15h8v8h-8Zm0 14h8v8h-8Zm0 14h8v9h-8Zm0 43h8v9h-8Zm0 15h8v8h-8Zm0 14h8v9h-8Zm0 15h8v8h-8Zm0 14h8v8h-8Zm0 14h8v9h-8Zm0 15h8v8h-8Zm-14-202h9v9h-9Zm0 15h9v8h-9Zm0 14h9v9h-9Zm0 15h9v8h-9Zm0 14h9v8h-9Zm0 14h9v9h-9Zm0 43h9v9h-9Zm0 15h9v8h-9Zm0 14h9v9h-9Zm0 15h9v8h-9Zm0 14h9v8h-9Zm0 14h9v9h-9Zm0 29h9v9h-9Zm-452-279h9v9h-9Zm0 15h9v8h-9Zm0 14h9v8h-9Zm0 14h9v9h-9Zm0 15h9v8h-9Zm0 14h9v9h-9Zm0 14h9v9h-9Zm0 15h9v8h-9Zm0 14h9v9h-9Zm0 15h9v8h-9Zm0 14h9v8h-9Zm0 29h9v8h-9Zm0 14h9v9h-9Zm0 14h9v9h-9Zm0 15h9v8h-9Zm0 14h9v9h-9Zm0 14h9v9h-9Zm0 15h9v8h-9Zm0 14h9v9h-9Zm-14-273h9v9h-9Zm0 15h9v8h-9Zm0 14h9v8h-9Zm0 14h9v9h-9Zm0 15h9v8h-9Zm0 14h9v9h-9Zm0 14h9v9h-9Zm0 15h9v8h-9Zm0 14h9v9h-9Zm0 15h9v8h-9Zm0 14h9v8h-9Zm0 14h9v9h-9Zm0 15h9v8h-9Zm0 14h9v9h-9Zm0 14h9v9h-9Zm0 15h9v8h-9Zm0 14h9v9h-9Zm0 14h9v9h-9Zm0 15h9v8h-9Zm0 14h9v9h-9Zm81-217h9v9h-9Zm0 15h9v8h-9Zm0 14h9v8h-9Zm0 14h9v9h-9Zm0 15h9v8h-9Zm0 14h9v9h-9Zm0 14h9v9h-9Zm0 15h9v8h-9Zm0 14h9v9h-9Zm0 14h9v9h-9Zm-14-129h9v9h-9Zm0 15h9v8h-9Zm0 14h9v8h-9Zm0 14h9v9h-9Zm0 15h9v8h-9Zm0 14h9v9h-9Zm0 14h9v9h-9Zm0 15h9v8h-9Zm0 14h9v9h-9Z"/>
    <path fill="#E0E0E0" d="M3210 700h14v801h-14Zm270 0h15v801h-15Zm271 0h14v801h-14Z"/>
    <path fill="#F0F0F0" d="M2858.14 1429h88.69c8.38 0 15.17 6.77 15.17 15.12V1615h-119v-170.74c-.08-8.35 6.66-15.18 15.03-15.26h.11Z"/>
    <path fill="#E6E6E6" d="M2843 1454h119v13h-119Z"/>
    <path fill="#E0E0E0" d="M2910.19 1593h29.66c4.5 0 8.15 3.55 8.15 7.94V1615h-46v-14.06c0-4.39 3.65-7.94 8.15-7.94h.04Z"/>
    <path fill="#E6E6E6" d="M2948.65 1615h-33.3c-2.95 0-5.35-2.25-5.35-5.02.02-2.75 2.41-4.98 5.35-4.98h33.3c2.94 0 5.33 2.23 5.35 4.98 0 2.77-2.4 5.02-5.35 5.02Z"/>
    <use xlink:href="#b"/>
    <use xlink:href="#b" fill-opacity=".2"/>
    <path fill="#E6E6E6" d="M2749.58 1615h-124.19L2612 1479h151l-13.42 136Z"/>
    <path fill="#F0F0F0" d="M2605 1464h164v30h-164Z"/>
    <path fill="#F5F5F5" d="M3760 1726.5c0 21.26-248.26 38.5-554.5 38.5s-554.5-17.24-554.5-38.5 248.26-38.5 554.5-38.5 554.5 17.24 554.5 38.5Z"/>
    <path fill="#0095FF" d="M3645.52 1618c.52-3.43 12.63-86.47-11.63-115.12-4.89-6.11-12.28-9.73-20.14-9.86-49-1.13-55.68 37.79-55.75 38.31l5.78.89c.21-1.41 6.02-34.35 49.83-33.39 6.19.09 12 2.94 15.82 7.76 22.56 26.7 10.38 109.69 10.38 110.55Z"/>
    <path fill="#0095FF" d="m3648.04 1614 5.8-.21c0-.75-1.92-76.22 35.34-91.81 36.53-15.24 52.98 16.14 53.63 17.47l5.19-2.6c-.17-.38-19.47-37.68-61.05-20.18-40.94 17.1-39.01 94.04-38.91 97.33Z"/>
    <path fill="#0095FF" d="M3647.78 1620c0-1.2.37-120.89 23.72-155.89 22.41-33.64 58.44-17.8 60.13-17.18l2.37-5.29c-.41-.17-42.15-18.59-67.35 19.17-24.31 36.45-24.65 154.11-24.65 159.12Zm-40.9-123.84s21.28 7.8 14.94 26.17c-6.33 18.37-73.57 48.67-73.57 48.67s-28.2-25.65-2.31-67.38 60.35-20.63 60.94-7.46Z"/>
    <path fill="#0095FF" d="M3672.89 1457.52s-15.12-1.62-13.81-10.81c1.31-9.2 58.91-32.89 92.92 5.4 0 0-21.79 37.33-53.28 37.88-31.49.55-25.83-32.47-25.83-32.47Zm15.27 61.46s-10.33-8.42.83-12.53c11.16-4.11 66.46-2.97 67.01 51.79 0 0-64.29 10.74-72.31-10.15-8.03-20.89 4.47-29.11 4.47-29.11Z"/>
    <path fill-opacity=".2" d="M3606.88 1496.16s21.28 7.8 14.94 26.17c-6.33 18.37-73.57 48.67-73.57 48.67s-28.2-25.65-2.31-67.38 60.35-20.63 60.94-7.46Zm66.01-38.64s-15.12-1.62-13.81-10.81c1.31-9.2 58.91-32.89 92.92 5.4 0 0-21.79 37.33-53.28 37.88-31.49.55-25.83-32.47-25.83-32.47Zm15.27 61.46s-10.33-8.42.83-12.53c11.16-4.11 66.46-2.97 67.01 51.79 0 0-64.29 10.74-72.31-10.15-8.03-20.89 4.47-29.11 4.47-29.11Z"/>
    <path fill="#0095FF" d="M3595.72 1729h99.56l10.72-109h-121l10.72 109Z"/>
    <path fill="#FFF" fill-opacity=".502" d="M3595.72 1729h99.56l10.72-109h-121l10.72 109Z"/>
    <path fill="#0095FF" d="M3711 1632h-132v-24h132Z"/>
    <path fill="#FFF" fill-opacity=".2" d="M3711 1632h-132v-24h132Z"/>
    <path fill="#263238" d="m3482.5 1650.94-98.84-9.73V1502h-39.18v139.14l-99.12 9.8c-9.85.97-17.35 9.26-17.36 19.18V1685h272v-14.88c0-9.97-7.59-18.29-17.5-19.18Z"/>
    <path fill="#FFF" fill-opacity=".2" d="m3482.5 1650.94-98.84-9.73V1502h-39.18v139.14l-99.12 9.8c-9.85.97-17.35 9.26-17.36 19.18V1685h272v-14.88c0-9.97-7.59-18.29-17.5-19.18Z"/>
    <path fill="#263238" d="M3264 1703.5c0 14.08-11.64 25.5-26 25.5s-26-11.42-26-25.5 11.64-25.5 26-25.5 26 11.42 26 25.5Zm251 0c0 14.08-11.42 25.5-25.5 25.5s-25.5-11.42-25.5-25.5 11.42-25.5 25.5-25.5 25.5 11.42 25.5 25.5ZM3338 1408h52v109.8c0 7.84-6.26 14.2-13.99 14.2h-24.02c-7.73 0-13.99-6.36-13.99-14.2V1408Z"/>
    <path fill="#FFF" fill-opacity=".302" d="M3338 1408h52v109.8c0 7.84-6.26 14.2-13.99 14.2h-24.02c-7.73 0-13.99-6.36-13.99-14.2V1408Z"/>
    <path fill="#263238" d="M3458.15 1191s7.49 185.15-44.15 217h58.95s45.66-63.05 32.75-217Z"/>
    <path fill="#FFF" fill-opacity=".302" d="M3458.15 1191s7.49 185.15-44.15 217h58.95s45.66-63.05 32.75-217Z"/>
    <path fill="#263238" d="M3493 1422h-265v-22.89c0-9.45 7.71-17.11 17.23-17.11h230.54c9.52 0 17.23 7.66 17.23 17.11V1422Z"/>
    <path fill="#263238" d="M3223.92 1422H3217v-20h287v20h-6.92Z"/>
    <path fill="#FFF" fill-opacity=".6" d="M3223.92 1422H3217v-20h287v20h-6.92Z"/>
    <path fill="#263238" d="M3519.82 1091H3570v137h-195v-137h50.18Z"/>
    <path fill="#FFB573" d="m3139 939.064-18.86-49.52s8.11-7.461 2.54-15.024c-5.57-7.563-40.34-28.815-46.66-25.084-6.32 3.73-20.44 17.829-12.82 25.666 7.63 7.837 41.23 20.876 41.23 20.876l16.7 65.022Z"/>
    <path fill="#0095FF" d="M3270 1033.74s-85.78-17.56-94.94-21.77c-9.16-4.21-43.61-104.97-43.61-104.97L3105 919.325s21.27 101.135 43.03 125.165c21.75 24.04 114.59 44.51 114.59 44.51Z"/>
    <path fill-opacity=".2" d="m3262.43 1089-1.58-.38c-4.66-1.06-19.3-4.48-36.68-9.59-28.2-8.19-63.78-20.55-76.19-34.43-21.7-23.97-42.98-125.268-42.98-125.268L3131.39 907s34.45 100.85 43.77 105.03c9.32 4.18 94.84 21.78 94.84 21.78Z"/>
    <path fill="#0095FF" d="m3131.54 905 5.46 10.423L3103 927l1.31-12.731 27.23-9.269Z"/>
    <path fill-opacity=".2" d="M3263.58 1088c-4.76-.68-19.7-2.95-37.58-6.79 10.18-17.32 40-26.21 40-26.21Z"/>
    <path fill="#263238" d="M3391.33 963.79s5.05 47.29-12.55 58.91c-17.61 11.63-104.28-1.98-114.12-21.03-9.83-19.041 27.16-70.67 27.16-70.67Z"/>
    <path fill="#FFA553" d="m3041 1589.5 22.39 5.5 11.33-31.4 10.28-28.57-25.49-11.03-9.8 34.65-8.71 30.85Z"/>
    <path fill-opacity=".2" d="m3050 1559 24.81 5 10.19-28.86-25.28-11.14-9.72 35Z"/>
    <path fill="#0095FF" d="m3052 1542.33 31.38 11.67s83.7-209.42 100.9-210.01c17.2-.58 192.35 79.84 236.25 35.15 43.9-44.68-19.58-152.44-19.58-152.44s-105.58-15.08-113.53 8.78c-1.95 7.03-3.45 14.19-4.47 21.41-1.2 7.3-2.03 13.43-2.03 13.43-3.27-.83-109.26-28.2-151.03 0-42.49 28.68-77.89 272.01-77.89 272.01Z"/>
    <path fill="#FFF" fill-opacity=".6" d="m3052 1542.33 31.38 11.67s83.7-209.42 100.9-210.01c17.2-.58 192.35 79.84 236.25 35.15 43.9-44.68-19.58-152.44-19.58-152.44s-105.58-15.08-113.53 8.78c-1.95 7.03-3.45 14.19-4.47 21.41-1.2 7.3-2.03 13.43-2.03 13.43-3.27-.83-109.26-28.2-151.03 0-42.49 28.68-77.89 272.01-77.89 272.01Z"/>
    <path fill="#FFA553" d="m3231.98 1679 23.02-5.76-4.43-32.49-4.11-29.75-28.46 2.52 7.38 34.69 6.6 30.79Z"/>
    <path fill-opacity=".2" d="m3226.13 1649 23.87-7.61-3.97-30.39-27.03 2.41 7.13 35.59Z"/>
    <path fill="#0095FF" d="m3096 1542.53-45.07-15.53-1.93 18.74 34.18 12.26 12.82-15.47Zm248-152.45s-7.13.17-117.49-5c0 0 16.49 138.54 25.51 242.27L3219 1633s-78.85-222.09-77.99-257.38c.85-35.29 41.14-45.62 41.14-45.62s78.61 45.62 161.85 60.08Z"/>
    <path fill="#FFF" fill-opacity=".6" d="M3344 1390.08s-7.13.17-117.49-5c0 0 16.49 138.54 25.51 242.27L3219 1633s-78.85-222.09-77.99-257.38c.85-35.29 41.14-45.62 41.14-45.62s78.61 45.62 161.85 60.08Z"/>
    <path fill-opacity=".102" d="M3344 1390.08s-7.13.17-117.49-5c0 0 16.49 138.54 25.51 242.27L3219 1633s-78.85-222.09-77.99-257.38c.85-35.29 41.14-45.62 41.14-45.62s78.61 45.62 161.85 60.08Z"/>
    <path fill="#0095FF" d="m3256.86 1617-45.86 5.19 8.87 17.81 37.13-4.71-.14-18.29Z"/>
    <path fill-opacity=".102" d="m3281 1270.78 61 13.22s-33.71-19.37-58.99-27c-1.19 7.49-2.01 13.78-2.01 13.78Z"/>
    <path fill="#263238" d="m3398.44 1211 2.56 16.29-113.99 8.71-3.01-19.3 114.44-5.7Z"/>
    <path fill-opacity=".2" d="m3398.44 1211 2.56 16.29-113.99 8.71-3.01-19.3 114.44-5.7Z"/>
    <path fill="#0095FF" d="m3367.8 1237.69-5.61.57-2.94-28.55 5.61-.58Z"/>
    <path fill="#FFF" d="m3336.63 1233.81-24.83 1.6-1.22-18.83 24.84-1.6Z"/>
    <path fill="#0095FF" d="m3298.2 1240.69-5.61.57-2.94-28.55 5.61-.58Z"/>
    <path fill="#FFF" fill-opacity=".6" d="m3367.8 1237.69-5.61.57-2.94-28.55 5.61-.58Zm-69.6 3-5.61.57-2.94-28.55 5.61-.58Z"/>
    <path fill="#0095FF" d="M3268.1 1032c21.22 5.87 43.23 8.29 65.21 7.18 36.38-1.85 79.69 15.71 79.69 15.71l-15.58 155.37-113.74 5.74s-38.06-129.62-15.58-184Z"/>
    <path fill="#263238" d="M3287 945.112s6.37-75.466 69.16-48.156c78.75 34.397 16.16 126.374-22.36 107.524-38.51-18.849-46.8-59.368-46.8-59.368Z"/>
    <path fill-opacity=".2" d="m3304 1043.4 1.84 42.72 14.23-20.09s-5.09 47.23-2.11 72.97c0 0 2.74-46.13 9.18-72.97l15.14 20.09 21.72-42.45s-35.16-12.57-60-.27Z"/>
    <path fill="#FFB573" d="m3323.78 1052 32.22-9.23c-19.86-13.78-9.85-44.77-9.85-44.77l-31.91 11.36c1.47 4.5 2.6 9.11 3.4 13.78 3.39 20.18-5.64 21.8-5.64 21.8Z"/>
    <path fill-opacity=".2" d="M3314 1009.34a95.72 95.72 0 0 1 3.41 13.66c15.33-6.18 28.59-25 28.59-25Z"/>
    <path fill="#FFB573" d="M3335.2 912.555c-28.52-6.336-41.09 6.887-49.65 36.019-10.71 36.328-8.35 64.356 29.01 64.426 50.74.07 67.97-89.908 20.64-100.445Z"/>
    <path fill="#FFA553" d="M3304 951a61.273 61.273 0 0 1-11 10.058 8.088 8.088 0 0 0 6.92 4.942Z"/>
    <path fill="#263238" d="M3322.19 952.295c-.58 2.197.21 4.297 1.78 4.653 1.58.355 3.26-1.131 3.84-3.231.58-2.101-.21-4.265-1.78-4.653-1.58-.388-3.26 1.034-3.84 3.231Z"/>
    <path fill="#263238" d="m3327 949.608-5-3.608s1.62 5.489 5 3.608Zm-33.81-4.901c-.58 2.472.21 4.834 1.81 5.234 1.59.4 3.46-1.272 3.88-3.635.41-2.363-.21-4.798-1.81-5.234-1.59-.437-3.29 1.163-3.88 3.635Z"/>
    <path fill="#263238" d="m3298 941.601-5-3.601s1.72 5.501 5 3.601Zm40.62-.605c-.47.008-.91-.228-1.14-.615-2.3-3.369-6.1-5.581-10.34-6.015-.68-.084-1.18-.65-1.14-1.294.08-.649.69-1.124 1.38-1.068 5.15.468 9.77 3.173 12.48 7.31.32.57.08 1.273-.53 1.571 0 .005-.01.01-.02.014-.22.081-.46.114-.69.097ZM3306.68 928a1.244 1.244 0 0 1-.67-.212 13.174 13.174 0 0 0-11.27 0 1.253 1.253 0 0 1-1.63-.676c-.01-.01-.01-.02-.01-.031-.27-.65.04-1.392.7-1.656.01-.002.01-.003.01-.004a15.592 15.592 0 0 1 13.59.283c.6.375.78 1.16.4 1.754 0 .004 0 .008-.01.012-.26.346-.67.544-1.11.53Z"/>
    <path fill="#263238" d="M3355.58 967.958s-8.11-26.558-2.12-44.321c0 0-51.07-35.836-66.46 21.281 0 0 5.69-52.495 54.68-42.7 49 9.796 32.96 81.916 3.1 97.782 0 0 15.77-15.452 10.8-32.042Z"/>
    <path fill="#E4897B" d="M3349.41 973.005c2.11-6.731 9.34-10.506 16.16-8.439 8.72 2.904 8.9 21.936-14.26 21.424-3.36-.239-4.46-3.691-1.9-12.985Z"/>
    <path fill="#263238" d="M3295 977.029a76.134 76.134 0 0 1 1.51 10.844h1.85c8.52.734 12.7-1.819 14.75-4.828a11.293 11.293 0 0 0 1.78-5.002c.15-1.009.15-2.034 0-3.043a39.715 39.715 0 0 1-17.12 2.064c-1.64.105-2.77-.035-2.77-.035Z"/>
    <path fill="#FFF" d="m3298 976.879.51 2.897c7.97.605 13.62 0 16.38-2.006.15-.918.15-1.851 0-2.77a42.958 42.958 0 0 1-16.89 1.879Z"/>
    <path fill="#DE5753" d="M3298 987.873c8.67.733 12.91-1.813 15-4.813-3.29-.215-6.58.151-9.74 1.081a10.432 10.432 0 0 0-5.26 3.732Z"/>
    <path fill="#263238" d="M3335.56 915.039s1.1 49.615 30.88 55.598c29.78 5.983-2.75-63.816-2.75-63.816s-44.26-28.951-73.76-8.527c-29.51 20.424-2.96 46.624-2.96 46.624s6.15-36.859 48.59-29.879Z"/>
    <path fill="#263238" d="M3347.2 960a.909.909 0 0 1-.56-.204c-21.73-16.445-11.01-47.908-10.9-48.214a.928.928 0 0 1 1.13-.544c.46.16.69.647.53 1.088 0 .305-10.41 30.58 10.33 46.346a.795.795 0 0 1 0 1.189.761.761 0 0 1-.53.339Z"/>
    <path fill="#0095FF" d="M3374.53 980.529c-3.7 10.05-13.2 15.69-21.23 12.647-8.03-3.042-11.52-13.673-7.83-23.723 3.7-10.049 13.2-15.69 21.23-12.613 8.03 3.076 11.52 13.673 7.83 23.689Z"/>
    <path fill-opacity=".4" d="M3374.53 980.529c-3.7 10.05-13.2 15.69-21.23 12.647-8.03-3.042-11.52-13.673-7.83-23.723 3.7-10.049 13.2-15.69 21.23-12.613 8.03 3.076 11.52 13.673 7.83 23.689Z"/>
    <path fill="#0095FF" d="M3365.35 963.803S3377.7 908.491 3350 894c3.16.413 6.28 1.022 9.36 1.824 3.44 1.033 25.71 23.475 14.53 73.176Z"/>
    <path fill-opacity=".2" d="M3365.35 963.803S3377.7 908.491 3350 894c3.16.413 6.28 1.022 9.36 1.824 3.44 1.033 25.71 23.475 14.53 73.176Z"/>
    <path fill="#0095FF" d="m3314.05 995.482-2.05-.298.55-3.302c15.11 2.243 30.56-.915 43.43-8.882l2.02 2.642c-12.94 8.275-28.55 11.769-43.95 9.84Z"/>
    <path d="m3314.05 995.482-2.05-.298.55-3.302c15.11 2.243 30.56-.915 43.43-8.882l2.02 2.642c-12.94 8.275-28.55 11.769-43.95 9.84Z"/>
    <path fill="#0095FF" d="M3373.99 979.155c-2.52 6.627-9.1 10.248-14.59 8.335-5.49-1.913-7.94-9.018-5.39-15.645 2.56-6.627 9.1-10.248 14.59-8.335 5.49 1.913 7.94 9.018 5.39 15.645Zm-63.11 17.818-2.72-.385c-1.99-.27-3.39-2.165-3.13-4.233 0-.011 0-.022.01-.033.24-2.07 2.04-3.545 4.03-3.294l.06.008 2.69.385c1.99.289 3.39 2.186 3.15 4.265-.27 2.074-2.1 3.535-4.09 3.287Z"/>
    <path fill-opacity=".4" d="m3310.88 996.973-2.72-.385c-1.99-.27-3.39-2.165-3.13-4.233 0-.011 0-.022.01-.033.24-2.07 2.04-3.545 4.03-3.294l.06.008 2.69.385c1.99.289 3.39 2.186 3.15 4.265-.27 2.074-2.1 3.535-4.09 3.287Z"/>
    <path fill="#0095FF" d="m3347.66 1031-20.66 19.75 8.28 24.25 28.72-30.82-16.34-13.18Zm-29.93 4 3.27 15.33-10.46 21.67-6.54-28.16 13.73-8.84Z"/>
    <path fill="#FFB573" d="m3343 1048.34 11.96-43.56s-5.79-10.836-4.54-13.112c1.24-2.277 7.48-31.529 11.92-34.703 4.44-3.173 22.7 2.243 24.54 5.209 1.83 2.967-17.51 42.606-17.51 42.606l-6.93 47.22Z"/>
    <path fill="#0095FF" d="M3413.19 1055.44c32.47 33.28-32.57 108.68-69.86 105.46-37.29-3.22.96-139.9.96-139.9l23.92 3.94s-8.37 59.16-5.74 63.78c2.63 4.63 39.96-44.33 50.72-33.28Z"/>
    <path fill-opacity=".2" d="M3413.19 1055.44c32.47 33.28-32.57 108.68-69.86 105.46-37.29-3.22.96-139.9.96-139.9l23.92 3.94s-8.37 59.16-5.74 63.78c2.63 4.63 39.96-44.33 50.72-33.28Z"/>
    <path fill="#0095FF" d="m3342.49 1016-3.49 11.9 33 3.1v-10.38l-29.51-4.62Z"/>
    <path fill="#FFF" fill-opacity=".6" d="M3291.28 1106h2.72v31h-19v-31h2.72Z"/>
    <path fill-opacity=".2" d="M3276 1108h16v21h-16Z"/>
    <path fill="#263238" d="M3283 1099h3v12h-3Z"/>
    <path fill="#0095FF" d="M3002.96 1633.42a30.52 30.52 0 0 1 10.89-2.79s13.07-7.68 25.99-37.63h14.54c5.05.04 9.54 3.25 11.21 8.03.24.64.38 1.31.41 2-.17 3.52-.55 7.03-1.13 10.51a293.185 293.185 0 0 1-8.49 34.46l-2.48-.62 4.47-21.78c1.51-7.37-6.26-.24-9.83 7.2-3.58 7.45-9.11 14.99-25.2 11.31-18.73-4.62-26.26-7.31-20.38-10.69Z"/>
    <path fill="#FFA553" d="M3042.55 1585.32s-18.13 37.6-28.55 44.84c0 0 13.99 8.26 28.55-10.2 18.82-23.8 23.45-17.17 23.45-17.17-.39-4.1-1.16-8.17-2.3-12.13-2.81-7.62-21.15-5.34-21.15-5.34Z"/>
    <path fill="#0095FF" d="M3203.41 1723.68c2.95-2.35 6.3-4.14 9.88-5.3 0 0 10.8-10.55 16.24-42.63l14.04-3.44c4.89-1.13 9.96.93 12.69 5.15.38.58.68 1.2.89 1.86.68 3.41 1.15 6.85 1.4 10.32.65 11.75.6 23.53-.17 35.27h-2.53l-.79-22.14c-.31-7.53-6.08 1.24-7.83 9.32-1.74 8.08-5.26 16.64-21.67 16.88-19.11.21-27.04-.62-22.15-5.29Z"/>
    <path fill="#FFA553" d="M3230.15 1667.82s-8.61 41.15-17.15 50.72c0 0 15.57 4.8 25.31-16.7 12.62-27.78 18.69-22.36 18.69-22.36a69.247 69.247 0 0 0-5.11-11.35c-4.46-6.86-21.74-.31-21.74-.31Z"/>
    <path fill="#0095FF" d="M3550.56 836H3568v86h-155v-86h17.44Z"/>
    <path fill="#0095FF" d="M3453.96 912 3418 961l58-45.711-22.04-3.289Z"/>
    <path fill="#FFF" d="M3456 878.967c.02 2.761-2.43 5.015-5.46 5.033-3.04.019-5.52-2.205-5.54-4.966-.02-2.762 2.43-5.015 5.46-5.034h.08c3.01 0 5.46 2.224 5.46 4.967Zm26 0a5.003 5.003 0 0 1-4.97 5.033 4.998 4.998 0 0 1-5.03-4.966 4.997 4.997 0 0 1 4.97-5.034h.06c2.75 0 4.97 2.224 4.97 4.967Zm26 0a4.996 4.996 0 0 1-4.97 5.033 4.998 4.998 0 0 1-5.03-4.966 5.003 5.003 0 0 1 4.97-5.034h.06c2.75 0 4.97 2.224 4.97 4.967Zm27 0a4.996 4.996 0 0 1-4.97 5.033 4.998 4.998 0 0 1-5.03-4.966 5.003 5.003 0 0 1 4.97-5.034h.06c2.75 0 4.97 2.224 4.97 4.967Z"/>
    <path fill="#0095FF" d="M2732.88 833.618c-.05-.383.62-.787 1.51-.913.89-.116 1.66.094 1.74.473.6 3.674 1.91 7.244 3.94 10.673.2.357-.33.795-1.2.984-.86.19-1.74.061-1.96-.287-.01-.007-.01-.015-.02-.022-2.06-3.504-3.41-7.153-4.01-10.908Zm-.06-11.308c.45-3.864 1.42-7.767 2.9-11.69.14-.403.98-.756 1.88-.79.88-.021 1.46.279 1.32.677-1.43 3.858-2.41 7.698-2.92 11.504-.09.403-.91.773-1.81.827-.71.041-1.28-.122-1.44-.406Zm12.94 31.834c-.04-.272.31-.568.87-.754.78-.266 1.76-.245 2.18.048.02.007.03.016.04.024 3.83 2.929 8.81 5.463 14.76 7.516.6.238.51.698-.18 1.028-.62.298-1.55.392-2.17.219-6.16-2.139-11.33-4.768-15.33-7.801-.15-.085-.23-.19-.26-.305Zm-4.14-55.076a.222.222 0 0 1-.03-.222c2.28-3.878 5.03-7.836 8.09-11.722.41-.396 1.4-.644 2.22-.553.7.078 1.06.389.85.741-3.03 3.824-5.74 7.721-8.02 11.58-.26.401-1.16.71-2.03.696-.62-.028-1.05-.234-1.08-.52Zm18.42-23.13c-.09-.099-.1-.215-.04-.334 3.9-3.881 8.17-7.715 12.68-11.354.47-.379 1.47-.585 2.23-.459.76.126.99.535.51.914-4.42 3.591-8.65 7.363-12.51 11.22-.39.387-1.35.633-2.15.55a.308.308 0 0 1-.03-.004c-.6-.086-.92-.341-.83-.646Zm21.81 90.409c-.09-.099-.11-.215-.04-.334.38-.387 1.34-.633 2.14-.549l.03.003c2.42.272 4.91.495 7.49.652 5.44.344 11.08.436 16.83.272.88-.013 1.46.293 1.32.695-.19.403-1.04.741-1.93.76-5.94.154-11.77.056-17.4-.292a159.3 159.3 0 0 1-7.8-.668c-.59-.088-.9-.348-.79-.652Zm5.77-112.576c-.01-.164.11-.339.34-.496 5.46-3.58 11.4-7.041 17.78-10.357.6-.349 1.62-.48 2.3-.297.65.187.7.617.12.964-6.24 3.254-12.06 6.648-17.41 10.158-.61.349-1.62.481-2.3.297-.49-.031-.85-.174-.97-.382Zm45.02 111.426c-.05-.379.63-.779 1.52-.894l.04-.005a353.097 353.097 0 0 0 25.57-4.35c.88-.183 1.76-.045 1.98.309.18.365-.36.801-1.24.99a357.252 357.252 0 0 1-26.13 4.442c-.91.118-1.69-.102-1.74-.492Zm50.92-10.369c-.03-.309.41-.64 1.09-.819 7.46-1.928 15.37-4.141 24.2-6.737.8-.251 1.76-.205 2.14.102.01.01.03.02.04.03.34.321-.03.769-.84 1.014-8.92 2.626-17 4.862-24.42 6.803-.84.22-1.77.131-2.09-.2Zm48.2-14.051c-.04-.262.29-.548.83-.73 6.78-2.086 14.55-4.732 22.78-7.515l.44-.056c.85-.225 1.8-.131 2.11.208.24.269.01.624-.56.873l-.44.056c-8.44 2.83-16.08 5.441-22.73 7.51-.83.266-1.84.228-2.26-.085Zm46.48-15.45c-.06-.277.28-.582.86-.773 8.85-2.843 16.69-5.217 23.97-7.234.83-.234 1.78-.164 2.13.157.34.332-.08.79-.92 1.025-7.19 1.987-14.95 4.332-23.71 7.163-.79.256-1.76.219-2.15-.083-.01-.004-.02-.008-.02-.012a1.004 1.004 0 0 1-.38-.178Zm48.78-13.223c-.03-.344.52-.71 1.3-.866 4.61-.92 9.28-1.69 13.98-2.302 4.2-.56 8.42-.941 12.59-1.14.88.008 1.41.344 1.17.751-.19.342-.87.635-1.64.705-3.96.186-7.95.546-11.94 1.075-4.54.595-9.05 1.338-13.5 2.221-.87.16-1.72.015-1.94-.333Zm49.87-1.538c-.03-.16.07-.334.29-.49.6-.35 1.62-.481 2.29-.298 7.12 1.609 13.12 3.912 17.67 6.781.47.284.23.742-.53 1.031-.78.27-1.76.266-2.24-.011-4.34-2.732-10.06-4.924-16.84-6.456-.5-.062-.83-.249-.85-.492Zm30.92 72.029-.02-.149a73.633 73.633 0 0 0 2.91-11.541c.07-.39.83-.761 1.72-.827a.302.302 0 0 1 .03-.002c.88-.067 1.55.196 1.49.586v.013c-.65 3.855-1.64 7.756-2.9 11.69-.15.405-1 .757-1.9.784-.73.022-1.29-.18-1.36-.493Zm-3.52-56.118c-.15-.367.45-.79 1.33-.946.88-.155 1.71.016 1.86.382 2.39 3.414 4.13 6.971 5.21 10.64.1.376-.53.793-1.42.938-.88.146-1.69-.035-1.81-.403-.01-.007-.01-.014-.01-.021-1.03-3.612-2.74-7.111-5.1-10.466Zm7.36 32.991c.1-3.294.16-7.207-.19-11.291-.02-.385.67-.784 1.56-.899.89-.115 1.64.099 1.69.478 0 .006 0 .012.01.019.31 4.126.29 8.07.18 11.29 0 .385-.71.774-1.6.869l-.05.005c-.8.133-1.57 0-1.8-.313Z"/>
    <path fill="#FFF" d="M2722 1152h130v26h-130Z"/>
    <path fill-opacity=".102" d="M2722 1152h130v26h-130Z"/>
    <path fill-opacity=".102" d="M2722 1152h55v26h-55Z"/>
    <path fill-opacity=".102" d="M2722 1156h116l-116 3v-3Zm130 4-100 3h100v-3Zm-125 7.92 49.79-1.92 73.21 1.92-73.21 1.08-49.79-1.08Zm-5 5.08h86l-86 2v-2Zm129.8 2-56.8 1h57l-.2-1Z"/>
    <path fill="#FFF" d="M2704 1125h130v27h-130Z"/>
    <path fill-opacity=".102" d="M2704 1125h130v27h-130Z"/>
    <path fill-opacity=".102" d="M2704 1125h55v27h-55Z"/>
    <path fill-opacity=".102" d="M2704 1129h116l-116 3v-3Zm130 4-100 3h100v-3Zm-125 7.94 49.79-1.94 73.21 1.94-73.21 1.06-49.79-1.06Zm-5 6.06h86l-86 2v-2Zm129.8 2-56.8 1h57l-.2-1Z"/>
    <path fill="#FFF" d="M2719 1098h130v27h-130Z"/>
    <path fill-opacity=".102" d="M2719 1098h130v27h-130Z"/>
    <path fill-opacity=".102" d="M2719 1098h55v27h-55Z"/>
    <path fill-opacity=".102" d="M2719 1102h116l-116 3v-3Zm130 5-100 2h100v-2Zm-125 6.92 49.79-1.92 73.21 1.92-73.21 1.08-49.79-1.08Zm-5 6.08h86l-86 2v-2Zm129.83 2-56.83 1h57l-.17-1Z"/>
    <path fill="#263238" d="m2936 1178 3.38-13h139.81l64.36 6.52 2.45 6.48h-210Z"/>
    <path fill-opacity=".4" d="M3079 1165v13h-143l3.37-13H3079Z"/>
    <path fill="#263238" d="M3050.92 1103.75c.72 6-3.57 11.45-9.59 12.17-.49.06-.99.09-1.49.08h-213.7c-6.91-.15-12.64-5.4-13.38-12.25l-12.7-136.496c-.14-1.332-.04-2.679.28-3.981a10.895 10.895 0 0 1 10.8-8.271h213.84c6.91.15 12.64 5.394 13.38 12.252Z"/>
    <path fill-opacity=".4" d="M3038.66 1116h-212.57c-6.9-.15-12.62-5.4-13.36-12.27l-12.67-136.742c-.14-1.335-.04-2.684.28-3.988h212.57c6.9.15 12.62 5.404 13.36 12.274l12.67 136.736c.14 1.34.04 2.69-.28 3.99Z"/>
    <path fill="#263238" d="M2892.82 1032h44.14l-11.75 126.68 69.79 10.5v8.82h-147v-8.82l30.12-10.5 14.7-126.68Z"/>
    <path fill="#FFF" fill-opacity=".102" d="m2937 1032-32.79 144-26.21-.79 14.74-143.21H2937Z"/>
    <path fill="#263238" d="M2936 1729h-21.08L2877 1203h28l31 526Z"/>
    <path fill="#FFF" fill-opacity=".4" d="M2936 1729h-21.1l-36.04-500.66L2877 1203h27.99l1.51 25.34L2936 1729Z"/>
    <path fill-opacity=".2" d="M2907 1227h-28.11l-1.89-24h28.46l1.54 24Z"/>
    <path fill="#263238" d="M3090.55 1729h-21.1l-3.45-526h28l-3.45 526Z"/>
    <path fill="#FFF" fill-opacity=".502" d="m3094 1203-.55 85.02-2.89 440.98h-21.12l-2.89-440.98-.55-85.02h28Z"/>
    <path fill-opacity=".2" d="m3094 1203-.55 86h-26.9l-.55-86h28Z"/>
    <path fill="#263238" d="M3314 1729h-20.72L3256 1203h27.53l30.47 526Z"/>
    <path fill="#FFF" fill-opacity=".502" d="M3315 1729h-21.1l-36.04-500.66L3256 1203h27.99l1.51 25.34L3315 1729Z"/>
    <path fill-opacity=".2" d="M3285 1227h-27.17l-1.83-24h27.51l1.49 24Z"/>
    <path fill="#263238" d="M2695.08 1729H2674l31-526h28l-37.92 526Z"/>
    <path fill="#FFF" fill-opacity=".502" d="m2733 1203-1.86 25.34-36.06 500.66H2674l29.48-500.66L2705 1203h28Z"/>
    <path fill-opacity=".2" d="M2705.49 1203H2733l-1.83 24H2704l1.49-24Z"/>
    <path fill="#0095FF" d="M2683 1189h623v19.4c0 4.2-3.33 7.6-7.43 7.6h-608.14c-4.1 0-7.43-3.4-7.43-7.6V1189Z"/>
    <path fill="#FFF" fill-opacity=".6" d="M2683 1189h623v19.4c0 4.2-3.33 7.6-7.43 7.6h-608.14c-4.1 0-7.43-3.4-7.43-7.6V1189Z"/>
    <path fill-opacity=".2" d="M2683 1189h623v14h-623Z"/>
    <path fill="#0095FF" d="M3318.58 1193h-648.16c-4.1 0-7.42-3.35-7.42-7.48 0-4.14 3.32-7.5 7.42-7.52h648.16c4.1.02 7.42 3.38 7.42 7.52 0 4.13-3.32 7.48-7.42 7.48Z"/>
    <path fill="#FFF" fill-opacity=".6" d="M3318.58 1193h-648.16c-4.1 0-7.42-3.35-7.42-7.48 0-4.14 3.32-7.5 7.42-7.52h648.16c4.1.02 7.42 3.38 7.42 7.52 0 4.13-3.32 7.48-7.42 7.48Z"/>
    <path fill="#0095FF" d="m3165 1154.9 7.99-12.06c1.6-2.4 4.29-3.84 7.17-3.84h10.13c.84 0 1.67.13 2.48.38l36.14 11.01c2.05.62 3.8 1.99 4.89 3.85l5.2 8.76Z"/>
    <path fill-opacity=".2" d="m3239 1163-52.63-5.75-21.37-2.35 7.99-12.06a8.582 8.582 0 0 1 7.15-3.84h10.12a9 9 0 0 1 2.52.38l.79.24 35.28 10.77a8.59 8.59 0 0 1 4.92 3.85Z"/>
    <path fill-opacity=".2" d="m3239 1163-52-5.66 7.11-17.34 34.86 10.6c2.04.6 3.77 1.95 4.86 3.78Z"/>
    <path fill="#0095FF" d="M3264 1176.84v1.16h-111l4.11-16.47c1.56-6.22 7.05-10.56 13.32-10.53h49.23c1.64-.01 3.26.29 4.79.88l6.17 2.35 24.44 9.34c5.41 2.05 8.98 7.36 8.94 13.27Z"/>
    <path fill-opacity=".2" d="M3264 1176.85v1.15h-46l2.45-17.65c.59-4.05 4.32-6.86 8.35-6.27.51.07 1.02.2 1.5.39l24.68 9.26c5.44 2.03 9.05 7.27 9.02 13.12Z"/>
    <path fill="#263238" d="m3225 1166.49 14.69-44.24c.54-1.7 2.35-2.64 4.04-2.1.18.06.36.14.53.22 1.31.76 1.98 2.28 1.66 3.76l-12.36 47.19s-8.21 3.35-8.56-4.83Z"/>
    <path fill-opacity=".2" d="M3165.71 1174H3159l1.29-6h6.71l-1.29 6Zm9 0H3168l1.29-6h6.71l-1.29 6Z"/>
    <path fill="#0095FF" d="m2619 694 269.8 38.648L2925 769l-306-75Z"/>
    <path fill="#FFF" fill-opacity=".6" d="m2619 694 269.8 38.648L2925 769l-306-75Z"/>
    <path fill="#0095FF" d="m2619 694 269 38.981L2875.52 786 2619 694Z"/>
    <path fill-opacity=".2" d="m2619 694 269 38.981L2875.52 786 2619 694Z"/>
    <path fill="#0095FF" d="m2619 694 222.29 53.079L2876 786l-257-92Z"/>
    <path fill="#FFF" fill-opacity=".6" d="m2619 694 222.29 53.079L2876 786l-257-92Z"/>
    <path fill="#0095FF" d="m2699.73 745.93.6-1.019 24.7 14.471-.6 1.019Zm35.61 20.851.6-1.019 8.88 5.203-.6 1.019ZM2619 694l222 52.879L2797.85 799 2619 694Zm297.62 124c-.3.001-.59-.055-.87-.165l-36.27-14.289a2.356 2.356 0 0 1-1.31-3.069 2.382 2.382 0 0 1 3.06-1.317l36.27 14.289a2.352 2.352 0 0 1 1.33 3.06 2.355 2.355 0 0 1-2.21 1.491Z"/>
    <path fill-opacity=".302" d="M2916.62 818c-.3.001-.59-.055-.87-.165l-36.27-14.289a2.356 2.356 0 0 1-1.31-3.069 2.382 2.382 0 0 1 3.06-1.317l36.27 14.289a2.352 2.352 0 0 1 1.33 3.06 2.355 2.355 0 0 1-2.21 1.491Z"/>
    <path fill="#0095FF" d="M2914.55 797a2.286 2.286 0 0 1-.89-.184l-20.1-8.06a2.46 2.46 0 0 1-1.39-3.184 2.433 2.433 0 0 1 3.16-1.405l.03.012 20.09 8.023a2.47 2.47 0 0 1 1.38 3.186 2.435 2.435 0 0 1-2.28 1.612Z"/>
    <path fill="#FFF" fill-opacity=".502" d="M2914.55 797a2.286 2.286 0 0 1-.89-.184l-20.1-8.06a2.46 2.46 0 0 1-1.39-3.184 2.433 2.433 0 0 1 3.16-1.405l.03.012 20.09 8.023a2.47 2.47 0 0 1 1.38 3.186 2.435 2.435 0 0 1-2.28 1.612Z"/>
    <path fill="#0095FF" d="M2873.63 817a2.59 2.59 0 0 1-.86-.159l-35.26-13.456c-1.22-.452-1.82-1.767-1.35-2.935.47-1.169 1.84-1.749 3.05-1.296l.03.011 35.27 13.41c1.21.461 1.8 1.779 1.32 2.945-.35.868-1.23 1.437-2.2 1.435Z"/>
    <path fill-opacity=".302" d="M2873.63 817a2.59 2.59 0 0 1-.86-.159l-35.26-13.456c-1.22-.452-1.82-1.767-1.35-2.935.47-1.169 1.84-1.749 3.05-1.296l.03.011 35.27 13.41c1.21.461 1.8 1.779 1.32 2.945-.35.868-1.23 1.437-2.2 1.435Z"/>
    <path fill="#FFF" d="M2803 781.467a2.687 2.687 0 1 1-5.37-.219l.47-11.629a2.694 2.694 0 0 1 2.8-2.577 2.695 2.695 0 0 1 2.58 2.797Zm-46.9-33.244c1.1.611 1.5 2.003.89 3.109a2.288 2.288 0 0 1-3.11.896l-6.85-3.785a2.285 2.285 0 0 1-.9-3.108 2.29 2.29 0 0 1 3.11-.897Z"/>
    <path fill="#FFF" d="M2746.84 739.871a2.686 2.686 0 1 1 4.7 2.6l-5.08 9.216a2.697 2.697 0 0 1-3.66 1.054 2.685 2.685 0 0 1-1.05-3.653Zm9.3 5.137a2.685 2.685 0 0 1 3.65-1.054 2.698 2.698 0 0 1 1.06 3.654l-5.09 9.216a2.697 2.697 0 0 1-3.66 1.054 2.685 2.685 0 0 1-1.05-3.653Zm4.97 8.704c2.16-3.916 7.16-5.299 11.16-3.09 4 2.21 5.49 7.175 3.33 11.091-2.17 3.916-7.16 5.3-11.16 3.09-4-2.209-5.49-7.175-3.33-11.091Zm4.41 2.435c-.82 1.481-.21 3.383 1.35 4.247 1.57.865 3.5.365 4.32-1.116.82-1.481.21-3.382-1.36-4.247-1.56-.864-3.49-.365-4.31 1.116Zm26.75 22.14c-1.23.835-2.9.517-3.74-.711a2.7 2.7 0 0 1 .71-3.736l9.63-6.545a2.681 2.681 0 0 1 3.73.712c.84 1.228.52 2.9-.71 3.735Zm-13.07-19.108a2.687 2.687 0 1 1 5.37.22l-.47 11.629a2.7 2.7 0 0 1-2.8 2.576 2.687 2.687 0 0 1-2.58-2.796Z"/>
    <path fill="#FFF" d="M2789.93 762.36a2.695 2.695 0 0 1 3.74.711 2.694 2.694 0 0 1-.72 3.736l-9.62 6.545c-1.23.835-2.9.516-3.73-.712-.84-1.228-.52-2.9.71-3.736Z"/>
  </g>
</svg>
