<svg xmlns="http://www.w3.org/2000/svg" xml:space="preserve" width="220" height="251" overflow="hidden"><defs><clipPath id="a"><path d="M597 396h220v251H597z"/></clipPath></defs><g fill-rule="evenodd" clip-path="url(#a)" transform="translate(-597 -396)"><path fill="#00B0F0" d="M707.034 526c3.77-.001 7.53-.375 11.225-1.113a20.705 20.705 0 0 1-5.205-6.132c-27.558 3.389-52.671-16.011-56.09-43.331-3.419-27.32 16.15-52.215 43.709-55.605 27.558-3.389 52.67 16.01 56.089 43.33a49.435 49.435 0 0 1-2.877 23.796l8.124-2.686c8.219-30.118-9.748-61.138-40.128-69.285-30.381-8.147-61.671 9.663-69.889 39.781-8.219 30.118 9.747 61.138 40.127 69.285a57.457 57.457 0 0 0 14.915 1.96Z"/><path fill="#0070C0" d="M805.104 569.747a147.58 147.58 0 0 0-53.146-25.945A154.58 154.58 0 0 0 707 537a170.884 170.884 0 0 0-44.906 6.789 176.266 176.266 0 0 0-53.142 25.931A31.23 31.23 0 0 0 597 593.721V647h6.881v-53.279a24.213 24.213 0 0 1 9.244-18.533 168.807 168.807 0 0 1 50.834-24.762A164.147 164.147 0 0 1 707 543.878a147.892 147.892 0 0 1 43.004 6.535 140.812 140.812 0 0 1 50.751 24.689 24.285 24.285 0 0 1 9.365 18.626V647H817v-53.279a31.195 31.195 0 0 0-11.896-23.974ZM657.927 423.578c26.564-27.161 70.08-27.611 97.198-1.006a68.848 68.848 0 0 1 17.246 27.825v41.867l-33.162 11.071c-3.509-4.472-9.974-5.248-14.439-1.733-4.466 3.515-5.241 9.99-1.731 14.462 3.51 4.473 9.975 5.249 14.44 1.734a10.308 10.308 0 0 0 3.928-7.937l42.073-14.047c5.354-.413 9.495-4.873 9.52-10.251v-27.549c0-5.706-4.618-10.331-10.315-10.331h-4.012c-13.247-39.639-56.07-61.017-95.647-47.748a75.548 75.548 0 0 0-30.008 18.821 3.45 3.45 0 0 0-.022 4.871 3.436 3.436 0 0 0 4.931-.049Zm128.197 34.436v27.549a3.44 3.44 0 0 1-3.439 3.443h-3.438V454.57h3.438c1.9 0 3.439 1.542 3.439 3.444Z"/></g></svg>