<svg xmlns="http://www.w3.org/2000/svg" xml:space="preserve" width="220" height="272" overflow="hidden"><defs><clipPath id="a"><path d="M2288 223h220v272h-220z"/></clipPath></defs><g fill-rule="evenodd" clip-path="url(#a)" transform="translate(-2288 -223)"><path fill="#00B0F0" d="M2469.57 390h-.052c-1.03 0-25.601-.448-37.697-6.868a6.398 6.398 0 0 1-.31-.186 119.605 119.605 0 0 1-14.112-12.208c-.79-.755-1.552-1.483-2.298-2.187a53.25 53.25 0 0 1-16.692 2.67 54.895 54.895 0 0 1-14.081-1.87c-.629.59-1.264 1.191-1.948 1.839a144.213 144.213 0 0 1-13.233 11.566c-11.237 8.172-39.343 2.018-42.512 1.29a3.443 3.443 0 0 1-2.587-2.759 3.508 3.508 0 0 1 1.535-3.515c.073-.045 7.034-4.764 11.51-22.529 1.466-5.764-1.075-17.327-3.778-29.57a176.822 176.822 0 0 1-5.372-34.926c0-17.506 5.152-28.227 16.194-33.733a29.146 29.146 0 0 1 17.836-1.08c3.09-4.17 11.313-12.952 28.54-18.344a71.755 71.755 0 0 1 55.193 7.148c14.377 9.313 21.274 19.73 21.593 53.622.13 14.288-.707 27.596-1.45 39.349a171.45 171.45 0 0 0-.497 29.259 37.624 37.624 0 0 0 6.979 17.537 3.46 3.46 0 0 1-.729 4.823 3.426 3.426 0 0 1-2.019.672Zm-68.835-25.733c24.558-1.343 44.215-20.96 45.706-45.617.084-1.668.084-3.34 0-5.008-.16-3.507-2.974-6.303-6.467-6.427a48.276 48.276 0 0 1-7.377-.69 116.925 116.925 0 0 1-32.354-9.172 142.324 142.324 0 0 1-31.23-21.432 41.415 41.415 0 0 1-5.598 15.16c-.066.111-.14.217-.22.318a23.405 23.405 0 0 1-4.674 4.264l-.56.424a12.777 12.777 0 0 0-1.783 1.69 23.135 23.135 0 0 0-5.56 13.198 48.73 48.73 0 0 0-.251 5.054c.001 26.671 21.528 48.293 48.084 48.292.762 0 1.523-.018 2.284-.054Zm58.256-26.996c.735-11.629 1.57-24.813 1.44-38.849-.293-30.918-5.929-39.762-18.297-47.793a64.798 64.798 0 0 0-49.684-6.43c-19.676 6.158-25.858 17.172-25.91 17.248a3.428 3.428 0 0 1-4.032 1.69c-2.638-.797-10.534-2.349-15.304.031-5.763 2.87-12.364 8.6-12.364 27.534a172.296 172.296 0 0 0 5.21 33.46c2.998 13.633 5.588 25.41 3.716 32.771a59.84 59.84 0 0 1-9.414 21.587c9.788 1.618 24.869 2.953 30.784-1.345a131.46 131.46 0 0 0 11.852-10.349c-20.306-8.643-33.495-28.647-33.49-50.797 0-1.929.099-3.856.296-5.775a30.025 30.025 0 0 1 7.284-17.096 19.818 19.818 0 0 1 2.748-2.583l.587-.442a18.798 18.798 0 0 0 3.263-2.846 34.59 34.59 0 0 0 4.647-13.025c.526-3.581 3.844-6.055 7.409-5.526a6.513 6.513 0 0 1 3.54 1.731 135.186 135.186 0 0 0 29.915 20.632 110.309 110.309 0 0 0 30.46 8.593 42.4 42.4 0 0 0 6.502.617c7.085.225 12.81 5.874 13.161 12.984.09 1.904.086 3.822 0 5.71-1.22 20.093-13.159 37.955-31.213 46.699l.038.038a117.524 117.524 0 0 0 13.051 11.383c7.213 3.75 20.216 5.174 28.012 5.688a44.291 44.291 0 0 1-4.643-14.895 170.686 170.686 0 0 1 .436-30.645Z"/><path fill="#0070C0" d="M2496.08 417.732a147.383 147.383 0 0 0-53.13-25.943 172.639 172.639 0 0 0-13.29-3.414l-1.75-.375-1.31 1.214c-14 12.961-23.5 12.961-28.6 12.961-5.1 0-14.67 0-28.61-12.789l-1.31-1.197-1.72.365c-4.21.887-8.65 1.969-13.25 3.224a176.071 176.071 0 0 0-53.15 25.93 31.198 31.198 0 0 0-11.96 24.004V495h6.88v-53.288a24.247 24.247 0 0 1 9.23-18.538 168.919 168.919 0 0 1 50.84-24.753c3.81-1.032 7.56-1.967 11.12-2.751 13.37 11.755 23.63 13.381 31.93 13.381s18.51-1.647 31.93-13.577c3.65.825 7.36 1.798 11.08 2.916a140.82 140.82 0 0 1 50.75 24.688 24.298 24.298 0 0 1 9.36 18.634V495h6.88v-53.288a31.198 31.198 0 0 0-11.92-23.98ZM2357.93 250.355c26.56-26.941 70.08-27.388 97.19-.997a68.227 68.227 0 0 1 17.25 27.6v41.53l-33.16 10.982c-3.51-4.437-9.98-5.207-14.44-1.72a10.168 10.168 0 0 0-1.73 14.346c3.51 4.437 9.97 5.207 14.44 1.72a10.19 10.19 0 0 0 3.93-7.873l42.07-13.933c5.35-.411 9.5-4.834 9.52-10.169v-27.327c0-5.66-4.62-10.248-10.31-10.248h-4.02c-13.24-39.319-56.07-60.524-95.64-47.363a75.632 75.632 0 0 0-30.01 18.67 3.396 3.396 0 0 0-.02 4.831 3.452 3.452 0 0 0 4.93-.049Zm128.19 34.159v27.327a3.425 3.425 0 0 1-3.43 3.415h-3.44v-34.158h3.44c1.89 0 3.43 1.529 3.43 3.416Z"/></g></svg>