<svg xmlns="http://www.w3.org/2000/svg" overflow="hidden" viewBox="0 0 302 155">
  <defs>
    <clipPath id="a">
      <path d="M426 114h302v155H426z"/>
    </clipPath>
  </defs>
  <g fill-rule="evenodd" clip-path="url(#a)" transform="translate(-426 -114)">
    <path fill="#0070C0" d="M690 238c0-17.121-13.879-31-31-31-17.121 0-31 13.879-31 31 0 17.121 13.879 31 31 31 17.114-.017 30.983-13.886 31-31Zm-55.111 0c0-13.316 10.795-24.111 24.111-24.111s24.111 10.795 24.111 24.111-10.795 24.111-24.111 24.111c-13.309-.009-24.094-10.801-24.094-24.111Z"/>
    <path fill="#00B0F0" d="M532 231c.419 2.288.635 4.611.645 6.94v.06h88.71v-.06c.01-2.329.226-4.652.645-6.94Z"/>
    <path fill="#00B0F0" d="M693.682 175.96c15.163 0 27.455 12.333 27.455 27.548v20.715c0 3.803-3.073 6.887-6.864 6.887h-17.801c.42 2.253.635 4.54.642 6.832V238h17.159c7.571-.024 13.703-6.177 13.727-13.774v-20.718c-.056-18.994-15.388-34.378-34.318-34.434h-28.484a12.415 12.415 0 0 1-9.609-4.109l-43.241-43.042a27.15 27.15 0 0 0-19.561-7.92H492.234a27.75 27.75 0 0 0-19.561 7.92l-42.554 43.042a13.82 13.82 0 0 0-4.118 9.986v35.467c.049 15.194 12.312 27.498 27.454 27.548h3.432v-.059c.009-2.291.224-4.576.645-6.828h-4.077c-11.372 0-20.591-9.25-20.591-20.661V175.96Zm-86.159-49.148 42.445 42.262H539.251V120.89h53.536a20.285 20.285 0 0 1 14.736 5.922Zm-129.994-.017a20.818 20.818 0 0 1 14.705-5.905h40.153v48.184h-96.561c-.045 0-.058-.028-.024-.059Z"/>
    <path fill="#0070C0" d="M525 238c0-17.121-13.879-31-31-31-17.121 0-31 13.879-31 31 0 17.121 13.879 31 31 31 17.114-.017 30.983-13.886 31-31Zm-55.111 0c0-13.316 10.795-24.111 24.111-24.111s24.111 10.795 24.111 24.111-10.795 24.111-24.111 24.111-24.111-10.795-24.111-24.111Z"/>
  </g>
</svg>
