<svg xmlns="http://www.w3.org/2000/svg" xml:space="preserve" width="1007" height="760" overflow="hidden"><defs><clipPath id="a"><path d="M2205 1072h1007v760H2205z"/></clipPath></defs><g fill-rule="evenodd" clip-path="url(#a)" transform="translate(-2205 -1072)"><path fill="#F5F5F5" d="M3212 1793c0 21.54-225.42 39-503.5 39-278.07 0-503.5-17.46-503.5-39s225.43-39 503.5-39c278.08 0 503.5 17.46 503.5 39ZM2490.46 1122h4.54v26H2396v-26h4.54ZM2460.46 1155h4.54v26H2366v-26h4.54Z"/><path fill="#F0F0F0" d="M2564.46 1155h4.54v26H2470v-26h4.54Z"/><path fill="#F2F2F2" d="M3089.92 1078H3103v242H2703v-242h13.08Z"/><path fill="#407BFF" d="M3090.15 1327h-373.3c-10.4-.02-18.84-9.32-18.85-20.79v-213.42c.01-11.47 8.45-20.77 18.85-20.79h373.3c10.4.02 18.84 9.32 18.85 20.79v213.42c-.01 11.47-8.45 20.77-18.85 20.79Zm-373.3-242.23c-4.01.01-7.26 3.6-7.27 8.02v213.42c.01 4.42 3.26 8.01 7.27 8.02h373.3c4.01-.01 7.26-3.6 7.27-8.02v-213.42c-.01-4.42-3.26-8.01-7.27-8.02Z"/><path fill="#FFF" d="M3090.15 1327h-373.3c-10.4-.02-18.84-9.32-18.85-20.79v-213.42c.01-11.47 8.45-20.77 18.85-20.79h373.3c10.4.02 18.84 9.32 18.85 20.79v213.42c-.01 11.47-8.45 20.77-18.85 20.79Zm-373.3-242.23c-4.01.01-7.26 3.6-7.27 8.02v213.42c.01 4.42 3.26 8.01 7.27 8.02h373.3c4.01-.01 7.26-3.6 7.27-8.02v-213.42c-.01-4.42-3.26-8.01-7.27-8.02Z"/><path fill="#00B0F0" d="M2827.51 1126.8c14.99.76 33.41 10.76 37.25 28.18 4.66 20.96-20.95 29.49-35.32 30-13.66.45-36.92-4.84-39.32-22.79-2.7-20.48 24.31-24.84 37.46-25.16.48-.09.81-.58.73-1.11-.06-.41-.35-.73-.73-.79-13.69.35-39.58 4.55-39.58 24.68 0 20.89 26.71 27.65 41.4 27.17 14.69-.48 38.48-8.28 37.57-28.38-.9-20.11-23.14-32.79-39.44-33.6-1.14 0-1.14 1.85 0 1.9ZM2781.64 1236.99c.16 5.38.66 10.84.5 16.22 0 1.59 1.61.63-.87.58-2.48-.05-4.59.18-7.03.25l-17.98.69c-2.34-.05-4.69.04-7.02.27-2.48.41-.81.66-.94-.15-.97-5.66-.39-12.2-.58-17.99-.12-1-.12-2.02 0-3.03.35-1.24-1.35.78-.57.41 1.64-.35 3.32-.42 4.98-.21l30.29-1.13c1.1 0 1.12-1.95 0-1.9l-35.57 1.34c-.47.01-.85.44-.85.96.23 7.55.47 15.13.71 22.74 0 .52.38.95.85.96l35.57-1.36c.47-.02.85-.42.87-.94l-.55-17.69c0-1.21-1.77-1.21-1.72 0ZM2869.47 1238.32c.23 7.6 1.65 16.15.72 23.64-.35 2.92 1.88.49-1.6 1.24-3.36.4-6.75.53-10.12.39l-25.89 1.01c-3.3 0-6.8.62-10.12.38-3.32-.23-1.02 1.27-1.74-.62-2.49-6.53-.58-19.06-.82-26.22 0-2.58.35-4.88-.58-4.26 1.37-.93 5.48-.21 7.18-.26l43.62-1.68c1.11 0 1.11-1.99 0-1.94l-51.24 1.96c-.48.02-.87.45-.88.99l1.04 33.09c-.01.52.36.94.82.96h.04l51.24-1.96c.47 0 .86-.43.86-.96-.26-8.6-.53-17.18-.79-25.84 0-1.24-1.79-1.24-1.74 0ZM3062.69 1130.1c.41 4.93.56 9.87.46 14.81-.3 4.66 1.87 1.19-1.2 2.53-6.61 2.71-17.81.69-24.93.97l-32.62 1.21c-3.72.15-7.46.46-11.18.43-.62 0-2.31.46-2.79 0-1.69-1.06 1.2 2.23 0-.3-1.6-3.45-.35-11.29-.47-15.19 0-.96-.8-5.65-.2-6.46-.47.63-.86 1.24.53.56 5.63-2.84 17.44-.66 23.49-.89l49.6-1.87c1.11 0 1.11-1.95 0-1.9l-74.5 2.81c-.48.01-.87.44-.88.96.25 7.78.48 15.52.74 23.29.01.52.4.94.88.94l74.5-2.76c.48 0 .87-.41.88-.94l-.58-18.12c0-1.22-1.78-1.22-1.73 0ZM3077.26 1161h-99.52c-.48.09-.81.61-.73 1.16.06.43.36.77.73.84h99.52c.48-.09.81-.61.73-1.16-.06-.43-.36-.77-.73-.84ZM3068.26 1182h-49.52c-.48.09-.81.61-.73 1.16.06.43.35.77.73.84h49.52c.48-.09.81-.61.73-1.16-.06-.43-.35-.77-.73-.84ZM3054.27 1191h-35.54c-.47.09-.8.61-.72 1.16.06.43.35.77.72.84h35.54c.48-.09.79-.61.72-1.16-.06-.43-.35-.77-.72-.84Z"/><path fill="#00B0F0" d="M2858.26 1156h-49.52c-.48.09-.8.61-.73 1.16.06.43.35.77.73.84h49.52c.48-.09.81-.61.73-1.16-.06-.43-.35-.77-.73-.84ZM2845.25 1165h-36.5c-.49.09-.82.61-.74 1.16.06.43.36.77.74.84h36.5c.49-.09.82-.61.74-1.16-.06-.43-.36-.77-.74-.84ZM3068.25 1213h-50.5c-.49.09-.82.61-.74 1.16.07.43.36.77.74.84h50.5c.49-.09.82-.61.74-1.16-.07-.43-.36-.77-.74-.84ZM3043.24 1255h-25.48c-.49.09-.83.61-.75 1.16.07.43.37.77.75.84h25.48c.49-.09.83-.61.75-1.16-.07-.43-.37-.77-.75-.84ZM2776.27 1244h-24.54c-.47.09-.79.61-.72 1.16.06.43.35.77.72.84h24.54c.47-.09.79-.61.72-1.16-.06-.43-.35-.77-.72-.84ZM2859.16 1245l-29.32 2.29c-1.11 0-1.13 1.8 0 1.71l29.32-2.29c1.11 0 1.13-1.8 0-1.71ZM2929.25 1201h-27.5c-.49.09-.82.61-.74 1.16.06.43.36.77.74.84h27.5c.49-.09.82-.61.74-1.16-.06-.43-.36-.77-.74-.84ZM3068.25 1247h-50.5c-.49.09-.82.61-.74 1.16.07.43.36.77.74.84h50.5c.49-.09.82-.61.74-1.16-.07-.43-.36-.77-.74-.84Z"/><path fill="#00B0F0" d="m2893.7 1192.49-.7 22.79c-.01.52.35.96.82.97h.05l45.35 1.75c.47-.01.85-.44.87-.97l.91-29.31c-.01-.54-.41-.97-.89-.97l-45.33-1.75c-1.12 0-1.12 1.91 0 1.96l38.6 1.49c1.45 0 4.9-.6 6.12.23 1.22.84-.87-1.83-.28-.29.17 1.06.17 2.14 0 3.19-1.04 7.52 1.26 16.71-.75 23.97-.5 1.77 1.76.26-1.43.41-2.7 0-5.47-.21-8.17-.31l-23.69-.91c-2.98-.13-5.96-.29-8.97-.34-3-.05-1.12.96-1.31-.99-.61-6.74.45-14.13.66-20.89-.08-.54-.54-.91-1.03-.82-.37.07-.67.4-.73.82ZM2796.69 1187.14c-12.35 7.92-21.76 20.17-26.64 34.69-.38 1.18 1.34 1.67 1.72.51 4.75-14.03 13.87-25.88 25.82-33.53.98-.64 0-2.31-.9-1.67Z"/><path fill="#00B0F0" d="M2767.01 1212.22c.75 5.02 1.53 10.07 2.28 15.09.11.8.98.85 1.43.44l10.99-10.35c.85-.81-.36-2.18-1.2-1.37l-10.99 10.34 1.41.42c-.75-5.02-1.5-10.07-2.28-15.09-.18-1.24-1.82-.69-1.64.52ZM2858.66 1180.91c10.49 4.55 19.22 12.89 24.7 23.61.54 1.09 2.07.13 1.53-.97-5.74-11.16-14.87-19.81-25.83-24.48-1.06-.46-1.51 1.38-.47 1.84Z"/><path fill="#00B0F0" d="M2885.28 1194.8v12.26l1.28-.8-10.28-6.65c-.41-.25-.93-.09-1.17.35-.23.45-.09 1.03.32 1.28l10.29 6.65c.42.25.95.07 1.18-.39.06-.14.1-.29.1-.44v-12.26c-.08-.52-.53-.87-1-.79-.37.07-.66.39-.72.79ZM2839.02 1196.21c1.4 7.97 2.46 16.02 3.41 24.1.16 1.21 1.71.7 1.56-.52-.93-8.07-1.99-16.13-3.41-24.1-.22-1.21-1.78-.7-1.56.52Z"/><path fill="#00B0F0" d="M2845.33 1213.67c-.9 3.04-1.81 6.05-2.7 9.08l1.37-.42c-1.85-2.61-3.74-5.23-5.62-7.85-.68-.97-1.86.45-1.17 1.39 1.88 2.62 3.76 5.23 5.62 7.85.34.38.87.37 1.19-.02.1-.12.17-.26.21-.42l2.72-9.09c.35-1.2-1.26-1.7-1.62-.52ZM3001.15 1191.07h-15.3l.88.95v-17.04l-.88.95h15.3l-.88-.95v17.04c.08.53.53.9 1.01.81.37-.07.66-.39.72-.81v-17.04c0-.53-.38-.97-.85-.98h-15.3c-.47.01-.85.45-.85.98v17.04c0 .53.38.97.85.98h15.3c.47-.09.8-.59.72-1.12-.06-.42-.35-.74-.72-.81ZM3001.15 1222.07h-15.3l.88.95v-17.04l-.88.95h15.3l-.88-.95v17.04c.08.53.53.9 1.01.81.37-.07.66-.39.72-.81v-17.04c0-.53-.38-.97-.85-.98h-15.3c-.47.01-.85.45-.85.98v17.04c0 .53.38.97.85.98h15.3c.47-.09.8-.59.72-1.12-.06-.42-.35-.74-.72-.81ZM3001.15 1253.07h-15.3l.88.98v-17.1l-.88.98h15.3l-.88-.98v17.1c.08.53.53.89 1.01.81.37-.07.66-.4.72-.81v-17.1c-.01-.52-.39-.94-.85-.95h-15.3c-.46.01-.84.43-.85.95v17.1c.01.52.39.94.85.95h15.3c.47-.09.8-.59.72-1.12-.06-.42-.35-.75-.72-.81Z"/><path fill="#00B0F0" d="M2981.45 1178.4c3.83 1.8 7.2 4.6 9.78 8.16.24.43.76.57 1.17.31.06-.04.11-.09.16-.14 4.95-4.96 11.12-9.69 17.81-10.91 1.1-.19.64-2-.44-1.8-7.06 1.31-11.57 6.34-17.34 10.23-1.86 1.26-.14.57-.76 0-1.19-.92-2.15-2.48-3.35-3.44-1.9-1.63-3.97-3-6.18-4.07-.99-.49-1.86 1.12-.85 1.59ZM2981.45 1210.74c3.84 1.93 7.2 4.94 9.78 8.76.24.48.76.64 1.16.37.06-.04.12-.09.17-.15 4.95-5.34 11.12-10.45 17.81-11.75 1.1-.22.64-2.17-.44-1.95-7.06 1.39-11.57 6.83-17.34 11.03-1.86 1.36-.14.61-.76 0-1.19-1.02-2.15-2.67-3.35-3.72-1.9-1.76-3.97-3.24-6.18-4.4-.99-.51-1.86 1.2-.85 1.73ZM2981.45 1240.4c3.84 1.79 7.2 4.59 9.78 8.14.24.44.76.59 1.16.34.06-.04.12-.09.17-.14 4.95-4.96 11.12-9.7 17.81-10.91 1.1-.23.64-2.01-.44-1.81-7.06 1.29-11.57 6.34-17.34 10.24-1.86 1.26-.14.57-.76 0-1.19-.94-2.15-2.48-3.35-3.45-1.9-1.63-3.97-3.01-6.18-4.09-.99-.47-1.86 1.11-.85 1.61ZM2827.51 1126.8c14.99.76 33.41 10.76 37.25 28.18 4.66 20.96-20.95 29.49-35.32 30-13.66.45-36.92-4.84-39.32-22.79-2.7-20.48 24.31-24.84 37.46-25.16.48-.09.81-.58.73-1.11-.06-.41-.35-.73-.73-.79-13.69.35-39.58 4.55-39.58 24.68 0 20.89 26.71 27.65 41.4 27.17 14.69-.48 38.48-8.28 37.57-28.38-.9-20.11-23.14-32.79-39.44-33.6-1.14 0-1.14 1.85 0 1.9ZM2781.64 1236.99c.16 5.38.66 10.84.5 16.22 0 1.59 1.61.63-.87.58-2.48-.05-4.59.18-7.03.25l-17.98.69c-2.34-.05-4.69.04-7.02.27-2.48.41-.81.66-.94-.15-.97-5.66-.39-12.2-.58-17.99-.12-1-.12-2.02 0-3.03.35-1.24-1.35.78-.57.41 1.64-.35 3.32-.42 4.98-.21l30.29-1.13c1.1 0 1.12-1.95 0-1.9l-35.57 1.34c-.47.01-.85.44-.85.96.23 7.55.47 15.13.71 22.74 0 .52.38.95.85.96l35.57-1.36c.47-.02.85-.42.87-.94l-.55-17.69c0-1.21-1.77-1.21-1.72 0Z"/><path fill="#0070C0" d="M2869.47 1238.32c.23 7.6 1.65 16.15.72 23.64-.35 2.92 1.88.49-1.6 1.24-3.36.4-6.75.53-10.12.39l-25.89 1.01c-3.3 0-6.8.62-10.12.38-3.32-.23-1.02 1.27-1.74-.62-2.49-6.53-.58-19.06-.82-26.22 0-2.58.35-4.88-.58-4.26 1.37-.93 5.48-.21 7.18-.26l43.62-1.68c1.11 0 1.11-1.99 0-1.94l-51.24 1.96c-.48.02-.87.45-.88.99l1.04 33.09c-.01.52.36.94.82.96h.04l51.24-1.96c.47 0 .86-.43.86-.96-.26-8.6-.53-17.18-.79-25.84 0-1.24-1.79-1.24-1.74 0ZM3062.69 1130.1c.41 4.93.56 9.87.46 14.81-.3 4.66 1.87 1.19-1.2 2.53-6.61 2.71-17.81.69-24.93.97l-32.62 1.21c-3.72.15-7.46.46-11.18.43-.62 0-2.31.46-2.79 0-1.69-1.06 1.2 2.23 0-.3-1.6-3.45-.35-11.29-.47-15.19 0-.96-.8-5.65-.2-6.46-.47.63-.86 1.24.53.56 5.63-2.84 17.44-.66 23.49-.89l49.6-1.87c1.11 0 1.11-1.95 0-1.9l-74.5 2.81c-.48.01-.87.44-.88.96.25 7.78.48 15.52.74 23.29.01.52.4.94.88.94l74.5-2.76c.48 0 .87-.41.88-.94l-.58-18.12c0-1.22-1.78-1.22-1.73 0Z"/><path fill="#00B0F0" d="M3077.26 1161h-99.52c-.48.09-.81.61-.73 1.16.06.43.36.77.73.84h99.52c.48-.09.81-.61.73-1.16-.06-.43-.36-.77-.73-.84Z"/><path fill="#0070C0" d="M3068.26 1182h-49.52c-.48.09-.81.61-.73 1.16.06.43.35.77.73.84h49.52c.48-.09.81-.61.73-1.16-.06-.43-.35-.77-.73-.84ZM3054.27 1191h-35.54c-.47.09-.8.61-.72 1.16.06.43.35.77.72.84h35.54c.48-.09.79-.61.72-1.16-.06-.43-.35-.77-.72-.84ZM2858.26 1156h-49.52c-.48.09-.8.61-.73 1.16.06.43.35.77.73.84h49.52c.48-.09.81-.61.73-1.16-.06-.43-.35-.77-.73-.84ZM2845.25 1165h-36.5c-.49.09-.82.61-.74 1.16.06.43.36.77.74.84h36.5c.49-.09.82-.61.74-1.16-.06-.43-.36-.77-.74-.84ZM3068.25 1213h-50.5c-.49.09-.82.61-.74 1.16.07.43.36.77.74.84h50.5c.49-.09.82-.61.74-1.16-.07-.43-.36-.77-.74-.84Z"/><path fill="#00B0F0" d="M3043.24 1255h-25.48c-.49.09-.83.61-.75 1.16.07.43.37.77.75.84h25.48c.49-.09.83-.61.75-1.16-.07-.43-.37-.77-.75-.84Z"/><path fill="#0070C0" d="M2776.27 1244h-24.54c-.47.09-.79.61-.72 1.16.06.43.35.77.72.84h24.54c.47-.09.79-.61.72-1.16-.06-.43-.35-.77-.72-.84Z"/><path fill="#00B0F0" d="m2859.16 1245-29.32 2.29c-1.11 0-1.13 1.8 0 1.71l29.32-2.29c1.11 0 1.13-1.8 0-1.71ZM2929.25 1201h-27.5c-.49.09-.82.61-.74 1.16.06.43.36.77.74.84h27.5c.49-.09.82-.61.74-1.16-.06-.43-.36-.77-.74-.84ZM3068.25 1247h-50.5c-.49.09-.82.61-.74 1.16.07.43.36.77.74.84h50.5c.49-.09.82-.61.74-1.16-.07-.43-.36-.77-.74-.84Z"/><path fill="#0070C0" d="m2893.7 1192.49-.7 22.79c-.01.52.35.96.82.97h.05l45.35 1.75c.47-.01.85-.44.87-.97l.91-29.31c-.01-.54-.41-.97-.89-.97l-45.33-1.75c-1.12 0-1.12 1.91 0 1.96l38.6 1.49c1.45 0 4.9-.6 6.12.23 1.22.84-.87-1.83-.28-.29.17 1.06.17 2.14 0 3.19-1.04 7.52 1.26 16.71-.75 23.97-.5 1.77 1.76.26-1.43.41-2.7 0-5.47-.21-8.17-.31l-23.69-.91c-2.98-.13-5.96-.29-8.97-.34-3-.05-1.12.96-1.31-.99-.61-6.74.45-14.13.66-20.89-.08-.54-.54-.91-1.03-.82-.37.07-.67.4-.73.82Z"/><path fill="#00B0F0" d="M2796.69 1187.14c-12.35 7.92-21.76 20.17-26.64 34.69-.38 1.18 1.34 1.67 1.72.51 4.75-14.03 13.87-25.88 25.82-33.53.98-.64 0-2.31-.9-1.67Z"/><path fill="#00B0F0" d="M2767.01 1212.22c.75 5.02 1.53 10.07 2.28 15.09.11.8.98.85 1.43.44l10.99-10.35c.85-.81-.36-2.18-1.2-1.37l-10.99 10.34 1.41.42c-.75-5.02-1.5-10.07-2.28-15.09-.18-1.24-1.82-.69-1.64.52ZM2858.66 1180.91c10.49 4.55 19.22 12.89 24.7 23.61.54 1.09 2.07.13 1.53-.97-5.74-11.16-14.87-19.81-25.83-24.48-1.06-.46-1.51 1.38-.47 1.84Z"/><path fill="#00B0F0" d="M2885.28 1194.8v12.26l1.28-.8-10.28-6.65c-.41-.25-.93-.09-1.17.35-.23.45-.09 1.03.32 1.28l10.29 6.65c.42.25.95.07 1.18-.39.06-.14.1-.29.1-.44v-12.26c-.08-.52-.53-.87-1-.79-.37.07-.66.39-.72.79ZM2839.02 1196.21c1.4 7.97 2.46 16.02 3.41 24.1.16 1.21 1.71.7 1.56-.52-.93-8.07-1.99-16.13-3.41-24.1-.22-1.21-1.78-.7-1.56.52Z"/><path fill="#00B0F0" d="M2845.33 1213.67c-.9 3.04-1.81 6.05-2.7 9.08l1.37-.42c-1.85-2.61-3.74-5.23-5.62-7.85-.68-.97-1.86.45-1.17 1.39 1.88 2.62 3.76 5.23 5.62 7.85.34.38.87.37 1.19-.02.1-.12.17-.26.21-.42l2.72-9.09c.35-1.2-1.26-1.7-1.62-.52ZM3001.15 1191.07h-15.3l.88.95v-17.04l-.88.95h15.3l-.88-.95v17.04c.08.53.53.9 1.01.81.37-.07.66-.39.72-.81v-17.04c0-.53-.38-.97-.85-.98h-15.3c-.47.01-.85.45-.85.98v17.04c0 .53.38.97.85.98h15.3c.47-.09.8-.59.72-1.12-.06-.42-.35-.74-.72-.81ZM3001.15 1222.07h-15.3l.88.95v-17.04l-.88.95h15.3l-.88-.95v17.04c.08.53.53.9 1.01.81.37-.07.66-.39.72-.81v-17.04c0-.53-.38-.97-.85-.98h-15.3c-.47.01-.85.45-.85.98v17.04c0 .53.38.97.85.98h15.3c.47-.09.8-.59.72-1.12-.06-.42-.35-.74-.72-.81ZM3001.15 1253.07h-15.3l.88.98v-17.1l-.88.98h15.3l-.88-.98v17.1c.08.53.53.89 1.01.81.37-.07.66-.4.72-.81v-17.1c-.01-.52-.39-.94-.85-.95h-15.3c-.46.01-.84.43-.85.95v17.1c.01.52.39.94.85.95h15.3c.47-.09.8-.59.72-1.12-.06-.42-.35-.75-.72-.81Z"/><path fill="#FF0083" d="M2981.45 1178.4c3.83 1.8 7.2 4.6 9.78 8.16.24.43.76.57 1.17.31.06-.04.11-.09.16-.14 4.95-4.96 11.12-9.69 17.81-10.91 1.1-.19.64-2-.44-1.8-7.06 1.31-11.57 6.34-17.34 10.23-1.86 1.26-.14.57-.76 0-1.19-.92-2.15-2.48-3.35-3.44-1.9-1.63-3.97-3-6.18-4.07-.99-.49-1.86 1.12-.85 1.59ZM2981.45 1210.74c3.84 1.93 7.2 4.94 9.78 8.76.24.48.76.64 1.16.37.06-.04.12-.09.17-.15 4.95-5.34 11.12-10.45 17.81-11.75 1.1-.22.64-2.17-.44-1.95-7.06 1.39-11.57 6.83-17.34 11.03-1.86 1.36-.14.61-.76 0-1.19-1.02-2.15-2.67-3.35-3.72-1.9-1.76-3.97-3.24-6.18-4.4-.99-.51-1.86 1.2-.85 1.73ZM2981.45 1240.4c3.84 1.79 7.2 4.59 9.78 8.14.24.44.76.59 1.16.34.06-.04.12-.09.17-.14 4.95-4.96 11.12-9.7 17.81-10.91 1.1-.23.64-2.01-.44-1.81-7.06 1.29-11.57 6.34-17.34 10.24-1.86 1.26-.14.57-.76 0-1.19-.94-2.15-2.48-3.35-3.45-1.9-1.63-3.97-3.01-6.18-4.09-.99-.47-1.86 1.11-.85 1.61Z"/><path fill="#F1C40F" d="M2601.04 1441.7c-12.92 75.46 77.13 35.89 113.03 36.78 2.35.05 4.67.51 6.87 1.34l11.06 47.9-10.75 49.57-25.12 39.71h-156.45l-112.99-76.5-28.69-89.76 8.07-145.4 3.44-23.34s3.43 28.74 82.45 21.56c79.02-7.19 140.86-32.63 158.72-7.19 21.75 30.53-41.09 95.41-49.64 145.33Z"/><path fill-opacity=".2" d="M2718 1564.38v28.37l-45.01 18.25-88.66-4.73-23.33-29.74 9.88-15.53h57.09l90.03 3.38Z"/><path fill="#263238" d="M2547 1657h28v124h-28Z"/><path fill="#FFF" fill-opacity=".501961" d="M2547 1657h28v124h-28Z"/><path fill="#263238" d="M2581.66 1769h-41.32l-84.34 15.95V1799h17.36l66.98-12.64h41.32l66.98 12.64H2666v-14.05l-84.34-15.95Z"/><path fill="#FFF" fill-opacity=".301961" d="M2581.66 1769h-41.32l-84.34 15.95V1799h17.36l66.98-12.64h41.32l66.98 12.64H2666v-14.05l-84.34-15.95Z"/><path fill="#407BFF" d="M2648.29 1806h17.42c2.37 0 4.29-2.02 4.29-4.5s-1.92-4.5-4.29-4.5h-17.42c-2.37 0-4.29 2.02-4.29 4.5s1.92 4.5 4.29 4.5ZM2456.29 1806h17.42c2.37 0 4.29-2.02 4.29-4.5s-1.92-4.5-4.29-4.5h-17.42c-2.37 0-4.29 2.02-4.29 4.5s1.92 4.5 4.29 4.5Z"/><path fill-opacity=".2" d="M2547 1657h28v28h-28Z"/><path fill="#407BFF" d="M2707.47 1582H2545v-35h162.47c9.67 0 17.51 7.82 17.53 17.48 0 9.68-7.85 17.52-17.53 17.52Z"/><path fill-opacity=".101961" d="M2707.47 1582H2545v-35h162.47c9.67 0 17.51 7.82 17.53 17.48 0 9.68-7.85 17.52-17.53 17.52Z"/><path fill="#FFC3BD" d="M2572 1329s20.56 58.63 37.7 59.87c17.13 1.24 37.7-30.07 37.7-30.07l8.46-22.14 17.14-1.45v27.8l-17.51 8.82s-26.77 44.25-47.54 43.15c-20.77-1.1-41.74-33.45-45.99-49.94-2.37-9.14-.83-27.94 10.04-36.04Z"/><path fill="#263238" d="m2676.67 1377 6.33-51.37-24.26-1.63-.74 51.75 18.67 1.25Z"/><path fill="#FFF" fill-opacity=".501961" d="m2676.67 1377 6.33-51.37-24.26-1.63-.74 51.75 18.67 1.25Z"/><path fill="#407BFF" d="m2659.62 1317.16 23.56 1.59-.49 7.34-23.57-1.59Z"/><path fill="#263238" d="m2659.75 1315.66 20.94 1.46c.74.06 1.29.7 1.24 1.44l-.26 3.71-23.61-1.65.25-3.68c.04-.74.67-1.32 1.41-1.28h.03Z"/><path fill="#0070C0" d="M2565.88 1380s-22.43-36.46-8.09-53.73c14.34-17.28 36.21 39.62 36.21 39.62Z"/><path fill="#0070C0" d="M2454.13 1521s-28.02-97.95 4.86-195.39c0 0 42.62-19.83 103.37-5.27 6.85 1.61 11.1 8.47 9.48 15.32-.02.1-.05.2-.08.31-6.06 23.64-15.47 79.98 7.24 151.2-38.32 21.09-81.14 32.69-124.87 33.83Z"/><path fill="#FFC3BD" d="m2508 1316.11 20.3 17.89 11.7-10.62c-4.43-3.46-3.38-11-.74-19.24L2510.6 1281c1.39 10.86 2.34 25.77-2.6 35.11ZM2656.89 1546l38.11 15.19-4.29 15.81-40.71-8.21 6.89-22.79Z"/><path fill="#263238" d="M2527.65 1490.58s181.26-63.01 196.22-5.1c14.96 57.9-122.42 97.83-194.4 95.42-71.98-2.42-1.82-90.32-1.82-90.32Z"/><path fill-opacity=".301961" d="M2527.65 1490.58s181.26-63.01 196.22-5.1c14.96 57.9-122.42 97.83-194.4 95.42-71.98-2.42-1.82-90.32-1.82-90.32Z"/><path fill-opacity=".701961" d="m2662.36 1496.85-88.13 56.06 14.04 23.01s-8.5 2.82-20.27-25.31l54.47-35.93s-17.2-1.72-16.62-4.36c.73-4.36 38.16-12.71 55.23-16.28.86-.19 1.7.35 1.88 1.21.14.6-.1 1.24-.6 1.6Z"/><path fill-opacity=".701961" d="m2571.69 1550.51 15.31 25.79c-18.84 3.41-37.97 4.98-57.12 4.66-6.32-.04-12.58-1.2-18.49-3.43l-5.39-10.29 11.61-24.24Z"/><path fill="#FFC3BD" d="m2573.16 1554-17.16 14.6 7.89 12.4 26.11-4.16-16.84-22.84Z"/><path fill="#263238" d="m2594 1577.08-17.91-28.08-8.09 5.75 15.5 24.25 10.5-1.92Z"/><path fill="#FFF" fill-opacity=".301961" d="m2594 1577.08-17.91-28.08-8.09 5.75 15.5 24.25 10.5-1.92Z"/><path fill="#263238" d="M2464.29 1550.94c-9.74-16.53-28.57-66.67 16.69-75.32 45.26-8.64 194.02 75.35 194.02 75.35l-6.88 21.86-140.85-23.34s39.17 35.61-3.68 31.12c-34.01-3.5-49.8-13.52-59.3-29.67Z"/><path fill="#263238" d="m2670.95 1546-8.95 27.82 8.95 1.18 8.05-24.02-8.05-4.98Z"/><path fill="#FFF" fill-opacity=".301961" d="m2670.95 1546-8.95 27.82 8.95 1.18 8.05-24.02-8.05-4.98Z"/><path fill="#263238" d="m2568.64 1579.95-6.16-18.87c-.25-.71-.94-1.15-1.68-1.07l-16.38 1.62c-1.46.13-2.53 1.41-2.41 2.88v.02c-.01.18-.01.37 0 .55 2.34 6.73 4.72 12.66 7.47 21.12 3.44 9.97 1.24 7.83 4.92 19.63 2.23 7.11 10.66 5.76 10.08 2.62-2.79-14.28.89-17.08 4.02-23.98.61-1.43.66-3.05.14-4.52ZM2691.55 1559.87l-6.47 19.19c-.23.73.07 1.52.73 1.92l14.8 8.62c1.31.78 3.01.38 3.8-.9.01 0 .01-.01.02-.02l.24-.51c2.21-6.85 3.89-13.25 6.83-21.87 3.5-10.27 3.78-7.19 8.01-19.06 2.52-7.19-5.42-11.19-7-8.28-6.51 13.41-11.3 13.45-18.27 17.11-1.34.9-2.3 2.25-2.69 3.8ZM2666.91 1496h-82c-3.82 0-6.91-3.13-6.91-7h96c0 3.87-3.09 7-6.91 7h-.18Z"/><path fill="#FFF" fill-opacity=".2" d="M2666.91 1496h-82c-3.82 0-6.91-3.13-6.91-7h96c0 3.87-3.09 7-6.91 7h-.18Z"/><path fill="#263238" d="M2606.97 1496h-59.11c-3.79 0-6.86-3.13-6.86-7h73c0 3.87-3.07 7-6.86 7h-.17Z"/><path fill="#FFF" fill-opacity=".501961" d="M2606.97 1496h-59.11c-3.79 0-6.86-3.13-6.86-7h73c0 3.87-3.07 7-6.86 7h-.17Z"/><path fill="#263238" d="M2667.47 1494h-53.82c-.92 0-1.66-.75-1.65-1.67 0-.18.03-.37.09-.54l23.95-68.64c.67-1.89 2.45-3.15 4.45-3.15h53.86c.92 0 1.66.75 1.65 1.67 0 .18-.03.37-.09.54l-23.95 68.64c-.68 1.89-2.48 3.15-4.49 3.15Z"/><path fill="#FFF" fill-opacity=".501961" d="M2667.47 1494h-53.82c-.92 0-1.66-.75-1.65-1.67 0-.18.03-.37.09-.54l23.95-68.64c.67-1.89 2.45-3.15 4.45-3.15h53.86c.92 0 1.66.75 1.65 1.67 0 .18-.03.37-.09.54l-23.95 68.64c-.68 1.89-2.48 3.15-4.49 3.15Z"/><path fill="#263238" d="M2669.52 1494h-53.87c-.92 0-1.66-.75-1.65-1.67 0-.18.03-.37.09-.54l23.94-68.64c.67-1.89 2.45-3.15 4.45-3.15h53.87c.92 0 1.66.75 1.65 1.67 0 .18-.03.37-.09.54l-23.94 68.64c-.67 1.89-2.45 3.15-4.45 3.15Z"/><path fill="#FFF" fill-opacity=".701961" d="M2669.52 1494h-53.87c-.92 0-1.66-.75-1.65-1.67 0-.18.03-.37.09-.54l23.94-68.64c.67-1.89 2.45-3.15 4.45-3.15h53.87c.92 0 1.66.75 1.65 1.67 0 .18-.03.37-.09.54l-23.94 68.64c-.67 1.89-2.45 3.15-4.45 3.15Z"/><path fill="#FFF" d="M2660.78 1457.02c-.63 2.76-2.57 4.98-4.4 4.98-1.83 0-2.8-2.22-2.2-4.98.59-2.77 2.57-5.02 4.4-5.02 1.83 0 2.91 2.25 2.2 5.02Z"/><path fill="#FFC3BD" d="M2481.17 1355s13.13 64.45 21.99 75.14c8.86 10.68 47.44 39.44 47.44 39.44l22.96-4.77 16.44 13.74-10.76 8.45-12.72-4.78c-6.94 1.23-13.98 1.84-21.03 1.83-11.85 0-60.02-28.25-69.56-44.12-9.55-15.87-22.93-75.58-22.93-75.58Z"/><path fill="#0070C0" d="M2454.55 1387s-15.29-45.37 4.88-60.73c20.18-15.36 29.57 52.34 29.57 52.34Z"/><path fill-opacity=".101961" d="M2510.48 1284.83c0-1.31-.31-2.59-.48-3.83l29 23.07c-1.05 3.23-1.76 6.55-2.12 9.93-17.6.14-24.18-19.38-26.4-29.17Z"/><path fill="#FFC3BD" d="M2515.31 1247.31c-6.12 20.57-9.17 29.1-2.7 42.92 9.69 21.02 36.45 24 48.46 5.69 10.86-16.49 19.24-47.21 2.24-62.33-12.01-10.83-30.61-9.97-41.55 1.93-3.1 3.37-5.35 7.4-6.59 11.79Z"/><path fill="#263238" d="M2539.25 1268.3c-.53 1.6-.19 3.24.8 3.62 1 .38 2.18-.61 2.7-2.22.53-1.61.19-3.42-.77-3.66-.96-.24-2.17.58-2.73 2.26ZM2557.26 1274.3c-.56 1.64-.18 3.42.75 3.66.94.24 2.21-.62 2.74-2.26.53-1.64.19-3.42-.78-3.66-.96-.24-2.15.75-2.71 2.26Z"/><path fill="#ED893E" d="M2551.51 1275c.98 4.22 2.49 8.28 4.49 12.07-1.85 1.09-4.05 1.23-6 .39Z"/><path fill="#263238" d="M2538.28 1258.67c.32.35.82.44 1.23.22 3.3-1.16 6.9-.81 9.95.97.49.29 1.11.11 1.38-.41.01-.01.01-.03.02-.04.29-.51.12-1.17-.36-1.47-.01-.01-.02-.01-.03-.02-3.64-2.11-7.95-2.5-11.87-1.07-.53.26-.75.93-.5 1.48.03.13.09.25.18.34ZM2568.43 1270.88c.31.16.69.16 1 0 .48-.23.69-.76.5-1.23-1.21-2.82-3.77-4.93-6.9-5.65-.57 0-1.03.44-1.03.98 0 .41.26.77.67.91 2.46.58 4.48 2.25 5.43 4.49.06.19.18.36.33.5Z"/><path fill="#263238" d="M2511.5 1259.52c3.92-.13 7-3.41 6.88-7.33-.02-.55-.11-1.1-.25-1.62 0 0 12.75-.35 13.3-9.68 0 0 11.14 9.85 15.06 2.16 0 0 13.75 12.18 15.46 4.12 0 0 14.16 17.57 13.44 6.86 0 0 15.99-1.61 1.62-15.4 0 0 13.13-11.46-8.08-16.13 0 0 1.86-13.73-13.06-7.62 0 0-3.44-14.79-16.36-6.17 0 0-6.87-10.3-14.64 3.43 0 0-11.28-6.42-14.85 8.09 0 0-20.38 2.47-12 15.86 0 0 6.29 44.91 12 44.91 3.88-.03 1.48-21.48 1.48-21.48Z"/><path fill="#FFC3BD" d="M2505.02 1261.53c.13 4.1 1.8 7.99 4.65 10.8 3.78 3.72 8.11.75 9.02-4.29.91-5.04 0-12-4.92-13.63-3.38-1.28-7.11.55-8.33 4.09l-.09.3c-.29.88-.4 1.81-.33 2.73Z"/><path fill="#263238" d="M2543.4 1292.55c.69.21 1.39.36 2.11.44.22.04.44-.11.49-.34.02-.24-.16-.46-.39-.48h-.01c-3.66-.4-6.92-2.6-8.77-5.91-.1-.22-.35-.32-.57-.22-.01 0-.02.01-.02.01-.21.11-.3.37-.2.59 1.58 2.92 4.24 5.05 7.36 5.91Z"/><path fill="#E1B90D" d="M2395.42 1283.43s-73.36 376.49 169.25 383.41c221.28 6.26 171.8-174.29 157.43-186.85-14.37-12.56 39.56 115.86-49.48 117.68-107.37 2.17-126.83-99.79-162.81-100.61-35.97-.83-90.27 46.69-95.79-39.54-5.51-86.24 22.92-232.59-18.6-174.09Z"/><path fill="#EBEBEB" d="m2962.35 1462.3-34.85-11.19c-1.18-.44-1.79-1.8-1.36-3.03.33-.94 1.18-1.56 2.14-1.56l40.18 2.2c-9.49-17.13-15.1-27.84-21.48-41.25-.5-1.2.03-2.6 1.18-3.12.87-.39 1.87-.19 2.54.51 8.57 10.02 15.75 18.15 27.25 30.97 2.74-16.59 5.93-31.87 9.9-47.2.39-1.24 1.67-1.92 2.87-1.51.96.32 1.6 1.27 1.57 2.32-1.06 12.35-1.45 24.75-1.16 37.15l1.1.4c9.63-11.43 19.75-22.42 30.35-32.96.99-.8 2.42-.62 3.2.41.61.8.65 1.92.11 2.77-10.25 13.5-19.72 27.62-28.35 42.29 13.77-5.4 27.62-10.64 41.55-15.71 1.21-.36 2.47.37 2.82 1.63.28 1-.11 2.07-.95 2.64-14.44 8.5-28.69 17.2-42.97 26.2l36.74 12.16c1.19.44 1.8 1.8 1.37 3.03-.33.96-1.21 1.58-2.19 1.56l-37.74-2.37c7.46 9.08 12.66 15.31 18.68 22.35.8 1.01.65 2.5-.32 3.33-.75.64-1.8.71-2.62.2-7.6-5.24-14.26-9.88-23.99-16.59 1 8.06 1.84 14.22 2.87 20.43.13 1.3-.77 2.47-2.03 2.6-.97.11-1.89-.43-2.3-1.35-2.54-6.7-4.84-13.36-7.76-22.22-10.97 54.49-8.14 107.4 2.49 161.61l-13.16-2.37c-7.74-53.25-5.65-107.54 6.16-159.98-6.59 7.11-11.41 12.39-15.97 17.75-.9.92-2.34.9-3.22-.03-.69-.73-.85-1.83-.4-2.74 3.1-5.36 6.45-10.78 10.97-17.82-11.75 2.68-19.78 4.53-28.65 6.61-1.24.23-2.42-.62-2.65-1.91-.17-1 .29-2.01 1.15-2.5 8.18-4.43 15.78-8.22 26.93-13.71Z"/><path fill="#F0F0F0" d="m2943.51 1481.1 26.82-14.71c1.5-.79 2.1-2.68 1.34-4.23-.65-1.33-2.12-2.01-3.51-1.62l-33.1 8.54c5.39-16.08 8.82-26.92 12.13-38.84.47-1.67-.46-3.41-2.08-3.89-1.32-.4-2.74.18-3.45 1.41-5.43 9.46-10.62 17.98-18.27 30.54-4.71-12.87-9.28-24.84-14.57-36.53-.74-1.56-2.56-2.21-4.06-1.45-1.29.64-1.96 2.12-1.63 3.56 2.28 9.27 4.18 18.61 5.64 27.77l-1.01.61c-8.68-7-17.56-13.71-26.63-20.13-1.38-.99-3.27-.63-4.23.8-.86 1.29-.67 3.04.44 4.1 9.56 9.07 18.7 18.58 27.41 28.53-11.74-2.1-23.51-4.1-35.29-6.01-1.67-.24-3.2.96-3.43 2.68-.2 1.48.63 2.9 1.99 3.4 13.02 4.73 25.95 9.46 38.83 14.5l-28.53 15.99c-1.52.75-2.16 2.63-1.44 4.2.66 1.44 2.26 2.14 3.72 1.62l30.73-8.06c-4.46 8.06-7.86 14.19-11.42 20.29-.88 1.48-.43 3.42 1 4.33 1.2.76 2.76.57 3.75-.47l16.38-16.7c.27 4.73.5 8.94.64 12.82.06 1.73 1.48 3.09 3.15 3.01 1.44-.05 2.63-1.15 2.88-2.61.75-4.73 1.48-9.65 2.28-15.54 20.56 51.36 27.41 103.75 26.64 158.99l12.49-4.97c-1.96-53.73-13.79-106.58-34.86-155.72 4.75 3.45 8.73 6.38 12.36 9.15 1.26 1.15 3.19 1.02 4.3-.28 1.11-1.31.98-3.3-.28-4.45-2.47-2.72-5.18-5.61-8.31-8.92 9.13.26 16.12.47 22.84.71 1.68.04 3.07-1.34 3.11-3.07.03-1.44-.88-2.72-2.22-3.1-6.46-1.87-13.38-3.79-22.55-6.25Z"/><path fill="#F5F5F5" d="m2991.32 1511.08-20.18-11c-1.06-.59-1.45-1.94-.88-3.02.47-.89 1.46-1.34 2.42-1.1l24.86 6.37c-4.06-11.98-6.57-19.93-9.06-28.83-.32-1.18.35-2.41 1.5-2.74.94-.27 1.94.13 2.44.99 4.1 6.96 7.95 13.35 13.69 22.7 3.48-9.59 7.07-18.46 11.01-27.19.52-1.11 1.82-1.57 2.89-1.04.92.46 1.41 1.51 1.17 2.53-1.78 7.1-3.23 14.2-4.34 21.08l.65.38c6.63-5.32 13.44-10.4 20.41-15.26.94-.76 2.31-.59 3.04.38.74.96.58 2.36-.37 3.12-7.26 6.77-14.17 13.87-20.73 21.3 8.85-1.58 17.72-3.09 26.63-4.52 1.18-.21 2.3.61 2.5 1.82.18 1.08-.44 2.14-1.46 2.48-9.79 3.49-19.55 7.1-29.28 10.84l21.42 11.83c1.06.58 1.47 1.92.91 3.01-.47.92-1.5 1.38-2.47 1.11l-23.04-6.01c3.36 6.08 5.92 10.63 8.59 15.24.62 1.05.29 2.42-.73 3.05-.86.53-1.95.39-2.66-.33l-12.39-12.52c-.23 3.77-.39 6.98-.51 9.99-.02 1.23-1 2.21-2.2 2.19-1.06-.02-1.95-.83-2.11-1.91-.57-3.57-1.15-7.4-1.79-11.97-15.16 37.46-20.09 75.72-19.59 115.95l-9.21-3.62c1.44-39.19 10.14-77.74 25.62-113.59-3.71 2.7-6.91 4.97-9.63 7.1-.94.77-2.3.61-3.05-.36-.68-.88-.61-2.15.17-2.95 1.96-2.13 4.08-4.4 6.59-7.1l-17.4.52c-1.19.07-2.21-.88-2.27-2.1-.06-1.06.63-2.01 1.63-2.28 5.02-1.27 10.23-2.69 17.21-4.54Z"/><path fill="#E0E0E0" d="M2934.25 1759h68.45c4.79.01 8.75-3.84 9.05-8.79l7.25-122.17c.32-5.39-101.37-5.39-101 0l7.28 122.17c.29 4.92 4.21 8.76 8.97 8.79Z"/></g></svg>