<svg xmlns="http://www.w3.org/2000/svg" height="96" width="140.16"><defs><clipPath id="a"><path d="M0 72h105.12V0H0" clip-rule="evenodd"/></clipPath><clipPath id="b"><path d="M0 72h105.12V0H0" clip-rule="evenodd"/></clipPath><clipPath id="c"><path d="M0 72h105.12V0H0" clip-rule="evenodd"/></clipPath><clipPath id="d"><path d="M0 72h105.12V0H0" clip-rule="evenodd"/></clipPath></defs><g clip-path="url(#a)" transform="matrix(1.33333 0 0 -1.33333 0 96)"><path d="M21.372 4.74L23.7 21.06H12.06V4.74z" fill="#f0c113" fill-rule="evenodd"/></g><g clip-path="url(#b)" transform="matrix(1.33333 0 0 -1.33333 0 96)"><path d="M21.372 4.74L23.7 21.06H12.06V4.74z" fill="none" stroke="#41719c" stroke-width="3" stroke-miterlimit="10"/></g><g clip-path="url(#c)" transform="matrix(1.33333 0 0 -1.33333 0 96)"><path d="M84.828 4.74L82.5 21.06h11.64V4.74z" fill="#f0c113" fill-rule="evenodd"/></g><g clip-path="url(#d)" transform="matrix(1.33333 0 0 -1.33333 0 96)"><path d="M84.828 4.74L82.5 21.06h11.64V4.74z" fill="none" stroke="#41719c" stroke-width="3" stroke-miterlimit="10"/></g><path d="M7.92 23.985C7.92 13.168 16.688 4.4 27.505 4.4h86.91C125.232 4.4 134 13.168 134 23.985v14.59c0 10.817-8.768 19.585-19.585 19.585h-86.91c-10.817 0-19.585-8.768-19.585-19.585z" fill="#47cfff" fill-rule="evenodd"/><path d="M7.92 23.985C7.92 13.168 16.688 4.4 27.505 4.4h86.91C125.232 4.4 134 13.168 134 23.985v14.59c0 10.817-8.768 19.585-19.585 19.585h-86.91c-10.817 0-19.585-8.768-19.585-19.585z" fill="none" stroke="#41719c" stroke-width="3.9999899999999995" stroke-miterlimit="10"/><path d="M40 41.92c0-1.325 1.11-2.4 2.48-2.4 1.37 0 2.48 1.075 2.48 2.4s-1.11 2.4-2.48 2.4c-1.37 0-2.48-1.075-2.48-2.4z" fill="#41719c" fill-rule="evenodd"/><path d="M40 41.92c0-1.325 1.11-2.4 2.48-2.4 1.37 0 2.48 1.075 2.48 2.4s-1.11 2.4-2.48 2.4c-1.37 0-2.48-1.075-2.48-2.4z" fill="none" stroke="#41719c" stroke-width="1.2799968" stroke-miterlimit="10"/><path d="M95.68 42.08a2.4 2.4 0 1 1 4.8 0 2.4 2.4 0 0 1-4.8 0z" fill="#41719c" fill-rule="evenodd"/><path d="M95.68 42.08a2.4 2.4 0 1 1 4.8 0 2.4 2.4 0 0 1-4.8 0z" fill="none" stroke="#41719c" stroke-width="1.2799968" stroke-miterlimit="10"/><path d="M12.96 78.72h118.08V57.76H12.96z" fill="#47cfff" fill-rule="evenodd"/><path d="M9.84 55.92h124.467" fill="none" stroke="#41719c" stroke-width="3.9999899999999995" stroke-miterlimit="10"/><path d="M3.12 40.163a5.842 5.842 0 0 1 5.842-5.843h11.835a5.843 5.843 0 0 1 5.843 5.843v31.674a5.843 5.843 0 0 1-5.843 5.843H8.962a5.842 5.842 0 0 1-5.842-5.843z" fill="#47cfff" fill-rule="evenodd"/><path d="M3.12 40.163a5.842 5.842 0 0 1 5.842-5.843h11.835a5.843 5.843 0 0 1 5.843 5.843v31.674a5.843 5.843 0 0 1-5.843 5.843H8.962a5.842 5.842 0 0 1-5.842-5.843z" fill="none" stroke="#41719c" stroke-width="3.9999899999999995" stroke-miterlimit="10"/><path d="M114.16 42.888a8.568 8.568 0 0 1 8.568-8.568h6.384a8.57 8.57 0 0 1 8.568 8.568v26.224a8.57 8.57 0 0 1-8.568 8.568h-6.384a8.568 8.568 0 0 1-8.568-8.568z" fill="#47cfff" fill-rule="evenodd"/><path d="M114.16 42.888a8.568 8.568 0 0 1 8.568-8.568h6.384a8.57 8.57 0 0 1 8.568 8.568v26.224a8.57 8.57 0 0 1-8.568 8.568h-6.384a8.568 8.568 0 0 1-8.568-8.568zM14.96 77.68h111.017" fill="none" stroke="#41719c" stroke-width="3.9999899999999995" stroke-miterlimit="10"/><path d="M67.84 42.08c0-1.325 1.11-2.4 2.48-2.4 1.37 0 2.48 1.075 2.48 2.4s-1.11 2.4-2.48 2.4c-1.37 0-2.48-1.075-2.48-2.4z" fill="#41719c" fill-rule="evenodd"/><path d="M67.84 42.08c0-1.325 1.11-2.4 2.48-2.4 1.37 0 2.48 1.075 2.48 2.4s-1.11 2.4-2.48 2.4c-1.37 0-2.48-1.075-2.48-2.4z" fill="none" stroke="#41719c" stroke-width="1.2799968" stroke-miterlimit="10"/><path d="M54.4 25.28a2.4 2.4 0 1 1 4.8 0 2.4 2.4 0 0 1-4.8 0z" fill="#41719c" fill-rule="evenodd"/><path d="M54.4 25.28a2.4 2.4 0 1 1 4.8 0 2.4 2.4 0 0 1-4.8 0z" fill="none" stroke="#41719c" stroke-width="1.2799968" stroke-miterlimit="10"/><path d="M82.08 24.96c0-1.325 1.11-2.4 2.48-2.4 1.37 0 2.48 1.075 2.48 2.4s-1.11 2.4-2.48 2.4c-1.37 0-2.48-1.075-2.48-2.4z" fill="#41719c" fill-rule="evenodd"/><path d="M82.08 24.96c0-1.325 1.11-2.4 2.48-2.4 1.37 0 2.48 1.075 2.48 2.4s-1.11 2.4-2.48 2.4c-1.37 0-2.48-1.075-2.48-2.4z" fill="none" stroke="#41719c" stroke-width="1.2799968" stroke-miterlimit="10"/></svg>