<svg xmlns="http://www.w3.org/2000/svg" overflow="hidden" viewBox="0 0 296 168">
  <defs>
    <clipPath id="a">
      <path d="M3005 862h296v168h-296z"/>
    </clipPath>
  </defs>
  <g fill-rule="evenodd" clip-path="url(#a)" transform="translate(-3005 -862)">
    <path fill="#0070C0" d="m3039.67 926.372-4.49-5.372a146.747 146.747 0 0 0-30.18 89.29V1024h6.85v-13.71a139.945 139.945 0 0 1 9.21-50.104l20.24 8.687 2.7-6.301-20.32-8.721a140.91 140.91 0 0 1 15.99-27.479ZM3153.28 862a146.639 146.639 0 0 0-91.28 31.811l5.33 4.563a140.894 140.894 0 0 1 29.4-17.554l8.73 20.453 6.32-2.716-8.7-20.336a139.445 139.445 0 0 1 46.76-9.255v24.055h6.87V868.98c16 .37 31.82 3.488 46.77 9.22l-8.7 20.354 6.32 2.715 8.73-20.449a141.256 141.256 0 0 1 40.51 27.13l-17.04 17.099 4.86 4.874 17.04-17.1a141.812 141.812 0 0 1 27.04 40.649l-20.38 8.761 2.7 6.335 20.29-8.72a140.946 140.946 0 0 1 9.28 50.362V1024h6.87v-13.79c-.09-81.814-66.18-148.117-147.72-148.21Z"/>
    <path fill="#00B0F0" d="M3165.57 1001.55a7.214 7.214 0 0 0-1.72-1.614l-122.2-104.134a3.45 3.45 0 0 0-4.85.426 3.425 3.425 0 0 0-.02 4.379l103.52 123.463c3.26 3.75 7.98 5.92 12.95 5.93 3.98 0 7.83-1.4 10.88-3.95 7.05-6.19 7.86-16.87 1.83-24.05-.14-.14-.27-.29-.39-.45Zm-5.91 19.28c-4.27 3.49-10.55 2.94-14.14-1.24l-76.89-91.668a.045.045 0 0 1 0-.05c.02-.013.04-.012.05.002l90.94 77.486c.14.12.29.23.45.32.06.07.11.14.17.22.19.24.4.47.62.68 3.48 4.31 2.95 10.59-1.2 14.25Z"/>
  </g>
</svg>
