<svg xmlns="http://www.w3.org/2000/svg" height="96" width="140.16"><defs><clipPath id="a"><path d="M0 72h105.12V0H0" clip-rule="evenodd"/></clipPath><clipPath id="b"><path d="M0 72h105.12V0H0" clip-rule="evenodd"/></clipPath><clipPath id="c"><path d="M0 72h105.12V0H0" clip-rule="evenodd"/></clipPath><clipPath id="d"><path d="M0 72h105.12V0H0" clip-rule="evenodd"/></clipPath><clipPath id="e"><path d="M0 72h105.12V0H0" clip-rule="evenodd"/></clipPath><clipPath id="f"><path d="M0 72h105.12V0H0" clip-rule="evenodd"/></clipPath></defs><g clip-path="url(#a)" transform="matrix(1.33333 0 0 -1.33333 0 96)"><path d="M63.06 61.98a5.28 5.28 0 0 0 0-10.56h-9.48a5.28 5.28 0 0 0 0 10.56z" fill="#ffc000" fill-rule="evenodd"/></g><g clip-path="url(#b)" transform="matrix(1.33333 0 0 -1.33333 0 96)"><path d="M63.06 61.98a5.28 5.28 0 0 0 0-10.56h-9.48a5.28 5.28 0 0 0 0 10.56z" fill="none" stroke="#41719c" stroke-width="2.28" stroke-miterlimit="10"/></g><g clip-path="url(#c)" transform="matrix(1.33333 0 0 -1.33333 0 96)"><path d="M66.6 55.02c11.366 0 20.58-9.214 20.58-20.58 0-11.366-9.214-20.58-20.58-20.58H49.32c-11.366 0-20.58 9.214-20.58 20.58 0 11.366 9.214 20.58 20.58 20.58z" fill="#47cfff" fill-rule="evenodd"/></g><g clip-path="url(#d)" transform="matrix(1.33333 0 0 -1.33333 0 96)"><path d="M66.6 55.02c11.366 0 20.58-9.214 20.58-20.58 0-11.366-9.214-20.58-20.58-20.58H49.32c-11.366 0-20.58 9.214-20.58 20.58 0 11.366 9.214 20.58 20.58 20.58z" fill="none" stroke="#41719c" stroke-width="3" stroke-miterlimit="10"/></g><g clip-path="url(#e)" transform="matrix(1.33333 0 0 -1.33333 0 96)"><path d="M65.76 49.02c7.456 0 13.5-6.044 13.5-13.5s-6.044-13.5-13.5-13.5H50.28c-7.456 0-13.5 6.044-13.5 13.5s6.044 13.5 13.5 13.5z" fill="#fff" fill-rule="evenodd"/></g><g clip-path="url(#f)" transform="matrix(1.33333 0 0 -1.33333 0 96)"><path d="M65.76 49.02c7.456 0 13.5-6.044 13.5-13.5s-6.044-13.5-13.5-13.5H50.28c-7.456 0-13.5 6.044-13.5 13.5s6.044 13.5 13.5 13.5z" fill="none" stroke="#41719c" stroke-width="3" stroke-miterlimit="10"/></g><path d="M8.08 58.065c0-6.574 5.33-11.905 11.905-11.905h99.71c6.574 0 11.905 5.33 11.905 11.905v11.71c0 6.574-5.33 11.905-11.905 11.905h-99.71c-6.574 0-11.905-5.33-11.905-11.905z" fill="#47cfff" fill-rule="evenodd"/><path d="M8.08 58.065c0-6.574 5.33-11.905 11.905-11.905h99.71c6.574 0 11.905 5.33 11.905 11.905v11.71c0 6.574-5.33 11.905-11.905 11.905h-99.71c-6.574 0-11.905-5.33-11.905-11.905z" fill="none" stroke="#41719c" stroke-width="3.9999899999999995" stroke-miterlimit="10"/><path d="M56.24 58.72c0-1.016 1.827-1.84 4.08-1.84s4.08.824 4.08 1.84-1.827 1.84-4.08 1.84-4.08-.824-4.08-1.84z" fill="#41719c" fill-rule="evenodd"/><path d="M56.24 58.72c0-1.016 1.827-1.84 4.08-1.84s4.08.824 4.08 1.84-1.827 1.84-4.08 1.84-4.08-.824-4.08-1.84z" fill="none" stroke="#41719c" stroke-width="3.0399923999999996" stroke-linecap="round" stroke-linejoin="round" stroke-miterlimit="10"/><path d="M24.24 79.2c0-6.848 5.552-12.4 12.4-12.4 6.848 0 12.4 5.552 12.4 12.4 0 6.848-5.552 12.4-12.4 12.4-6.848 0-12.4-5.552-12.4-12.4z" fill="#fff" fill-rule="evenodd"/><path d="M24.24 79.2c0-6.848 5.552-12.4 12.4-12.4 6.848 0 12.4 5.552 12.4 12.4 0 6.848-5.552 12.4-12.4 12.4-6.848 0-12.4-5.552-12.4-12.4z" fill="none" stroke="#41719c" stroke-width="3.9999899999999995" stroke-linecap="round" stroke-linejoin="round" stroke-miterlimit="10"/><path d="M34.32 78.8a2.4 2.4 0 1 1 4.8 0 2.4 2.4 0 0 1-4.8 0z" fill="#41719c" fill-rule="evenodd"/><path d="M34.32 78.8a2.4 2.4 0 1 1 4.8 0 2.4 2.4 0 0 1-4.8 0z" fill="none" stroke="#41719c" stroke-width="3.9999899999999995" stroke-linecap="round" stroke-linejoin="round" stroke-miterlimit="10"/><path d="M93.04 78.4c0-6.848 5.552-12.4 12.4-12.4 6.848 0 12.4 5.552 12.4 12.4 0 6.848-5.552 12.4-12.4 12.4-6.848 0-12.4-5.552-12.4-12.4z" fill="#fff" fill-rule="evenodd"/><path d="M93.04 78.4c0-6.848 5.552-12.4 12.4-12.4 6.848 0 12.4 5.552 12.4 12.4 0 6.848-5.552 12.4-12.4 12.4-6.848 0-12.4-5.552-12.4-12.4z" fill="none" stroke="#41719c" stroke-width="3.9999899999999995" stroke-linecap="round" stroke-linejoin="round" stroke-miterlimit="10"/><path d="M102.96 78a2.4 2.4 0 1 1 4.8 0 2.4 2.4 0 0 1-4.8 0z" fill="#41719c" fill-rule="evenodd"/><path d="M102.96 78a2.4 2.4 0 1 1 4.8 0 2.4 2.4 0 0 1-4.8 0z" fill="none" stroke="#41719c" stroke-width="3.9999899999999995" stroke-linecap="round" stroke-linejoin="round" stroke-miterlimit="10"/></svg>