<svg xmlns="http://www.w3.org/2000/svg" overflow="hidden" viewBox="0 0 234 213">
  <defs>
    <clipPath id="a">
      <path d="M3630 2129h234v213h-234z"/>
    </clipPath>
  </defs>
  <g fill="#00B0F0" fill-rule="evenodd" clip-path="url(#a)" transform="translate(-3630 -2129)">
    <path d="m3843.35 2214.9-22.36-52.56a20.145 20.145 0 0 0-18.93-12.71h-27.53v-6.89c-.02-7.58-6.17-13.72-13.77-13.74h-27.52c-7.6.02-13.75 6.16-13.77 13.74v6.87h-27.53a20.145 20.145 0 0 0-18.93 12.71l-22.36 52.56v.02c-11.39.04-20.61 9.24-20.65 20.61v54.96c.02 7.58 6.17 13.72 13.76 13.74h6.89v24.05c.02 7.58 6.17 13.72 13.76 13.74h6.88c7.6-.02 13.75-6.16 13.77-13.74v-24.05h123.88v24.05c.02 7.58 6.17 13.72 13.77 13.74h6.88c7.59-.02 13.74-6.16 13.76-13.74v-24.05h6.89c7.59-.02 13.74-6.16 13.76-13.74v-54.96c-.04-11.37-9.26-20.57-20.65-20.61Zm-110.12-79.03h27.53c3.8 0 6.88 3.08 6.88 6.87v6.87h-41.29v-6.87c0-3.79 3.08-6.87 6.88-6.87Zm68.82 20.61c5.5-.08 10.48 3.24 12.52 8.34l.04.1.04.09 21.22 49.87h-177.75l21.22-49.86.04-.1.04-.09c2.03-5.11 7.01-8.43 12.51-8.35Zm-123.88 171.8c0 3.8-3.08 6.87-6.88 6.87h-6.9c-3.8 0-6.88-3.07-6.88-6.87v-24.04h20.64Zm158.29 0c0 3.8-3.08 6.87-6.88 6.87h-6.88c-3.8 0-6.88-3.07-6.88-6.87v-24.04h20.64Zm-192.7-30.91c-3.8 0-6.88-3.08-6.88-6.87v-54.96c.01-7.59 6.16-13.73 13.76-13.74h192.71c7.59.01 13.75 6.15 13.76 13.74v54.96c0 3.79-3.08 6.87-6.88 6.87Z"/>
    <path d="M3678.5 2232h-21c-5.8 0-10.5 4.7-10.5 10.5v7c0 5.8 4.7 10.5 10.5 10.5h21c5.8 0 10.5-4.7 10.5-10.5v-7c0-5.8-4.7-10.5-10.5-10.5Zm3.5 17.5c0 1.93-1.57 3.5-3.5 3.5h-21c-1.93 0-3.5-1.57-3.5-3.5v-7c0-1.93 1.57-3.5 3.5-3.5h21c1.93 0 3.5 1.57 3.5 3.5Zm154.5-17.5h-21c-5.8 0-10.5 4.7-10.5 10.5v7c0 5.8 4.7 10.5 10.5 10.5h21c5.8 0 10.5-4.7 10.5-10.5v-7c0-5.8-4.7-10.5-10.5-10.5Zm3.5 17.5c0 1.93-1.57 3.5-3.5 3.5h-21c-1.93 0-3.5-1.57-3.5-3.5v-7c0-1.93 1.57-3.5 3.5-3.5h21c1.93 0 3.5 1.57 3.5 3.5Z"/>
  </g>
</svg>
