<svg xmlns="http://www.w3.org/2000/svg" overflow="hidden" viewBox="0 0 377 348">
  <defs>
    <clipPath id="a">
      <path d="M868 1344h377v348H868z"/>
    </clipPath>
  </defs>
  <g fill-rule="evenodd" clip-path="url(#a)" transform="translate(-868 -1344)">
    <path fill="#0070C0" d="M1071.09 1446.75a66.07 66.07 0 0 0 5.83-13.39l15.08-7.56v-17.18l-15.08-7.56c-1.26-4.67-3.1-9.18-5.48-13.39l5.48-16.15-12.34-12.37-16.11 5.5c-4.2-2.4-8.69-4.26-13.36-5.53l-7.54-15.12h-17.14l-7.54 15.12a57.277 57.277 0 0 0-13.364 5.49l-16.108-5.49-12.338 12.36 5.483 16.15a57.937 57.937 0 0 0-5.483 13.4l-15.08 7.55v17.18l15.08 7.56a57.981 57.981 0 0 0 5.483 13.4l-5.483 16.14 11.995 12.03 16.108-5.5a57.745 57.745 0 0 0 13.367 5.5l7.54 15.11h17.14l7.54-15.11c4.66-1.27 9.15-3.11 13.36-5.5l16.11 5.5 12.34-12.03Zm-6.49 2.22 4.1 12.04-6.23 6.06-12.13-4.14-2.96-1.01-2.7 1.58c-3.71 2.1-7.68 3.72-11.8 4.82l-2.9.84-1.35 2.7-5.64 11.34h-8.65l-5.65-11.34-1.35-2.7-2.9-.84a50.328 50.328 0 0 1-11.795-4.82l-2.701-1.58-2.961 1.01-12.071 4.12-5.963-5.98 4.112-12.1 1.008-2.97-1.577-2.71a50.436 50.436 0 0 1-4.798-11.82l-.829-2.91-2.694-1.35-11.317-5.66v-8.69l11.31-5.65 2.694-1.35.83-2.91a50.393 50.393 0 0 1 4.798-11.82l1.576-2.71-1.007-2.97-4.113-12.11 6.306-6.32 12.071 4.13 2.961 1.03 2.701-1.59a50.76 50.76 0 0 1 11.799-4.81l2.91-.88 1.35-2.7 5.65-11.34h8.66l5.64 11.34 1.35 2.7 2.9.84c4.12 1.09 8.08 2.71 11.8 4.8l2.7 1.59 2.96-1.03 12.07-4.12 6.31 6.32-4.12 12.1-1 2.97 1.57 2.71c2.1 3.72 3.72 7.69 4.82 11.82l.82 2.91 2.7 1.35 11.31 5.66v8.69l-11.31 5.66-2.62 1.32-.87 2.81a59.456 59.456 0 0 1-5.19 11.98l-1.58 2.71Z"/>
    <path fill="#00B0F0" d="M868 1533.24v17.18l15.183 7.55a57.702 57.702 0 0 0 5.521 13.4l-5.176 16.15 12.078 12.02 16.218-5.15a58.345 58.345 0 0 0 13.458 5.5l7.591 15.11h17.254l7.591-15.11c4.7-1.27 9.221-3.11 13.458-5.5l16.218 5.5 12.078-12.37-5.176-15.8a57.702 57.702 0 0 0 5.521-13.4l15.183-7.56v-17.18l-15.183-7.55a57.702 57.702 0 0 0-5.521-13.4l5.521-16.15-12.423-12.36-16.218 5.49a64.717 64.717 0 0 0-13.458-5.49l-7.591-15.12h-17.254l-7.591 15.12c-4.7 1.26-9.222 3.1-13.458 5.49l-16.218-5.49-12.078 12.02 5.176 16.14a64.599 64.599 0 0 0-5.521 13.4Zm20.911-2.75.87-2.81a59.333 59.333 0 0 1 4.886-11.96l1.546-2.64-.935-2.91-3.896-12.16 6.066-6.05 12.154 4.13 2.981 1.01 2.719-1.58a50.894 50.894 0 0 1 11.878-4.83l2.933-.8 1.359-2.7 5.684-11.34h8.723l5.683 11.34 1.322 2.63 2.823.86a60.357 60.357 0 0 1 12.008 4.87l2.723 1.58 2.981-1.01 12.15-4.12 6.349 6.32-4.141 12.1-1.014 2.97 1.587 2.71a50.226 50.226 0 0 1 4.848 11.83l.832 2.9 2.716 1.35 11.354 5.65v8.69l-11.389 5.66-2.716 1.35-.831 2.91a50.327 50.327 0 0 1-4.848 11.82l-1.56 2.67.959 2.93 3.886 11.86-6.105 6.28-12.077-4.1-2.981-1.01-2.723 1.58a50.932 50.932 0 0 1-11.888 4.83l-2.919.83-1.356 2.7-5.683 11.34h-8.724l-5.683-11.34-1.36-2.7-2.919-.83a50.869 50.869 0 0 1-11.877-4.83l-2.65-1.54-2.927.93-12.212 3.88-6.132-6.1 3.896-12.17.935-2.91-1.545-2.64a50.36 50.36 0 0 1-4.849-11.83l-.835-2.9-2.712-1.35-11.387-5.67v-8.68l11.387-5.67ZM1019 1392c-14.36 0-26 11.42-26 25.5s11.64 25.5 26 25.5 26-11.42 26-25.5c-.11-14.04-11.69-25.39-26-25.5Zm0 44.2c-10.52-.01-19.051-8.38-19.067-18.7.137-10.27 8.597-18.56 19.067-18.7 10.52.01 19.05 8.38 19.07 18.7-.13 10.28-8.59 18.58-19.07 18.71Z"/>
    <path fill="#0070C0" d="M941.5 1568c14.083 0 25.5-11.42 25.5-25.5s-11.417-25.5-25.5-25.5-25.5 11.42-25.5 25.5c-.017 14.07 11.372 25.48 25.439 25.5h.061Zm0-44.22c10.328 0 18.7 8.38 18.7 18.7 0 10.33-8.372 18.7-18.7 18.7s-18.7-8.37-18.7-18.7c.015-10.32 8.379-18.68 18.7-18.7Z"/>
    <path fill="#00B0F0" d="m1046.29 1626.34-6.88 26.29 20.84 18.26 25.16-10.27a98.95 98.95 0 0 0 22.2 7.5l13.58 23.22 27.44-1.81 10.43-24.8a90.246 90.246 0 0 0 20.68-10.32l26.29 6.88 18.26-20.84-10.27-25.16a98.923 98.923 0 0 0 7.49-22.2l23.22-13.59-1.8-27.44-25.13-10.06c-2.53-7.3-6-14.25-10.32-20.67l6.88-26.29-20.84-18.27-25.16 10.27a99.176 99.176 0 0 0-22.19-7.49l-13.25-23.3-27.44 1.81-10.43 24.8c-7.3 2.53-14.25 6-20.67 10.32l-26.29-6.88-18.27 20.84 10.27 25.16a99.347 99.347 0 0 0-7.49 22.19l-23.24 13.25 1.8 27.44 24.81 10.42c2.53 7.33 6 14.3 10.32 20.74Zm-29.79-54.72 19.51-11.11 2.71-1.56.62-3.06a93.058 93.058 0 0 1 6.98-20.67l1.28-2.72-1.14-2.78-8.67-21.23 12.67-14.46 22.18 5.81 2.99.78 2.58-1.72a82.705 82.705 0 0 1 19.09-9.53l2.91-1 1.19-2.84 8.78-20.89 18.9-1.25 11.11 19.53 1.55 2.7 3.06.63a92.978 92.978 0 0 1 20.66 6.98l2.73 1.28 2.78-1.14 21.23-8.67 14.45 12.67-5.81 22.19-.78 3 1.72 2.57a82.507 82.507 0 0 1 9.53 19.09l1.03 2.98 2.92 1.17 21.09 8.45 1.24 18.89-19.55 11.44-2.65 1.55-.62 3.01a92.55 92.55 0 0 1-6.98 20.67l-1.27 2.72 1.13 2.79 8.67 21.23-12.66 14.45-22.18-5.8-3-.79-2.57 1.73a83.175 83.175 0 0 1-19.1 9.53l-2.9 1-1.19 2.83-8.78 20.9-18.95 1.25-11.44-19.57-1.55-2.65-3.02-.61a92.924 92.924 0 0 1-20.65-6.99l-2.73-1.28-2.78 1.14-21.23 8.67-14.45-12.67 5.81-22.18.78-3-1.72-2.57a82.774 82.774 0 0 1-9.53-19.1l-1-2.9-2.84-1.19-20.89-8.78Z"/>
    <path fill="#0070C0" d="M1129.6 1614.99c22.73-1.5 39.95-21.14 38.45-43.87-1.5-22.73-21.14-39.95-43.88-38.45-22.73 1.5-39.94 21.14-38.44 43.87 1.56 22.7 21.16 39.88 43.87 38.45Zm-4.98-75.48c18.95-1.25 35.32 13.09 36.57 32.04 1.24 18.94-13.1 35.31-32.04 36.56-18.95 1.25-35.32-13.1-36.57-32.04-1.22-18.94 13.11-35.29 32.04-36.56Z"/>
  </g>
</svg>
