<svg xmlns="http://www.w3.org/2000/svg" overflow="hidden" viewBox="0 0 1121 881">
  <defs>
    <linearGradient id="b" x1="1634.5" x2="1621.83" y1="1023.65" y2="1002.84" gradientUnits="userSpaceOnUse" spreadMethod="reflect">
      <stop offset="0" stop-color="#00B0F0"/>
      <stop offset=".88" stop-color="#00B0F0"/>
      <stop offset="1" stop-color="#52DFD2"/>
    </linearGradient>
    <linearGradient id="c" x1="1590.96" x2="1569.39" y1="1016.29" y2="1018.09" gradientUnits="userSpaceOnUse" spreadMethod="reflect">
      <stop offset="0" stop-color="#00B0F0"/>
      <stop offset=".32" stop-color="#00B0F0"/>
      <stop offset=".87" stop-color="#0070C0"/>
      <stop offset="1" stop-color="#0070C0"/>
    </linearGradient>
    <linearGradient id="d" x1="1616.16" x2="1625.33" y1="1025.15" y2="1002.57" gradientUnits="userSpaceOnUse" spreadMethod="reflect">
      <stop offset="0" stop-color="#00B0F0"/>
      <stop offset=".29" stop-color="#00B0F0"/>
      <stop offset="1" stop-color="#52DFD2"/>
    </linearGradient>
    <linearGradient id="e" x1="1593.67" x2="1606.35" y1="1005.19" y2="1026" gradientUnits="userSpaceOnUse" spreadMethod="reflect">
      <stop offset="0" stop-color="#00B0F0"/>
      <stop offset=".88" stop-color="#00B0F0"/>
      <stop offset="1" stop-color="#52DFD2"/>
    </linearGradient>
    <linearGradient id="f" x1="1612.02" x2="1602.85" y1="1003.69" y2="1026.26" gradientUnits="userSpaceOnUse" spreadMethod="reflect">
      <stop offset="0" stop-color="#00B0F0"/>
      <stop offset=".29" stop-color="#00B0F0"/>
      <stop offset="1" stop-color="#52DFD2"/>
    </linearGradient>
    <clipPath id="a">
      <path d="M1194 912h1121v881H1194z"/>
    </clipPath>
  </defs>
  <g clip-path="url(#a)" transform="translate(-1194 -912)">
    <path fill="#F5F5F5" fill-rule="evenodd" d="M2315 1749c0 21.54-249.38 39-557 39s-557-17.46-557-39 249.38-39 557-39 557 17.46 557 39Z"/>
    <path fill="#49B0FF" fill-rule="evenodd" d="M2288 1643h-598v-186h527.11l49.2 39.9a58.482 58.482 0 0 1 21.69 45.62Z"/>
    <path fill-opacity=".502" fill-rule="evenodd" d="M2288 1643h-598v-186h527.11l49.2 39.9a58.482 58.482 0 0 1 21.69 45.62Z"/>
    <path fill="#263238" fill-rule="evenodd" d="M1687.03 1625.98c0-67.92 30.98-122.98 68.83-122.98h-73.03c-38.1 0-68.83 54.92-68.83 122.98 0 68.07 30.97 123.02 68.83 123.02H1756c-38.17 0-68.97-55.09-68.97-123.02Z"/>
    <path fill="#263238" fill-rule="evenodd" d="M1825 1626c0 67.93-30.89 123-69 123s-69-55.07-69-123 30.89-123 69-123 69 55.07 69 123Z"/>
    <path fill="#FFF" fill-rule="evenodd" d="M1810 1626c0 53.02-21.94 96-49 96s-49-42.98-49-96 21.94-96 49-96 49 42.98 49 96Z"/>
    <path fill="#263238" fill-rule="evenodd" d="M1290.03 1625.98c0-67.92 30.98-122.98 68.83-122.98h-73.03c-38.1 0-68.83 54.92-68.83 122.98 0 68.07 30.97 123.02 68.83 123.02H1359c-38.1 0-68.97-55.09-68.97-123.02Z"/>
    <path fill="#263238" fill-rule="evenodd" d="M1428 1626c0 67.93-30.89 123-69 123s-69-55.07-69-123 30.89-123 69-123 69 55.07 69 123Zm731.03-.02c0-67.92 30.97-122.98 68.83-122.98h-73.03c-38.06 0-68.83 54.92-68.83 122.98 0 68.07 30.97 123.02 68.83 123.02H2228c-38.06 0-68.97-55.09-68.97-123.02Z"/>
    <path fill="#263238" fill-rule="evenodd" d="M2297 1626c0 67.93-30.89 123-69 123s-69-55.07-69-123 30.89-123 69-123 69 55.07 69 123Z"/>
    <path fill="#FFF" fill-rule="evenodd" d="M2282 1626c0 53.02-21.71 96-48.5 96s-48.5-42.98-48.5-96 21.71-96 48.5-96 48.5 42.98 48.5 96Z"/>
    <path fill="#49B0FF" fill-rule="evenodd" d="M1605.7 1661h-88.51l-4.96-4.84c-5.09-5.13-12-8.02-19.21-8.03H1271.8c-7.21.01-14.11 2.9-19.21 8.03l-3.03 3.01h-8.05c-26.24 0-47.51-21.38-47.51-47.75V1538h502l-39.93 87.26c-7.55 21.44-27.74 35.77-50.37 35.74Z"/>
    <path fill-opacity=".2" fill-rule="evenodd" d="M1605.7 1661h-88.51l-4.96-4.84c-5.09-5.13-12-8.02-19.21-8.03H1271.8c-7.21.01-14.11 2.9-19.21 8.03l-3.03 3.01h-8.05c-26.24 0-47.51-21.38-47.51-47.75V1538h502l-39.93 87.26c-7.55 21.44-27.74 35.77-50.37 35.74Z"/>
    <path fill="#263238" fill-rule="evenodd" d="M2126.75 1228c-.31.01-.62-.08-.88-.24a1.624 1.624 0 0 1-.65-2.25c.01-.01.02-.03.03-.04l24.42-40.48c.39-.85 1.43-1.22 2.3-.84.88.38 1.27 1.38.87 2.23-.04.11-.1.21-.17.3l-24.42 40.48c-.31.52-.89.84-1.5.84Z"/>
    <path fill="#49B0FF" fill-rule="evenodd" d="M2254 1433.61v-46.81c0-24.61-35.83-140.71-85.1-162.47-49.27-21.76-168.47-31.44-243.55-27.45-75.09 3.98-175.35 160.75-175.35 160.75l10.9 134.8c15.26 0 63.88-4.6 71 128.77.99 19.53 17.16 34.84 36.75 34.8h262.88c18.26-.01 33.72-13.45 36.24-31.51 6.88-47.53 24.82-132.16 68.11-132.16 30.36 0 52.12 25.95 52.12 55.7.01-32.69-7.94-64.89-23.17-93.83Z"/>
    <path fill="#49B0FF" fill-rule="evenodd" d="M1650.74 1196c-136.78 0-291.74 161-291.74 161h391.61s100.18-156.98 175.39-161Z"/>
    <path fill="#FFF" fill-opacity=".871" fill-rule="evenodd" d="M1659.13 1212c-115.21 0-236.06 102.9-271.31 135.31-2.45 2.24-2.42 5.85.07 8.06 1.19 1.05 2.8 1.64 4.47 1.63h315.91c25.79.07 50.07-10.95 65.34-29.66 33.98-41.66 99.43-112.77 152.39-115.34Z"/>
    <path fill="#49B0FF" fill-rule="evenodd" d="m1750.1 1357-144.6 114.19-389.15-1.24S1194 1502.46 1194 1538h501.33c8.22-21.78 37.03-45.86 65.67-45.86 0-40.53-10.9-135.14-10.9-135.14Z"/>
    <path fill-opacity=".2" fill-rule="evenodd" d="M1655.71 1438a1.714 1.714 0 0 1-.25-3.41c34.84-5.65 67.44-20.8 94.21-43.79 10.96-9.21 13.13-25.23 5-37.02-.58-.75-.45-1.84.31-2.42.75-.58 1.83-.44 2.42.31.03.04.07.09.1.14 9.11 13.26 6.68 31.25-5.63 41.61a194.443 194.443 0 0 1-95.89 44.55Z"/>
    <path fill="#49B0FF" fill-rule="evenodd" d="M1217 1470.75s68.25-80.28 142.06-113.75H1750l-144.4 115Z"/>
    <path fill="#263238" fill-rule="evenodd" d="M1263 1470h256v8h-256Z"/>
    <path fill="#FFF" fill-rule="evenodd" d="m1513.64 1455.1 13.77-13.77c3.1-3.09 7.02-5.23 11.3-6.16l104-22.65c3.65-.8 7.45-.68 11.05.35l5.57 1.55c12.16 3.42 19.23 16.04 15.81 28.19-.92 3.27-2.56 6.29-4.79 8.84l-22.38 25.58c-3.85 4.4-9.25 7.16-15.08 7.71l-100.97 9.16c-6.75.64-13.44-1.76-18.24-6.54-8.89-8.91-8.91-23.33-.04-32.26Zm-243.94 7.71-11.42-21.04a18.84 18.84 0 0 0-6.9-7.14 19.03 19.03 0 0 0-18.39-.51l-8.66 4.49c-4.25 2.22-7.49 5.95-9.04 10.44l-5.28 15.4c-3.35 9.68 1.9 20.21 11.73 23.51.93.32 1.89.56 2.87.72l23.84 4.05c7.97 1.36 15.93-2.46 19.76-9.49l1.59-2.89a18.217 18.217 0 0 0-.1-17.54Z"/>
    <path fill="#FFF" fill-opacity=".812" fill-rule="evenodd" d="M1830.19 1362h362.12c10.87.01 19.68-8.76 19.69-19.58 0-1.92-.28-3.83-.84-5.66-8.25-27.4-24.07-70.25-47.84-92.1a19.979 19.979 0 0 0-9.39-4.79c-42.69-9.01-111.31-15-162.22-18.5-46.69-3.18-92.45 14.14-125.23 47.4a439.4 439.4 0 0 0-52.25 63.47c-5.89 8.8-3.5 20.68 5.34 26.55 3.14 2.08 6.84 3.2 10.62 3.21Z"/>
    <path fill="#263238" fill-rule="evenodd" d="M1596 1578.48c0 11.31-11.42 20.52-25.5 20.52s-25.5-9.21-25.5-20.52c0-11.31 11.39-20.48 25.5-20.48s25.5 9.17 25.5 20.48ZM1388.61 1455c8.46 0 12.59 8.51 9.22 18.98-3.38 10.47-12.94 19.02-21.43 19.02-8.5 0-12.59-8.51-9.22-19.02 3.37-10.5 12.97-18.98 21.43-18.98ZM1215 1578.48c0 11.31-3.31 20.52-6.98 20.52-3.68 0-7.02-9.21-7.02-20.52 0-11.31 3.31-20.48 7.02-20.48 3.7 0 6.98 9.17 6.98 20.48Zm604-219.73v-11.51c-.01-12.27 10-22.23 22.37-22.24 1.55 0 3.09.16 4.61.47l44.17 9.12c10.4 2.16 17.85 11.24 17.85 21.77v2.39c0 12.28-10.02 22.23-22.4 22.25h-44.17c-12.39 0-22.43-9.96-22.43-22.25Zm232.04-133.27s-5.85-.59-16.04-1.48c45.08 92.94 33.59 138 33.59 138H2103c.34-56.59-51.96-136.52-51.96-136.52Z"/>
    <path fill="#FFF" fill-opacity=".2" fill-rule="evenodd" d="M1669.29 1320.27c-1.45 15.14-14.17 26.71-29.4 26.73h-178.62c-13.03 0-17.75-14.54-8.31-25.35a504.235 504.235 0 0 1 55.35-54.02c33.64-28.32 75.41-43.03 114.45-40.31l14.76 1.07c13.07 1.02 23.92 10.5 26.67 23.32 5.21 22.46 6.93 45.58 5.1 68.56Z"/>
    <path fill-opacity=".2" fill-rule="evenodd" d="M2072.71 1632c-.94 0-1.71-.77-1.71-1.72 0-34.79 17.64-178.26 22.26-199.75 4.48-20.87 4.48-44.18 0-59.34-.27-.91.25-1.86 1.16-2.13.9-.24 1.84.27 2.12 1.17 4.61 15.68 4.61 39.64 0 61.03-4.62 21.38-22.19 164.37-22.19 199.02 0 .92-.72 1.68-1.64 1.72Zm-4.21-200h-42.11c-2.88.09-5.29-2.09-5.39-4.86-.01-.43.03-.87.13-1.3l.87-4.68c.72-3.48 3.82-6.03 7.5-6.16h42.11c2.88-.09 5.29 2.09 5.39 4.86.01.43-.03.87-.13 1.3l-.87 4.68c-.72 3.48-3.82 6.03-7.5 6.16Z"/>
    <path fill="#FFF" fill-rule="evenodd" stroke="#455A64" stroke-miterlimit="8" stroke-width="10.313" d="M1481.83 1031.24c-3.68-44.138 29.11-82.903 73.24-86.587l319.64-26.685c44.14-3.684 82.9 29.107 86.58 73.241l54.05 647.351c3.68 44.14-29.11 82.9-73.24 86.59l-319.64 26.68c-44.14 3.69-82.9-29.11-86.59-73.24Z"/>
    <path fill="#455A64" fill-rule="evenodd" d="m1788.95 958.461-141.74 11.833c-8.79.734-16.52-5.801-17.25-14.596l-1.33-15.926 173.59-14.492 1.33 15.926c.73 8.795-5.8 16.52-14.6 17.255Z"/>
    <path fill="url(#b)" fill-rule="evenodd" d="M1635.68 1018.82c1.01 1.66.48 3.82-1.18 4.83a3.511 3.511 0 0 1-4.83-1.17l-9.02-14.81a3.514 3.514 0 0 1 1.18-4.83 3.511 3.511 0 0 1 4.83 1.17Z"/>
    <path fill="#0070C0" fill-rule="evenodd" d="M1559.64 1015.48a3.276 3.276 0 1 1 .54 6.53l-9.64.8c-1.8.16-3.39-1.18-3.54-2.99a3.282 3.282 0 0 1 3-3.54Z"/>
    <path fill="#0070C0" fill-rule="evenodd" d="M1543.73 1012.4a3.505 3.505 0 0 1 3.21-3.8 3.52 3.52 0 0 1 3.8 3.21l1.31 15.69a3.52 3.52 0 0 1-3.22 3.8 3.516 3.516 0 0 1-3.79-3.21Zm13.85-1.16a3.531 3.531 0 0 1 3.21-3.8 3.52 3.52 0 0 1 3.8 3.22l1.31 15.69a3.531 3.531 0 0 1-3.21 3.8 3.52 3.52 0 0 1-3.8-3.22Z"/>
    <path fill="url(#c)" fill-rule="evenodd" d="M1569.39 1018.09c-.54-6.39 3.86-11.96 9.82-12.46 5.96-.5 11.22 4.27 11.75 10.66.54 6.38-3.86 11.96-9.82 12.46-5.96.5-11.22-4.28-11.75-10.66Zm6.7-.56c.23 2.68 2.24 4.7 4.49 4.51 2.25-.19 3.9-2.51 3.67-5.19-.22-2.68-2.23-4.7-4.48-4.51-2.25.19-3.9 2.51-3.68 5.19Z"/>
    <path fill="url(#d)" fill-rule="evenodd" d="M1620.74 1023.22a3.512 3.512 0 0 1-4.58 1.93 3.517 3.517 0 0 1-1.94-4.58l6.52-16.06c.73-1.8 2.79-2.67 4.59-1.94 1.8.74 2.66 2.79 1.93 4.59Z"/>
    <path fill="url(#e)" fill-rule="evenodd" d="M1592.5 1010.02a3.511 3.511 0 0 1 1.17-4.83 3.523 3.523 0 0 1 4.84 1.17l9.01 14.81c1.01 1.66.49 3.82-1.17 4.83a3.523 3.523 0 0 1-4.84-1.17Z"/>
    <path fill="url(#f)" fill-rule="evenodd" d="M1607.43 1005.62c.73-1.8 2.79-2.67 4.59-1.93 1.8.73 2.66 2.78 1.93 4.58l-6.52 16.06a3.512 3.512 0 0 1-4.58 1.93 3.517 3.517 0 0 1-1.94-4.58Z"/>
    <path fill="#F7DD6D" fill-rule="evenodd" d="M1688.45 1008.72c-.9-10.807 7.13-20.297 17.93-21.198l84.84-7.083c10.8-.902 20.29 7.126 21.19 17.93.9 10.801-7.12 20.291-17.93 21.191l-84.83 7.09c-10.8.9-20.29-7.13-21.2-17.93Z"/>
    <path fill="none" stroke="#AFABAB" stroke-linecap="round" stroke-miterlimit="8" stroke-width="10.313" d="m1883.68 982.95 28.11-2.347m-27.37 17.388 28.11-2.347"/>
    <path fill="#F2F2F2" fill-rule="evenodd" d="M1709.14 1401.64c-.9-10.8 7.12-20.29 17.93-21.19l190.68-15.92c10.8-.9 20.29 7.12 21.19 17.93.9 10.8-7.12 20.29-17.93 21.19l-190.68 15.92c-10.8.9-20.29-7.13-21.19-17.93Zm52.52 50.12c-.91-10.81 7.12-20.29 17.92-21.2l142.07-11.86c10.8-.9 20.29 7.13 21.2 17.93.9 10.81-7.13 20.3-17.93 21.2l-142.07 11.86c-10.8.9-20.29-7.13-21.19-17.93Z"/>
    <path fill="#FF0083" fill-rule="evenodd" d="M1550.07 1418.51c-1.06-12.71 8.38-23.88 21.1-24.94l95.27-7.96c12.72-1.06 23.89 8.39 24.95 21.11l4.62 55.34c1.06 12.72-8.39 23.89-21.1 24.95l-95.28 7.95c-12.71 1.06-23.88-8.38-24.94-21.1Z"/>
    <path fill="none" stroke="#FFF" stroke-linecap="round" stroke-linejoin="round" stroke-miterlimit="10" stroke-width="20.625" d="m1555.82 1122.55 23.15 21.43 25.95-53.46"/>
    <path fill="#0070C0" fill-rule="evenodd" d="m1704.63 1221.02-42.41 3.57-6.18-38.72 42.41-3.56 6.18 38.71Z"/>
    <path fill="#0070C0" fill-rule="evenodd" d="m1544.57 1234.5 117.65-9.91-6.18-38.72-117.65 9.91 6.18 38.72Z"/>
    <path fill="#FFF" fill-rule="evenodd" d="M1551.02 1212.53c-1.16-.31-2.19-.85-3.02-1.58-.96-.81-1.57-1.87-1.74-3.02-.37-1.92.61-3.89 2.54-5.08 1.94-1.21 4.27-1.89 6.65-1.96 3.01-.45 6.09-.09 8.76 1.03 1.93.88 3.23 2.45 3.55 4.26.22 1.03.02 2.1-.56 3.04-.53.83-1.28 1.56-2.2 2.13 1.48.45 2.81 1.17 3.89 2.11.9.91 1.48 2.02 1.67 3.21.46 2.14-.44 4.37-2.39 5.92-.98.69-2.13 1.2-3.35 1.5-1.45.4-2.95.66-4.46.8-2.37.29-4.78.19-7.06-.32-1.63-.4-3.06-1.19-4.12-2.27-1.03-1.05-1.7-2.32-1.94-3.67-.24-1.2-.04-2.45.59-3.58.71-1.1 1.83-1.99 3.19-2.52Zm4.07 5.19c.18.95.75 1.8 1.61 2.43.77.55 1.78.81 2.81.73.95-.06 1.82-.5 2.34-1.17.68-.76.95-1.71.75-2.62-.18-.94-.75-1.8-1.61-2.42-.76-.56-1.78-.83-2.81-.74-.96.08-1.84.48-2.42 1.12-.63.8-.87 1.76-.67 2.67Zm-1.29-10.06c.09.76.55 1.44 1.27 1.91.74.43 1.66.62 2.57.51.82-.05 1.6-.38 2.14-.91.49-.59.67-1.3.5-1.99-.1-.74-.55-1.4-1.27-1.84-.66-.46-1.53-.68-2.42-.59-.85.02-1.67.36-2.22.92-.53.57-.74 1.3-.57 1.99Zm51.28 7.74 7.8-1.51c.22.72.68 1.35 1.34 1.84 1.37.75 3.25.43 4.21-.73.18-.21.32-.45.41-.69.44-1.64.55-3.31.33-4.96-.75.77-1.65 1.45-2.65 1.99-1.04.47-2.18.75-3.34.82-2.51.25-4.99-.36-6.89-1.67-2.02-1.33-3.32-3.27-3.64-5.42-.27-1.44-.06-2.93.6-4.31.65-1.3 1.78-2.42 3.22-3.19 1.75-.86 3.72-1.36 5.73-1.46 2.4-.29 4.84-.1 7.08.56 1.98.77 3.65 1.98 4.82 3.49 1.5 2.06 2.45 4.36 2.79 6.77.93 3.19.34 6.59-1.64 9.52-2.05 2.21-5.18 3.58-8.51 3.7-1.84.19-3.71.13-5.5-.21-1.32-.3-2.53-.85-3.54-1.59-1.1-.83-1.99-1.83-2.62-2.95Zm12.8-11.61c-.12-1.1-.73-2.11-1.72-2.84-.79-.64-1.91-.95-3.03-.84-.98.05-1.88.49-2.42 1.18-.62.91-.83 1.97-.57 2.97.12 1.11.7 2.13 1.65 2.91.77.6 1.82.88 2.89.79 1.02-.05 1.97-.49 2.56-1.19.69-.9.91-1.97.64-2.98Zm49.78-12.8 4.21 23.64-8.02.67-2.79-15.53c-1 .87-2.13 1.64-3.36 2.29-1.4.7-2.86 1.31-4.37 1.83l-.89-5.35c2.15-.69 4.13-1.73 5.82-3.04 1.3-1.14 2.27-2.48 2.85-3.96Zm5.02 12.07c-.99-3.15-.5-6.53 1.35-9.49 2.07-2.14 5.2-3.39 8.46-3.39 1.62-.17 3.25-.13 4.83.14 2.2.49 4.12 1.57 5.45 3.07.63.71 1.14 1.48 1.52 2.31.83 1.71 1.4 3.5 1.71 5.34.87 3.15.53 6.47-.97 9.52-1.93 2.33-5.14 3.73-8.51 3.7-2.05.21-4.11.06-6.04-.47-1.6-.52-2.99-1.37-4.06-2.46-1.01-.98-1.79-2.11-2.29-3.34-.65-1.6-1.14-3.25-1.45-4.93Zm7.88-.66c.23 2.07.92 4.07 2.05 5.91.6.93 1.8 1.47 3.08 1.39.74-.05 1.44-.35 1.93-.83.62-.68.94-1.5.92-2.33.09-1.57-.04-3.13-.4-4.66-.17-2.08-.87-4.1-2.05-5.92-.61-.94-1.84-1.48-3.15-1.37-1.26.05-2.31.83-2.52 1.85-.38 2.01-.34 4.05.14 6.02Z"/>
    <path fill="#7F7F7F" fill-rule="evenodd" d="m1732.92 1192.39 2.18 13.79-3.8.32-1.43-9.06c-.49.49-1.03.93-1.62 1.3-.64.39-1.32.73-2.02 1.02l-.51-3.11c1.02-.39 1.95-.97 2.74-1.72.63-.63 1.08-1.42 1.32-2.28Zm12.59-1.06 2.21 13.79-3.8.32-1.46-9.06c-.48.5-1.02.94-1.61 1.3-.65.4-1.32.74-2.03 1.02l-.47-3.11c1.02-.39 1.94-.98 2.74-1.72a6.07 6.07 0 0 0 1.32-2.28Zm44.09-3.71 2.21 13.79-3.8.32-1.47-9.06c-.48.5-1.02.94-1.61 1.3-.64.4-1.31.74-2.02 1.02l-.47-3.11c1.01-.39 1.94-.98 2.73-1.72.61-.65 1.06-1.43 1.32-2.28Zm17.28 12.52-11.27.95c-.06-1.12.18-2.25.68-3.25.84-1.44 1.92-2.73 3.19-3.82.7-.58 1.32-1.27 1.83-2.03.23-.38.31-.82.25-1.26-.07-.41-.29-.77-.62-1.02-.35-.26-.78-.39-1.22-.35-.43.02-.83.22-1.11.55-.3.5-.43 1.08-.36 1.66l-3.85.08c-.08-.87.05-1.75.38-2.55.32-.64.83-1.17 1.45-1.51.92-.43 1.92-.67 2.93-.71a9.21 9.21 0 0 1 3.14.17c.76.23 1.44.66 1.97 1.25.51.57.84 1.29.94 2.05.15.83.03 1.68-.32 2.44a9.71 9.71 0 0 1-2.23 2.71c-.69.59-1.14 1.01-1.37 1.25-.28.27-.53.57-.77.88l5.93-.5Zm39.4-17.29 2.21 13.79-3.8.32-1.43-9.07c-.49.5-1.03.94-1.61 1.31-.65.39-1.33.73-2.03 1.02l-.5-3.12c1.01-.38 1.94-.96 2.73-1.72a5.36 5.36 0 0 0 1.32-2.27Zm8.44 3.47-3.54-.34c.06-1.05.52-2.04 1.27-2.77a5.88 5.88 0 0 1 3.42-1.17c1.36-.23 2.77 0 3.99.66.83.53 1.4 1.4 1.57 2.39.11.54.04 1.11-.22 1.61-.28.57-.72 1.04-1.25 1.38.44.06.88.18 1.29.35.48.25.89.6 1.21 1.04.35.46.56 1.01.63 1.58.14.78.05 1.59-.26 2.33-.28.76-.81 1.41-1.5 1.82-.9.52-1.91.81-2.95.86-1 .11-2.02.04-3-.21-.73-.21-1.4-.59-1.96-1.12a6.913 6.913 0 0 1-1.4-2.01l3.69-.84c.17.58.49 1.11.94 1.52.36.28.81.41 1.26.35.47-.02.91-.27 1.17-.66.3-.45.39-1 .26-1.51-.05-.55-.31-1.06-.72-1.43-.39-.33-.9-.48-1.4-.42-.41.05-.8.17-1.17.35l-.23-2.71.49-.04c.45-.03.86-.25 1.15-.6.28-.31.4-.74.32-1.16a1.5 1.5 0 0 0-1.74-1.24c-.34.06-.66.24-.89.5-.31.43-.46.96-.43 1.49Zm-284.33 67.79 2.18 13.79-3.77.32-1.46-9.03c-.51.47-1.05.91-1.62 1.31-.64.39-1.31.72-2.02.98l-.51-3.08c1.03-.39 1.98-.99 2.77-1.76.62-.64 1.07-1.42 1.32-2.27Zm5.49-.22 8.93-.75.5 3.01-6.07.51v2.06c.37-.23.77-.42 1.18-.56.39-.08.79-.12 1.19-.1a4.96 4.96 0 0 1 3.59.94c.95.73 1.57 1.81 1.73 3.01.15.86.06 1.75-.24 2.58a4.12 4.12 0 0 1-1.55 2.01c-.9.54-1.91.84-2.95.88-.77.09-1.55.07-2.32-.05a5.12 5.12 0 0 1-1.78-.63c-.47-.28-.9-.64-1.25-1.07-.39-.45-.7-.96-.93-1.51l3.73-.74c.14.52.44.99.85 1.34.38.27.83.4 1.29.36.5-.02.95-.28 1.21-.71a3.3 3.3 0 0 0-.58-3.5c-.4-.35-.94-.51-1.47-.44-.36.02-.7.13-.99.33-.28.21-.53.47-.71.77l-3.28-.19Zm51.18-4.55 2.22 13.79-3.8.32-1.43-9.03c-.51.47-1.04.91-1.61 1.3-.65.39-1.33.72-2.03.99l-.5-3.08c1.02-.4 1.95-.99 2.73-1.76.63-.63 1.08-1.41 1.32-2.27Zm15.35 2.04-3.66.77a2.4 2.4 0 0 0-.65-1.08c-.26-.19-.58-.27-.9-.24-.61.03-1.13.46-1.28 1.06-.2.95-.24 1.92-.11 2.88.34-.45.76-.84 1.24-1.13a3.83 3.83 0 0 1 1.58-.45c1.19-.12 2.37.26 3.28 1.04a5.158 5.158 0 0 1 1.54 5.68c-.3.76-.83 1.4-1.5 1.83-.83.49-1.76.76-2.71.8-1.14.14-2.3-.01-3.37-.43a5.218 5.218 0 0 1-2.32-2.04c-.72-1.21-1.2-2.56-1.38-3.96-.48-1.87-.23-3.84.69-5.52a5.064 5.064 0 0 1 4.01-2.08c.87-.1 1.75-.04 2.61.17.64.18 1.23.51 1.73.96.51.49.92 1.09 1.2 1.74Zm-5.79 6.77c.08.64.38 1.23.85 1.67.38.37.91.56 1.44.51.47-.02.89-.27 1.14-.66.29-.53.38-1.14.24-1.73-.06-.64-.35-1.24-.81-1.7-.36-.38-.86-.57-1.38-.52-.49.03-.93.29-1.2.7-.33.51-.44 1.14-.28 1.73Zm47.16-13.59 2.18 13.8-3.8.32-1.43-9.03c-.51.47-1.05.91-1.61 1.3-.65.39-1.33.72-2.03.99l-.5-3.08a8.28 8.28 0 0 0 2.76-1.76c.62-.64 1.07-1.42 1.32-2.28Zm4.17-.1 10.99-.92.38 2.52c-.78.91-1.42 1.93-1.92 3.03-.61 1.34-1.01 2.76-1.19 4.22-.18 1.39-.2 2.79-.07 4.19l-3.73.32c-.1-1.92.07-3.83.5-5.69.5-1.79 1.26-3.49 2.25-5.05l-6.7.57Zm52.51-4.67 2.21 13.8-3.8.32-1.46-9.04a9.004 9.004 0 0 1-3.64 2.3l-.47-3.08c1.02-.4 1.95-1 2.73-1.76.62-.64 1.07-1.42 1.32-2.28Zm7.38 5.98c-.54-.21-1.03-.53-1.45-.94-.45-.51-.74-1.14-.85-1.81-.18-1.11.27-2.23 1.16-2.9.92-.7 2.02-1.09 3.17-1.12 1.43-.22 2.89.03 4.17.71.9.54 1.52 1.45 1.69 2.49.12.59.03 1.21-.24 1.76-.25.48-.59.91-1.02 1.25.72.24 1.37.68 1.86 1.26.44.55.73 1.2.83 1.89.13.64.07 1.31-.15 1.93a3.69 3.69 0 0 1-.93 1.46c-.46.4-1 .7-1.58.88-.69.2-1.4.33-2.11.39-1.12.13-2.26.06-3.36-.22-.77-.25-1.46-.72-1.97-1.36a4.56 4.56 0 0 1-.96-2.19c-.12-.69-.03-1.4.25-2.04.33-.64.85-1.14 1.49-1.44Zm2.02 3.06c.06.55.33 1.06.75 1.43.37.32.85.49 1.34.45.46-.05.88-.31 1.13-.7.29-.44.4-.99.3-1.51-.08-.56-.36-1.07-.79-1.43-.36-.33-.85-.5-1.34-.45-.46.03-.88.27-1.14.66-.3.46-.39 1.02-.25 1.55Zm-.74-5.86c.05.42.28.82.62 1.08.34.27.78.4 1.22.36.74-.04 1.3-.66 1.27-1.4-.01-.09-.02-.18-.04-.27-.06-.44-.28-.84-.62-1.12-.34-.18-.73-.24-1.1-.15-.41.01-.79.2-1.05.51-.22.28-.33.63-.3.99Zm48.05-7.95 2.18 13.79-3.8.32-1.43-9.03c-.51.47-1.04.91-1.61 1.31-.65.39-1.33.72-2.03.98l-.5-3.08a8.03 8.03 0 0 0 2.73-1.75c.63-.63 1.08-1.42 1.32-2.28Zm5.97 10.39 3.66-.77c.11.42.33.79.65 1.08.27.19.6.27.93.24.59-.05 1.08-.46 1.25-1.03.21-.95.25-1.94.11-2.91-.33.46-.75.85-1.24 1.13-.49.26-1.03.42-1.58.45-1.19.12-2.37-.26-3.28-1.04-.96-.79-1.6-1.91-1.78-3.15-.12-.85-.04-1.72.24-2.54.31-.74.83-1.38 1.5-1.82a5.77 5.77 0 0 1 2.71-.8c1.14-.14 2.3.01 3.37.43.96.43 1.77 1.14 2.31 2.04.73 1.21 1.2 2.56 1.39 3.96.48 1.87.23 3.84-.69 5.52a5.035 5.035 0 0 1-4.01 2.08c-.86.12-1.74.06-2.58-.18a4.04 4.04 0 0 1-1.73-.95c-.53-.48-.95-1.08-1.23-1.74Zm5.94-6.64c-.08-.64-.38-1.23-.85-1.67-.37-.37-.89-.56-1.41-.52-.47.04-.9.28-1.17.67-.28.54-.35 1.17-.21 1.76.06.64.33 1.25.78 1.7.37.35.87.53 1.38.49.49-.04.95-.29 1.24-.71.3-.51.39-1.14.24-1.72Zm-253.11-79.56 2.21 13.79-3.8.32-1.46-9.03c-.5.48-1.04.92-1.61 1.31-.64.4-1.32.73-2.03.98l-.47-3.08c1.02-.4 1.95-1 2.74-1.75.61-.65 1.06-1.43 1.32-2.28Zm61.37 8.81-11.27.95c-.05-1.12.18-2.24.68-3.25.83-1.45 1.91-2.75 3.19-3.82.7-.59 1.32-1.29 1.83-2.07.22-.36.31-.79.25-1.22-.07-.42-.29-.79-.62-1.05-.35-.26-.79-.37-1.22-.32-.44.01-.84.21-1.11.55-.31.5-.43 1.08-.36 1.66h-3.79c-.08-.87.05-1.74.38-2.55.33-.64.83-1.16 1.46-1.5.91-.45 1.91-.7 2.92-.75 1.05-.13 2.12-.07 3.14.2.76.23 1.44.66 1.97 1.25.51.58.84 1.29.95 2.05.14.83.03 1.68-.33 2.44a9.273 9.273 0 0 1-2.23 2.71l-1.37 1.21c-.27.29-.53.6-.77.92l5.9-.5Zm47.81-13.78-3.55-.34c.05-1.06.51-2.05 1.28-2.77.98-.76 2.17-1.18 3.41-1.21 1.37-.23 2.77 0 3.99.66.83.54 1.41 1.4 1.57 2.39.11.56.04 1.14-.21 1.65-.29.56-.73 1.03-1.25 1.38.44.04.88.16 1.29.35.47.24.89.58 1.21 1 .33.47.54 1.01.62 1.58.15.79.06 1.6-.26 2.33-.27.76-.8 1.41-1.49 1.83a6.7 6.7 0 0 1-2.95.85c-1 .12-2.02.06-3-.17-.73-.24-1.4-.64-1.96-1.15a6.99 6.99 0 0 1-1.4-2.01l3.69-.81c.18.58.5 1.1.94 1.52.36.25.81.36 1.25.32.47-.03.9-.26 1.18-.63.28-.43.39-.95.3-1.45-.05-.55-.31-1.06-.72-1.43-.4-.3-.9-.44-1.4-.38-.4.05-.8.16-1.17.31l-.23-2.71.49-.04c.45-.02.86-.22 1.15-.56.53-.62.46-1.55-.16-2.09 0-.01-.01-.01-.02-.02-.3-.26-.69-.37-1.08-.3-.38.02-.74.19-1.01.48-.32.4-.5.9-.51 1.42Zm60.59 2.1-6.98.59-.5-3.11 5.55-8.74 3.28-.27 1.33 8.33 1.71-.15.46 2.95-1.36.11.42 2.52-3.28.28Zm-.46-2.94-.67-4.27-2.96 4.58Zm50.52-12.45 8.89-.74.5 3.01-6.03.5v2.06c.36-.23.74-.42 1.14-.56.4-.08.81-.12 1.22-.1 1.28-.17 2.56.17 3.6.94.95.73 1.58 1.81 1.76 3.01.13.86.05 1.75-.24 2.57-.29.83-.83 1.53-1.55 2.01-.91.55-1.93.85-2.98.89-.78.09-1.56.07-2.33-.05-1.17-.2-2.23-.8-3.02-1.7-.38-.46-.69-.97-.94-1.51l3.74-.74c.14.53.45 1.01.88 1.34.36.28.81.4 1.26.36.5-.02.95-.28 1.21-.71.3-.55.39-1.21.23-1.83-.06-.65-.34-1.25-.81-1.7-.4-.36-.92-.52-1.44-.45-.37.02-.72.14-1.03.34-.27.21-.51.48-.71.77l-3.28-.19Zm66.53-2.51-3.66.77c-.13-.41-.37-.78-.69-1.08-.26-.19-.58-.27-.9-.24-.6.05-1.11.48-1.28 1.07-.2.94-.22 1.92-.07 2.88.32-.46.73-.84 1.2-1.13.5-.27 1.05-.43 1.62-.46 1.17-.11 2.34.27 3.24 1.04.98.79 1.62 1.93 1.78 3.18.16.85.07 1.72-.24 2.51-.28.76-.81 1.41-1.5 1.83-.82.48-1.76.76-2.71.79-1.14.14-2.3 0-3.37-.42a5.651 5.651 0 0 1-2.32-2.04 9.816 9.816 0 0 1-1.35-3.97c-.5-1.85-.26-3.84.66-5.52a5.054 5.054 0 0 1 4.01-2.07 6.96 6.96 0 0 1 2.61.17c.65.17 1.24.5 1.73.95.52.49.94 1.09 1.24 1.74Zm-5.98 6.64c.09.64.39 1.23.85 1.67.38.38.91.56 1.44.52.47-.02.9-.27 1.14-.67.31-.52.4-1.14.24-1.72a3.02 3.02 0 0 0-.77-1.71c-.37-.37-.89-.56-1.42-.52-.48.04-.93.3-1.2.71-.3.52-.4 1.13-.28 1.72Zm51.38-13.55 10.95-.92.42 2.52c-.8.91-1.46 1.93-1.96 3.04-.59 1.34-.99 2.76-1.19 4.22-.15 1.39-.16 2.79-.03 4.18l-3.77.32c-.08-1.91.09-3.82.51-5.68.49-1.79 1.24-3.5 2.24-5.05l-6.66.56Zm-305.11 183.6-11.27.95c-.06-1.12.17-2.25.68-3.25.84-1.45 1.92-2.74 3.19-3.82.7-.59 1.32-1.27 1.83-2.03.22-.38.31-.83.24-1.26-.06-.41-.28-.78-.61-1.02-.35-.27-.79-.39-1.22-.36-.43.03-.83.23-1.12.56-.28.51-.4 1.08-.35 1.66h-3.79c-.06-.87.09-1.75.42-2.55.3-.65.79-1.17 1.42-1.51.91-.43 1.91-.67 2.92-.7a8.3 8.3 0 0 1 3.14.19c.76.21 1.44.63 1.97 1.22.51.59.85 1.31.95 2.09.14.81.02 1.65-.33 2.4a8.969 8.969 0 0 1-2.23 2.71c-.69.59-1.14 1.02-1.37 1.25l-.77.88 5.9-.5Zm12.62-1.06-11.3.95c-.03-1.12.2-2.24.68-3.25.85-1.44 1.92-2.73 3.19-3.82.68-.59 1.29-1.28 1.79-2.03.24-.38.34-.82.28-1.26a1.39 1.39 0 0 0-.64-1.01c-.35-.28-.79-.41-1.23-.36-.42.03-.81.23-1.07.55-.3.5-.43 1.08-.36 1.66h-3.82c-.06-.87.08-1.74.41-2.55.32-.64.83-1.17 1.46-1.51.9-.43 1.89-.67 2.89-.7 1.05-.14 2.11-.07 3.14.2.76.19 1.45.62 1.96 1.21.53.58.87 1.31.99 2.09.12.82 0 1.66-.36 2.4a8.596 8.596 0 0 1-2.23 2.71c-.69.59-1.11 1.02-1.34 1.25-.27.27-.53.57-.77.88l5.83-.49Zm44.09-3.71-11.3.95c-.03-1.12.2-2.24.67-3.25.85-1.44 1.93-2.73 3.2-3.82.68-.59 1.28-1.28 1.79-2.03.24-.38.33-.82.28-1.27-.06-.41-.3-.78-.64-1.01-.35-.27-.79-.4-1.23-.35-.42.02-.81.22-1.08.55-.3.5-.42 1.08-.35 1.66h-3.83c-.05-.87.09-1.74.42-2.55.35-.61.87-1.1 1.5-1.4.9-.43 1.89-.67 2.89-.71 1.06-.13 2.14-.07 3.18.2 1.52.43 2.66 1.72 2.91 3.3.12.82 0 1.66-.36 2.41a8.559 8.559 0 0 1-2.23 2.7c-.69.59-1.11 1.02-1.34 1.25-.27.27-.53.57-.77.88l5.86-.49Zm3.68-10.18-3.55-.34c.08-1.05.54-2.03 1.28-2.76.99-.74 2.18-1.16 3.42-1.18 1.36-.22 2.76.01 3.98.66.84.54 1.41 1.4 1.58 2.39.09.56.02 1.13-.22 1.65-.31.53-.74.99-1.25 1.34.43.06.85.18 1.26.36.48.23.9.59 1.21 1.03.34.47.57 1.01.66 1.58.11.78.01 1.59-.26 2.33a3.55 3.55 0 0 1-1.54 1.83c-.9.51-1.91.8-2.94.85-1 .11-2 .04-2.97-.21-.74-.21-1.41-.59-1.96-1.11a6.426 6.426 0 0 1-1.4-2.02l3.66-.84c.16.59.49 1.11.93 1.52.36.28.81.4 1.26.36a1.4 1.4 0 0 0 1.17-.67c.3-.45.4-.99.3-1.51-.07-.55-.32-1.05-.72-1.43-.39-.33-.9-.48-1.4-.42-.42.05-.83.17-1.2.35l-.23-2.71.49-.04c.45-.03.88-.25 1.17-.6.26-.32.37-.74.29-1.16-.05-.36-.23-.7-.5-.95a1.54 1.54 0 0 0-1.08-.3c-.39.01-.76.2-1.01.51-.31.43-.47.96-.43 1.49Zm53.14 5.39-11.27.95c-.06-1.12.18-2.24.68-3.25.83-1.45 1.91-2.74 3.19-3.81.7-.59 1.32-1.27 1.83-2.04.21-.38.29-.82.25-1.26-.07-.41-.29-.77-.62-1.01-.35-.26-.78-.39-1.22-.36-.43.02-.83.22-1.11.55-.3.5-.43 1.09-.36 1.67h-3.82c-.06-.87.08-1.75.41-2.56.32-.64.83-1.16 1.46-1.5.9-.43 1.89-.67 2.89-.71 1.06-.13 2.14-.07 3.18.2.75.2 1.44.62 1.96 1.22.52.58.85 1.3.95 2.08.14.81.03 1.65-.33 2.4a8.969 8.969 0 0 1-2.26 2.71l-1.34 1.25c-.27.28-.53.57-.77.88l5.86-.49Zm7.53-3.18-6.98.58-.51-3.11 5.56-8.74 3.28-.27 1.29 8.33 1.71-.14.46 2.94-1.67.14.21 2.54-3.28.27Zm-.46-2.95-.71-4.26-2.92 4.57Zm49.47 1.38-11.2.94c-.06-1.12.17-2.25.68-3.25.85-1.44 1.93-2.73 3.19-3.82.7-.59 1.32-1.27 1.83-2.03.22-.39.31-.83.28-1.27-.06-.41-.3-.78-.65-1.01-.34-.27-.78-.4-1.22-.36-.42.03-.81.23-1.08.56-.31.49-.45 1.08-.39 1.66h-3.79c-.06-.87.09-1.75.42-2.55.32-.64.83-1.17 1.45-1.51.91-.43 1.89-.67 2.89-.7 1.05-.14 2.12-.08 3.14.19.77.2 1.45.62 1.97 1.22.53.58.87 1.3.98 2.08.11.82-.01 1.66-.36 2.41a8.969 8.969 0 0 1-2.23 2.71c-.69.59-1.11 1.01-1.33 1.24-.28.28-.53.57-.77.88l5.86-.49Zm.98-13.85 8.92-.75.47 3.01-6.04.51.18 2.04c.37-.22.77-.4 1.18-.53.38-.14.77-.23 1.17-.27a4.76 4.76 0 0 1 3.6.97c.96.71 1.6 1.78 1.76 2.98.15.86.07 1.75-.24 2.57-.28.83-.83 1.54-1.55 2.01-.89.57-1.9.89-2.95.92-.78.08-1.58.05-2.36-.08-.6-.11-1.19-.31-1.73-.6-.47-.3-.89-.66-1.25-1.07-.4-.46-.73-.98-.98-1.55l3.77-.7c.14.51.44.97.85 1.31.37.29.83.43 1.3.39.49-.04.93-.3 1.2-.71.3-.56.37-1.21.2-1.82-.03-.66-.31-1.29-.78-1.75a1.89 1.89 0 0 0-1.48-.44c-.35.04-.69.16-.98.37-.31.19-.56.46-.75.77l-3.24-.19Zm55.73 9.07-11.26.95c-.06-1.12.17-2.25.67-3.25.83-1.45 1.91-2.75 3.19-3.82.69-.58 1.3-1.27 1.8-2.03.23-.38.33-.82.28-1.26a1.56 1.56 0 0 0-.61-1.02c-.36-.26-.79-.38-1.23-.35-.43.02-.83.22-1.11.55-.3.5-.42 1.08-.35 1.66l-3.83.01c-.06-.88.09-1.75.42-2.56.32-.64.82-1.16 1.45-1.5.9-.44 1.89-.67 2.89-.71 1.06-.13 2.14-.07 3.18.19 1.52.44 2.66 1.73 2.91 3.31.14.82.02 1.66-.36 2.4a8.596 8.596 0 0 1-2.23 2.71l-1.33 1.25c-.28.27-.54.57-.77.88l5.86-.49Zm10.79-11.59-3.65.81c-.11-.42-.34-.79-.66-1.08-.27-.19-.6-.28-.93-.24-.58.05-1.08.46-1.25 1.03-.21.95-.24 1.94-.1 2.91.33-.45.76-.84 1.24-1.13.48-.28 1.02-.45 1.57-.49 1.19-.1 2.37.27 3.29 1.04.96.8 1.58 1.94 1.74 3.19.15.84.08 1.7-.21 2.5-.3.75-.82 1.39-1.5 1.83-.82.49-1.75.78-2.7.83-1.14.14-2.31-.01-3.38-.43a5.26 5.26 0 0 1-2.31-2.07c-.73-1.21-1.21-2.56-1.39-3.97a7.68 7.68 0 0 1 .69-5.52 5.097 5.097 0 0 1 4.01-2.04c.86-.11 1.73-.06 2.58.14.65.18 1.24.52 1.73.99.53.47.95 1.05 1.23 1.7Zm-5.83 6.63c.06.65.35 1.25.81 1.71.41.35.94.52 1.48.48.47-.02.89-.27 1.14-.67.29-.52.38-1.13.24-1.72-.07-.64-.36-1.25-.81-1.7-.37-.35-.87-.53-1.38-.49-.5.02-.96.29-1.24.71-.3.5-.38 1.11-.24 1.68Zm51.72.19-11.27.95c-.06-1.12.18-2.25.68-3.25.84-1.44 1.92-2.73 3.19-3.82.7-.58 1.32-1.27 1.83-2.03.23-.38.31-.83.25-1.26-.05-.41-.27-.79-.62-1.02-.35-.27-.78-.39-1.22-.35-.43.02-.83.22-1.11.55-.28.51-.41 1.08-.35 1.66h-3.8c-.05-.87.09-1.74.42-2.55.32-.59.8-1.07 1.39-1.4.92-.43 1.92-.67 2.93-.7 1.05-.14 2.11-.07 3.14.19.76.21 1.44.63 1.97 1.22.51.59.85 1.31.98 2.08.11.82-.02 1.66-.36 2.41a9.118 9.118 0 0 1-2.23 2.71l-1.37 1.25-.77.88 5.89-.5Zm-.49-13.72 10.99-.93.39 2.56c-.78.9-1.43 1.91-1.93 3-.61 1.35-1.01 2.78-1.18 4.25-.19 1.39-.21 2.8-.07 4.19l-3.73.32c-.11-1.91.06-3.83.5-5.69a18.83 18.83 0 0 1 2.21-5.08l-6.59.56Z"/>
    <path fill="#263238" fill-rule="evenodd" d="m1533.19 1137.32-2.6-16.31 3.24-.28 5.69 11.23c.55 1.06.93 1.84 1.18 2.35-.05-.6.23-1.51.44-2.7l2.08-11.67 2.89-.24 2.6 16.31-2.05.18-2.21-13.65-2.54 14.05-1.95.16-6.91-13.61 2.24 14Zm17.05-7.43c-.43-1.75-.04-3.6 1.05-5.02.89-.94 2.09-1.51 3.38-1.6 1.51-.16 3.02.29 4.21 1.24a6.717 6.717 0 0 1 2.26 4.32c.23 1.18.19 2.4-.12 3.56-.31.9-.9 1.67-1.68 2.2-.8.57-1.74.9-2.73.97-1.53.18-3.06-.28-4.25-1.27a7.107 7.107 0 0 1-2.12-4.4Zm2.05-.17c.09 1.29.65 2.5 1.56 3.41.72.67 1.69 1 2.67.91.94-.05 1.78-.56 2.28-1.36.58-1.09.73-2.37.43-3.58a5.234 5.234 0 0 0-1.54-3.24c-.71-.66-1.67-.99-2.64-.92-.93.06-1.78.55-2.31 1.33a4.976 4.976 0 0 0-.45 3.45Zm12.29 4.96-1.91-11.83 1.82-.16.14 1.7a3.878 3.878 0 0 1 3.33-2.24c.68-.07 1.37.01 2.02.22.56.16 1.08.47 1.48.91.39.39.68.88.85 1.42.21.63.36 1.28.45 1.95l1.14 7.24-1.99.17-1.13-7.18c-.09-.63-.27-1.25-.54-1.83-.23-.39-.58-.7-.99-.88-.44-.22-.94-.31-1.43-.27-.8.05-1.56.42-2.09 1.03-.58.94-.74 2.09-.44 3.16l1.04 6.44Zm31.12-2.62-2.3-14.39-5.34.45-.34-1.92 12.91-1.09.16 1.94-5.37.45 2.3 14.39Zm16.35-1.38-.14-1.72a4.047 4.047 0 0 1-3.32 2.3c-.68.06-1.38-.03-2.02-.26-.57-.16-1.09-.46-1.52-.86-.37-.43-.65-.92-.82-1.46-.22-.6-.36-1.21-.44-1.84l-1.18-7.35 2.02-.18 1.05 6.59c.08.71.24 1.41.46 2.09.18.5.52.92.98 1.19.48.26 1.02.38 1.57.33.59-.05 1.16-.27 1.63-.63.47-.32.79-.8.91-1.36.13-.77.12-1.56-.03-2.34l-1.02-6.33 1.99-.17 1.91 11.83Zm12.38-4.91 2.11.11a4.667 4.667 0 0 1-1.36 2.95 5.02 5.02 0 0 1-3.2 1.3c-1.56.2-3.13-.25-4.35-1.26a6.753 6.753 0 0 1-2.23-4.36c-.4-1.63-.11-3.35.79-4.75.86-1.2 2.23-1.94 3.7-1.98 1.49-.16 2.98.31 4.11 1.29a7.153 7.153 0 0 1 2.24 4.42c0 .18.01.36.04.53l-8.58.72c.17 1.12.73 2.14 1.58 2.89.73.63 1.68.93 2.63.84.66-.04 1.28-.3 1.77-.75.45-.55.72-1.23.75-1.95Zm-7.08-2.66 6.59-.56c-.15-.82-.53-1.57-1.09-2.18-.72-.68-1.7-1.02-2.68-.94-.84.05-1.62.45-2.16 1.1-.54.74-.78 1.66-.66 2.58Zm30.21 4.58-6.89-15.95 2.2-.18 4.18 10.5c.45 1.1.85 2.16 1.24 3.44.13-1.78.22-2.78.23-3.07l1.34-11.29 2.61-.22 3.63 8.07c.86 1.84 1.59 3.74 2.2 5.67-.09-1.02.13-2.24.26-3.57l.86-10.71 2.16-.19-1.86 16.69-2.06.18-5.41-12.14c-.48-1.03-.74-1.64-.83-1.88.07.77-.09 1.42-.15 1.96l-1.49 12.72Zm25.42-6 2.12.1a4.727 4.727 0 0 1-1.37 2.96c-.9.79-2.04 1.25-3.23 1.3-1.56.2-3.14-.26-4.36-1.27a6.763 6.763 0 0 1-2.22-4.35c-.39-1.63-.1-3.34.79-4.75a4.753 4.753 0 0 1 3.73-1.98c1.49-.16 2.98.3 4.12 1.28a7.117 7.117 0 0 1 2.19 4.43c.04.17.05.35.05.53l-8.79.74c.18 1.11.74 2.13 1.58 2.88.72.63 1.68.94 2.63.84.66-.04 1.28-.3 1.76-.75.55-.52.9-1.21 1-1.96Zm-7.08-2.67 6.6-.56c-.17-.82-.56-1.57-1.13-2.17a3.477 3.477 0 0 0-2.65-.95c-.85.04-1.64.44-2.19 1.11a3.6 3.6 0 0 0-.63 2.57Zm19.89 5.46-.13-1.48a3.509 3.509 0 0 1-3.02 2.03c-.94.08-1.88-.11-2.72-.56a6.006 6.006 0 0 1-2.17-2.05c-.6-.95-.99-2.02-1.14-3.13-.2-1.08-.18-2.2.07-3.27.18-.93.68-1.77 1.42-2.36.7-.58 1.57-.93 2.48-.99.68-.07 1.36.03 1.99.3.58.23 1.1.58 1.53 1.04l-.91-5.85 1.95-.16 2.6 16.31Zm-7.23-5.36c.09 1.28.61 2.49 1.48 3.43.65.64 1.53.98 2.43.93.86-.05 1.64-.53 2.07-1.28.53-1.03.67-2.23.39-3.36a6.22 6.22 0 0 0-1.48-3.43 3.239 3.239 0 0 0-2.51-.96c-.84.06-1.61.54-2.03 1.27a5.053 5.053 0 0 0-.35 3.4Zm31.68 3.3-2.3-14.39-5.37.45-.17-1.94 12.91-1.08.16 1.94-5.4.45 2.3 14.39Zm9.49-.8-2.61-16.31 1.99-.17.92 5.85a4.133 4.133 0 0 1 3.35-1.92c.79-.08 1.6.03 2.34.34.67.23 1.24.68 1.62 1.28.44.81.73 1.71.86 2.62l1.19 7.5-1.99.16-1.19-7.49c-.1-.8-.46-1.55-1.02-2.11-.55-.45-1.25-.64-1.95-.55-.57.06-1.12.27-1.6.6-.45.33-.77.81-.9 1.35-.14.73-.13 1.47.01 2.2l1.03 6.48Zm20.51-1.73-.15-1.72a4.027 4.027 0 0 1-3.32 2.3c-.68.06-1.37-.03-2.02-.26-.57-.16-1.09-.46-1.52-.86-.37-.43-.65-.92-.82-1.46-.22-.59-.36-1.21-.44-1.84l-1.18-7.35 2.03-.17 1.04 6.58c.08.71.24 1.41.46 2.09.18.5.52.92.98 1.19.49.27 1.05.38 1.6.33.59-.05 1.14-.27 1.6-.63.47-.31.79-.8.91-1.36.08-.78.01-1.56-.2-2.32l-1.02-6.34 1.98-.16 1.91 11.83Zm28.53-2.4-2.61-16.31 11.06-.93.16 1.94-8.82.74.81 5.04 7.64-.64.16 1.93-7.64.65 1.19 7.42Zm13.49-1.13-1.87-11.84 1.78-.15.15 1.83c.22-.65.56-1.26 1.01-1.78.33-.33.76-.55 1.21-.64.74-.04 1.48.12 2.15.46l-.37 1.91a3.25 3.25 0 0 0-1.53-.3c-.89.07-1.61.77-1.69 1.67-.12.78-.11 1.57.02 2.34l.98 6.2Zm5.38-14.65-.37-2.31 1.98-.17.37 2.31Zm2.23 14.01-1.88-11.84 1.99-.17 1.88 11.84Zm28.37-7.68 2-.34c.17.72.5 1.4.98 1.97.51.53 1.15.92 1.85 1.12.84.27 1.72.36 2.59.28.73-.05 1.44-.24 2.09-.57.52-.22.96-.6 1.24-1.09.24-.44.34-.95.27-1.44-.1-.5-.33-.96-.67-1.33-.46-.41-1.02-.7-1.62-.82-1-.25-2.01-.44-3.03-.56-1.12-.14-2.23-.39-3.3-.76a5.04 5.04 0 0 1-1.97-1.35c-.47-.59-.78-1.28-.91-2.02-.3-1.71.56-3.41 2.11-4.15.9-.48 1.9-.76 2.92-.82 1.09-.1 2.2.01 3.26.33.93.26 1.77.8 2.41 1.54.61.7 1.03 1.56 1.19 2.49l-2.01.34c-.19-.92-.74-1.73-1.52-2.24-.9-.52-1.94-.72-2.96-.57-1-.01-1.96.34-2.73.97-.49.46-.72 1.13-.62 1.79.1.58.42 1.09.89 1.42 1.06.53 2.22.83 3.41.88 1.28.13 2.55.38 3.78.75.9.27 1.71.78 2.34 1.47.58.64.95 1.43 1.07 2.29.13.85.01 1.72-.35 2.51-.4.84-1.06 1.53-1.87 1.97-.93.51-1.96.82-3.02.89-1.28.14-2.57.03-3.82-.32-2.04-.71-3.53-2.49-3.9-4.64Zm23.93 1.82c-.56.61-1.21 1.13-1.95 1.51-.66.32-1.39.51-2.13.57-1.08.16-2.19-.09-3.11-.7a3.485 3.485 0 0 1-1.32-3.96c.18-.48.47-.91.85-1.25.4-.33.85-.6 1.34-.78.56-.19 1.13-.34 1.72-.43 1.17-.21 2.32-.55 3.42-1-.02-.28-.03-.46-.04-.53a2.22 2.22 0 0 0-.84-1.67 3.5 3.5 0 0 0-2.36-.51c-.73.01-1.44.24-2.02.67-.44.51-.7 1.16-.72 1.83l-1.98-.08c.01-.74.2-1.46.56-2.1.37-.61.92-1.08 1.58-1.34 1.62-.66 3.41-.81 5.12-.43.56.13 1.08.41 1.51.79.37.37.67.82.85 1.32.19.59.32 1.19.4 1.81l.43 2.69c.13 1.18.36 2.35.68 3.49.16.49.4.95.72 1.36l-2.1.18a5.38 5.38 0 0 1-.61-1.44Zm-.9-4.47c-1 .45-2.04.79-3.11 1.01-.59.13-1.16.33-1.71.57-.3.16-.53.4-.68.7-.12.32-.16.66-.13 1 .09.52.4.99.85 1.28.54.33 1.19.47 1.82.38.71-.05 1.39-.28 1.98-.67.53-.36.92-.89 1.1-1.51.15-.66.15-1.36.01-2.02Zm10.15 3.41.57 1.76c-.49.09-.99.13-1.5.12-.58.07-1.18 0-1.73-.2a2.14 2.14 0 0 1-.99-.84c-.32-.76-.52-1.55-.62-2.36l-1.1-6.79-1.46.12-.14-1.59 1.47-.12-.46-2.91 1.78-1.39.67 4.13 2.02-.17.13 1.59-2.02.17 1.12 7c.02.37.13.74.3 1.07.08.17.21.29.38.36.23.04.47.02.7-.06.29.07.58.1.88.11Zm23.42-5.52 2.01-.35c.17.73.5 1.41.98 1.98.5.54 1.14.92 1.85 1.12.82.26 1.69.36 2.55.28a5.67 5.67 0 0 0 2.13-.57c.52-.22.95-.61 1.24-1.1.23-.44.31-.94.23-1.44-.06-.5-.29-.96-.64-1.33-.46-.41-1.01-.69-1.61-.82-1-.25-2.01-.43-3.03-.56-1.12-.12-2.23-.38-3.3-.75-.75-.29-1.43-.76-1.97-1.36a3.97 3.97 0 0 1-.91-2.02c-.3-1.7.56-3.4 2.11-4.15.89-.47 1.87-.74 2.88-.81a8.5 8.5 0 0 1 3.29.33 5.11 5.11 0 0 1 3.61 4.02l-2.04.35c-.19-.92-.72-1.73-1.49-2.25-.9-.52-1.94-.72-2.97-.57-.99 0-1.95.34-2.72.98-.49.46-.72 1.13-.63 1.79.07.58.39 1.09.86 1.42 1.12.53 2.35.82 3.59.87 1.27.12 2.53.37 3.75.74.9.28 1.72.78 2.37 1.47.56.64.93 1.44 1.04 2.29.14.86.02 1.74-.35 2.52-.39.84-1.03 1.53-1.84 1.96-.94.52-1.98.83-3.05.89-1.27.15-2.56.04-3.79-.32-2.04-.71-3.53-2.49-3.9-4.63Zm24.2 3.25-.15-1.73a3.928 3.928 0 0 1-3.31 2.3c-.69.06-1.38-.02-2.03-.25-.55-.17-1.06-.46-1.48-.87-.38-.42-.67-.92-.86-1.46-.19-.6-.34-1.21-.43-1.84l-1.15-7.35 1.99-.17 1.05 6.58c.08.71.23 1.41.45 2.09.2.5.55.92 1.02 1.19.48.27 1.03.38 1.57.33.58-.05 1.14-.27 1.6-.63.47-.3.8-.79.9-1.35.15-.77.15-1.57-.02-2.34l-1.02-6.34 2.02-.17 1.87 11.84Zm4.92-.42-1.91-11.83 1.81-.15.14 1.69c.63-1.3 1.9-2.16 3.33-2.23.68-.07 1.37 0 2.02.22.56.16 1.08.47 1.48.9.39.4.69.89.86 1.42.21.64.36 1.29.44 1.95l1.14 7.25-1.99.17-1.13-7.18a6.19 6.19 0 0 0-.54-1.84c-.23-.38-.58-.69-.99-.87-.45-.23-.96-.32-1.46-.27-.79.05-1.53.42-2.06 1.03-.6.93-.75 2.09-.43 3.16l1.03 6.44Z"/>
    <path fill="#FF0083" fill-rule="evenodd" d="M1894.47 1517.33c-9.69-.09-17.28-6.2-15.14-12.21 1.32-3.74 6.55-6.36 12.59-6.3 9.71.09 17.29 6.2 15.16 12.21-1.33 3.74-6.56 6.35-12.61 6.3Z"/>
    <path fill="#3CF" fill-rule="evenodd" d="M1779.25 1544.88c-8.73.38-15.23-7.67-12.99-16.09 1.39-5.25 6.23-9.14 11.67-9.38 8.73-.38 15.24 7.67 13 16.09-1.4 5.25-6.24 9.14-11.68 9.38Z"/>
    <path fill="#D1D1D1" fill-rule="evenodd" d="M1597.99 1694.9c-8.73.39-15.24-7.67-13-16.09 1.4-5.24 6.24-9.13 11.68-9.37 8.73-.39 15.23 7.67 12.99 16.09-1.39 5.25-6.24 9.13-11.67 9.37Z"/>
    <path fill="#FFC000" fill-rule="evenodd" d="M1595.85 1540.25c-7.02-.76-12.1-7.04-11.35-14.04.76-7 7.06-12.06 14.08-11.3 7.01.75 12.09 7.04 11.34 14.04-.76 6.99-7.06 12.05-14.07 11.3Zm147.43 9.53c2.74 1.12.86 7.37-3.75 12.5-2.88 3.2-6.13 4.97-7.84 4.28-2.74-1.12-.86-7.38 3.75-12.51 2.88-3.2 6.13-4.97 7.84-4.27Z"/>
    <path fill="#0070C0" fill-rule="evenodd" d="M1934.2 1600.68c1.45-1.69 6.25.05 10.71 3.89 4.46 3.84 6.89 8.32 5.43 10.01-1.45 1.7-6.25-.04-10.71-3.88-4.46-3.84-6.89-8.32-5.43-10.02Z"/>
    <path fill="#FF0083" fill-rule="evenodd" d="M1931.93 1556.74c1.46-1.69 6.26.05 10.71 3.89 4.46 3.83 6.9 8.32 5.44 10.01-1.46 1.69-6.25-.05-10.71-3.88-4.46-3.84-6.9-8.33-5.44-10.02Zm-246.29-16.58c1.54-1.79 6.51-.04 11.1 3.91 4.58 3.94 7.05 8.6 5.51 10.39-1.54 1.78-6.51.03-11.09-3.91-4.59-3.95-7.06-8.6-5.52-10.39Z"/>
    <path fill="#0070C0" fill-rule="evenodd" d="M1951.07 1530.23c2.74 1.11.86 7.38-3.76 12.5-2.88 3.2-6.13 4.97-7.84 4.27-2.74-1.11-.86-7.38 3.76-12.5 2.88-3.2 6.13-4.97 7.84-4.27Z"/>
    <path fill="#3CF" fill-rule="evenodd" d="M1947.86 1507.23c-2.23-.19-3.61-5.11-3.09-10.97s2.75-10.45 4.97-10.25c2.23.2 3.61 5.11 3.09 10.97s-2.75 10.45-4.97 10.25Z"/>
    <path fill="#FF0083" fill-rule="evenodd" d="M1591.46 1606.49c1.45-1.69 6.25.05 10.71 3.88 4.46 3.84 6.89 8.33 5.43 10.02-1.45 1.69-6.25-.05-10.71-3.89-4.46-3.83-6.89-8.32-5.43-10.01Z"/>
    <path fill="#00B0F0" fill-rule="evenodd" d="M1637.39 1561.54c1.46-1.69 6.26.05 10.72 3.89 4.46 3.84 6.89 8.32 5.43 10.01-1.46 1.7-6.25-.04-10.71-3.88-4.46-3.84-6.89-8.33-5.44-10.02Z"/>
    <path fill="none" stroke="#FFF" stroke-linecap="round" stroke-linejoin="round" stroke-miterlimit="10" stroke-width="20.625" d="m1605.5 1446.71 18.55 13.79 15.45-40"/>
    <path fill="none" stroke="#00B0F0" stroke-linecap="round" stroke-linejoin="round" stroke-miterlimit="10" stroke-width="6.875" d="M1857.9 1614.08c-6.43 5.64-12.86 11.28-18.74 14.61-5.87 3.34-7.93 3.53-16.52 5.38s-24.07 5.36-35.04 5.73c-10.98.37-22.75-1.8-30.79-3.52-8.05-1.71-12.77-4.24-17.5-6.77"/>
    <path fill="none" stroke="#00B0F0" stroke-linecap="round" stroke-linejoin="round" stroke-miterlimit="10" stroke-width="6.875" d="M1846.9 1623.22c-5.4-6.93-10.8-13.86-21.12-16.23-10.32-2.37-28.78-2.68-40.8 2-12.01 4.69-21.65 15.4-31.29 26.11"/>
    <path fill="#00B0F0" fill-rule="evenodd" stroke="#00B0F0" stroke-linecap="round" stroke-linejoin="round" stroke-miterlimit="10" stroke-width="6.875" d="M1800.43 1655.89c-.15-1.27 1.92-2.54 4.61-2.84 2.69-.31 4.98.47 5.13 1.73.14 1.27-1.92 2.54-4.61 2.85-2.69.3-4.99-.48-5.13-1.74Z"/>
    <path fill="none" stroke="#00B0F0" stroke-linecap="round" stroke-linejoin="round" stroke-miterlimit="10" stroke-width="6.875" d="M1859.46 1672.64c3.47-2.4 8.12-6.39 8.98-13.32.85-6.92-1.32-19.71-3.83-28.26-2.5-8.55-5.11-16.43-11.23-23.04-6.11-6.6-13.24-14.56-25.47-16.6-12.23-2.05-35.86.63-48.65 5.08-12.8 4.45-18.72 13.44-28.12 21.59-9.4 8.15-21.21 19.71-28.28 27.3-7.07 7.6-11.86 11.83-14.14 18.25-2.28 6.43-2.41 16.38.46 20.32 2.88 3.95 12.64 2.91 16.79 3.36 4.16.44 2.8-.37 8.16-.66"/>
    <path fill="none" stroke="#00B0F0" stroke-linecap="round" stroke-linejoin="round" stroke-miterlimit="10" stroke-width="6.875" d="M1720.23 1648.98c2.99 1.53 5.98 3.07 6.99 5.78 1.01 2.71 1.04 7.42-.92 10.5-1.95 3.09-7.79 6.58-10.8 8.02-3 1.43-5.11 1.02-7.22.6m109.25 2.44c-1.34-11.85 6.56-22.48 17.66-23.74 11.1-1.25 21.18 7.33 22.53 19.18 1.34 11.85-6.56 22.48-17.66 23.74-11.1 1.26-21.18-7.33-22.53-19.18Zm-82.71 9.17c-1.34-11.85 6.57-22.47 17.66-23.73 11.1-1.26 21.18 7.32 22.53 19.17 1.34 11.85-6.56 22.48-17.66 23.74-11.1 1.26-21.18-7.33-22.53-19.18Z"/>
    <path fill="#00B0F0" fill-rule="evenodd" stroke="#00B0F0" stroke-linecap="round" stroke-linejoin="round" stroke-miterlimit="10" stroke-width="6.875" d="M1833.23 1675.36c-.32-2.82 1.56-5.35 4.2-5.65 2.64-.3 5.05 1.75 5.37 4.57.32 2.82-1.57 5.35-4.21 5.65-2.64.3-5.04-1.75-5.36-4.57Zm-83.28 9.45c-.32-2.82 1.56-5.35 4.2-5.65 2.64-.3 5.04 1.74 5.36 4.57.32 2.82-1.56 5.35-4.2 5.65-2.64.3-5.04-1.75-5.36-4.57Z"/>
    <path fill="none" stroke="#00B0F0" stroke-linecap="round" stroke-linejoin="round" stroke-miterlimit="10" stroke-width="6.875" d="M1817.51 1635.31c1.98 9.96 3.75 18.03 4.06 25.01"/>
    <path fill="none" stroke="#00B0F0" stroke-miterlimit="8" stroke-width="6.875" d="m1775.12 1681.88 42.52-4.61"/>
    <path fill="#FF8B7B" fill-rule="evenodd" d="m1981.28 1247.41-6.5 8.45a8.465 8.465 0 0 0 .62 11.1l8.62 9.04 21.98-20.42-12.39-9.72c-3.76-2.95-9.23-2.32-12.21 1.4l-.12.15Z"/>
    <path fill="#FF8B7B" fill-rule="evenodd" d="M1978.63 1158.34c4.99 7.94 9.26 15.6 13.5 23.62 4.25 8.02 8.19 16.11 11.82 24.54 3.82 8.57 7.14 17.36 9.92 26.33 1.53 4.8 2.77 9.69 3.71 14.65 1.18 5.9 1.63 11.92 1.33 17.93v1.25a17.04 17.04 0 0 1-11.56 15.17 65.623 65.623 0 0 1-19.57 3.15c-5.68.11-11.36-.2-17-.93-5.44-.69-10.84-1.69-16.17-2.99-5.26-1.26-10.43-2.83-15.5-4.72-5.38-1.72-8.34-7.49-6.62-12.88 1.28-4 4.87-6.81 9.05-7.09h.67c4.65-.57 9.69-.95 14.45-1.46 4.75-.52 9.51-.98 14.09-1.64 4.58-.67 9.03-1.44 13.04-2.36 3.39-.7 6.67-1.85 9.75-3.43l-11.64 16.42c-.3-2.7-.84-5.37-1.61-7.97-.92-3.25-2.1-6.81-3.48-10.25-1.38-3.43-2.91-7.22-4.6-10.88-1.69-3.66-3.33-7.35-5.12-11.04-3.66-7.35-7.47-14.75-11.46-22.11-3.99-7.35-8.13-14.83-12.04-21.77l-.18-.3c-5.56-9.86-2.09-22.36 7.74-27.93 9.52-5.38 21.59-2.32 27.4 6.95Z"/>
    <path fill="#0CC8EE" fill-rule="evenodd" d="M1959.13 1138.34c17.61 5.42 27.3 19.66 51.87 72.42-4.64 15.11-53.68 32.24-53.68 32.24s-24.31-48.24-26.1-70.81c-1.78-22.58 7.04-40.29 27.91-33.85Z"/>
    <path fill="#CE7A63" fill-rule="evenodd" d="M1937.69 1253.87 1921 1253l6.87 29c4.85-.41 9.62-1.52 14.15-3.29 6.59-2.75 9.71-10.28 7-16.85-1.87-4.65-6.3-7.77-11.33-7.99Z"/>
    <path fill="#CE7A63" fill-rule="evenodd" d="m1901.68 1270.01 4.13 9.69c1.63 3.89 5.87 6.04 10.02 5.07l12.17-2.89-6.88-28.88-14.64 5.73c-4.45 1.74-6.63 6.73-4.87 11.13.03.05.05.1.07.15Z"/>
    <path fill="#FF8B7B" fill-rule="evenodd" d="m1722 1198.15-11.24-22.15-21.76 20.39s12.62 18.81 23.7 13.74Z"/>
    <path fill="#FF8B7B" fill-rule="evenodd" d="m1686.28 1168.41-6.5 8.45a8.465 8.465 0 0 0 .62 11.1l8.61 9.04 21.99-20.42-12.39-9.72c-3.76-2.95-9.23-2.32-12.21 1.4l-.12.15ZM1951 1718.08c3.1 16.82 6.62 49.04 6.75 54.79 6.37 3.81 14.2 4.16 20.88.94 0 0 .83-45.93 0-55.76-17.1-.13-27.63.03-27.63.03Z"/>
    <path fill="#263238" fill-rule="evenodd" d="M1923.26 1787.06s30.63-8.18 32.14-20.06l25.27 2.9 2.33 23.1h-8.97l-1.43-2.88-3.03 2.88c-30.5 0-41.8-.34-47.46-2.25a3.71 3.71 0 0 1 1.15-3.69Zm44.11-253.66c-1.76-94.78-2.09-169.61-12.05-205.96L1871 1314s19.66 160.51 39.98 226.91c20.33 66.39 38.4 197.09 38.4 197.09h34.81s6.4-125.79-16.82-204.6Z"/>
    <path fill="#00B0F0" fill-rule="evenodd" d="m1985.69 1739.26-38.68.74-5.01-24 45 4.03-1.31 19.23Z"/>
    <path fill-opacity=".2" fill-rule="evenodd" d="m1902.59 1393-14.59 40.67c5.93 35.66 12.83 72.04 19.93 98.33 5.54-47.59-1.36-125.6-5.34-139Z"/>
    <path fill="#FF8B7B" fill-rule="evenodd" d="M1801.47 1698c-1.28 17.01-6.11 49.11-7.47 54.73 5.44 5.2 13.16 7.36 20.54 5.75 0 0 12.66-44.38 14.46-54.07-17.05-4.12-27.53-6.41-27.53-6.41Z"/>
    <path fill="#263238" fill-rule="evenodd" d="M1752.14 1757.5s37.31.43 41.81-10.5l24.05 8.55-3.57 22.45-8.81-2.05-.67-3.06-3.69 2.03c-29.95-7.01-46.2-11.06-51.26-14.19.04-1.4.87-2.65 2.14-3.23Zm119.21-218.03A827.9 827.9 0 0 0 1927 1323l-91.76-15s-13.6 165.89-19.55 234.08c-6.17 70.9-19.69 173.34-19.69 173.34l31.25 9.58s41.02-97.38 44.1-185.53Z"/>
    <path fill="#00B0F0" fill-rule="evenodd" d="m1829.78 1727-37.78-8.22 1.28-24.78 42.72 14.4-6.22 18.6Z"/>
    <path fill="#FF8B7B" fill-rule="evenodd" d="M1939.38 1078c-4.18 17.82-5.78 42.81.62 56.53-9.7 7.64-25.19 16.93-44.78 15.28-19.59-1.66-15.02-14.51-9.26-20.88 14.55-5.98 15.64-13 12.67-19.47Z"/>
    <path fill="#0CC8EE" fill-rule="evenodd" d="M1958 1140s-11.12-11.15-15.86-13.95c-4.74-2.79-42.71-4.72-51.54-3.83-8.83.89-20.6 13.13-20.6 13.13Z"/>
    <path fill="#263238" fill-rule="evenodd" d="M1883.95 1064.86c-.26 1.93-1.33 3.34-2.38 3.12-1.05-.22-1.76-1.91-1.52-3.84.23-1.93 1.33-3.34 2.38-3.12 1.05.22 1.76 1.91 1.52 3.84Z"/>
    <path fill="#FF8B7B" fill-rule="evenodd" d="M1885 1068a62.78 62.78 0 0 1-10 13.99c2.51 3.48 7.68 2.99 7.68 2.99Z"/>
    <path fill="#263238" fill-rule="evenodd" d="M1882.21 1053.53c.2.26.54.41.89.39 2.68-.16 5.28.85 7 2.7.34.41.99.5 1.46.2s.58-.89.25-1.32c-2.12-2.38-5.4-3.68-8.79-3.48-.59.03-1.05.47-1.02 1v.01c.03.18.1.35.21.5Z"/>
    <path fill="#FF8B7B" fill-rule="evenodd" d="M1945.3 1069.17c-4.63 21.69-6.25 34.63-19.07 44.11-19.3 14.28-45 0-46.98-22.7-1.8-20.44 6.1-52.46 29-57.8 16.62-3.78 33.18 6.55 36.97 23.07a30.39 30.39 0 0 1 .08 13.32Z"/>
    <path fill="#263238" fill-rule="evenodd" d="M1955 1059.9c7.36.7 14.03-4.46 15.35-11.9 5.4 8.92-3.19 18.28-15.35 11.9Z"/>
    <path fill="#0CC8EE" fill-rule="evenodd" d="M1956.78 1137.96c-29.81-5.91-72.52-8.68-101.22-5.83-14.57 1.57-26.24 12.73-28.43 27.18-6.69 42.81-.97 119.56 1.71 196.13 83.95 20.96 136.06 4.25 136.06 4.25 2.55-15.28-5.39-61.34-8.56-88.49 5.83-27.35 17.75-58.3 25.88-94.6 3.88-17.35-7.07-34.56-24.47-38.44-.33-.07-.65-.14-.97-.2Z"/>
    <path fill="#FF8B7B" fill-rule="evenodd" d="M1865.14 1171.54c-5.35 7.64-10.69 14.51-16.4 21.51-5.72 6.99-11.58 13.74-17.86 20.35a240.06 240.06 0 0 1-20.41 19.3 127.03 127.03 0 0 1-12.14 9.13 66.617 66.617 0 0 1-16.59 8.09l-.66.23-1.17.28c-8.98 1.36-18.15.28-26.56-3.13a86.634 86.634 0 0 1-18.98-10.33c-5.43-3.83-10.55-8.09-15.31-12.72-4.68-4.56-9-9.47-12.94-14.69-3.44-4.45-2.61-10.84 1.85-14.27 3.33-2.57 7.9-2.83 11.5-.67l.69.41c4.64 2.7 9.74 5.75 14.64 8.32a156.1 156.1 0 0 0 14.7 7.05c2.42.99 4.79 1.91 7.11 2.55 2.33.63 4.57 1.24 6.64 1.68 2.92.71 5.98.62 8.85-.26l-1.86.49c2.18-1.21 4.24-2.61 6.17-4.18 2.55-2.06 5.36-4.45 8.09-7.1 5.48-5.32 10.94-11.27 16.3-17.41 5.36-6.13 10.64-12.57 15.82-19.08 5.18-6.52 10.43-13.21 15.31-19.5l.2-.28c6.67-9.06 19.45-11.02 28.54-4.36 9.08 6.65 11.04 19.4 4.37 28.46Z"/>
    <path fill="#0CC8EE" fill-rule="evenodd" d="M1855.22 1132.11c-18.32 1.33-23.6 8.07-59.22 53.69 1.12 15.7 37.02 48.2 37.02 48.2s42.3-46.21 49.08-67.68c6.79-21.46-5.18-35.76-26.88-34.21Z"/>
    <path fill="#263238" fill-rule="evenodd" d="M1959.66 1060.45c10.13-7.34 9.03-27.05-9.95-35.06 1.28 2.37 1.97 5.03 2 7.72 0 0-17.52-22.13-45.68-18.76 3.84 1.1 7.29 3.29 9.93 6.31 0 0-26.88-2.24-38.73 11.17 6.8 1.18 11.16 1.8 11.16 1.8s-8.52 12.87-15.39 14a77.173 77.173 0 0 0 24.29 4.12c-10.26 4.99-15.19 19.22 3.31 30.24 5.77 16.27 18.72 30.68 43.34 28.85 0-1.57.51-6.05-.82-8.23a21.32 21.32 0 0 0 7.69 1.82s4.72-13.15-.28-20.79c.87 1.54 7.69 3.19 7.69 3.19-.75-4.46.17-9.04 2.57-12.87 3.87-6.02 4.38-11.58-1.13-13.51Z"/>
  </g>
</svg>
