<svg xmlns="http://www.w3.org/2000/svg" xmlns:xlink="http://www.w3.org/1999/xlink" overflow="hidden" viewBox="0 0 1685 1446">
  <defs>
    <clipPath id="a">
      <path d="M358 384h1685v1446H358z"/>
    </clipPath>
  </defs>
  <g clip-path="url(#a)" transform="translate(-358 -384)">
    <path fill="#FAFAFA" fill-rule="evenodd" d="M603.294 1004.62c-327.059 188.77-327.059 494.76 0 683.73 327.058 188.97 857.356 188.76 1184.416 0 327.05-188.76 327.05-494.76 0-683.73-327.06-188.965-857.358-188.69-1184.416 0Z"/>
    <path fill="#0070C0" fill-rule="evenodd" d="M985.966 1250.04V422.147c0-21.285-10.586-27.164-19.969-32.597-9.384-5.433-24.85-8.7-38.186-.997L586.06 585.924A53.474 53.474 0 0 0 562 627.806V1455.7c0 15.41 9.658 24.52 19.076 29.95 9.418 5.43 25.744 11.38 39.114 3.65l341.717-197.38a45.463 45.463 0 0 0 24.059-41.88Z"/>
    <path fill="#0070C0" fill-rule="evenodd" d="m964.433 1257.89-351.372 202.97V629.41L569.083 604A49.592 49.592 0 0 0 562 627.828V1455.7c0 15.41 9.662 24.52 19.083 29.95 9.422 5.43 25.754 11.38 39.129 3.65l341.849-197.37A46.122 46.122 0 0 0 983 1268.58l-1.375-.79Z"/>
    <path fill="#0070C0" fill-rule="evenodd" d="M960.782 414.597 617.983 612.613A37.628 37.628 0 0 0 601 641.987v821.443c0 16.54 11.758 23.32 26.094 15.03l333.688-192.62A42.721 42.721 0 0 0 980 1252.51V425.706c0-12.21-8.663-17.198-19.218-11.109Z"/>
    <path fill="#FFF" fill-rule="evenodd" d="M971 790v421.92a42.223 42.223 0 0 1-19.061 33.06l-322.843 186.38c-10.544 6.14-19.096 1.2-19.096-10.99V998.418Zm0-230.763v-68.991c0-15.366-10.853-21.657-24.041-13.957l-1.889 1.1-315.974 182.569a34.85 34.85 0 0 0-3.881 2.647l-1.82 1.65A42.671 42.671 0 0 0 610 693.027V768Z"/>
    <path fill="#263238" fill-rule="evenodd" d="m754.22 555.938 48.526-28.174c2.885-1.688 5.255-.482 5.255 2.652a11.37 11.37 0 0 1-5.255 8.749l-48.526 28.071c-2.885 1.687-5.22.482-5.22-2.652a11.233 11.233 0 0 1 5.22-8.646ZM828 511.774c3.314-1.814 6-.336 6 3.358-.192 4.093-2.428 7.844-6 10.074-3.488 1.847-6 .369-6-3.358.206-4.09 2.438-7.838 6-10.074Z"/>
    <path fill="#455A64" fill-rule="evenodd" d="M592.986 727.199c-.222-6.463-3.452-12.429-8.697-16.071a5.754 5.754 0 0 0-6.01-.513c-1.074.684-5.372 3.112-6.514 3.796-1.961 1.453-3.002 3.87-2.72 6.325v67.086c.262 6.459 3.496 12.412 8.73 16.071a5.856 5.856 0 0 0 5.776.615c1.208-.649 5.607-3.248 6.715-3.932 1.951-1.46 2.975-3.877 2.686-6.326Z"/>
    <path fill="#37474F" fill-rule="evenodd" d="M587 730.358v67.625c0 6.1-4.015 8.72-9 5.859a20.66 20.66 0 0 1-9-16.2v-67.624c0-6.101 4.05-8.721 9-5.86a20.42 20.42 0 0 1 9 16.2Z"/>
    <path fill="#455A64" fill-rule="evenodd" d="M593 845.181c-.254-6.45-3.463-12.402-8.665-16.067a5.685 5.685 0 0 0-5.989-.479l-6.591 3.795c-1.954 1.453-2.991 3.87-2.71 6.325v67.074c.241 6.454 3.47 12.406 8.699 16.033a5.754 5.754 0 0 0 5.754.65c1.205-.65 5.588-3.248 6.692-3.932 1.943-1.459 2.964-3.876 2.676-6.324Z"/>
    <path fill="#37474F" fill-rule="evenodd" d="M587 849.176v66.913c0 6.003-4.015 8.595-9 5.764-5.411-3.618-8.751-9.556-9-15.995v-66.914c0-6.037 4.05-8.629 9-5.798 5.425 3.622 8.769 9.577 9 16.03Z"/>
    <path fill="#FFF" fill-rule="evenodd" d="M610 764.354V1088l361-283.663V491L610 764.354Z"/>
    <path fill="#455A64" fill-rule="evenodd" d="m683 812.151 7-4.151v109.849L683 922V812.151Z"/>
    <path fill="#FF0083" fill-rule="evenodd" d="m672 821.193 7-4.193v107.808l-7 4.193V821.193Z"/>
    <path fill="#FFA757" fill-rule="evenodd" d="m725 788.152 7-4.152v109.848L725 898V788.152Z"/>
    <path fill="#00C6FF" fill-rule="evenodd" d="m714 810.195 8-4.195v93.839L714 904v-93.805Z"/>
    <path fill="#FFF" fill-rule="evenodd" d="m714 810.195 8-4.195v93.839L714 904v-93.805Z"/>
    <path fill="#455A64" fill-rule="evenodd" d="m767 753.18 7-4.18v120.82l-7 4.181V753.18Z"/>
    <path fill="#00C6FF" fill-rule="evenodd" d="m757 778.192 7-4.192v101.843L757 880V778.192Z"/>
    <path fill="#FFF" fill-opacity=".4" fill-rule="evenodd" d="M757 880V778.192l7-4.192v101.843"/>
    <path fill="#455A64" fill-rule="evenodd" d="m810 745.19 7-4.19v103.845L810 849V745.19Z"/>
    <path fill="#00C6FF" fill-rule="evenodd" d="m799 741.151 7-4.151v113.85l-7 4.15V741.151Z"/>
    <path fill="#FFA757" fill-rule="evenodd" d="m799 741.151 7-4.151v113.85l-7 4.15V741.151Z"/>
    <path fill="#0070C0" fill-rule="evenodd" d="m852 735.203 7-4.203v89.832L852 825v-89.797Z"/>
    <path fill="#00C6FF" fill-rule="evenodd" d="m841 739.165 8-4.165v91.835L841 831v-91.835Z"/>
    <path fill="#455A64" fill-rule="evenodd" d="m894 680.161 8-4.161v119.839L894 800V680.161Z"/>
    <path fill="#00C6FF" fill-rule="evenodd" d="m884 699.158 7-4.158v106.842L884 806V699.158Z"/>
    <path fill="#FFF" fill-opacity=".4" fill-rule="evenodd" d="m884 699.158 7-4.158v106.842L884 806V699.158Z"/>
    <path fill="#455A64" fill-rule="evenodd" d="m937 753.232 7-4.232v22.768L937 776v-22.768Z"/>
    <path fill="#00C6FF" fill-rule="evenodd" d="m926 770.171 7-4.171v11.864L926 782v-11.829Z"/>
    <path fill="#E0E0E0" fill-rule="evenodd" d="M661.752 935a.793.793 0 0 1-.651-.377.753.753 0 0 1 .274-1.028l285.496-164.506a.79.79 0 0 1 1.029.274.753.753 0 0 1-.275 1.028L662.13 934.897a.705.705 0 0 1-.378.103Zm0-146a.752.752 0 0 1-.752-.762c0-.269.144-.517.374-.652l285.508-165.485a.753.753 0 0 1 1.029.276.795.795 0 0 1-.274 1.034L662.129 788.896a.688.688 0 0 1-.377.104Z"/>
    <path fill="#00C6FF" fill-rule="evenodd" d="m672 745.333 7-4.333v8.667L672 754v-8.667Z"/>
    <path fill="#E0E0E0" fill-rule="evenodd" d="M685.499 744a1.553 1.553 0 0 1-1.305-.742 1.47 1.47 0 0 1 .577-2.02c.003 0 .003-.004.007-.004l52.873-29.983a1.524 1.524 0 0 1 2.094.408 1.47 1.47 0 0 1-.415 2.06c-.055.034-.11.068-.168.095l-52.908 29.984a1.53 1.53 0 0 1-.755.202Z"/>
    <path fill="#00C6FF" fill-rule="evenodd" d="m767 690.333 8.001-4.333v8.667L767 699v-8.667Z"/>
    <path fill="#FFF" fill-rule="evenodd" d="m767 690.333 8.001-4.333v8.667L767 699v-8.667Z"/>
    <path fill="#E0E0E0" fill-rule="evenodd" d="M781.505 688.999a1.446 1.446 0 0 1-1.306-.742 1.438 1.438 0 0 1 .536-1.983c.004-.003.01-.003.014-.007l52.9-30.016a1.527 1.527 0 0 1 2.096.407 1.47 1.47 0 0 1-.416 2.061c-.055.034-.11.068-.168.095L782.26 688.83a1.504 1.504 0 0 1-.755.169Z"/>
    <path fill="#00C6FF" fill-rule="evenodd" d="m863 635 7-4v8l-7 4v-8Z"/>
    <path fill-rule="evenodd" d="m863 635 7-4v8l-7 4v-8Z"/>
    <path fill="#E0E0E0" fill-rule="evenodd" d="M876.506 634a1.52 1.52 0 0 1-1.506-1.537c0-.543.285-1.04.75-1.315l52.971-30.956a1.538 1.538 0 0 1 2.064.556 1.508 1.508 0 0 1-.495 2.056c-.017.011-.038.021-.055.031l-52.972 30.956c-.23.133-.492.206-.757.209Zm17.774 580.6 31.475-18.31c1.225-.73 2.245 0 2.245 1.3v.96a4.801 4.801 0 0 1-2.211 3.89l-31.543 18.27c-1.259.73-2.246 0-2.246-1.3v-.93a5.005 5.005 0 0 1 2.28-3.88Zm-.064-25.99 31.534-18.32c1.228-.73 2.25 0 2.25 1.3v.96a4.808 4.808 0 0 1-2.215 3.91l-31.535 18.25c-1.261.73-2.25 0-2.25-1.3v-.89a4.876 4.876 0 0 1 2.216-3.91Zm.064 43.02 31.475-18.34c1.225-.73 2.245 0 2.245 1.3v.96a4.829 4.829 0 0 1-2.211 3.92l-31.543 18.24c-1.259.73-2.246 0-2.246-1.3v-.89c.102-1.59.95-3.04 2.28-3.89Zm0 15.97 31.475-18.31c1.225-.73 2.245 0 2.245 1.3v.96a4.816 4.816 0 0 1-2.211 3.89l-31.543 18.27c-1.259.73-2.246 0-2.246-1.3v-.89c.099-1.6.946-3.06 2.28-3.92Z"/>
    <path fill="#455A64" fill-rule="evenodd" d="M2036.21 1496.62c5.35-1.98 8.07-7.93 6.09-13.28-1.99-5.35-7.94-8.07-13.29-6.09l-9.75 3.66a5.076 5.076 0 0 0-2.88 4.33c-.58 5.11 1.33 10.2 5.12 13.69a5.178 5.178 0 0 0 5.03 1.36l9.75-3.66Z"/>
    <path fill="#37474F" fill-rule="evenodd" d="M2021.33 1498.9a5.183 5.183 0 0 0 5.03 1.37l9.75-3.66c3.34-1.26 5.79-4.16 6.48-7.66-.95 2.76-5.59 4.46-11.02 6.47-5.43 2.02-9.79 1.63-13.1-6.24-2.52-5.76.14-7.92 1.7-8.71l-1.08.41a5.088 5.088 0 0 0-2.88 4.33c-.57 5.12 1.33 10.2 5.12 13.69Z"/>
    <path fill="#0BF" fill-rule="evenodd" d="M2009.68 1529.81c16.8-5.74 25.77-24.01 20.03-40.81-5.74-16.79-24.01-25.76-40.81-20.02-.58.2-1.16.41-1.73.65-4.46 1.65-7.77 6.25-8.98 13.41a50.205 50.205 0 0 0 15.93 42.55c5.63 4.43 11.14 5.88 15.56 4.22Z"/>
    <path fill="#0BF" fill-rule="evenodd" d="M2018.67 1516.4a50.068 50.068 0 0 0-15.93-42.55c-5.6-4.43-11.1-5.88-15.57-4.22l-214.7 80.36c-4.46 1.66-7.78 6.26-8.98 13.41a50.177 50.177 0 0 0 15.92 42.56c5.57 4.59 11.14 5.88 15.57 4.22l214.7-80.37c4.47-1.69 7.82-6.29 8.99-13.41Z"/>
    <path fill="#FFF" fill-opacity=".2" fill-rule="evenodd" d="M2018.67 1516.4a50.068 50.068 0 0 0-15.93-42.55c-5.6-4.43-11.1-5.88-15.57-4.22l-214.7 80.36c-4.46 1.66-7.78 6.26-8.98 13.41a50.177 50.177 0 0 0 15.92 42.56c5.57 4.59 11.14 5.88 15.57 4.22l214.7-80.37c4.47-1.69 7.82-6.29 8.99-13.41Z"/>
    <path fill="#0BF" fill-rule="evenodd" d="M1766.53 1611.46a51.573 51.573 0 0 1-16.35-43.74c1.24-7.36 4.64-12.08 9.29-13.78l16.51-6.18c4.58-1.71 10.28-.4 16.01 4.33a51.555 51.555 0 0 1 16.38 43.74c-1.23 7.33-4.68 12.08-9.29 13.78l-16.51 6.18c-4.58 1.71-10.28.4-16.04-4.33Z"/>
    <path fill="#FFF" fill-opacity=".349" fill-rule="evenodd" d="M1766.53 1611.46a51.573 51.573 0 0 1-16.35-43.74c1.24-7.36 4.64-12.08 9.29-13.78l16.51-6.18c4.58-1.71 10.28-.4 16.01 4.33a51.555 51.555 0 0 1 16.38 43.74c-1.23 7.33-4.68 12.08-9.29 13.78l-16.51 6.18c-4.58 1.71-10.28.4-16.04-4.33Z"/>
    <path fill="#0BF" fill-rule="evenodd" d="M1775.44 1558.27a51.552 51.552 0 0 1 16.35 43.74c-1.23 7.32-4.65 12.08-9.29 13.77-4.64 1.7-10.28.4-16.04-4.33a51.573 51.573 0 0 1-16.35-43.74c1.24-7.36 4.65-12.08 9.29-13.78 4.64-1.69 10.28-.4 16.04 4.34Z"/>
    <path fill-opacity=".149" fill-rule="evenodd" d="M1775.44 1558.27a51.552 51.552 0 0 1 16.35 43.74c-1.23 7.32-4.65 12.08-9.29 13.77-4.64 1.7-10.28.4-16.04-4.33a51.573 51.573 0 0 1-16.35-43.74c1.24-7.36 4.65-12.08 9.29-13.78 4.64-1.69 10.28-.4 16.04 4.34Z"/>
    <path fill="#0BF" fill-rule="evenodd" d="M1563.46 1632.15c3.98-1.49 8.91-.35 13.87 3.73a44.692 44.692 0 0 1 14.2 37.91c-1.08 6.37-4.03 10.47-8.01 11.93l-10.27 1.2c-4.01.28-7.95-1.13-10.85-3.91a41.26 41.26 0 0 1-13.06-34.89 14.45 14.45 0 0 1 5.6-10.08Z"/>
    <path fill-rule="evenodd" d="M1563.46 1632.15c3.98-1.49 8.91-.35 13.87 3.73a44.692 44.692 0 0 1 14.2 37.91c-1.08 6.37-4.03 10.47-8.01 11.93l-10.27 1.2c-4.01.28-7.95-1.13-10.85-3.91a41.26 41.26 0 0 1-13.06-34.89 14.45 14.45 0 0 1 5.6-10.08Z"/>
    <path fill="#0BF" fill-rule="evenodd" d="M1577.36 1635.71a44.656 44.656 0 0 1 14.19 37.91c-1.07 6.37-4.02 10.47-8 11.93l193.65-72.47c3.98-1.49 6.97-5.59 8.01-11.97a44.7 44.7 0 0 0-14.17-37.87c-4.99-4.11-9.94-5.15-13.86-3.76l-193.72 72.67c4.01-1.66 8.94-.52 13.9 3.56Z"/>
    <path fill="#0BF" fill-rule="evenodd" d="M1572.14 1686.67c4.21-1.96 7-6.08 7.24-10.71a40.02 40.02 0 0 0-12.83-33.98 12.774 12.774 0 0 0-12.38-3.33l-.16-.03c-12.4 4.71-44.05 23.34-53.2 37.76l.12.34c-.52.77-.86 1.66-1 2.58a14.82 14.82 0 0 0 4.86 12.57c.68.57 1.48 1 2.34 1.23 16.38 4.98 52.74-1.84 65.01-6.43Z"/>
    <path fill="#FFF" fill-opacity=".2" fill-rule="evenodd" d="M1785.21 1601.11c.37-2.36.49-4.76.37-7.15l-193.69 72.5c.15 2.39.04 4.79-.34 7.16-.06.4-.13.81-.2 1.22l193.65-72.51c.04-.41.14-.78.21-1.22Zm20.8 1.89c.29-.53.55-1.08.77-1.65l191.01-71.52c25.08-9.38 30.92-17 32.53-27.58-3.29 9.21-26.19 17.7-29.17 18.84l-192.66 72.19c-.15.88-.3 1.76-.44 2.61l-16.52 6.18a25.29 25.29 0 0 1-2.29 7.18Zm-304.53 84.75 5.99 1.47s3 2.87 19.43 1.55c16.43-1.31 29.6-6.24 52.48-14.81.43-2.77.48-5.59.15-8.37a256.934 256.934 0 0 1-54.7 17.68c-7.84 1.41-15.82 1.92-23.78 1.51.15.34.27.67.53.99Z"/>
    <path fill="#455A64" fill-rule="evenodd" d="m1503.99 1679.85-8.03 3c-3.5 1.3-11.55 6.46-10.48 9.26 1.06 2.79 10.5 1.41 13.92.11l8-2.98s1.09-1.53-.31-5.21c-1.4-3.69-3.1-4.18-3.1-4.18Z"/>
    <path fill="#263238" fill-rule="evenodd" d="M1488.43 1693.61c.42-.83.49-1.8.17-2.69a3.175 3.175 0 0 0-1.88-1.88c-.91.74-1.38 1.9-1.24 3.07.34.86 1.44 1.35 2.95 1.5Zm-726.396-200.03v1.04l7.297 58.88c.929 7.27 11.151 13.85 23.712 14.99a1712.481 1712.481 0 0 0 198.72 8.28c11.767-.21 20.267-5.34 20.237-12.09v-23.31l-7.3-58.87c-.89-7.27-11.147-13.85-23.675-14.96a1710.235 1710.235 0 0 0-198.719-8.31c-11.771.21-20.272 5.37-20.306 12.12.034.35.069 20.29.034 22.23Zm30.149 32.35c-1.59.71-3.324 1.02-5.059.9-2.027-.06-4.009-.6-5.782-1.59a4.773 4.773 0 0 1-2.684-3.47l-2.513-20.29c1.58-.7 3.304-1 5.025-.9 2.024.07 4.006.61 5.782 1.59a4.832 4.832 0 0 1 2.684 3.47Z"/>
    <path fill="#37474F" fill-rule="evenodd" d="m762.059 1472.28 7.294 58.41c.929 7.18 11.149 13.74 23.708 14.84a1725.09 1725.09 0 0 0 198.678 8.24c12.351-.2 21.091-5.84 20.201-13.05l-7.3-58.41c-.89-7.21-11.146-13.74-23.671-14.84a1722.843 1722.843 0 0 0-198.678-8.24c-12.353.2-21.093 5.84-20.232 13.05Zm11.664 10.31c-.275-2.54 2.994-4.43 7.398-4.26 2.023.07 4.005.61 5.781 1.58a4.948 4.948 0 0 1 2.684 3.44l4.886 38.89c.309 2.5-2.994 4.39-7.398 4.19a12.72 12.72 0 0 1-5.781-1.58 4.761 4.761 0 0 1-2.684-3.44Z"/>
    <path fill="#263238" fill-rule="evenodd" d="M934 1470.77c0-1.1 1.533-1.89 3.485-1.75 14.382 1.02 28.739 2.25 43.072 3.67 1.08 0 1.986.61 2.056 1.2l7.387 58.49v8.47c0 .55-.732.96-1.777 1-14.103.2-28.296.2-42.584 0-2.021 0-3.868-1.03-4.042-2.2L934 1479.14v-8.37Z"/>
    <path fill="#455A64" fill-rule="evenodd" d="M941.632 1530.78 934 1469.91c0-1.17 1.464-2.03 3.485-1.9 14.382 1.04 28.739 2.27 43.072 3.7 1.08 0 1.986.62 2.056 1.2l7.387 58.83c0 .59-.697 1.04-1.777 1.07-14.103.25-28.296.25-42.584 0-1.986.14-3.833-.79-4.007-2.03Z"/>
    <path fill="#263238" fill-rule="evenodd" d="M798.007 1465.91c0-1.06 1.18-1.88 3.019-1.91 15.335 0 30.704.1 46.109.31 2.012 0 3.816 1.02 3.955 2.15l7.91 61.27v8.48c0 1.09-1.492 1.91-3.469 1.78-15.509-.96-30.982-2.12-46.526-3.42-1.873-.17-3.469-1.13-3.469-2.16l-7.32-58.12c-.278-.48-.209-8.38-.209-8.38Z"/>
    <path fill="#455A64" fill-rule="evenodd" d="m851.062 1466.48 7.938 61.61c0 1.17-1.427 2.03-3.481 1.9-15.564-.93-31.092-2.14-46.691-3.44-1.88-.17-3.482-1.1-3.482-2.17L798 1465.93c0-1.07 1.183-1.9 3.029-1.93 15.389 0 30.814.1 46.273.31 1.81.03 3.621 1.03 3.76 2.17Z"/>
    <path fill="#263238" fill-rule="evenodd" d="M859.034 1466.74c0-1.02 1.379-1.8 3.206-1.74 19.829.59 39.647 1.51 59.455 2.73 1.896 0 3.447 1.09 3.654 2.19l7.651 61.02v8.32c0 1.02-1.378 1.77-3.171 1.74-19.68-.34-39.499-1.06-59.352-2.12-1.93 0-3.446-1.05-3.722-2.14L859 1475.03v-8.32Z"/>
    <path fill="#455A64" fill-rule="evenodd" d="m925.345 1469.93 7.655 61.16c0 1.09-1.241 1.94-3.138 1.91-19.689-.38-39.517-1.09-59.379-2.15-1.931 0-3.449-1.06-3.724-2.16L859 1466.88c0-1.09 1.276-1.94 3.207-1.88 19.838.6 39.665 1.51 59.483 2.74 2.034.14 3.517 1.09 3.655 2.19Z"/>
    <path fill="#FAFAFA" fill-rule="evenodd" d="M830.528 1496.32c0 .96 1.548 1.81 3.164 1.89.732.07 1.468-.11 2.097-.5l5.708.32-.275-2.28-5.57-.24a4.57 4.57 0 0 0-2.235-.68c-1.754-.18-2.992.53-2.889 1.49Zm1.135 0c0-.6.688-1.06 1.685-1.03.529.04 1.042.22 1.478.54l.207.17 5.02.22v.92l-5.02-.21c-.406.3-.908.44-1.41.39-1.032.17-1.891-.36-1.96-.93Zm-6.499 2.03 1.204 3.09c.364.52.959.81 1.581.78l17.64.78c.825 0 1.444-.36 1.41-.85l-1.272-10.44c0-.5-.757-.93-1.582-.96l-17.674-.75c-.722 0-1.307.25-1.375.68l-.482 3.01a8.48 8.48 0 0 0 .55 4.73Zm.516-2.31a7.658 7.658 0 0 1 0-2.17l.481-3.02a.345.345 0 0 1 .344-.17l17.674.74c.176-.02.341.09.413.25l1.238 10.44s0 .22-.344.22l-17.743-.75a.455.455 0 0 1-.412-.21l-1.238-3.09a8.907 8.907 0 0 1-.413-2.17Zm-10.659-.43c.309 2.52 4.023 4.73 8.252 4.9h2.27v-.67h-2.27c-3.61 0-6.877-2.03-6.877-4.19 0-2.17 2.476-3.8 6.086-3.55h2.27v-.64h-2.27c-4.573-.22-7.771 1.67-7.461 4.22Zm148.367 6.23c0 .88 1.528 1.67 3.161 1.73.74.07 1.484-.09 2.12-.46l5.663.2-.278-2.1-5.663-.23a4.928 4.928 0 0 0-2.259-.62c-1.633-.06-2.849.59-2.744 1.48Zm1.146 0c0-.56.66-.99 1.702-.95.535.03 1.053.2 1.494.49v.16l5.108.2v.85l-5.073-.2h-.174c-.396.29-.896.42-1.389.36-.764.17-1.598-.32-1.668-.85Zm-6.566 1.87 1.216 2.85c.354.5.965.77 1.598.72l17.823.72c.834 0 1.46-.33 1.39-.79l-1.251-9.64c0-.46-.799-.85-1.633-.88l-17.823-.69c-.765 0-1.32.23-1.425.62l-.486 2.79a7.443 7.443 0 0 0 .591 4.36Zm.521-2.14a5.51 5.51 0 0 1 0-2l.486-2.78s.174-.17.347-.17l17.859.69c.208 0 .382 0 .382.23l1.285 9.64s0 .2-.347.2l-17.858-.69c-.174 0-.348 0-.383-.2l-1.25-2.85a7.603 7.603 0 0 1-.521-2Zm-12.821 4.17a12.88 12.88 0 0 0 11.014.42l1.494-.82-.869-.45-1.494.82a10.972 10.972 0 0 1-9.38-.4c-2.78-1.51-3.092-3.8-.695-5.11l1.529-.82-.869-.46-1.494.82c-2.814 1.7-2.467 4.29.764 6.06Zm-61.657-20.47.244 2.67a.439.439 0 0 0 0 .21l4.739 3.07-3.101 1.71a1.715 1.715 0 0 0-1.08 1.78l1.254 6.84c.157.61.543 1.13 1.08 1.47l4.251 3.04c.251.17.467.39.627.65l2.614 4.31a5.692 5.692 0 0 0 4.425 1.98h1.638c1.637 0 2.892-.65 2.788-1.57v-.79c2.265-.2 3.728-1.26 3.484-2.6-.244-1.33-1.916-2.53-4.251-2.9l-1.429-11.18c2.265-.24 3.729-1.27 3.485-2.6-.244-1.33-1.917-2.53-4.251-2.94v-.31a2.715 2.715 0 0 0-1.673-1.88 7.503 7.503 0 0 0-3.485-.79c-1.776 0-3.205.69-3.484 1.65l-1.011 2.76c-.146.35-.421.63-.766.79l-.383.21-4.565-2.94-.244-2.57c0-.17-.279-.34-.592-.34-.314 0-.349.1-.314.27Zm2.927 8.17 4.216-2.29c.46-.24.826-.63 1.046-1.09l.975-2.74a2.741 2.741 0 0 1 2.648-1.23 5.33 5.33 0 0 1 2.509.59 1.9 1.9 0 0 1 1.22 1.36v.62s.279.31.557.34c1.987.24 3.485 1.2 3.694 2.29.209 1.09-1.185 1.98-3.171 2.05-.279 0-.453 0-.418.28l1.464 11.72c0 .17.243.31.522.34 2.021.24 3.485 1.2 3.729 2.33.244 1.13-1.185 1.95-3.171 2.02-.279 0-.453 0-.453.3v1.06c0 .58-.697.99-1.708.96h-1.672a4.062 4.062 0 0 1-3.241-1.47l-2.613-4.31a2.767 2.767 0 0 0-.836-.85l-4.287-3.05a1.874 1.874 0 0 1-.801-1.09l-1.22-6.84a1.28 1.28 0 0 1 1.011-1.3Z"/>
    <path fill="#37474F" fill-rule="evenodd" d="M644.138 1611.6c0 5.56 4.182 11.5 12.304 15.92l44.654 24.18c22.949 12.53 56.508 13.81 76.208 2.83l4.77-2.76c8.675-5.18 12.926-12.06 12.926-19.21v-22.24c0-8.53-5.979-17.51-17.764-24.73l-42.304-25.56c-13.065-7.97-33.179-9.32-45.829-3.24a277.438 277.438 0 0 0-38.951 22.55A12.764 12.764 0 0 0 644 1589.5c.104 4 .207 18.44.138 22.1Zm28.963-12.47a11.184 11.184 0 0 0-1.763 4.46l-2.834-1.56Z"/>
    <path fill="#455A64" fill-rule="evenodd" d="M689.878 1556.75a276.862 276.862 0 0 0-38.71 22.32c-10.304 7.12-7.316 18.5 6.114 25.82l44.377 23.93c22.807 12.37 56.158 13.67 75.736 2.77 1.615-.89 3.194-1.81 4.74-2.74 18.891-11.21 16.727-30.39-4.843-43.52l-42.007-25.37c-12.846-7.89-32.836-9.23-45.407-3.21Zm42.556 11.76a41.511 41.511 0 0 0-15.697 3.69 274.016 274.016 0 0 0-38.675 22.33 13.02 13.02 0 0 0-5.976 8.61l-6.389-3.42c-8.003-4.37-9.652-11-3.675-15.18a242.194 242.194 0 0 1 18.376-11.65c6.388-3.66 12.399-6.84 18.856-9.88a31.312 31.312 0 0 1 27.032 1.84Z"/>
    <path fill="#37474F" fill-rule="evenodd" d="M763.741 1603.01a2.653 2.653 0 0 0-1.587 3.38c.265.75.848 1.34 1.587 1.6a9.464 9.464 0 0 0 8.518 0 2.65 2.65 0 0 0 1.588-3.38 2.613 2.613 0 0 0-1.588-1.6 9.464 9.464 0 0 0-8.518 0Zm-14.985 8.02c-1.352.46-2.075 1.94-1.62 3.3a2.6 2.6 0 0 0 1.62 1.64 9.278 9.278 0 0 0 8.488 0c1.352-.46 2.075-1.94 1.62-3.3a2.598 2.598 0 0 0-1.62-1.64 9.278 9.278 0 0 0-8.488 0Zm-13.995 9a2.609 2.609 0 0 0-1.625 3.3c.259.77.858 1.38 1.625 1.64a9.258 9.258 0 0 0 8.478 0 2.61 2.61 0 0 0 1.625-3.3 2.603 2.603 0 0 0-1.625-1.64 9.258 9.258 0 0 0-8.478 0Zm9.999-28a2.609 2.609 0 0 0-1.624 3.3c.259.77.858 1.38 1.624 1.64a9.26 9.26 0 0 0 8.479 0 2.608 2.608 0 0 0 1.624-3.3 2.602 2.602 0 0 0-1.624-1.64 9.26 9.26 0 0 0-8.479 0Zm-14.019 8.98a2.653 2.653 0 0 0-1.587 3.38c.265.75.848 1.34 1.587 1.6a9.464 9.464 0 0 0 8.518 0 2.65 2.65 0 0 0 1.588-3.38 2.613 2.613 0 0 0-1.588-1.6 9.464 9.464 0 0 0-8.518 0Zm-14.985 8.02c-1.352.46-2.075 1.94-1.62 3.3a2.6 2.6 0 0 0 1.62 1.64 9.28 9.28 0 0 0 8.489 0c1.351-.46 2.074-1.94 1.619-3.3a2.599 2.599 0 0 0-1.619-1.64 9.28 9.28 0 0 0-8.489 0Zm10-28c-1.352.46-2.075 1.94-1.62 3.3a2.6 2.6 0 0 0 1.62 1.64 9.278 9.278 0 0 0 8.488 0c1.352-.46 2.075-1.94 1.62-3.3a2.598 2.598 0 0 0-1.62-1.64 9.278 9.278 0 0 0-8.488 0Zm-14.001 9c-1.351.46-2.074 1.94-1.619 3.3.258.77.856 1.38 1.619 1.64a9.28 9.28 0 0 0 8.489 0c1.352-.46 2.075-1.94 1.62-3.3a2.6 2.6 0 0 0-1.62-1.64 9.28 9.28 0 0 0-8.489 0Zm-15.014 7.98a2.653 2.653 0 0 0-1.587 3.38c.265.75.848 1.34 1.587 1.6a9.464 9.464 0 0 0 8.518 0 2.65 2.65 0 0 0 1.588-3.38 2.613 2.613 0 0 0-1.588-1.6 9.464 9.464 0 0 0-8.518 0Z"/>
    <path fill="#E6E6E6" fill-rule="evenodd" d="m765 1646.47 21.336-12.47 50.137 29.26 2.294 6.89 14.349 4.71 6.165 7.72 7.397 2.6 2.158 3.91 3.972.17 2.26 2.57 10.309 3.39 4.623 11.77V1717l-20.103-2.7-5.856-6.03-4.383-1.35-.309-2.28-6.678-1.25-4.417-4.33-13.288-3.6-8.048-8.38-11.781-1.35L765 1656.47v-10Z"/>
    <path fill="#F5F5F5" fill-rule="evenodd" d="M786.336 1634 765 1646.47l50.137 29.26 11.781 1.35 8.048 8.38 13.288 3.6 4.417 4.33 6.678 1.21.309 2.32 4.383 1.35 5.856 6.03L890 1707l-4.623-11.77-10.309-3.4-2.26-2.56-3.972-.17-2.158-3.92-7.397-2.59-6.165-7.73-14.349-4.71-2.294-6.89-50.137-29.26Z"/>
    <path fill-opacity=".102" fill-rule="evenodd" d="M870 1704.01v9.99l-6-6.01V1698l6 6.01Zm-10-6.75v9.74l-1-2.22V1695l1 2.26Zm-7-4.03-5-4.23v9.77l5 4.23v-9.77ZM827 1677v9.8l8 8.2v-9.8l-8-8.2Zm-12-.94v9.94l-50-29.06V1647l49.761 29.27M794.133 1650l-3.133 1.78 83.867 48.22 3.133-1.82-83.867-48.18Z"/>
    <path fill-opacity=".102" fill-rule="evenodd" d="m877 1698.98-1.805 1.02L792 1653.02l1.805-1.02L877 1698.98Z"/>
    <path fill-opacity=".2" fill-rule="evenodd" d="M794 1651.8v-1.8l-3 2.08 1.286.92 1.714-1.2Z"/>
    <path fill="#E0E0E0" fill-rule="evenodd" d="M705.013 1552.15a6.76 6.76 0 0 0 0 .83c.031 2.66.261 5.31.686 7.94a40.137 40.137 0 0 0 4.633 14.08l5.594-2.78a34.898 34.898 0 0 1-3.912-11.51 59.643 59.643 0 0 1-.687-7.7 8.304 8.304 0 0 1 0-.92c-.206-26.15 15.649-56.45 35.312-67.54a25.58 25.58 0 0 1 15.203-3.78h1.063c1.836.34 3.6.99 5.217 1.92a18.739 18.739 0 0 1 6.142 5.88 33.172 33.172 0 0 1 4.599 12.12c.531 3.05.806 6.14.823 9.24.014 4.21-.339 8.4-1.064 12.54.368.77.937 1.42 1.648 1.89.229.23.497.41.789.55.391.25.803.46 1.235.62l1.167.41h.892a81.263 81.263 0 0 0 1.648-16.32 71.041 71.041 0 0 0-.584-8.31 45.489 45.489 0 0 0-3.432-11.78 29.252 29.252 0 0 0-7.035-9.86 22.46 22.46 0 0 0-12.937-5.64h-.24a32.575 32.575 0 0 0-18.291 4.64c-21.414 12.47-38.709 45.28-38.469 73.48Zm48.043 19 5.525 3.44a82.358 82.358 0 0 0 12.8-16.08 10.78 10.78 0 0 1-2.367-5.26l-.309-2.54a76.582 76.582 0 0 1-15.511 20.44Z"/>
    <path fill-rule="evenodd" d="M705.013 1552.15a6.76 6.76 0 0 0 0 .83c.031 2.66.261 5.31.686 7.94a40.137 40.137 0 0 0 4.633 14.08l5.594-2.78a34.898 34.898 0 0 1-3.912-11.51 59.643 59.643 0 0 1-.687-7.7 8.304 8.304 0 0 1 0-.92c-.206-26.15 15.649-56.45 35.312-67.54a25.58 25.58 0 0 1 15.203-3.78h1.063c1.836.34 3.6.99 5.217 1.92a18.739 18.739 0 0 1 6.142 5.88 33.172 33.172 0 0 1 4.599 12.12c.531 3.05.806 6.14.823 9.24.014 4.21-.339 8.4-1.064 12.54.368.77.937 1.42 1.648 1.89.229.23.497.41.789.55.391.25.803.46 1.235.62l1.167.41h.892a81.263 81.263 0 0 0 1.648-16.32 71.041 71.041 0 0 0-.584-8.31 45.489 45.489 0 0 0-3.432-11.78 29.252 29.252 0 0 0-7.035-9.86 22.46 22.46 0 0 0-12.937-5.64h-.24a32.575 32.575 0 0 0-18.291 4.64c-21.414 12.47-38.709 45.28-38.469 73.48Zm48.043 19 5.525 3.44a82.358 82.358 0 0 0 12.8-16.08 10.78 10.78 0 0 1-2.367-5.26l-.309-2.54a76.582 76.582 0 0 1-15.511 20.44Z"/>
    <path fill="#0BF" fill-rule="evenodd" d="m1637.73 930.213-3.99-12.684c-2.18-10.368 39.11 13.825 41.26 24.193l-13.38 36.255a5.786 5.786 0 0 1-2.22 2.627c-2.93 1.832-13.65 7.983-14.6 8.536a5.725 5.725 0 0 1-7.93-1.931 5.764 5.764 0 0 1-.57-1.248l-17.23-59.826c-.96-5.046 8.43-1.728 18.66 4.078Z"/>
    <path fill="#FFF" fill-opacity=".2" fill-rule="evenodd" d="m1637.73 930.213-3.99-12.684c-2.18-10.368 39.11 13.825 41.26 24.193l-13.38 36.255a5.786 5.786 0 0 1-2.22 2.627c-2.93 1.832-13.65 7.983-14.6 8.536a5.725 5.725 0 0 1-7.93-1.931 5.764 5.764 0 0 1-.57-1.248l-17.23-59.826c-.96-5.046 8.43-1.728 18.66 4.078Z"/>
    <path fill="#0BF" fill-rule="evenodd" d="m1581.83 688.3 157.82 91.17a11.819 11.819 0 0 1 5.35 9.248v187.255a11.639 11.639 0 0 1-5.39 9.214l-9.74 5.534a11.825 11.825 0 0 1-10.7 0l-157.82-91.169a11.822 11.822 0 0 1-5.35-9.248V702.98c.2-3.763 2.21-7.196 5.39-9.214l9.74-5.534a11.94 11.94 0 0 1 10.7.068Z"/>
    <path fill="#FFF" fill-opacity=".2" fill-rule="evenodd" d="m1581.83 688.3 157.82 91.17a11.819 11.819 0 0 1 5.35 9.248v187.255a11.639 11.639 0 0 1-5.39 9.214l-9.74 5.534a11.825 11.825 0 0 1-10.7 0l-157.82-91.169a11.822 11.822 0 0 1-5.35-9.248V702.98c.2-3.763 2.21-7.196 5.39-9.214l9.74-5.534a11.94 11.94 0 0 1 10.7.068Z"/>
    <path fill="#0BF" fill-rule="evenodd" d="m1561.34 699.733 157.32 91.093a11.803 11.803 0 0 1 5.34 9.239v187.132c0 3.434-2.39 4.774-5.34 3.057l-60.23-34.864-11.04 30.914c-1.3 2.93-4.72 4.248-7.63 2.943a5.81 5.81 0 0 1-3.15-3.493l-14.7-51.523-60.57-34.898a11.798 11.798 0 0 1-5.34-9.24V702.825c0-3.401 2.39-4.809 5.34-3.092Z"/>
    <path fill="#FFF" fill-opacity=".4" fill-rule="evenodd" d="m1561.34 699.733 157.32 91.093a11.803 11.803 0 0 1 5.34 9.239v187.132c0 3.434-2.39 4.774-5.34 3.057l-60.23-34.864-11.04 30.914c-1.3 2.93-4.72 4.248-7.63 2.943a5.81 5.81 0 0 1-3.15-3.493l-14.7-51.523-60.57-34.898a11.798 11.798 0 0 1-5.34-9.24V702.825c0-3.401 2.39-4.809 5.34-3.092Z"/>
    <path fill="#FFF" fill-opacity=".702" fill-rule="evenodd" d="M1556 701.957c.41-2.681 2.6-3.643 5.24-2.097l157.64 91.153c1.57.983 2.87 2.355 3.77 3.987l20.35-11.789a10.433 10.433 0 0 0-3.67-3.781l-157.63-91.153a11.76 11.76 0 0 0-10.66 0l-9.73 5.534a11.66 11.66 0 0 0-5.31 8.146Z"/>
    <use xlink:href="#b" width="100%" height="100%" fill="none" transform="translate(735 574)"/>
    <path fill="#FF0083" fill-rule="evenodd" d="M1300.72 714.141c-18.71-.175-33.35-11.965-29.23-23.557 2.56-7.224 12.64-12.269 24.31-12.162 18.72.172 33.36 11.971 29.24 23.564-2.57 7.222-12.66 12.263-24.32 12.155Z"/>
    <path fill="#3CF" fill-rule="evenodd" d="M1167.48 700.039c-16.84.742-29.4-14.802-25.08-31.051 2.69-10.125 12.04-17.629 22.53-18.092 16.84-.741 29.4 14.803 25.08 31.05-2.69 10.126-12.04 17.63-22.53 18.093Z"/>
    <path fill="#0070C0" fill-rule="evenodd" d="M1428.34 753.872c-9.23.78-15.85-9.781-13.23-21.097 1.63-7.052 6.87-12.394 12.61-12.88 9.23-.78 15.85 9.782 13.23 21.097-1.63 7.052-6.86 12.394-12.61 12.88Z"/>
    <path fill="#FF0083" fill-rule="evenodd" d="M1359.83 772.974c2.81-3.267 12.06.09 20.67 7.498 8.6 7.408 13.3 16.061 10.49 19.328-2.82 3.266-12.07-.091-20.68-7.499-8.6-7.408-13.3-16.061-10.48-19.327Z"/>
    <path fill="#0070C0" fill-rule="evenodd" d="M1118.32 626.301c5.29 2.157 1.66 14.24-7.24 24.135-5.56 6.166-11.83 9.583-15.12 8.24-5.3-2.157-1.66-14.24 7.24-24.136 5.56-6.167 11.83-9.585 15.12-8.239Z"/>
    <path fill="#00B0F0" fill-rule="evenodd" d="M1161.38 755.502c2.81-3.267 12.06.09 20.67 7.498 8.6 7.408 13.3 16.061 10.49 19.328-2.81 3.266-12.07-.091-20.67-7.499-8.61-7.407-13.31-16.061-10.49-19.327Z"/>
    <use xlink:href="#c" width="100%" height="100%" fill="none" transform="translate(1559 688)"/>
    <path fill="#FFC000" fill-rule="evenodd" d="M1088.5 817.118c5.29 2.156 1.66 14.231-7.24 24.129-5.56 6.168-11.83 9.588-15.13 8.246-5.29-2.153-1.66-14.239 7.25-24.135 5.55-6.168 11.82-9.584 15.12-8.24ZM445.793 1186.71c-13.542-1.46-23.339-13.59-21.884-27.1 1.455-13.5 13.612-23.26 27.153-21.8 13.541 1.46 23.339 13.59 21.883 27.09-1.455 13.5-13.612 23.27-27.152 21.81Z"/>
    <path fill="#FF0083" fill-rule="evenodd" d="M526.34 1088.16c2.812-3.27 12.068.09 20.672 7.49 8.605 7.41 13.301 16.07 10.489 19.33-2.812 3.27-12.067-.09-20.672-7.5-8.605-7.4-13.301-16.06-10.489-19.32Zm-133.154 258.19c2.812-3.27 12.068.09 20.672 7.5 8.605 7.4 13.301 16.06 10.489 19.32-2.812 3.27-12.067-.09-20.672-7.49-8.605-7.41-13.301-16.07-10.489-19.33Z"/>
    <path fill="#3CF" fill-rule="evenodd" d="M491.584 1293.48c-16.84.74-29.394-14.81-25.074-31.05 2.692-10.13 12.038-17.63 22.533-18.1 16.84-.74 29.394 14.81 25.073 31.05-2.691 10.13-12.037 17.63-22.532 18.1Z"/>
    <path fill="#0070C0" fill-rule="evenodd" d="M422.456 1244.36c5.291 2.16 1.66 14.24-7.248 24.14-5.552 6.16-11.822 9.58-15.12 8.24-5.291-2.16-1.66-14.24 7.248-24.14 5.552-6.17 11.822-9.58 15.12-8.24Z"/>
    <use xlink:href="#d" width="100%" height="100%" fill="none" transform="translate(747 866)"/>
    <use xlink:href="#e" width="100%" height="100%" fill="none" transform="translate(799 927)"/>
    <use xlink:href="#f" width="100%" height="100%" fill="none" transform="translate(630 1027)"/>
    <use xlink:href="#g" width="100%" height="100%" fill="none" transform="translate(635 1154)"/>
    <path fill="#E0E0E0" fill-rule="evenodd" d="m1160.93 1058-314.799 181.19c-44.391 25.6-39.134 70.18 11.82 99.6l422.099 243.8c254.81 147.69 680.1-159.04 476.42-273.39l-445.91-258.73c-50.92-29.45-105.21-18.06-149.63 7.53Z"/>
    <path fill="#0BF" fill-rule="evenodd" d="m1601.64 1076.43 2.56 10.65c5.9 11.06 18.94 25 23.62 23.85 4.68-1.14 6.76-7.14 8.08-14.63.63-3.6.99-7.24 1.08-10.89.41-11.82-4.86-39.39-21.3-46.71a8.464 8.464 0 0 0-9.74 2.19 19.456 19.456 0 0 0-4.75 7.8c-2.74 8.22.07 27.29.45 27.74Z"/>
    <path fill-opacity=".302" fill-rule="evenodd" d="M1601.64 1076.43c.86 4.41 2.56 10.65 2.56 10.65 5.9 11.06 18.94 25 23.62 23.85 4.68-1.14 6.76-7.14 8.08-14.63.63-3.6.99-7.24 1.08-10.89.41-11.82-4.86-39.39-21.3-46.71a8.464 8.464 0 0 0-9.74 2.19 19.456 19.456 0 0 0-4.75 7.8c-2.74 8.22.07 27.29.45 27.74Z"/>
    <path fill="#0BF" fill-rule="evenodd" d="M1604 1087.08c5.93 11.06 19.05 25 23.76 23.85 4.72-1.14 6.81-7.14 8.14-14.63.63-3.6.99-7.24 1.08-10.89.42-11.82-4.89-39.39-21.43-46.71a8.565 8.565 0 0 0-9.81 2.19l2.27 5.06c11.55 4.89 14.69 22.61 13.61 36.1-1.08 13.49-10.99 11.96-17.62 5.03Z"/>
    <path fill-opacity=".349" fill-rule="evenodd" d="M1604 1087.08c5.93 11.06 19.05 25 23.76 23.85 4.72-1.14 6.81-7.14 8.14-14.63.63-3.6.99-7.24 1.08-10.89.42-11.82-4.89-39.39-21.43-46.71a8.565 8.565 0 0 0-9.81 2.19l2.27 5.06c11.55 4.89 14.69 22.61 13.61 36.1-1.08 13.49-10.99 11.96-17.62 5.03Z"/>
    <path fill="#37474F" fill-rule="evenodd" d="M1602 1048.73c4.07-4.38 14.13-4.62 22.61 7.23 8.47 11.85 11.25 32.15 11.28 40.04.61-3.58.98-7.19 1.09-10.82.4-11.75-4.75-39.14-20.81-46.45-6.71-3.03-12.24 3.93-14.17 10Z"/>
    <path fill="#0BF" fill-rule="evenodd" d="M839.979 1214 954 1149.07 890.651 1113 829 1151.4l10.979 62.6Z"/>
    <path fill-opacity=".349" fill-rule="evenodd" d="M839.979 1214 954 1149.07 890.651 1113 829 1151.4l10.979 62.6Z"/>
    <path fill="#37474F" fill-rule="evenodd" d="M888.235 1198.99 872 1166.87l38.614-22.27c12.287-7.05 28.625-6.23 46.576 4.08 38.133 21.95 46.13 65.38 46.13 113.26 0 25.07 14.42 55.96.89 63.98l-.55.3-39.571 22.78-17.161-33.87c-32.436-24.66-57.457-73.33-58.693-116.14Z"/>
    <path fill="#263238" fill-rule="evenodd" d="M888.235 1198.99 872 1166.87l38.614-22.27c12.287-7.05 28.625-6.23 46.576 4.08 38.133 21.95 46.13 65.38 46.13 113.26 0 25.07 14.42 55.96.89 63.98l-.55.3-39.571 22.78-17.161-33.87c-32.436-24.66-57.457-73.33-58.693-116.14Z"/>
    <path fill="#37474F" fill-rule="evenodd" d="M848 1218.78c0 41.37 23.006 89.19 53.806 115.67a98.829 98.829 0 0 0 15.143 10.84c38.148 21.98 69.086.92 69.051-47.03 0-36.22-17.649-77.49-42.715-104.93l-.24-.24a111.226 111.226 0 0 0-26.096-21.48c-38.011-21.81-68.949-.78-68.949 47.17Z"/>
    <path fill="#455A64" fill-rule="evenodd" d="M917 1200.34c-24.303-14.06-44 .59-44 32.71 0 32.13 19.697 69.59 44 83.62 24.303 14.03 44-.58 44-32.71 0-32.12-19.697-69.55-44-83.62Z"/>
    <path fill="#FAFAFA" fill-rule="evenodd" d="M897.19 1249.4c1.547 16.09 11.681 33.23 22.607 38.16a10.622 10.622 0 0 0 11.99-.9c3.882-3.3 5.875-10.1 5.016-19.12-1.547-16.1-11.647-33.23-22.607-38.16a12.175 12.175 0 0 0-8.039-1.14c-6.321 1.52-10.066 9.47-8.967 21.16Z"/>
    <path fill="#E0E0E0" fill-rule="evenodd" d="M901.238 1247.39c1.542 16.13 11.65 33.3 22.545 38.24a12.371 12.371 0 0 0 8.018 1.14c3.872-3.3 5.859-10.11 5.002-19.15-1.542-16.13-11.615-33.3-22.545-38.24a12.113 12.113 0 0 0-8.017-1.14c-3.975 3.33-5.962 10.15-5.003 19.15Z"/>
    <path fill="#455A64" fill-rule="evenodd" d="M848 1218.96c0 41.5 22.962 89.47 53.703 116.04a196.494 196.494 0 0 1-43.73-84.86c-5.826-27.74-3.633-67.55 20.083-77.6 23.716-10.05 55.04 11.15 64.944 20.65a111.122 111.122 0 0 0-26.046-21.55c-38.076-21.88-68.954-.79-68.954 47.32Z"/>
    <path fill="#0BF" fill-rule="evenodd" d="m1118 1210 1 1Zm9.5 5.03ZM825 1146.95c0 26.47 0 41.54 1.926 50.88a19.683 19.683 0 0 0 13.14 16.38c0-56 36.635-80.31 81.799-54.28 41.587 24.03 80.425 85.18 85.515 137.98.47 4.42.72 8.87.72 13.32L1235.92 1442v-152.23c1.48-1.64 3.7-2.4 5.88-2.02 8.91 2.16 34.74 15.2 33.13 7.72-8.81-41.2-41.28-125.86-77.43-173.75-24.32-32.14-188.61-120.17-188.61-120.17-53.968-26.433-126.308 33.06-126.308 72.72-40.761 10.13-57.582 42.12-57.582 72.68Zm109.593-112.37c24.835-19.71 101.547 15.48 122.977 21.46 9.73 2.71 13.07 13.52 12.65 25.68v63.27c0 7.69-.55 16.62-7.94 12.36l-.86-.48-136.597-78.55c-11.66-6.76-7.017-30.42 9.77-43.74Zm156.137 139.53c-6.2-3.21-9.84-9.82-9.22-16.76v-75.53c0-2.09 0-3.91.24-5.35.27-2.99 3.71-5.46 13.24-.31 7.67 4.08 19.02 10.47 40.73 23.62 8.74 5.25 44.44 25.57 62.4 62.07 7.87 16 33.67 62.69 37.63 95.27-.45-.27-144.89-82.91-145.02-83.01Z"/>
    <path fill="#0070C0" fill-opacity=".4" fill-rule="evenodd" d="M1127.5 1215.03ZM825 1146.95c0 26.47 0 41.54 1.926 50.88a19.683 19.683 0 0 0 13.14 16.38c0-56 36.635-80.31 81.799-54.28 41.587 24.03 80.425 85.18 85.515 137.98.47 4.42.72 8.87.72 13.32L1235.92 1442v-152.23c1.48-1.64 3.7-2.4 5.88-2.02 8.91 2.16 34.74 15.2 33.13 7.72-8.81-41.2-41.28-125.86-77.43-173.75-24.32-32.14-188.61-120.17-188.61-120.17-53.968-26.433-126.308 33.06-126.308 72.72-40.761 10.13-57.582 42.12-57.582 72.68Zm109.593-112.37c24.835-19.71 101.547 15.48 122.977 21.46 9.73 2.71 13.07 13.52 12.65 25.68v63.27c0 7.69-.55 16.62-7.94 12.36l-.86-.48-136.597-78.55c-11.66-6.76-7.017-30.42 9.77-43.74Zm156.137 139.53c-6.2-3.21-9.84-9.82-9.22-16.76v-75.53c0-2.09 0-3.91.24-5.35.27-2.99 3.71-5.46 13.24-.31 7.67 4.08 19.02 10.47 40.73 23.62 8.74 5.25 44.44 25.57 62.4 62.07 7.87 16 33.67 62.69 37.63 95.27-.45-.27-144.89-82.91-145.02-83.01Z"/>
    <path fill="#FFF" fill-opacity=".502" fill-rule="evenodd" d="M1070 1181.64a28.836 28.836 0 0 0-4.36 11.36s-137.196-82.7-160.04-93.92c-24.524-12.24-54.358-3.67-68.6 19.7a54.507 54.507 0 0 1 26.308-29c22.638-10.26 35.089-3.94 77.793 18.43 42.703 22.37 128.899 73.43 128.899 73.43Zm149 82.36-119.34-68a11.697 11.697 0 0 0-4.62 10.26Z"/>
    <path fill="#37474F" fill-rule="evenodd" d="M1119.6 1239.87c.44.26 1 .12 1.27-.3.09-.15.14-.32.13-.5v-4.27c0-3.34-4.93-8.61-11.03-12.08l-8.98-5.07c-6.06-3.33-10.99-3.6-10.99-.36v3.33c0 1.46.79 2.81 2.08 3.54Z"/>
    <path fill="#0BF" fill-opacity=".502" fill-rule="evenodd" d="m1212.67 1401.38-118.35-58.35 118.35 73.95c6.6 4.89 12.79 7.96 15.51-25 2.72-32.97 4.68-84.46 0-105.68 0 0 .41 47.47-3.44 75.78-3.85 28.31-5.3 42.92-12.07 39.3Zm-140.16-181.49c3.03 22.32 8.02 118.22 8.02 118.22s.27-88.66.27-115.57c0-22.38 8.81-32.68 8.81-32.68l-8.77-4.86s-11.35 12.57-8.33 34.89Z"/>
    <path fill="#263238" fill-rule="evenodd" d="M1240.08 1250.23c-2.75-14.18-14.82-48.34-35.29-89.84a192.699 192.699 0 0 0-46.3-56.14c-17.2-13.21-53.32-33.71-64.91-40.61l-2.96-1.58c-14.45-7.66-98.308-56.44-128.234-50.57a68.99 68.99 0 0 0-44.374 30.31c-9.288 16.21-8.255 35.09 6.192 43.47 22.84 13.25 153.386 87.65 158.606 90.91 5.23 3.26 6.4 4.05 10.77 6.52 25.56 14.73 85.14 49.99 85.14 49.99s31.4 17.71 54 30.11c1.03.51 5.37 2.64 6.33 2.98 5.5 2.1 1.75-11.67 1.03-15.55Zm-177.94-95.58c-.31-.15-.61-.32-.89-.51h-.18c-21.29-12.26-98.581-56.68-132.807-76.43-11.489-6.59-10.319-29.25 6.226-43.01 34.157-28.7 85.241.2 122.971 21.45 8.81 4.95 13.07 13.53 12.66 25.68v60.6c-.07 7.55-.69 16.48-7.98 12.22Zm68.32 39.35a4.86 4.86 0 0 1-.97-.55l-.69-.38h-.27c-12.52-6.87-28.41-16.03-36.77-21.18-.18-.14-.38-.26-.59-.35l-.41-.27c-6.19-3.2-9.83-9.82-9.22-16.75v-72.82c0-2.1 0-3.92.24-5.36.28-2.99 3.68-5.46 13.25-.34 7.67 4.12 18.98 10.5 40.72 23.65 8.74 5.26 44.48 27.88 62.44 64.41a498.655 498.655 0 0 1 34.39 88.4c-.75-.17-59.06-34.91-102.12-58.46Z"/>
    <path fill="#FFF" fill-rule="evenodd" d="M1069.9 1142.55c0 7.68-.54 16.6-7.88 12.35-.31-.15-.61-.32-.89-.51h-.18c-21.22-12.25-98.271-56.65-132.39-76.37-11.453-6.59-10.287-29.23 6.206-42.99 34.051-28.68 84.974.21 122.584 21.44 8.78 4.94 13.03 13.52 12.62 25.66-.1 22.89-.07 40.93-.07 60.42Z"/>
    <path fill="#263238" fill-rule="evenodd" d="m1129 1194-1-1Zm-10-6 4 1-1.76-.42Zm9.95 4.75-1.47-.75h-.48l2 1Zm-4.31-1.95-.92-.43c-.22-.14-.46-.27-.72-.37l2.82 1.4 1.18.6-.92-.46h-.26Z"/>
    <path fill="#FFF" fill-rule="evenodd" d="M1081.34 1154.24c-.61 6.92 3.03 13.52 9.22 16.72l.45.27c.19.11.37.22.55.34 8.32 5.11 24.24 14.32 36.72 21.1l.31.18.69.41.96.51c43.09 23.39 101.35 58.23 101.76 58.23a497 497 0 0 0-34.39-88.2c-17.95-36.41-53.68-59.02-62.41-64.26-21.7-13.12-33.05-19.49-40.72-23.57-9.53-5.13-12.96-2.67-13.24.31 0 1.44-.24 3.26-.24 5.35Z"/>
    <path fill="#0BF" fill-rule="evenodd" d="M903.275 1031.67c30.686-40.221 74.704-87.914 197.275-149.184 122.57-61.27 144.6-67.236 210.4-35.932 35.43 15.669 170.51 85.167 193.05 109.305 0 0-5.5 1.44-8.97 2.126-42.64 11.554-260.02 142.115-295.96 166.015-.62-.95-1.3-1.87-2.03-2.74-24.29-32.09-188.41-120.01-188.41-120.01-31.235-15.527-74.807-2.121-105.63 30.59Z"/>
    <path fill="#0070C0" fill-opacity=".702" fill-rule="evenodd" d="M903.275 1031.67c30.686-40.221 74.704-87.914 197.275-149.184 122.57-61.27 144.6-67.236 210.4-35.932 35.43 15.669 170.51 85.167 193.05 109.305 0 0-5.5 1.44-8.97 2.126-42.64 11.554-260.02 142.115-295.96 166.015-.62-.95-1.3-1.87-2.03-2.74-24.29-32.09-188.41-120.01-188.41-120.01-31.235-15.527-74.807-2.121-105.63 30.59Z"/>
    <path fill="#0BF" fill-rule="evenodd" d="m1236 1442 113-64.93-62.77-36.07-50.23 28.96V1442Z"/>
    <path fill-opacity=".349" fill-rule="evenodd" d="m1236 1442 113-64.93-62.77-36.07-50.23 28.96V1442Z"/>
    <path fill="#37474F" fill-rule="evenodd" d="m1282.31 1426.21-16.31-32.27 38.8-22.4c12.35-6.89 28.77-6.27 46.81 4.13 38.31 22.05 69.39 78.9 69.39 127 0 25.19-8.52 42.98-22.14 51.03l-.55.31-39.77 22.99-17.25-34.07c-32.59-24.84-57.73-73.81-58.98-116.72Z"/>
    <path fill="#263238" fill-rule="evenodd" d="m1282.31 1426.21-16.31-32.27 38.8-22.4c12.35-6.89 28.77-6.27 46.81 4.13 38.31 22.05 69.39 78.9 69.39 127 0 25.19-8.52 42.98-22.14 51.03l-.55.31-39.77 22.99-17.25-34.07c-32.59-24.84-57.73-73.81-58.98-116.72Z"/>
    <path fill="#37474F" fill-rule="evenodd" d="M1242 1446.07c0 41.55 23.01 89.64 53.81 116.26 4.7 4.1 9.76 7.75 15.14 10.9 38.15 22.13 69.08.93 69.05-47.27 0-36.41-17.65-77.86-42.71-105.47l-.21-.21a111.958 111.958 0 0 0-26.13-21.58c-38.01-22-68.95-.83-68.95 47.37Z"/>
    <path fill="#455A64" fill-rule="evenodd" d="M1311 1428.28c-24.3-13.91-44 .62-44 32.48 0 31.87 19.7 69 44 82.94 24.3 13.95 44-.61 44-32.48 0-31.86-19.7-68.99-44-82.94Z"/>
    <path fill="#FAFAFA" fill-rule="evenodd" d="M1291.23 1477.12c1.67 15.83 11.89 32.57 22.79 37.52 3.8 2.13 8.51 1.73 11.9-.99 3.83-3.41 5.78-9.96 4.85-18.83-1.64-15.82-11.82-32.56-22.76-37.51a12.295 12.295 0 0 0-8-1.06c-6.32 1.57-9.98 9.38-8.78 20.87Z"/>
    <path fill="#E0E0E0" fill-rule="evenodd" d="M1295.23 1475.11c1.63 15.86 11.83 32.63 22.72 37.59a12.36 12.36 0 0 0 7.98 1.05c3.82-3.41 5.76-9.97 4.84-18.85-1.63-15.86-11.8-32.63-22.72-37.59a12.228 12.228 0 0 0-7.98-1.06c-3.65 3.32-5.8 10.01-4.84 18.86Z"/>
    <path fill="#455A64" fill-rule="evenodd" d="M1242 1445.93c0 41.48 23.16 89.5 54.17 116.07a196.245 196.245 0 0 1-44.11-84.92c-5.88-27.74-3.66-67.53 20.26-77.61 23.92-10.09 55.55 11.15 65.68 20.82a112.587 112.587 0 0 0-26.31-21.55c-38.54-22.06-69.69-.93-69.69 47.19Z"/>
    <path fill="#0BF" fill-rule="evenodd" d="M1241.01 1273.07s21.14 1.51 29.25 4.19c7.18 2.37 83.72 0 159.37-33.17 45.26-19.74 79.73-36.12 118.3-69.15 50.21-43.09 56.09-81.27 61.17-92.94 20.62 14.73 49.63 44.43 65.75 56.86 37.05 30.73 82.14 76.18 100.01 126.48 1.21 3.44 2.31 6.87 3.24 10.3 26.43 96.14 3.78 131.4-18.84 160.79-9.62 12.46-36.4 36.77-69.73 56.62a836.575 836.575 0 0 1-84.76 43.33 302.659 302.659 0 0 1-52.99 17.75c-91.7 20.22-153.19-18.27-153.19-18.27.48-5.07.43-10.18-.17-15.24-.77-6.82-1.99-13.57-3.64-20.23a202.774 202.774 0 0 0-19.35-49.27c-13.06-23.75-30.56-44.63-50.01-58.05-2.54-1.79-5.15-3.44-7.73-4.95-42.1-24.24-76.78-4.7-81.25 43.43-.31 3.44-.24 7.08-.24 10.89l-2.2-44.29 1.99-118.08s6.57-1.3 5.02-7Z"/>
    <path fill="#0070C0" fill-opacity=".502" fill-rule="evenodd" d="M1241.01 1273.07s21.14 1.51 29.25 4.19c7.18 2.37 83.72 0 159.37-33.17 45.26-19.74 79.73-36.12 118.3-69.15 50.21-43.09 56.09-81.27 61.17-92.94 20.62 14.73 49.63 44.43 65.75 56.86 37.05 30.73 82.14 76.18 100.01 126.48 1.21 3.44 2.31 6.87 3.24 10.3 26.43 96.14 3.78 131.4-18.84 160.79-9.62 12.46-36.4 36.77-69.73 56.62a836.575 836.575 0 0 1-84.76 43.33 302.659 302.659 0 0 1-52.99 17.75c-91.7 20.22-153.19-18.27-153.19-18.27.48-5.07.43-10.18-.17-15.24-.77-6.82-1.99-13.57-3.64-20.23a202.774 202.774 0 0 0-19.35-49.27c-13.06-23.75-30.56-44.63-50.01-58.05-2.54-1.79-5.15-3.44-7.73-4.95-42.1-24.24-76.78-4.7-81.25 43.43-.31 3.44-.24 7.08-.24 10.89l-2.2-44.29 1.99-118.08s6.57-1.3 5.02-7Z"/>
    <path fill="#F5F5F5" fill-rule="evenodd" d="M1639.54 1385.01c4.9 6.5 13.09 7.92 18.33 3.23 5.26-5.59 5.53-14.33.62-20.24-4.91-6.49-13.13-7.95-18.34-3.23-5.29 5.58-5.55 14.34-.61 20.24Z"/>
    <path fill="#37474F" fill-rule="evenodd" d="M1608.92 1126.05c-55.96 84.7-167.09 144.62-293.16 168.59-7.67 1.44-10.73 8.22-4.2 12.46 11.59 7.57 31.18 11.61 56.03 6.85 113.43-33.04 191.93-75.91 245.55-137.23a72.845 72.845 0 0 0 13.99-23.97 41.951 41.951 0 0 0-1.34-28.48c-3.4-6.95-12.58-4.73-16.87 1.78Z"/>
    <path fill="#455A64" fill-rule="evenodd" d="M1604.33 1536.53A297.357 297.357 0 0 1 1571 1549c13.76-5.44 2.13-32.58 12.42-42.67 10.28-10.1 45.23-26.63 86.96-50.7 41.72-24.08 69.82-50.22 76.19-42.13 11.42 14.5 20.4 11.82 20.43 11.78-2.61 3.82-5.33 7.44-8.05 10.99-9.63 12.5-36.43 36.89-69.79 56.79a833.642 833.642 0 0 1-84.83 43.47Z"/>
    <path fill="#0070C0" fill-rule="evenodd" d="M1619.72 1098a359.77 359.77 0 0 1 60.3 78.75 283.866 283.866 0 0 1 32.14 93.25c2.82 16.22 4.15 32.68 3.95 49.15-.12 16.34-3.33 32.52-9.45 47.67-.7 1.91-1.54 3.76-2.51 5.54-.96 1.78-1.86 3.61-2.85 5.36a98.577 98.577 0 0 1-6.88 9.93 90.762 90.762 0 0 1-8.04 9.04 104.29 104.29 0 0 1-9.28 7.77c-6.63 4.77-13.64 8.99-20.97 12.58-7.31 3.75-14.83 7.08-22.52 9.97-3.78 1.55-7.7 2.65-11.58 3.92-1.96.55-3.96.99-5.92 1.51l-2.99.72-2.99.52c-7.98 1.55-16.11 2.16-24.23 1.82-16.36-.84-32.47-4.32-47.72-10.31-7.66-2.86-15.26-6.16-22.93-9.46l-23.03-9.69c-15.33-6.43-30.94-12.51-46.65-18.01-15.71-5.5-31.59-10.59-47.5-15.5-15.92-4.92-31.87-9.45-47.17-15.81a194.655 194.655 0 0 1-43.35-23.82 114.759 114.759 0 0 1-32.55-37.09 111.835 111.835 0 0 0 31.63 38.26 194.208 194.208 0 0 0 43.21 25.19 490.684 490.684 0 0 0 47.16 16.57c15.78 5.15 31.56 10.31 47.1 16.19 15.53 5.88 30.93 11.96 46.23 18.42l22.93 9.8c7.6 3.43 15.26 6.67 23.14 9.66 15.73 6.3 32.37 10.02 49.29 10.99 8.52.37 17.05-.23 25.44-1.78l3.13-.52 3.13-.75c2.02-.52 4.12-.97 6.15-1.55 4.06-1.27 8.15-2.41 12.06-3.99 7.86-3.01 15.55-6.46 23.04-10.31 7.58-3.79 14.83-8.21 21.69-13.2 3.4-2.57 6.66-5.32 9.76-8.25 3.03-3.03 5.87-6.24 8.49-9.62 2.64-3.37 5.05-6.9 7.22-10.59 1.03-1.85 1.96-3.78 2.96-5.64 1-1.89 1.88-3.84 2.64-5.84 6.29-15.77 9.54-32.59 9.6-49.56.1-16.79-1.48-33.54-4.71-50.01a287.426 287.426 0 0 0-34-93.84 349.052 349.052 0 0 0-62.57-77.44Z"/>
    <path fill="#FFF" fill-opacity=".502" fill-rule="evenodd" d="M1498 1218.17s84.66-47.4 116.09-122.17a317.856 317.856 0 0 1 58.8 79.45A384.425 384.425 0 0 1 1706 1273s-18.74-72.73-50.68-117.52c-29.99-41.96-37.28-52.29-54.51-24.78-13.27 21.1-55.84 72.15-102.81 87.47ZM1366 1357c20.99 5.12 60.66 14.89 93.57 28.01 32.91 13.11 74.54 38.7 117.55 43.41 43.01 4.71 85.88-20.8 85.88-20.8s-44.07 20.18-84.85 14.65c-40.77-5.53-80-30.26-120.57-44.4-40.57-14.14-91.58-20.87-91.58-20.87Z"/>
    <path fill="#37474F" fill-rule="evenodd" d="M1423.95 1495.07c4.03-.55 14.04 2.13 30.96 6.86 16.92 4.72 21.12 5.31 27.52 9.63 5.33 3.66 19.57 15.21 26.45 18.74 10.9 5.62 0 9.67-30.51 9.7-30.51.03-40.8-9.08-47.81-18.4-7.02-9.33-15.79-25.26-6.61-26.53Zm357.28-165.39c.94 5.54 1.53 11.12 1.76 16.73.18 11.06-2 22.04-6.41 32.22-1.37 3.14-3.76 6.66-7.21 6.35-1.38 0 1.51-46.54 2.14-51.02.64-4.49 1.24-8.32 1.83-12.49.22-1.52.81-3.45 2.36-3.45 2.64-.38 4.4 5.28 5.53 11.66Zm-47.89-40.38c-3.01-12.92-2.8-34.27-3.38-47.46-.19-12.43-1.62-24.81-4.26-36.95-1.59-8.23-2.74-14.98-.27-17.89 20.63 23.41 38.98 50.07 48.86 78.31 1.18 3.43 2.26 6.86 3.17 10.29.92 3.42 1.76 6.54 2.54 9.69-1.89 9.88-10.55 23.41-21.94 24.58-13.26 1.34-21.84-7.64-24.72-20.57Z"/>
    <path fill="#0BF" fill-rule="evenodd" d="M1738.22 1192.52c-2.33-1.86-5.33-2.75-8.34-2.47-2.98.38-1.69 4.76-1.04 6.56l3.59 9.8c.83 2.39 1.33 5.45 4.64 5.59 4.02 0 6.18-4.48 6.86-7.64.5-4.67-1.7-9.22-5.71-11.84Z"/>
    <path fill="#FFF" fill-opacity=".8" fill-rule="evenodd" d="M1738.22 1192.52c-2.33-1.86-5.33-2.75-8.34-2.47-2.98.38-1.69 4.76-1.04 6.56l3.59 9.8c.83 2.39 1.33 5.45 4.64 5.59 4.02 0 6.18-4.48 6.86-7.64.5-4.67-1.7-9.22-5.71-11.84Z"/>
    <path fill="#0BF" fill-rule="evenodd" d="M1764.5 1300.71c-5.47 3.76-12.89 2.8-17.23-2.22a30.323 30.323 0 0 1-7.29-12.7c-6.8-20.23-3.57-42.31 0-63.37.17-2.48 1.07-4.86 2.59-6.82 5.14-5.4 14.16 4.33 17.43 7.74a64 64 0 0 1 12.56 19.22c4.12 9.72 7.97 23.88 5.83 34.53-1.77 8.4-6.44 18.87-13.89 23.62Z"/>
    <path fill="#FFF" fill-opacity=".8" fill-rule="evenodd" d="M1764.5 1300.71c-5.47 3.76-12.89 2.8-17.23-2.22a30.323 30.323 0 0 1-7.29-12.7c-6.8-20.23-3.57-42.31 0-63.37.17-2.48 1.07-4.86 2.59-6.82 5.14-5.4 14.16 4.33 17.43 7.74a64 64 0 0 1 12.56 19.22c4.12 9.72 7.97 23.88 5.83 34.53-1.77 8.4-6.44 18.87-13.89 23.62Z"/>
    <path fill="#FFF" fill-opacity=".451" fill-rule="evenodd" d="M1758.42 1231.38c8.11 9.79 8.79 23.79 1.67 34.33a9.027 9.027 0 0 1-5.81 4.29c-2.63.08-5.09-1.3-6.39-3.61a17.647 17.647 0 0 1-2.11-7.38c-.82-7.91-.99-15.87-.52-23.82.38-9.85 7.45-10.43 13.16-3.81Z"/>
    <path fill="#37474F" fill-rule="evenodd" d="M1490.67 1420.94c-14.06-11.93-35.97-22.1-72.39-25.68-32.44-3.16-61.29-18.01-62.25-1.86-.97 16.16 24.86 64.74 72.01 81.06 40.69 14.06 66.59 3.06 75.22-10.62 8.63-13.68 1.44-30.94-12.59-42.9Z"/>
    <path fill="#0BF" fill-rule="evenodd" d="M1379.36 1414.55c-5.25 1.62-10.84-1.25-12.61-6.49-1.8-3.9-3.39-9.67 1.56-11.76 6.78-2.87 15.94-.54 22.28 2.57 12.65 6.15-5.33 14.1-11.23 15.68Z"/>
    <path fill="#FFF" fill-opacity=".8" fill-rule="evenodd" d="M1379.36 1414.55c-5.25 1.62-10.84-1.25-12.61-6.49-1.8-3.9-3.39-9.67 1.56-11.76 6.78-2.87 15.94-.54 22.28 2.57 12.65 6.15-5.33 14.1-11.23 15.68Z"/>
    <path fill="#0BF" fill-rule="evenodd" d="M1395.07 1436.56c-4.11-7.34-6.35-15.77-.59-21.66 5.76-5.9 17.25-7.78 24.98-8.53 24.5-2.17 48.87 5.34 67.83 20.9a43.25 43.25 0 0 1 10.94 12.51c2.81 4.9 3.52 10.72 1.96 16.14-8.07 24.67-46.5 20.84-65.27 13.71a79.419 79.419 0 0 1-31.64-21.87c-3.11-3.45-5.86-7.2-8.21-11.2Z"/>
    <path fill="#FFF" fill-opacity=".8" fill-rule="evenodd" d="M1395.07 1436.56c-4.11-7.34-6.35-15.77-.59-21.66 5.76-5.9 17.25-7.78 24.98-8.53 24.5-2.17 48.87 5.34 67.83 20.9a43.25 43.25 0 0 1 10.94 12.51c2.81 4.9 3.52 10.72 1.96 16.14-8.07 24.67-46.5 20.84-65.27 13.71a79.419 79.419 0 0 1-31.64-21.87c-3.11-3.45-5.86-7.2-8.21-11.2Z"/>
    <path fill="#FFF" fill-opacity=".451" fill-rule="evenodd" d="M1438.65 1411.99a81.598 81.598 0 0 1 15.53 4.71c5.58 2.29 11.33 6.84 10.78 12.89-1.2 12.85-25.69 18.86-36.23 18.38-11.02-.25-21.08-6.28-26.42-15.85-11.71-23.42 24.25-22.12 36.34-20.13Z"/>
    <path fill="#455A64" fill-rule="evenodd" d="M1199 1124.32c21.02 33.08 43.18 77.94 64.58 153.76 15.13 15.69 165.13-3.16 285.55-100.25 44.41-35.91 66.88-84.44 59.48-97.21-36.95-51.48-54.87-82.369-104.24-124.62-41.73 1.441-269.38 144.39-305.37 168.32Zm23.08 15.34c-3.71-6.74-1.81-15.19 4.44-19.7 69.26-49.73 205.6-127.853 265.29-153.835a15.19 15.19 0 0 1 16.27 2.609c43.56 39.366 62.38 70.706 91.45 115.256-.93 3.43-3.75 46.85-61.1 90.4-108.92 82.72-223.9 98.1-261.64 98.1a3.889 3.889 0 0 1-4.06-2.89c-13.87-48.29-23.71-81.48-50.65-129.94Z"/>
    <path fill="#FFF" fill-rule="evenodd" d="M1272.49 1270.1a3.889 3.889 0 0 0 4.06 2.89c37.81 0 152.58-15.4 261.4-98.2 57.3-43.61 60.12-87.14 61.05-90.51-29.05-44.67-47.85-75.97-91.36-115.383a15.168 15.168 0 0 0-16.26-2.611c-59.64 26.011-195.93 104.214-265.05 154.004-6.25 4.51-8.15 12.97-4.44 19.72 26.92 48.52 36.75 81.75 50.6 130.09Z"/>
    <path fill="#FFF" fill-opacity=".2" fill-rule="evenodd" d="M1452 1220a463.372 463.372 0 0 0 82.45-50.15c54.01-41.25 56.66-82.15 57.55-85.35-27.48-42.07-45.11-71.66-86.1-108.818a14.34 14.34 0 0 0-15.35-2.475c-10 4.365-22.33 10.312-36.14 17.392 8.52 15.951 18.62 31.211 26.24 47.641a274.064 274.064 0 0 1 22.06 67.16c5.91 33.34 0 68.75-24.39 93.22A177.73 177.73 0 0 1 1452 1220Z"/>
    <path fill="#0BF" fill-rule="evenodd" d="M1196.83 1281.7c5.27 24.66 32.95 29.87 53.67 29.25 7.77.11 15.49-1.2 22.79-3.84 7.99-4.57 4.3-14.04 0-19.52-7.28-9.3-39.85-27.93-60.33-28.57-11.89-.38-19.58 5.38-16.13 22.68Z"/>
    <path fill-opacity=".302" fill-rule="evenodd" d="M1196.83 1281.7c5.27 24.66 32.95 29.87 53.67 29.25 7.77.11 15.49-1.2 22.79-3.84 7.99-4.57 4.3-14.04 0-19.52-7.28-9.3-39.85-27.93-60.33-28.57-11.89-.38-19.58 5.38-16.13 22.68Z"/>
    <path fill="#0BF" fill-rule="evenodd" d="M1196.83 1281.72c5.27 24.64 32.95 29.85 53.67 29.23 7.77.11 15.49-1.19 22.79-3.84 7.99-4.56 4.31-14.03 0-19.51 4.03 7.53-17.24 12.19-36.34 5.45-19.09-6.74-33.23-21.27-24.13-34.04-11.75-.34-19.44 5.42-15.99 22.71Z"/>
    <path fill-opacity=".349" fill-rule="evenodd" d="M1196.83 1281.72c5.27 24.64 32.95 29.85 53.67 29.23 7.77.11 15.49-1.19 22.79-3.84 7.99-4.56 4.31-14.03 0-19.51 4.03 7.53-17.24 12.19-36.34 5.45-19.09-6.74-33.23-21.27-24.13-34.04-11.75-.34-19.44 5.42-15.99 22.71Z"/>
    <path fill="#37474F" fill-rule="evenodd" d="M1196.82 1281.7c5.23 24.66 32.65 29.87 53.18 29.25-20.49-.58-36.75-12.33-42.9-25.13-6.15-12.81-1.47-25.17 5.74-26.8-11.82-.38-19.44 5.38-16.02 22.68Z"/>
    <path fill="#00C6FF" fill-rule="evenodd" d="M1227.95 1486.45c0-16.1-16.41-31.45-23.56-37.51-3.8-3.22-6.13-4.84-7.2-6.78-.92-1.77-.79-2.75-.79-6.16h-31.85c0 3.41.13 4.39-.8 6.16-1.07 2.01-3.4 3.57-7.19 6.78-7.15 6.06-23.55 21.41-23.56 37.51 0 1.47.25 2.94.74 4.35-.49 1.41-.74 2.88-.74 4.35v6.95c0 1.38.22 2.76.66 4.09-.49 1.5-.7 3.06-.63 4.63v8.72c-.01 2.86.93 5.65 2.7 8.03l2.15 2.72c3.32 4.35 3.69 10 .97 14.68l-4.01 6.94a13.098 13.098 0 0 0-1.81 6.61v110.82c0 6.32 4.64 12.64 13.91 17.43 18.53 9.64 48.6 9.64 67.14 0 9.26-4.84 13.9-11.14 13.9-17.43v-110.82c0-2.3-.62-4.57-1.81-6.61l-4.01-6.94c-2.72-4.68-2.34-10.33.98-14.68l2.06-2.72c1.81-2.38 2.78-5.2 2.78-8.08v-8.67c.06-1.57-.15-3.13-.63-4.63.43-1.33.65-2.71.65-4.09v-6.95c0-1.47-.25-2.94-.74-4.35.49-1.41.74-2.88.74-4.35Z"/>
    <path fill="#FFF" fill-opacity=".502" fill-rule="evenodd" d="M1227.95 1486.45c0-16.1-16.41-31.45-23.56-37.51-3.8-3.22-6.13-4.84-7.2-6.78-.92-1.77-.79-2.75-.79-6.16h-31.85c0 3.41.13 4.39-.8 6.16-1.07 2.01-3.4 3.57-7.19 6.78-7.15 6.06-23.55 21.41-23.56 37.51 0 1.47.25 2.94.74 4.35-.49 1.41-.74 2.88-.74 4.35v6.95c0 1.38.22 2.76.66 4.09-.49 1.5-.7 3.06-.63 4.63v8.72c-.01 2.86.93 5.65 2.7 8.03l2.15 2.72c3.32 4.35 3.69 10 .97 14.68l-4.01 6.94a13.098 13.098 0 0 0-1.81 6.61v110.82c0 6.32 4.64 12.64 13.91 17.43 18.53 9.64 48.6 9.64 67.14 0 9.26-4.84 13.9-11.14 13.9-17.43v-110.82c0-2.3-.62-4.57-1.81-6.61l-4.01-6.94c-2.72-4.68-2.34-10.33.98-14.68l2.06-2.72c1.81-2.38 2.78-5.2 2.78-8.08v-8.67c.06-1.57-.15-3.13-.63-4.63.43-1.33.65-2.71.65-4.09v-6.95c0-1.47-.25-2.94-.74-4.35.49-1.41.74-2.88.74-4.35Z"/>
    <path fill="#00C6FF" fill-rule="evenodd" d="M1133 1502.04c0 6.4 4.64 12.79 13.91 17.64 18.55 9.76 48.63 9.76 67.18 0 9.27-4.9 13.91-11.27 13.91-17.64V1495c0 6.4-4.64 12.79-13.91 17.65-18.55 9.8-48.63 9.8-67.18 0-9.27-4.91-13.91-11.28-13.91-17.65Z"/>
    <path fill="#00C6FF" fill-rule="evenodd" d="M1133 1520.38c0 6.3 4.64 12.57 13.91 17.4 18.55 9.63 48.63 9.63 67.18 0 9.27-4.83 13.91-11.12 13.91-17.4V1511c0 6.3-4.64 12.57-13.91 17.41-18.55 9.66-48.63 9.66-67.18 0-9.27-4.84-13.91-11.12-13.91-17.41Z"/>
    <path fill="#00C6FF" fill-rule="evenodd" d="M1228 1486.34c0 .74-.07 1.47-.19 2.2-.03.16-.06.33-.1.5-.11.56-.26 1.11-.44 1.65-1.65 4.83-6.04 9.38-13.18 13.08-18.56 9.66-48.62 9.62-67.17 0-7.14-3.71-11.53-8.29-13.18-13.08-.02-.07-.04-.15-.07-.22-.07-.19-.13-.39-.18-.59-.32-1.16-.49-2.35-.49-3.54 0-16.06 16.42-31.38 23.57-37.43 3.8-3.21 6.13-4.83 7.2-6.76.94-1.77.8-2.75.8-6.15h31.86c0 3.4-.14 4.38.8 6.15 1.08 2 3.4 3.57 7.21 6.76 7.14 6.05 23.55 21.37 23.56 37.43Zm-16.86 80.85c-16.93 8.79-44.37 8.79-61.32 0-11.57-6-15.24-14.52-11-22.19v.07l-4.01 6.93a13.098 13.098 0 0 0-1.81 6.61v110.74c0 6.32 4.64 12.63 13.91 17.43 18.55 9.63 48.63 9.63 67.18 0 9.27-4.84 13.91-11.14 13.91-17.43v-110.74c0-2.3-.62-4.57-1.81-6.61l-4.01-6.93v-.07c4.18 7.63.52 16.19-11.04 22.19Z"/>
    <path fill="#FFF" fill-rule="evenodd" d="M1133 1502.04c0 6.4 4.64 12.79 13.91 17.64 18.55 9.76 48.63 9.76 67.18 0 9.27-4.9 13.91-11.27 13.91-17.64V1495c0 6.4-4.64 12.79-13.91 17.65-18.55 9.8-48.63 9.8-67.18 0-9.27-4.91-13.91-11.28-13.91-17.65Z"/>
    <path fill="#FFF" fill-rule="evenodd" d="M1133 1520.38c0 6.3 4.64 12.57 13.91 17.4 18.55 9.63 48.63 9.63 67.18 0 9.27-4.83 13.91-11.12 13.91-17.4V1511c0 6.3-4.64 12.57-13.91 17.41-18.55 9.66-48.63 9.66-67.18 0-9.27-4.84-13.91-11.12-13.91-17.41Z"/>
    <path fill="#FFF" fill-rule="evenodd" d="M1228 1486.34c0 .74-.07 1.47-.19 2.2-.03.16-.06.33-.1.5-.11.56-.26 1.11-.44 1.65-1.65 4.83-6.04 9.38-13.18 13.08-18.56 9.66-48.62 9.62-67.17 0-7.14-3.71-11.53-8.29-13.18-13.08-.02-.07-.04-.15-.07-.22-.07-.19-.13-.39-.18-.59-.32-1.16-.49-2.35-.49-3.54 0-16.06 16.42-31.38 23.57-37.43 3.8-3.21 6.13-4.83 7.2-6.76.94-1.77.8-2.75.8-6.15h31.86c0 3.4-.14 4.38.8 6.15 1.08 2 3.4 3.57 7.21 6.76 7.14 6.05 23.55 21.37 23.56 37.43Zm-16.86 80.85c-16.93 8.79-44.37 8.79-61.32 0-11.57-6-15.24-14.52-11-22.19v.07l-4.01 6.93a13.098 13.098 0 0 0-1.81 6.61v110.74c0 6.32 4.64 12.63 13.91 17.43 18.55 9.63 48.63 9.63 67.18 0 9.27-4.84 13.91-11.14 13.91-17.43v-110.74c0-2.3-.62-4.57-1.81-6.61l-4.01-6.93v-.07c4.18 7.63.52 16.19-11.04 22.19Z"/>
    <path fill="#00C6FF" fill-rule="evenodd" d="M1222.44 1492.12c.33.97.51 1.98.51 3v6.96c0 .95-.15 1.89-.45 2.8l-.41 1.31.41 1.29c.34 1.03.48 2.1.44 3.18l-.22 4.85h.28v4.07c0 1.95-.65 3.85-1.87 5.47l-2.08 2.72c-4.41 5.8-4.91 13.31-1.3 19.54l4.04 6.95a8.97 8.97 0 0 1 1.21 4.48v111.17c0 4.85-4.03 9.65-11.36 13.46-8.22 4.28-19.27 6.63-31.11 6.63-11.85 0-22.89-2.35-31.11-6.63-7.34-3.81-11.37-8.6-11.37-13.46V1558.7c0-1.56.42-3.1 1.21-4.48l4.04-6.96c3.61-6.23 3.11-13.74-1.29-19.54l-2.14-2.72c-1.22-1.6-1.87-3.49-1.87-5.42v-4.03h.19l-.17-4.86a8.91 8.91 0 0 1 .42-3.16l.42-1.3-.42-1.3c-.29-.91-.44-1.85-.44-2.8v-6.95c0-1.03.17-2.04.51-3.02l.47-1.37-.47-1.37c-.34-.97-.51-1.98-.51-3 0-5.66 2.41-11.36 5.82-16.57.01-.02.03-.05.05-.07.12-.2.25-.38.37-.57.12-.18.13-.18.18-.27 2.29-2.94 5.31-5.36 8.81-7.07 15.05-7.83 39.43-7.83 54.48 0 3.51 1.71 6.52 4.13 8.81 7.07l.19.27.37.57c.01.02.01.05 0 .07 3.4 5.21 5.81 10.91 5.81 16.57 0 1.02-.17 2.03-.51 3l-.47 1.37Z"/>
    <path fill="#FFF" fill-opacity=".851" fill-rule="evenodd" d="M1222.44 1492.12c.33.97.51 1.98.51 3v6.96c0 .95-.15 1.89-.45 2.8l-.41 1.31.41 1.29c.34 1.03.48 2.1.44 3.18l-.22 4.85h.28v4.07c0 1.95-.65 3.85-1.87 5.47l-2.08 2.72c-4.41 5.8-4.91 13.31-1.3 19.54l4.04 6.95a8.97 8.97 0 0 1 1.21 4.48v111.17c0 4.85-4.03 9.65-11.36 13.46-8.22 4.28-19.27 6.63-31.11 6.63-11.85 0-22.89-2.35-31.11-6.63-7.34-3.81-11.37-8.6-11.37-13.46V1558.7c0-1.56.42-3.1 1.21-4.48l4.04-6.96c3.61-6.23 3.11-13.74-1.29-19.54l-2.14-2.72c-1.22-1.6-1.87-3.49-1.87-5.42v-4.03h.19l-.17-4.86a8.91 8.91 0 0 1 .42-3.16l.42-1.3-.42-1.3c-.29-.91-.44-1.85-.44-2.8v-6.95c0-1.03.17-2.04.51-3.02l.47-1.37-.47-1.37c-.34-.97-.51-1.98-.51-3 0-5.66 2.41-11.36 5.82-16.57.01-.02.03-.05.05-.07.12-.2.25-.38.37-.57.12-.18.13-.18.18-.27 2.29-2.94 5.31-5.36 8.81-7.07 15.05-7.83 39.43-7.83 54.48 0 3.51 1.71 6.52 4.13 8.81 7.07l.19.27.37.57c.01.02.01.05 0 .07 3.4 5.21 5.81 10.91 5.81 16.57 0 1.02-.17 2.03-.51 3l-.47 1.37Z"/>
    <path fill="#FFF" fill-opacity=".702" fill-rule="evenodd" d="M1207.74 1490.17c-15.04 7.77-39.42 7.77-54.46 0-10.58-5.5-13.72-13.4-9.41-20.32.01-.03.03-.05.05-.08.12-.19.25-.38.37-.56.12-.19.13-.19.18-.27 2.29-2.94 5.3-5.36 8.81-7.08 15.04-7.81 39.42-7.81 54.46 0 3.51 1.72 6.52 4.14 8.81 7.08l.18.27.38.56v.08c4.34 6.92 1.21 14.78-9.37 20.32Z"/>
    <path fill="#00C6FF" fill-rule="evenodd" d="M1222.81 1513.79c-2.5 2.43-5.42 4.49-8.64 6.1-18.63 9.68-48.79 9.68-67.4 0a34.891 34.891 0 0 1-8.64-6.12l.08 2.04h-.2v4.06c0 .77.11 1.54.3 2.29 2.48 2.35 5.33 4.35 8.48 5.94 18.61 9.68 48.78 9.68 67.4 0 3.14-1.59 5.99-3.59 8.46-5.94.22-.75.33-1.52.35-2.29v-4.01h-.23Zm-5.11 33.66c-1.58-2.71-2.4-5.71-2.4-8.76 0-.65.04-1.3.12-1.94-.41.23-.82.46-1.24.67-18.62 9.63-48.79 9.63-67.4 0l-1.25-.67c.06.63.11 1.27.11 1.94 0 3.05-.82 6.05-2.39 8.76l-4.04 6.93c-.45.79-.78 1.63-.97 2.5 1.82 3.87 5.64 7.52 11.47 10.53 17 8.79 44.53 8.79 61.54 0 5.83-3.01 9.66-6.67 11.48-10.53-.2-.87-.52-1.71-.97-2.5Zm-3.52-43.21c-18.62 9.68-48.79 9.64-67.4 0-3.28-1.64-6.25-3.75-8.78-6.24v4.44c0 .95.15 1.89.44 2.79l.42 1.3-.24.76c2.39 2.24 5.14 4.14 8.16 5.66 18.61 9.68 48.78 9.68 67.4 0 3.01-1.53 5.76-3.43 8.16-5.66l-.25-.76.41-1.3c.32-.9.48-1.84.5-2.79v-4.43a34.28 34.28 0 0 1-8.82 6.23Z"/>
    <path fill="#FFF" fill-opacity=".702" fill-rule="evenodd" d="M1222.81 1513.79c-2.5 2.43-5.42 4.49-8.64 6.1-18.63 9.68-48.79 9.68-67.4 0a34.891 34.891 0 0 1-8.64-6.12l.08 2.04h-.2v4.06c0 .77.11 1.54.3 2.29 2.48 2.35 5.33 4.35 8.48 5.94 18.61 9.68 48.78 9.68 67.4 0 3.14-1.59 5.99-3.59 8.46-5.94.22-.75.33-1.52.35-2.29v-4.01h-.23Zm-5.11 33.66c-1.58-2.71-2.4-5.71-2.4-8.76 0-.65.04-1.3.12-1.94-.41.23-.82.46-1.24.67-18.62 9.63-48.79 9.63-67.4 0l-1.25-.67c.06.63.11 1.27.11 1.94 0 3.05-.82 6.05-2.39 8.76l-4.04 6.93c-.45.79-.78 1.63-.97 2.5 1.82 3.87 5.64 7.52 11.47 10.53 17 8.79 44.53 8.79 61.54 0 5.83-3.01 9.66-6.67 11.48-10.53-.2-.87-.52-1.71-.97-2.5Zm-3.52-43.21c-18.62 9.68-48.79 9.64-67.4 0-3.28-1.64-6.25-3.75-8.78-6.24v4.44c0 .95.15 1.89.44 2.79l.42 1.3-.24.76c2.39 2.24 5.14 4.14 8.16 5.66 18.61 9.68 48.78 9.68 67.4 0 3.01-1.53 5.76-3.43 8.16-5.66l-.25-.76.41-1.3c.32-.9.48-1.84.5-2.79v-4.43a34.28 34.28 0 0 1-8.82 6.23Z"/>
    <path fill="#00C6FF" fill-rule="evenodd" d="M1207.72 1652.71c-15.03-7.61-39.41-7.61-54.44 0-7.51 3.81-11.27 8.76-11.28 13.78v1.77c0 4.3 3.66 8.54 10.31 11.9 7.43 3.79 17.47 5.84 28.19 5.84 10.72 0 20.75-2.07 28.2-5.84 6.65-3.36 10.3-7.6 10.3-11.9v-1.75c0-4.99-3.76-9.98-11.28-13.8Z"/>
    <path fill="#FFF" fill-opacity=".749" fill-rule="evenodd" d="M1207.72 1652.71c-15.03-7.61-39.41-7.61-54.44 0-7.51 3.81-11.27 8.76-11.28 13.78v1.77c0 4.3 3.66 8.54 10.31 11.9 7.43 3.79 17.47 5.84 28.19 5.84 10.72 0 20.75-2.07 28.2-5.84 6.65-3.36 10.3-7.6 10.3-11.9v-1.75c0-4.99-3.76-9.98-11.28-13.8Z"/>
    <path fill="#00C6FF" fill-rule="evenodd" d="M1156.29 1669.01v-110.83c.01-2.3.63-4.57 1.81-6.61l3.98-6.94c2.69-4.68 2.32-10.33-.96-14.69l-2.08-2.67c-1.79-2.38-2.75-5.19-2.75-8.08v-8.71c-.07-1.57.14-3.14.63-4.65-.43-1.32-.65-2.69-.65-4.07v-6.95c.01-1.48.27-2.94.76-4.35-.48-1.41-.73-2.88-.73-4.36 0-16.1 12.1-31.44 19.19-37.51 3.78-3.22 6.09-4.84 7.14-6.78.89-1.71.79-2.69.79-5.81h-19.13c0 3.41.12 4.39-.79 6.16-1.07 2.01-3.37 3.58-7.14 6.78-7.09 6.07-23.35 21.41-23.36 37.51 0 1.48.25 2.94.74 4.35-.49 1.41-.74 2.88-.74 4.36v6.93c0 1.38.22 2.76.65 4.08-.48 1.51-.69 3.07-.62 4.63v8.72c-.01 2.86.92 5.66 2.68 8.03l2.13 2.73c3.29 4.35 3.66 10 .96 14.68l-3.98 6.94c-1.17 2.04-1.79 4.31-1.79 6.61v110.83c0 6.32 4.6 12.64 13.79 17.43 12.51 6.56 30.29 8.65 46.18 6.29-8.03-.84-15.8-3.09-22.89-6.62-9.23-4.79-13.82-11.11-13.82-17.43Z"/>
    <path fill="#00C6FF" fill-rule="evenodd" d="M1214.09 1586.41c-18.55 9.62-48.63 9.62-67.18 0-9.27-4.84-13.91-11.12-13.91-17.41v56.38c0 6.31 4.64 12.62 13.91 17.4 18.55 9.63 48.63 9.63 67.18 0 9.27-4.83 13.91-11.12 13.91-17.4V1569c0 6.28-4.64 12.59-13.91 17.41Zm-18.37-161.19c-8.4-4.29-22.04-4.29-30.43 0-4.19 2.13-6.28 4.93-6.29 7.73v3.07c0 2.81 2.09 5.63 6.29 7.76 8.39 4.29 22.03 4.29 30.43 0 4.21-2.13 6.28-4.95 6.28-7.76v-3.04c.01-2.81-2.07-5.63-6.28-7.76Z"/>
    <path fill="#FFF" fill-opacity=".502" fill-rule="evenodd" d="M1195.72 1425.22c-8.4-4.29-22.04-4.29-30.43 0-4.19 2.13-6.28 4.93-6.29 7.73v3.07c0 2.81 2.09 5.63 6.29 7.76 8.39 4.29 22.03 4.29 30.43 0 4.21-2.13 6.28-4.95 6.28-7.76v-3.04c.01-2.81-2.07-5.63-6.28-7.76Z"/>
    <path fill="#00C6FF" fill-rule="evenodd" d="M1165.3 1440.78c-8.4-4.3-8.4-11.26 0-15.56 8.4-4.29 22.01-4.29 30.4 0 8.4 4.3 8.4 11.26 0 15.56-8.39 4.29-22.02 4.29-30.4 0Z"/>
    <path fill="#FFF" fill-opacity=".502" fill-rule="evenodd" d="M1165.3 1440.78c-8.4-4.3-8.4-11.26 0-15.56 8.4-4.29 22.01-4.29 30.4 0 8.4 4.3 8.4 11.26 0 15.56-8.39 4.29-22.02 4.29-30.4 0Z"/>
    <path fill-opacity=".102" fill-rule="evenodd" d="M1165.3 1440.78c-8.4-4.3-8.4-11.26 0-15.56 8.4-4.29 22.01-4.29 30.4 0 8.4 4.3 8.4 11.26 0 15.56-8.39 4.29-22.02 4.29-30.4 0Z"/>
    <path fill="#00C6FF" fill-rule="evenodd" d="M1195.01 1421.21c-8.01-4.28-21.01-4.28-29.02 0-4 2.14-5.98 4.91-5.99 7.74v3.07c0 2.81 1.98 5.62 5.99 7.76 8.01 4.29 21.01 4.29 29.02 0 4.01-2.14 6-4.91 5.99-7.76v-3.04c.05-2.81-1.98-5.62-5.99-7.77Z"/>
    <path fill-opacity=".302" fill-rule="evenodd" d="M1195.01 1421.21c-8.01-4.28-21.01-4.28-29.02 0-4 2.14-5.98 4.91-5.99 7.74v3.07c0 2.81 1.98 5.62 5.99 7.76 8.01 4.29 21.01 4.29 29.02 0 4.01-2.14 6-4.91 5.99-7.76v-3.04c.05-2.81-1.98-5.62-5.99-7.77Z"/>
    <path fill="#00C6FF" fill-rule="evenodd" d="M1166 1436.78c-8-4.29-8-11.26 0-15.56 8.01-4.3 20.99-4.29 29 0 8 4.29 8 11.27 0 15.56-8.01 4.29-20.99 4.3-29 0Z"/>
    <path fill-opacity=".502" fill-rule="evenodd" d="M1166 1436.78c-8-4.29-8-11.26 0-15.56 8.01-4.3 20.99-4.29 29 0 8 4.29 8 11.27 0 15.56-8.01 4.29-20.99 4.3-29 0Z"/>
    <path fill="#00C6FF" fill-rule="evenodd" d="M1195.72 1405.25c-8.4-4.33-22.04-4.33-30.43 0-4.19 2.15-6.28 5.05-6.29 7.83v14.81c0 2.84 2.09 5.68 6.29 7.86 8.39 4.33 22.03 4.33 30.43 0 4.21-2.18 6.28-5.02 6.28-7.86v-14.78c.01-2.81-2.07-5.71-6.28-7.86Z"/>
    <path fill-opacity=".2" fill-rule="evenodd" d="M1195.72 1405.25c-8.4-4.33-22.04-4.33-30.43 0-4.19 2.15-6.28 5.05-6.29 7.83v14.81c0 2.84 2.09 5.68 6.29 7.86 8.39 4.33 22.03 4.33 30.43 0 4.21-2.18 6.28-5.02 6.28-7.86v-14.78c.01-2.81-2.07-5.71-6.28-7.86Z"/>
    <path fill="#00C6FF" fill-opacity=".502" fill-rule="evenodd" d="M1166.73 1420.07c-7.64-3.89-7.64-10.24 0-14.15 7.65-3.9 19.95-3.88 27.55 0 7.6 3.89 7.65 10.24 0 14.15-7.64 3.91-19.9 3.91-27.55 0Z"/>
    <path fill-rule="evenodd" d="M1181 1427.44v9.1c0 .25-.16.45-.37.46h-.25c-.21 0-.38-.21-.38-.46v-9.1c0-.24.17-.44.37-.44h.25c.21-.01.38.19.38.43v.01Zm-3-.87v9.98c.01.24-.29.44-.68.45h-.52c-.45-.04-.79-.27-.8-.55v-9.99c0-.26.33-.46.73-.46h.49c.46.03.8.28.78.57Zm-4 .01v9.04c.01.2-.14.37-.33.38-.02 0-.05 0-.08-.01h-.19a.586.586 0 0 1-.4-.55v-9.07c-.01-.19.12-.36.3-.37.04 0 .08 0 .11.01h.18c.24.06.42.3.41.57Zm-3-.86v9.91c.03.19-.22.35-.56.37-.1 0-.2-.01-.29-.03h-.31c-.49-.11-.81-.36-.84-.65v-9.95c-.03-.18.2-.35.52-.37.11-.01.22 0 .32.03l.31.06c.49.1.82.35.85.63Zm-4.01-.97v8.94c.03.14-.06.28-.21.31a.314.314 0 0 1-.21-.05l-.15-.07a.784.784 0 0 1-.42-.65v-8.95c0-.24.18-.35.42-.24l.15.08c.25.12.41.36.42.63ZM1164 1423v9.72c0 .26-.19.36-.41.2l-.2-.14c-.23-.19-.37-.47-.39-.77v-9.74c0-.27.16-.35.39-.19l.21.15c.23.19.38.47.4.77Zm-3-1.59v9.36c0 .26-.16.31-.34.1l-.37-.43c-.18-.26-.28-.56-.29-.86v-9.36c0-.26.13-.29.29-.08.17.21.24.3.37.44.2.24.32.53.34.83Zm22 5.16v9.98c-.01.24.29.44.68.45h.52c.45-.04.79-.27.8-.55v-9.99c0-.26-.33-.46-.73-.46h-.47c-.47.03-.82.28-.8.57Zm4 .01v9.04c-.01.2.14.37.32.38.03 0 .06 0 .09-.01h.18c.24-.06.4-.29.41-.55v-9.07c.01-.19-.12-.36-.3-.37-.04 0-.07 0-.11.01h-.18c-.25.06-.42.3-.41.57Zm3-.86v9.91c-.01.19.11.35.28.37.05 0 .1-.01.14-.03h.16c.24-.11.4-.36.42-.65v-9.95c.01-.19-.11-.35-.28-.37-.05 0-.1.01-.14.03l-.16.06c-.24.1-.4.35-.42.63Zm4.01-.97v8.94c-.03.14.06.28.21.31.07.01.15-.01.21-.05l.15-.07c.25-.14.41-.38.42-.65v-8.95c0-.24-.18-.35-.42-.24l-.15.08c-.25.12-.41.36-.42.63Zm2.99-1.75v9.72c0 .26.19.36.41.2l.2-.14c.23-.19.37-.47.39-.77v-9.74c0-.27-.17-.35-.38-.19l-.21.15a.98.98 0 0 0-.41.77Zm3-1.59v9.36c0 .26.15.31.33.1.18-.2.26-.29.37-.43.18-.26.29-.56.3-.86v-9.36c0-.26-.13-.29-.3-.08-.11.15-.24.3-.37.44-.2.24-.31.53-.33.83Z"/>
    <path fill-opacity=".149" fill-rule="evenodd" d="M1159 1413v14.77c.02.88.22 1.75.61 2.57-.44.9-.64 1.88-.61 2.86v2.85c0 2.86 2.13 5.72 6.41 7.9 3.42 1.67 7.2 2.71 11.09 3.05v-3.09l2.62-1.39v-3.01l.88-.58h-.88v-14.89c-4.8-.13-9.49-1.25-13.71-3.27-4.22-2.12-6.35-4.92-6.41-7.77Z"/>
    <path fill="#00C6FF" fill-rule="evenodd" d="M1214.09 1589.4c-18.55 9.66-48.63 9.66-67.18 0-9.27-4.83-13.91-11.12-13.91-17.4v56.35c0 6.3 4.64 12.62 13.91 17.4 18.55 9.67 48.63 9.67 67.18 0 9.27-4.83 13.91-11.11 13.91-17.4V1572c0 6.28-4.64 12.58-13.91 17.4Z"/>
    <path fill="#FAFAFA" fill-rule="evenodd" d="M1228 1611.6v-2.59c-2.1 1.79-4.08 3.7-6.04 5.61a103.02 103.02 0 0 1-7.79 7.09c-10.56 8.42-22.39 11.15-36.18 8.36-9.95-2.01-18.78-9.71-26.11-17.04-1.54-1.53-3.03-3.1-4.46-4.62-4.53-4.77-8.84-9.28-14.42-12.41v2.19c4.82 2.92 8.73 7.09 12.85 11.44 1.44 1.52 2.94 3.1 4.49 4.66 7.53 7.51 16.69 15.47 27.2 17.6 3.46.72 7 1.09 10.56 1.11 10.09 0 19.14-3.27 27.44-9.89 2.83-2.25 5.38-4.78 7.94-7.22 1.55-1.47 3-2.91 4.52-4.29Z"/>
    <path fill="#FAFAFA" fill-rule="evenodd" d="M1214.86 1629.24c-12.04 8.98-24.87 9.72-36.68 7.33-10.48-2.14-20.06-9.1-27.06-16.05-6.12-6.06-11.16-12.46-18.12-16.52v21.37c0 6.32 4.64 12.62 13.91 17.41 18.55 9.63 48.63 9.63 67.18 0 9.27-4.84 13.91-11.12 13.91-17.41v-8.2c-4.4 3.86-8.35 8.46-13.14 12.07Z"/>
    <path fill-opacity=".102" fill-rule="evenodd" d="M1153 1591.95c-2.09-.76-4.12-1.64-6.07-2.64-9.29-4.81-13.93-11.06-13.93-17.31v56.05c0 6.27 4.64 12.55 13.93 17.31 1.95 1 3.98 1.89 6.07 2.64Z"/>
  </g>
</svg>
