<svg xmlns="http://www.w3.org/2000/svg" height="96" width="140.16"><path d="M57.52 21.079a5.478 5.478 0 0 1 5.479-5.479h63.922a5.478 5.478 0 0 1 5.479 5.479V73.32a5.48 5.48 0 0 1-5.479 5.479H63a5.478 5.478 0 0 1-5.479-5.479z" fill="#47cfff" fill-rule="evenodd"/><path d="M57.52 21.079a5.478 5.478 0 0 1 5.479-5.479h63.922a5.478 5.478 0 0 1 5.479 5.479V73.32a5.48 5.48 0 0 1-5.479 5.479H63a5.478 5.478 0 0 1-5.479-5.479z" fill="none" stroke="#41719c" stroke-width="3.9999899999999995" stroke-miterlimit="10"/><path d="M57.52 30.8h-25.6c-13.255 0-24 10.745-24 24v24h49.6z" fill="#47cfff" fill-rule="evenodd"/><path d="M57.52 30.8h-25.6c-13.255 0-24 10.745-24 24v24h49.6z" fill="none" stroke="#41719c" stroke-width="3.9999899999999995" stroke-linecap="round" stroke-linejoin="round" stroke-miterlimit="10"/><path d="M47.92 42.16H27.76a8.48 8.48 0 0 0-8.48 8.48v8.48h28.64z" fill="#fff" fill-rule="evenodd"/><path d="M47.92 42.16H27.76a8.48 8.48 0 0 0-8.48 8.48v8.48h28.64z" fill="none" stroke="#41719c" stroke-width="3.9999899999999995" stroke-linejoin="round" stroke-miterlimit="10"/><path d="M68.72 28.4h46.845M73.68 37.52h46.845M78.48 47.12h46.845" fill="none" stroke="#41719c" stroke-width="3.0399923999999996" stroke-linecap="round" stroke-miterlimit="8"/><path d="M25.04 78.8c0-5.479 4.405-9.92 9.84-9.92s9.84 4.441 9.84 9.92-4.405 9.92-9.84 9.92-9.84-4.441-9.84-9.92z" fill="#fff" fill-rule="evenodd"/><path d="M25.04 78.8c0-5.479 4.405-9.92 9.84-9.92s9.84 4.441 9.84 9.92-4.405 9.92-9.84 9.92-9.84-4.441-9.84-9.92z" fill="none" stroke="#41719c" stroke-width="3.9999899999999995" stroke-linecap="round" stroke-linejoin="round" stroke-miterlimit="8"/><path d="M99.28 78.8c0-5.479 4.405-9.92 9.84-9.92s9.84 4.441 9.84 9.92-4.405 9.92-9.84 9.92-9.84-4.441-9.84-9.92z" fill="#fff" fill-rule="evenodd"/><path d="M99.28 78.8c0-5.479 4.405-9.92 9.84-9.92s9.84 4.441 9.84 9.92-4.405 9.92-9.84 9.92-9.84-4.441-9.84-9.92z" fill="none" stroke="#41719c" stroke-width="3.9999899999999995" stroke-linecap="round" stroke-linejoin="round" stroke-miterlimit="8"/><path d="M107.12 78.56a1.84 1.84 0 1 1 3.68 0 1.84 1.84 0 0 1-3.68 0z" fill="#005ea4" fill-rule="evenodd"/><path d="M107.12 78.56a1.84 1.84 0 1 1 3.68 0 1.84 1.84 0 0 1-3.68 0z" fill="none" stroke="#41719c" stroke-width="3.9999899999999995" stroke-linecap="round" stroke-linejoin="round" stroke-miterlimit="8"/><path d="M32.88 78.56a1.84 1.84 0 1 1 3.68 0 1.84 1.84 0 0 1-3.68 0z" fill="#005ea4" fill-rule="evenodd"/><path d="M32.88 78.56a1.84 1.84 0 1 1 3.68 0 1.84 1.84 0 0 1-3.68 0z" fill="none" stroke="#41719c" stroke-width="3.9999899999999995" stroke-linecap="round" stroke-linejoin="round" stroke-miterlimit="8"/><path d="M9.44 61.44a.8.8 0 0 1 .8-.8h3.2a.8.8 0 0 1 .8.8v8.16a.8.8 0 0 1-.8.8h-3.2a.8.8 0 0 1-.8-.8z" fill="#ffc000" fill-rule="evenodd"/><path d="M9.44 61.44a.8.8 0 0 1 .8-.8h3.2a.8.8 0 0 1 .8.8v8.16a.8.8 0 0 1-.8.8h-3.2a.8.8 0 0 1-.8-.8z" fill="none" stroke="#41719c" stroke-width="1.2799968" stroke-miterlimit="8"/></svg>