<svg xmlns="http://www.w3.org/2000/svg" overflow="hidden" viewBox="0 0 303 172">
  <defs>
    <clipPath id="a">
      <path d="M3622 1630h303v172h-303z"/>
    </clipPath>
  </defs>
  <g fill-rule="evenodd" clip-path="url(#a)" transform="translate(-3622 -1630)">
    <path fill="#0070C0" d="M3684.5 1747c-15.19 0-27.5 12.31-27.5 27.5s12.31 27.5 27.5 27.5 27.5-12.31 27.5-27.5c-.02-15.18-12.32-27.48-27.5-27.5Zm0 48.12c-11.39 0-20.62-9.23-20.62-20.62s9.23-20.63 20.62-20.63 20.63 9.24 20.63 20.63c-.01 11.39-9.24 20.62-20.63 20.64Z"/>
    <path fill="#00B0F0" d="m3919.49 1715.62-18.25-13.81a12.968 12.968 0 0 1-4.82-7.24l-6.88-23.82c-3.51-11.78-14.26-19.9-26.52-20.04h-34.43V1630H3622v145h27.55c-.01-2.32.22-4.63.68-6.9h-21.34V1723h192.81v45.1h-103.98c.46 2.27.69 4.58.69 6.9h113.62c0-2.32.23-4.63.69-6.9h-4.13v-110.49h13.77v48.14h52.96c.58.58 1.2 1.12 1.85 1.62l18.1 13.7a7.019 7.019 0 0 1 2.84 5.6v34.51c0 3.81-3.08 6.9-6.88 6.9h-11.02c.46 2.28.69 4.59.69 6.91h10.33c7.59-.03 13.75-6.19 13.77-13.81v-34.51c-.01-4.35-2.05-8.43-5.51-11.05Zm-97.79.48h-192.81v-79.2h192.81Zm27.55-58.49h13.77c9.19.16 17.22 6.24 19.9 15.04l6.86 23.71c.23.85.52 1.67.87 2.48h-41.4Z"/>
    <path fill="#0070C0" d="M3866.5 1747c-15.19 0-27.5 12.31-27.5 27.5s12.31 27.5 27.5 27.5 27.5-12.31 27.5-27.5c-.02-15.18-12.32-27.48-27.5-27.5Zm0 48.12c-11.39 0-20.62-9.23-20.62-20.62s9.23-20.63 20.62-20.63 20.62 9.24 20.62 20.63c0 11.39-9.23 20.62-20.62 20.64Z"/>
  </g>
</svg>
