<svg xmlns="http://www.w3.org/2000/svg" overflow="hidden" viewBox="0 0 267 249">
  <defs>
    <clipPath id="a">
      <path d="M2572 1368h267v249h-267z"/>
    </clipPath>
  </defs>
  <g fill="#0070C0" fill-rule="evenodd" clip-path="url(#a)" transform="translate(-2572 -1368)">
    <path d="M2654 1592.5c0 4.69-3.81 8.5-8.5 8.5-4.69 0-8.5-3.81-8.5-8.5 0-4.69 3.81-8.5 8.5-8.5 4.69 0 8.5 3.81 8.5 8.5Zm-73.37-86.88a6.817 6.817 0 0 0-1.63 4.38v41.14c.01 3.78 3.08 6.85 6.88 6.86h155.03l3.44-.34c7.45-1.13 12.64-7.98 11.69-15.43l-9.97-78.86c-.99-6.84-6.83-11.94-13.75-12h-49.85c-7.58.02-13.72 6.15-13.75 13.71v38.06h-75.83c-.04 0-.05-.03-.02-.06l125.7-125.38 76.92 76.71-17.35 87.44 3.36.68c26.04 5.22 51.4-11.61 56.63-37.58.01-.05.01-.09.02-.13 3.55-18.76-4.21-37.85-19.85-48.85a41.751 41.751 0 0 0-13.45-6l-5.5-1.42-80.78-80.55-137.26 136.92Zm163.55-2.48h-47.96v-30.86h44.06Zm-68.58-38.06c0-3.79 3.08-6.86 6.87-6.86h49.85c3.46.06 6.39 2.59 6.93 6l.15 1.2h-50.05v37.72h-13.75Zm-89.72 86.06V1510h159.16l4.19 33.15a6.973 6.973 0 0 1-5.73 7.7Zm245.52-47.66c-4.3 20.93-23.87 35.15-45.16 32.82l15.88-79.99 2.02.52c2.72.66 5.34 1.72 7.76 3.12 14.98 9.03 22.75 26.39 19.5 43.53Z"/>
    <path d="M2733.89 1575.86c9.51 0 17.22 7.67 17.22 17.14s-7.71 17.14-17.22 17.14h-137.78c-9.51 0-17.22-7.67-17.22-17.14s7.71-17.14 17.22-17.14h137.78m0-6.86h-137.78c-13.32 0-24.11 10.74-24.11 24s10.79 24 24.11 24h137.78c13.32 0 24.11-10.74 24.11-24s-10.79-24-24.11-24Z"/>
    <path d="M2615 1592.5c0 4.69-3.81 8.5-8.5 8.5-4.69 0-8.5-3.81-8.5-8.5 0-4.69 3.81-8.5 8.5-8.5 4.69 0 8.5 3.81 8.5 8.5Zm78 0c0 4.69-3.81 8.5-8.5 8.5-4.69 0-8.5-3.81-8.5-8.5 0-4.69 3.81-8.5 8.5-8.5 4.69 0 8.5 3.81 8.5 8.5Zm39 0c0 4.69-3.81 8.5-8.5 8.5-4.69 0-8.5-3.81-8.5-8.5 0-4.69 3.81-8.5 8.5-8.5 4.69 0 8.5 3.81 8.5 8.5Z"/>
  </g>
</svg>
