<svg xmlns="http://www.w3.org/2000/svg" xmlns:xlink="http://www.w3.org/1999/xlink" overflow="hidden" viewBox="0 0 1692 1345">
  <defs>
    <path id="b" fill="#455A64" d="M1475.09 1385.53c-12-6.04-26.18-6.04-38.18 0-5.3 3.04-7.91 6.99-7.91 10.97.48 4.8 3.49 8.98 7.91 10.97 12 6.04 26.18 6.04 38.18 0 4.42-1.99 7.43-6.17 7.91-10.97 0-3.98-2.65-7.76-7.91-10.97Z"/>
  </defs>
  <defs>
    <clipPath id="a">
      <path d="M1354 667h1692v1345H1354z"/>
    </clipPath>
  </defs>
  <g fill-rule="evenodd" clip-path="url(#a)" transform="translate(-1354 -667)">
    <path fill="#FAFAFA" d="M3046 1523.5c0 269.79-378.77 488.5-846 488.5s-846-218.71-846-488.5c0-269.79 378.77-488.5 846-488.5s846 218.71 846 488.5Z"/>
    <path fill="#E0E0E0" d="M2316.86 1006.69c-253.66-20.39-520.29 25.72-715.35 138.36-165.02 95.45-247.51 220.22-247.51 345.17v35.14c.18 22.12 2.9 44.14 8.11 65.64L2317 1039.49Z"/>
    <path fill-opacity=".2" d="M2316.86 1006.69c-253.66-20.39-520.29 25.72-715.35 138.36-165.02 95.45-247.51 220.22-247.51 345.17v35.14c.18 22.12 2.9 44.14 8.11 65.64L2317 1039.49Z"/>
    <path fill="#E0E0E0" d="M1601.66 1144.97c-195.01 112.67-274.95 266.56-239.48 413.03L2317 1006.71c-253.65-20.448-520.25 25.65-715.34 138.26ZM2928 1504l-77 43.73 11 6.27 77-43.76-11-6.24Zm-164.88 94-76.12 44.63 10.88 6.37 76.12-44.63-10.88-6.37ZM2599 1692l-77 44.63 11 6.37 77-44.63-11-6.37Zm-164 95-77 43.76 11 6.24 77-43.76-11-6.24Zm-164.88 94-76.12 44.6 10.88 6.4 76.12-44.6-10.88-6.4Zm280.83-786.11 238.23 136.86c33.62 19.3 29.63 52.96-8.93 75.18l-381.2 219.31c-192.83 111.55-514.69-120.2-360.53-206.44l399.27-230.71c38.53-22.12 79.64-13.5 113.16 5.8Z"/>
    <path fill="#E0E0E0" d="M1457.91 1819.6c34.73 41.02 170.07 117.53 242.63 139.69 72.55 22.16 89.68 19.69 123.79 0l457.05-264.33c171.48-98.6-233.82-290.34-366.1-211.32l-457.54 264.54c-34.14 19.75-34.56 30.44.17 71.42Zm1432.56-361.67 66.67-38.35c2.48-1.44 2.48-3.74 0-5.14l-66.67-38.39c-2.83-1.4-6.15-1.4-8.97 0l-66.64 38.39c-2.48 1.4-2.48 3.7 0 5.14l66.67 38.35a9.851 9.851 0 0 0 8.94 0Z"/>
    <path fill-opacity=".051" d="m1994 1076.14-7.19-4.14-232.01 134.35-20.18-11.69-72.5 3.03-54.89 31.81-5.23 41.94 20.19 11.69-4.27 2.49 7.29 4.1 4.17-2.41 20.18 11.69 72.47-3.04 54.92-31.76 5.23-41.98-20.22-11.7L1994 1076.14Z"/>
    <use xlink:href="#b"/>
    <path fill="#263238" d="M1483 1396.71c0-4.03-2.65-8.04-7.91-11.12-12-6.12-26.18-6.12-38.18 0-5.3 3.08-7.91 7.09-7.91 11.12v6.58c.48 4.86 3.49 9.1 7.91 11.12 12 6.12 26.18 6.12 38.18 0 4.42-2.02 7.43-6.26 7.91-11.12Z"/>
    <use xlink:href="#b"/>
    <path fill="#37474F" d="M1436 1150.64c.32-3.6 2.56-6.75 5.84-8.22 8.9-4.56 19.42-4.56 28.32 0a9.978 9.978 0 0 1 5.84 8.22v243.72a9.978 9.978 0 0 1-5.84 8.22 31.024 31.024 0 0 1-28.32 0 9.978 9.978 0 0 1-5.84-8.22Z"/>
    <path fill="#455A64" d="M1470.15 1142.37a31.412 31.412 0 0 0-28.3 0c-4.51 1.53-6.92 6.4-5.39 10.89a8.613 8.613 0 0 0 5.39 5.37 31.412 31.412 0 0 0 28.3 0c4.51-1.53 6.92-6.4 5.39-10.89a8.636 8.636 0 0 0-5.39-5.37Z"/>
    <path fill="#263238" d="M1459 841.554v309.286c-.05.36-.38.67-.87.82-1.33.45-2.9.45-4.23 0-.5-.15-.84-.46-.9-.82V841.554c.42-1.099 2.09-1.767 3.75-1.492 1.11.184 1.97.758 2.25 1.492Z"/>
    <path fill="#263238" d="M1458.99 971H1453c.53-26.585 14.92-50.902 37.82-63.921 25.57-15.072 55.8-14.76 83.18.9l-2.94 5.266c-25.37-14.551-53.5-14.897-77.16-.935-21.08 11.923-34.36 34.249-34.91 58.69Z"/>
    <path fill="#263238" d="m1570.26 931.625 14.86 10.313c11.88 8.251 30.9 9.454 42.78 2.647 5.46-3.128 8.1-6.875 8.1-10.932V925.3c0-4.503-3.43-8.972-10.5-12.204l-23.59-10.725c-13.15-6.051-30.34-7.15-38.48-2.475a8.156 8.156 0 0 0-4.43 7.288v8.319c-.07 4.916 3.81 10.932 11.26 16.122Z"/>
    <path fill="#37474F" d="M1563.57 899.846c-8.18 4.628-5.09 14.932 6.94 23.073l15.02 10.135c11.99 8.108 31.2 9.291 43.2 2.635 12-6.655 10.75-16.891-2.53-22.871l-23.75-10.54c-13.28-5.946-30.66-7.027-38.88-2.432Z"/>
    <path fill="#455A64" d="M1563 906.633a4.95 4.95 0 0 1 2.75-4.134 25.226 25.226 0 0 1 12.24-2.465 57.268 57.268 0 0 1 23.04 5.105l23.51 10.942c5.3 2.466 8.46 5.697 8.46 8.719 0 3.022-2.13 5.766-6.33 8.197a33.517 33.517 0 0 1-16.64 3.995 39.929 39.929 0 0 1-22.38-6.496l-14.92-10.42c-6.01-4.238-9.86-9.553-9.73-13.443Z"/>
    <path fill="#263238" d="M1981 738.115V1074l16-2.07V736l-16 2.115Z"/>
    <path fill="#E60078" d="M2013.07 696.395 1962.3 667l-6.41 3.713-35.89 27.229v67.868l35.89 68.795L2006.66 864l6.41-3.713 35.93-27.229v-67.867l-35.93-68.796Z"/>
    <path fill="#FAFAFA" d="m2004.63 856-47.22-27.06-33.41-63.278v-62.591L1957.41 678l47.22 27.094 33.37 63.312v62.42Zm-46.4-29.323 45.54 26.099 32.19-24.008v-60.396l-32.19-61.014-45.54-26.1-32.16 24.008v60.396Z"/>
    <path fill="#FAFAFA" d="m1957.91 735.495 6.89 3.947v48.457l6.47 3.74v-48.457l6.88 3.947v-8.648l-20.24-11.668Zm-6.4 22.376c-1-2.902-2.24-5.714-3.71-8.408-.45-.961-1.45-2.712-2.96-5.251-1.52-2.54-2.24-3.912-2.89-5.285a23.568 23.568 0 0 1-2.55-9.438 7.69 7.69 0 0 1 .76-3.774 1.785 1.785 0 0 1 2.71-.549 6.314 6.314 0 0 1 2.59 2.917 18.85 18.85 0 0 1 1.51 6.314l6.19 2.093c-.16-2.53-.63-5.031-1.41-7.447a22.929 22.929 0 0 0-3.13-6.246 18.21 18.21 0 0 0-5.92-5.456 6.894 6.894 0 0 0-6.02-1.064c-2.65 1.167-3.96 4.359-3.96 9.54.02 3.008.51 5.996 1.45 8.855a63.928 63.928 0 0 0 4.57 10.055l5.75 10.707a20.04 20.04 0 0 1 2.45 8.476 6.89 6.89 0 0 1-.66 3.432 2.307 2.307 0 0 1-3.44.824 6.815 6.815 0 0 1-2.68-3.157 23.298 23.298 0 0 1-1.97-8.374l-6.19-2.951c.12 3.01.61 5.994 1.45 8.888a26.826 26.826 0 0 0 3.44 7.516 17.827 17.827 0 0 0 6.19 5.937c1.06.668 2.22 1.155 3.44 1.441a4.38 4.38 0 0 0 4.44-1.476 13.38 13.38 0 0 0 2.34-8.888 26.572 26.572 0 0 0-.96-6.006c-.07-.926-.31-2.024-.83-3.225Zm41.3-11.669a6.18 6.18 0 0 0-7.23 0 9.398 9.398 0 0 0-2.99 7.962v31.161a24.404 24.404 0 0 0 2.96 11.393 19.247 19.247 0 0 0 7.26 8.168 6.2 6.2 0 0 0 7.29.206 9.338 9.338 0 0 0 3-7.928v-31.435a24.603 24.603 0 0 0-2.89-11.325 19.644 19.644 0 0 0-7.37-8.202Zm3.44 46.81a3.43 3.43 0 0 1-1.07 2.849 2.28 2.28 0 0 1-2.65 0 7.273 7.273 0 0 1-2.61-2.952 8.278 8.278 0 0 1-1.1-4.118v-31.332a3.216 3.216 0 0 1 1.1-2.849 2.234 2.234 0 0 1 2.61 0 6.823 6.823 0 0 1 2.65 2.952 9.12 9.12 0 0 1 1.07 4.118Zm30.25-22.684a19.418 19.418 0 0 0-7.57-8.305l-10.32-5.869v57.106l6.46 3.74v-21.517l3.72 2.162a6.033 6.033 0 0 0 7.19 0 9.426 9.426 0 0 0 2.96-7.962v-8.167c.1-3.856-.68-7.684-2.3-11.188Zm-3.54 15.992a3.61 3.61 0 0 1-1.07 2.883c-.79.567-1.86.567-2.65 0l-3.89-2.231v-18.291l3.89 2.265a6.862 6.862 0 0 1 2.72 2.917 9.08 9.08 0 0 1 1 4.152Z"/>
    <path d="M2192.12 1110.47c-15.78 16.68-39.23 46.63 4.34 22.37C2240.02 1108.58 2457 1006 2457 1006v111.37L2239.54 1239s-40.61-29.81-60.83-51.27a56.184 56.184 0 0 1-13.75-48.24Z"/>
    <path fill="#263238" d="m2175.71 1124.47-2 8.18c-4.61 8.5-14.85 19.19-18.51 18.3-3.66-.9-5.32-5.47-6.34-11.21-.48-2.77-.76-5.56-.84-8.36-.32-9.08 3.8-30.23 16.68-35.84 2.64-1.12 5.72-.46 7.64 1.65 1.72 1.69 3 3.75 3.73 6.02 2.14 6.29-.04 20.95-.36 21.26Z"/>
    <path fill="#455A64" d="M2173 1132.65c-4.48 8.5-14.44 19.19-18 18.3-3.56-.9-5.17-5.47-6.16-11.21-.47-2.77-.75-5.56-.82-8.36-.31-9.08 3.69-30.23 16.22-35.84a6.459 6.459 0 0 1 7.43 1.65l-1.72 3.92c-8.76 3.75-11.12 17.2-10.26 27.69.85 10.49 8.31 9.22 13.31 3.85Z"/>
    <path fill="#37474F" d="M2176 1103.28c-3.26-3.45-11.33-3.45-18.09 5.63-6.77 9.09-9.02 24.94-9.02 31.09-.49-2.76-.78-5.55-.87-8.36-.32-9.12 3.82-30.36 16.65-36.03 5.37-2.45 9.79 2.94 11.33 7.67Z"/>
    <path fill="#FFF" d="M2160.62 1174.45a647.03 647.03 0 0 0 90.24 62.98c33.4 19.27 74.15 38.54 103.95 51.94 25.53 11.45 55 9.94 79.22-4.04l22.47-12.96 34.5-126.2c-3.41.44-6.85.62-10.29.51-25.55-.75-74.59-29.07-114.89-52.35s-98.05-56.6-78.68-73.33l-5.55 4.97c-56.93 51.08-121.79 122.8-124.5 124.9l-1.58 1.95c-3.23 7.55-1.16 16.33 5.11 21.63Z"/>
    <path fill="#BFBFBF" fill-opacity=".2" d="M2383.26 1290.52c1.68.21 3.43.34 4.98.45l-3.02-1.59c1.8-.45 3.69-.45 5.5 0 2.33.38 4.62.92 6.88 1.62 8.83-.45 17.55-2.21 25.86-5.23h-.52c-10.32-.83-20.39-1.45-30.57-1.79-1.71-.21-3.41-.51-5.09-.9-6.12-1.58-5.88-3.68-.89-5.12 4.95-1.41 22.49-3.44 29.09-5.47 4.03-1.39 7.8-3.45 11.14-6.1l13.28-3.71c.07.76.22 1.51.44 2.23.21 1.04.38 2.1.52 3.14.34 2.34.65 4.68.89 6.88v1.65l2.34-1.34a1.21 1.21 0 0 1 0-.38c-.27-2.3-.62-4.59-1.03-6.88-.17-1.1-.38-2.17-.62-3.24-.18-.94-.56-1.83-1.1-2.61l12.86-3.44 1.52-.42c-.28 1.31-.59 2.55-.76 3.89-.17 1.34-.31 2.51-.48 3.75l-.52 3.79 2-1.14.31-2.65c.17-1.31.31-2.65.44-3.96.07-1.31.07-2.63 0-3.95l5.54-1.52.52-1.89-5.33 1.48c0-.77-.07-1.55-.21-2.31 0-1.17-.31-2.3-.52-3.44-.41-2.44-.89-4.88-1.34-7.29l-1.44-7.75c-.24-1.27-.52-2.51-.76-3.78a8.545 8.545 0 0 0-1.1-3.72l3.95-2.34c1.83 3.96 3.68 7.88 5.54 11.8 1 2.14 2.03 4.24 3.06 6.34l.83 1.72.65-2.45-2.78-6.36c-1.77-4.06-3.56-8.12-5.37-12.18l3.44-2.04c4.26-2.58 8.43-5.23 12.55-7.91l.69-2.55c-5.66 3.74-11.39 7.39-17.19 10.95a51.462 51.462 0 0 0-5.06-5.17l-5.47-5.09c-3.64-3.44-7.32-6.57-11.11-9.77-.13-.14-.3-.24-.48-.31 7.19-6.3 14.65-12.43 22.15-18.48l.72-.59c-.04.35.09.69.35.93 2.09 1.93 4.4 3.72 6.5 5.65 2.09 1.92 3.98 3.71 5.88 5.64 1.89 1.93 3.88 4.06 5.74 6.12l.65.8.69-2.48c-1.62-1.83-3.44-3.65-5.05-5.44-1.62-1.79-4.03-3.99-6.13-5.92a77.857 77.857 0 0 0-6.22-5.4c-.49-.38-1.11-.54-1.72-.45l11.18-9.05 3.64-2.96-1.55-1.07-5.7 4.55-14.41 11.28a829.24 829.24 0 0 0-12.11 9.92c-2.72-3.45-5.5-6.89-8.22-10.33l-4.26-5.33c-1.22-1.86-2.76-3.5-4.54-4.82 2.82-6.06 5.53-12.11 8.04-18.27 1.66-4 3.17-8.06 4.68-12.08l-2.13-1.45c0 .34-.24.69-.34 1.03-3.44 9.33-6.88 18.59-10.6 27.84-.65 1.69-1.34 3.45-2.03 5.13a.988.988 0 0 0-.75-.51c-5.47-1.17-11.08-1.83-16.58-2.45-2.89-.34-5.74-.62-8.6-.86l-4.12-.34h-2.34c2.7-7.11 4.82-14.43 6.33-21.89.87-4.38 1.22-8.85 1.03-13.32-.31-4.65-1.36-9.23-3.1-13.56 0-.31-.62 0-.55.24 2.8 9.76 2.74 20.12-.17 29.84-.55 2.07-1.17 4.13-1.82 6.2-5.95 1.1-11.73 2.82-17.51 4.33l-15.75 4.17c-.58-2.65-1.23-5.34-1.99-7.99a146.451 146.451 0 0 0-14.89-33.41 187.35 187.35 0 0 0-23.25-31.53c-.24-.27-.79 0-.58.38.86 1.17 1.78 2.37 2.64 3.44 3.72 5.16 7.57 10.33 11.08 15.56s6.88 10.67 9.8 16.1c4.29 7.71 7.92 15.77 10.83 24.09-2.27-.41-4.61-.58-6.88-.82l-8.49-1.04c-2.89-.37-5.78-.72-8.63-1.13l-4.23-.69c-.76 0-1.65-.41-2.48-.48-1.44-2.2-2.96-4.34-4.54-6.44-2.43-3.38-5.04-6.62-7.84-9.7-.24-.28-.69 0-.55.34 2.31 3.79 5.19 7.4 7.7 11.12 1.17 1.72 2.27 3.44 3.44 5.16 0 .28 0 .62.52.86a85.87 85.87 0 0 1 3.2 5.68c1.58 3.13 2.99 6.3 4.33 9.5 0 .27 0 .55.31.72 1.69 4.06 3.27 8.12 4.92 12.15 3.12 7.57 6.22 15.15 9.32 22.75 3.09 7.67 6.15 15.35 9.25 22.99 1.58 3.92 3.13 7.81 4.78 11.7 1.47 3.66 3.13 7.24 4.99 10.73 0 .24.44 0 .41-.27a114.93 114.93 0 0 0-4.54-13.77c-1.58-4.26-3.23-8.5-4.92-12.77-3.44-9.12-7.26-18.27-10.94-27.53.24.07.49.07.73 0 3.42-1.46 6.94-2.7 10.52-3.71 1.75-.52 3.61-.9 5.33-1.48 0 3.82-.31 7.64-.62 11.46-.6 6.43-.6 12.91 0 19.34.66 6.17 1.81 12.28 3.44 18.27 1.38 5.13 3.03 10.33 4.81 15.25-1.78 1.17-4.6-.24-7.97-5.72l-1.31-2.2a2176.437 2176.437 0 0 0-38.76-61.12c-6.88-10.28-13.75-20.53-20.63-30.76-3.44-4.89-6.71-9.71-9.94-14.63-3.13-4.58-5.93-9.38-8.39-14.35 0-.17-.31 0-.28 0 1 3.08 2.29 6.05 3.86 8.88 1.47 2.65 3.09 5.26 4.78 7.81 3.64 5.64 7.39 11.22 11.07 16.83a3925.16 3925.16 0 0 1 22.83 35.31h-.24c-.6.53-1.07 1.21-1.37 1.96l-1.21 2.2-2.16 4.17-2.27 4.33-1.17 2.24c-5.94-7.16-11.86-14.34-17.75-21.54l-12.72-15.59c-3.96-4.86-8.01-9.67-11.49-14.73a74.66 74.66 0 0 1-8.22-15.46c-1.01-2.6-1.85-5.26-2.51-7.98.02-.07.02-.14 0-.21l-1.1 1.1c0 .59.24 1.21.42 1.79.72 2.62 1.58 5.2 2.51 7.78a65.152 65.152 0 0 0 8.56 15.8c3.44 5.06 7.63 9.91 11.52 14.8 3.89 4.88 8.18 10.32 12.31 15.35 5.81 7.19 11.59 14.35 17.47 21.47-.89.94-1.69 1.96-2.37 3.06-2.03 3.1-3.72 6.37-5.57 9.54l-5.64 10.04c-.52.93 1.79 1.48 2.27.66 1.85-3.17 3.75-6.33 5.57-9.5 1.82-3.17 3.44-6.44 5.53-9.57.51-.85 1.08-1.66 1.69-2.44l6.43 7.71c6.88 8.26 13.92 16.45 21.12 24.57 1.52 2.68 2.07 5.8 1.58 8.84-2.07 5.1-7.71 1.31-7.71 1.31a297.575 297.575 0 0 0-31.39-18.38c-5.26-2.64-10.66-5.02-16.1-7.43-1.22-4.06-2.17-8.2-2.85-12.39-1.34-8.05-1.96-16.14-3.1-24.09-.56-4.17-1.34-8.3-2.34-12.39-.94-4.14-2.37-8.16-4.26-11.97 0-.21-.41 0-.38.24 1.1 4.47 2.34 8.91 3.06 13.42 2.55 15.28 2.38 30.7 6.71 45.87-4.82-2.16-9.6-4.4-14.2-6.88a223.609 223.609 0 0 1-30.47-20.13c-4.79-3.65-9.38-7.44-13.76-11.36a265.25 265.25 0 0 1-6.26-5.64c-2.03-1.9-3.75-3.44-5.71-5.37l-1.27 1.24c1.69 1.86 3.44 3.44 5.33 5.37 2.37 2.27 4.78 4.51 7.26 6.71 4.95 4.38 10.1 8.6 15.44 12.66a212.78 212.78 0 0 0 30.95 19.72c4.47 2.27 9.04 4.37 13.75 6.44.37.34.84.54 1.35.58 6.25 2.79 12.51 5.51 18.57 8.64a312.394 312.394 0 0 1 31.19 18.72c4.02 2.72 7.98 5.47 11.9 8.26.71.74 1.22 1.66 1.48 2.65.2 1.72-1.14 2.69-2.65 3.24l-12.52-1.97 6.22 2.89 12.52 1.97c.42.86-.62 1.92-2.06 2.85l8.87 4.03a87.41 87.41 0 0 0 23.9 6.88c.63-.03 1.25.15 1.76.52Zm-61.39-135.25c-.31-.48-.62-.93-.89-1.41l1.92.31 4.2.65c2.75.42 5.47.76 8.22 1.07l3.13.34c-.81.69-1.57 1.42-2.27 2.21l-3.24 3.23c-1.72 1.69-3.44 3.44-5.29 4.92a97.997 97.997 0 0 0-5.78-11.32Zm10.32 22.06c-1.24-2.93-2.41-5.89-3.65-8.81 2.13-1.86 4.23-3.79 6.23-5.75 1.1-1.06 2.16-2.17 3.23-3.27.99-.86 1.83-1.88 2.48-3.03l3.43.38 4.54.45 2.27.17c.59 1.79 1.14 3.44 1.62 5.37a94.252 94.252 0 0 0-9.97 9.71 661.46 661.46 0 0 0-8.43 9.22c-.62-1.48-1.24-3.1-1.82-4.44Zm22.45 10.81c-.92 0-1.82.37-2.71.55-1.59.34-3.13.75-4.68 1.24-2.96.89-5.85 1.92-8.67 3.09l-3.44-8.64c.15-.05.28-.15.38-.27 3.1-3.49 6.23-6.93 9.39-10.33 2.84-2.91 5.52-5.96 8.05-9.15.01.16.01.32 0 .48.41 1.59.76 3.17 1.06 4.75-.19.26-.14.62.11.82.03.02.05.03.07.04.76 3.83 1.29 7.7 1.58 11.6 0 1.93.17 3.85.17 5.75Zm-40.75 19.47 2.24-4.37c.75-1.44 1.51-2.89 2.23-4.33l1.07-2.14c.2-.41.45-.82.62-1.27l4.78 7.47h-.21c-1.55.82-2.75 1.96-4.37 2.72-1.61.75-3.43 1.41-5.02 2.17-.75.37-1.48.79-2.13 1.2Zm36.35 41.3c-3.71 1.27-14.37-10.32-16.47-12.66-7.04-8.12-13.97-16.31-20.81-24.54 1.44-1.19 3.05-2.15 4.78-2.86 1.59-.72 3.2-1.41 4.71-2.23 1.23-.58 2.32-1.4 3.2-2.41 3.19 5.05 6.38 10.1 9.56 15.17 5.3 8.4 10.49 16.8 15.69 25.2.79 2.06.96 3.88-.73 4.47Zm39.07 17.07s-4.27-.31-.31-7.29c3.95-6.99 14.27-22.99 14.27-22.99 1.45-1.9 2.92-3.79 4.47-5.65 3.23 1.79 6.6 3.44 9.91 5.16l5.43 2.83c1.75.93 3.44 1.92 4.95 2.96l-.65.51-1.52 1.17c-.58 0-1.06.31-.99.76-3.52 2.77-7.2 5.31-11.04 7.61-4.88 2.82-9.97 5.4-14.75 8.36-3.44 2.06-6.54 4.23-9.67 6.47Zm40.89-2.34-1.93.55-1.41.38c-14.03 3.96-21.7 5.64-26.89 1.89-2.13-1.55-1.41-3.71.31-5.81 1.44-.9 2.92-1.76 4.44-2.62 4.84-2.82 9.97-5.33 14.61-8.36 2.31-1.48 4.47-3.1 6.6-4.75l6.4 7.74c1.2 1.45 2.41 2.93 3.65 4.37 1.23 1.45 2.16 2.79 3.43 4.03Zm23.01-20.96c.44 2.45.92 4.89 1.37 7.33.21 1.14.38 2.31.52 3.44-.03 1.07.06 2.13.27 3.17l-7.74 2.13-6.19 1.76c-.35-.53-.74-1.04-1.17-1.52-.72-.89-1.41-1.78-2.13-2.64-1.17-1.48-2.37-2.93-3.44-4.38l-6.87-8.43c1.65-1.27 3.23-2.54 4.88-3.78 4.57-3.29 9.34-6.3 14.27-9.02l3.92-2.27c-.01 1.05.15 2.09.45 3.1.2 1.24.41 2.51.65 3.75.14 2.44.62 4.88 1.07 7.36Zm-8.02-29.18 5.37 4.99c1.75 1.62 3.44 3.44 5.4 4.82-.17.04-.31.15-.38.31-4.78 2.85-9.67 5.57-14.48 8.39-4.03 2.4-7.93 5.04-11.66 7.88a20.774 20.774 0 0 0-4.74-3.06l-5.44-2.85c-3.44-1.79-6.88-3.69-10.31-5.41l1.44-1.75c5.26-6.05 10.85-11.79 16.75-17.21 3.44 2.1 6.63 4.27 9.87 6.5 3.23 2.24 7.12 4.82 10.56 7.33.34.28 1.03-.24.68-.48-3.16-2.68-6.36-5.3-9.76-7.77-3.41-2.48-6.57-4.65-9.98-6.89l4.1-3.75 1.2-1c3.76 3.28 7.51 6.6 11.24 9.95Zm-86.39-27.53c.76-.05 1.51-.16 2.24-.35l3.61-.75c2.27-.49 4.54-.97 6.88-1.52 4.03-.87 7.99-2.02 11.86-3.44-.34.96-.65 1.93-.96 2.89a92.815 92.815 0 0 0-3.44 14.63v.51c-1.96.35-3.95.69-5.91 1.11l-5.64 1.17-5.68 1.2-2.92.58h-.28l.42-5.95c.06-3.41-.04-6.82-.31-10.22Zm55.82 5.44c-1.24 2.78-2.51 5.54-3.85 8.25 0 0 0 .21.17 0l4.02-8.05c5.33 3.86 10.56 7.85 15.99 11.67-2.92 2.61-5.81 5.26-8.63 7.98a80.208 80.208 0 0 0-10.31-5.99c-3.79-1.85-7.64-3.44-11.59-5.16a85.953 85.953 0 0 0-10.97-3.85c-2.44-.81-5.05-.97-7.57-.48 0-.49.17-.93.24-1.38.67-3.39 1.5-6.75 2.51-10.05 2.51.34 5.06.62 7.57 1l7.74 1.13 7.97 1.28c2.62.41 5.33 1.06 7.98 1.24-.24.48-.44.99-.69 1.51-.24.52-1.27.38-.72.76Zm-33.22 6.26c2.66-.75 5.48-.66 8.08.27 3.44 1.04 6.88 2.38 10.32 3.72 7.26 3.05 14.36 6.5 21.25 10.32.15.04.3.04.45 0-2.68 2.59-5.26 5.24-7.77 7.92-5.19-2.77-10.53-5.24-16-7.4-2.78-1.13-5.57-2.24-8.42-3.23-1.41-.52-2.82-1.04-4.23-1.48l-2.2-.76-1-.31-.62-.21a2.97 2.97 0 0 0-1.03 0c.21-3.06.58-6.02 1.03-8.98Zm41.03-21.34c.37.73.81 1.41 1.34 2.03.72.97 1.48 1.89 2.2 2.82l3.88 4.96c2.82 3.44 5.64 6.88 8.57 10.32l.17.18c-2.2 1.85-4.4 3.75-6.53 5.64-5.09-4.1-10.56-7.92-15.89-11.77-.18-.11-.38-.17-.59-.17.28-.55.55-1.1.79-1.65.24-.55.35-.35.24-.49.66-1.34 1.35-2.68 2-3.99Zm-31.37-1.68 4.27.37c2.68.24 5.33.49 7.98.8 5.39.61 10.79 1.48 16.19 2.13.32.06.66 0 .93-.17-1.4 3.44-2.84 6.88-4.33 10.32-2.77-.67-5.57-1.19-8.39-1.55l-7.74-1.2-7.98-1.17c-2.37-.35-4.81-.76-7.19-1.03l1.14-3.45c.58-1.72 1.2-3.44 1.82-5.19.96-.11 2.06-.07 3.17 0Zm-17.19-8.23 9.04-2.41c2.24-.62 4.54-1.2 6.88-1.93-1.79 5.51-3.89 10.91-5.78 16.42-4.81.93-9.45 2.27-14.17 3.44l-6.87 1.52-3.44.72h-.69c-.24-4.49-.8-8.95-1.65-13.35Zm-15.68 37.44c.64-.06 1.27-.18 1.89-.34l2.92-.59 5.68-1.2 5.67-1.27c1.48-.35 2.85-.8 4.26-1.24-.48 3.44-.89 6.67-1.27 10.05-1.43.27-2.84.63-4.23 1.06-1.79.45-3.44.86-5.4 1.21-1.96.34-3.82.75-5.71 1.13l-2.95.59-1.14.2c-.27-3.33-.14-6.53.07-9.73Zm13.92 49.9c-1.68 1.69-3.92 1.9-6.56-2.68-1.9-5.51-3.44-11.08-4.92-16.69-1.47-6.09-2.4-12.3-2.79-18.55v-.59c.93 0 1.82-.34 2.75-.51l2.93-.59 5.74-1.2c1.93-.45 3.85-.9 5.74-1.45l2.03-.69c0 .66-.17 1.35-.24 2.04l-3.71 31.93c-.42 3-.73 6.16-.97 8.98Zm3.44-6.47c.21-1.92.42-3.82.66-5.74 1.2-10.67 2.47-21.37 3.71-32.04v-1.76c1 .41 2.17.69 3.16 1l4.51 1.55c2.85 1.03 5.67 2.1 8.46 3.23 5.64 2.27 11.07 4.86 16.54 7.47-2.13 2.31-4.19 4.65-6.16 6.88-.25.08-.45.29-.51.55-.11.16-.22.31-.34.45-6.26 7.64-11.83 15.63-17.37 23.65a36.263 36.263 0 0 1-8.22 7.26c-4.06 1.48-4.44-11.91-4.44-12.5Z"/>
    <path fill="#FFF" fill-opacity=".2" d="M2455.94 1134c-15.05 77.7-39.36 111.68-62.08 119.76-22.73 8.07-76.19 1.09-141.88-34.05-12.83-6.84-15.99-4.62-12.86 3.42 4.57 2.81 9.32 5.61 14.16 8.42 33.49 19.23 74.33 38.46 104.2 51.84 25.59 11.42 55.13 9.92 79.42-4.04l22.52-12.93 34.58-125.95c-3.42.44-6.87.62-10.31.51-9.57-.84-18.93-3.2-27.75-6.98Z"/>
    <path fill="#263238" d="M2281.05 1032.02c9.05 18.11 42.23 38.36 83.85 62.31 42.68 24.6 91.06 52.49 118.54 53.32h1.1l-31.22 113.98-19.99 11.53a81.034 81.034 0 0 1-40.16 10.7 79.349 79.349 0 0 1-32.81-6.86c-28.62-12.83-69.82-32.22-103.59-51.67a639.005 639.005 0 0 1-89.42-62.28 11.693 11.693 0 0 1-3.44-12.69c.18-.18.34-.38.49-.59 1.13-1.06 3.44-3.43 10.31-10.94 19.71-20.93 64.31-68.25 106.27-106.67m8.53-17.16-.38.34.38-.34Zm-.38.34-5.19 4.64c-57.09 51.12-122.12 122.9-124.84 124.99l-1.58 1.96c-3.25 7.55-1.17 16.34 5.12 21.65a650.188 650.188 0 0 0 90.55 62.79c33.5 19.28 74.36 38.56 104.24 51.98a87.408 87.408 0 0 0 79.45-4.05l22.52-12.97 34.6-126.3c-2.71.35-5.45.54-8.18.55h-2.14c-25.62-.76-74.8-29.1-115.21-52.39-40.41-23.3-97.5-56.17-79.1-73.05Z"/>
    <path fill="#263238" d="M2159 1149c-.87.42-1.74.92-2.57 1.41-1.02 4.29-.21 8.73 2.31 12.59-2.7-4.35-2.7-9.47 0-13.82Z"/>
    <path fill="#FFF" d="M2668.72 1132.82 2459 1267l34.42-126.8c21.27-2.62 17.97-1.76 51.63-21.16l59.96-34.66c7.79-4.5 17.38-4.5 25.16 0l38.07 21.98c7.38 4.22 9.95 13.63 5.73 21.01-1.27 2.23-3.07 4.1-5.25 5.45Z"/>
    <path fill="#263238" d="m2752 1238-78-43.38 43.28-24.62 34.62 19.78.1 48.22Zm-315.21 181.41v-48.5l-34.57-19.91-43.22 24.79 29.6 27.5L2437 1431v-11.59Z"/>
    <path fill="#37474F" d="m2404.85 1409.67 11.15-22.15-26.51-15.34c-8.45-4.87-19.71-4.31-32.03 2.82-26.2 15.11-47.46 54.12-47.46 87.09 0 17.25 5.83 29.46 15.15 35.01l.35.21 27.2 15.69 11.77-23.35c22.33-17 39.52-50.56 40.38-79.98Z"/>
    <path fill="#263238" d="m2404.85 1409.67 11.15-22.15-26.51-15.34c-8.45-4.87-19.71-4.31-32.03 2.82-26.2 15.11-47.46 54.12-47.46 87.09 0 17.25 5.83 29.46 15.15 35.01l.35.21 27.2 15.69 11.77-23.35c22.33-17 39.52-50.56 40.38-79.98Z"/>
    <path fill="#37474F" d="M2432 1423.18c0 28.4-15.68 61.23-36.66 79.4-3.2 2.78-6.63 5.27-10.27 7.44-26.02 15.1-47.1.61-47.07-32.29 0-24.84 12.02-53.17 29.13-72.03a74.528 74.528 0 0 1 17.8-14.73c25.98-15.07 47.07-.62 47.07 32.21Z"/>
    <path fill="#455A64" d="M2432 1423.01c0 28.24-15.72 60.91-36.76 78.99 14.6-16.5 24.88-36.34 29.93-57.77 3.98-18.86 2.47-45.98-13.73-52.83-16.2-6.85-37.75 7.6-44.44 14.18a74.295 74.295 0 0 1 17.85-14.66c26.01-14.96 47.15-.58 47.15 32.09Z"/>
    <path fill="#37474F" d="m2719.85 1227.66 11.15-22.14-26.53-15.34c-8.46-4.87-19.67-4.31-32.03 2.82-26.18 15.11-47.41 54.11-47.44 87.07 0 17.24 5.83 29.45 15.15 35l27.6 15.93 11.73-23.34c22.29-17.04 39.51-50.59 40.37-80Z"/>
    <path fill="#263238" d="m2719.85 1227.66 11.15-22.14-26.53-15.34c-8.46-4.87-19.67-4.31-32.03 2.82-26.18 15.11-47.41 54.11-47.44 87.07 0 17.24 5.83 29.45 15.15 35l27.6 15.93 11.73-23.34c22.29-17.04 39.51-50.59 40.37-80Z"/>
    <path fill="#37474F" d="M2747 1241.22c0 28.38-15.68 61.2-36.66 79.37a70.056 70.056 0 0 1-10.27 7.43c-25.98 15.1-47.07.62-47.07-32.27 0-24.84 12.05-53.15 29.13-72a75.77 75.77 0 0 1 17.8-14.76c25.88-15.1 47.07-.65 47.07 32.23Z"/>
    <path fill="#FFF" d="M2700 1228.66c16.56-9.63 30 .38 30 22.4s-13.44 47.66-30 57.28c-16.56 9.63-30-.41-30-22.43 0-22.01 13.44-47.62 30-57.25Z"/>
    <path fill="#455A64" d="M2747 1241.37c0 28.47-15.68 61.4-36.66 79.63 14.56-16.63 24.81-36.64 29.85-58.23 4-19.02 2.5-46.36-13.69-53.26-16.19-6.91-37.65 7.66-44.5 14.29a75.735 75.735 0 0 1 17.8-14.81c26.01-15.12 47.2-.62 47.2 32.38Z"/>
    <path d="M2437 1279.63v13.07c-12.32 7.62-24.68 15.06-36.87 22.1-103.27 59.52-158.62 91.26-280.07 21.44a218.036 218.036 0 0 1-56.32-44.43c-15.76-17.91-7.47-48.93 3.44-67.8 12.78-22.36 34.26-39 55.08-53.45 2.93-2.02 26.85-17.77 36.97-25.56-.55.65-1.06 1.37-1.58 2.02a18.721 18.721 0 0 0 5.13 21.65 651.73 651.73 0 0 0 90.36 63c33.5 19.28 74.43 38.59 104.34 51.97a87.796 87.796 0 0 0 79.52-4.01Z"/>
    <path fill="#455A64" d="m2459.53 1266.81 11.56-42.31c-2.44 9.2 3.03 18.63 12.21 21.08 4.54 1.21 9.37.5 13.38-1.95L2621 1165c-7.98 5.75-95.04 72.56-184 128v-13.13Z"/>
    <path fill="#F6BB00" d="M2719 987.461v2.128c-5.71 12.981-29.94 26.501-80.74 55.791-58.84 33.95-97.03 54.24-119.3 66.98-11.58 6.66-19.76 10.3-24.75 27.46l-23.06 84.18 23.03-84.21c-3.42.45-6.87.61-10.31.48-25.61-.76-74.76-29.08-115.15-52.36-40.39-23.27-98.27-56.68-78.85-73.46 19.42-16.793 140.93-80.065 176.74-99.564 28.46-15.553 53.45-25.886 82.66-25.886 29.22 0 61.05 10.78 97.72 32.854 64.83 39.138 71.01 51.497 71.91 61.796.03 1.476.1 2.781.1 3.811Z"/>
    <path fill="#F6BB00" d="M2029.54 1363.94c9.08 34.35 50.72 68.25 81.59 85.7 46.62 26.35 97.1 47.4 151.01 42.7 19.87-1.72 39.68-6.32 56.42-17.59 8.05-5.39 8.43-9.07 11-18.31 2.9-10.4 7.01-20.43 12.24-29.88a117.308 117.308 0 0 1 34.18-39.74c1.7-1.24 3.47-2.39 5.3-3.44 28.77-16.62 52.5-3.23 55.52 29.75.23 2.15.34 4.3.35 6.46L2640 1302.52s0-2.47.93-10.1c.59-4.62 1.42-9.2 2.48-13.74 2.94-11.75 7.39-23.07 13.24-33.69a118.352 118.352 0 0 1 34.21-39.78c1.75-1.2 3.43-2.3 5.33-3.43 28.77-16.63 52.5-3.44 55.49 29.67.2 2.07.31 4.2.31 6.43l11.45-6.63c27.5-15.8 27.85-42.77 27.5-62.38-.17-3.44-.31-7.49-.41-11.75v-1.72c-.27-9.89-.55-21.36-1.1-32.66-.24-3.92-.45-7.8-.72-11.68 0-1.79-.28-3.44-.41-5.22-.42-4.4-.86-8.56-1.38-12.47-2.06-15.05-5.29-21.61-8.87-25.39-1.89-1.87-4-3.49-6.29-4.84a46.534 46.534 0 0 0-4.71-2.78c-1.31-.69-2.58-1.34-3.75-1.86 1.38 2.31 2.48 4.16 3.16 5.4l-18.46 17.38c-11.79 11.13-29.91 12.36-44.7 5.7-1.38-.6-2.72-1.29-4.02-2.06l-36.03-20.78c-3.8-2.2-5.1-7.05-2.9-10.85a7.885 7.885 0 0 1 2.52-2.65l5.53-3.71 2.51-1.72c.86-.58 1.72-1.13 2.55-1.75 8.73-5.98 15.85-11.2 25.2-17.66 17.88-12.4 20.29-18.51 20.63-27.854V984c-.34 15.148-22.14 27.93-80.73 61.83s-97.03 54.27-119.31 67.02c-11.62 6.66-19.8 10.3-24.79 27.47 21.22-2.57 17.95-1.71 51.58-21.05l59.86-34.56a25.174 25.174 0 0 1 25.13 0l38.03 21.92c7.36 4.23 9.88 13.62 5.65 20.96-1.27 2.2-3.05 4.05-5.21 5.38l-207.94 132.42 159.53-100.02c-9.07 6.52-120.61 91.95-220.73 149.69-103.15 59.6-158.44 91.41-279.74 21.47-12.1-6.87-23.62-13.98-32.87-24.35-9.25-10.38-16.12-18.18-20.04-37.58a81.474 81.474 0 0 1 2.47-42.63 87.245 87.245 0 0 1 22.11-37.78 271.563 271.563 0 0 0-33.59 30.91c-1.41 1.58-2.79 3.19-4.09 4.81a124.914 124.914 0 0 0-26.27 56.95c-5.09 27.75-6.88 46.82 1.2 77.08Z"/>
    <path fill="#37474F" d="m2442 1284.03-1.61 11.98c-3.44 1.68-6.6 3.44-9.89 4.92-5.87 2.85-11.75 5.68-17.52 8.36-6.86 3.2-13.73 6.23-20.6 9.57-4.32 2.1-9.23 6.88-14.04 7.43-6.49.93-10.82-5.68-17-5.54-6.18.14-9.65 5.82-12.29 10.33a40.099 40.099 0 0 1-8.79 11.49 14.068 14.068 0 0 1-13.57 2.86c-5.49-2.24-9.3-9.19-15.21-8.5-4.53.52-7.14 5.3-9.58 9.19a30.636 30.636 0 0 1-22.63 15.14c-1.95.38-3.95.73-5.94 1.04-.39.09-.79.16-1.2.2-2.88.45-5.73.86-8.62 1.21h-1.1c-19.19 2.06-43.02 2.41-61.29-4.75-14.66-5.82-24.93-19.48-39.56-24.65-7.86-2.82-16.75-2.1-24.24-5.74-9.96-4.82-15.21-16.15-24.48-22.17-5.46-2.91-11.13-5.4-16.96-7.47-13.74-6.23-19.1-22.2-20.26-36.28-2.05-20 1.01-40.19 8.89-58.68 1.11-3.03 2.87-5.78 5.15-8.06a9.016 9.016 0 0 1 8.89-2.23c1.41.58 2.82 1.58 4.3 1.3a5.11 5.11 0 0 0 2.85-2.44c3.46-5.1 6.42-10.53 8.82-16.21 1.08-3.21 2.67-6.22 4.71-8.92 5.9-6.88 11.64.69 18.06-2.75 6.42-3.44 12.74-9.81 19.23-14.28.65-.48 1.34-.97 2.02-1.38a14.975 14.975 0 0 0 0 13.46c1.25 2.92 3.1 5.55 5.43 7.71a98.31 98.31 0 0 0 14.42 10.32 651.59 651.59 0 0 0 74.86 51.15c33.41 19.34 74.23 38.72 104.07 52.15a86.813 86.813 0 0 0 22.63 6.64 95.123 95.123 0 0 0 62.05-6.4Z"/>
    <path fill="#F6BB00" d="m2442 1280.25-1.61 12.13-9.89 4.83c-5.88 2.85-11.75 5.69-17.52 8.4-6.86 3.15-13.73 6.17-20.6 9.46-4.32 2.09-9.23 6.85-14.04 7.4-6.49.96-10.82-5.66-17-5.52-6.18.14-9.65 5.79-12.29 10.28a40.017 40.017 0 0 1-8.79 11.44c-3.7 3.27-8.86 4.36-13.57 2.85-5.49-2.23-9.3-9.12-15.21-8.47-4.53.52-7.14 5.28-9.58 9.15a30.646 30.646 0 0 1-22.63 15.08l-5.94 1.06c-.39.1-.79.16-1.2.21-2.88.44-5.73.85-8.62 1.16h-1.1c-19.19 2.06-43.02 2.4-61.29-4.73-14.66-5.79-24.93-19.39-39.56-24.53-7.86-2.78-16.75-2.09-24.24-5.72-9.96-4.8-15.21-16.07-24.48-22.07-5.47-2.89-11.13-5.38-16.96-7.43-13.74-6.21-19.1-22.11-20.26-36.12a117.77 117.77 0 0 1 8.89-58.42c1.12-3.01 2.87-5.75 5.15-8.02a9.073 9.073 0 0 1 8.89-2.19c1.41.54 2.82 1.57 4.3 1.26a5.056 5.056 0 0 0 2.85-2.43c3.45-5.06 6.4-10.44 8.82-16.07 1.06-3.21 2.65-6.22 4.7-8.91 5.91-6.85 11.65.65 18.07-2.77 7.28-3.94 14.01-11.07 21.25-15.56-.27.31-.51.65-.75.96a18.715 18.715 0 0 0 5.11 21.62 649.746 649.746 0 0 0 90.35 63.15c33.41 19.26 74.23 38.55 104.07 51.91a87.5 87.5 0 0 0 59.48 4.32c8.7-1.44 17.18-4.03 25.2-7.71Z"/>
    <path fill="#37474F" d="M2315.86 1329.02c-24.35-20.56-51.59-36.79-79.1-52.79-26.65-15.55-53.58-30.62-79.65-47.13-15.1-9.56-30.06-19.39-44.71-29.83-1.3-.93-1.92.78-.86 1.64a629.101 629.101 0 0 0 75.97 51.38c27.51 16.34 55.27 31.96 82.37 48.81 15.23 9.49 30.47 19.01 45.46 28.84.69.31.79-.68.52-.92Zm43.9-19c-7.32-4.5-14.44-9.31-21.79-13.75-7.36-4.44-14.3-8.25-21.49-12.31-13.75-7.7-27.5-15.43-41.25-23.17-27.74-15.75-55.45-31.6-82.78-48.14-15.54-9.35-31.11-18.7-46.41-28.47-1.17-.75-1.37 1.03-.51 1.62 26.67 18.15 53.89 35.42 81.64 51.81 27.12 16.03 54.59 31.5 82.06 46.9 7.91 4.4 15.74 8.87 23.75 13.1 8.8 4.68 17.81 8.87 26.71 13.34.38.28.42-.69.07-.93Z"/>
    <path fill="#37474F" d="M2254.02 1290.05c-5.82-.54-11.46 3.16-16.32 6.07-5.4 3.22-10.77 6.54-16.14 9.86-10.95 6.85-22.1 13.39-32.39 21.13-.31.21-.17 1.06.24.86 11.63-5.62 22.61-12.43 33.69-19.04l16.48-9.94c2.46-1.54 5.02-2.93 7.66-4.14 2.43-1.1 5.07-1.71 7.43-3.05.72-.41.17-1.71-.65-1.75Zm46.31-12.98c-6.73 2-13.35 4.34-19.84 7.03-3.27 1.33-6.5 2.77-9.7 4.25-3.15 1.1-6.07 2.78-8.63 4.95-.52.56.34 1.86 1.03 1.68 3.15-.96 6.21-2.24 9.11-3.82 3.2-1.44 6.4-2.81 9.63-4.11 6.64-2.64 13.34-5.02 20.19-7.03 2.09-.7.03-3.51-1.79-2.95Zm8.41-11.25c-.27-.37-.64-.64-1.05-.78.2 0 .17 0 0 0-.18-.05-.37-.05-.55 0-.35.06-.7.16-1.02.32l-1.91.78-3.96 1.55-3.71 1.49c-1.48.45-2.89 1.08-4.23 1.87-.75.53 0 2.02.85 1.95 1.4-.19 2.77-.53 4.09-1.03l3.99-1.34 3.62-1.42c1.34-.42 2.64-.98 3.88-1.66.41-.42.27-1.27 0-1.73Zm-144.13-29.44a151.3 151.3 0 0 0-19.08 23.55 206.748 206.748 0 0 0-18.47 26.88c-.17.35 0 1.56.62 1.08a203.61 203.61 0 0 0 20.44-25.53c5.72-8.62 12.26-16.65 19.52-23.96 1.4-1.25-1.67-3.24-3.03-2.02Zm10.48-28.85c-2.66 4.05-5.26 8.17-7.73 12.33-2.54 3.97-4.66 8.2-6.33 12.63-.23.68.77 2.08 1.37 1.26 2.78-4 5.35-8.14 7.69-12.43 2.47-4.12 5.07-8.17 7.73-12.15.9-1.4-1.83-3.03-2.73-1.64Zm15.53-9.17-3.77 5.01c-1.32 1.73-2.42 3.59-3.78 5.36-.33.48.57 1.7 1.06 1.12 1.47-1.7 3.13-3.21 4.53-5.04l4.15-5.13c.86-.87-1.4-2.38-2.19-1.32Z"/>
    <path fill="#263238" d="m2489.01 943.36 20.98-12.543c6.87-4.272 13.95-8.476 20.82-12.817-7.21 3.76-14.36 7.69-21.54 11.552l-21.43 11.826c-14.26 7.895-21.99 12.338-36 20.677-14.02 8.339-28.1 16.713-41.84 25.36 14.43-7.588 28.72-15.483 42.97-23.378 14.26-7.895 21.95-12.372 36.04-20.677Zm141.42 55.778-21.4 11.822c-14.26 7.93-22.02 12.38-36.04 20.71-14.01 8.34-27.99 16.68-41.84 25.33 14.43-7.59 28.72-15.45 42.98-23.38 14.25-7.93 22.02-12.34 36.03-20.67l20.99-12.55c6.87-4.27 13.95-8.44 20.85-12.814-7.32 3.794-14.46 7.724-21.64 11.552Zm-105.08-34.896 20.99-12.543c6.87-4.272 13.94-8.476 20.85-12.816-7.25 3.759-14.39 7.69-21.57 11.552l-21.44 11.825c-14.25 7.895-21.98 12.338-36 20.678-14.01 8.339-28.03 16.712-41.84 25.362 14.43-7.59 28.72-15.485 42.98-23.38 14.25-7.895 21.95-12.372 35.96-20.678Zm48.47 27.821 20.99-12.543c6.87-4.272 13.94-8.442 20.85-12.817-7.25 3.794-14.4 7.724-21.58 11.552l-21.5 11.723c-14.25 7.929-21.98 12.372-36 20.712-14.01 8.34-28.03 16.68-41.84 25.33 14.43-7.59 28.72-15.45 42.98-23.38 14.25-7.93 22.01-12.24 36.03-20.577Zm89.13 72.057 35.98 20.74c15.37 8.88 35.76 8.51 48.64-3.63l18.43-17.35c-5.11-8.82-29.8-50.17-47.2-65.88 0 7.06-3.16 13.96-11.19 20.23-12.29 9.6-30.89 22.98-45.04 32.37a7.97 7.97 0 0 0-2.25 11.03 8.028 8.028 0 0 0 2.63 2.49Z"/>
    <path fill="#FFF" d="m2419.47 1315.29-16.85 11.06c-.74.47-1.21 1.3-1.25 2.2l-.37 8.68c-.05.92.64 1.71 1.53 1.77.34.02.68-.08.97-.27l16.84-10.84c.75-.49 1.21-1.33 1.25-2.24l.41-8.85c.06-.93-.61-1.73-1.5-1.8-.37-.02-.73.08-1.03.29Z"/>
    <path fill="#37474F" d="M2437 1419.46V1431l203-116.73V1303Z"/>
    <path d="M2577.9 1333c-.51-.02-.92-.53-.9-1.13v-.04c0-.76 3.44-75.7 1.58-128.66 0-.62.4-1.13.93-1.17.5 0 .92.47.93 1.07 1.87 53.19-1.54 128.14-1.57 128.86-.02.61-.45 1.09-.97 1.07Zm-134.79 83c-.63-.02-1.13-.51-1.11-1.09v-.08c0-.76 4.31-75.7 1.99-128.66-.04-.61.45-1.13 1.1-1.17h.04c.63.02 1.14.48 1.18 1.07 2.32 53.19-1.95 128.14-2.02 128.9-.02.59-.55 1.05-1.18 1.03Z"/>
    <path fill-opacity=".2" d="M2691.24 1179.05a100.52 100.52 0 0 0-39.64 29.39c-10.98 12.98-19.47 27.9-25.07 43.99a94.016 94.016 0 0 0-6.53 28.45c0 .87 1.44 1.67 1.79.63 1.37-4.23 2.3-8.55 3.44-12.84 1.13-4.3 2.33-8.31 3.71-12.4 2.74-8.21 6.2-16.17 10.31-23.78 7.77-14.25 18.14-26.9 30.57-37.28 6.88-5.54 14.19-10.52 21.87-14.88.65-.31.17-1.59-.45-1.28Z"/>
    <path d="M2483.8 1141a52.4 52.4 0 0 1-8.37-1c1.63 5.84-.31 13.43-3.83 27.3-5.91 23.18-23.27 79.57-28.04 94.71s-19.12 23.25-29.56 26.99a88.761 88.761 0 0 0 22.75-9.1l22.68-12.98 34.57-126.37c-3.38.41-6.79.57-10.2.45Zm80.39 59 20.81-12.6-11.39-84.4-14.61 8.18Z"/>
    <path fill="#FFF" d="M2781.16 1105.8c2.27.27 4.57.27 6.84 0-.41-4.39-.85-8.58-1.37-12.42-2.05-15.06-5.26-21.61-8.82-25.38-.15.18-.32.34-.51.48a71.177 71.177 0 0 0-15.97 19.89 15.24 15.24 0 0 0-1.26 4.12c-1.23 10.19 14.26 12.45 21.09 13.31Z"/>
    <path fill="#263238" d="M2081.07 1315.89a599.69 599.69 0 0 0 107.65 62.01c5 1.88 7.54 7.46 5.66 12.46a9.69 9.69 0 0 1-.87 1.77 66.08 66.08 0 0 1-20.36 17.98c-5.41 2.96-15.19 2.03-20.95 0a270.133 270.133 0 0 1-80.81-46.2c-4.69-3.99-10.13-12.16-10.34-18.33a81.04 81.04 0 0 1 4.03-28.28c2.24-5.92 10.89-5.06 15.99-1.41Z"/>
    <path d="M2163.71 1404.99c-3.18.01-6.34-.52-9.35-1.58a262.694 262.694 0 0 1-78.36-44.85c-4.03-3.5-6.82-8.21-7.94-13.43a73.87 73.87 0 0 1 3.42-25.31c1.06-2.16 4.55.52 5.85 1.48a603.812 603.812 0 0 0 108.19 62.43 4.34 4.34 0 0 1 2.4 2.68c.17.52.07 1.09-.28 1.51a59.322 59.322 0 0 1-18.07 16.04c-1.86.77-3.86 1.12-5.86 1.03Z"/>
    <path fill="#263238" d="m2112.41 1387-6.41-1.54c3.46-13.41 8.59-26.33 15.27-38.46l5.73 3.41a162.916 162.916 0 0 0-14.59 36.59Z"/>
    <path fill="#263238" d="m2068.11 1334.45-.69.85c.2.17 20.48 15.24 46.35 30.88a485.83 485.83 0 0 0 66.94 32.62l.34-1.02c-23.05-9.13-45.34-20-66.69-32.52-25.84-15.64-46.08-30.67-46.25-30.81Zm-.49 4.77-.69.85c.21 0 18.69 14.18 44.56 29.83a469.196 469.196 0 0 0 65.87 31.97l.34-1.03a469.207 469.207 0 0 1-65.62-31.9c-25.84-15.61-44.28-29.58-44.46-29.72Zm-.93 9.55-.69.85a423.402 423.402 0 0 0 40.93 27.71 436.638 436.638 0 0 0 63.76 30.67l.35-1.06a414.553 414.553 0 0 1-104.35-58.28Zm.48-4.78-.69.86a486.368 486.368 0 0 0 42.73 28.76 454.288 454.288 0 0 0 64.8 31.39l.38-1.06a449.737 449.737 0 0 1-64.59-31.28 489.82 489.82 0 0 1-42.63-28.67Zm1.39-14.31-.66.89c.21 0 22.28 16.25 48.15 31.9a512.678 512.678 0 0 0 67.97 33.19l.38-1.02a515.946 515.946 0 0 1-67.76-33.13c-25.84-15.61-47.88-31.69-48.08-31.83Zm52.6 24.4c-25.84-15.61-51.43-33.77-51.81-34.08l-.66.89c.28.17 25.87 18.37 51.81 34.08a561.99 561.99 0 0 0 70.16 34.42l.34-1.02c-24.06-9.8-47.4-21.26-69.84-34.29Zm-51.98-29.17-.69.88c.24.17 24.17 17.32 49.94 32.96a539.696 539.696 0 0 0 69.08 33.81l.35-1.02a541.55 541.55 0 0 1-68.84-33.74c-25.98-15.61-49.84-32.72-49.84-32.89Z"/>
    <path fill="#263238" d="M2111.87 1399.47c34.44 17.96 79.21 40.16 128.66 39.26 49.46-.89 94.47-33.48 94.47-33.48a160.02 160.02 0 0 1-94.16 40.26c-57.82 4.2-94.74-19.61-130.17-38.75-36.85-19.85-68.02-49.55-73.67-81.76 8.54 26.29 40.36 56.37 74.87 74.47Z"/>
    <path fill="#263238" d="M2177.58 1465.23c-31.63-9.5-54.31-23.21-76.37-37.67-22.06-14.45-36.31-27.54-44.26-38.73-7.5-10.32-11.73-23.68-6.88-21.62a364.935 364.935 0 0 0 36.65 31.37c33.59 22.62 69.07 50.36 125.52 54.01 3.65.02 7.29.47 10.84 1.35 13.69 4.78-23.99 17.76-45.5 11.29Zm116.48-20.14c-3.1-.55-10.94 1.4-24.27 4.91-13.32 3.51-16.53 3.72-21.57 7.2-4.23 2.82-15.54 11.73-20.96 14.41-8.59 4.24 0 7.69 23.55 8.35 23.55.66 31.9-6.41 37.49-13.68 5.59-7.27 12.85-20 5.76-21.19ZM2039.05 1362c4.15-.17.77-7.23-1.88-17.71-2.44-9.45-9.7-19.55-12.94-27.29-.71 12.14.24 24.31 2.82 36.2 2.96 4.09 7.16 7.17 12 8.8Z"/>
    <path fill="#FAFAFA" d="M2230.9 1383.67c-7.12-.14-14.12 1.9-20.08 5.84-6.52 4.65-17.79 15.63-10.4 24.13 3.33 3.25 7.61 5.32 12.21 5.91a81.35 81.35 0 0 0 45.07-4.2c9.49-3.44 18.1-8.97 25.21-16.19 2.15-1.97 3.77-4.46 4.72-7.24.92-2.83.09-5.95-2.12-7.93-2.9-1.64-6.24-2.29-9.53-1.86l-23.76 1.02c-7.14.38-14.14.21-21.32.52Z"/>
    <path fill="#E0E0E0" d="M2268 1397.72c-.2-1.08-1.09-1.91-2.19-2.06a8.17 8.17 0 0 0-3.26.34l-7.54 1.79c-.55 0-1.13.34-1.68.44-.46.04-.92-.05-1.34-.24-.97-.43-1.9-.95-2.77-1.55 1.17-1.49 2.55-2.8 4.11-3.89 2.47-1.96 4.9-4.02 7.23-6.08 1.2-1.04-.58-1.45-1.44-1.25-.83.28-1.59.76-2.19 1.39l-4.32 3.75h-8.98c-1.35.17-2.65-.53-3.26-1.72-.92-1.56-1.92-3.08-2.84-4.63h-.35l2.16 8.14a33.42 33.42 0 0 0-4.32-7.06c0-.2-.34-.61-.54-1.01-.89-.11-1.79-.11-2.68 0 0 .23 1.17 1.35 1.3 1.52a38.18 38.18 0 0 1 3.43 5.37 9.975 9.975 0 0 1 1.58 5.33c.04.38-.13.76-.45.98-.37.11-.77.05-1.09-.17-1.02-.62-1.95-1.37-2.78-2.23-1.13-1.11-2.19-2.29-3.22-3.37a8.88 8.88 0 0 0-2.44-2.37c1.65 2.23 3.43 4.36 5.11 6.49.96.94 1.66 2.1 2.06 3.37v.17c-.71.02-1.4-.2-1.96-.64-.64-.43-1.33-.78-2.05-1.04.94.63 1.65 1.56 1.99 2.63.1.2.1.44 0 .64-.13.16-.32.26-.52.27-1.41.23-2.84-.21-3.87-1.18-2.92-2.26-5.86-4.46-8.81-6.76-2.14-1.77-4.55-3.2-7.13-4.25l-.69.4a41.9 41.9 0 0 1 3.88 3.14l4.01 3.38 4.01 3.38c1.17.81 2.24 1.75 3.19 2.8-4.89.53-9.8.7-14.71.51-.43-.01-.86.1-1.23.3-.38.22-.52.7-.31 1.08 5.45.21 10.9.58 16.31 1.19 1.48.17 4.43.2 5.28 1.65.86 1.45-.61 4.63-1.57 6.05-.96 1.42-2.13 2.73-3.12 4.15-.51.59-.77 1.36-.72 2.13 3.11-3.93 6.42-7.69 9.94-11.28.27-.29.68-.41 1.06-.3.34 0 .41.6.45 1.01l.2 3.95c.58-1.92 1.17-3.82 1.72-5.74.82.27 1.13 1.21 1.33 2.02l1.34 5.92c.19 1.12.61 2.2 1.23 3.17-.41-3.75-.82-7.5-1.26-11.25a.865.865 0 0 1 0-.67c.15-.2.4-.29.65-.24.56.14 1.05.46 1.4.91 1.65 1.69 3.22 3.38 4.73 5.24a29.91 29.91 0 0 0 3.88 4.46l2.64-.92-10.29-12.97c7.34-1.02 14.59-2.55 21.7-4.59Zm-17.89 1.08c.01.08.01.16 0 .24.04.1.04.2 0 .3-.11.05-.24.05-.35 0-1.11.35-2.26.54-3.42.58.44-.8 1.06-1.5 1.81-2.03.62-.34 1.41.37 1.96.91Zm-6.17-1.69h-.28c-.51 0-.79-.54-.89-1.04-.31-1.51-.41-3.06-.27-4.6 1.63.14 3.28.07 4.9-.2 1.31-.37 2.7-.37 4.01 0-.65.57-1.23 1.22-1.92 1.82l-1.82 1.56c-1.15.95-2.4 1.78-3.73 2.46Z"/>
    <path fill-opacity=".102" d="M2268 1397.72c-.2-1.08-1.09-1.91-2.19-2.06a8.17 8.17 0 0 0-3.26.34l-7.54 1.79c-.55 0-1.13.34-1.68.44-.46.04-.92-.05-1.34-.24-.97-.43-1.9-.95-2.77-1.55 1.17-1.49 2.55-2.8 4.11-3.89 2.47-1.96 4.9-4.02 7.23-6.08 1.2-1.04-.58-1.45-1.44-1.25-.83.28-1.59.76-2.19 1.39l-4.32 3.75h-8.98c-1.35.17-2.65-.53-3.26-1.72-.92-1.56-1.92-3.08-2.84-4.63h-.35l2.16 8.14a33.42 33.42 0 0 0-4.32-7.06c0-.2-.34-.61-.54-1.01-.89-.11-1.79-.11-2.68 0 0 .23 1.17 1.35 1.3 1.52a38.18 38.18 0 0 1 3.43 5.37 9.975 9.975 0 0 1 1.58 5.33c.04.38-.13.76-.45.98-.37.11-.77.05-1.09-.17-1.02-.62-1.95-1.37-2.78-2.23-1.13-1.11-2.19-2.29-3.22-3.37a8.88 8.88 0 0 0-2.44-2.37c1.65 2.23 3.43 4.36 5.11 6.49.96.94 1.66 2.1 2.06 3.37v.17c-.71.02-1.4-.2-1.96-.64-.64-.43-1.33-.78-2.05-1.04.94.63 1.65 1.56 1.99 2.63.1.2.1.44 0 .64-.13.16-.32.26-.52.27-1.41.23-2.84-.21-3.87-1.18-2.92-2.26-5.86-4.46-8.81-6.76-2.14-1.77-4.55-3.2-7.13-4.25l-.69.4a41.9 41.9 0 0 1 3.88 3.14l4.01 3.38 4.01 3.38c1.17.81 2.24 1.75 3.19 2.8-4.89.53-9.8.7-14.71.51-.43-.01-.86.1-1.23.3-.38.22-.52.7-.31 1.08 5.45.21 10.9.58 16.31 1.19 1.48.17 4.43.2 5.28 1.65.86 1.45-.61 4.63-1.57 6.05-.96 1.42-2.13 2.73-3.12 4.15-.51.59-.77 1.36-.72 2.13 3.11-3.93 6.42-7.69 9.94-11.28.27-.29.68-.41 1.06-.3.34 0 .41.6.45 1.01l.2 3.95c.58-1.92 1.17-3.82 1.72-5.74.82.27 1.13 1.21 1.33 2.02l1.34 5.92c.19 1.12.61 2.2 1.23 3.17-.41-3.75-.82-7.5-1.26-11.25a.865.865 0 0 1 0-.67c.15-.2.4-.29.65-.24.56.14 1.05.46 1.4.91 1.65 1.69 3.22 3.38 4.73 5.24a29.91 29.91 0 0 0 3.88 4.46l2.64-.92-10.29-12.97c7.34-1.02 14.59-2.55 21.7-4.59Zm-17.89 1.08c.01.08.01.16 0 .24.04.1.04.2 0 .3-.11.05-.24.05-.35 0-1.11.35-2.26.54-3.42.58.44-.8 1.06-1.5 1.81-2.03.62-.34 1.41.37 1.96.91Zm-6.17-1.69h-.28c-.51 0-.79-.54-.89-1.04-.31-1.51-.41-3.06-.27-4.6 1.63.14 3.28.07 4.9-.2 1.31-.37 2.7-.37 4.01 0-.65.57-1.23 1.22-1.92 1.82l-1.82 1.56c-1.15.95-2.4 1.78-3.73 2.46Z"/>
    <path fill="#FAFAFA" d="M2063.56 1278.62a80.443 80.443 0 0 1-5.47 38.67c-.26.81-.73 1.53-1.36 2.11-6.64 5.08-14.93-23.81-15.36-27.06-1.61-11.72 2.18-29.14 8.25-41.48 2.58-5.18 5.68-7.26 8.01-.97 2.12 6.38 3.7 12.91 4.71 19.53.58 2.94.93 6.02 1.22 9.2Z"/>
    <path fill="#263238" d="M2794 1180a21.22 21.22 0 0 1-4.24 10.36c-6.26 8.7-3.05 5.49-26.76 19.29V1242l16.39-9.53c13.04-7.76 14.61-23.51 14.61-52.47Z"/>
    <path fill="#455A64" d="M2790.44 1169c.03 1.81-.16 3.61-.54 5.38-.93 5.2-4.21 11.22-18.22 19.2-14.02 7.98-17.68 10.15-17.68 10.15l9.03 5.27c23.69-13.52 20.51-10.38 26.73-18.9 2.32-2.94 3.78-6.45 4.24-10.14 0-5.14-.55-8.42-3.56-10.96Z"/>
    <path fill="#37474F" d="M2754 1204v32.68l9 5.32v-32.58l-9-5.42Z"/>
    <path d="m2446.58 1286.99 8.47-5.4-8.47 5.05Zm138.76-82.76c-.01-.2-.09-.4-.24-.55 0-4.02-.27-7.98-.44-11.8 0-1.34 0-2.62-.21-3.89v-1.13l-11.07-83.86-2.61 1.51-1.06.62-.59.35-1.75 1c-.44.2-.86.44-1.27.72-.15.14-.33.25-.51.34l-1.89 1.07h-.24l-3.63 2.06-.65.38-13.72 7.99-15.37 8.91-3.81 2.2-2.91 1.58-.31.17h-.2l-1.99 1.07.51-.24c-.96.52-1.89 1.03-2.74 1.44l-2.44 1.18-1.16.48-.79.31h-.31c-.72.27-1.44.55-2.16.75l1.06-.37c-2.69.84-5.43 1.52-8.2 2.03l-1.27.2h-.3l-2.2.31-6.86.86-23.01 84.37-11.49 42.22-3.91 14.42c.79-.48 1.54-1 2.3-1.51h.2l-2.5 1.65-.69.41c-2.81 1.83-5.62 3.65-8.47 5.44L2445 1415.3v11.7l138.42-80.28c0-2.78.31-6.88.48-11.87.42-11.35.93-27.53 1.31-46.11.79-25.46 1.23-57.74.13-84.51Z"/>
    <path fill="#F6BB00" d="M2509.5 1162.67a17.753 17.753 0 0 0-13.29 11.59l-20.65 59.13L2462 1272l2.24-.58 37.07-10.32 83.91-23.27 23.78-6.54-12.94-87.29h-1.17c-.52 0-1.1.21-1.86.41l-1.24.28h-.69l-2.06.44-.93.25c-.18-.02-.37-.02-.55 0h-.62l-.72.17c-.52 0-1 .2-1.48.31h-.59l-1.69.37-.58.18c-.57.08-1.13.19-1.69.34l-.75.17-16.22 3.65-17.93 4.09-4.47.96c-6.85 2.1-21.41 5.02-31.32 7.05Zm-62.5 124.95 10-2.62-10 3Z"/>
    <path fill="#F6BB00" d="M2608.97 1236.12c-8.81 3.19-18.75 6.73-29.5 10.4-2.81 1.01-5.69 1.98-8.61 2.95-2.91.97-5.89 2.05-8.87 3.05l-9.22 3.12c-6.23 2.11-12.67 4.26-19.29 6.34-6.61 2.08-13.29 4.34-20.14 6.49l-10.28 3.22-.45.17c-6.06 1.87-12.13 3.75-18.33 5.55-3.19.93-6.34 1.91-9.52 2.81-3.19.9-6.86 2.04-10.28 3.01l-2.85.8c-.22.1-.45.17-.68.21h-.21l-2.74.76 4.59-13.28 13.5-38.92c0 .38-.24.73-.34 1.07-3.15 12.41 11.96 27.25 26.04 26.83h1.58c.86-.12 1.72-.3 2.57-.52L2609 1232c-.03 1.49-.03 2.81-.03 4.12Zm-26.94-89.59-2.03.47c1.31-.37 2.63-.67 4-1-.18.02-.35.08-.51.17Zm3.99-.17c-.71 0-1.36.43-2.02.64.98-.42 1.99-.76 3-1Zm1.72-.36c-.24-.05-.49-.05-.74 0 .65-.49 1.32-.82 2-1Zm8.26-1.95-3 .95 3-1Z"/>
    <path fill="#F6BB00" d="m2585.05 1237.59 23.81-6.59v.07l.14.89v.24l-106.2 28.47-.07-.04L2464 1271l37.11-10.23h.04l83.9-23.14v-.04Zm22.94 141.53-27.71 6.24-9.92 2.24-15.09 3.45-10.12 2.28-9.63 2.21L2445 1416l1.72-128.28 9.94-2.76.79-.21 2.95-.86c.24-.04.47-.11.69-.21l2.84-.79c3.43-.97 6.86-1.93 10.29-3 3.43-1.07 6.35-1.83 9.54-2.8 6.21-1.79 12.28-3.65 18.35-5.52l.44-.17 10.29-3.21c6.86-2.14 13.59-4.29 20.17-6.45 6.62-2.07 13.07-4.21 19.31-6.31l9.23-3.11c2.98-1 5.97-2 8.88-3.04 2.92-1.03 5.8-1.93 8.61-2.93 10.77-3.76 20.58-7.28 29.53-10.35 2.88 48.03.72 113.1-.58 143.12Z"/>
    <path fill="#F6BB00" d="m2580.2 1385.14-9.91 2.22-15.08 3.41-10.11 2.25-9.64 2.18-90.46 20.24V1427l162.45-36.37c0-2.73.34-6.82.55-11.63Zm26.14-7.21c-.75-.19-1.29-.8-1.34-1.52 0-.72 5.18-74.59 2.39-128.54 0-.62.59-1 1.38-.83.73.18 1.29.75 1.41 1.45 2.76 54.05-2.35 128.03-2.38 128.75-.04.73-.71.87-1.46.69Zm2.66-146.2-24.06 6.27v-.59l-5.94-90.27.76-.18c.77-.2 1.53-.38 2.3-.51l2.01-.49h.28c.48 0 .97-.24 1.49-.31l.73-.17h.62c.49-.17.99-.28 1.5-.34l2.08-.45h.7l1.25-.28c.76-.2 1.35-.31 1.87-.41h1.18l13.06 87.49Z"/>
    <path fill="#263238" d="M2492.29 1276.9c-4.04 19.45-25.32 23.55-41.11 23.06-5.98.09-11.91-.95-17.51-3.05-6.17-3.48-3.43-11.05 0-15.39 5.58-7.33 30.63-22.02 46.32-22.5 9.11-.32 15.14 4.23 12.3 17.88Z"/>
    <path fill="#455A64" d="M2492.29 1276.9c-4.04 19.45-25.32 23.55-41.11 23.06-5.98.09-11.91-.95-17.51-3.05-6.17-3.48-3.43-11.05 0-15.39-3.09 5.94 13.29 9.62 27.92 4.31 14.63-5.32 25.49-16.78 18.4-26.81 9.11-.32 15.14 4.23 12.3 17.88Z"/>
    <path fill="#37474F" d="M2492.29 1276.9c-4.06 19.45-25.43 23.55-41.29 23.06 15.9-.45 28.59-9.72 33.37-19.79 4.79-10.08 1.17-19.87-4.47-21.15 9.19-.32 15.24 4.23 12.39 17.88Z"/>
    <path fill="#455A64" d="M1833.46 1405c7.65-2.92 12.84-10.07 13.22-18.23 1-9.11.42-19.01-13.56-28.47-13.98-9.45-24.69-6.13-30.12-3.66Z"/>
    <path fill="#263238" d="M1827.98 1406.92c-2.29-.27-4.49-1.11-6.37-2.45l-14.51-9.66a23.803 23.803 0 0 1-10.08-20.35l1.23-11.2c.19-5.29 4.61-9.44 9.89-9.25.31.01.61.03.92.07 2.29.3 4.47 1.15 6.36 2.48l14.45 9.66a23.697 23.697 0 0 1 10.11 20.35l-1.2 11.21c-.2 5.29-4.65 9.41-9.92 9.21-.3-.01-.59-.03-.88-.07Z"/>
    <path fill="#455A64" d="m1812.64 1358.8 14.15 9.75c5.33 3.92 8.41 10.35 8.2 17.11l-1.18 11.33c-.64 5.89-5.31 7.77-10.45 4.21l-14.15-9.79c-5.32-3.9-8.41-10.32-8.2-17.07l1.21-11.33c.6-5.89 5.28-7.77 10.42-4.21Z"/>
    <path fill="#FFF" d="m1817 1361.91-16 12.09 1.4-13.41 4.56-3.56c2.07-.17 4.13.47 5.78 1.78Zm12 9.1-23.33 16.99c-.61-.75-1.17-1.55-1.67-2.38l22.6-16.62c.87.58 1.67 1.25 2.4 2.01Zm6.94 14.89-.22 1.95-15.81 11.15-6.91-4.49 21.98-15.51c.84 2.2 1.17 4.56.96 6.9Z"/>
    <path fill="#20C4FF" d="M1878.41 1824 1771 1761.6l71.59-41.6 107.41 62.4-71.59 41.6Z"/>
    <path fill-opacity=".302" d="M1878.41 1824 1771 1761.6l71.59-41.6 107.41 62.4-71.59 41.6Z"/>
    <path fill="#37474F" d="m1840.79 1828.99 12.21-24.56-29.03-16.93c-9.25-5.36-21.53-4.74-35.04 3.1-28.7 16.72-51.93 59.79-51.93 96.33 0 19.05 6.38 32.5 16.55 38.63l.41.24 29.75 17.2 12.89-25.77c24.43-18.64 43.26-55.73 44.19-88.24Z"/>
    <path d="m1840.79 1828.99 12.21-24.56-29.03-16.93c-9.25-5.36-21.53-4.74-35.04 3.1-28.7 16.72-51.93 59.79-51.93 96.33 0 19.05 6.38 32.5 16.55 38.63l.41.24 29.75 17.2 12.89-25.77c24.43-18.64 43.26-55.73 44.19-88.24Z"/>
    <path fill="#263238" d="M1872 1844.34c0 31.39-17.47 67.74-40.92 87.82a74.874 74.874 0 0 1-11.53 8.21c-29 16.71-52.55.73-52.55-35.69 0-27.5 13.43-58.83 32.53-79.66l.17-.17a85.05 85.05 0 0 1 19.85-16.3c28.94-16.57 52.45-.62 52.45 35.79Z"/>
    <path fill="#FFF" d="M1819.48 1831c18.51-10.52 33.52.44 33.52 24.47 0 24.03-15.01 52.01-33.52 62.53-18.5 10.52-33.48-.44-33.48-24.47 0-24.03 14.98-52.02 33.48-62.53Z"/>
    <path fill="#455A64" d="M1872 1844.26c0 31.37-17.37 67.68-40.69 87.74a148.214 148.214 0 0 0 33.14-64.17c4.43-20.96 2.78-51.05-15.21-58.68-18-7.62-41.76 8.42-49.24 15.74a84.905 84.905 0 0 1 19.74-16.29c28.88-16.66 52.26-.72 52.26 35.66Z"/>
    <path fill="#20C4FF" d="M2235.57 1618 2128 1555.84l17.44-21.84 107.56 62.2-17.43 21.8Z"/>
    <path fill-opacity=".302" d="M2235.57 1618 2128 1555.84l17.44-21.84 107.56 62.2-17.43 21.8Z"/>
    <path fill="#37474F" d="m2198.68 1622.89 12.32-24.43-29.28-16.96c-9.33-5.36-21.72-4.75-35.34 3.13-28.95 16.69-52.38 59.76-52.38 96.33 0 19.06 6.44 32.54 16.69 38.63l.41.21 30.01 17.2 13.01-25.77c24.64-18.75 43.63-55.83 44.56-88.34Z"/>
    <path d="m2198.68 1622.89 12.32-24.43-29.28-16.96c-9.33-5.36-21.72-4.75-35.34 3.13-28.95 16.69-52.38 59.76-52.38 96.33 0 19.06 6.44 32.54 16.69 38.63l.41.21 30.01 17.2 13.01-25.77c24.64-18.75 43.63-55.83 44.56-88.34Z"/>
    <path fill="#263238" d="M2229 1638.31c0 31.39-17.33 67.73-40.55 87.85a75.157 75.157 0 0 1-11.42 8.22c-28.71 16.7-52.03.72-52.03-35.69 0-27.51 13.3-58.83 32.2-79.66v-.18c5.7-6.4 12.33-11.89 19.66-16.29 28.82-16.61 52.14-.59 52.14 35.75Z"/>
    <path fill="#FFF" d="M2176.98 1624.04c18.23-10.63 33.02.45 33.02 24.74 0 24.28-14.79 52.6-33.02 63.2-18.23 10.59-32.98-.45-32.98-24.71 0-24.25 14.75-52.6 32.98-63.23Z"/>
    <path fill="#455A64" d="M2229 1638.24c0 31.36-17.4 67.67-40.7 87.76a148.304 148.304 0 0 0 33.12-64.19c4.42-20.96 2.78-51.04-15.21-58.67-17.98-7.62-41.73 8.45-49.21 15.73a85.062 85.062 0 0 1 19.73-16.28c28.86-16.65 52.27-.65 52.27 35.65Z"/>
    <path fill="#0070C0" d="M2284 1519.84v34.88c0 19.33-17.18 44.71-38.21 57.02l-10.66 6.19c-6.08-30.2-30-41.61-58.66-25.07a95.435 95.435 0 0 0-22.75 18.71s0 .17-.2.24a149.912 149.912 0 0 0-35.71 73.91l-240.04 138.26c-6.08-30.19-30-41.58-58.66-25.07a99.1 99.1 0 0 0-22.75 18.81v.18a149.874 149.874 0 0 0-35.74 73.87l-23.64 13.76c-21.07 12.18-40.73 13.07-76.4 0-35.67-13.07-132.65-66.62-174.4-100.81-27.32-22.04-38.18-40.62-38.18-63.49v-47.36c0-1.92.17-3.88.34-5.81.43-8.31 1.47-16.57 3.1-24.73.57-3.62 1.32-7.22 2.26-10.76a225.455 225.455 0 0 1 27.08-66.49c25.78-40.72 35.64-49.97 61.86-65l84.57 34.02s288.67-166.43 334.51-193.02c45.85-26.59 168.84-18.26 240.11 26.93 71.28 45.19 82.17 83.58 82.17 130.83Z"/>
    <path fill-opacity=".149" d="M1774 1635.47 1541.09 1522c-24.91 14.48-34.95 24.02-60.24 63.96a224.12 224.12 0 0 0-27.11 66.32c-.94 3.54-1.7 7.12-2.27 10.74-1.63 8.14-2.66 16.38-3.1 24.67-.17 1.92-.27 3.88-.34 5.8s0 4.05 0 6.07v41.18c0 22.81 10.87 41.34 38.22 63.34 41.8 34.1 138.92 87.52 174.6 100.56 23.5 8.58 40.01 11.02 54.6 8.31-5.82-15.1-.55-46.74 7.36-108.29 9.91-78.2 23.36-138.14 51.19-169.19Z"/>
    <path fill="#263238" d="M2128.64 1526c13.67-8.1 19.79-19.93 14.43-32.72L1998 1465l.27 41.59Z"/>
    <path fill="#263238" d="M1818 1375h143.4c23.08 0 62.97 13.39 112.9 46.17 49.94 32.77 103.17 75.94 59.57 101.83Z"/>
    <path fill="#FFF" d="M1823 1379h143.52c22.4 0 66.96 23.94 102.82 44.84 35.85 20.9 90.77 72.08 71.77 83.05-7.05 4.07-23.67 2-71.77-4l-61.22-7.69Z"/>
    <path fill="#FFF" fill-opacity=".2" d="M2133 1478a265.274 265.274 0 0 0-63.97-54.09c-35.8-20.73-80.29-44.91-102.66-44.91H1823l66.41 41.76 17.35-7.98c-21.71-12.67 39.31-19.13 73.97-14.4 34.67 4.73 126.81 47.32 152.27 79.62Z"/>
    <path fill="#263238" d="M1785.49 1655.14a240.74 240.74 0 0 0-.97 42.53c.48 14.18 11.27 20.65 24.12 13.22l320.76-184.76c12.69-7.3 11.17-14.7-3.44-16.53l-83.47-10.33a92.406 92.406 0 0 0-49.31 9.95l-184.78 106.26c-12.61 7.23-20.81 19.56-22.91 39.66Z"/>
    <path fill="#FFF" d="M1793.09 1653.56a177.754 177.754 0 0 0-1.41 42.74c1 8.18 8.24 11.24 16.69 6.36l296.89-171.26c8.45-4.89 7.46-9.8-2.23-11.04l-72.43-9.18a61.222 61.222 0 0 0-32.76 6.64l-189.33 109.27c-8.59 4.88-12.78 10.28-15.42 26.47Z"/>
    <path fill="#263238" d="M1925 1550.5v91.5l6-3.5V1547l-6 3.5Zm108-46.03V1579l7-3.5V1501l-7 3.47Z"/>
    <path fill="#0070C0" d="M2284 1519.91v34.9-1.1c-.58-14.46-11.77-66.71-55.12-50.8-64.76 23.74-324.7 161.25-344.88 172.09 18.5-10.33 237.08-130.79 264.26-145.04 20.87-10.84 88.38-43.51 99.98-78.96a64.216 64.216 0 0 0 6.86-18c.65.76 1.34 1.51 1.92 2.27l2.37 2.96.21.28c.86 1.13 1.68 2.23 2.44 3.44 1.4 1.96 2.71 3.89 3.94 5.85.89 1.34 1.72 2.72 2.51 4.1.79 1.37 1.2 2.13 1.75 3.16.55 1.04 1.16 2.21 1.68 3.44.51 1.24 1.06 2.17 1.54 3.45.9 1.89 1.69 3.85 2.41 5.74.31.76.58 1.55.85 2.31.62 1.76 1.17 3.44 1.72 5.2.34 1.05.65 2.12.93 3.2.2.93.44 1.82.68 2.72.24.89.38 1.65.59 2.51.2.86.37 1.93.58 2.93.51 2.72.96 5.47 1.37 8.26.24 1.82.42 3.68.62 5.54.55 6.02.79 12.66.79 19.55ZM1791 1803c6.74-8.32 14.55-15.65 23.2-21.82 8.76-6.22 18.65-10.53 29.09-12.67 5.31-.77 10.7-.67 15.99.29a38.928 38.928 0 0 1 14.61 6.65c8.42 6.75 14.43 16.18 17.11 26.81-3.36-10.15-9.65-19.02-18.04-25.41-4.25-2.89-9-4.94-13.99-6.01-5.06-.85-10.21-.85-15.27 0a77.292 77.292 0 0 0-28.5 11.79A142.106 142.106 0 0 0 1791 1803Z"/>
    <path fill="#0070C0" d="M2147 1597c6.75-8.08 14.55-15.2 23.2-21.19a77.797 77.797 0 0 1 29.09-12.31c5.31-.75 10.7-.66 15.99.27a39.664 39.664 0 0 1 14.61 6.46 48.325 48.325 0 0 1 17.11 26.05 51.29 51.29 0 0 0-18.04-24.68c-4.25-2.83-9-4.82-13.99-5.88-5.06-.8-10.21-.8-15.27 0a78.532 78.532 0 0 0-28.5 11.52c-8.77 5.68-16.89 12.3-24.2 19.76Z"/>
    <path fill-opacity=".2" d="M1900 1796c32.97-21.15 66.39-41.53 100.28-61.13 16.86-9.93 33.75-19.8 50.86-29.33 17.1-9.52 33.99-19.36 51.4-28.57l-1.13 1.85c1.43-11.31 4.42-22.37 8.88-32.86A85.797 85.797 0 0 1 2129 1618a91.88 91.88 0 0 0-16.04 28.99c-3.61 10.4-5.91 21.2-6.85 32.17v1.17l-1.07.65c-16.65 10.28-33.65 20.04-50.51 29.94-16.86 9.91-33.86 19.64-50.93 29.2-34.2 19.39-68.74 38.02-103.6 55.88Z"/>
    <path fill="#FAFAFA" d="M2263.95 1444c5.53 14.99-9 37.18-6.7 58.46 2.3 21.29 19.13 22.8 26.35 0 3.26-24.1-14.26-55.16-19.65-58.46Z"/>
    <path fill="#455A64" d="M2126.52 1575c7.6-2.97 12.77-10.24 13.17-18.53.99-9.29.38-19.41-13.69-29.05-14.06-9.63-24.56-6.24-30-3.73Z"/>
    <path fill="#263238" d="M2120.98 1575.92c-2.29-.3-4.49-1.14-6.4-2.45l-14.48-9.69a23.694 23.694 0 0 1-10.08-20.35l1.24-11.21c.2-5.29 4.64-9.42 9.92-9.21.28.01.57.03.84.07 2.31.26 4.51 1.1 6.4 2.45l14.45 9.65a23.868 23.868 0 0 1 10.12 20.36l-1.24 11.21c-.19 5.29-4.62 9.43-9.9 9.24-.29-.01-.58-.03-.87-.07Z"/>
    <path fill="#455A64" d="m2105.64 1528.76 14.15 9.54c5.31 3.85 8.39 10.12 8.2 16.74l-1.17 11.08c-.64 5.76-5.31 7.6-10.46 4.12l-14.15-9.58c-5.34-3.82-8.42-10.11-8.2-16.73l1.18-11.08c.64-5.73 5.34-7.57 10.45-4.09Z"/>
    <path fill="#FFF" d="m2110 1531.62-16 11.38 1.4-12.62 4.52-3.36c2.09-.14 4.16.46 5.82 1.71Zm12 8.35-23.3 17.03a24.63 24.63 0 0 1-1.7-2.35l22.54-16.65c.89.56 1.72 1.22 2.46 1.97Zm5.95 14.95-.24 1.95-15.1 11.13-6.61-4.49 21.03-15.51c.79 2.21 1.1 4.57.92 6.92Z"/>
    <path d="M1777.04 1681c.9 18.55 1 37.13 2.27 55.62.93 9.1 1.58 18.62 5.46 26.79 1.45 4.16 5.13 7.15 9.51 7.7 4.48-.28 8.88-1.45 12.91-3.44 8.69-3.37 17.6-6.13 26.67-8.28a65.867 65.867 0 0 1 27.91-.99c9.31 1.99 17.54 7.4 23.07 15.15A79.688 79.688 0 0 1 1896 1799a78.9 78.9 0 0 0-12.02-24.8 36.907 36.907 0 0 0-22.52-14.36 64.468 64.468 0 0 0-27.22 1.34c-8.95 2.26-17.73 5.12-26.3 8.55-2.15.91-4.35 1.69-6.59 2.34-1.13.37-2.27.68-3.43.93l-3.71.17c-5.04-.7-9.29-4.14-11.02-8.93-3.98-8.76-4.43-18.28-5.25-27.49-1.24-18.62-.9-37.17-.9-55.75Zm154.96-39c.81 22.68.88 45.33 1 67.98l-.25 34.01c0 11.33-.41 22.65-.75 34.01-.38-11.36-.66-22.68-.78-34.01l-.22-34.01c.12-22.58.19-45.3 1-67.98Zm153-87c.81 22.5.88 45 1 67.5l-.25 33.75c-.12 11.25-.37 22.5-.75 33.75-.37-11.25-.66-22.5-.78-33.75l-.22-33.75c.09-22.5.16-45 1-67.5Z"/>
    <path fill="#37474F" d="m1824.61 1715.83 20.78-12.2c4.2-2.45 7.61-2.1 7.61.81s-3.41 7.29-7.61 9.74l-20.78 12.2c-4.2 2.46-7.61 2.07-7.61-.84 0-2.91 3.41-7.25 7.61-9.71Zm126-72.54 20.78-11.72c4.2-2.36 7.61-2.03 7.61.8s-3.41 6.98-7.61 9.34l-20.78 11.72c-4.2 2.36-7.61 2.02-7.61-.77 0-2.8 3.41-7.01 7.61-9.37Z"/>
    <path fill="#0070C0" d="M1711.77 1644.55a50.9 50.9 0 0 0 45.84 0l237.57-136.57c21.09-12.14 21.09-31.86 0-44l-138.58-79.87c-21.1-12.15-55.29-12.15-76.38 0l-237.71 136.56c-12.68 7.27-12.68 19.11 0 26.41Z"/>
    <path fill-opacity=".149" d="M1725.74 1623.05c-38.61-17.73-65.61-32.31-97.51-61.87-31.89-29.56-13.21-68.37 63.82-127.18l-149.55 86.38c-12.67 7.29-12.67 19.15 0 26.47l169.47 97.69a50.963 50.963 0 0 0 45.9 0l79.13-45.58c-.72.24-72.9 41.76-111.26 24.09Z"/>
    <path fill="#FFF" fill-opacity=".302" d="m1995.2 1464.07-138.36-80.04c-14.07-8.14-33.93-10.72-51.87-7.97a65.932 65.932 0 0 1 31.63 6.6c17.87 7.76 69.61 38.45 128.03 70.69 58.43 32.23 35.48 44.12 19.39 53.43-16.09 9.32-200.63 123.51-226.02 138.22l237.2-136.84c21.07-12.17 21.07-31.93 0-44.09Z"/>
    <path fill="#37474F" d="M1524 1789.96v-31.59c0-3.91 2.77-5.54 6.12-3.46l53.09 31.14c2.83 1.89 4.6 5.02 4.79 8.44v31.14c0 3.91-2.77 5.54-6.12 3.46l-53.06-30.69c-2.85-1.87-4.64-5.01-4.82-8.44Z"/>
    <path fill="#F6BB00" d="M1534 1720.61v-4.13c0-4.87 3.42-6.9 7.62-4.42l48.79 28.42c4.49 2.95 7.31 7.88 7.59 13.27v3.76c0 4.86-3.42 6.9-7.62 4.45l-48.76-28.1c-4.5-2.93-7.33-7.85-7.62-13.25Z"/>
    <path fill="#FFF" d="M1676.79 1778.4c-10.81 2.87-23.92 9.54-27.49 24.38-4.33 17.88 2.32 32.92 17.34 36.79 6.41 1.67 22.18-.89 34.66-18.6 8.53-12.14 9.64-31.36 4.96-37.44-4.68-6.09-17.85-8.21-29.47-5.13Zm-214.49-62.6c-2.43 3.42-7.97 3.42-14.3-4.11v-18.56c0-1.92.17-3.87.35-5.79.43-8.27 1.48-16.5 3.13-24.62.58-3.61 1.34-7.19 2.3-10.72 6.43 5.83 10.58 13.69 11.73 22.22 1.25 14.32.1 37.26-3.21 41.58Z"/>
    <path fill="#263238" d="M1473.44 1618.66a296.513 296.513 0 0 1 42.17-59.76c7.33-6.99 18.58-7.87 26.91-2.1a1136.289 1136.289 0 0 0 176.67 101.66c8.47 3.91 12.16 13.94 8.24 22.39-.09.2-.19.39-.29.59a364.722 364.722 0 0 0-24.09 70.54c-1.5 8-9.22 13.27-17.24 11.76-1.06-.19-2.1-.51-3.1-.94-77.13-30.7-145.87-69.13-204.21-117.11-7.61-6.84-9.68-17.92-5.06-27.03Z"/>
    <path fill="#FFF" d="M1688.2 1758c-1.26-.01-2.5-.26-3.67-.72-78.76-31.48-146.77-70.67-202.17-116.48a16.531 16.531 0 0 1-3.74-19.32 291.937 291.937 0 0 1 41.22-58.55c2.65-2.6 6.24-4.02 9.96-3.93 3.14-.02 6.22.91 8.82 2.69a1148.056 1148.056 0 0 0 177.23 102.32c2.58 1.14 4.57 3.28 5.53 5.93.99 2.92.79 6.11-.55 8.88a369.301 369.301 0 0 0-24.31 71.91c-.7 4.1-4.18 7.13-8.32 7.27Z"/>
    <path fill="#FFF" d="M1721.4 1669.6c-.97-2.63-2.96-4.75-5.53-5.88a1162.672 1162.672 0 0 1-153.7-85.72l-85.09 48.91a16.271 16.271 0 0 0 5.26 13.69c55.41 45.49 123.43 84.42 202.2 115.68 1.17.46 2.41.71 3.67.72a8.733 8.733 0 0 0 8.32-7.22 364.41 364.41 0 0 1 24.32-71.42c1.31-2.74 1.51-5.88.55-8.76Z"/>
    <path fill="#0070C0" d="M1443.15 1740.64c2.55 11.93 41.32 49.94 105.83 85.78 64.5 35.84 118.43 64.89 151.05 63.31 32.61-1.59 73.97-29.05 73.97-29.05s-7.96 24.12-8.33 35.22c0 0-33.96 21.43-61.99 23.53-18.57 1.42-42.64 5.07-155.39-60.1-74.94-43.21-97.74-66.86-106.24-85.78-4.31-9.64-4.14-23.81-4-30.12.45-21.36 9.54-23.43 9.54-23.43-4.2 3.86-6.99 8.75-4.44 20.64Z"/>
    <path fill="#0070C0" d="M1448.34 1720c-4.08 3.93-6.87 8.8-4.43 20.7 2.44 11.9 41.23 49.99 105.59 85.86 64.35 35.88 118.16 64.97 150.7 63.38 32.53-1.59 73.8-29.05 73.8-29.05l-3.68-2.03s-41.81 26.63-70.16 26.25c-28.34-.38-66.65-14.66-146.64-61.27-79.99-46.61-101.43-74.96-105.14-84.66Z"/>
    <path d="M2218.64 1400.34c-5.11-3.69-10.6-7.4-16.53-11.19l-.55-.34c-1.96-1.24-3.91-2.41-5.94-3.62l-.82-.48c-1.06-.58-2.19-1.17-3.43-1.79l-8.54-4.57c-72.28-35.69-178.39-40.61-220.55-16.28l-13.28 7.71c18.51-1.34 37.1 1.4 54.44 8.02 30.88 11.08 110.37 59.32 134.31 85.03 23.95 25.7 25.83 43.49 25.83 50.17 30.6-13.76 65.18-27.53 87.52-56.19 13.62-17.42-11.12-40.85-32.46-56.47Z"/>
    <path fill="#20C4FF" d="M2221.2 1463.77c-.24.89-.48 1.79-.79 2.64a6.82 6.82 0 0 1-1.51 2.75c-1.56 1.12-3.4 1.78-5.31 1.92-10.71 2.43-12.16 14.75-20.32 20.58-5.69 4.15-11.3 8.3-17.23 12.25-1.31.89-12.57 8.09-12.57 8.09 0-6.65-1.89-24.42-25.94-50.01-24.04-25.59-104.03-73.72-134.86-84.76a138.092 138.092 0 0 0-46.23-8.4c-2.82-.04-5.64.1-8.44.41 5.86-4.46 11.92-8.44 18.05-12.42 5.37-3.43 8.92-7.99 15.5-9.57 2.36-.35 4.67-.96 6.89-1.82 3.62-1.78 5.72-5.56 8.65-8.37 3.98-3.45 8.94-5.59 14.19-6.1 7.58-.96 14.99.27 22.6-.83 7.61-1.09 15.22-1.68 22.87-2.02 9.75-.4 19.52.3 29.11 2.09 4.12.51 8.11 1.79 11.75 3.77 3.73 2.53 7.78 4.54 12.05 5.97 3.69.71 7.44 1.09 11.2 1.14 10.61.88 20.72 4.9 29.04 11.52 4.42 4.19 9.16 8.02 14.19 11.46 6.89 3.84 14.74 5.07 21.74 8.4 8.59 4.62 16.91 9.74 24.9 15.33 14.68 9.33 23.32 18.87 27.56 28.1a36.471 36.471 0 0 1 2.83 24.01c-1.66 7.65-9.89 6.55-14.85 11.63a26.78 26.78 0 0 0-5.07 12.24Z"/>
    <path fill-opacity=".251" d="M2221.2 1463.77c-.24.89-.48 1.79-.79 2.64a6.82 6.82 0 0 1-1.51 2.75c-1.56 1.12-3.4 1.78-5.31 1.92-10.71 2.43-12.16 14.75-20.32 20.58-5.69 4.15-11.3 8.3-17.23 12.25-1.31.89-12.57 8.09-12.57 8.09 0-6.65-1.89-24.42-25.94-50.01-24.04-25.59-104.03-73.72-134.86-84.76a138.092 138.092 0 0 0-46.23-8.4c-2.82-.04-5.64.1-8.44.41 5.86-4.46 11.92-8.44 18.05-12.42 5.37-3.43 8.92-7.99 15.5-9.57 2.36-.35 4.67-.96 6.89-1.82 3.62-1.78 5.72-5.56 8.65-8.37 3.98-3.45 8.94-5.59 14.19-6.1 7.58-.96 14.99.27 22.6-.83 7.61-1.09 15.22-1.68 22.87-2.02 9.75-.4 19.52.3 29.11 2.09 4.12.51 8.11 1.79 11.75 3.77 3.73 2.53 7.78 4.54 12.05 5.97 3.69.71 7.44 1.09 11.2 1.14 10.61.88 20.72 4.9 29.04 11.52 4.42 4.19 9.16 8.02 14.19 11.46 6.89 3.84 14.74 5.07 21.74 8.4 8.59 4.62 16.91 9.74 24.9 15.33 14.68 9.33 23.32 18.87 27.56 28.1a36.471 36.471 0 0 1 2.83 24.01c-1.66 7.65-9.89 6.55-14.85 11.63a26.78 26.78 0 0 0-5.07 12.24Z"/>
    <path fill="#0070C0" d="M2221.07 1459.84c-.24.89-.48 1.79-.79 2.65a7.185 7.185 0 0 1-1.51 2.78c-1.57 1.11-3.4 1.76-5.31 1.89-10.71 2.44-12.16 14.82-20.32 20.81-5.76 4.23-11.23 8.82-16.4 13.75-1.14 1.07-13.26 11.28-13.26 11.28 0-6.71-1.9-24.52-25.94-50.14-24.05-25.61-103.9-74.2-134.87-84.97-13.43-4.9-27.54-7.72-41.82-8.35-4.29-.12-8.58-.01-12.85.34 5.86-4.47 11.92-13 18.05-16.99 5.37-3.43 8.92-7.97 15.5-9.56 2.36-.35 4.67-.96 6.89-1.82 3.62-1.82 5.72-5.6 8.65-8.39a24.96 24.96 0 0 1 14.19-6.12c7.58-.96 14.99.24 22.6-.83 7.61-1.06 15.23-1.68 22.87-2.06 9.76-.41 19.53.31 29.11 2.13 4.13.47 8.12 1.76 11.75 3.79 3.73 2.51 7.79 4.51 12.06 5.95 3.69.7 7.43 1.09 11.19 1.16 10.62.88 20.73 4.9 29.04 11.56 4.43 4.17 9.18 8 14.2 11.45 6.89 3.89 14.74 5.09 21.73 8.46 8.62 4.6 16.93 9.73 24.91 15.37 14.67 9.35 23.32 18.91 27.56 28.13a36.768 36.768 0 0 1 2.82 24.07c-1.65 7.67-9.88 6.53-14.84 11.62-2.7 3.53-4.49 7.66-5.21 12.04Z"/>
    <path fill="#002060" d="M2206.73 1456.65c-2.93-2.59-5.62-5.28-8.79-7.59-3.17-2.31-6.17-4.45-9.27-6.63-6.14-4.21-12.27-8.35-18.55-12.28-12.54-7.94-25.3-15.5-38.22-22.78-25.89-14.57-52.4-27.96-79.29-40.77-7.41-3.45-14.82-6.9-22.3-10.35-8.31-3.8-16.58-7.8-25.1-11.15-1.34-.55-1.62 1.28-.58 1.87 6.44 3.65 13.2 6.69 19.82 9.97 6.62 3.28 13.41 6.63 20.1 9.87 13.51 6.63 26.96 13.35 40.36 20.16 26.54 13.53 52.74 27.85 78.04 43.59 6.9 4.35 13.79 8.73 20.69 13.25l10.34 6.73c4 2.66 8.13 4.94 12.24 7.39.82.38 1-.86.51-1.28Zm.81-32.36c-5.17-4.05-10.65-7.67-16.41-10.84-5.46-3.41-10.96-6.52-16.5-9.74-11.1-6.42-22.3-12.68-33.63-18.79-22.52-12.17-45.32-23.92-68.59-34.79-12.84-5.95-25.8-11.64-38.89-17.09-.79-.31-.59 1.16 0 1.44 45.8 22.96 91.56 45.86 136.26 70.87l18.5 10.46a187.46 187.46 0 0 0 18.95 10.05c1.13.65.82-1.13.31-1.57Z"/>
    <path fill="#0070C0" d="m1780 1384-150 28.71 3.66 5.29 130.97-25.19L1780 1384Zm-147 34.35v50.51l-3 2.14v-58l3 5.35Z"/>
    <path fill="#0070C0" d="m1765 1393-132 25.12V1468l7.83-4.08v-21.79c0-10.14 7.21-18.87 17.26-20.94l90.69-18.93Z"/>
    <path fill="#37474F" d="m1749 1402-108 62v-21.81c0-10.21 7.22-19 17.27-21.06Z"/>
    <path fill="#C40067" d="m2823.61 1407.49 58.94-34.52a8.547 8.547 0 0 1 7.9 0l58.94 34.52c.91.42 1.53 1.31 1.61 2.32v4.34a2.83 2.83 0 0 1-1.61 2.33l-58.94 34.55a8.547 8.547 0 0 1-7.9 0l-58.94-34.69a2.817 2.817 0 0 1-1.61-2.33v-4.33c.13-.97.74-1.79 1.61-2.19Z"/>
    <path fill="#E60078" d="m2890.45 1446.04 58.92-34.23a2.445 2.445 0 0 0 1.49-3.12c-.24-.7-.79-1.25-1.49-1.49l-58.92-34.27a8.853 8.853 0 0 0-7.9 0l-58.92 34.27a2.434 2.434 0 0 0-1.49 3.11c.24.71.79 1.26 1.49 1.5l58.92 34.23a8.606 8.606 0 0 0 7.9 0Z"/>
    <path fill="#E60078" d="m2849.76 1401.86 26.36-88.45a6.893 6.893 0 0 1 2.87-3.41 15.14 15.14 0 0 1 15.05 0 6.6 6.6 0 0 1 2.84 3.41l26.37 88.52c2.42 7.69-.97 15.99-10.38 21.97-16.41 9.47-36.71 9.47-53.11 0-9.03-6.05-12.42-14.35-10-22.04Z"/>
    <path fill="#FAFAFA" d="m2919 1388.12-12.16-41.12c-8.37 10.84-32.07 10.32-40.68 0l-12.16 41.12a46.082 46.082 0 0 0 17.28 12.04 41.795 41.795 0 0 0 30.3 0 46.274 46.274 0 0 0 17.42-12.04Z"/>
    <path fill-opacity=".102" d="M2886.21 1307c2.67-.05 5.31.64 7.6 2 1.33.79 2.34 2.01 2.86 3.45l26.57 89.23c2.44 7.75-.98 16.12-10.46 22.15a50.38 50.38 0 0 1-26.78 7.16h.24c12-2.13 20.09-14.91 18.41-28.35l-11.05-88.82Z"/>
    <path fill="#C40067" d="M2893.93 1318.96c2.67-1.29 3.82-4.56 2.56-7.3a5.431 5.431 0 0 0-2.56-2.62 14.55 14.55 0 0 0-14.86 0c-2.67 1.29-3.82 4.56-2.56 7.3a5.431 5.431 0 0 0 2.56 2.62 14.55 14.55 0 0 0 14.86 0Z"/>
    <path fill="#E0E0E0" d="m2436.47 1760.93 66.67-38.35c2.48-1.44 2.48-3.74 0-5.14l-66.67-38.39c-2.83-1.4-6.15-1.4-8.97 0l-66.64 38.39c-2.48 1.4-2.48 3.7 0 5.14l66.67 38.35a9.851 9.851 0 0 0 8.94 0Z"/>
    <path fill="#C40067" d="m2369.61 1711.05 58.94-34.09a8.606 8.606 0 0 1 7.9 0l58.94 34.09c.91.41 1.53 1.29 1.61 2.29v4.28c-.08 1-.7 1.88-1.61 2.3l-58.94 34.12a8.606 8.606 0 0 1-7.9 0l-58.94-34.26a2.77 2.77 0 0 1-1.61-2.29v-4.29c.13-.94.74-1.76 1.61-2.15Z"/>
    <path fill="#E60078" d="m2436.45 1749.06 58.92-33.78a2.405 2.405 0 0 0 0-4.55l-58.92-33.81a8.983 8.983 0 0 0-7.9 0l-58.92 33.81a2.394 2.394 0 0 0-1.49 3.07c.24.7.79 1.24 1.49 1.48l58.92 33.78a8.79 8.79 0 0 0 7.9 0Z"/>
    <path fill="#E60078" d="m2395.76 1705.62 26.36-89.16a6.986 6.986 0 0 1 2.87-3.45c4.66-2.68 10.4-2.68 15.05 0a6.65 6.65 0 0 1 2.84 3.45l26.37 89.23c2.42 7.75-.97 16.13-10.38 22.15-16.41 9.55-36.71 9.55-53.11 0-9.03-6.09-12.42-14.47-10-22.22Z"/>
    <path fill="#FAFAFA" d="m2465 1691.12-12.16-41.12c-8.37 10.84-32.07 10.32-40.68 0l-12.16 41.12a46.082 46.082 0 0 0 17.28 12.04 41.795 41.795 0 0 0 30.3 0 46.274 46.274 0 0 0 17.42-12.04Z"/>
    <path fill-opacity=".102" d="M2432.21 1611c2.67-.05 5.31.64 7.6 1.99 1.33.78 2.34 1.98 2.86 3.41l26.57 88.51c2.44 7.69-.98 15.99-10.46 21.97-8.06 4.81-17.35 7.27-26.78 7.11h.24c12-2.12 20.09-14.79 18.41-28.12l-11.05-88.1Z"/>
    <path fill="#C40067" d="M2439.93 1622.96c2.67-1.29 3.82-4.56 2.56-7.3a5.431 5.431 0 0 0-2.56-2.62 14.55 14.55 0 0 0-14.86 0c-2.67 1.29-3.82 4.56-2.56 7.3a5.431 5.431 0 0 0 2.56 2.62 14.55 14.55 0 0 0 14.86 0Z"/>
    <path fill="#FFF" d="M2390.5 1406.66c16.84-9.63 30.5.38 30.5 22.4s-13.66 47.66-30.5 57.28c-16.84 9.63-30.5-.41-30.5-22.43 0-22.01 13.66-47.62 30.5-57.25Z"/>
  </g>
</svg>
