<svg xmlns="http://www.w3.org/2000/svg" overflow="hidden" viewBox="0 0 96 96">
  <defs>
    <clipPath id="a">
      <path d="M710 573h96v96h-96z"/>
    </clipPath>
  </defs>
  <g fill="#0070C0" clip-path="url(#a)" transform="translate(-710 -573)">
    <path d="M758.005 590c-17.121 0-31 13.879-31 31 0 17.121 13.879 31 31 31 17.121 0 31-13.879 31-31-.02-17.113-13.887-30.98-31-31Zm0 41c-5.523 0-10-4.477-10-10s4.477-10 10-10 10 4.477 10 10c-.006 5.52-4.48 9.994-10 10Zm-11.851-8.205-15.846-10.399a28.888 28.888 0 0 1 2.774-6.202l17.539 5.367a11.8 11.8 0 0 0-4.467 11.234Zm19.235-11.234 17.538-5.367a28.892 28.892 0 0 1 2.775 6.202l-15.846 10.399a11.802 11.802 0 0 0-4.467-11.234ZM758.005 592a28.983 28.983 0 0 1 23.792 12.449l-18.674 5.714a11.843 11.843 0 0 0-10.237 0l-18.674-5.715A28.986 28.986 0 0 1 758.005 592Zm-29 29c.001-2.211.256-4.415.759-6.569l17.215 11.297a12.038 12.038 0 0 0 2.837 4.019l2.821 19.747c-13.694-2.597-23.613-14.556-23.632-28.494Zm25.696 28.806-2.626-18.387a11.912 11.912 0 0 0 11.86 0l-2.627 18.387a28.188 28.188 0 0 1-6.607 0Zm8.672-.312 2.821-19.747a12.038 12.038 0 0 0 2.837-4.019l17.214-11.297c3.64 15.58-6.039 31.16-21.619 34.799a29.32 29.32 0 0 1-1.253.264Z"/>
    <path d="M758.005 615a6 6 0 1 0 6 6 6.007 6.007 0 0 0-6-6Zm0 10a4 4 0 1 1 0-8 4 4 0 0 1 0 8Z"/>
    <path d="M758.005 583c-20.987 0-38 17.013-38 38s17.013 38 38 38 38-17.013 38-38-17.013-38-38-38Zm0 74c-19.883 0-36-16.118-36-36s16.117-36 36-36c19.882 0 36 16.118 36 36-.023 19.873-16.127 35.978-36 36Z"/>
  </g>
</svg>
