<svg width="1120" height="807" xmlns="http://www.w3.org/2000/svg" xmlns:xlink="http://www.w3.org/1999/xlink" overflow="hidden"><defs><clipPath id="clip0"><rect x="1183" y="903" width="1120" height="807"/></clipPath></defs><g clip-path="url(#clip0)" transform="translate(-1183 -903)"><path d="M2303 1671.5C2303 1692.76 2053.62 1710 1746 1710 1438.38 1710 1189 1692.76 1189 1671.5 1189 1650.24 1438.38 1633 1746 1633 2053.62 1633 2303 1650.24 2303 1671.5Z" fill="#F5F5F5" fill-rule="evenodd"/><path d="M2277 1565 1679 1565 1679 1379 2206.11 1379 2255.31 1418.9C2269.08 1430.05 2277.05 1446.82 2277 1464.52Z" fill="#49B0FF" fill-rule="evenodd"/><path d="M2277 1565 1679 1565 1679 1379 2206.11 1379 2255.31 1418.9C2269.08 1430.05 2277.05 1446.82 2277 1464.52Z" fill="#000000" fill-rule="evenodd" fill-opacity="0.501961"/><path d="M1675.03 1547.98C1675.03 1480.06 1706.01 1425 1743.86 1425L1670.83 1425C1632.73 1425 1602 1479.92 1602 1547.98 1602 1616.05 1632.97 1671 1670.83 1671L1744 1671C1705.83 1671 1675.03 1615.91 1675.03 1547.98Z" fill="#263238" fill-rule="evenodd"/><path d="M1813 1548C1813 1615.93 1782.11 1671 1744 1671 1705.89 1671 1675 1615.93 1675 1548 1675 1480.07 1705.89 1425 1744 1425 1782.11 1425 1813 1480.07 1813 1548Z" fill="#263238" fill-rule="evenodd"/><path d="M1799 1548C1799 1601.02 1777.06 1644 1750 1644 1722.94 1644 1701 1601.02 1701 1548 1701 1494.98 1722.94 1452 1750 1452 1777.06 1452 1799 1494.98 1799 1548Z" fill="#FFFFFF" fill-rule="evenodd"/><path d="M1278.03 1547.98C1278.03 1480.06 1309.01 1425 1346.86 1425L1273.83 1425C1235.73 1425 1205 1479.92 1205 1547.98 1205 1616.05 1235.97 1671 1273.83 1671L1347 1671C1308.9 1671 1278.03 1615.91 1278.03 1547.98Z" fill="#263238" fill-rule="evenodd"/><path d="M1416 1548C1416 1615.93 1385.11 1671 1347 1671 1308.89 1671 1278 1615.93 1278 1548 1278 1480.07 1308.89 1425 1347 1425 1385.11 1425 1416 1480.07 1416 1548Z" fill="#263238" fill-rule="evenodd"/><path d="M2147.52 1547.98C2147.52 1480.06 2178.27 1425 2215.86 1425L2143.35 1425C2105.55 1425 2075 1479.92 2075 1547.98 2075 1616.05 2105.76 1671 2143.35 1671L2216 1671C2178.2 1671 2147.52 1615.91 2147.52 1547.98Z" fill="#263238" fill-rule="evenodd"/><path d="M2285 1548C2285 1615.93 2254.11 1671 2216 1671 2177.89 1671 2147 1615.93 2147 1548 2147 1480.07 2177.89 1425 2216 1425 2254.11 1425 2285 1480.07 2285 1548Z" fill="#263238" fill-rule="evenodd"/><path d="M2271 1548C2271 1601.02 2249.06 1644 2222 1644 2194.94 1644 2173 1601.02 2173 1548 2173 1494.98 2194.94 1452 2222 1452 2249.06 1452 2271 1494.98 2271 1548Z" fill="#FFFFFF" fill-rule="evenodd"/><path d="M1593.88 1583 1505.55 1583 1500.6 1578.16C1495.52 1573.03 1488.62 1570.14 1481.43 1570.13L1260.65 1570.13C1253.45 1570.14 1246.56 1573.03 1241.48 1578.16L1238.45 1581.17 1230.41 1581.17C1204.23 1581.17 1183 1559.79 1183 1533.42 1183 1533.34 1183 1533.26 1183 1533.18L1183 1460 1684 1460 1644.15 1547.26C1636.61 1568.7 1616.47 1583.03 1593.88 1583Z" fill="#49B0FF" fill-rule="evenodd"/><path d="M1593.88 1583 1505.55 1583 1500.6 1578.16C1495.52 1573.03 1488.62 1570.14 1481.43 1570.13L1260.65 1570.13C1253.45 1570.14 1246.56 1573.03 1241.48 1578.16L1238.45 1581.17 1230.41 1581.17C1204.23 1581.17 1183 1559.79 1183 1533.42 1183 1533.34 1183 1533.26 1183 1533.18L1183 1460 1684 1460 1644.15 1547.26C1636.61 1568.7 1616.47 1583.03 1593.88 1583Z" fill="#000000" fill-rule="evenodd" fill-opacity="0.2"/><path d="M2115.75 1150C2115.44 1150.01 2115.13 1149.92 2114.87 1149.76 2114.05 1149.32 2113.76 1148.31 2114.22 1147.51 2114.23 1147.5 2114.24 1147.48 2114.25 1147.47L2138.67 1106.99C2139.06 1106.14 2140.1 1105.77 2140.97 1106.15 2141.85 1106.53 2142.24 1107.53 2141.84 1108.38 2141.8 1108.49 2141.74 1108.59 2141.67 1108.68L2117.25 1149.16C2116.94 1149.68 2116.36 1150 2115.75 1150Z" fill="#263238" fill-rule="evenodd"/><path d="M2243 1355.61 2243 1308.8C2243 1284.19 2207.17 1168.09 2157.9 1146.33 2108.63 1124.57 1989.43 1114.89 1914.35 1118.88 1839.26 1122.86 1739 1279.63 1739 1279.63L1749.9 1414.43C1765.16 1414.43 1813.78 1409.83 1820.9 1543.2 1821.89 1562.73 1838.06 1578.04 1857.65 1578L2120.53 1578C2138.79 1577.99 2154.25 1564.55 2156.77 1546.5 2163.65 1498.96 2181.59 1414.33 2224.88 1414.33 2255.24 1414.33 2277 1440.28 2277 1470.03L2277 1470.03C2277.01 1437.34 2269.06 1405.14 2253.83 1376.2Z" fill="#49B0FF" fill-rule="evenodd"/><path d="M1638.74 1119C1501.96 1119 1347 1280 1347 1280L1738.61 1280C1738.61 1280 1838.79 1123.02 1914 1119Z" fill="#49B0FF" fill-rule="evenodd"/><path d="M1647.13 1134C1531.92 1134 1411.07 1237.61 1375.82 1270.24 1373.37 1272.5 1373.4 1276.13 1375.89 1278.35 1377.08 1279.42 1378.69 1280.01 1380.36 1280L1696.27 1280C1722.06 1280.07 1746.34 1268.97 1761.61 1250.14 1795.59 1208.18 1861.04 1136.59 1914 1134Z" fill="#FFFFFF" fill-rule="evenodd" fill-opacity="0.870588"/><path d="M1739.1 1280 1594.5 1393.56 1205.35 1392.32C1205.35 1392.32 1183 1424.66 1183 1460L1684.33 1460C1692.55 1438.34 1721.36 1414.39 1750 1414.39 1750 1374.09 1739.1 1280 1739.1 1280Z" fill="#49B0FF" fill-rule="evenodd"/><path d="M1644.69 1360C1643.85 1359.99 1643.13 1359.36 1643.02 1358.52 1642.89 1357.59 1643.53 1356.73 1644.45 1356.59 1678.97 1350.94 1711.27 1335.79 1737.79 1312.8 1748.65 1303.59 1750.8 1287.57 1742.75 1275.78 1742.17 1275.03 1742.3 1273.94 1743.05 1273.36 1743.8 1272.78 1744.87 1272.92 1745.45 1273.67 1745.48 1273.71 1745.52 1273.76 1745.55 1273.81 1754.58 1287.07 1752.17 1305.06 1739.98 1315.42 1713 1338.84 1680.11 1354.26 1644.96 1359.97Z" fill="#000000" fill-rule="evenodd" fill-opacity="0.2"/><path d="M1205 1392.76C1205 1392.76 1273.38 1313.18 1347.33 1280L1739 1280 1594.33 1394Z" fill="#49B0FF" fill-rule="evenodd"/><path d="M1251 1392 1508 1392 1508 1400 1251 1400Z" fill="#263238" fill-rule="evenodd"/><path d="M1502.64 1377.1 1516.41 1363.33C1519.51 1360.24 1523.43 1358.1 1527.71 1357.17L1631.71 1334.52C1635.36 1333.72 1639.16 1333.84 1642.76 1334.87L1648.33 1336.42C1660.49 1339.84 1667.56 1352.46 1664.14 1364.61 1663.22 1367.88 1661.58 1370.9 1659.35 1373.45L1636.97 1399.03C1633.12 1403.43 1627.72 1406.19 1621.89 1406.74L1520.92 1415.9C1514.17 1416.54 1507.48 1414.14 1502.68 1409.36L1502.68 1409.36C1493.79 1400.45 1493.77 1386.03 1502.64 1377.1Z" fill="#FFFFFF" fill-rule="evenodd"/><path d="M1258.7 1384.81 1247.28 1363.77C1245.67 1360.83 1243.29 1358.36 1240.38 1356.63L1240.38 1356.63C1234.76 1353.31 1227.79 1353.12 1221.99 1356.12L1213.33 1360.61C1209.08 1362.83 1205.84 1366.56 1204.29 1371.05L1199.01 1386.45C1195.66 1396.13 1200.91 1406.66 1210.74 1409.96 1211.67 1410.28 1212.63 1410.52 1213.61 1410.68L1237.45 1414.73C1245.42 1416.09 1253.38 1412.27 1257.21 1405.24L1258.8 1402.35C1261.77 1396.86 1261.73 1390.27 1258.7 1384.81Z" fill="#FFFFFF" fill-rule="evenodd"/><path d="M1819.14 1284 2180.36 1284C2191.2 1284.01 2199.99 1275.24 2200 1264.42 2200 1262.5 2199.72 1260.59 2199.17 1258.76 2190.93 1231.36 2175.15 1188.51 2151.44 1166.66 2148.8 1164.25 2145.57 1162.6 2142.07 1161.87 2099.49 1152.86 2031.04 1146.87 1980.26 1143.37 1933.68 1140.19 1888.04 1157.51 1855.34 1190.77 1836.02 1210.26 1818.57 1231.5 1803.22 1254.24 1797.35 1263.04 1799.73 1274.92 1808.55 1280.79 1811.68 1282.87 1815.37 1283.99 1819.14 1284Z" fill="#FFFFFF" fill-rule="evenodd" fill-opacity="0.811765"/><path d="M1585 1500.48C1585 1511.79 1573.35 1521 1559 1521 1544.65 1521 1533 1511.79 1533 1500.48 1533 1489.17 1544.61 1480 1559 1480 1573.39 1480 1585 1489.17 1585 1500.48Z" fill="#263238" fill-rule="evenodd"/><path d="M1377.61 1377C1386.07 1377 1390.2 1385.51 1386.83 1395.98 1383.45 1406.45 1373.89 1415 1365.4 1415 1356.9 1415 1352.81 1406.49 1356.18 1395.98 1359.55 1385.48 1369.15 1377 1377.61 1377Z" fill="#263238" fill-rule="evenodd"/><path d="M1204 1500.48C1204 1511.79 1200.45 1521 1196.52 1521 1192.58 1521 1189 1511.79 1189 1500.48 1189 1489.17 1192.55 1480 1196.52 1480 1200.49 1480 1204 1489.17 1204 1500.48Z" fill="#263238" fill-rule="evenodd"/><path d="M1808 1280.75 1808 1269.24C1807.99 1256.97 1818 1247.01 1830.37 1247 1831.92 1247 1833.46 1247.16 1834.98 1247.47L1879.15 1256.59C1889.55 1258.75 1897 1267.83 1897 1278.36L1897 1280.75C1897 1293.03 1886.98 1302.98 1874.6 1303L1830.43 1303C1818.04 1303 1808 1293.04 1808 1280.75Z" fill="#263238" fill-rule="evenodd"/><path d="M2039.28 1147.48C2039.28 1147.48 2033.34 1146.89 2023 1146 2068.74 1238.94 2057.08 1284 2057.08 1284L2092 1284C2092.35 1227.41 2039.28 1147.48 2039.28 1147.48Z" fill="#263238" fill-rule="evenodd"/><path d="M1657.29 1242.49C1655.85 1257.51 1643.18 1268.98 1628.03 1269L1450.21 1269C1437.24 1269 1432.54 1254.58 1441.94 1243.86 1458.9 1224.62 1477.32 1206.71 1497.04 1190.29 1530.53 1162.21 1572.11 1147.62 1610.98 1150.32L1625.66 1151.38C1638.68 1152.39 1649.48 1161.8 1652.22 1174.51 1657.4 1196.77 1659.12 1219.7 1657.29 1242.49Z" fill="#FFFFFF" fill-rule="evenodd" fill-opacity="0.2"/><path d="M2061.71 1554C2060.77 1554 2060 1553.23 2060 1552.28 2060 1517.49 2077.64 1374.02 2082.26 1352.53 2086.74 1331.66 2086.74 1308.35 2082.26 1293.19 2081.99 1292.28 2082.51 1291.33 2083.42 1291.06 2084.32 1290.82 2085.26 1291.33 2085.54 1292.23 2090.15 1307.91 2090.15 1331.87 2085.54 1353.26 2080.92 1374.64 2063.35 1517.63 2063.35 1552.28 2063.35 1553.2 2062.63 1553.96 2061.71 1554Z" fill="#000000" fill-rule="evenodd" fill-opacity="0.2"/><path d="M2056.66 1354 2015.29 1354C2012.46 1354.09 2010.09 1351.91 2010 1349.14 2009.99 1348.71 2010.03 1348.27 2010.13 1347.84L2010.98 1343.16C2011.69 1339.68 2014.73 1337.13 2018.34 1337L2059.71 1337C2062.54 1336.91 2064.91 1339.09 2065 1341.86 2065.01 1342.29 2064.97 1342.73 2064.87 1343.16L2064.02 1347.84C2063.31 1351.32 2060.27 1353.87 2056.66 1354Z" fill="#000000" fill-rule="evenodd" fill-opacity="0.2"/><path d="M1676 1053 1672.57 1053C1672.57 1044.26 1671.31 1035.56 1668.82 1027.17L1672.26 1026.21C1674.79 1034.91 1676.05 1043.94 1676 1053ZM1661.2 1009.07C1645.19 980.328 1614.89 962.489 1582 962.434L1582 959C1616.15 959.034 1647.6 977.565 1664.19 1007.43Z" fill="#0070C0" fill-rule="evenodd"/><path d="M1581.97 971C1536.69 971.019 1500 1007.7 1500 1052.94 1500 1131.9 1581.97 1186 1581.97 1186 1581.97 1186 1664 1131.86 1664 1052.94 1663.98 1007.68 1627.26 971 1581.97 971ZM1581.97 1091.53C1560.83 1091.51 1543.71 1074.37 1543.73 1053.25 1543.75 1032.13 1560.9 1015.02 1582.03 1015.04 1603.16 1015.06 1620.27 1032.18 1620.27 1053.29 1620.27 1074.41 1603.14 1091.53 1582 1091.53 1581.99 1091.53 1581.98 1091.53 1581.97 1091.53Z" fill="#0070C0" fill-rule="evenodd"/><path d="M1943 1666 1963.96 1665.66 1970 1618 1949.07 1618.34 1943 1666Z" fill="#FF8B7B" fill-rule="evenodd"/><path d="M2042.26 1665 2062 1658.82 2049.74 1613 2030 1619.22 2042.26 1665Z" fill="#FF8B7B" fill-rule="evenodd"/><path d="M2061.44 1652.27 2038.96 1664.04C2038.21 1664.45 2037.84 1665.33 2038.07 1666.17L2042.88 1684.71C2043.3 1686.35 2044.96 1687.33 2046.57 1686.9 2046.81 1686.84 2047.03 1686.75 2047.24 1686.63 2054.43 1682.72 2059.48 1679.65 2068.59 1674.72 2074.19 1671.79 2091.38 1663.55 2099.11 1659.46 2106.84 1655.38 2103.92 1647.1 2100.42 1648.08 2084.61 1652.37 2071.68 1653.63 2065.01 1651.85 2063.81 1651.53 2062.54 1651.68 2061.44 1652.27Z" fill="#263238" fill-rule="evenodd"/><path d="M1964.37 1663 1941.63 1663.38C1940.78 1663.4 1940.07 1664 1939.9 1664.83L1936.07 1683.35C1935.71 1684.96 1936.73 1686.57 1938.35 1686.93 1938.6 1686.98 1938.85 1687.01 1939.11 1687 1947.32 1686.72 1959.16 1686.07 1969.47 1685.9 1981.51 1685.72 1985.03 1686.21 1999.18 1685.9 2007.7 1685.9 2009.95 1677.08 2006.36 1676.36 1990 1672.92 1983.62 1672.92 1969.44 1664.45 1967.9 1663.54 1966.15 1663.04 1964.37 1663Z" fill="#263238" fill-rule="evenodd"/><path d="M1996.26 1035C2000.95 1044.46 2006.26 1054.48 2011.56 1064.01 2016.87 1073.54 2022.49 1083.04 2028.48 1091.96 2030.02 1094.16 2031.46 1096.46 2033.04 1098.56L2036.91 1103.86C2037.7 1104.9 2038.14 1105.38 2038.28 1105.62 2038.42 1105.86 2038.48 1106.2 2039.48 1106.27 2043.11 1105.61 2046.5 1103.94 2049.24 1101.45 2051.12 1100.01 2053.04 1098.36 2054.92 1096.6 2056.81 1094.85 2058.69 1092.82 2060.33 1091.2L2074 1098.84C2072.86 1101.88 2071.51 1104.83 2069.96 1107.68 2068.43 1110.6 2066.67 1113.39 2064.68 1116.01 2062.58 1118.88 2060.17 1121.51 2057.49 1123.86 2054.32 1126.7 2050.63 1128.91 2046.64 1130.36 2041.63 1132.2 2036.19 1132.5 2031.02 1131.22 2026.17 1130.03 2021.68 1127.67 2017.93 1124.34 2017.11 1123.64 2016.32 1122.89 2015.57 1122.1L2014.48 1120.97 2013.69 1120.07 2010.67 1116.63C2008.65 1114.33 2006.8 1111.95 2004.89 1109.75 1997.57 1100.3 1990.82 1090.41 1984.68 1080.15 1981.67 1075.06 1978.69 1069.83 1975.95 1064.7 1973.21 1059.57 1970.53 1054.38 1968 1048.56Z" fill="#FF8B7B" fill-rule="evenodd"/><path d="M1958.55 1035.25C1952.94 1054.25 1992.3 1106 1992.3 1106L2032 1080.52C2024.53 1064.06 2015.31 1048.45 2004.5 1033.95 1988.24 1013.27 1964.66 1014.37 1958.55 1035.25Z" fill="#49B0FF" fill-rule="evenodd"/><path d="M1958.55 1035.25C1952.94 1054.25 1992.3 1106 1992.3 1106L2032 1080.52C2024.53 1064.06 2015.31 1048.45 2004.5 1033.95 1988.24 1013.27 1964.66 1014.37 1958.55 1035.25Z" fill="#FF0083" fill-rule="evenodd"/><path d="M1982.68 1057.39C1990.79 1060.82 2002.77 1080.54 2009 1095.18L1992.23 1106C1982.84 1093.43 1974.41 1080.16 1967 1066.32 1972.31 1060.41 1978.36 1055.57 1982.68 1057.39Z" fill="#000000" fill-rule="evenodd" fill-opacity="0.2"/><path d="M2058 1094.72 2072.41 1071 2085 1091.46C2081.97 1096.91 2077.05 1101.03 2071.21 1103Z" fill="#B55B52" fill-rule="evenodd"/><path d="M2092 1071.45 2092 1078.91C2092 1081.24 2091.22 1083.49 2089.8 1085.29L2084.56 1092 2072 1071.2 2084.98 1066.31C2087.72 1065.31 2090.73 1066.8 2091.7 1069.64 2091.9 1070.22 2092 1070.83 2092 1071.45Z" fill="#FF8B7B" fill-rule="evenodd"/><path d="M2078.53 1101 2056 1100.66 2068.47 1054 2091 1054.34 2078.53 1101Z" fill="#49B0FF" fill-rule="evenodd"/><path d="M2080.53 1101 2058 1100.66 2070.47 1054 2093 1054.34 2080.53 1101Z" fill="#263238" fill-rule="evenodd"/><path d="M1970 1618 1966.89 1642.66 1946 1643 1949.11 1618.31 1970 1618Z" fill="#000000" fill-rule="evenodd" fill-opacity="0.2"/><path d="M2030 1619.25 2049.72 1613 2056 1636.75 2036.28 1643 2030 1619.25Z" fill="#000000" fill-rule="evenodd" fill-opacity="0.2"/><path d="M1871.52 1045.37C1888.48 1118.19 1884.8 1190.42 1886.66 1206L1997.38 1197.76C2008.01 1079.41 1982.83 1019.33 1982.83 1019.33 1982.83 1019.33 1975.71 1017.96 1966.05 1016.96 1963.02 1016.65 1959.72 1016.38 1956.31 1016.21 1954.42 1016.21 1952.53 1016.03 1950.57 1016 1934.83 1016.24 1919.12 1017.39 1903.51 1019.43 1900.55 1019.81 1897.56 1020.22 1894.64 1020.7L1886.79 1022.14 1886.48 1022.14C1876.07 1024.21 1869.3 1034.31 1871.37 1044.7 1871.42 1044.92 1871.47 1045.15 1871.52 1045.37Z" fill="#49B0FF" fill-rule="evenodd"/><path d="M1871.52 1045.37C1888.48 1118.19 1884.8 1190.42 1886.66 1206L1997.38 1197.76C2008.01 1079.41 1982.83 1019.33 1982.83 1019.33 1982.83 1019.33 1975.71 1017.96 1966.05 1016.96 1963.02 1016.65 1959.72 1016.38 1956.31 1016.21 1954.42 1016.21 1952.53 1016.03 1950.57 1016 1934.83 1016.24 1919.12 1017.39 1903.51 1019.43 1900.55 1019.81 1897.56 1020.22 1894.64 1020.7L1886.79 1022.14 1886.48 1022.14C1876.07 1024.21 1869.3 1034.31 1871.37 1044.7 1871.42 1044.92 1871.47 1045.15 1871.52 1045.37Z" fill="#FF0083" fill-rule="evenodd"/><path d="M1889.65 1060 1877 1076.56C1877.02 1076.77 1877.02 1076.98 1877 1077.19 1878.78 1088.42 1880.15 1099.4 1881.17 1110 1893.31 1094.76 1891.53 1067.25 1889.65 1060Z" fill="#000000" fill-rule="evenodd" fill-opacity="0.2"/><path d="M1908.45 987.206C1911.07 998.314 1910.9 1010.66 1903 1019.5 1911.75 1027.04 1923.09 1035.65 1940.94 1034.96 1958.78 1034.28 1954.8 1022.14 1949.59 1016 1934.36 1013.54 1934.33 1003.56 1934.19 992.589 1934.18 990.311 1932.71 988.303 1930.55 987.618L1913.8 982.201C1911.59 981.493 1909.23 982.716 1908.53 984.935 1908.3 985.67 1908.27 986.456 1908.45 987.206Z" fill="#FF8B7B" fill-rule="evenodd"/><path d="M1934.04 993 1917 995.17C1917.38 995.916 1917.86 996.627 1918.31 997.339 1921.54 1002.42 1928.63 1005.78 1936 1007 1934.41 1002.51 1933.74 997.749 1934.04 993Z" fill="#000000" fill-rule="evenodd" fill-opacity="0.2"/><path d="M1957 948.843C1966.21 950.451 1983.42 939.543 1979.4 925 1974.25 931.747 1957 929.475 1957 929.475Z" fill="#263238" fill-rule="evenodd"/><path d="M1919.94 964.104C1920.97 973.411 1909.11 989.982 1895 985.128 1901.92 980.374 1900.81 963 1900.81 963Z" fill="#263238" fill-rule="evenodd"/><path d="M1905.49 945.761C1902.92 966.142 1900.35 977.979 1908.73 990.366 1921.27 1008.79 1948.25 1004.09 1956.94 984.979 1964.76 967.823 1967.64 937.252 1949.15 925.517 1935.99 917.092 1918.41 920.792 1909.87 933.781 1907.5 937.39 1906 941.489 1905.49 945.761Z" fill="#FF8B7B" fill-rule="evenodd"/><path d="M1903.34 966.179C1908.32 971.454 1922.01 949.904 1919.5 942.042 1924.65 944.318 1934.53 939.973 1933.91 931.422 1949.32 939.698 1971.65 946.249 1971.99 931.422 1972.34 916.596 1958.27 905.389 1944.55 904.217 1946.19 908.665 1941.84 910.562 1932.88 908.665 1923.93 906.768 1889.41 890.804 1893.22 922.699 1880.32 923.457 1878.64 939.87 1903.34 966.179Z" fill="#263238" fill-rule="evenodd"/><path d="M1893.18 957.535C1893.88 962.656 1896.55 967.285 1900.6 970.407 1905.99 974.492 1909.36 970.167 1909.87 963.714 1910.34 957.878 1909.87 948.748 1903.43 947.203 1898.79 946.173 1894.21 949.167 1893.2 953.89 1892.94 955.091 1892.93 956.332 1893.18 957.535Z" fill="#FF8B7B" fill-rule="evenodd"/><path d="M1924.1 1203.39 1996.33 1198C1996.33 1198 2005.68 1347.14 2004.96 1410.36 2004.24 1476.16 1974.24 1637.45 1974.24 1637.45L1939.36 1638C1939.36 1638 1942.12 1481.55 1942.12 1416.95 1942.12 1329.97 1924 1203.39 1924 1203.39" fill="#005EA4" fill-rule="evenodd"/><path d="M1952 1358C1952.97 1362.3 1980.36 1483.37 1989.2 1554 1993.89 1524.63 1998.73 1491.66 2002 1462.53Z" fill="#000000" fill-rule="evenodd" fill-opacity="0.2"/><path d="M1957.4 1201C1957.4 1201 2012.87 1336.68 2025.37 1396.2 2039.14 1461.35 2061 1626.16 2061 1626.16L2023.37 1632C2023.37 1632 1994.9 1508.8 1978.96 1445.88 1960.85 1374.16 1889.03 1260.59 1886 1206.3Z" fill="#005EA4" fill-rule="evenodd"/><path d="M2066 1628.95 2018.93 1640 2013 1621.83 2064.41 1613 2066 1628.95Z" fill="#49B0FF" fill-rule="evenodd"/><path d="M1979.3 1638.35 1937.21 1639 1937 1625.45 1984 1624 1979.3 1638.35Z" fill="#49B0FF" fill-rule="evenodd"/><path d="M1934.08 955.597C1933.77 957.209 1934.38 958.653 1935.44 958.955 1936.49 959.257 1937.62 958.014 1937.92 956.403 1938.23 954.791 1937.62 953.347 1936.53 953.045 1935.44 952.743 1934.38 953.985 1934.08 955.597Z" fill="#263238" fill-rule="evenodd"/><path d="M1954.1 960.592C1953.72 962.173 1954.48 963.652 1955.8 963.954 1957.12 964.257 1958.52 963.013 1958.9 961.399 1959.28 959.786 1958.52 958.306 1957.2 958.037 1955.88 957.769 1954.48 958.979 1954.1 960.592Z" fill="#263238" fill-rule="evenodd"/><path d="M1941.29 980.627C1937.45 979.789 1934.11 977.316 1932.06 973.796 1931.93 973.527 1932.02 973.197 1932.27 973.049 1932.52 972.933 1932.81 973.03 1932.95 973.273 1935.29 977.14 1939.25 979.606 1943.6 979.918 1943.89 979.997 1944.06 980.304 1943.98 980.603 1943.93 980.797 1943.79 980.949 1943.6 981 1942.83 980.946 1942.05 980.821 1941.29 980.627Z" fill="#263238" fill-rule="evenodd"/><path d="M2069.71 1652.12C2068.08 1652.91 2066.36 1653.51 2064.6 1653.91 2064.45 1654.03 2064.23 1654.03 2064.09 1653.91 2063.97 1653.75 2063.97 1653.53 2064.09 1653.37 2064.53 1652.63 2068.55 1646 2071.11 1646 2071.7 1646 2072.24 1646.33 2072.51 1646.84 2073.05 1647.66 2073.15 1648.68 2072.78 1649.58 2072.06 1650.73 2070.98 1651.62 2069.71 1652.12ZM2065.52 1652.66C2068.02 1652.29 2070.28 1651 2071.86 1649.04 2072.1 1648.42 2072.01 1647.72 2071.62 1647.18 2071.42 1646.84 2071.25 1646.81 2071.07 1646.81 2069.75 1646.81 2067.19 1650.09 2065.52 1652.66Z" fill="#49B0FF" fill-rule="evenodd"/><path d="M2064.89 1654 2064.64 1654C2064.47 1653.97 2064.33 1653.86 2064.26 1653.71 2063.11 1651.18 2062.74 1648.36 2063.18 1645.61 2063.45 1644.94 2063.98 1644.42 2064.64 1644.16L2064.64 1644.16C2065.26 1643.84 2066.01 1644.02 2066.44 1644.58 2067.8 1646.32 2066.44 1651.9 2065.05 1653.81 2065.02 1653.89 2064.97 1653.96 2064.89 1654ZM2064.89 1645.19C2064.55 1645.37 2064.28 1645.67 2064.13 1646.03 2063.75 1648.21 2064.02 1650.46 2064.89 1652.48 2065.93 1650.19 2066.66 1646.19 2065.87 1645.19 2065.87 1645.19 2065.62 1644.87 2065.08 1645.19L2065.08 1645.19Z" fill="#49B0FF" fill-rule="evenodd"/><path d="M1966.3 1666.33C1966.06 1666.24 1965.94 1665.97 1966.03 1665.74 1966.08 1665.63 1966.18 1665.54 1966.3 1665.49 1967.24 1665.01 1975.59 1660.92 1978.15 1662.27 1978.63 1662.53 1978.94 1662.99 1978.98 1663.5L1978.98 1663.5C1979.09 1664.34 1978.75 1665.18 1978.08 1665.75 1975.83 1667.65 1969.84 1666.97 1966.44 1666.39ZM1977.6 1662.95C1974.27 1663.13 1971.03 1664.05 1968.18 1665.65 1971.28 1666.47 1974.59 1666.25 1977.53 1665.01 1977.97 1664.62 1978.18 1664.05 1978.08 1663.5 1978.09 1663.29 1977.97 1663.1 1977.77 1663.01Z" fill="#49B0FF" fill-rule="evenodd"/><path d="M1966.21 1665.89 1966.21 1665.89C1966.07 1665.79 1965.99 1665.63 1966 1665.47 1966.19 1662.69 1967.31 1660.03 1969.22 1657.85 1970 1657.25 1971.02 1656.94 1972.04 1657.01L1972.04 1657.01C1973.47 1657.01 1973.87 1657.79 1973.97 1658.31 1974.4 1660.52 1969.33 1664.82 1966.82 1665.92 1966.64 1666.04 1966.39 1666.02 1966.21 1665.89ZM1972.33 1657.98C1972.17 1657.94 1971.99 1657.94 1971.83 1657.98L1971.83 1657.98C1971.07 1657.91 1970.31 1658.13 1969.76 1658.6 1968.17 1660.32 1967.21 1662.45 1967 1664.69 1969.65 1663.22 1973.08 1659.81 1972.83 1658.51 1972.83 1658.31 1972.76 1658.11 1972.33 1657.98Z" fill="#49B0FF" fill-rule="evenodd"/><path d="M1904 1051.09C1897.15 1063.29 1890.3 1076.32 1884.13 1089.15 1877.92 1101.68 1872.6 1114.64 1868.21 1127.92 1867.69 1129.54 1867.32 1131.12 1866.84 1132.7 1866.67 1133.42 1866.36 1134.46 1866.26 1134.94 1866.14 1135.33 1866.05 1135.73 1865.98 1136.14 1865.69 1138.3 1865.74 1140.5 1866.15 1142.64 1867.53 1148.52 1869.78 1154.17 1872.83 1159.38 1879.94 1171.4 1888.22 1182.67 1897.56 1193.04L1887.63 1205C1874.38 1196.21 1862.61 1185.36 1852.76 1172.86 1847.27 1165.89 1843.02 1158.03 1840.19 1149.62 1838.56 1144.59 1837.83 1139.32 1838.03 1134.04 1838.03 1132.63 1838.31 1131.16 1838.48 1129.75 1838.65 1128.34 1838.86 1127.61 1839.06 1126.51 1839.47 1124.52 1839.85 1122.42 1840.29 1120.46 1844.13 1105.2 1849.34 1090.31 1855.84 1075.98 1862.09 1061.9 1869.18 1048.21 1877.08 1035Z" fill="#FF8B7B" fill-rule="evenodd"/><path d="M1882.61 1023.43C1863.57 1028.67 1845 1082.26 1845 1082.26L1890.85 1095C1898.89 1083.72 1905.3 1071.36 1909.9 1058.29 1919.54 1032.23 1905.66 1017.13 1882.61 1023.43Z" fill="#49B0FF" fill-rule="evenodd"/><path d="M1882.61 1023.43C1863.57 1028.67 1845 1082.26 1845 1082.26L1890.85 1095C1898.89 1083.72 1905.3 1071.36 1909.9 1058.29 1919.54 1032.23 1905.66 1017.13 1882.61 1023.43Z" fill="#FF0083" fill-rule="evenodd"/><path d="M1889.06 1190 1910 1195.47 1901.68 1215C1901.68 1215 1882.9 1211.06 1883 1200.9Z" fill="#FF8B7B" fill-rule="evenodd"/><path d="M1918 1208.38 1911.94 1224 1902 1214.73 1910.13 1195 1918 1208.38Z" fill="#FF8B7B" fill-rule="evenodd"/></g></svg>