<svg xmlns="http://www.w3.org/2000/svg" overflow="hidden" viewBox="0 0 178 241">
  <defs>
    <clipPath id="a">
      <path d="M1877 821h178v241h-178z"/>
    </clipPath>
  </defs>
  <g fill-rule="evenodd" clip-path="url(#a)" transform="translate(-1877 -821)">
    <path fill="#0070C0" d="M1909.08 913.843h3.56c7.6 29.323 37.63 46.967 67.09 39.408 19.75-5.067 35.07-20.581 39.82-40.323l2.31.747c.34.112.7.169 1.06.168.59 0 1.17-.15 1.69-.435a3.437 3.437 0 0 0 1.66-2.191c5.6-23.117-2.64-47.382-21.19-62.369l10.79-1.968a3.433 3.433 0 0 0 2.72-4.024 3.445 3.445 0 0 0-3.96-2.72l-17.61 3.213-.32-.192 4.78-4.862a3.42 3.42 0 0 0-.05-4.851 3.465 3.465 0 0 0-4.88.051l-6.3 6.411c-.18-.075-.34-.14-.54-.212l-5.87-16.296c-.57-1.806-2.51-2.808-4.32-2.238a3.423 3.423 0 0 0-2.25 4.301c.03.091.06.18.1.268l4.06 11.284c-33.15-8.497-66.94 11.366-75.47 44.364a61.372 61.372 0 0 0-.23 29.84 3.436 3.436 0 0 0 3.35 2.626Zm56.92 34.286c-23.06.05-42.9-16.209-47.29-38.743l4.86-9.675a49.047 49.047 0 0 0 12.9-5.38 57.21 57.21 0 0 0 9.76-7.573c.01-.015.02-.021.04-.012.02.008.02.027.01.043-.14.377-.2.545-.24.627-.05.141-.11.274-.16.408a22.428 22.428 0 0 1-6.71 9.452 3.425 3.425 0 0 0-.97 4.752 3.453 3.453 0 0 0 3.76 1.42c.89-.237 21.96-5.828 35.16-14.942a132.382 132.382 0 0 0 18.6-15.463 58.348 58.348 0 0 1 12.09 16.601 96.028 96.028 0 0 1 5.65 18.761c-3.96 23.001-24.02 39.795-47.46 39.724Zm0-106.285c30.27-.163 54.94 24.133 55.11 54.267.01 2.605-.16 5.208-.52 7.789 0 .018-.01.031-.03.031-.02 0-.03-.013-.03-.031a3.448 3.448 0 0 0-1.31-1.515 102.022 102.022 0 0 0-5.05-15.428 69.84 69.84 0 0 0-16.29-21.381 3.399 3.399 0 0 0-2.5-.847c-.91.06-1.76.478-2.37 1.162a118.21 118.21 0 0 1-19.81 16.948 100.85 100.85 0 0 1-22.29 10.57c-.04 0-.06 0-.04-.044.65-1.24 1.22-2.516 1.72-3.823a95.173 95.173 0 0 0 3.6-14.592 3.43 3.43 0 0 0-2.83-3.942 3.455 3.455 0 0 0-3.32 1.322 73.132 73.132 0 0 1-17.1 16.097 39.942 39.942 0 0 1-12.27 4.89c-1.1.175-2.04.863-2.54 1.851l-5.92 11.818h-.35c-5.68-29.789 13.97-58.523 43.9-64.179 3.38-.638 6.8-.96 10.24-.963Z"/>
    <path fill="#00B0F0" d="M2040.47 992.27a137.725 137.725 0 0 0-56.82-25.214c-1.86-.34-3.64.903-3.98 2.777a3.58 3.58 0 0 0-.04.326c-.61 7.115-6.54 12.567-13.63 12.529-7.07-.099-12.95-5.504-13.69-12.587-.19-1.895-1.87-3.275-3.75-3.083-.09.009-.17.02-.25.034a135.75 135.75 0 0 0-56.76 25.218c-9.22 7.178-14.6 18.27-14.55 30.01V1062h6.85v-39.72c-.06-9.58 4.31-18.64 11.82-24.513a130.674 130.674 0 0 1 34.7-18.735l-5.38 27.108c-.37 1.86.83 3.68 2.69 4.05.78.16 1.6.04 2.31-.35l32.59-17.894V1062h6.84v-70.054l32.59 17.904c.51.28 1.07.42 1.64.42a3.438 3.438 0 0 0 3.36-4.13l-5.36-26.994a132.266 132.266 0 0 1 34.69 18.621c7.5 5.873 11.87 14.933 11.81 24.513V1062h6.85v-39.72c.05-11.74-5.32-22.827-14.53-30.01Zm-102.64-15.666c2.8-.806 5.59-1.544 8.36-2.124 1.65 5.541 5.46 10.165 10.57 12.804l-23.56 12.946c-.02.01-.04 0-.05-.02v-.02Zm60.97 23.626-23.48-12.901c5.13-2.595 8.92-7.25 10.46-12.818 2.78.604 5.59 1.38 8.4 2.19l4.68 23.489c.01.02.01.04-.01.05-.02.01-.04.01-.05-.01Z"/>
  </g>
</svg>
