<svg xmlns="http://www.w3.org/2000/svg" xmlns:xlink="http://www.w3.org/1999/xlink" overflow="hidden" viewBox="0 0 1420 1070">
  <defs>
    <path id="c" fill="#DEEBF7" fill-rule="evenodd" d="M2499.66 1741.64s-21.11-244.56 95.34-489.18l-14.03-10.46s-127.42 182.65-138.97 503Z"/>
    <path id="d" fill="#DEEBF7" fill-rule="evenodd" d="M2627.13 1187.48c36.25-17.01 84.91 16.54 87.87 64.52-4.85-2.79-9.97-5.24-15.3-7.33-1.69-12.11-3.44-22.86-3.44-22.86v21.59c-3-1.13-6.23-2.24-9.77-3.28l-1.41-11.59-2.03 10.72c-4.82-1.29-9.74-2.32-14.72-3.1l-3.44-34.13-6.19 32.94c-5.12-.44-10.27-.57-15.4-.37l-2-23.18-2.06 23.38c-4.43.34-8.83.92-13.17 1.74l-2.03-34.74s-1.52 19.27-3.17 35.55c-12.58 2.99-24.39 7.9-34.87 14.49v-4.23s8.01-44.59 41.13-60.12Z"/>
    <path id="e" fill="#DEEBF7" fill-rule="evenodd" d="M2579.59 1170.02c-25.36-27.39-86.13-13.1-111.59 29.38 5.81-.92 11.7-1.44 17.62-1.57a3267.41 3267.41 0 0 1 13.82-19.61l-10.36 19.56c3.24 0 6.91 0 10.36.28l6.91-10.15-3.21 10.38c5.06.43 10.09 1.1 15.06 2.03l19.8-29.67-9.92 31.87a120.3 120.3 0 0 1 14.41 4.75l12.82-20.33-9.19 21.87c3.93 1.76 7.71 3.74 11.33 5.92l18.03-30.65s-7.74 17.93-13.82 33.25c10.17 6.87 18.72 15.24 25.22 24.67l2.01-3.83s13.85-43.14-9.3-68.15Z"/>
    <path id="f" fill="#DEEBF7" fill-rule="evenodd" d="M2548.15 1229.28c29.71-20.88 48.85 0 48.85 0-10.99 2.06-21.07 6.62-29.11 13.18l-3.47-4.29v6.97c-2.07 1.76-4.12 3.57-6.05 5.44l-5.34-12.41 1.32 16.44c-2.84 2.88-5.5 6.02-7.96 9.07l-1.77-12.09-1.17 15.83c-2.6 3.43-4.99 6.8-6.93 9.99l-1.14-22.08-2.84 28.27c-5.19 8.47-8.03 14.4-8.03 14.4s-6.06-47.88 23.64-68.72Zm70.27 58.08-6.12 2.4c-.53-3.68-1.17-7.56-1.94-11.42l4.52-5.71-5.23 2.2c-.28-1.31-.6-2.6-.92-3.91l6.15-11.22-8.06 4.14c-3.18-10.65-7.63-19.99-13.82-24.84 0 0 63.63 20.56 21.7 75 0 0-.35-9.02-1.94-20.93Z"/>
    <path id="g" fill="#DEEBF7" fill-rule="evenodd" d="m2559.47 1237.13-8.64-16.46 2.72 16.75-3.1.28-11.95-14.31 1.9 15.83c-4.63.88-9.2 1.99-13.67 3.32-4.83 1.44-9.56 3.08-14.18 4.93l-5.2-14.32 1.65 15.72a219.14 219.14 0 0 0-13.22 6.04l-2.1-12.37-.89 13.97c-5.24 2.69-10.33 5.44-14.81 8.16l2.35-22.13-6.03 24.37c-4.68 2.86-8.92 5.72-12.56 8.1l.86-15.38-6.37 19.24c-5.24 3.73-8.23 6.13-8.23 6.13 7.19-53.91 33.98-73.69 76.15-76.82 42.17-3.12 68.85 34.36 68.85 34.36s-12.36-5.93-33.53-5.41Zm116.02 73.11-5.24 15.93c-1.49-4.13-3.46-9.44-6.2-15.35l5.47-23.46-7.9 18.21c-4.16-8.79-9.13-17.29-14.88-25.43l7.39-16.04-10.71 11.54c-1.74-2.25-3.47-4.42-5.48-6.52l4.3-10.1-5.97 8.31a79.84 79.84 0 0 0-4.05-3.98l5.3-13.54-7.56 11.55c-3.82-3.34-8.08-6.31-12.69-8.86l8.12-16.45s-5.31 6.58-11.76 14.66c-6.32-2.96-13.39-4.64-20.63-4.91 9.56-10.1 22.86-17.29 37.83-20.46 23.78-4.39 70.73 33.62 42.3 109.66 0 0-.52-1.82-1.52-4.88Zm-25.54-151.9 3.08 10.07c-1.46 0-2.92.08-4.36.26l-3.66-13.08 2.04 13.34c-3.09.56-6.06 1.49-8.84 2.75l-5.08-17.68 2.25 19.07c-1.11.58-2.25 1.22-3.46 1.94l-6.01-16.67 4.29 17.86c-5.86 4.26-10.98 9.19-15.2 14.64v-23.91l-6.18 32.42c-6.33 9.81-11.62 20.07-15.82 30.65 0 0 3.45-86.65 29.11-94.93 25.67-8.28 36.89 34.21 36.89 34.21a15.96 15.96 0 0 0-3.45-.67Z"/>
    <path id="h" fill="#DEEBF7" fill-rule="evenodd" d="M1444.4 1165.32c-43.91-20.19-102.83 19.59-106.4 76.48 5.9-3.26 12.12-6.13 18.58-8.58 2.01-14.3 4.05-27.11 4.05-27.11v25.74c3.47-1.32 7.52-2.61 11.79-3.86l1.69-13.87 2.5 12.72c5.84-1.55 11.79-2.79 17.81-3.72l4.3-40.44 7.52 39.04c6.2-.53 12.43-.67 18.65-.43l2.43-27.48 2.46 27.74c5.37.37 10.71 1.04 15.97 2.03l2.22-40.9s1.81 22.88 3.82 42.16c15.22 3.53 29.53 9.35 42.21 17.16v-5s-9.53-53.29-49.6-71.68Z"/>
    <path id="i" fill="#DEEBF7" fill-rule="evenodd" d="M1500.06 1143.94c30.45-33.1 103.56-15.82 133.94 35.48-6.98-1.1-14.06-1.72-21.16-1.87-8.73-12.62-16.71-23.69-16.71-23.69l12.29 23.6c-3.9 0-8.15 0-12.63.35l-8.22-12.25 3.83 12.54c-6.07.51-12.1 1.32-18.05 2.44l-23.37-35.88 11.87 38.5c-5.91 1.57-11.67 3.5-17.26 5.75l-15.39-24.56 11.04 26.4c-4.73 2.13-9.27 4.53-13.6 7.18L1505 1160.9s9.28 21.65 16.74 40.26c-12.21 8.32-22.48 18.43-30.31 29.84l-2.42-4.63s-16.77-52.21 11.05-82.43Z"/>
    <path id="j" fill="#DEEBF7" fill-rule="evenodd" d="M1538.95 1215.16c-35.75-25.11-58.95 0-58.95 0 13.22 2.5 25.34 8 35.02 15.89l4.1-5.16v8.39c2.53 2.07 4.95 4.27 7.31 6.51l6.38-14.9-1.56 19.78c3.47 3.57 6.59 7.23 9.57 10.9l2.12-14.42 1.39 19.06c3.15 4.12 6.03 8.19 8.6 11.99l1.35-26.52 3.47 34.02c6.24 10.18 9.67 17.3 9.67 17.3s7.11-57.75-28.47-82.84Zm-84.65 69.66 7.15 2.88c.62-4.46 1.34-9.16 2.27-13.95l-5.26-6.83 6.08 2.65c.35-1.59.69-3.17 1.07-4.73l-7.15-13.75 9.38 5.01c3.75-12.89 8.94-24.33 16.16-30.1 0 0-74.18 24.94-25.37 91 0 0 .45-10.96 2.27-25.4Z"/>
    <path id="k" fill="#DEEBF7" fill-rule="evenodd" d="m1524.56 1224.41 10.38-19.89-3.46 20.15 3.74.35 14.39-17.27-2.25 19.11c5.54 1.04 10.99 2.35 16.34 3.94a206.04 206.04 0 0 1 17.3 5.93l6.26-17.27-1.97 18.97c5.47 2.27 10.8 4.75 15.95 7.31l2.56-15 1.11 16.84c6.3 3.25 12.32 6.59 17.82 9.87l-2.77-26.71 7.24 29.42c5.71 3.48 10.79 6.82 15.19 9.78l-1.04-18.59 7.68 23.22c6.34 4.52 9.97 7.43 9.97 7.43-8.72-64.81-41.22-88.81-91.95-92.76-50.73-3.94-83.05 41.5-83.05 41.5s14.98-6.93 40.56-6.33Zm-138.79 87.92 6.25 19.14c1.76-4.97 4.19-11.32 7.35-18.45l-6.49-28.2 9.38 21.97c4.93-10.56 10.85-20.77 17.69-30.54l-8.83-19.28 12.78 14.06c2.09-2.69 4.25-5.29 6.52-7.82l-5.08-12.39 7.07 9.99c1.58-1.65 3.2-3.23 4.85-4.79l-6.32-16.25 9 13.94c4.53-4 9.59-7.57 15.07-10.62l-9.55-19.77 13.98 17.6c7.54-3.5 15.95-5.48 24.56-5.77-11.37-12.21-27.22-20.9-45.1-24.73-28.33-5.32-84.18 40.4-50.34 131.58 0 0 .58-2.16 1.82-5.77Zm30.07-182.38-3.71 11.96c1.75-.02 3.5.08 5.23.29l4.37-15.54-2.44 15.82c3.69.69 7.24 1.79 10.56 3.29l6.1-21-2.69 22.64c1.39.72 2.74 1.5 4.03 2.34l7.19-19.8-4.85 21.32c7.02 5.05 13.14 10.91 18.17 17.4v-28.39l7.27 38.32c7.55 11.66 13.88 23.84 18.93 36.4 0 0-4.1-103.02-34.87-112.75-30.77-9.73-44.13 40.63-44.13 40.63 1.29-.38 2.63-.65 3.99-.8Z"/>
    <path id="l" fill="#DEEBF7" fill-rule="evenodd" d="M1756.55 975.751c47.82-25.802 118.13 15.825 127.45 80.269-6.99-3.35-14.29-6.23-21.84-8.6-3.45-16.25-6.9-30.64-6.9-30.64l2.35 29.15c-4.18-1.26-8.77-2.49-13.81-3.64l-3.2-15.68-1.63 14.62c-6.75-1.37-13.59-2.41-20.49-3.1l-8.63-45.866-4.9 44.956a175.6 175.6 0 0 0-21.15.71l-5.34-31.04-.21 31.76c-6.05.8-12.04 1.93-17.91 3.38l-6.24-46.612s0 26.122-.45 48.282c-16.91 5.01-32.56 12.57-46.17 22.3l-.48-5.73s5.87-61.011 49.55-84.519Z"/>
    <path id="m" fill="#DEEBF7" fill-rule="evenodd" d="M1689.95 954.649c-37.65-35.699-118.93-11.507-148.95 48.901 7.83-1.72 15.82-2.89 23.88-3.51 8.77-14.87 16.81-27.988 16.81-27.988l-11.8 27.616c4.45-.259 9.24-.432 14.39-.403l8.21-14.383-3.21 14.383c6.94.188 13.85.735 20.71 1.635l23.26-42.31-9.98 44.53c6.87 1.4 13.61 3.21 20.16 5.44l15.22-28.77-10.11 30.75c5.56 2.12 10.95 4.55 16.11 7.28l21.19-43.495s-8.56 25.228-15.32 46.715c14.65 8.67 27.27 19.5 37.24 31.96l2.31-5.41s14.25-60.378-20.12-92.941Z"/>
    <path id="n" fill="#DEEBF7" fill-rule="evenodd" d="M1653.22 1038.67c38.12-30.67 66.78-3.73 66.78-3.73-14.35 2.87-27.13 10.56-38.33 20.08l-5.13-5.56.8 9.49c-2.7 2.53-5.27 5.14-7.73 7.86l-8.62-16.49 3.46 22.29c-3.46 4.24-6.93 8.6-9.88 12.94l-3.74-16.33.17 21.6c-3.22 4.88-6.09 9.64-8.62 14.15l-3.99-29.92-.76 38.67c-6.17 11.9-9.39 20.28-9.39 20.28s-13.31-64.69 24.98-95.33Zm102.46 73.3-7.93 3.75c-1.15-5.05-2.43-10.37-3.93-15.74l5.43-8.15-6.79 3.44c-.52-1.79-1.07-3.58-1.63-5.34l6.96-15.98-10.44 6.33c-5.46-14.45-12.52-27.16-21.35-33.28 0 0 87.6 23.63 37.56 102 0 0-1.5-12.45-4.94-28.89Z"/>
    <path id="o" fill="#DEEBF7" fill-rule="evenodd" d="m1670.4 1047.63-13.83-21.73 5.6 22.58-4.21.63-17.98-18.64 4.32 21.4c-6.18 1.51-12.24 3.33-18.15 5.45a224.29 224.29 0 0 0-18.91 7.75l-8.71-18.98 3.98 21.23c-5.98 2.85-11.82 6.02-17.29 9.24l-4.28-16.73.27 19.04c-6.91 4.05-13.34 8.21-19.32 12.26l.73-30.28-5.57 33.58c-6.12 4.28-11.61 8.35-16.32 11.98l-.55-21.01-6.57 26.65c-6.91 5.47-10.61 8.95-10.61 8.95 3.94-73.49 38.61-102.62 95.86-110.2 57.25-7.59 98.14 41.47 98.14 41.47s-17.66-6.92-46.6-4.64Zm165.47 91.46-5.34 22.15c-2.44-5.54-5.82-12.61-10.09-20.48l4.82-32.44-8.67 25.55c-6.61-11.65-14.28-22.87-22.94-33.54l8.23-22.46-13.26 16.64c-2.61-2.89-5.3-5.77-8.12-8.45l4.68-14.13-7.16 11.79a181.03 181.03 0 0 0-5.96-5.13l5.72-18.86-8.99 16.29c-5.54-4.25-11.64-7.98-18.18-11.1l9.19-23.07-14.32 20.85c-8.89-3.53-18.64-5.28-28.48-5.1 0 0 17.22-23.07 49-30.8s99.66 40.37 69.42 146.2c0 0-.89-2.42-2.62-6.52Zm-50.36-205.614 5.37 13.431c-2 .073-4 .295-5.96.662l-6.49-17.458 4.3 17.918c-4.17 1.006-8.15 2.497-11.82 4.429l-8.88-23.612 5.24 25.712c-1.43.862-2.88 1.84-4.37 2.876l-10.1-22.146 7.53 24.073c-7.58 6.222-14.05 13.311-19.22 21.052l-2.63-32.442-4.82 44.349c-7.62 13.76-13.78 28.04-18.42 42.68 0 0-4.89-117.917 29.41-131.032 34.3-13.114 54.35 43.601 54.35 43.601a22.65 22.65 0 0 0-4.68-.633Z"/>
    <path id="p" fill="#DEEBF7" fill-rule="evenodd" d="m1735.58 1064.5-3.18 22.5-10.14-21.74-13.84 16.93-5.33-15.86-16.09 11.19s2.15-28.7 12.42-41.81c10.28-13.1 40.48-3.74 36.16 28.79Z"/>
  </defs>
  <defs>
    <radialGradient id="b" cx="791527" cy="791528" r="1119390" fx="791527" fy="791528" gradientTransform="rotate(-68.865 1922.562 -1020.882) scale(.00036)" gradientUnits="userSpaceOnUse" spreadMethod="pad">
      <stop offset="0" stop-color="#FFB3DB"/>
      <stop offset=".78" stop-color="#FFF2CC"/>
      <stop offset="1" stop-color="#FFF2CC"/>
    </radialGradient>
    <clipPath id="a">
      <path d="M1325 849h1420v1070H1325z"/>
    </clipPath>
  </defs>
  <g clip-path="url(#a)" transform="translate(-1325 -849)">
    <path fill="#EBEBEB" fill-rule="evenodd" d="M2279 1829h30v1h-30Zm254-41h66v1h-66Zm-1003 5h21v1h-21Zm92 15h322v1h-322Z"/>
    <path fill="url(#b)" fill-rule="evenodd" d="M2420.29 930.395c73.6 28.372 110.27 111.035 81.9 184.645-28.37 73.6-111.04 110.27-184.64 81.9-73.61-28.38-110.27-111.04-81.9-184.65 28.37-73.599 111.04-110.266 184.64-81.895Z"/>
    <path fill="#F5F5F5" fill-rule="evenodd" d="M2745 1027.66c0-12.86-10.41-23.29-23.26-23.31-2.27-.01-4.53.33-6.7 1 4.01-26.898-14.53-51.954-41.4-55.968a49.124 49.124 0 0 0-16.43.325c-12.39-20.349-38.91-26.798-59.24-14.405a43.142 43.142 0 0 0-20.68 36.199h-.72c-21.94.646-39.2 18.967-38.55 40.919.62 21.05 17.52 37.96 38.55 38.58h145.83c12.6-.37 22.62-10.72 22.6-23.34Zm-437 101.32c0-12.76-10.42-23.11-23.27-23.11-2.26.01-4.51.34-6.67.99 4.08-26.68-14.38-51.6-41.25-55.66-5.56-.84-11.23-.73-16.75.34-12.38-20.19-38.88-26.58-59.2-14.29-12.64 7.65-20.44 21.2-20.67 35.9h-.65c-21.92.64-39.17 18.81-38.52 40.59.62 20.87 17.51 37.65 38.52 38.26h145.74c12.59-.3 22.67-10.5 22.72-23.02Zm-496 127.69c-.02-12.75-10.43-23.08-23.25-23.08-2.26.01-4.5.33-6.67.96 3.83-26.76-14.89-51.55-41.82-55.36-2.28-.32-4.58-.48-6.88-.48-3.04 0-6.08.29-9.07.85-12.33-20.17-38.78-26.6-59.07-14.35-12.67 7.65-20.48 21.23-20.68 35.96h-.72c-21.9-.64-40.18 16.48-40.82 38.24-.65 21.77 16.58 39.93 38.48 40.57.78.03 1.56.03 2.34 0h145.56c12.67-.33 22.73-10.71 22.6-23.31Zm793 7.04c0-7.8-6.31-14.12-14.1-14.12-1.36 0-2.72.19-4.03.58 2.38-16.36-8.93-31.55-25.26-33.94-1.41-.2-2.84-.31-4.27-.31-1.85.02-3.7.19-5.52.52-7.53-12.28-23.58-16.12-35.84-8.57a26.092 26.092 0 0 0-12.41 21.79h-.45c-13.32 0-24.12 10.82-24.12 24.17 0 13.35 10.8 24.17 24.12 24.17h88.2c7.69-.21 13.79-6.58 13.68-14.29Z"/>
    <path fill="#EBEBEB" fill-rule="evenodd" d="M2076 908.684c0-7.812-6.31-14.144-14.1-14.144-1.38-.004-2.75.206-4.07.623 2.5-16.253-8.62-31.456-24.82-33.959a29.582 29.582 0 0 0-4.72-.346c-1.84-.002-3.68.172-5.48.519-7.6-12.284-23.69-16.062-35.94-8.438a26.198 26.198 0 0 0-12.33 21.648h-.41c-13.33 0-24.13 10.838-24.13 24.206 0 13.369 10.8 24.207 24.13 24.207h88.29c7.65-.281 13.68-6.636 13.58-14.316Zm-626 21.2c0-7.703-6.26-13.947-13.99-13.947-1.36-.001-2.72.195-4.03.58 2.36-16.156-8.86-31.162-25.06-33.517a29.58 29.58 0 0 0-4.24-.308c-1.82.013-3.64.184-5.44.511-7.53-12.112-23.49-15.836-35.64-8.318a25.818 25.818 0 0 0-12.22 21.378h-.45c-13.21 0-23.93 10.686-23.93 23.868 0 13.183 10.72 23.869 23.93 23.869h87.6c7.59-.259 13.58-6.536 13.47-14.116Z"/>
    <path fill="#F0F0F0" fill-rule="evenodd" d="M2672 1765c-37.81-47.47-362.82-453.96-408.09-454.06-48.11 0-139.61 112.46-139.61 112.46s-159.24-197.66-227.47-192.29c-64.58 5.06-482.94 482.46-527.83 533.89Z"/>
    <path fill="#F5F5F5" fill-rule="evenodd" d="M2696 1880.5c0 21.26-298.4 38.5-666.5 38.5s-666.5-17.24-666.5-38.5 298.4-38.5 666.5-38.5 666.5 17.24 666.5 38.5Z"/>
    <use xlink:href="#c" fill-rule="evenodd"/>
    <use xlink:href="#c" fill-rule="evenodd"/>
    <use xlink:href="#d" fill-rule="evenodd"/>
    <use xlink:href="#e" fill-rule="evenodd"/>
    <use xlink:href="#f" fill-rule="evenodd"/>
    <use xlink:href="#g" fill-rule="evenodd"/>
    <path fill="#DEEBF7" fill-rule="evenodd" d="m2606.17 1251.78-3.47 16.22-6.14-16.08-11.2 11.47-2.98-11.61-12.38 7.41s3.22-20.6 11.51-29.58c8.29-8.98 30-1.06 24.66 22.17Z"/>
    <use xlink:href="#d" fill-rule="evenodd"/>
    <use xlink:href="#e" fill-rule="evenodd"/>
    <use xlink:href="#f" fill-rule="evenodd"/>
    <use xlink:href="#g" fill-rule="evenodd"/>
    <path fill="#DEEBF7" fill-rule="evenodd" d="m2606.17 1251.78-3.47 16.22-6.14-16.08-11.2 11.47-2.98-11.61-12.38 7.41s3.22-20.6 11.51-29.58c8.29-8.98 30-1.06 24.66 22.17ZM1579.53 1776s-18.16-234.16-111.53-539.14l18.99-11.86s81.87 110.2 164.01 537.21Z"/>
    <path fill="#DEEBF7" fill-rule="evenodd" d="M1579.53 1776s-18.16-234.16-111.53-539.14l18.99-11.86s81.87 110.2 164.01 537.21Z"/>
    <use xlink:href="#h" fill-rule="evenodd"/>
    <use xlink:href="#i" fill-rule="evenodd"/>
    <use xlink:href="#j" fill-rule="evenodd"/>
    <use xlink:href="#k" fill-rule="evenodd"/>
    <path fill="#DEEBF7" fill-rule="evenodd" d="m1468.95 1242.42 4.32 19.58 7.26-19.58 13.32 14.18 3.42-14.18 14.73 9.02s-3.84-25.07-13.7-36.03c-9.86-10.97-35.55-1.28-29.35 27.01Z"/>
    <use xlink:href="#h" fill-rule="evenodd"/>
    <use xlink:href="#i" fill-rule="evenodd"/>
    <use xlink:href="#j" fill-rule="evenodd"/>
    <use xlink:href="#k" fill-rule="evenodd"/>
    <path fill="#DEEBF7" fill-rule="evenodd" d="m1468.95 1242.42 4.32 19.58 7.26-19.58 13.32 14.18 3.42-14.18 14.73 9.02s-3.84-25.07-13.7-36.03c-9.86-10.97-35.55-1.28-29.35 27.01Zm175.04 498.55s-55.77-332.57 76.01-675.77l-20.29-13.2s-153.61 259.32-133.98 698Z"/>
    <path fill="#DEEBF7" fill-rule="evenodd" d="M1643.99 1740.97s-55.77-332.57 76.01-675.77l-20.29-13.2s-153.61 259.32-133.98 698Z"/>
    <use xlink:href="#l" fill-rule="evenodd"/>
    <use xlink:href="#m" fill-rule="evenodd"/>
    <use xlink:href="#n" fill-rule="evenodd"/>
    <use xlink:href="#o" fill-rule="evenodd"/>
    <use xlink:href="#p" fill-rule="evenodd"/>
    <use xlink:href="#l" fill-rule="evenodd"/>
    <use xlink:href="#m" fill-rule="evenodd"/>
    <use xlink:href="#n" fill-rule="evenodd"/>
    <use xlink:href="#o" fill-rule="evenodd"/>
    <use xlink:href="#p" fill-rule="evenodd"/>
    <path fill="#F1C40F" fill-rule="evenodd" d="M2085 1728s98.21-315 357-528c0 0-86.65 273.01-357 528Z"/>
    <path fill-opacity=".2" fill-rule="evenodd" d="M2442 1200c-1.89 5.88-89.53 275.75-357 528 165.83-158.32 353.76-521.4 357-528Z"/>
    <path fill="#F1C40F" fill-rule="evenodd" d="M2381 1272.48s-23.44-30.68-30.32-59.48c0 0-22.79 52.33-9.54 98 18.08-6.74 32.53-20.7 39.86-38.52Z"/>
    <path fill="#263238" fill-rule="evenodd" d="m2200.55 1462-37.55-7.91 23.45-113.09 37.55 7.91Zm-25.43-15.89 17.51 3.68 19.25-92.84-17.48-3.67Zm-40.66 195.13-4.31-.92c-4.71-1.3-9.56 1.51-10.84 6.26-1.28 4.76 1.5 9.67 6.2 10.97.34.09.68.16 1.03.21l4.31.92c4.71 1.3 9.56-1.51 10.84-6.26 1.28-4.76-1.5-9.67-6.2-10.97a8.95 8.95 0 0 0-1.03-.21Z"/>
    <path fill="#FFF" fill-opacity=".102" fill-rule="evenodd" d="M2141.81 1651.84c-1.01 4.86-5.78 7.98-10.65 6.97a9.009 9.009 0 0 1-6.97-10.65 9.009 9.009 0 0 1 10.65-6.97c4.85 1.03 7.97 5.79 6.97 10.65Z"/>
    <path fill="#263238" fill-rule="evenodd" d="m2159.28 1646.12-4.41-.93c-4.88-1.01-9.66 2.11-10.68 6.97-1.02 4.86 2.12 9.62 7 10.63l4.41.89c4.81 1.31 9.77-1.52 11.08-6.31 1.31-4.79-1.53-9.73-6.34-11.03-.35-.1-.7-.17-1.06-.22Z"/>
    <path fill="#FFF" fill-opacity=".2" fill-rule="evenodd" d="M2165.7 1656.93c-1.27 5.07-6.2 8.09-11 6.75-4.45-1.24-7.3-5.83-6.59-10.63.75-5.18 5.35-8.74 10.26-7.94 4.91.8 8.28 5.65 7.52 10.84-.04.33-.11.66-.19.98Z"/>
    <path fill="#0070C0" fill-rule="evenodd" d="m2278.44 1477.55-32.52 156.19c-3.26 15.54-18.75 26.95-34.34 23.71l-77.58-16.27 44.64-214.18 77.58 16.3c15.53 3.34 25.44 18.66 22.15 34.25Z"/>
    <path fill="#263238" fill-rule="evenodd" d="M2204.93 1428.86c5 1.04 9.05 1.89 9.05 1.89l-46.12 220.59s-4.05-.85-9.05-1.89l-28.13-5.88-9.05-1.9 46.12-220.59s4.05.85 9.05 1.89Z"/>
    <path fill="#FFF" fill-opacity=".2" fill-rule="evenodd" d="M2187.82 1425.28c5 1.04 9.06 1.89 9.06 1.89l-46.13 220.59s-4.05-.84-9.05-1.89l-11-2.3c-5-1.04-9.05-1.89-9.05-1.89l46.12-220.59s4.05.84 9.05 1.89Z"/>
    <path fill-opacity=".2" fill-rule="evenodd" d="m2278.48 1477.83-32.74 155.95c-3.28 15.51-18.88 26.9-34.57 23.67l-31.36-6.54c-.84-3.03-1.03-6.21-.55-9.32l36.54-174.12c2.12-8.65 10.81-14.01 19.53-12.07l42.49 8.84a28.68 28.68 0 0 1 .66 13.59Zm-94.92-47.46c3.47.73 6.29 1.32 6.29 1.32l-43.69 209.15s-2.82-.58-6.3-1.31l-7.26-1.52c-3.48-.72-6.3-1.31-6.3-1.31l43.7-209.16s2.82.59 6.29 1.31Z"/>
    <path fill="#263238" fill-rule="evenodd" d="m2216 1356.9-26.31-5.75c-3.14-.73-5.17-3.92-4.59-7.24.69-3.29 3.74-5.41 6.91-4.81l26.27 5.75c3.14.73 5.19 3.92 4.63 7.24-.69 3.29-3.75 5.41-6.91 4.81Z"/>
    <path fill="#FFF" fill-opacity=".2" fill-rule="evenodd" d="m2216 1356.9-26.31-5.75c-3.14-.73-5.17-3.92-4.59-7.24.69-3.29 3.74-5.41 6.91-4.81l26.27 5.75c3.14.73 5.19 3.92 4.63 7.24-.69 3.29-3.75 5.41-6.91 4.81Z"/>
    <path fill-opacity=".2" fill-rule="evenodd" d="M2216.34 1356.87c-2.96-.67-4.85-3.77-4.22-6.92 0 0 0-.01.01-.02v-.27c.57-3.13 3.42-5.16 6.35-4.55.06.01.12.02.18.04 2.94.65 4.84 3.71 4.23 6.85-.01.03-.02.06-.02.09v.31c-.65 3.14-3.57 5.14-6.53 4.47Z"/>
    <path fill="#FFA397" fill-rule="evenodd" d="M1939 1338.65s-7.96 9.44-17.37 19.07c-9.91 10.23-21.41 20.65-26.73 20.27-10.42-.76-43.71-11.87-43.71-11.87l-15.05 5.13s-14.07-10.04-14.14-13.59c-.07-3.56 20.85-7.56 24.81-7.56 3.96 0 9.63 5.64 9.63 5.64s33.56 6.29 36.76 5.47c17.38-3.8 34.4-47.21 43.99-47.21l.73 10.01Z"/>
    <path fill="#E4897B" fill-rule="evenodd" d="m2040.1 1738 7.9-10.34-13.38-12.94-12.17-11.72-11.45 10.69 15.38 12.86 13.72 11.45Z"/>
    <path fill="#263238" fill-rule="evenodd" d="M2048.1 1724.03c-1.15-.82-10.73 13.78-10.73 13.78s2.13 15.29-2.19 25.14c-4.32 9.86 4.08 9.03 11.06-.31 6.98-9.33 12.31-16.49 17.3-23.11 4.99-6.61-3.5-6.75-15.44-15.5Z"/>
    <path fill="#407BFF" fill-rule="evenodd" d="M2034.07 1749c-.58-.04-1.11-.33-1.44-.79-.33-.4-.45-.92-.35-1.42a6.734 6.734 0 0 1 2.04-3.3c-1.49.62-2.97 1.05-3.76.56-.52-.43-.7-1.14-.45-1.75.15-.75.63-1.4 1.31-1.78 2.14-.69 4.45-.69 6.58 0v.16c-.28 1.22-1.72 7.3-3.96 7.79Zm3.04-6.77c-1.55 1.26-3.72 3.3-3.93 4.69-.04.26.03.52.21.73.44.56.68.49.79.46 1.03-.23 2.24-3.27 2.93-5.71Zm-3.07-1.29c-.74-.03-1.47.11-2.13.43-.47.25-.8.69-.9 1.19v.79c0 .14 3.27-.69 5.61-2.08a12.4 12.4 0 0 0-2.58-.33Z"/>
    <path fill-opacity=".2" fill-rule="evenodd" d="m2025.98 1726 8.02-11.55-11.85-11.45-11.15 10.44 14.98 12.56Z"/>
    <path fill="#E4897B" fill-rule="evenodd" d="M1961 1754h12.96l2.12-18 1.92-16.5-15.35-2.5-.9 19.58-.75 17.42Z"/>
    <path fill="#263238" fill-rule="evenodd" d="M1977.03 1752.73c0-1.43-17.86-.31-17.86-.31s-10.95 11.17-21.62 13.68c-10.66 2.51-4.7 8.9 7.22 8.9h29.47c8.44 0 3.17-7.19 2.79-22.27Z"/>
    <path fill="#407BFF" fill-rule="evenodd" d="M1949.95 1756.99c-.51.04-1.02-.1-1.44-.4-.49-.46-.64-1.19-.39-1.83.13-.48.45-.89.87-1.13 1.17-.5 2.45-.65 3.69-.43-1.35-.73-2.5-1.63-2.57-2.53-.06-.9.36-1.07 1.1-1.43.67-.32 1.44-.32 2.11 0 2.22.96 3.6 4.92 3.67 5.12.02.06.02.12 0 .17-2.18 1.26-4.57 2.1-7.04 2.46Zm1.42-2.96a3.88 3.88 0 0 0-1.93.37c-.23.13-.4.34-.48.6v.89c.77.67 3.79-.26 6.19-1.33-1.24-.31-2.51-.49-3.78-.53Zm.96-4.16c-.27 0-.53.07-.77.2-.23 0-.58.33-.58.57 0 .76 2.41 2.06 4.82 3.02a7.448 7.448 0 0 0-2.8-3.66c-.21-.09-.44-.14-.67-.13Z"/>
    <path fill-opacity=".2" fill-rule="evenodd" d="m1962 1737 14.11-.65 1.89-16.74-15.12-2.61-.88 20Z"/>
    <path fill="#263238" fill-rule="evenodd" d="M1928.54 1442s-38.3 90.79-44.34 130.52c-6.05 39.73 130.06 146.48 130.06 146.48l13.74-14.83s-101.22-104.23-101.22-122.16c0-17.92 39.47-99.76 39.47-99.76s3.98-33.09-37.71-40.25Z"/>
    <path fill="#0070C0" fill-opacity=".4" fill-rule="evenodd" d="M1956.36 1669.39c13.9 12.8 27.45 24.39 37.74 33.13 12.11 10.32 20.18 16.48 20.18 16.48l13.72-14.83s-13.72-14.31-31.36-33.23c-13.72-14.89-29.71-32.65-42.92-48.54-15.27-18.44-26.83-34.4-26.83-40.39 0-9.46 10.98-36.67 21.34-60.34 9.3-21.19 18.08-39.49 18.08-39.49.28-3.77-.08-7.56-1.06-11.21-2.68-10.32-11.09-24.53-36.78-28.97 0 0-38.26 90.72-44.3 130.48-3.09 21.78 36.06 63.51 72.19 96.91Z"/>
    <path fill-opacity=".2" fill-rule="evenodd" d="m1954 1622 2.43 46.92c13.88 12.78 27.41 24.36 37.69 33.08 2.39-10.33 3.3-20.95 2.7-31.53-13.63-14.88-29.56-32.6-42.82-48.47Zm-6-101c9.72-20.98 18.9-39.09 18.9-39.09.3-3.74-.08-7.49-1.11-11.11a14.48 14.48 0 0 0-4.55-1.8s-11.84 17.64-13.24 52Z"/>
    <path fill="#263238" fill-rule="evenodd" d="m1960.81 1469.08-2.53 127.45V1727h22.28c52.31-247.21 16.45-309.01 16.45-309.01v-.28c-8.42-18.5-63.53-4.87-63.53-4.87-3.95 15.34-6.48 46.49-6.48 46.49Z"/>
    <path fill="#0070C0" fill-opacity=".4" fill-rule="evenodd" d="m1960.81 1469.08-2.53 127.45V1727h22.28c52.31-247.21 16.45-309.01 16.45-309.01v-.28c-8.42-18.5-63.53-4.87-63.53-4.87-3.95 15.34-6.48 46.49-6.48 46.49Z"/>
    <path fill="#263238" fill-rule="evenodd" d="M1996 1407.64v9.36l-63-4.9V1401l63 6.64Z"/>
    <path fill="#263238" fill-rule="evenodd" d="m1977.83 1420.27-3.12-.16.82-15.99 3.12.16Z"/>
    <path fill="#FFF" fill-rule="evenodd" d="m1961.09 1415.44-13.84-1.24.94-10.51 13.84 1.23Z"/>
    <path fill="#263238" fill-rule="evenodd" d="m1939.17 1416.02-3.12-.16.81-16 3.13.16Z"/>
    <path fill="#00B0F0" fill-opacity=".4" fill-rule="evenodd" d="m1977.83 1420.27-3.12-.16.82-15.99 3.12.16Zm-38.66-4.25-3.12-.16.81-16 3.13.16Z"/>
    <path fill="#407BFF" fill-rule="evenodd" d="m1983 1724.02-27-4.02 2.26 10.95 22.28 3.05 2.46-9.98Zm45.09-25.02-18.09 19.78 9.04 5.22 13.96-14.9-4.91-10.1Z"/>
    <path fill="#FFA397" fill-rule="evenodd" d="M2017.32 1316.07c10.66 3.21 42.07 7.17 48.32 4.69 6.24-2.48 52.91-41.76 52.91-41.76l5.45 7.48s-45.04 49.68-50.84 50.95c-5.8 1.28-64.16 0-64.16 0Z"/>
    <path fill="#FFA397" fill-rule="evenodd" d="M2118.25 1286.24s-4.03-8.53-3.11-11.33c.91-2.8 22.3-11.88 27.65-11.91 5.35-.03 6.77 13.19 3.38 18.2-3.38 5-24.2 9.35-27.92 5.04Z"/>
    <path fill="#EBB376" fill-rule="evenodd" d="M1984.12 1473.48s-43.91 24.51-46.92 24.99c-3 .48-49.61-31.47-49.61-31.47l-10.59 11.82s42.34 34.99 52.31 39.47c9.98 4.48 56.69-13.79 56.69-13.79Z"/>
    <path fill-opacity=".2" fill-rule="evenodd" d="M1984.12 1473.48s-43.91 24.51-46.92 24.99c-3 .48-49.61-31.47-49.61-31.47l-10.59 11.82s42.34 34.99 52.31 39.47c9.98 4.48 56.69-13.79 56.69-13.79Z"/>
    <path fill="#EBB376" fill-rule="evenodd" d="M2022 1458.48c4.58-1.11 8.24-4.52 9.67-8.98.78-2.87.97-5.86.55-8.8 0-1.62-.45-3.24-.76-4.89l25.5-19.81c-3.09 12.73-6.62 36.08 2.04 45.02-11.51 7.49-26.64 6.45-37-2.54Z"/>
    <path fill-opacity=".2" fill-rule="evenodd" d="M2051 1429c-.3 10.84-8.41 19.8-19 21 .76-2.85.94-5.82.54-8.74Z"/>
    <path fill="#263238" fill-rule="evenodd" d="M2013.05 1375s-8.29 22.79 2.48 34.12c10.76 11.33 19.47-32.21 19.47-32.21Z"/>
    <path fill="#EBB376" fill-rule="evenodd" d="M2048.39 1435.61c-6.94 6.99-17.63 8.4-26.11 3.46-5.39-2.98-9.45-7.93-11.37-13.83-.28-.83-.51-1.67-.68-2.53-3.42-15.77-.28-41.51 16.76-48.15 12.17-4.68 25.78 1.51 30.42 13.84a23.84 23.84 0 0 1 1.46 11.03c-1.46 17.23-1.5 27.5-10.48 36.18Z"/>
    <path fill="#263238" fill-rule="evenodd" d="M2033 1403.55c0 1.34-.98 2.45-2.08 2.45s-1.96-1.17-1.92-2.55c.04-1.38.98-2.48 2.08-2.45 1.1.03 1.92 1.14 1.92 2.55Zm-16-.02c0 1.39-.99 2.5-2.06 2.47-1.07-.03-1.98-1.18-1.94-2.53.04-1.35.99-2.5 2.1-2.47 1.12.03 1.94 1.12 1.9 2.53Z"/>
    <path fill="#D58745" fill-rule="evenodd" d="M2022 1404a52.676 52.676 0 0 1-7 12.28 7.97 7.97 0 0 0 6.83 1.49Z"/>
    <path fill="#263238" fill-rule="evenodd" d="M2038.21 1398.99a.886.886 0 0 1-.82-.34 7.213 7.213 0 0 0-5.49-2.97.853.853 0 0 1-.9-.81c0-.45.36-.83.83-.87 2.78.06 5.36 1.42 6.92 3.67.33.31.33.81.02 1.13l-.02.02Zm-28.28-1.03c-.15.05-.32.05-.48 0-.4-.21-.56-.74-.37-1.17 1.18-2.55 3.43-4.34 6.04-4.79.45-.04.84.32.88.8v.01c.02.48-.31.89-.75.95-2.04.41-3.78 1.85-4.68 3.87a.8.8 0 0 1-.64.33Zm36.6-19.96-1.53 7.5c2.68 1.45 3.74 4.63 2.42 7.3-3.06 6.17 0 16.3 4.75 20.46 0 0 .39-2.73 2.74-1.91 2.36.82.61 15.14-4.67 21.65 0 0 7.67-5.69 12.88-20.46 4.81-13.64 6.2-25.27 3.56-30.86Zm-12.53 26.83c0 1.63.64 3.06 1.74 3.16 1.11.1 2.11-1.16 2.25-2.82.13-1.67-.64-3.06-1.75-3.16-1.1-.1-2.11 1.16-2.24 2.82Z"/>
    <path fill="#263238" fill-rule="evenodd" d="m2037 1402.46-3-2.46s1.26 4.53 3 2.46Zm-24 .2c0 1.62.63 3.04 1.72 3.31 1.1.26 2.09-1.16 2.26-2.82.16-1.65-.66-3.04-1.76-3.14-1.09-.1-2.09.99-2.22 2.65Z"/>
    <path fill="#263238" fill-rule="evenodd" d="m2016 1399.64-3-1.64s1.26 3.02 3 1.64Z"/>
    <path fill="#407BFF" fill-rule="evenodd" d="M2006.06 1396.63c4.28-1.07 8.79-.78 12.88.83 2.46-.83 5.17-.63 7.46.56 5.25-.19 10.48.59 15.43 2.3l16.17 5.3v1.71l-16.41-3.49c-1.22 3.92-4.61 9.88-10.17 9.09-7.36-1.19-7.15-8.56-6.78-11.98-1.63-1.68-4.54-1.85-5.09-.5-.47 3.06-2.2 10.14-9.86 9.88-7.66-.26-3.63-13.7-3.63-13.7Z"/>
    <path fill-opacity=".2" fill-rule="evenodd" d="M2006.06 1396.63c4.28-1.07 8.79-.78 12.88.83 2.46-.83 5.17-.63 7.46.56 5.25-.19 10.48.59 15.43 2.3l16.17 5.3v1.71l-16.41-3.49c-1.22 3.92-4.61 9.88-10.17 9.09-7.36-1.19-7.15-8.56-6.78-11.98-1.63-1.68-4.54-1.85-5.09-.5-.47 3.06-2.2 10.14-9.86 9.88-7.66-.26-3.63-13.7-3.63-13.7Z"/>
    <path fill="#FFF" fill-rule="evenodd" d="m2008.55 1397.05 3.45 11.56s-4.21 1.67-5.49-1.87c-.68-3.16-.68-6.43 0-9.59.67-.16 1.36-.19 2.04-.1Zm1.45-.05 3.22 12s1.78-.69 1.78-1.48l-2.68-10.31Zm19.57 2.06 3.43 12.51s-4.23 1.81-5.48-2.02c-.69-3.42-.69-6.97 0-10.39.67-.17 1.36-.21 2.05-.1Zm.43-.06 3.87 12s2.13-.69 2.13-1.48l-3.22-10.31Z"/>
    <path fill="#EBB376" fill-rule="evenodd" d="M2065.89 1413.84c-2.02 3.74-5.47 6.55-9.62 7.84-5.51 1.62-8.42-3.13-6.84-8.27 1.3-4.52 5.68-11.03 11.29-10.36 4.01.56 6.78 4.16 6.2 8.05-.14.97-.49 1.9-1.03 2.74Z"/>
    <path fill="#263238" fill-rule="evenodd" d="M2022 1422.69c1.32 2.35 2.46 4.79 3.4 7.31l1.43-.3c6.42-1.3 8.94-3.99 9.82-6.65.38-1.26.45-2.59.2-3.89-.11-.75-.32-1.47-.64-2.16a31.33 31.33 0 0 1-12.07 5.15c-1.15.54-2.14.54-2.14.54Z"/>
    <path fill="#FFF" fill-rule="evenodd" d="m2024 1421.95 1.11 2.05c6.19-1.21 10.43-2.84 11.89-4.92a7.01 7.01 0 0 0-.66-2.08c-3.68 2.45-7.89 4.14-12.34 4.95Z"/>
    <path fill="#DE5753" fill-rule="evenodd" d="M2027 1430c5.89-1.37 8.19-4.2 9-7-2.22.59-4.32 1.61-6.23 3.01-1.27.97-2.24 2.37-2.77 3.99Z"/>
    <path fill="#407BFF" fill-rule="evenodd" d="M2000 1464.12c-13.62-1.86-40 18.64-40 18.64l10.89 31.24 25.2-2.35Z"/>
    <path fill="#FFF" fill-opacity=".6" fill-rule="evenodd" d="m1996.05 1511.65-2.21.21-22.95 2.14-4.46-12.84-6.43-18.4s26.49-20.5 40-18.64l-1.91 23.02-1.43 17.26Z"/>
    <path fill-opacity=".2" fill-rule="evenodd" d="M1996.16 1504.13c-.76 2.63-1.7 5.2-2.82 7.68l-22.89 2.19-4.45-13.12c10.19-12.94 30.77-17.88 30.77-17.88.35 1.15.63 2.33.81 3.53.87 5.9.38 11.93-1.42 17.6Z"/>
    <path fill="#407BFF" fill-rule="evenodd" d="M2083.8 1555H1974c8.32-70.48 25.37-91.05 25.37-91.05a239.84 239.84 0 0 1 24.06-6.06c.62.58 2.55 1.3 7.6 1.54 8.93-.26 17.81-1.41 26.51-3.43 48.81 9.02 26.26 99 26.26 99Z"/>
    <path fill="#FFF" fill-opacity=".6" fill-rule="evenodd" d="M2085.04 1549.41c-.72 3.43-1.24 5.59-1.24 5.59H1974c8.32-70.48 25.37-91.05 25.37-91.05 7.91-2.43 15.94-4.46 24.07-6.06.61.58 2.54 1.3 7.59 1.54 8.93-.26 17.81-1.41 26.51-3.43 13.75 2.54 21.76 11.48 26.3 23.04 9.18 23.24 3.85 57.17 1.2 70.37Z"/>
    <path fill-opacity=".2" fill-rule="evenodd" d="M2085.01 1549.65c-23.94 6.93-60.65-1.36-66.79-25.96-9.56-38.32 40.16-50.34 40.16-50.34 8.82-1.17 17.79.62 25.5 5.09 9.14 23.56 3.79 57.87 1.13 71.21Z"/>
    <path fill="#EBB376" fill-rule="evenodd" d="m1884.49 1475.76 3.51-8.87s-28.11-15.5-32.36-11.1-7.87 19.84 0 23.45c7.87 3.61 17.57 5.84 21.47 4.23 3.08-1.92 5.62-4.57 7.38-7.71Z"/>
    <path fill-opacity=".2" fill-rule="evenodd" d="m1884.49 1475.76 3.51-8.87s-28.11-15.5-32.36-11.1-7.87 19.84 0 23.45c7.87 3.61 17.57 5.84 21.47 4.23 3.08-1.92 5.62-4.57 7.38-7.71Z"/>
    <path fill-rule="evenodd" d="M1892.62 1543.7c-1.94.82-4.16-.1-4.98-2.06 0-.01-.01-.03-.02-.05l-28.33-69.23c-.8-1.98.13-4.24 2.08-5.06 1.96-.83 4.2.1 5.02 2.08 0 .01.01.02.01.03l28.3 69.24c.82 1.95-.09 4.2-2.03 5.03-.02 0-.04.01-.05.02Z"/>
    <path fill="#263238" fill-rule="evenodd" d="M2014.63 1381.03s-7.17-8.42-1.35-15.7c5.81-7.28 20.39-12.94 21.68-9.08 1.28 3.87-3.47 5.45 0 6.14 3.46.69 11.11-3.45 18.07-2.72 6.96.72 1.77 2.72 5.47 5.45 3.71 2.73 9.21 2.73 13.09 5.24 3.88 2.52-2.49 6.91-2.49 6.91s8.9 0 8.9 5.83-10.04 4.76-10.04 4.76 6.06 4.38 4.74 8.11c-1.31 3.72-23.37-3.25-27.08-11.11 0 .13-25.17 3.59-30.99-3.83Z"/>
    <path fill-rule="evenodd" d="M2509.81 1647H1502.16c-2.3 0-4.16 1.87-4.16 4.18v146.25c0 2.31 1.86 4.18 4.16 4.18h282.79c2.29 0 4.16 1.87 4.16 4.18v12.03c0 2.31 1.86 4.18 4.15 4.18h123.2c2.3 0 4.16-1.87 4.16-4.18v-12.03c0-2.31 1.86-4.18 4.16-4.18h121.75c2.3 0 4.16 1.87 4.16 4.18 0 2.31 1.86 4.18 4.16 4.18h55.46c2.3 0 4.16-1.87 4.16-4.18 0-2.31 1.86-4.18 4.16-4.18h50.76c2.29 0 4.16 1.87 4.16 4.18v4.87c0 2.31 1.86 4.19 4.15 4.19h107.33c2.29 0 4.15-1.88 4.15-4.18v-4.88c0-2.31 1.87-4.18 4.16-4.18h216.5c2.3 0 4.16-1.87 4.16-4.18v-146.25c0-2.31-1.86-4.18-4.16-4.18h-.03Z"/>
    <path fill="#263238" fill-rule="evenodd" d="M1762 1783.5c0 59.92-48.58 108.5-108.5 108.5s-108.5-48.58-108.5-108.5 48.58-108.5 108.5-108.5 108.5 48.58 108.5 108.5Zm709 0c0 59.92-48.58 108.5-108.5 108.5s-108.5-48.58-108.5-108.5 48.58-108.5 108.5-108.5 108.5 48.58 108.5 108.5Zm-409.9-239.94s13.97-57.34 32.48-68.13c0 0-6.11-4.48 1.78-24.13 7.89-19.65 15.37-35.68 28.45-31.68s49.46 27.75 0 55.81c0 0 10.25 27 10.25 87.16s-62.58 125.56-75.83 115.35c-13.26-10.2 2.87-134.38 2.87-134.38Zm319.3-63.86c-6.02 7.5-6.09 17.9-4.69 26.43a69.88 69.88 0 0 0 4.25 15.06L2178 1547v-34.95s-1.54-21.02 101.7-22.83c0 0 57.5-55.56 70.41-54.2 19.61 2.06 12.25 17.74 12.25 17.74 4.97-1.33 10.2-1.33 15.17 0 8.45 2.94 14.85 12.01 2.87 26.94Z"/>
    <path fill-opacity=".2" fill-rule="evenodd" d="M2380.39 1480.02c-6.04 7.52-6.11 17.96-4.7 26.51-39.46 7.04-184.8 17.17-177.42 7.49 8.17-10.55 91.3-9.17 96.07-12.23 4.77-3.05 67.96-48.79 67.96-48.79a29.451 29.451 0 0 1 15.2 0c8.48 2.96 14.89 12.05 2.89 27.02Z"/>
    <path fill="#00B0F0" fill-rule="evenodd" d="m2558.86 1777.43-76.33.62c-4.54-66.35-61.95-116.46-128.23-111.91-60.68 4.17-108.71 53.03-111.89 113.84l-468.64 3.85v-.41c-.23-66.51-54.27-120.24-120.71-120.01-40.64.14-78.46 20.82-100.55 54.98a119.4 119.4 0 0 0-19.15 65.03v2.58l-23.4-11.04-58.97-27.84s-17.7-112.21 33.09-171.77c50.8-59.56 242.16-103.77 242.16-103.77s55.78-75.7 92.07-112.59l3.23-3.23a9.779 9.779 0 0 1 6.87-2.75h22.2a3.613 3.613 0 0 1 3.44 5.23c-10.79 22.19-51.89 109.45-51.89 153.8h487.61l90.83-32.51s147.02 30.14 163.93 49.72c2.68 4.31 4.4 9.16 5.02 14.21 11.31 54.46 9.31 233.97 9.31 233.97Z"/>
    <path fill="#407BFF" fill-rule="evenodd" d="M1524.9 1544.55c26.02-6.6 20.18 47.56-15.2 76.58-35.38 29.02-49.31 27.72-53.23 11.14-3.92-16.57 16.47-74.51 68.43-87.72Z"/>
    <path fill="#FFF" fill-opacity=".6" fill-rule="evenodd" d="M1524.9 1544.55c26.02-6.6 20.18 47.56-15.2 76.58-35.38 29.02-49.31 27.72-53.23 11.14-3.92-16.57 16.47-74.51 68.43-87.72Z"/>
    <path fill="#FFF" fill-opacity=".6" fill-rule="evenodd" d="M1522.69 1589.21c-4.69 16.39-15.09 27.79-23.19 25.5-8.1-2.3-10.92-17.37-6.23-33.91 4.7-16.54 15.1-27.8 23.23-25.5 8.14 2.29 10.92 17.51 6.19 33.91Zm-39.78 23.17c-2.2 7.41-7.11 12.54-10.91 11.48-3.8-1.05-5.15-7.88-2.91-15.25 2.23-7.36 7.11-12.53 10.91-11.47 3.8 1.05 5.15 7.88 2.91 15.24Z"/>
    <path fill="#FFF" fill-opacity=".2" fill-rule="evenodd" d="M1531.01 1577.16s-27.98 33.51-68.01 32.83c0 0 17.62-46.69 61.67-60.99.07.03 13.22 9.86 6.34 28.16Z"/>
    <path fill="#263238" fill-rule="evenodd" d="M1835.76 1361.38c-3.64 5.91-7.42 12.44-11.26 19.27-19.1 33.81-39.15 74.98-45.2 87.55a6.865 6.865 0 0 1-6.08 3.8H1726s55.74-75.98 92.01-113h16.41c.86-.02 1.56.66 1.58 1.52.01.31-.08.61-.24.86Z"/>
    <path fill="#FFF" fill-opacity=".2" fill-rule="evenodd" d="M1835.76 1361.38c-3.65 5.91-7.43 12.44-11.28 19.27a777.27 777.27 0 0 0-88.16 91.35H1726s55.82-75.98 92.15-113h16.44c.85.08 1.48.83 1.4 1.68-.02.25-.1.49-.23.7Z"/>
    <path fill="#00B0F0" fill-rule="evenodd" d="m2510 1725.64-27.01 52.59c-4.55-66.24-61.96-116.26-128.24-111.72-60.68 4.16-108.71 52.94-111.89 113.64l-468.64 3.85v-.41c-.23-66.4-54.27-120.04-120.7-119.81-40.65.14-78.47 20.79-100.56 54.89l-22.96-19.41s29.28-74.26 124.03-74.26c94.76 0 136.89 71.65 147.79 123.11h413.13S2251.14 1625 2362.91 1625c111.76 0 147.09 100.64 147.09 100.64Zm-973.88 95.63c.06 5.87-4.65 10.67-10.51 10.73h-29.43c-4.39 0-8.66-1.45-12.15-4.11l-52.26-40.05a33.017 33.017 0 0 1-8.53-9.77 32.908 32.908 0 0 1-4.24-16.11v-47.65c.04-5.68 2.42-11.09 6.57-14.95l23.34-21.36h55.17l47.92 40.66c-14.89 22.9-16.09 78.99-15.88 102.61Z"/>
    <path fill-opacity=".2" fill-rule="evenodd" d="M1479.95 1746c.41 8.48-1.93 16.86-6.68 23.89a9.576 9.576 0 0 1-7.28 4.11c-7.72 0-13.99-12.51-13.99-28s6.27-28 13.99-28c2.61.15 5.03 1.41 6.66 3.46 4.34 4.66 7.3 13.93 7.3 24.54Z"/>
    <path fill="#FFF" fill-opacity=".2" fill-rule="evenodd" d="M1479.95 1746.29a38.79 38.79 0 0 1-6.66 23.71c-4.33-4.7-7.25-14-7.25-24.29a39.224 39.224 0 0 1 6.63-23.71c4.33 4.56 7.28 13.76 7.28 24.29Z"/>
    <path fill="#FFF" fill-opacity=".102" fill-rule="evenodd" d="m1504 1678-30.8 27H1421c1.1-2.24 2.62-4.26 4.48-5.94l23.35-21.03Z"/>
    <path fill-opacity=".2" fill-rule="evenodd" d="M1536.09 1821.27c.06 5.87-4.66 10.67-10.53 10.73h-29.49c-4.4 0-8.67-1.45-12.17-4.11l-52.36-40.05a33.05 33.05 0 0 1-8.54-9.77h62.44l32.1 26.09s-5.18-54.85 22.84-88.28l-36.39-37.88 48.01 40.66c-14.92 22.9-16.12 78.99-15.91 102.61Z"/>
    <path fill="#00B0F0" fill-rule="evenodd" d="m2483 1778.32 59.07-113.32h17.15l20.38 12.67a20 20 0 0 1 9.4 16.97v86.4c0 6.61-3.28 12.8-8.75 16.52l-22.71 15.45c-1.9 1.29-4.15 1.98-6.45 1.99h-56.56c-6.37 0-11.53-5.17-11.53-11.54Z"/>
    <path fill-rule="evenodd" d="M1801.26 1749c-.97 0-1.75-.77-1.75-1.71 0-22.5-22.95-54.97-23.2-55.31-.2-.28-.31-.62-.31-.96 0-136.17 12.94-170.97 13.5-172.37l6.35-29.29c.21-.91 1.12-1.5 2.06-1.33.94.18 1.55 1.09 1.37 2.01-.01.02-.01.03-.01.04l-6.46 29.53c-.21.58-13.29 36.13-13.32 170.86 2.96 4.21 23.51 34.42 23.51 56.82 0 .94-.78 1.71-1.74 1.71Z"/>
    <path fill="#263238" fill-rule="evenodd" d="M1806.46 1476.03c-6.48.02-12.09 4.4-13.52 10.55-2.78 11.97-6.18 30.06-1.94 32.02 4.24 1.96 26.23 2.33 41.1 2.4 7.68 0 13.9-6.05 13.9-13.52v-2.03c0-16.25-13.53-29.43-30.23-29.45Z"/>
    <path fill-opacity=".2" fill-rule="evenodd" d="M1806.46 1476.03c-6.48.02-12.09 4.4-13.52 10.55-2.78 11.97-6.18 30.06-1.94 32.02 4.24 1.96 26.23 2.33 41.1 2.4 7.68 0 13.9-6.05 13.9-13.52v-2.03c0-16.25-13.53-29.43-30.23-29.45Z"/>
    <path fill="#263238" fill-rule="evenodd" d="M1875.32 1498.49c-5.87 2.53-41.62 2.73-41.62 2.73l-.82 2.6c-1.12 3.68-4.54 6.19-8.41 6.18h-4.42c-3.79.1-6.95-2.88-7.05-6.65-.01-.59.05-1.18.18-1.75.62-2.87 1.34-6.25 2.2-9.87 3.43-15.03 8.41-34.16 11.91-36.65 5.14-3.42 36.64-2.6 47.69 2.29 1.34.5 2.52 1.35 3.43 2.45 4.6 6.97 2.78 36.14-3.09 38.67Z"/>
    <path fill="#FFF" fill-opacity=".102" fill-rule="evenodd" d="M1875 1457.42c-.45 9.61-1.79 19.16-4.01 28.53-.89 4.14-4.52 7.16-8.81 7.33l-38.82 1.71a11.1 11.1 0 0 1-8.36-3.24c3.45-15.02 8.46-34.13 11.99-36.62 5.28-3.55 36.99-2.59 48.01 2.29Z"/>
    <path fill-rule="evenodd" d="M2125.53 1750.63c-.17.8-.9 1.37-1.75 1.37h-.35c-.95-.17-1.57-1.04-1.4-1.96 0-.02.01-.05.01-.07 31.7-151 18.84-236.87 18.73-237.73a.488.488 0 0 1 0-.24h3.55c.79 5.47 12.16 91.23-18.79 238.63Z"/>
    <path fill-opacity=".2" fill-rule="evenodd" d="M2108.44 1579h-37.88c-8.59 0-15.56 6.94-15.56 15.5 0 8.56 6.97 15.5 15.56 15.5h37.88c8.59 0 15.56-6.94 15.56-15.5 0-8.56-6.97-15.5-15.56-15.5Zm5.88 22.53h-49.6c-3.91 0-7.07-3.16-7.07-7.05 0-3.89 3.16-7.04 7.07-7.04h49.56c3.91 0 7.07 3.15 7.07 7.04s-3.16 7.05-7.07 7.05Z"/>
    <path fill-opacity=".4" fill-rule="evenodd" d="M2581.29 1711h7.71v57h-7.71c-5.68 0-10.29-4.65-10.29-10.38v-36.14c-.06-5.73 4.5-10.42 10.18-10.48h.11Zm-23.29-55c-13.91-5.25-24.34-23.39-25-45.33v-2.58c0-20.06 8.03-37.31 19.58-45.09 1.6 13.44 2.81 29.9 3.72 47.67.73 14.54 1.25 29.97 1.7 45.33Z"/>
    <path fill="#FFF" fill-opacity=".6" fill-rule="evenodd" d="M2558 1656c-13.91-5.32-24.34-23.73-25-46h23.23c.8 14.75 1.32 30.41 1.77 46Z"/>
    <path fill="#FFF" fill-opacity=".2" fill-rule="evenodd" d="M1743.27 1588h-22.54c-3.72 0-6.73-3.13-6.73-7s3.01-7 6.73-7h22.54c3.72 0 6.73 3.13 6.73 7s-3.01 7-6.73 7Z"/>
    <path fill="#EBB376" fill-rule="evenodd" d="M2072 1503.94s-40.82 44.49-50.07 50.53c-9.26 6.04-62.81-41.65-62.81-41.65s-28.81-6.73-29.11-6.94c-.31-.21 13.76-13.88 20.95-13.88 7.2 0 18.11 11.9 18.45 11.94.34.03 39.34 31.86 45.74 27.76 6.4-4.09 26.6-37.06 26.6-37.06Z"/>
    <path fill="#407BFF" fill-rule="evenodd" d="M2075.76 1462.89c19.43 13.67 5.63 42.33-17.5 66.11l-32.26-20.67s26.08-62.28 49.76-45.44Z"/>
    <path fill="#FFF" fill-opacity=".6" fill-rule="evenodd" d="M2075.76 1462.89c19.43 13.67 5.63 42.33-17.5 66.11l-32.26-20.67s26.08-62.28 49.76-45.44Z"/>
    <path fill="#263238" fill-rule="evenodd" d="M1979.244 1225.975c.101-8.378 12.9-49.98 50.933-25.921 28.263 17.882 5.757 53.84 34.194 68.474 0 0-51.194 5.833-55.699-27.89-3.526-26.62-22.311-9.97-22.311-9.97Z"/>
    <path fill="#FF0083" fill-rule="evenodd" d="M1985.246 1236.075c2.423-1.037 4.645-4.94 3.44-6.106-1.203-1.165-8.074-5.864-10.335-6.214-2.573-.412-4.136 5.603-4.136 5.603Z"/>
    <path fill="#263238" fill-rule="evenodd" d="M1945.702 1235.43c-2.7 4.915-9.01 22.095 1.827 30.034 10.836 7.938-1.827-30.035-1.827-30.035Z"/>
    <path fill="#FF0083" fill-rule="evenodd" d="M1933.034 1309.004c-17.909 7.388-23.522 28.577-23.522 28.577l28.905 14.581s10.239-19.9 8.972-28.643c-1.36-9.11-5.155-18.309-14.355-14.515Z"/>
    <path fill="#FFA397" fill-rule="evenodd" d="M1983.046 1274.321c-2.072 9.46-4.315 26.784 2.211 33.274 0 0-2.818 9.56-20.473 9.15-19.425-.438-9.1-9.766-9.1-9.766 10.657-2.29 10.555-10.137 8.88-17.546Z"/>
    <path fill="#CE6F64" fill-rule="evenodd" d="m1975.522 1280.46-10.934 8.899c.418 1.727.682 3.489.784 5.262 4.063-.5 10.256-3.98 10.783-8.195.14-2.01-.073-4.03-.633-5.965Z"/>
    <path fill="#FFA397" fill-rule="evenodd" d="M1985.834 1252.67c.182 15.888.584 22.596-6.808 31.282-11.127 13.05-30.693 9.767-35.617-5.72-4.441-13.968-3.993-37.567 11.064-45.057 10.732-5.313 23.756-.93 29.09 9.79a21.657 21.657 0 0 1 2.27 9.705Z"/>
    <path fill="#263238" fill-rule="evenodd" d="M1984.67 1265.357c-7.047-3.337-16.525-15.451-15.265-21.814 0 0-18.13 5.088-24.225-2.342-5.322-6.5 16.55-20.987 33.623-11.963 18.572 9.78 15.138 28.052 5.867 36.12Z"/>
    <path fill="#FFA397" fill-rule="evenodd" d="M1989.32 1266.734a11.618 11.618 0 0 1-3.668 8.071c-3.006 2.748-6.333.502-7.04-3.29-.636-3.414.139-8.943 3.901-10.256a5.229 5.229 0 0 1 6.576 3.354 5.19 5.19 0 0 1 .23 2.121Z"/>
    <path fill="#263238" fill-rule="evenodd" d="M1962.158 1258.811c.078 1.27-.521 2.375-1.36 2.421-.84.047-1.598-.922-1.696-2.199-.099-1.277.508-2.401 1.347-2.448.839-.047 1.618.93 1.709 2.226Zm-14.568 1.057c.097 1.276-.522 2.374-1.361 2.421-.839.047-1.598-.923-1.69-2.22-.09-1.296.502-2.38 1.34-2.427.84-.047 1.619.93 1.71 2.226Z"/>
    <path fill="#263238" fill-rule="evenodd" d="m1946.26 1257.68-3.15-.676s1.689 2.286 3.15.676Z"/>
    <path fill="#FF8B7B" fill-rule="evenodd" d="M1951.593 1261.79a34.356 34.356 0 0 1-4.003 8.534 5.615 5.615 0 0 0 4.662.548Z"/>
    <path fill="#263238" fill-rule="evenodd" d="m1957.034 1275.57.14.048a10.826 10.826 0 0 0 8.638-4.976.4.4 0 0 0-.136-.512.378.378 0 0 0-.515.146l-.006.009a10.344 10.344 0 0 1-8.036 4.582.379.379 0 0 0-.356.389.38.38 0 0 0 .271.314Z"/>
    <path fill="#FF0083" fill-rule="evenodd" d="M1993.142 1310.168c6.895-4.195 30.306 5.499 30.306 5.499l-3.331 29.177s-23.181-4.859-29.371-13.154c-5.268-7.053-6.385-16.17 2.396-21.522Z"/>
    <path fill="#263238" fill-rule="evenodd" d="m1960.84 1256.63-3.15-.676s1.748 2.306 3.15.676Z"/>
    <path fill="#FF0083" fill-rule="evenodd" d="M1928.058 1310.607s-7.25 2.276 5.983 96.447l65.044 1.492c-.512-26.457-.18-42.746 13.652-96.692a191.806 191.806 0 0 0-27.466-4.248 206.963 206.963 0 0 0-29.554-.677 272.995 272.995 0 0 0-27.659 3.678Z"/>
    <path fill="#F2F2F2" fill-rule="evenodd" d="M2426 1783c0 34.79-28.21 63-63 63s-63-28.21-63-63 28.21-63 63-63 63 28.21 63 63Zm-709 0c0 34.79-28.43 63-63.5 63s-63.5-28.21-63.5-63 28.43-63 63.5-63 63.5 28.21 63.5 63Z"/>
    <path fill="none" stroke="#A6A6A6" stroke-linejoin="round" stroke-miterlimit="10" stroke-width="3.438" d="M1623.5 1784c0-17.4 13.43-31.5 30-31.5s30 14.1 30 31.5-13.43 31.5-30 31.5-30-14.1-30-31.5Zm708-1c0-17.4 13.43-31.5 30-31.5s30 14.1 30 31.5-13.43 31.5-30 31.5-30-14.1-30-31.5Z"/>
  </g>
</svg>
