<svg id="99c3209b-2053-4283-86dd-067f2129ce82" data-name="Layer 1" xmlns="http://www.w3.org/2000/svg" viewBox="0 0 29.02 50"><title>arrowleft</title><path id="9d8ef24b-e771-46d3-825a-c2aec8d51630" data-name="arrowleft.svg" d="M8.92,25,28.51,5.3A1.72,1.72,0,0,0,29,4.15,1.64,1.64,0,0,0,28.51,3L26,.49A1.56,1.56,0,0,0,23.81.41l-.08.08L.49,23.84a1.58,1.58,0,0,0-.07,2.23l.07.07L23.73,49.49a1.56,1.56,0,0,0,2.21.08l.08-.08L28.51,47a1.58,1.58,0,0,0,.07-2.23l-.07-.07Z" transform="translate(0 0.01)"/></svg>