<svg id="edbee454-f168-483c-94a9-f6493dd4e040" data-name="Layer 1"
     xmlns="http://www.w3.org/2000/svg" viewBox="0 0 29.01 50">
    <title>arrowright</title>
    <path id="b01e0cd0-1631-4f8f-a970-9d5cd4882124" data-name="arrowright.svg"
          d="M20.08,25,.49,44.7A1.72,1.72,0,0,0,0,45.85,1.63,1.63,0,0,0,.49,47L3,49.51a1.72,1.72,0,0,0,1.15.5,1.7,1.7,0,0,0,1.14-.5L28.51,26.16a1.59,1.59,0,0,0,0-2.25l0,0L5.27.51A1.7,1.7,0,0,0,4.13,0,1.72,1.72,0,0,0,3,.51L.49,3A1.57,1.57,0,0,0,.41,5.24l.08.08Z"
          transform="translate(0.01 -0.01)"/>
</svg>