<svg id="d480ffb5-38fa-4b25-bae7-dc301f77274e" data-name="Layer 1" xmlns="http://www.w3.org/2000/svg" viewBox="0 0 18 16"><title>back</title><path id="2150ad97-2db3-4546-83b3-3a41a7bb4eae" data-name="back.svg" d="M.53,7.23c1.4-3.45,5.49-4,8.79-4h2.25V.63a.64.64,0,0,1,1.1-.45L17.81,5.3a.63.63,0,0,1,0,.89h0l-5.14,5.12a.64.64,0,0,1-.45.19.65.65,0,0,1-.64-.64V8.31H9.32c-4.33,0-7.17.83-7.17,5.6,0,.41,0,.82,0,1.23,0,.16,0,.34,0,.5A.32.32,0,0,1,2,16h0a.32.32,0,0,1-.28-.17,5.49,5.49,0,0,1-.37-.76A12.66,12.66,0,0,1,0,10.56,9,9,0,0,1,.53,7.23Z" transform="translate(0 0.01)"/></svg>