<svg id="e54e6547-60c3-436b-a265-688701e7be97" data-name="Layer 1" xmlns="http://www.w3.org/2000/svg" viewBox="0 0 16.96 18"><title>calendar</title><path id="e75c7662-f84b-492e-9022-53dfded214ba" data-name="calendar.svg" d="M15.67,2.57h-1.3v-1A1.62,1.62,0,0,0,12.73,0h-.65a1.62,1.62,0,0,0-1.63,1.61v1H6.53v-1A1.62,1.62,0,0,0,4.9,0H4.25A1.62,1.62,0,0,0,2.62,1.61v1H1.31A1.3,1.3,0,0,0,0,3.86V16.71A1.3,1.3,0,0,0,1.31,18H15.67A1.3,1.3,0,0,0,17,16.71V3.86A1.3,1.3,0,0,0,15.67,2.57ZM4.25,16.71H1.31V13.82H4.25Zm0-3.54H1.31V10H4.25Zm0-3.86H1.31V6.43H4.25ZM3.92,4.5V1.61a.33.33,0,0,1,.33-.32H4.9a.33.33,0,0,1,.33.32V4.5a.33.33,0,0,1-.33.32H4.25a.33.33,0,0,1-.33-.32ZM8.17,16.71H4.9V13.82H8.17Zm0-3.54H4.9V10H8.17Zm0-3.86H4.9V6.43H8.17Zm3.91,7.39H8.82V13.82h3.26Zm0-3.54H8.82V10h3.26Zm0-3.86H8.82V6.43h3.26ZM11.75,4.5V1.61a.33.33,0,0,1,.33-.32h.65a.33.33,0,0,1,.33.32V4.5a.33.33,0,0,1-.33.32h-.65a.33.33,0,0,1-.33-.32Zm3.92,12.21H12.73V13.82h2.94Zm0-3.54H12.73V10h2.94Zm0-3.86H12.73V6.43h2.94Z" transform="translate(-0.01 0)"/></svg>