<svg id="c740a0c8-b58b-4fcf-adb8-ebb8644b60f6" data-name="Layer 1" xmlns="http://www.w3.org/2000/svg" viewBox="0 0 70.03 70"><title>click</title><path id="0795e2a0-14e1-487f-a908-af95af1d0865" data-name="click.svg" d="M59.19,0H10.84A10.92,10.92,0,0,0,0,11V28.19a10.92,10.92,0,0,0,10.85,11H22.31a1.19,1.19,0,0,0,.71-.26l7.36,11.58,0,0c-2.43-1.16-6.75-.53-8.85.78a1.26,1.26,0,0,0-.47.53,5.23,5.23,0,0,0,2.46,6.92l20.78,9.92a14,14,0,0,0,6,1.39,14.44,14.44,0,0,0,10.59-4.87c4-4.33,6.43-11.76,2.73-18.6l-4-7.4A10.91,10.91,0,0,0,70,28.19V11A10.92,10.92,0,0,0,59.19,0Zm2.25,47.72c3.11,5.75,1.06,12-2.36,15.7-3,3.18-8.12,5.62-13.76,2.93L24.53,56.44a2.73,2.73,0,0,1-1.41-3.26c1.59-.79,4.71-1.16,6.16-.46l3.94,1.88a1.22,1.22,0,0,0,1.45-.31,1.26,1.26,0,0,0,.11-1.5L22.3,33.16a2.6,2.6,0,0,1-.33-2,2.75,2.75,0,0,1,1.21-1.73h0a2.71,2.71,0,0,1,3.71.92L33,39.57a1.21,1.21,0,0,0,1.26.53,1.23,1.23,0,0,0,1-1A2.66,2.66,0,0,1,39.87,38a1.21,1.21,0,0,0,1.33.38,1.24,1.24,0,0,0,.85-1.1,2.74,2.74,0,0,1,1.26-2.11,2.67,2.67,0,0,1,3.45.56,1.24,1.24,0,0,0,1.33.39,1.25,1.25,0,0,0,.85-1.1,2.71,2.71,0,0,1,1.26-2.11,2.79,2.79,0,0,1,2.16-.33,2.35,2.35,0,0,1,1.48,1.15Zm6.14-19.53a8.44,8.44,0,0,1-8.38,8.48,1.18,1.18,0,0,0-.77.3L56,32.5a4.79,4.79,0,0,0-3-2.36,5.14,5.14,0,0,0-6,2.67A5.12,5.12,0,0,0,42,33a5.19,5.19,0,0,0-1.86,2.05,5.14,5.14,0,0,0-6.29,1.33L28.93,29a5.16,5.16,0,0,0-7.05-1.65,5.24,5.24,0,0,0-2.32,3.3,5.11,5.11,0,0,0,.66,3.88l1.38,2.16H10.84a8.44,8.44,0,0,1-8.38-8.48V11A8.44,8.44,0,0,1,10.84,2.5H59.19A8.44,8.44,0,0,1,67.57,11V28.19Z"/></svg>