<svg id="d46e3b8f-b622-4d56-afaf-b13ef157c5e4" data-name="Layer 1" xmlns="http://www.w3.org/2000/svg" viewBox="0 0 53.88 50.37"><title>clock</title><path id="dc763bd8-02aa-4e37-8349-5172435c4f76" data-name="clock.svg" d="M32.51,41.84h5.56a.8.8,0,0,0,0-1.6H32.51a.64.64,0,0,1-.44-.18.66.66,0,0,1-.18-.44V37.25a.63.63,0,0,1,.19-.45.59.59,0,0,1,.43-.18h4.15A2.15,2.15,0,0,0,38.21,36a2.2,2.2,0,0,0,.65-1.57V32a2.22,2.22,0,0,0-.65-1.57,2.16,2.16,0,0,0-1.55-.65H31.52a.8.8,0,0,0,0,1.6h5.14a.62.62,0,0,1,.62.63v2.36a.62.62,0,0,1-.61.63H32.51a2.18,2.18,0,0,0-1.55.65,2.2,2.2,0,0,0-.64,1.57v2.36A2.23,2.23,0,0,0,31,41.23,2.16,2.16,0,0,0,32.51,41.84Zm10.42-5.22h4.4V41a.79.79,0,1,0,1.58,0h0V30.6a.79.79,0,1,0-1.58,0h0V35h-4.4a.64.64,0,0,1-.44-.18.67.67,0,0,1-.18-.45V30.6a.79.79,0,0,0-1.57,0h0v3.79A2.2,2.2,0,0,0,41.38,36a2.18,2.18,0,0,0,1.55.65ZM27,24.75a.8.8,0,0,0-.16-1.12l-1-.75L35,13.61a.8.8,0,0,0,0-1.13.79.79,0,0,0-.56-.23h0a.79.79,0,0,0-.56.23l-8.13,8.23.22-.54a.8.8,0,0,0-.43-1,.75.75,0,0,0-.6,0,.78.78,0,0,0-.43.44l-.71,1.77L15.1,14.73a.79.79,0,0,0-.59-.15.77.77,0,0,0-.51.31l-1.66,2.24a.81.81,0,0,0,.16,1.12l9,6.81L20.27,26.3a.8.8,0,0,0,0,1.13.79.79,0,0,0,1.11,0h0l0,0L17.25,37.77a.81.81,0,0,0,.44,1,.73.73,0,0,0,.29.06.78.78,0,0,0,.31-.06.74.74,0,0,0,.42-.43l4.75-11.84.81.61A.79.79,0,0,0,25.38,27h0Zm-1.74-.32-.7,1L14.08,17.45l.71-1Zm24.49,1.1a15,15,0,0,0-2.49-2,24.29,24.29,0,0,0-1.79-8.72,23.83,23.83,0,0,0-12.81-13A23.44,23.44,0,0,0,6.93,7a24.11,24.11,0,0,0,0,33.84A23.44,23.44,0,0,0,30.3,46.92a14.25,14.25,0,0,0,19.48-.8,15,15,0,0,0,0-20.58ZM30.56,26.66A12.69,12.69,0,0,1,48.5,26.5l.16.16a13.07,13.07,0,0,1,0,18.32,12.69,12.69,0,0,1-17.95.15L30.56,45a13.06,13.06,0,0,1,0-18.32ZM25.6,42a18.3,18.3,0,0,1-5.45-.24,17.55,17.55,0,0,1-3.35-1A17.35,17.35,0,0,1,13.71,39,18.39,18.39,0,0,1,11,36.76,17.79,17.79,0,0,1,8.75,34a18,18,0,0,1-1.66-3.13A18.45,18.45,0,0,1,7.09,17a18.07,18.07,0,0,1,6.62-8.15A17.6,17.6,0,0,1,16.8,7.18l.13-.05a17.77,17.77,0,0,1,3.22-1,18,18,0,0,1,7,0,17.56,17.56,0,0,1,3.35,1,18,18,0,0,1,3.1,1.67,18.58,18.58,0,0,1,2.72,2.27l.11.11a18,18,0,0,1,2.12,2.64A18.33,18.33,0,0,1,40.21,17a17.7,17.7,0,0,1,.85,2.64,16.44,16.44,0,0,1,.33,1.73,14.56,14.56,0,0,0-1.78-.11,14.21,14.21,0,0,0-10.17,4.26,14.69,14.69,0,0,0-2.92,16.31c-.31.05-.62.09-.92.13ZM43,21.68a19.64,19.64,0,0,0-.42-2.41,20.47,20.47,0,0,0-.94-2.91,19.75,19.75,0,0,0-4.11-6.26h0L37.43,10a19.32,19.32,0,0,0-21.19-4.3l0,0a19,19,0,0,0-3.37,1.82A19.72,19.72,0,0,0,7.44,13a19.45,19.45,0,0,0-1.8,3.41,20,20,0,0,0-1.11,3.69,20.24,20.24,0,0,0,0,7.7,20,20,0,0,0,1.11,3.69,19.09,19.09,0,0,0,1.8,3.41,19.78,19.78,0,0,0,2.46,3,20,20,0,0,0,2.93,2.43,19.54,19.54,0,0,0,3.37,1.82,19.08,19.08,0,0,0,3.64,1.12,19.54,19.54,0,0,0,5.93.26c.5-.05,1-.13,1.52-.23A14.53,14.53,0,0,0,29,45.61c-.65.16-1.32.3-2,.4A21.86,21.86,0,0,1,8.05,39.73,22.42,22.42,0,0,1,15.21,3.3a21.93,21.93,0,0,1,16.88,0A22.3,22.3,0,0,1,44,15.4a22.61,22.61,0,0,1,1.64,7.22A14.34,14.34,0,0,0,43,21.68Z" transform="translate(0 -0.01)"/></svg>