<svg id="29610418-9adc-4dd9-9242-1bcf84aa8b92" data-name="Layer 1" xmlns="http://www.w3.org/2000/svg" viewBox="0 0 26.01 26.01"><title>close</title><path id="39f4b258-d321-454a-a04e-ec53f427da3e" data-name="close.svg" d="M13,0A13,13,0,1,0,26,13,13,13,0,0,0,13,0Zm6.13,16.07a1.08,1.08,0,0,1,.32.76,1.12,1.12,0,0,1-.32.78l-1.52,1.52a1.12,1.12,0,0,1-.78.32,1.08,1.08,0,0,1-.76-.32L13,16.06,9.94,19.13a1.08,1.08,0,0,1-.76.32,1.12,1.12,0,0,1-.78-.32L6.88,17.6a1.12,1.12,0,0,1-.32-.78,1.08,1.08,0,0,1,.32-.76L9.94,13,6.88,9.93a1.08,1.08,0,0,1-.32-.76,1.12,1.12,0,0,1,.32-.78L8.4,6.87a1.12,1.12,0,0,1,.78-.32,1.08,1.08,0,0,1,.76.32L13,9.93l3.07-3.07a1.08,1.08,0,0,1,.76-.32,1.12,1.12,0,0,1,.78.32l1.52,1.52a1.12,1.12,0,0,1,.32.78,1.08,1.08,0,0,1-.32.76L16.07,13Z" transform="translate(0 0.01)"/></svg>