<svg id="70c674a7-ef55-4c56-83bf-dc71345f402b" data-name="Layer 1" xmlns="http://www.w3.org/2000/svg" viewBox="0 0 36 36"><title>contact</title><path id="bdbc6eac-7519-4f7f-b120-36559c9265cd" data-name="contact.svg" d="M13.85,16.29a1.5,1.5,0,1,0-1.49-1.51v0A1.49,1.49,0,0,0,13.85,16.29Zm0-1.55.05.06h-.1A.06.06,0,0,1,13.85,14.74Zm8.33,1.55a1.5,1.5,0,1,0-1.49-1.51v0a1.49,1.49,0,0,0,1.49,1.49Zm0-1.55.05.06h-.1a.06.06,0,0,1,.05-.06Zm1.11,6.8a.72.72,0,0,0-.49-.89.73.73,0,0,0-.89.5,4.37,4.37,0,0,1-7.82,0,.73.73,0,0,0-.89-.5.72.72,0,0,0-.49.89,5.77,5.77,0,0,0,10.58,0ZM36,16.46a6.3,6.3,0,0,0-5.47-6.39,12.88,12.88,0,0,0-3.44-6.42A12.35,12.35,0,0,0,18.75,0H17.29A12.35,12.35,0,0,0,8.94,3.65,12.85,12.85,0,0,0,5.5,10.06a6.47,6.47,0,0,0,.11,12.8h.06a.72.72,0,0,0,.47-.18.71.71,0,0,0,.6-.69V12c0-.14,0-.3,0-.45a12.7,12.7,0,0,0,7.39-5.43A12.68,12.68,0,0,0,28.36,8a9.74,9.74,0,0,1,.94,4V22a11.76,11.76,0,0,1-3.23,7.64A9.83,9.83,0,0,1,21,32a3.13,3.13,0,1,0,.07,1.45,11.23,11.23,0,0,0,6-2.81,13.23,13.23,0,0,0,3.6-7.82A6.31,6.31,0,0,0,36,16.46ZM18,34.56a1.7,1.7,0,1,1,1.69-1.71h0A1.71,1.71,0,0,1,18,34.56ZM1.44,16.46a4.9,4.9,0,0,1,3.86-4.9l0,0c0,.14,0,.29,0,.42v9.35a4.89,4.89,0,0,1-3.86-4.89ZM22.66,7.93a11.25,11.25,0,0,1-8.15-3.46.72.72,0,0,0-1.15.16A11.31,11.31,0,0,1,7,10a11.37,11.37,0,0,1,3-5.32,10.86,10.86,0,0,1,7.33-3.23h1.46a10.86,10.86,0,0,1,7.32,3.23,11.16,11.16,0,0,1,1.61,2.07,11.3,11.3,0,0,1-5,1.19Zm8.08,13.41V12c0-.14,0-.29,0-.44a5,5,0,0,1,0,9.78Z"/></svg>