<svg id="be8c4903-afb7-4cbd-a0cd-fccf8047f4e6" data-name="Layer 1" xmlns="http://www.w3.org/2000/svg" viewBox="0 0 15.05 15.04"><title>dashboard</title><path id="fee26d32-90e9-49e2-8d8b-f3710c7707c0" data-name="dashboard.svg" d="M14.76,6.11,13,5.84a6.14,6.14,0,0,0-.4-1c.33-.46.69-.89,1-1.34a.43.43,0,0,0,.07-.23.39.39,0,0,0-.06-.22A12.87,12.87,0,0,0,12,1.43a.4.4,0,0,0-.25-.1.34.34,0,0,0-.23.09l-1.39,1a6.16,6.16,0,0,0-.88-.36L9,.3A.34.34,0,0,0,8.61,0H6.43a.36.36,0,0,0-.35.27A12.56,12.56,0,0,0,5.8,2.11a5.48,5.48,0,0,0-.89.37l-1.36-1a.4.4,0,0,0-.25-.1A7.31,7.31,0,0,0,1.41,3.08a.37.37,0,0,0-.09.23.36.36,0,0,0,.1.23c.36.44.71.88,1.05,1.35a5.15,5.15,0,0,0-.39.9L.26,6.07A.37.37,0,0,0,0,6.42V8.6A.35.35,0,0,0,.28,9l1.79.26a5.16,5.16,0,0,0,.41,1c-.34.46-.7.89-1,1.34a.36.36,0,0,0-.08.22.37.37,0,0,0,.07.23A12.09,12.09,0,0,0,3,13.62a.36.36,0,0,0,.25.11.34.34,0,0,0,.24-.09l1.39-1a5.34,5.34,0,0,0,.88.36l.27,1.8a.35.35,0,0,0,.35.29H8.61A.35.35,0,0,0,9,14.78,12.59,12.59,0,0,0,9.25,13a6.34,6.34,0,0,0,.89-.37l1.35,1.06a.51.51,0,0,0,.25.09A7.31,7.31,0,0,0,13.63,12a.32.32,0,0,0,.09-.23.39.39,0,0,0-.1-.24c-.36-.44-.71-.87-1-1.35A6.45,6.45,0,0,0,13,9.26L14.77,9A.38.38,0,0,0,15,8.63V6.46A.36.36,0,0,0,14.76,6.11ZM7.52,10A2.51,2.51,0,1,1,10,7.53,2.51,2.51,0,0,1,7.52,10Z" transform="translate(0 -0.01)"/></svg>