<svg id="e1dcca1e-da39-449f-939e-151995595f79" data-name="Layer 1" xmlns="http://www.w3.org/2000/svg" viewBox="0 0 34.81 34"><title>diamond</title><path id="98a6b6fd-0940-435b-8a23-9f5120247328" data-name="diamond.svg" d="M31.4,15.37,28.86,9.92a.73.73,0,0,0-.65-.4H7a.72.72,0,0,0-.63.37l-3,5.44a.65.65,0,0,0-.06.49.68.68,0,0,0,.12.48L16.87,33.71a.69.69,0,0,0,.56.28.72.72,0,0,0,.57-.28L31.32,16.3a.68.68,0,0,0,.12-.48A.7.7,0,0,0,31.4,15.37Zm-1.65-.19H23.12L25,10.91h2.72ZM17.42,29.84,13.84,16.58H21Zm1.3-18.93,1.92,4.27H14.2l1.92-4.27h2.6Zm1.55,0h3.22l-1.61,3.58ZM13,14.49l-1.61-3.58h3.22ZM7.47,10.91H9.8l1.92,4.27H5.15Zm4.91,5.67L16.11,30.4,5.51,16.58Zm6.4,13.79,3.68-13.79h6.87ZM17.33,5.49a.7.7,0,0,0,.7-.7V.69a.71.71,0,1,0-1.41,0v4.1a.7.7,0,0,0,.7.7h0Zm-8.08.79a.72.72,0,0,0,.64.4.66.66,0,0,0,.3-.07.68.68,0,0,0,.36-.89l0,0L8.78,2a.72.72,0,0,0-.94-.34.7.7,0,0,0-.35.93h0Zm-5.36,4a.7.7,0,0,0,.46-1.23L1.16,6.42a.71.71,0,0,0-1,.09.69.69,0,0,0,.08,1h0l3.18,2.64a.74.74,0,0,0,.46.16ZM24.5,6.44a.66.66,0,0,0,.3.07.71.71,0,0,0,.64-.41L27.2,2.39a.7.7,0,0,0-.35-.93h0a.72.72,0,0,0-.94.34L24.16,5.51a.69.69,0,0,0,.33.92h0Zm10.14-.25a.72.72,0,0,0-1-.08L30.45,8.75a.7.7,0,0,0-.08,1,.72.72,0,0,0,.54.25.74.74,0,0,0,.46-.16l3.18-2.64a.7.7,0,0,0,.09-1h0Z"/></svg>