<svg fill="#fff" id="ab9aa45e-3732-49fe-a4ed-4b688ee7f41a" data-name="doublearrow.svg" xmlns="http://www.w3.org/2000/svg" viewBox="0 0 46 22.31"><title>doublearrow</title><path d="M4,11l8.78-8.67A.76.76,0,0,0,13,1.82a.75.75,0,0,0-.22-.51L11.66.21a.71.71,0,0,0-1,0l0,0L.22,10.49A.81.81,0,0,0,0,11a.76.76,0,0,0,.22.51L10.63,21.79a.71.71,0,0,0,1,0l0,0,1.12-1.1a.76.76,0,0,0,.22-.51.81.81,0,0,0-.22-.51Z" transform="translate(0 0.01)"/><path id="e5ceaccf-8898-432d-aad6-a66e6c1498a9" data-name="Shape 1 copy" d="M42,11.3,33.22,2.64A.76.76,0,0,1,33,2.13a.7.7,0,0,1,.22-.5L34.34.52a.71.71,0,0,1,1,0l0,0L45.78,10.79a.76.76,0,0,1,.22.51.79.79,0,0,1-.22.51L35.37,22.07a.69.69,0,0,1-1,.05l-.05-.05L33.22,21a.69.69,0,0,1,0-1l0,0Z" transform="translate(0 0.01)"/></svg>