<svg id="16197928-7320-4d53-be58-7e378ce6ee9e" data-name="Layer 1" xmlns="http://www.w3.org/2000/svg" viewBox="0 0 16.97 15.05"><title>download</title><path id="ccf837d0-98da-4f66-9f4b-f889662d59d7" data-name="download.svg" d="M8,10.47a.66.66,0,0,0,.92,0L13.5,6.08a.6.6,0,0,0,.14-.69A.66.66,0,0,0,13,5H10.43V.63A.64.64,0,0,0,9.78,0H7.17a.65.65,0,0,0-.65.63V5H3.9a.66.66,0,0,0-.6.38.6.6,0,0,0,.14.69ZM16,10H11.24L9.86,11.36a2,2,0,0,1-2.77,0L5.71,10H1A1,1,0,0,0,0,11H0v3.14A1,1,0,0,0,1,15H16a1,1,0,0,0,1-.94V11A1,1,0,0,0,16,10Zm-3.59,3.76a.63.63,0,1,1,.65-.63.64.64,0,0,1-.65.63Zm2.61,0a.63.63,0,1,1,.65-.63.65.65,0,0,1-.65.63Z" transform="translate(0.01 0)"/></svg>