<svg id="7d1c55dc-9915-47fe-9ce2-075984fab480" data-name="Layer 1" xmlns="http://www.w3.org/2000/svg" viewBox="0 0 16 12.09"><title>envelope</title><path id="674ffe06-8ec5-4a24-b0d9-c8da722e4d3e" data-name="envelope.svg" d="M1.54,3.72c1.38.93,2.78,1.86,4.16,2.79A5.56,5.56,0,0,0,8,7.69H8a5.46,5.46,0,0,0,2.28-1.18l4.18-2.79A3.09,3.09,0,0,0,16,1.37,1.41,1.41,0,0,0,14.57,0H1.43A1.41,1.41,0,0,0,0,1.37a1.4,1.4,0,0,0,0,.18A3.34,3.34,0,0,0,1.54,3.72ZM10.66,7.6A5,5,0,0,1,8,8.79H8A5,5,0,0,1,5.34,7.6c-1.46-1-3-2-4.44-3A5,5,0,0,1,0,3.89v6.82a1.4,1.4,0,0,0,1.42,1.38H14.57A1.4,1.4,0,0,0,16,10.72h0V3.89a5.32,5.32,0,0,1-.89.75C13.62,5.61,12.12,6.59,10.66,7.6Z"/></svg>