<svg id="bb332d1c-0e15-44d8-bf4e-6c5a57e1618a" data-name="Layer 1" xmlns="http://www.w3.org/2000/svg" viewBox="0 0 18.01 14.02"><title>envelope</title><path id="caee49e7-84ef-460c-98db-d769cb5b8161" data-name="envelope.svg" d="M1.73,4.31C3.29,5.38,4.86,6.46,6.42,7.54,7.07,8,8.18,8.9,9,8.9H9c.81,0,1.92-.92,2.57-1.36,1.56-1.08,3.13-2.16,4.7-3.24A3.59,3.59,0,0,0,18,1.58,1.61,1.61,0,0,0,16.39,0H1.61A1.62,1.62,0,0,0,0,1.8,3.88,3.88,0,0,0,1.73,4.31ZM12,8.81a5.53,5.53,0,0,1-3,1.37H9A5.53,5.53,0,0,1,6,8.81C4.37,7.62,2.68,6.5,1,5.37A5.6,5.6,0,0,1,0,4.5v7.9A1.6,1.6,0,0,0,1.61,14H16.39A1.6,1.6,0,0,0,18,12.41V4.5a5.85,5.85,0,0,1-1,.87C15.32,6.5,13.63,7.63,12,8.8Z" transform="translate(0.01 0.01)"/></svg>