<svg id="10b20c94-ac0f-4b06-944a-855526c3f43f" data-name="Layer 1" xmlns="http://www.w3.org/2000/svg" viewBox="0 0 18 11.93"><title>eye</title><path id="5cf3d98e-3b44-4ad5-a389-58808f5e62d8" data-name="eye.svg" d="M17.8,5.26a10,10,0,0,0-17.6,0,1.38,1.38,0,0,0,0,1.43,10,10,0,0,0,17.6,0A1.38,1.38,0,0,0,17.8,5.26ZM9,1.5a.5.5,0,0,1,0,1A2.13,2.13,0,0,0,6.91,4.65a.48.48,0,0,1-1,0H6A3.11,3.11,0,0,1,9,1.5Zm0,9.12A9.23,9.23,0,0,1,1.29,6,10.28,10.28,0,0,1,5.11,2.32,4.74,4.74,0,0,0,4.5,4.65a4.5,4.5,0,0,0,9,0,4.74,4.74,0,0,0-.61-2.33A10.28,10.28,0,0,1,16.71,6,9.23,9.23,0,0,1,9,10.62Z" transform="translate(0 -0.01)"/></svg>