<svg id="2498b149-499a-4d79-9d24-c9e26977ec98" data-name="Layer 1" xmlns="http://www.w3.org/2000/svg" viewBox="0 0 17.03 17.03"><title>facebook</title><path id="ba9a9f5a-34da-4de0-bfe2-441c59e63b34" data-name="facebook.svg" d="M13.83,0H3.2A3.19,3.19,0,0,0,0,3.2V13.83A3.19,3.19,0,0,0,3.2,17H9.09V10.43H6.88V7.86H9.09V6a3.1,3.1,0,0,1,2.79-3.38,3.06,3.06,0,0,1,.52,0,16.35,16.35,0,0,1,2,.1V5H13a1.06,1.06,0,0,0-1.27,1.24V7.86h2.54L14,10.43h-2.2V17h2.08A3.19,3.19,0,0,0,17,13.83V3.2A3.19,3.19,0,0,0,13.83,0Z"/></svg>