<svg id="82d74c3f-7ad0-4aca-94fc-e9fff3f883a1" data-name="Layer 1" xmlns="http://www.w3.org/2000/svg" viewBox="0 0 53.01 50.99"><title>fax</title><path id="2f9b8878-9cfa-4280-bfc6-6b237040c247" data-name="fax.svg" d="M51.84,27a4,4,0,0,0-2.45-1.15l0-13.4a.87.87,0,0,0-.3-.66L37.61.3a.86.86,0,0,0-.72-.3H18.05A4,4,0,0,0,14.3,4V25.82H13.06V21.93a4,4,0,0,0-4-4H4a4,4,0,0,0-2.26.7v-5a.88.88,0,0,0-1.75,0V47a4,4,0,0,0,1.15,2.79l0,0A4,4,0,0,0,4,51H49a4,4,0,0,0,4-4V29.81A4,4,0,0,0,51.84,27ZM40.08,11.56a2.25,2.25,0,0,1-1.6-.66,2.23,2.23,0,0,1-.66-1.59V3l8.6,8.59H40.08Zm-2.85.56,0,0a4,4,0,0,0,2.8,1.14h7.58V25.82H16V4a2.27,2.27,0,0,1,2.14-2.25H36.06V9.31a4,4,0,0,0,1.17,2.81Zm-25.06,37,.23.11.15-.24-.22-.12h0l.25.06.19-.39-.23-.1h0l.26,0,.08-.23-.23-.11.25,0,0-.16-.24-.08h0l.25,0,0-.24-.25,0h0l.26,0,0-.26-.25,0,.25,0v-.07l-.25,0h0l.25,0V27.56H49a2.26,2.26,0,0,1,2.26,2.25V47A2.26,2.26,0,0,1,49,49.24H12.32l-.15-.15h0Zm.65-2Zm0,.28Zm0,.1Zm0,.09Zm0,.09Zm-.06.27Zm0,.09Zm-.23.6Zm-.13.24Zm-1-26.93V47a2.26,2.26,0,0,1-2.26,2.25H4A2.25,2.25,0,0,1,1.76,47V21.93A2.26,2.26,0,0,1,4,19.68h5a2.25,2.25,0,0,1,2.26,2.25ZM27.51,33.66h3.06a.87.87,0,1,0,0-1.75H27.51a.87.87,0,1,0-.15,1.74h.15Zm0,5.47h3.06a.87.87,0,0,0,.06-1.74H27.51a.87.87,0,1,0-.14,1.74h.14Zm0,5.48h3.06a.87.87,0,0,0,.06-1.74H27.51a.87.87,0,0,0-.16,1.74h.16Zm9.69,0H48.52a.88.88,0,0,0,.88-.87v-11a.88.88,0,0,0-.88-.87H37.19a.88.88,0,0,0-.87.87V43.73a.87.87,0,0,0,.87.88h0Zm.88-1.74v-9.2h9.58v9.2ZM17.75,39.14h3.06a.87.87,0,0,0,.06-1.74H17.75a.87.87,0,1,0-.14,1.74h.14Zm4.88-5.47h3.06a.87.87,0,1,0,0-1.75H22.63a.87.87,0,1,0-.15,1.74h.15Zm-4.88,0h3.06a.87.87,0,1,0,0-1.75H17.75a.87.87,0,1,0-.15,1.74h.15Zm0,10.95h3.06a.87.87,0,0,0,.06-1.74H17.75a.87.87,0,0,0-.16,1.74h.16Zm4.88-5.48h3.06a.87.87,0,0,0,.06-1.74H22.63a.87.87,0,1,0-.14,1.74h.14Zm0,5.48h3.06a.87.87,0,0,0,.06-1.74H22.63a.87.87,0,0,0-.16,1.74h.16Z" transform="translate(-0.01 0)"/></svg>