<svg id="11a0bfc4-7949-49f9-bacc-0ec1a2434b55" data-name="Layer 1" xmlns="http://www.w3.org/2000/svg" viewBox="0 0 64.97 90.53"><title>freeplan</title><path id="a6d285e4-d656-4fdb-bf84-e7b208fa4bd7" data-name="freeplan.svg" d="M64.74,28.16l-5.93-5.57.74-8a.75.75,0,0,0-.55-.8l-7.84-2.19L48,4.09a.76.76,0,0,0-.87-.45L39.23,5.33,33,.16a.76.76,0,0,0-1,0L25.76,5.33l-8-1.68a.76.76,0,0,0-.87.45l-3.09,7.47L6,13.76a.76.76,0,0,0-.55.81l.76,8L.24,28.18a.77.77,0,0,0-.11,1l4.44,6.76L1.9,43.6a.74.74,0,0,0,.35.91l7.1,3.94,1,6.74-.09,0L.28,82.47a.79.79,0,0,0,.16.78.78.78,0,0,0,.78.21L13.29,80l6.43,10.17a.76.76,0,0,0,.65.36h.08a.78.78,0,0,0,.64-.5L31.64,61.16l-.22-.08.65-.32L42.77,90a.76.76,0,0,0,.63.5h.09a.74.74,0,0,0,.64-.36L50.57,80l12.07,3.48a.76.76,0,0,0,.77-.21.75.75,0,0,0,.16-.78L54.23,56.91a.74.74,0,0,0,.22-.43l1.22-8,7.08-3.94a.76.76,0,0,0,.35-.92L60.44,35.9l4.42-6.77A.76.76,0,0,0,64.74,28.16ZM20.19,88l-5.91-9.35a.77.77,0,0,0-.86-.32L2.24,81.58l8.94-24.46.11,0,8.14.2,4.81,6.56a.77.77,0,0,0,.62.31.65.65,0,0,0,.33-.08l4.55-2.22Zm30.25-9.67a.76.76,0,0,0-.86.32L43.67,88,33.86,61.21l5.95,2.92a.79.79,0,0,0,1-.23l4.82-6.57,7.1-.18,8.93,24.43Zm8.51-43a.75.75,0,0,0-.08.67l2.58,7.43-6.86,3.81a.76.76,0,0,0-.38.55L53,55.62l-7.86.2a.75.75,0,0,0-.6.31l-4.66,6.35L32.85,59a.81.81,0,0,0-.68,0L25.1,62.48l-4.65-6.34a.8.8,0,0,0-.6-.32L12,55.63l-1.16-7.77a.79.79,0,0,0-.39-.56L3.55,43.49l2.59-7.43a.76.76,0,0,0-.08-.67l-4.3-6.54,5.75-5.39a.8.8,0,0,0,.24-.63L7,15.06l7.6-2.13a.76.76,0,0,0,.5-.44l3-7.22L25.81,6.9a.77.77,0,0,0,.65-.16l6-5,6.05,5a.8.8,0,0,0,.65.16l7.69-1.64,3,7.22a.74.74,0,0,0,.5.44L58,15l-.72,7.78a.77.77,0,0,0,.24.62l5.74,5.39ZM32.38,12.94A20.07,20.07,0,1,0,52.55,33,20.07,20.07,0,0,0,32.38,12.94Zm0,38.61A18.54,18.54,0,1,1,51,33,18.54,18.54,0,0,1,32.38,51.55ZM40,26.15a6,6,0,0,0-7.47,1.41,6,6,0,0,0-10.57,3.8,5.74,5.74,0,0,0,.3,1.82c1,4.59,10.27,10.37,10.27,10.37s9.23-5.78,10.26-10.37a5.74,5.74,0,0,0,.3-1.82A6,6,0,0,0,40,26.15Z" transform="translate(-0.01 0.02)"/></svg>