<svg id="217b63fe-da11-43ef-a485-0033555e1604" data-name="Layer 1" xmlns="http://www.w3.org/2000/svg" viewBox="0 0 152.94 125"><title>healt</title><path id="afb6bbaf-27df-430d-8ae3-421f65a3bd80" data-name="healt.svg" d="M132.52,73.35a4.73,4.73,0,1,0-4.68-4.77v0a4.7,4.7,0,0,0,4.68,4.72Zm8.8,13.53a18.81,18.81,0,0,1-18-.57,2.46,2.46,0,1,0-2.49,4.23,23.67,23.67,0,0,0,12,3.26,23.43,23.43,0,0,0,10.68-2.54,2.46,2.46,0,0,0-2.21-4.38ZM119,68.29a14.17,14.17,0,0,0,14,14.37h.14c7.92,0,14.79-6.45,14.79-14.37a14.34,14.34,0,0,0-10.59-14V20.66c0-9.78-9-17.93-18.82-17.93h-1.8A17.69,17.69,0,0,0,99.25,20.66h0v79.43c0,10.7-9,19.89-19.67,19.89h-27c-10.69,0-19.43-9.19-19.43-19.89V92.93h.4c3.89,0,8.62-2.89,8.62-6.78V85.07c4-.27,8.84-3.89,10.06-9L60.55,39.1A6.1,6.1,0,0,0,59.21,34a6.44,6.44,0,0,0-1.61-1.32,2.31,2.31,0,0,0,.39-.83l2.44-8.66A15.87,15.87,0,0,0,46.71,3a6.24,6.24,0,0,0-5.49-3c-3.39,0-6.14,2.41-6.14,5.39s2.75,5.39,6.13,5.39a6.27,6.27,0,0,0,5.37-2.83,11,11,0,0,1,9.1,13.87L53.23,31c-.12.41-.11-.24,0,1.77H52c-2.82,0-5.23,1.36-5.87,4.14L39.68,66.51A6.89,6.89,0,0,1,33,71.88H28a7.13,7.13,0,0,1-6.68-5.62l-6.45-29.2A5.67,5.67,0,0,0,9,32.8H7.83c.09-2,.09-1.36,0-1.77L5.34,22.1a11.17,11.17,0,0,1,1.79-9.75A10.94,10.94,0,0,1,14.45,8a6.24,6.24,0,0,0,5.37,2.8C23.2,10.82,26,8.39,26,5.41S23.2,0,19.82,0a6.23,6.23,0,0,0-5.49,3A15.86,15.86,0,0,0,.62,23.17l2.47,8.66a2.42,2.42,0,0,0,.44.83A5.87,5.87,0,0,0,.88,39.1L9.45,76a11.74,11.74,0,0,0,10.69,9v1.08c0,3.89,3.46,6.78,7.35,6.78h1.66v7.17c0,13.41,10,24.9,23.44,24.9h27c13.4,0,24.68-11.49,24.68-24.9V20.66A12.6,12.6,0,0,1,116.54,7.75h2c7.06,0,13.81,5.85,13.81,12.92V54c-8,.78-13.31,6.89-13.31,14.29ZM21.06,79.9a6.71,6.71,0,0,1-6.69-5.14L5.66,37.89a.79.79,0,0,1,.21-.8,1.09,1.09,0,0,1,.87-.28H9.05a1,1,0,0,1,1.08.73l6.45,29.91A12,12,0,0,0,28,76.89H33a12.09,12.09,0,0,0,11.48-9.53l6.43-29.61A1.19,1.19,0,0,1,52,36.81H54.3a1.08,1.08,0,0,1,.87.32,1,1,0,0,1,.21.9L46.67,74.79A6.69,6.69,0,0,1,40,79.9H21.06Zm6.42,8c-1.18,0-2.34-.59-2.34-1.77V84.91h12v1.23c0,1.18-2.43,1.77-3.61,1.77ZM132.86,58.83a9.46,9.46,0,1,1-9.45,9.46h0A9.46,9.46,0,0,1,132.86,58.83Zm19,21.15a2.46,2.46,0,0,0-3.41.65,19,19,0,0,1-1.72,2.17,2.46,2.46,0,1,0,3.61,3.32h0a23.72,23.72,0,0,0,2.16-2.74A2.46,2.46,0,0,0,151.83,80Z"/></svg>