<svg id="dc94565d-46d8-4c98-af36-a08cd7484169" data-name="Layer 1" xmlns="http://www.w3.org/2000/svg" viewBox="0 0 22.03 20.97"><title>heart</title><path id="c6d96002-e1b4-4e0e-83be-a01d8c2a7d18" data-name="heart.svg" d="M21.48,4A6,6,0,0,0,16,0c-1.9,0-3.86,1.45-5,3.09C9.84,1.45,7.86,0,6,0A5.88,5.88,0,0,0,.49,4.1a8,8,0,0,0,2.18,8.67l8.08,8a.58.58,0,0,0,.82,0h0l7.91-8A8.16,8.16,0,0,0,21.48,4ZM18.65,11.9l-7.5,7.6L3.48,11.88A6.73,6.73,0,0,1,1.59,4.54,4.73,4.73,0,0,1,6,1.22c1.7,0,3.7,1.71,4.5,3.32a.56.56,0,0,0,.53.33.63.63,0,0,0,.53-.34c.77-1.6,2.73-3.31,4.44-3.31a4.78,4.78,0,0,1,4.41,3.22,6.91,6.91,0,0,1-1.73,7.46Z"/></svg>