<svg id="c7c994ca-5a0e-4e8e-97ef-368137e16462" data-name="Layer 1" xmlns="http://www.w3.org/2000/svg" viewBox="0 0 34 30"><title>home</title><path id="6f16f7f7-af21-42dc-a142-6da9dc2aa22f" data-name="home.svg" d="M33.77,17,18.77.8A2.27,2.27,0,0,0,18,.22,2.52,2.52,0,0,0,16,.22a2.31,2.31,0,0,0-.81.58L.22,17a.83.83,0,0,0-.21.6.75.75,0,0,0,.28.57.8.8,0,0,0,.27.17.83.83,0,0,0,.64,0,.87.87,0,0,0,.29-.2L5.1,14.21V27.52a2.36,2.36,0,0,0,.75,1.75A2.49,2.49,0,0,0,7.66,30H26.34a2.49,2.49,0,0,0,1.81-.73,2.36,2.36,0,0,0,.75-1.75V14.21l3.61,3.91a.87.87,0,0,0,.58.27.8.8,0,0,0,.62-.22A.79.79,0,0,0,34,17.6.8.8,0,0,0,33.77,17ZM20.4,28.35H13.6V20.87a.77.77,0,0,1,.25-.58.8.8,0,0,1,.59-.24h5.11a.81.81,0,0,1,.6.24.77.77,0,0,1,.25.58v7.48Zm6.79-.83a.81.81,0,0,1-.25.58.84.84,0,0,1-.6.24H22.09V20.87a2.39,2.39,0,0,0-.74-1.75,2.49,2.49,0,0,0-1.8-.73H14.44a2.48,2.48,0,0,0-1.79.73,2.35,2.35,0,0,0-.74,1.75v7.48H7.66a.84.84,0,0,1-.6-.24.77.77,0,0,1-.25-.58V12.37L16.48,1.89a.83.83,0,0,1,.25-.17.67.67,0,0,1,.54,0,.68.68,0,0,1,.24.17l9.68,10.48V27.52Z"/></svg>