<svg id="6d49b1bf-af7e-4289-9b70-2ff1ad8d7f36" data-name="Layer 1" xmlns="http://www.w3.org/2000/svg" viewBox="0 0 108 85.97"><title>house</title><path id="8be7060e-d6b0-4e80-8341-89085a3cab6c" data-name="house.svg" d="M50.25,34.65H29.68a1.86,1.86,0,0,0-1.86,1.86h0V48a1.86,1.86,0,0,0,1.86,1.86H50.25A1.86,1.86,0,0,0,52.1,48V36.51A1.86,1.86,0,0,0,50.25,34.65ZM48.4,46.13H31.53V38.37H48.4ZM106,82l-9.76-.05V29.68h9.47a2,2,0,0,0,.92-3.8L57.47.46A2,2,0,0,0,56.23,0H56a2,2,0,0,0-1.21.47L5.87,25.88a2,2,0,0,0,.92,3.8H17.85v6.05h-.16A11.59,11.59,0,0,0,6.16,47.36a11.35,11.35,0,0,0,.38,2.91A12.44,12.44,0,0,0,0,61c0,7.1,6.54,12.88,14.59,12.88a13.81,13.81,0,0,0,3.26-.4V82H4a2,2,0,0,0,0,4H106a2,2,0,0,0,0-4ZM17,69.55a9.68,9.68,0,0,1-2.41.3C8.75,69.85,4,65.88,4,61c0-3.32,2.22-6.34,5.8-7.87a2,2,0,0,0,1.05-2.65v0A7.57,7.57,0,0,1,17,39.79ZM58.43,82H29.11V78.65H58.43Zm-22.84-7V63.68a4.88,4.88,0,0,1,4.86-4.89h3.86a4.88,4.88,0,0,1,4.86,4.89V74.93Zm57,7H62.13V76.79a1.86,1.86,0,0,0-1.85-1.86h-7.4V63.68a8.6,8.6,0,0,0-8.57-8.61H40.45a8.6,8.6,0,0,0-8.56,8.61V74.93H27.26a1.86,1.86,0,0,0-1.85,1.86V82H21.55V29.55H92.3l.24.07Zm-.33-56.13L15,25.66,56.13,4.29,97.45,25.66H93a2,2,0,0,0-.79.17Zm-9.86,8.82H61.77a1.86,1.86,0,0,0-1.85,1.86V48a1.86,1.86,0,0,0,1.85,1.86H82.35A1.86,1.86,0,0,0,84.2,48V36.51a1.86,1.86,0,0,0-1.85-1.86ZM80.5,46.13H63.63V38.37H80.5Zm1.85,11H61.77A1.86,1.86,0,0,0,59.92,59V70.43a1.86,1.86,0,0,0,1.85,1.86H82.35a1.86,1.86,0,0,0,1.85-1.86V59a1.86,1.86,0,0,0-1.85-1.86ZM80.5,68.57H63.63V60.81H80.5Z"/></svg>