<svg id="ca80af75-0cef-490c-81ad-a9b5de4f1d4e" data-name="Layer 1" xmlns="http://www.w3.org/2000/svg" viewBox="0 0 35.81 32.66"><title>keys</title><path id="2fb3eae2-a3c3-4769-be5d-14163491666c" data-name="keys.svg" d="M35.79,26.67,31.87,7.89a9.81,9.81,0,0,0-4.31-6.26A10.05,10.05,0,0,0,13.64,4.54L13.35,5l0,.09a10,10,0,0,0-1.05,2.83,7.36,7.36,0,0,0-2.58-.48,7.17,7.17,0,0,0-7.2,7.12,7,7,0,0,0,1.66,4.54,1.31,1.31,0,0,0-.18.28L.13,29.14a2,2,0,0,0,0,1.56,2,2,0,0,0,1.15,1.08l2.09.79a1.49,1.49,0,0,0,.51.09c1.16,0,2.37-1.35,3.45-2.56a11.76,11.76,0,0,1,.82-.88A1.05,1.05,0,0,0,8.59,28l-.42-1.09,1.11-.41a1,1,0,0,0,.61-1.34h0l-.4-1.06,1.06-.39a1.06,1.06,0,0,0,.59-.55,1,1,0,0,0,0-.8l-.3-.79A7.2,7.2,0,0,0,14,20.26l2.16,10.42a1.8,1.8,0,0,0,1.61,1.41h.18a2.21,2.21,0,0,0,.36,0l16.09-3.27a1.7,1.7,0,0,0,.94-.51A1.75,1.75,0,0,0,35.79,26.67ZM8.49,23a.75.75,0,0,0-.39.36L8,23.59a.7.7,0,0,0,0,.54l.46,1.2-1.24.46a.75.75,0,0,0-.39.36l-.12.26a.69.69,0,0,0,0,.54l.5,1.31c-.24.23-.53.55-.85.91-.53.59-1.93,2.14-2.39,2.09l-2.09-.79a.64.64,0,0,1-.36-.34.62.62,0,0,1,0-.48l3.73-9.53a7.21,7.21,0,0,0,4.18,1.55l.33.87Zm1.18-2.71a5.71,5.71,0,1,1,5.78-5.71c0,.15,0,.29,0,.43a5.31,5.31,0,0,1-4.11-1.48,1.52,1.52,0,0,0,.09-.49A1.5,1.5,0,1,0,9.9,14.51h0a1.82,1.82,0,0,0,.34,0,6.75,6.75,0,0,0,4.77,2h.11a5.78,5.78,0,0,1-5.46,3.85Zm24.61,7a.37.37,0,0,1-.2.11L18,30.69h-.14a.37.37,0,0,1-.34-.29L15.19,19.13a7.1,7.1,0,0,0,1.47-2.9,7,7,0,0,0,1.6-.63A6.54,6.54,0,0,0,21.68,10a2.74,2.74,0,1,0-1.43-.25,5,5,0,0,1-3.39,4.93s0-.07,0-.11a7.1,7.1,0,0,0-3.34-6,.64.64,0,0,0,.07-.17,8.52,8.52,0,0,1,1-2.7l0-.09a8.63,8.63,0,0,1,11.83-3l.31.19a8.44,8.44,0,0,1,3.7,5.37L34.4,27a.38.38,0,0,1-.11.35ZM21.57,8.6a6.55,6.55,0,0,0-.73-2,.69.69,0,0,0-.31-.28,1.33,1.33,0,1,1,1,2.27Z"/></svg>