<svg id="ee384d31-fd26-42a5-b98d-c6ae2adebea7" data-name="Layer 1" xmlns="http://www.w3.org/2000/svg" viewBox="0 0 32 35"><title>lamp</title><path id="be1b1abf-2515-43d7-b176-d6f93cd79e60" data-name="lamp.svg" d="M26.09,15.62a8.23,8.23,0,0,0-2.31-6.23A10.84,10.84,0,0,0,8.45,9.16l-.21.21A8.27,8.27,0,0,0,5.9,15.62c.29,4.44,1.85,5.64,3.23,6.7a4.22,4.22,0,0,1,2,3.72.68.68,0,0,0,.16.39.29.29,0,0,0,0,.13.71.71,0,0,0,.69.53.55.55,0,0,0,.18,0l8.46-2.2,0,0,.14-.06.14-.11,0,0a.83.83,0,0,0,.16-.29,4.65,4.65,0,0,1,1.78-2.18C24.27,21.13,25.78,19.93,26.09,15.62ZM22,21.07a6.13,6.13,0,0,0-2.11,2.51l-7.39,1.93A5.48,5.48,0,0,0,10,21.19c-1.25-1-2.43-1.87-2.68-5.66a6.88,6.88,0,0,1,2-5.19,9.42,9.42,0,0,1,13.32-.1l.12.12a6.81,6.81,0,0,1,1.93,5.16c-.27,3.69-1.41,4.59-2.62,5.55Zm-1.75,8.75L11.84,32a.71.71,0,0,0-.51.87.71.71,0,0,0,.69.53l.18,0,.58-.15a.76.76,0,0,0,.13.31A3.91,3.91,0,0,0,16,35a3.55,3.55,0,0,0,3.73-3.32.86.86,0,0,0,0-.24l1-.25a.71.71,0,1,0-.37-1.38h0ZM16,33.58a2.49,2.49,0,0,1-1.77-.71l4.05-1.06A2.15,2.15,0,0,1,16,33.58Zm4.29-6.93-8.45,2.2a.71.71,0,0,0-.51.87.7.7,0,0,0,.69.54.56.56,0,0,0,.18,0L20.66,28a.71.71,0,1,0-.37-1.38Zm-4-22.41A.72.72,0,0,0,17,3.53h0V.7a.72.72,0,1,0-1.43,0V3.52a.72.72,0,0,0,.71.72Zm9.81-.14-2,2a.71.71,0,0,0,.51,1.22.7.7,0,0,0,.5-.21l2-2a.7.7,0,0,0,0-1h0a.71.71,0,0,0-1,0h0Zm5.19,10.77H28.44a.72.72,0,0,0,0,1.43h2.85c.52,0,.95-.19.95-.72s-.42-.95-.95-.72Zm-6.6,8.74a.71.71,0,1,0-1,1h0l2,2a.74.74,0,0,0,1,0,.71.71,0,0,0,0-1h0ZM7.31,7.1a.71.71,0,0,0,1,0h0a.71.71,0,0,0,0-1h0l-2-2a.71.71,0,0,0-1,0h0a.7.7,0,0,0,0,1h0ZM3.55,14.3H.71a.71.71,0,0,0,0,1.42H3.55c.54,0,1-.17,1-.71s-.44-1-1-.71ZM6.9,23.61l-2,2a.71.71,0,0,0,0,1h0a.74.74,0,0,0,1,0l2-2a.71.71,0,0,0-1-1Zm13.79-11.1a.72.72,0,0,0-1,.27h0L15.62,20l-2.43-3.32a.72.72,0,0,0-1-.15h0a.71.71,0,0,0-.16,1h0l3.09,4.22a.72.72,0,0,0,.58.29h0a.73.73,0,0,0,.59-.36L21,13.48a.72.72,0,0,0-.27-1Z"/></svg>