<svg id="f5a5c864-576a-43e7-b7bb-b8652e63d58c" data-name="Layer 1" xmlns="http://www.w3.org/2000/svg" viewBox="0 0 34 34.04"><title>lifering</title><path id="44791c90-7771-4c5d-9492-362222a25fbe" data-name="lifering.svg" d="M34,17a17,17,0,0,0-2.51-8.9A2.81,2.81,0,0,0,31,5.5L28.93,3.41a2.88,2.88,0,0,0-2.5-.56A16.9,16.9,0,0,0,17,0h0A17,17,0,0,0,8.1,2.52,2.81,2.81,0,0,0,5.49,3L3.41,5.09a2.84,2.84,0,0,0-.56,2.5,17,17,0,0,0-.34,18.33A2.81,2.81,0,0,0,3,28.53l2.08,2.08a2.85,2.85,0,0,0,2.5.56,17,17,0,0,0,18.33.34A2.81,2.81,0,0,0,28.52,31l2.09-2.08a2.91,2.91,0,0,0,.56-2.5A16.91,16.91,0,0,0,34,17Zm-1.39,0a15.53,15.53,0,0,1-2.26,8.1l-4-4A.65.65,0,0,0,26,20.9a9.7,9.7,0,0,0,.27-7.07l0,0,4.39-4.4a15.6,15.6,0,0,1,2,7.6ZM17,25.39h0A8.39,8.39,0,1,1,25.4,17,8.39,8.39,0,0,1,17,25.39ZM28,4.4,30,6.48a1.59,1.59,0,0,1,.07,1.4A.7.7,0,0,0,30,8.2a.63.63,0,0,0-.31.17l-4.09,4.08a9.66,9.66,0,0,0-3.58-3.78l4.39-4.39h.1A1.69,1.69,0,0,1,28,4.4Zm-11-3h0A15.52,15.52,0,0,1,25.1,3.66l-4,4a.72.72,0,0,0-.18.37,9.7,9.7,0,0,0-7.07-.27l0,0L9.41,3.37A15.56,15.56,0,0,1,17,1.4ZM4.39,6.07,6.47,4a1.59,1.59,0,0,1,1.4-.07A.7.7,0,0,0,8.19,4a.68.68,0,0,0,.17.31l4.09,4.09a9.64,9.64,0,0,0-2.35,1.73A9.8,9.8,0,0,0,8.66,12L4.59,7.89a.68.68,0,0,0-.31-.17.71.71,0,0,0,0-.25,1.69,1.69,0,0,1,.14-1.4ZM1.39,17A15.51,15.51,0,0,1,3.65,8.92L8,13.26a9.72,9.72,0,0,0-.21,6.94l0,0L3.36,24.61a15.57,15.57,0,0,1-2-7.6ZM6.06,29.63,4,27.55a1.59,1.59,0,0,1-.07-1.4A.59.59,0,0,0,4,25.83a.73.73,0,0,0,.31-.17l4.09-4.09a9.64,9.64,0,0,0,1.73,2.35A9.8,9.8,0,0,0,12,25.36L7.57,29.75a.2.2,0,0,0-.11,0,1.69,1.69,0,0,1-1.4-.14Zm2.85.74,4-4a.65.65,0,0,0,.18-.37,9.63,9.63,0,0,0,3.88.81h0a9.58,9.58,0,0,0,3.33-.6.68.68,0,0,0,.19.4l4.07,4.08a15.63,15.63,0,0,1-15.69-.29ZM29.62,28,27.54,30a1.59,1.59,0,0,1-1.4.07l-.16,0a0,0,0,0,0,0,0l-4.41-4.4a9.64,9.64,0,0,0,2.35-1.73,9.8,9.8,0,0,0,1.44-1.85l4.39,4.39h0a.34.34,0,0,0,0,.1,1.69,1.69,0,0,1-.14,1.4Z"/></svg>