<svg id="ad8e9bed-0715-4984-a942-9b33ad010e89" data-name="Layer 1" xmlns="http://www.w3.org/2000/svg" viewBox="0 0 76.97 48.47"><title>list</title><path id="711ae1ad-1eec-4b82-b514-336f2eed6659" data-name="list.svg" d="M14.81,37.5a2.51,2.51,0,0,0-3.47-.15l-2.27,2-2.27-2a2.51,2.51,0,0,0-3.47.15,2.33,2.33,0,0,0,.07,3.29l.07.07,2,1.74-2,1.75a2.33,2.33,0,0,0-.21,3.29l.07.07a2.52,2.52,0,0,0,3.47.14l2.27-2,2.27,2a2.51,2.51,0,0,0,3.47-.14,2.32,2.32,0,0,0-.07-3.28l-.08-.08-2-1.75,2-1.74a2.32,2.32,0,0,0,.23-3.28Zm0-18.25a2.51,2.51,0,0,0-3.47-.15l-2.27,2-2.27-2a2.51,2.51,0,0,0-3.47.15,2.33,2.33,0,0,0,.07,3.3l.07.06,2,1.74-2,1.74a2.33,2.33,0,0,0-.2,3.29l.06.07a2.51,2.51,0,0,0,3.47.15l2.27-2,2.27,2a2.52,2.52,0,0,0,3.47-.15,2.32,2.32,0,0,0-.07-3.28l-.08-.08-2-1.74,2-1.74a2.32,2.32,0,0,0,.23-3.28ZM29.72,8.4h44.8a2.38,2.38,0,1,0,.14-4.75H29.72a2.38,2.38,0,1,0-.14,4.75h.14Zm44.8,31.83H29.72A2.38,2.38,0,0,0,29.58,45H74.52A2.76,2.76,0,0,0,78,43.85a2.38,2.38,0,0,0-.8-3.27,4.17,4.17,0,0,0-2.69-.35ZM12.67.92,8.12,6.66,4.42,2A2.52,2.52,0,0,0,1,1.53,2.33,2.33,0,0,0,.46,4.79l.06.08L6.17,12A2.49,2.49,0,0,0,8.12,13,2.46,2.46,0,0,0,10.07,12l6.5-8.21A2.33,2.33,0,0,0,16.19.54L16.11.48a2.51,2.51,0,0,0-3.44.44Zm61.85,21H29.72a2.38,2.38,0,1,0-.14,4.76H74.52a2.38,2.38,0,1,0,0-4.76Z"/></svg>