<svg id="99d8a547-85cc-4549-b86f-b9462e9f3a2f" data-name="Layer 1" xmlns="http://www.w3.org/2000/svg" viewBox="0 0 33.41 32.56"><title>mechanicservice</title><path id="8e509a0d-fdd4-4315-a55d-994e6c6587f3" data-name="mechanicservice.svg" d="M25,19.71a.71.71,0,0,0-1,0l-2.06,2-2.23-2.2L24.25,15A7.76,7.76,0,0,0,31.15,13a7.49,7.49,0,0,0,1.93-7.53.7.7,0,0,0-.5-.48.72.72,0,0,0-.67.18l-3.25,3.2-2.92-.77L25,4.67l3.25-3.19a.68.68,0,0,0-.3-1.15,7.79,7.79,0,0,0-7.66,1.9A7.44,7.44,0,0,0,18.13,9l-4.58,4.51L6.89,7,6.8,6.92,8.63,5.11a.68.68,0,0,0,.2-.57A.69.69,0,0,0,8.5,4L3.29.9a.73.73,0,0,0-.86.1L.18,3.2a.68.68,0,0,0-.1.85L3.26,9.19a.73.73,0,0,0,.52.33h.08a.71.71,0,0,0,.5-.2L5.84,7.87,5.89,8l6.67,6.56L1.6,25.29a4.22,4.22,0,0,0-.06,6l.06.06a4.39,4.39,0,0,0,6.11,0l11-10.79,2.23,2.2-2.06,2a.7.7,0,0,0-.21.49.68.68,0,0,0,.21.49l5.67,5.59a4.39,4.39,0,0,0,6.11,0,4.22,4.22,0,0,0,.06-6l-.06-.06ZM4,7.71,1.58,3.8,3,2.37,7,4.75ZM6.72,30.33a3,3,0,0,1-4.12,0,2.84,2.84,0,0,1,0-4l0,0L19.41,9.74a.7.7,0,0,0,.19-.66,6.09,6.09,0,0,1,1.66-5.87,6.35,6.35,0,0,1,4.45-1.82,5.52,5.52,0,0,1,.58,0L23.68,4a.68.68,0,0,0-.18.67l1,3.64a.69.69,0,0,0,.5.49l3.71,1a.69.69,0,0,0,.68-.18L32,7A6.13,6.13,0,0,1,30.16,12a6.33,6.33,0,0,1-6,1.64.71.71,0,0,0-.67.18L18.18,19h0Zm22.91,0a3,3,0,0,1-4.12,0l-5.18-5.1,1.92-1.89a.61.61,0,0,0,.16-.11.51.51,0,0,0,.11-.16l1.92-1.89,5.18,5.09a2.85,2.85,0,0,1,0,4l0,0Z"/></svg>