<svg id="f3c7bf08-04ae-46b5-a92c-202639545398" data-name="Layer 1" xmlns="http://www.w3.org/2000/svg" viewBox="0 0 15.05 18"><title>menu</title><path id="7946bf70-7517-4e4b-a216-9a05cdae6b3e" data-name="menu.svg" d="M9.71,6.43a1,1,0,0,1-.94-1h0V0H.93A1,1,0,0,0,0,1H0V17a1,1,0,0,0,.94,1H14.1A1,1,0,0,0,15,17h0V6.43H9.71Zm1.57,7.39a.32.32,0,0,1-.31.32H4.07a.31.31,0,0,1-.31-.31h0v-.64a.31.31,0,0,1,.31-.32H11a.32.32,0,0,1,.32.31h0Zm0-2.57a.32.32,0,0,1-.31.32H4.07a.31.31,0,0,1-.31-.31h0v-.64a.31.31,0,0,1,.3-.32H11a.32.32,0,0,1,.32.31h0Zm0-2.57A.32.32,0,0,1,11,9H4.07a.31.31,0,0,1-.31-.31h0V8a.31.31,0,0,1,.3-.32H11a.32.32,0,0,1,.32.31h0Zm3.09-3.9-4-4.1A1.75,1.75,0,0,0,10,.4V5.14h4.63a2.11,2.11,0,0,0-.28-.36Z" transform="translate(0.01)"/></svg>