<svg id="945b62d0-122d-4f2d-8fe9-993457d99680" data-name="Layer 1" xmlns="http://www.w3.org/2000/svg" viewBox="0 0 110 99"><title>money</title><path id="882daf3a-f1ed-4f7d-b9af-be54b068c22c" data-name="money.svg" d="M22.57,41.29a1.85,1.85,0,0,0,1.85-1.85A14.06,14.06,0,0,1,45.61,27.38a1.85,1.85,0,1,0,1.88-3.18A17.75,17.75,0,0,0,20.72,39.44a1.84,1.84,0,0,0,1.84,1.85ZM89.54,14A19.94,19.94,0,0,1,81.26,33.6a1.85,1.85,0,0,0,2.12,3h0A23.72,23.72,0,0,0,93.2,13.36a1.85,1.85,0,0,0-3.66.6Zm-19.6,8.29A4,4,0,0,1,66,20l-2.19,1.13c1,2.54,3.23,3.41,6.07,3.41,3.1,0,5.85-1.33,5.85-4.42,0-3.31-2.71-4.07-5.61-4.42-1.67-.2-3.1-.54-3.1-1.75,0-1,.93-1.84,2.88-1.84a4,4,0,0,1,3.3,1.55l2.09-1.07c-1.05-2.14-3.3-2.76-5.47-2.76-2.57,0-5.39,1.19-5.39,4,0,3.11,2.63,3.87,5.47,4.2,1.85.2,3.22.73,3.22,2C73.14,21.67,71.59,22.25,69.94,22.25Zm-.15,12.22A17.24,17.24,0,1,0,52.51,17.23,17.24,17.24,0,0,0,69.79,34.46Zm0-30.78A13.54,13.54,0,1,1,56.21,17.23,13.54,13.54,0,0,1,69.79,3.69ZM87,7.05a1.84,1.84,0,0,0,1.59.9,1.82,1.82,0,0,0,.94-.26,1.85,1.85,0,0,0,.65-2.53h0c-.21-.36-.44-.72-.67-1.07a1.85,1.85,0,1,0-3.08,2.05q.3.44.57.9ZM23,68.73H20a2,2,0,1,0,0,4h3a2,2,0,1,0,0-4Zm86.91-14.1v-9.3a1.85,1.85,0,0,0-1.85-1.85H1.89A1.85,1.85,0,0,0,0,45.33v9.48a1.5,1.5,0,0,0,0,.37V86.1a1.5,1.5,0,0,0,0,.37V97.15A1.85,1.85,0,0,0,1.89,99H108.06a1.85,1.85,0,0,0,1.85-1.85V86.65a2,2,0,0,0,.09-.55V55.18a2,2,0,0,0-.09-.55ZM3.74,47.17h6.32a8.57,8.57,0,0,1-6.32,5.76Zm0,48.13V88.41a9.8,9.8,0,0,1,6.38,6.89Zm93,0H14.17A13.66,13.66,0,0,0,4,84.34V57c4.58-.86,9-4.3,10-9.18H96.93A12.78,12.78,0,0,0,106,56.9V84.42A13.84,13.84,0,0,0,96.78,95.3Zm9.43,0h-5.38a10.38,10.38,0,0,1,5.38-6.7Zm0-42.52a8.81,8.81,0,0,1-5.32-5.61h5.32v5.62ZM70.79,54a1.85,1.85,0,0,0-2.43,2.79A18.69,18.69,0,0,1,67.25,86a1.85,1.85,0,1,0,2.21,3A22.37,22.37,0,0,0,70.79,54ZM90,69.72H87a2,2,0,0,0-.09,4H90a2,2,0,0,0,.09-4Zm-33.84-2.6c-3.15-.37-5.85-1-5.85-3.29,0-1.95,1.76-3.48,5.44-3.48,2.85,0,5.33,1.42,6.23,2.92l3.94-2C64.32,58,61.26,56.61,58,56.19V52.77a2,2,0,0,0-4,0v3.37c-4.35.47-8.58,2.74-8.58,7.54,0,5.88,5,7.3,10.33,7.94,3.49.37,6.08,1.39,6.08,3.86,0,2.85-2.93,3.93-6,3.93s-6.24-1.27-7.4-4.15l-4.13,2.13c1.74,4.27,5.21,6,9.74,6.38v2.92a2,2,0,0,0,4,0v-3c4.85-.59,8.75-3.15,8.75-8.21,0-6.25-5.11-7.67-10.59-8.35ZM43.86,56.7a1.85,1.85,0,1,0-2.41-2.81,22.39,22.39,0,0,0-2.53,31.56l.56.63a1.87,1.87,0,0,0,1.37.6,1.85,1.85,0,0,0,1.36-3.1,18.69,18.69,0,0,1,1.12-26.41l.53-.47Z"/></svg>