<svg id="0c540c99-b800-4689-b856-74fe94d909b5" data-name="Layer 1" xmlns="http://www.w3.org/2000/svg" viewBox="0 0 30 41"><title>motorcycle</title><path id="dd6742ab-529a-417f-aa95-b57f2a998bec" data-name="motorcycle.svg" d="M25.35,12H30V10H25.34L24,7l4.21-2.57-1-1.71-4,2.43L21.05,0H9L6.75,5.11l-4-2.43-1,1.71L6,7l-1.3,3H0v2H4.65v0a4.45,4.45,0,0,1-.94,4.83L3,17.59V18c0,8.29,2.79,15.72,7,18.8V37a4,4,0,0,0,4,4h2a4,4,0,0,0,4-4v-.2c4.2-3.08,7-10.51,7-18.8v-.41l-.73-.73A4.45,4.45,0,0,1,25.34,12ZM10.27,2h9.46l1.71,4A20.59,20.59,0,0,1,15,7,20.39,20.39,0,0,1,8.55,6ZM18,37a2,2,0,0,1-2,2H14a2,2,0,0,1-2-2V27a2,2,0,0,1,2-2h2a2,2,0,0,1,2,2Zm2-2.86V27a4,4,0,0,0-4-4H14a4,4,0,0,0-4,4v7.14C7.06,31,5.09,25,5,18.41l.14-.14a6.44,6.44,0,0,0,1.36-7L6.4,11,7.76,7.83a23.07,23.07,0,0,0,14.48,0L23.6,11l-.12.28a6.48,6.48,0,0,0,1.37,7l.14.14C24.91,25,22.94,31,20,34.14ZM16,12H14a4,4,0,0,0,0,8h2a4,4,0,0,0,0-8Zm0,6H14a2,2,0,0,1,0-4h2a2,2,0,0,1,0,4Z"/></svg>