<svg id="5390e94d-e8e5-42f1-86a1-ae8452cb5946" data-name="Layer 1" xmlns="http://www.w3.org/2000/svg" viewBox="0 0 69.03 68.97"><title>openenvelope</title><path id="b41fa92d-3437-4564-9663-7ed454d74b87" data-name="openenvelope.svg" d="M69,67.69a1.4,1.4,0,0,0,0-.2V26.22A1.48,1.48,0,0,0,68.43,25L35.36.27a1.42,1.42,0,0,0-1.71,0L.58,25A1.49,1.49,0,0,0,0,26.22V67.5a1.45,1.45,0,0,0,0,.2A1.41,1.41,0,0,0,.08,68a1.45,1.45,0,0,0,.14.27,1.33,1.33,0,0,0,.09.17l.05,0a1.48,1.48,0,0,0,.23.2l.22.15.25.08a1.34,1.34,0,0,0,.3.06l.07,0H67.57a1.41,1.41,0,0,0,.59-.13l.12-.09a1.43,1.43,0,0,0,.36-.28l.05,0,.09-.17a1.43,1.43,0,0,0,.14-.27A1.45,1.45,0,0,0,69,67.69Zm-66.1-38L24.44,46.34l-21.55,18ZM34.51,41.75,63.52,66h-58Zm10.07,4.6L66.13,29.66V64.38ZM34.51,3.3,65.45,26.47,42.27,44.41l-6.84-5.72a1.43,1.43,0,0,0-1.84,0l-6.85,5.73L3.56,26.47Z"/></svg>