<svg id="72a19265-6f87-4ab3-a37b-5b8c82cce539" data-name="Layer 1" xmlns="http://www.w3.org/2000/svg" viewBox="0 0 50.98 50.99"><title>openenvelope</title><path id="7aae7166-6711-4521-a3ff-382b90c41456" data-name="openenvelope.svg" d="M51,50s0-.09,0-.14V19.38a1.11,1.11,0,0,0-.43-.88L26.14.2a1.06,1.06,0,0,0-1.27,0L.45,18.5a1.12,1.12,0,0,0-.44.88V49.89c0,.05,0,.1,0,.15a.84.84,0,0,0,.05.22.81.81,0,0,0,.1.2.38.38,0,0,0,.07.13l0,0,.17.15.16.11.18.06L1,51H49.92a1.07,1.07,0,0,0,.44-.1l.09-.06a1,1,0,0,0,.26-.21l0,0s0-.09.07-.13a.8.8,0,0,0,.1-.2A.85.85,0,0,0,51,50ZM2.15,21.92,18.07,34.25,2.15,47.58ZM25.5,30.85,46.93,48.79H4.08Zm7.44,3.4L48.86,21.92V47.58ZM25.5,2.44,48.36,19.56,31.24,32.83,26.18,28.6a1,1,0,0,0-1.35,0l-5.06,4.23L2.65,19.56Z" transform="translate(-0.01 0.01)"/></svg>