<svg id="b6bf1e3c-3a34-40da-bfb7-cc19c76b81a8" data-name="Layer 1" xmlns="http://www.w3.org/2000/svg" viewBox="0 0 76.91 61"><title>paperplane</title><path id="a9b77236-9c76-44e5-b998-2fefda38bc5d" data-name="paperplane.svg" d="M.19.65A1.33,1.33,0,0,1,1.55,0L75.74,10.47a1.33,1.33,0,0,1,1.12,1,1.32,1.32,0,0,1-.52,1.4L55.42,27.8,52,29.86a1.34,1.34,0,0,1-.36.61l-.1,4.05L49,59.8A1.35,1.35,0,0,1,48,61a1.6,1.6,0,0,1-.38.05,1.38,1.38,0,0,1-1.06-.51L.3,2.14A1.32,1.32,0,0,1,.19.65ZM53.94,25.58,72,12.65l-64-9L50.33,27.75ZM46.62,56.23l2.26-21.88L49,30.07,6.74,5.93Z"/></svg>