<svg id="392715e0-c37d-4b04-8a8b-47d057bcb9de" data-name="Layer 1" xmlns="http://www.w3.org/2000/svg" viewBox="0 0 15.05 18"><title>pdf</title><path id="c63e008f-e52d-4750-8bfc-18d99b684725" data-name="pdf.svg" d="M14.37,3.82,11.32.68A2.62,2.62,0,0,0,9.71,0H.93A1,1,0,0,0,0,1H0V17a1,1,0,0,0,.94,1H14.1A1,1,0,0,0,15,17h0V5.46A2.69,2.69,0,0,0,14.37,3.82ZM10,1.37a1.13,1.13,0,0,1,.4.22l3.07,3.14a1.28,1.28,0,0,1,.22.41H10Zm3.76,15.35H1.24V1.29H8.77V5.46a1,1,0,0,0,.94,1h4.07V16.71Zm-5-6A5.22,5.22,0,0,1,7.32,8.37a11.84,11.84,0,0,0,.14-1.93v-.3a.22.22,0,0,0,0-.08.2.2,0,0,0,0-.08.88.88,0,0,0-.09-.68.42.42,0,0,0-.35-.15H6.84a.45.45,0,0,0-.41.4,6.14,6.14,0,0,0,.23,2.88,15.26,15.26,0,0,1-1,2.63c-.39.81-.74,1.47-1.05,2a.06.06,0,0,0,0,0,.17.17,0,0,0-.23-.06h0a3.41,3.41,0,0,0-1.84,1.89.42.42,0,0,0,.06.36l.06.05.23.12a.56.56,0,0,0,.28.07c.58,0,1.36-.86,2.37-2.63A18,18,0,0,1,9.35,12a5.74,5.74,0,0,0,2.4.73c.52,0,.66-.2.69-.38h0l0,0a.51.51,0,0,0,0-.52,2.18,2.18,0,0,0-1.73-.49,9.56,9.56,0,0,0-1.15.07,6.43,6.43,0,0,1-.82-.56ZM3.11,14.89A4.61,4.61,0,0,1,4.45,13.3a4.31,4.31,0,0,1-1.34,1.59ZM7,5.65v0A.66.66,0,0,1,7.14,6l0,0a.31.31,0,0,0,0,.08c0,.12-.05.26-.07.43S7,6.81,7,7A3.14,3.14,0,0,1,7,5.65ZM5.79,12.29c.15-.27.29-.55.44-.83a12.78,12.78,0,0,0,.81-2,5.45,5.45,0,0,0,1.25,1.77l.28.23a14.51,14.51,0,0,0-2.78.81Zm6.33-.16,0,0H12a3.81,3.81,0,0,1-1.21-.28,2.11,2.11,0,0,1,1.37.24Z" transform="translate(0.01 0)"/></svg>