<svg id="1dabf706-1713-4566-97e6-84c370419f7c" data-name="Layer 1" xmlns="http://www.w3.org/2000/svg" viewBox="0 0 73.03 73"><title>pen</title><path id="f11000dc-c71e-4863-8ec8-781cebbfbff2" data-name="pen.svg" d="M73,11.32a1.31,1.31,0,0,0-.37-.9L62.63.37a1.24,1.24,0,0,0-1.76,0l0,0L53,8.28a1.31,1.31,0,0,0-.37.24,1.23,1.23,0,0,0-.24.37L8.9,52.55c-3.8,3.81-5.43,8-4.48,11.61A7,7,0,0,0,5.22,66L.37,70.83a1.27,1.27,0,0,0,1.79,1.79L7,67.8a6.86,6.86,0,0,0,2.18,1.09,7.92,7.92,0,0,0,2.06.26c3.06,0,6.42-1.66,9.5-4.75L63.57,21.32l4.77,4.79L49.79,44.67a1.27,1.27,0,0,0,0,1.79,1.24,1.24,0,0,0,.89.38,1.29,1.29,0,0,0,.89-.37L71,27a1.27,1.27,0,0,0,0-1.79l-5.66-5.68,7.3-7.33A1.3,1.3,0,0,0,73,11.32ZM18.91,62.61c-3.09,3.1-6.5,4.54-9.12,3.83A4,4,0,0,1,6.86,63.5c-.71-2.63.72-6.05,3.82-9.16L53.56,11.27l8.23,8.27ZM63.57,17.75,55.34,9.48,61.74,3,70,11.32Z"/></svg>