<svg id="f7649f5c-6c41-443a-95da-f1f93c9aa860" data-name="Layer 1" xmlns="http://www.w3.org/2000/svg" viewBox="0 0 15.02 15.02"><title>pencil</title><path id="5fcc920f-ce78-431b-ac50-34b13df2a9b4" data-name="pencil.svg" d="M0,10.91V15H4.14l8.25-8.25L8.26,2.65Zm3.6,2.86H2.55V12.49H1.28V11.43l.9-.9,2.33,2.33Zm5-9.42a.21.21,0,0,1,.22.2s0,0,0,0a.24.24,0,0,1-.07.17L3.35,10.11a.23.23,0,0,1-.17.07A.21.21,0,0,1,3,10s0,0,0,0A.23.23,0,0,1,3,9.79L8.41,4.41A.23.23,0,0,1,8.58,4.34Zm6.09-1.64L12.34.39a1.29,1.29,0,0,0-.9-.38,1.25,1.25,0,0,0-.89.38L8.89,2,13,6.15,14.66,4.5A1.27,1.27,0,0,0,15,3.61a1.32,1.32,0,0,0-.36-.9Z" transform="translate(-0.01 -0.01)"/></svg>