<svg id="ff1145c2-5035-47c4-b923-6ff9de297301" data-name="Layer 1" xmlns="http://www.w3.org/2000/svg" viewBox="0 0 15.4 15.41"><title>phone</title><path id="b74aabc5-8ca1-4560-9de4-eb22003b49a5" data-name="phone.svg" d="M15.39,11.94a2,2,0,0,0-.84-.58c-.62-.35-1.26-.69-1.87-1.05a2.3,2.3,0,0,0-1-.5c-.67,0-1.64,2-2.23,2a2.31,2.31,0,0,1-.94-.43A10.92,10.92,0,0,1,4,6.89a2.38,2.38,0,0,1-.42-.94c0-.59,2-1.57,2-2.23a2.3,2.3,0,0,0-.5-1C4.73,2.12,4.39,1.48,4,.86A1.94,1.94,0,0,0,3.46,0a.55.55,0,0,0-.23,0A4.88,4.88,0,0,0,1.71.33,2.85,2.85,0,0,0,.55,1.67a4.2,4.2,0,0,0-.56,2A8.44,8.44,0,0,0,.75,6.58,9.74,9.74,0,0,0,1.66,8.5a18.51,18.51,0,0,0,5.25,5.26,10.47,10.47,0,0,0,1.92.91,8.41,8.41,0,0,0,2.87.76,4.15,4.15,0,0,0,2-.56,2.91,2.91,0,0,0,1.34-1.16,5,5,0,0,0,.34-1.52A.61.61,0,0,0,15.39,11.94Z"/></svg>