<svg id="765d0127-6112-43db-950e-a1e87f182465" data-name="Layer 1" xmlns="http://www.w3.org/2000/svg" viewBox="0 0 14.02 14.02"><title>phone</title><path id="bac3c7d2-c1f4-475a-aeec-a0551382f71d" data-name="phone.svg" d="M14,10.86a1.77,1.77,0,0,0-.76-.53l-1.7-1a2.08,2.08,0,0,0-.88-.46c-.61,0-1.5,1.8-2,1.8a2.17,2.17,0,0,1-.85-.39A9.85,9.85,0,0,1,3.68,6.26a2.15,2.15,0,0,1-.39-.86c0-.53,1.8-1.42,1.8-2a2,2,0,0,0-.46-.88C4.3,1.93,4,1.35,3.68.78A1.8,1.8,0,0,0,3.15,0a.51.51,0,0,0-.21,0A4.33,4.33,0,0,0,1.56.31,2.61,2.61,0,0,0,.5,1.52,3.81,3.81,0,0,0,0,3.37,7.65,7.65,0,0,0,.68,6a9,9,0,0,0,.83,1.74A16.49,16.49,0,0,0,6.29,12.5,9,9,0,0,0,8,13.33a7.59,7.59,0,0,0,2.61.69,3.81,3.81,0,0,0,1.85-.51,2.61,2.61,0,0,0,1.21-1.06A4.39,4.39,0,0,0,14,11.07.51.51,0,0,0,14,10.86Z" transform="translate(0.01 0)"/></svg>