<svg id="3c41e40b-8c22-47e2-84dc-27a751d9a795" data-name="Layer 1" xmlns="http://www.w3.org/2000/svg" viewBox="0 0 85.99 68.99"><title>picture</title><path id="f91285a1-6342-4d6c-84ca-0f527678e9ce" data-name="picture.svg" d="M33,41.67l-7.17-7.19L11.46,48.86v8.62H74.52V37.36L55.89,18.68ZM20.06,28.74a8.62,8.62,0,1,0-8.6-8.65v0A8.61,8.61,0,0,0,20.06,28.74ZM78.82,0H7.16A7.2,7.2,0,0,0,0,7.18V61.8A7.2,7.2,0,0,0,7.17,69H78.83A7.2,7.2,0,0,0,86,61.8V7.18A7.2,7.2,0,0,0,78.82,0Zm1.43,61.8a1.48,1.48,0,0,1-1.43,1.44H7.16a1.48,1.48,0,0,1-1.43-1.44V7.18A1.48,1.48,0,0,1,7.16,5.74H78.82a1.48,1.48,0,0,1,1.43,1.44V61.8Z" transform="translate(0 0.01)"/></svg>