<svg id="67a1b9de-88b6-4dfb-9fe5-4adc2a561170" data-name="Layer 1" xmlns="http://www.w3.org/2000/svg" viewBox="0 0 43 43"><title>play</title><path id="cc897dac-ee9b-4412-ab35-132423445a7e" data-name="play.svg" d="M32.24,20,17,11a1.78,1.78,0,0,0-1.79,0,1.81,1.81,0,0,0-.89,1.57V30.45A1.81,1.81,0,0,0,15.22,32a2,2,0,0,0,.9.22A1.72,1.72,0,0,0,17,32l15.23-9a1.77,1.77,0,0,0,0-3.08ZM21.49,0A21.5,21.5,0,1,0,43,21.5,21.5,21.5,0,0,0,21.49,0Zm0,36.72A15.23,15.23,0,1,1,36.72,21.5,15.23,15.23,0,0,1,21.49,36.72Z" transform="translate(0.01)"/></svg>