<svg id="40c57ca9-bf8b-4728-bb2e-5fad2897a570" data-name="Layer 1" xmlns="http://www.w3.org/2000/svg" viewBox="0 0 64.99 90.53"><title>plusplan</title><path id="7e34c213-97df-47df-884b-9067f84b2e4b" data-name="plusplan.svg" d="M64.72,28.19l-5.93-5.57.74-8a.77.77,0,0,0-.56-.81l-7.84-2.19L48,4.12a.76.76,0,0,0-.87-.45l-8,1.69L33,.19a.76.76,0,0,0-1,0L25.74,5.36l-8-1.68a.76.76,0,0,0-.87.45l-3.1,7.47L6,13.79a.76.76,0,0,0-.55.8l.76,8L.22,28.21a.76.76,0,0,0-.11,1l4.44,6.76L1.87,43.63a.75.75,0,0,0,.35.91l7.1,3.94,1,6.74-.09,0L.26,82.5a.76.76,0,0,0,.16.78.77.77,0,0,0,.77.21L13.26,80,19.7,90.18a.76.76,0,0,0,.65.36h.08a.79.79,0,0,0,.64-.5L31.61,61.19l-.22-.08.65-.32L42.74,90a.79.79,0,0,0,.64.5h.09a.76.76,0,0,0,.65-.36L50.55,80l12.07,3.48a.77.77,0,0,0,.77-.21.76.76,0,0,0,.16-.78L54.21,56.94a.78.78,0,0,0,.23-.43l1.22-8,7.08-3.94a.77.77,0,0,0,.35-.92l-2.66-7.68,4.42-6.77A.76.76,0,0,0,64.72,28.19ZM20.17,88.05l-5.91-9.34a.75.75,0,0,0-.86-.32L2.22,81.61l8.94-24.46.11,0,8.14.2,4.8,6.56a.77.77,0,0,0,.62.31.68.68,0,0,0,.34-.08l4.54-2.22Zm30.26-9.66a.75.75,0,0,0-.86.32l-5.91,9.34-9.8-26.81,5.95,2.92a.77.77,0,0,0,1-.24l4.82-6.56,7.1-.18L61.6,81.61Zm8.51-43a.75.75,0,0,0-.08.66l2.58,7.44-6.85,3.81a.76.76,0,0,0-.38.55L53,55.65l-7.86.2a.75.75,0,0,0-.6.31L39.9,62.51,32.83,59a.8.8,0,0,0-.68,0l-7.08,3.47-4.65-6.34a.79.79,0,0,0-.6-.32L12,55.66l-1.17-7.78a.77.77,0,0,0-.38-.55L3.53,43.52l2.59-7.43A.77.77,0,0,0,6,35.42L1.74,28.88l5.75-5.39a.79.79,0,0,0,.24-.63L7,15.08,14.59,13a.75.75,0,0,0,.5-.44l3-7.22,7.7,1.63a.76.76,0,0,0,.65-.16l6-5,6,5a.79.79,0,0,0,.65.15l7.69-1.63,3,7.22a.75.75,0,0,0,.5.44L58,15.07l-.72,7.78a.76.76,0,0,0,.24.62l5.74,5.39ZM32.37,13A20.07,20.07,0,1,0,52.53,33,20.07,20.07,0,0,0,32.37,13Zm0,38.61A18.54,18.54,0,1,1,51,33,18.54,18.54,0,0,1,32.37,51.58Zm8.54-21.49H35.33V24.54a3,3,0,0,0-5.92,0v5.55H23.83a2.94,2.94,0,0,0,0,5.89h5.61v5.56a3,3,0,0,0,5.92,0V36h5.58a2.95,2.95,0,0,0,0-5.89Z" transform="translate(0.02 -0.01)"/></svg>