<svg id="83b10c64-9139-44bb-9d69-23469b3c5f3a" data-name="Layer 1" xmlns="http://www.w3.org/2000/svg" viewBox="0 0 64.99 90.53"><title>premiumplan</title><path id="ce2e43c5-28b8-44f5-a892-26417bb41591" data-name="premiumplan.svg" d="M64.74,28.19l-5.93-5.58.74-8a.76.76,0,0,0-.55-.8l-7.84-2.19L48,4.12a.78.78,0,0,0-.87-.46l-8,1.69L33,.18a.78.78,0,0,0-1,0L25.75,5.36l-8-1.69a.78.78,0,0,0-.87.46l-3.1,7.46L6,13.78a.77.77,0,0,0-.56.81l.76,8L.23,28.2a.77.77,0,0,0-.12,1l4.44,6.76L1.88,43.63a.75.75,0,0,0,.35.91l7.1,3.94,1,6.74-.09,0L.27,82.5a.76.76,0,0,0,.16.78.77.77,0,0,0,.77.21L13.27,80l6.44,10.17a.75.75,0,0,0,.65.36h.08a.79.79,0,0,0,.64-.5L31.63,61.19l-.22-.08.65-.32L42.75,90a.79.79,0,0,0,.64.5h.08a.76.76,0,0,0,.65-.36L50.56,80l12.07,3.48a.77.77,0,0,0,.77-.21.76.76,0,0,0,.16-.78L54.21,56.94a.78.78,0,0,0,.23-.43l1.22-8.05,7.09-3.94a.76.76,0,0,0,.35-.91l-2.66-7.68,4.42-6.77A.76.76,0,0,0,64.74,28.19ZM20.18,88.05l-5.91-9.34a.75.75,0,0,0-.86-.32L2.23,81.61l8.95-24.47.11,0,8.14.2,4.81,6.56a.77.77,0,0,0,.62.31.68.68,0,0,0,.34-.08l4.54-2.23Zm30.26-9.66a.75.75,0,0,0-.86.32l-5.91,9.34L33.86,61.24l5.95,2.92a.77.77,0,0,0,1-.24l4.82-6.56,7.1-.18,8.93,24.43Zm8.51-43a.75.75,0,0,0-.08.66l2.58,7.43-6.85,3.82a.76.76,0,0,0-.38.55L53,55.65l-7.86.2a.75.75,0,0,0-.6.31l-4.66,6.35L32.84,59a.77.77,0,0,0-.68,0l-7.08,3.47-4.65-6.35a.78.78,0,0,0-.6-.31L12,55.66,10.8,47.88a.75.75,0,0,0-.39-.55L3.54,43.52l2.59-7.43A.76.76,0,0,0,6,35.42L1.75,28.88l5.75-5.4a.75.75,0,0,0,.24-.62L7,15.08,14.6,13a.77.77,0,0,0,.5-.44l3-7.23,7.7,1.63a.76.76,0,0,0,.65-.16l6-5,6,5a.76.76,0,0,0,.65.16l7.69-1.63,3,7.22a.8.8,0,0,0,.5.44L58,15.07l-.72,7.77a.76.76,0,0,0,.24.63l5.74,5.39ZM32.38,13A20.08,20.08,0,1,0,52.54,33,20.07,20.07,0,0,0,32.38,13Zm0,38.62A18.55,18.55,0,1,1,51,33,18.55,18.55,0,0,1,32.38,51.58Zm11.2-22.17-7.26-1L33,21.92a.77.77,0,0,0-.68-.41h0a.76.76,0,0,0-.68.43l-3.18,6.57-7.24,1.11a.77.77,0,0,0-.61.53.76.76,0,0,0,.2.78l5.29,5-1.17,7.2a.76.76,0,0,0,.31.74.79.79,0,0,0,.44.14.78.78,0,0,0,.36-.09l6.45-3.46L39,43.83a.76.76,0,0,0,1.1-.81l-1.31-7.17L44,30.71a.76.76,0,0,0-.44-1.3Z" transform="translate(0.01 -0.01)"/></svg>