<svg id="f057fa20-b39b-4f1b-b47c-8736887c9e11" data-name="Layer 1" xmlns="http://www.w3.org/2000/svg" viewBox="0 0 16.97 15.05"><title>print</title><path id="4aff1abd-54a6-40e0-a294-04cf173ebbe1" data-name="print.svg" d="M15,6.26h-.65V3.75a2.53,2.53,0,0,0-.69-1.61L12.1.65A2.75,2.75,0,0,0,10.43,0H3.57a1,1,0,0,0-1,.94V6.26H1.94A1.94,1.94,0,0,0,0,8.14v4.08a.34.34,0,0,0,.33.31H2.59V14.1a1,1,0,0,0,1,.94h9.79a1,1,0,0,0,1-.94V12.53h2.29a.33.33,0,0,0,.32-.31V8.14A1.93,1.93,0,0,0,15,6.26ZM13,13.78H3.9V11.27H13Zm0-6.27H3.9V1.24h6.53V2.81a1,1,0,0,0,1,.94H13ZM15,8.77a.63.63,0,1,1,.66-.63A.65.65,0,0,1,15,8.77Z" transform="translate(0.02 0.01)"/></svg>