<svg id="8be9a764-7618-422a-9e09-3cc3445ececb" data-name="Layer 1" xmlns="http://www.w3.org/2000/svg" viewBox="0 0 6.03 8.94"><title>question</title><path id="b8a54b10-54f8-488c-98bf-1286ff53e378" data-name="question.svg" d="M3.71,6.7H2.15A.26.26,0,0,0,1.89,7h0V8.65a.27.27,0,0,0,.26.28H3.71A.27.27,0,0,0,4,8.65H4V7a.26.26,0,0,0-.25-.27ZM3.07,0A3.26,3.26,0,0,0,0,1.86a.29.29,0,0,0,.06.37l1.07.87a.39.39,0,0,0,.17.06A.27.27,0,0,0,1.55,3a3.75,3.75,0,0,1,.7-.8,1.29,1.29,0,0,1,.7-.2.93.93,0,0,1,1,.74,1,1,0,0,1-.71.92A2.34,2.34,0,0,0,1.89,5.55v.31a.38.38,0,0,0,.23.39H3.69a.32.32,0,0,0,.26-.34A1.38,1.38,0,0,1,4.57,5,2.4,2.4,0,0,0,6,2.79,3,3,0,0,0,3.07,0Z"/></svg>