<svg id="7431694b-db42-4fcc-8b39-3bd4d39dfe2e" data-name="Layer 1" xmlns="http://www.w3.org/2000/svg" viewBox="0 0 14.02 18"><title>recipes</title><path id="5fd9131b-5d00-458e-b003-b70af7efa4eb" data-name="recipes.svg" d="M5.73,0A.64.64,0,0,0,5.1.64V4.82a.64.64,0,0,1-1.28,0V.64a.64.64,0,1,0-1.27,0h0V4.82a.64.64,0,0,1-1.28,0V.64A.64.64,0,0,0,0,.64H0V7.07A2,2,0,0,0,1.27,8.89v7.82A1.29,1.29,0,0,0,2.55,18H3.82A1.29,1.29,0,0,0,5.1,16.71V8.89A2,2,0,0,0,6.37,7.07V.64A.65.65,0,0,0,5.73,0Zm7.65,0H10.83A3.21,3.21,0,0,0,7.64,3.21v8a.33.33,0,0,0,.32.32h2.23v5.14A1.29,1.29,0,0,0,11.47,18h1.27A1.29,1.29,0,0,0,14,16.71V.64A.65.65,0,0,0,13.38,0Z" transform="translate(0)"/></svg>