<svg id="9350b079-17ff-4dc5-9381-26b54ae67fea" data-name="Layer 1" xmlns="http://www.w3.org/2000/svg" viewBox="0 0 15.97 12.98"><title>signout</title><path id="01942000-7e43-4773-b29f-fcae890bb209" data-name="signout.svg" d="M15.78,6,10.24.52A.64.64,0,0,0,9.78.32.65.65,0,0,0,9.13,1V3.89H4.56a.65.65,0,0,0-.65.65V8.44a.65.65,0,0,0,.65.65H9.13V12a.65.65,0,0,0,.65.65.64.64,0,0,0,.46-.19l5.54-5.52a.63.63,0,0,0,0-.89ZM5.87,11.68H2.94a1.63,1.63,0,0,1-1.63-1.62V2.92A1.63,1.63,0,0,1,2.94,1.3H6.2c.46,0,.33-.69.33-1A.33.33,0,0,0,6.2,0H2.93A2.93,2.93,0,0,0,0,2.92v7.14A2.93,2.93,0,0,0,2.93,13H6.2c.46,0,.33-.69.33-1S6.12,11.68,5.87,11.68Z" transform="translate(0 0)"/></svg>