<svg id="3113df58-bf39-4928-94f3-2e522abb7902" data-name="Layer 1" xmlns="http://www.w3.org/2000/svg" viewBox="0 0 42 38"><title>taxi</title><path id="bd38cfd1-e1d4-41ac-9183-eda3ae510c0b" data-name="taxi.svg" d="M42,16H37.61L33.69,6.48A4,4,0,0,0,30,4H27V0H15V4H12a4,4,0,0,0-3.7,2.48L4.39,16H0v2H3.57L2,21.8V34H4v4h9V34H29v4h9V34h2V21.8L38.43,18H42ZM17,2h8V4H17ZM10.16,7.24A2,2,0,0,1,12,6H30a2,2,0,0,1,1.85,1.24L35.45,16H6.55ZM4,23H6a2,2,0,0,1,0,4H4Zm7,13H6V34h5Zm25,0H31V34h5Zm2-4H4V29H6a4,4,0,0,0,0-8H4.49l1.24-3H36.27l1.24,3H36a4,4,0,0,0,0,8h2Zm0-5H36a2,2,0,0,1,0-4h2ZM16,26H26V24H16Z"/></svg>