<svg id="980dc5a1-8972-49fe-ad3d-29a8d21e4d7d" data-name="Layer 1" xmlns="http://www.w3.org/2000/svg" viewBox="0 0 52.01 51.09"><title>telephone</title><path id="8802110a-4ce1-4d80-a747-a9028b895890" data-name="telephone.svg" d="M32.63,28.8H29.46a.8.8,0,0,0,0,1.6h3.17a.8.8,0,0,0,0-1.6Zm5,10H34.51a.8.8,0,0,0,0,1.6h3.17a.8.8,0,1,0,0-1.6h0Zm0-10H34.51a.8.8,0,0,0,0,1.6h3.17a.81.81,0,0,0,.83-.8.79.79,0,0,0-.83-.8Zm-5,5H29.46a.8.8,0,0,0,0,1.6h3.17a.8.8,0,0,0,0-1.6Zm0,5H29.46a.8.8,0,0,0,0,1.6h3.17a.8.8,0,0,0,0-1.6Zm5-5H34.51a.8.8,0,0,0,0,1.6h3.17a.82.82,0,0,0,1-.61.8.8,0,0,0-.59-1,1.3,1.3,0,0,0-.38,0ZM50.94,10.64a3.62,3.62,0,0,0-2.58-1.07H21.77V.81a.8.8,0,0,0-1.6,0V6.42a3.64,3.64,0,0,0-2.06-.64H8.1A3.66,3.66,0,0,0,4.45,9.44v.13H3.65A3.66,3.66,0,0,0,0,13.23v32a3.64,3.64,0,0,0,1.07,2.58l.07.07h0a3.62,3.62,0,0,0,2.51,1H4.72A3.7,3.7,0,0,0,5.53,50,3.62,3.62,0,0,0,8.1,51.11h10A3.63,3.63,0,0,0,20.7,50a3.71,3.71,0,0,0,.8-1.2H48.35A3.66,3.66,0,0,0,52,45.18v-32a3.64,3.64,0,0,0-1.07-2.59Zm-.52,2.59v32a2.06,2.06,0,0,1-2.06,2.06H21.77V11.16H48.36a2.06,2.06,0,0,1,2.06,2.06h0ZM20.17,9.44v38a2.07,2.07,0,0,1-2.06,2.06H8.1A2.06,2.06,0,0,1,6,47.45v-38A2.07,2.07,0,0,1,8.1,7.38h10a2.06,2.06,0,0,1,2.06,2.06ZM4.45,11.16V47.23H3.65A2.06,2.06,0,0,1,1.6,45.18V13.23a2.07,2.07,0,0,1,2.06-2.06h.79Zm39.22,4.32H28.52a.8.8,0,0,0-.8.8v4.52a.8.8,0,0,0,.8.8H43.67a.8.8,0,0,0,.8-.8V16.28a.8.8,0,0,0-.8-.8Zm-.8,1.6V20H29.32V17.08H42.87ZM42.72,33.8H39.56a.8.8,0,0,0,0,1.6h3.17a.8.8,0,0,0,0-1.6Zm0,5H39.56a.8.8,0,0,0,0,1.6h3.17a.8.8,0,0,0,0-1.6Zm0-10H39.56a.8.8,0,0,0,0,1.6h3.17a.8.8,0,0,0,0-1.6Z" transform="translate(0 -0.02)"/></svg>