<svg id="4f808ce0-83d7-4109-8d6e-127667bd3cd7" data-name="Layer 1" xmlns="http://www.w3.org/2000/svg" viewBox="0 0 14.02 15.05"><title>trash</title><path id="4e43874d-840c-4977-a868-911a22ce37e8" data-name="trash.svg" d="M13.7,2.49H10.62L9.92.86A1.55,1.55,0,0,0,8.59,0H5.41A1.55,1.55,0,0,0,4.08.86l-.7,1.64H.31A.31.31,0,0,0,0,2.8H0v.63a.31.31,0,0,0,.31.31h1v9.33a1.81,1.81,0,0,0,1.59,2h8.28a1.85,1.85,0,0,0,1.59-2V3.75h1A.31.31,0,0,0,14,3.44h0V2.81a.31.31,0,0,0-.31-.31ZM5.26,1.35a.33.33,0,0,1,.17-.11H8.59a.39.39,0,0,1,.17.11l.48,1.15H4.78ZM5.09,12.21a.31.31,0,0,1-.31.31H4.14a.31.31,0,0,1-.32-.3h0V5.31A.31.31,0,0,1,4.13,5h.65a.31.31,0,0,1,.32.3h0Zm2.55,0a.31.31,0,0,1-.31.31H6.69a.31.31,0,0,1-.32-.31h0V5.31A.31.31,0,0,1,6.68,5h.65a.31.31,0,0,1,.32.3h0Zm2.55,0a.31.31,0,0,1-.31.31H9.24a.31.31,0,0,1-.32-.3h0V5.31A.31.31,0,0,1,9.23,5h.65a.31.31,0,0,1,.32.3h0Z" transform="translate(0.01 0.01)"/></svg>