<svg id="f9fa6fb0-5b6e-4eb3-ba86-b4dd9ee13381" data-name="Layer 1" xmlns="http://www.w3.org/2000/svg" viewBox="0 0 46 44"><title>truck</title><path id="0fafcbe1-37d1-4eb8-b579-41791542735a" data-name="truck.svg" d="M44.88,0H0V21.7l5,2.56V40H7v4h9V40H30v4h9V40h2V24.35l5-2.66V0ZM14,42H9V40h5Zm13-4H19v-9h8Zm10,4H32V40h5Zm2-9H37a2,2,0,1,1,0-4h2Zm0-6H37a4,4,0,1,0,0,8h2v3H29v-11H17V38H7V35H9a4,4,0,1,0,0-8H7V24.2H39Zm-32,6v-4H9a2,2,0,1,1,0,4ZM39,22.19H7V5.85H39Zm5-1.71-3,1.6V3.84H5V22L2,20.47V2H44Z"/></svg>