<svg id="08a4d250-5c4d-415d-9846-d00e263cf6d4" data-name="Layer 1" xmlns="http://www.w3.org/2000/svg" viewBox="0 0 19.19 15.59"><title>twitter</title><path id="79d47675-5420-4894-be31-5afc74b8123c" data-name="twitter.svg" d="M19.17,1.86a7.82,7.82,0,0,1-2.26.61A4,4,0,0,0,18.64.3a7.85,7.85,0,0,1-2.5.95,3.93,3.93,0,0,0-6.8,2.69,4.51,4.51,0,0,0,.1.9A11.16,11.16,0,0,1,1.34.73a3.81,3.81,0,0,0-.54,2A3.92,3.92,0,0,0,2.55,6a4,4,0,0,1-1.77-.5v0A3.93,3.93,0,0,0,3.93,9.39a4.17,4.17,0,0,1-1,.13,5,5,0,0,1-.74-.06,3.94,3.94,0,0,0,3.68,2.73A7.89,7.89,0,0,1,.95,13.87a8.16,8.16,0,0,1-.95,0A11.18,11.18,0,0,0,17.21,4.4c0-.17,0-.34,0-.51A8.29,8.29,0,0,0,19.17,1.86Z"/></svg>