<svg id="4032cf1c-c39b-48a8-b444-d2b1e01289bb" data-name="Layer 1" xmlns="http://www.w3.org/2000/svg" viewBox="0 0 15.98 12.98"><title>twitter</title><path id="2b1f415b-ea25-4fbf-b358-de3bbd7f58c7" data-name="twitter.svg" d="M16,1.53A6.53,6.53,0,0,1,14.09,2,3.32,3.32,0,0,0,15.53.23,6.31,6.31,0,0,1,13.45,1,3.28,3.28,0,0,0,7.78,3.26,3.67,3.67,0,0,0,7.86,4,9.31,9.31,0,0,1,1.11.59,3.16,3.16,0,0,0,.66,2.24,3.29,3.29,0,0,0,2.12,5,3.35,3.35,0,0,1,.64,4.55v0A3.29,3.29,0,0,0,3.27,7.81a3.56,3.56,0,0,1-.86.11,4.1,4.1,0,0,1-.62-.05,3.27,3.27,0,0,0,3.06,2.27,6.57,6.57,0,0,1-4.07,1.4,7,7,0,0,1-.79,0A9.33,9.33,0,0,0,14.34,3.65c0-.14,0-.29,0-.43A6.75,6.75,0,0,0,16,1.53Z" transform="translate(0.01 0.01)"/></svg>