<svg id="3b27bc18-f874-4a5b-8c5b-1c2634558a42" data-name="590edbda-6850-4723-84bc-2922f030c51a" xmlns="http://www.w3.org/2000/svg" viewBox="0 0 14.14 14.25"><title>whatsapp</title><path d="M9.72,8.45c-.24,0-.7.89-1,.89a.41.41,0,0,1-.2-.06,5.38,5.38,0,0,1-1.39-.93,4.65,4.65,0,0,1-.94-1.26.27.27,0,0,1,0-.14c0-.21.63-.61.63-1,0-.09-.47-1.34-.53-1.5s-.14-.31-.39-.31l-.34,0a.67.67,0,0,0-.48.2,1.94,1.94,0,0,0-.68,1.45v.07A3.26,3.26,0,0,0,5,7.67,7.18,7.18,0,0,0,8,10.45,6,6,0,0,0,9.71,11a1.91,1.91,0,0,0,1.59-.85,2,2,0,0,0,.16-.7.37.37,0,0,0,0-.14A8.92,8.92,0,0,0,9.72,8.45Z" transform="translate(-0.65 -0.61)"/><path d="M7.85.61A6.94,6.94,0,0,0,1.9,11.13L.65,14.85l3.84-1.23A6.94,6.94,0,1,0,7.85.61Zm0,12.72a5.81,5.81,0,0,1-3.18-1l-2.23.71.73-2.15a5.77,5.77,0,1,1,4.68,2.39Z" transform="translate(-0.65 -0.61)"/></svg>