<svg id="5c79aa0b-7688-4b1a-b081-4686c033ecc0" data-name="Layer 1" xmlns="http://www.w3.org/2000/svg" viewBox="0 0 19.28 19.31"><title>whatsapp</title><path id="790f7ec7-fd98-45c3-b36c-e1b81afb0de7" data-name="whatsapp.svg" d="M12.37,10.63c-.33,0-1,1.21-1.33,1.21a.57.57,0,0,1-.28-.09,7.48,7.48,0,0,1-1.9-1.26A6.53,6.53,0,0,1,7.58,8.78a.46.46,0,0,1-.06-.19c0-.29.87-.82.87-1.3,0-.12-.64-1.82-.73-2a.47.47,0,0,0-.51-.43h0c-.16,0-.31,0-.46,0A.92.92,0,0,0,6,5.08a2.64,2.64,0,0,0-.93,2v.1A4.41,4.41,0,0,0,6,9.57a9.73,9.73,0,0,0,4,3.78,8.19,8.19,0,0,0,2.39.77A2.62,2.62,0,0,0,14.53,13a2.8,2.8,0,0,0,.21-.95.64.64,0,0,0,0-.19A12.4,12.4,0,0,0,12.37,10.63ZM9.82,0A9.45,9.45,0,0,0,.35,9.41a9.33,9.33,0,0,0,1.36,4.85L0,19.31l5.24-1.67A9.43,9.43,0,1,0,9.82,0Zm0,17.24a8,8,0,0,1-4.33-1.3l-3,1,1-2.91A7.77,7.77,0,0,1,1.93,9.4a7.89,7.89,0,1,1,7.94,7.84H9.82Z"/></svg>