<svg id="cf73697e-ff52-4d61-866e-0c1832f0809b" data-name="Layer 1" xmlns="http://www.w3.org/2000/svg" viewBox="0 0 34 34"><title>world</title><path id="47aeccb8-9b45-4b29-84de-edf2396952d2" data-name="world.svg" d="M17,0A17,17,0,1,0,34,17,17,17,0,0,0,17,0ZM28.53,27.47a14,14,0,0,0-4-2.21,20.71,20.71,0,0,0,1.66-7.56h6.34A15.49,15.49,0,0,1,28.53,27.47ZM1.44,17.7H8a20.92,20.92,0,0,0,1.62,7.47,14.45,14.45,0,0,0-4.18,2.29,15.45,15.45,0,0,1-4-9.76Zm4-11.16a14.69,14.69,0,0,0,4.2,2.3A21,21,0,0,0,8,16.3H1.44a15.45,15.45,0,0,1,4-9.76ZM16.3,8.65A21.21,21.21,0,0,1,11.62,8,18.46,18.46,0,0,1,16.3,2.24Zm0,1.4V16.3H9.42a19.44,19.44,0,0,1,1.58-7A22,22,0,0,0,16.3,10.05Zm0,7.65v6.25a22.24,22.24,0,0,0-5.32.79,19.37,19.37,0,0,1-1.56-7Zm0,7.65v6.47A18.36,18.36,0,0,1,11.59,26a20.89,20.89,0,0,1,4.71-.67Zm1.4,0a20.93,20.93,0,0,1,4.92.73A18.37,18.37,0,0,1,17.7,32Zm0-1.4V17.7h7.12a19.6,19.6,0,0,1-1.58,7.11,21.92,21.92,0,0,0-5.54-.86Zm0-7.65V10.05a22.12,22.12,0,0,0,5.51-.85,19.33,19.33,0,0,1,1.61,7.1Zm0-7.65V2.06a18.53,18.53,0,0,1,4.89,5.86,20.17,20.17,0,0,1-4.89.73Zm1.63-7.06a15.65,15.65,0,0,1,8.21,3.94,13.15,13.15,0,0,1-3.6,2,19.89,19.89,0,0,0-4.61-5.9Zm-9.08,6a13.33,13.33,0,0,1-3.8-2,15.59,15.59,0,0,1,8.51-4,20,20,0,0,0-4.71,6Zm0,18.87a20,20,0,0,0,4.64,6,15.59,15.59,0,0,1-8.42-4,13.58,13.58,0,0,1,3.78-2ZM24,26.52a13,13,0,0,1,3.57,1.95,15.57,15.57,0,0,1-8.12,3.92A19.57,19.57,0,0,0,24,26.52ZM26.22,16.3a20.93,20.93,0,0,0-1.68-7.55,14.19,14.19,0,0,0,4-2.22,15.49,15.49,0,0,1,4,9.77Z"/></svg>