<svg id="66a8fae5-04f7-480c-8488-6d27d3623424" data-name="Layer 1" xmlns="http://www.w3.org/2000/svg" viewBox="0 0 15.01 18"><title>youtube</title><path id="01e1d292-3eb5-4f43-a66b-28c213b2d8d7" data-name="youtube.svg" d="M7.26,6.8a1.27,1.27,0,0,0,1.08-.51A2,2,0,0,0,8.62,5.1V3.34a1.94,1.94,0,0,0-.28-1.17,1.27,1.27,0,0,0-1.08-.51,1.25,1.25,0,0,0-1.06.51,1.94,1.94,0,0,0-.28,1.17V5.1A2,2,0,0,0,6.2,6.29,1.25,1.25,0,0,0,7.26,6.8ZM6.83,3.16c0-.46.14-.69.43-.69s.44.23.44.69V5.27c0,.46-.13.71-.44.71s-.43-.25-.43-.71ZM10,6.8a1.47,1.47,0,0,0,1.05-.62v.55H12v-5h-.92V5.54a.81.81,0,0,1-.58.44.22.22,0,0,1-.21-.22h0a2.22,2.22,0,0,1,0-.35V1.72H9.37v4a2.57,2.57,0,0,0,.08.76A.57.57,0,0,0,10,6.8ZM3.67,4V6.73h1V4L5.91,0h-1L4.19,2.64,3.47,0H2.4c.21.62.43,1.25.66,1.88A15.52,15.52,0,0,1,3.67,4Zm11,5.29a1.91,1.91,0,0,0-1.62-1.47,78.8,78.8,0,0,0-11.22,0A1.9,1.9,0,0,0,.25,9.3,15.85,15.85,0,0,0,0,12.82a15.26,15.26,0,0,0,.27,3.51,1.87,1.87,0,0,0,1.61,1.46,75.23,75.23,0,0,0,11.23,0,1.9,1.9,0,0,0,1.62-1.46A16.47,16.47,0,0,0,15,12.82a15.84,15.84,0,0,0-.26-3.52Zm-10.45,1H3.18V16h-1V10.31H1.1V9.37H4.26v.94ZM7,16h-.9v-.54a1.47,1.47,0,0,1-1,.61.56.56,0,0,1-.59-.37A2.46,2.46,0,0,1,4.39,15V11.07h.9v3.65a2.48,2.48,0,0,0,0,.36.2.2,0,0,0,.19.21h0a.78.78,0,0,0,.58-.43V11.07H7v5Zm3.44-1.49a3.62,3.62,0,0,1-.09,1,.71.71,0,0,1-.72.55,1.25,1.25,0,0,1-.94-.55V16h-.9V9.37h.9v2.18A1.23,1.23,0,0,1,9.62,11a.71.71,0,0,1,.72.56,3.43,3.43,0,0,1,.09,1Zm3.42-.82H12v.87c0,.47.15.7.46.7a.4.4,0,0,0,.41-.37,5.27,5.27,0,0,0,0-.61h.92v.13a4.16,4.16,0,0,1,0,.59,1.17,1.17,0,0,1-.22.54,1.24,1.24,0,0,1-1.09.53,1.29,1.29,0,0,1-1.09-.51,1.89,1.89,0,0,1-.29-1.17V12.69a1.92,1.92,0,0,1,.28-1.17A1.28,1.28,0,0,1,12.5,11a1.26,1.26,0,0,1,1.07.51,1.92,1.92,0,0,1,.28,1.17Zm-4.72-1.9a.64.64,0,0,0-.45.22v3a.64.64,0,0,0,.45.22c.27,0,.4-.22.4-.68V12.49C9.53,12,9.4,11.82,9.13,11.82Zm3.36,0c-.3,0-.45.23-.45.68V13H13V12.5c0-.45-.16-.68-.46-.68Z" transform="translate(0.03)"/></svg>